<?xml version="1.0" encoding="UTF-8" standalone="no"?>
<!-- Created with Inkscape (http://www.inkscape.org/) -->

<svg
   width="43.891132mm"
   height="12.710271mm"
   viewBox="0 0 43.891133 12.710271"
   version="1.1"
   id="svg8947"
   sodipodi:docname="arrow-sign.svg"
   inkscape:version="1.1.1 (3bf5ae0d25, 2021-09-20)"
   xmlns:inkscape="http://www.inkscape.org/namespaces/inkscape"
   xmlns:sodipodi="http://sodipodi.sourceforge.net/DTD/sodipodi-0.dtd"
   xmlns="http://www.w3.org/2000/svg"
   xmlns:svg="http://www.w3.org/2000/svg">
  <sodipodi:namedview
     id="namedview8949"
     pagecolor="#ffffff"
     bordercolor="#666666"
     borderopacity="1.0"
     inkscape:pageshadow="2"
     inkscape:pageopacity="0.0"
     inkscape:pagecheckerboard="0"
     inkscape:document-units="mm"
     showgrid="false"
     fit-margin-top="0"
     fit-margin-left="0"
     fit-margin-right="0"
     fit-margin-bottom="0"
     inkscape:zoom="3.1108586"
     inkscape:cx="94.668399"
     inkscape:cy="132.76078"
     inkscape:window-width="2560"
     inkscape:window-height="1573"
     inkscape:window-x="0"
     inkscape:window-y="-10"
     inkscape:window-maximized="1"
     inkscape:current-layer="layer1" />
  <defs
     id="defs8944">
    <clipPath
       clipPathUnits="userSpaceOnUse"
       id="clipPath13758-0-2">
      <path
         d="m 1655.06,368.93 c 1.92,4.953 7.49,7.41 12.44,5.484 l 235.69,-91.516 c 2.47,-0.96 5.79,-3.433 7.41,-5.55 l 43.1,-56.055 c 4.85,-6.309 2.43,-12.555 -5.41,-13.938 l -69.64,-12.289 c -2.61,-0.457 -6.74,-0.054 -9.21,0.911 l -235.69,91.507 c -4.95,1.926 -7.41,7.493 -5.49,12.442 z"
         id="path13756-6-0" />
    </clipPath>
    <rect
       x="-1043.1545"
       y="2611.0254"
       width="156.80421"
       height="442.13153"
       id="rect2229-2-2" />
  </defs>
  <g
     inkscape:label="Vrstva 1"
     inkscape:groupmode="layer"
     id="layer1"
     transform="translate(-153.96893,-131.72102)">
    <path
       d="m 155.57898,144.43129 c -0.88191,9.4e-4 -1.59962,-0.71653 -1.60105,-1.59906 l -0.009,-9.47878 c -0.001,-0.88158 0.71668,-1.60065 1.59844,-1.60193 l 32.37908,-0.0305 c 0.40932,-2.8e-4 0.98283,0.15947 1.33337,0.3715 l 7.74754,4.68611 c 0.53723,0.32446 0.83188,0.7777 0.83269,1.2739 0.002,0.49539 -0.29486,0.94746 -0.83034,1.27345 l -7.73943,4.70218 c -0.34915,0.21152 -0.92138,0.37248 -1.33319,0.37367 l -32.37812,0.0294"
       style="fill:#000000;fill-opacity:1;fill-rule:nonzero;stroke:none;stroke-width:0.12806"
       id="path13738-5-1" />
    <path
       d="m 154.33841,133.35262 c -0.001,-0.68027 0.54952,-1.23227 1.22971,-1.23243 l 32.37794,-0.0299 c 0.33936,-2e-4 0.85045,0.14066 1.14213,0.31802 l 7.74778,4.68671 c 0.8719,0.52753 0.87332,1.38533 0.002,1.91464 l -7.73943,4.70218 c -0.29023,0.1758 -0.80181,0.3196 -1.1414,0.31921 l -32.37751,0.031 c -0.68019,1.6e-4 -1.23242,-0.54988 -1.23324,-1.22967 l -0.008,-9.47973"
       style="fill:#faae38;fill-opacity:1;fill-rule:nonzero;stroke:none;stroke-width:0.12806"
       id="path13768-2-9" />
    <path
       d="m 188.01657,132.66901 -31.72524,0.0297 c -0.61398,9.2e-4 -1.11256,0.49914 -1.11099,1.11378 l 0.007,8.56784 c 9.2e-4,0.61416 0.49887,1.11184 1.11323,1.11204 l 31.72504,-0.0302 c 0.30846,-10e-4 0.76963,-0.13048 1.0317,-0.29037 l 6.99404,-4.24828 c 0.789,-0.47954 0.78866,-1.25338 -5.5e-4,-1.73093 l -7.00205,-4.2362 c -0.26384,-0.15879 -0.7262,-0.28743 -1.0326,-0.28727 z m 9e-4,0.61558 c 0.19502,-7.5e-4 0.54759,0.0969 0.71347,0.19826 l 7.00072,4.23631 c 0.21909,0.13209 0.29572,0.26537 0.29552,0.33899 -5.8e-4,0.073 -0.0762,0.20677 -0.29388,0.33937 l -6.99509,4.24911 c -0.16407,0.10099 -0.51672,0.20119 -0.71265,0.19914 l -31.72523,0.0297 c -0.27326,8.5e-4 -0.49709,-0.22135 -0.49712,-0.49673 l -0.009,-8.56702 c 1.6e-4,-0.27443 0.22274,-0.49735 0.49718,-0.49839 l 31.72542,-0.0292"
       style="fill:#000000;fill-opacity:1;fill-rule:nonzero;stroke:none;stroke-width:0.12806"
       id="path13770-2-3" />
    <text
       xml:space="preserve"
       transform="matrix(0.17762999,0.00204794,-0.00204794,0.17762999,347.36942,-328.17441)"
       id="text2227-8-1"
       style="font-style:normal;font-weight:normal;font-size:40px;line-height:1.25;font-family:sans-serif;letter-spacing:1.97038px;white-space:pre;shape-inside:url(#rect2229-2-2);fill:#fefdfd;fill-opacity:1;stroke:#000000;stroke-width:2.23413;stroke-miterlimit:4;stroke-dasharray:none;stroke-opacity:0.986133"
       x="68.920662"
       y="0"><tspan
         x="-1026.6674"
         y="2652.389"
         id="tspan11111"><tspan
           style="font-family:'Coconut Days';-inkscape-font-specification:'Coconut Days';text-align:center;text-anchor:middle"
           id="tspan11109">TEXT</tspan></tspan></text>
  </g>
</svg>
