<?xml version="1.0" encoding="UTF-8" standalone="no"?>
<!-- Created with Inkscape (http://www.inkscape.org/) -->

<svg
   version="1.1"
   id="svg8607"
   xml:space="preserve"
   width="173.0672"
   height="173.28474"
   viewBox="0 0 173.0672 173.28475"
   xmlns="http://www.w3.org/2000/svg"
   xmlns:svg="http://www.w3.org/2000/svg"><defs
     id="defs8611"><clipPath
       clipPathUnits="userSpaceOnUse"
       id="clipPath8631"><path
         d="M 0,255.118 H 510.236 V 0 H 0 Z"
         id="path8629" /></clipPath></defs><g
     id="g8613"
     transform="matrix(1.3333333,0,0,-1.3333333,-84.070265,256.72146)"><g
       id="g8617"
       transform="translate(151.6525,175.4406)"><path
         d="M 0,0 -2.2,1.101 -1,3.3 1.1,2.101 Z"
         style="fill:#25a9e0;fill-opacity:1;fill-rule:nonzero;stroke:none"
         id="path8619" /></g><g
       id="g8621"
       transform="translate(150.4523,76.3409)"><path
         d="m 0,0 -2.2,-0.9 -1,2.2 2.3,1 z"
         style="fill:#83298f;fill-opacity:1;fill-rule:nonzero;stroke:none"
         id="path8623" /></g><g
       id="g8633"
       transform="translate(172.9523,160.5411)"><path
         d="m 0,0 c 0,-0.801 -0.6,-1.4 -1.4,-1.4 -0.8,0 -1.4,0.599 -1.4,1.4 0,0.8 0.6,1.399 1.4,1.399 C -0.6,1.399 0,0.8 0,0"
         style="fill:#8bc53f;fill-opacity:1;fill-rule:nonzero;stroke:none"
         id="path8635" /></g><g
       id="g8637"
       transform="translate(123.4523,72.8409)"><path
         d="m 0,0 c 0,-0.8 -0.6,-1.4 -1.4,-1.4 -0.8,0 -1.4,0.6 -1.4,1.4 0,0.8 0.6,1.399 1.4,1.399 C -0.6,1.5 0,0.8 0,0"
         style="fill:#25a9e0;fill-opacity:1;fill-rule:nonzero;stroke:none"
         id="path8639" /></g><g
       id="g8641"
       transform="translate(98.0519,175.7404)"><path
         d="m 0,0 v -3.1 l 2.801,1.6 z"
         style="fill:#f0b32c;fill-opacity:1;fill-rule:nonzero;stroke:none"
         id="path8643" /></g><g
       id="g8645"
       transform="translate(126.1525,183.0411)"><path
         d="M 0,0 -0.2,0.3 H -0.3 L -0.601,0.5 -1.3,-0.301 -2.101,0.3 -2.3,0 -2.4,-0.101 -2.601,-0.4 -1.8,-1 -2.4,-1.801 -2.101,-2 -2,-2.101 l 0.3,-0.2 0.599,0.801 0.901,-0.601 0.2,0.3 0.1,0.101 0.2,0.3 -0.901,0.599 z"
         style="fill:#83298f;fill-opacity:1;fill-rule:nonzero;stroke:none"
         id="path8647" /></g><g
       id="g8649"
       transform="translate(167.3527,87.5411)"><path
         d="M 0,0 0.1,0.399 V 0.5 0.8 l -1.1,0.099 0.1,1 H -1.301 -1.4 L -1.801,2 V 0.899 H -2.9 V 0.6 0.5 0.1 h 1.099 L -1.9,-1 h 0.4 0.1 0.4 v 1 z"
         style="fill:#f0b32c;fill-opacity:1;fill-rule:nonzero;stroke:none"
         id="path8651" /></g><g
       id="g8653"
       transform="translate(181.1525,110.4406)"><path
         d="m 0,0 c 0,-0.8 -0.601,-1.399 -1.4,-1.399 -0.8,0 -1.4,0.599 -1.4,1.399 0,0.8 0.6,1.4 1.4,1.4 C -0.7,1.4 0,0.7 0,0"
         style="fill:#ec1651;fill-opacity:1;fill-rule:nonzero;stroke:none"
         id="path8655" /></g><g
       id="g8657"
       transform="translate(180.2521,134.6407)"><path
         d="M 0,0 1.601,1.6 3.4,0.3 1.8,-1.3 Z"
         style="fill:#f6921e;fill-opacity:1;fill-rule:nonzero;stroke:none"
         id="path8659" /></g><g
       id="g8661"
       transform="translate(79.9523,156.3409)"><path
         d="m 0,0 c -1.3,-0.4 -2,-1.8 -1.6,-3 0.1,-0.2 0.1,-0.3 0.2,-0.5 0.2,-0.3 0.2,-0.7 0.1,-1 -0.1,-0.4 -0.4,-0.5 -0.8,-0.601 -1.3,-0.399 -2,-1.799 -1.6,-3 0.1,-0.199 0.1,-0.299 0.2,-0.5 0.2,-0.299 0.2,-0.699 0.1,-1 -0.1,-0.299 -0.3,-0.5 -0.6,-0.599 l -0.2,-0.1 0.6,-1.301 0.2,0.101 c 0.6,0.2 1.1,0.7 1.3,1.3 0.3,0.7 0.2,1.5 -0.1,2.099 -0.2,0.301 -0.2,0.701 -0.1,1 0.1,0.401 0.4,0.5 0.8,0.601 1.3,0.399 2,1.8 1.6,3 C 0,-3.3 0,-3.2 -0.1,-3 c -0.2,0.3 -0.2,0.7 -0.1,1 0.1,0.399 0.4,0.5 0.8,0.6 L 0.8,-1.3 1,-1.2 0.4,0.2 Z"
         style="fill:#ec1651;fill-opacity:1;fill-rule:nonzero;stroke:none"
         id="path8663" /></g><g
       id="g8665"
       transform="translate(75.3527,131.8409)"><path
         d="M 0,0 0.199,1.899 -5,3 -5.2,1.1 Z M 2.399,1.399 2.199,-0.5 7.899,-1.7 7.6,-4.3 1.899,-3.101 1.699,-4.5 -0.5,-4 -0.301,-2.601 -5.5,-1.5 l -0.2,-1.4 -2.2,0.5 0.2,1.4 -4.6,1 0.3,2.6 4.6,-1 0.099,1.9 -4.599,1 0.299,2.6 4.601,-1 0.199,1.5 2.2,-0.5 -0.2,-1.5 5.2,-1.1 L 0.6,6 2.8,5.5 2.6,4 8.3,2.8 8,0.2 Z"
         style="fill:#1e2941;fill-opacity:1;fill-rule:nonzero;stroke:none"
         id="path8667" /></g><g
       id="g8669"
       transform="translate(87.4523,163.1407)"><path
         d="m 0,0 4.6,-4.2 1.2,1.3 c 0.7,0.8 0.8,1.5 -0.3,2.6 L 4.2,0.9 C 2.8,2.2 2,2.1 1,1.1 Z M -6,5.7 -2.1,2 -1.2,2.9 c 0.8,0.9 0.9,1.8 -0.3,2.9 l -0.8,0.8 c -1.1,1 -1.9,1.1 -2.6,0.2 z M -0.4,9.1 0.1,8.6 C 1.6,7.2 2.2,5.8 1.7,4.3 3.3,5.1 4.9,4.5 6.5,3.1 L 7.7,2 C 10,-0.1 10.1,-2.5 7.9,-4.8 L 4.5,-8.5 -10.3,5.3 -7,8.8 c 2.3,2.5 4.4,2.5 6.6,0.3"
         style="fill:#1e2941;fill-opacity:1;fill-rule:nonzero;stroke:none"
         id="path8671" /></g><g
       id="g8673"
       transform="translate(106.7521,186.0411)"><path
         d="m 0,0 2,-5.9 1.2,0.4 c 1.1,0.399 1.6,1.1 1.1,2.6 L 3.7,-1 C 3.2,0.399 2.5,0.8 1.5,0.399 Z M 8.8,-15.301 C 8.3,-14.601 7.9,-13.9 7.7,-13 l -1,3 c -0.599,1.8 -1.4,2.199 -2.8,1.8 l -1,-0.401 2.6,-7.799 -3,-1 -6.399,19.2 4.5,1.5 c 3.099,0.999 5,0 5.899,-2.901 l 0.5,-1.5 c 0.7,-2 0.5,-3.5 -0.7,-4.599 C 8,-5.801 9,-7.101 9.7,-9.101 l 1,-3 c 0.2,-0.799 0.6,-1.599 1.1,-2.2 z"
         style="fill:#1e2941;fill-opacity:1;fill-rule:nonzero;stroke:none"
         id="path8675" /></g><g
       id="g8677"
       transform="translate(136.2521,186.5411)"><path
         d="M 0,0 -2.6,-14.5 -5.399,-14 -1.8,6 2.101,5.299 3.2,-7.2 5.3,4.799 8.101,4.299 4.5,-15.7 1.3,-15.101 Z"
         style="fill:#1e2941;fill-opacity:1;fill-rule:nonzero;stroke:none"
         id="path8679" /></g><g
       id="g8681"
       transform="translate(157.6525,167.1407)"><path
         d="m 0,0 c -0.9,-1.1 -0.8,-2 0,-2.6 0.8,-0.6 1.6,-0.6 2.5,0.5 L 9.399,6.4 C 10.3,7.5 10.2,8.4 9.399,9 8.6,9.6 7.8,9.6 6.899,8.5 Z m 4.3,10.4 c 2,2.5 4.5,2.9 6.9,0.9 2.4,-2 2.6,-4.5 0.6,-7 L 5.2,-3.9 c -2,-2.5 -4.5,-2.9 -6.9,-0.9 -2.401,2 -2.6,4.5 -0.6,7 z"
         style="fill:#1e2941;fill-opacity:1;fill-rule:nonzero;stroke:none"
         id="path8683" /></g><g
       id="g8685"
       transform="translate(184.5519,153.1407)"><path
         d="m 0,0 -5.699,-2.4 0.5,-1.1 C -4.699,-4.6 -4,-5.1 -2.5,-4.4 l 1.801,0.8 c 1.3,0.6 1.699,1.3 1.3,2.3 z m -14.6,-10 c 0.6,0.6 1.401,1 2.201,1.2 l 2.899,1.2 c 1.7,0.7 2.101,1.6 1.601,2.9 L -8.3,-3.7 -15.899,-6.9 -17.1,-4 1.601,3.9 3.5,-0.5 c 1.301,-3 0.4,-5 -2.399,-6.2 l -1.5,-0.6 C -2.3,-8.1 -3.8,-8 -5,-7 c 0,-1.7 -1.199,-2.8 -3.1,-3.6 l -2.9,-1.2 c -0.8,-0.3 -1.5,-0.7 -2.1,-1.3 z"
         style="fill:#1e2941;fill-opacity:1;fill-rule:nonzero;stroke:none"
         id="path8687" /></g><g
       id="g8689"
       transform="translate(184.2521,123.6407)"><path
         d="M 0,0 -0.399,-4.4 -3.3,-4.2 -2.899,0.2 -8.8,0.7 -9.3,-4.8 -12.2,-4.6 -11.5,4.1 8.601,2.4 7.9,-6.3 5,-6.1 5.5,-0.6 Z"
         style="fill:#1e2941;fill-opacity:1;fill-rule:nonzero;stroke:none"
         id="path8691" /></g><g
       id="g8693"
       transform="translate(175.0519,97.0411)"><path
         d="m 0,0 -2.399,-3.801 -5.401,3.5 c -2.7,1.7 -3.399,4.101 -1.7,6.801 1.7,2.699 4.101,3 6.801,1.3 L 6.2,2.1 C 8.9,0.399 9.601,-2 7.9,-4.7 6.2,-7.4 3.801,-7.7 1.101,-6 L -0.6,-4.9 1,-2.4 2.801,-3.601 c 1.199,-0.799 2,-0.5 2.599,0.3 0.6,0.801 0.401,1.7 -0.799,2.5 L -4.6,5.1 C -5.8,5.899 -6.6,5.6 -7.1,4.8 -7.6,4 -7.5,3.1 -6.3,2.399 l 3.101,-2 0.8,1.201 z"
         style="fill:#1e2941;fill-opacity:1;fill-rule:nonzero;stroke:none"
         id="path8695" /></g><g
       id="g8697"
       transform="translate(164.6525,73.5411)"><path
         d="m 0,0 -2.7,-1.7 -11,17 2.7,1.7 z"
         style="fill:#1e2941;fill-opacity:1;fill-rule:nonzero;stroke:none"
         id="path8699" /></g><g
       id="g8701"
       transform="translate(136.6525,78.5411)"><path
         d="M 0,0 C -0.2,1.399 -0.9,1.899 -1.9,1.8 -2.9,1.699 -3.5,1 -3.2,-0.4 l 1.599,-10.8 C -1.4,-12.601 -0.7,-13.101 0.3,-13 c 1,0.1 1.599,0.8 1.3,2.199 z m 4.6,-10.2 c 0.5,-3.2 -1,-5.3 -4.1,-5.7 -3.101,-0.401 -5,1.099 -5.5,4.4 L -6.5,-1.101 C -7,2.1 -5.5,4.199 -2.4,4.6 0.7,5 2.6,3.399 3.1,0.199 Z"
         style="fill:#1e2941;fill-opacity:1;fill-rule:nonzero;stroke:none"
         id="path8703" /></g><g
       id="g8705"
       transform="translate(109.2521,70.7404)"><path
         d="m 0,0 5.101,13.801 2.699,-1 -7.1,-19 L -3,-4.8 -1.8,7.7 -6,-3.699 l -2.7,1 7.1,19 3.1,-1.101 z"
         style="fill:#1e2941;fill-opacity:1;fill-rule:nonzero;stroke:none"
         id="path8707" /></g></g></svg>
