<?xml version="1.0" encoding="UTF-8" standalone="no"?>
<!-- Created with Inkscape (http://www.inkscape.org/) -->

<svg
   width="288.13202mm"
   height="335.43173mm"
   viewBox="0 0 288.13202 335.43173"
   version="1.1"
   id="svg3514"
   inkscape:version="1.1.1 (3bf5ae0d25, 2021-09-20)"
   sodipodi:docname="cactus.svg"
   xmlns:inkscape="http://www.inkscape.org/namespaces/inkscape"
   xmlns:sodipodi="http://sodipodi.sourceforge.net/DTD/sodipodi-0.dtd"
   xmlns="http://www.w3.org/2000/svg"
   xmlns:svg="http://www.w3.org/2000/svg">
  <sodipodi:namedview
     id="namedview3516"
     pagecolor="#ffffff"
     bordercolor="#666666"
     borderopacity="1.0"
     inkscape:pageshadow="2"
     inkscape:pageopacity="0.0"
     inkscape:pagecheckerboard="0"
     inkscape:document-units="mm"
     showgrid="false"
     inkscape:zoom="0.048607166"
     inkscape:cx="-9515.058"
     inkscape:cy="1440.1169"
     inkscape:window-width="2560"
     inkscape:window-height="1573"
     inkscape:window-x="0"
     inkscape:window-y="-10"
     inkscape:window-maximized="1"
     inkscape:current-layer="g2821"
     fit-margin-top="0"
     fit-margin-left="0"
     fit-margin-right="0"
     fit-margin-bottom="0" />
  <defs
     id="defs3511" />
  <g
     inkscape:label="Vrstva 1"
     inkscape:groupmode="layer"
     id="layer1"
     transform="translate(49.828935,60.433543)">
    <g
       id="g2821"
       transform="matrix(0.0424057,0,0,-0.0424057,-596.7132,-227.58436)">
      <g
         id="g8531"
         transform="matrix(1.0561105,0,0,1.0561105,-914.25394,537.29101)">
        <path
           d="m 14933.28,-9337.151 640.8,-109 260.2,1598.1 c 1.9,16.5 32,294.4 -73.8,824.4 -62.7,314.1 -210.2,568.2 -404.7,697.3 -133.7,88.7 -284.4,116.7 -447.8,83.2 -217.8,-44.6 -369,-150 -462,-322.3 -100,-185.2 -137.9,-456.9 -112.5,-807.6 49.6,-684.9 160.1,-1450.9 599.8,-1964.1 m 752.5,-400.7 c -7.6,0 -15.2,0.6 -22.7,1.9 l -822.4,140 c -29.9,5.1 -57.2,20.1 -77.6,42.5 -520.2,573.9 -645.6,1414.4 -699.6,2160.8 -29.6,408.7 17.6,721.4 144.3,955.9 131.6,243.6 348.9,398 645.9,458.8 233.2,47.8 458.6,5.3 651.7,-122.8 257.9,-171.1 442.7,-480 520.6,-869.9 119,-596.2 78,-903.2 76.2,-916 -0.1,-1 -0.2,-1.9 -0.4,-2.8 l -282.4,-1734.8 c -5.8,-35.6 -25.6,-67.4 -54.9,-88.4 -23.2,-16.5 -50.7,-25.2 -78.7,-25.2"
           style="fill:#3f3e1c;fill-opacity:1;fill-rule:nonzero;stroke:none"
           id="path288" />
        <path
           d="m 15968.28,-7867.751 -1.2,-7.5 -281.3,-1727.3 -822.5,140.1 c -14.9,16.4 -29.4,33.1 -43.6,50 -448.8,533.1 -567.9,1293.1 -621.3,2029.7 -54.9,759.8 170.1,1167.3 682.6,1272.3 512.3,104.8 896.3,-306 1012.3,-886.7 33,-165.3 53.2,-307.1 65.4,-425.3 v -0.6 c 30.4,-296.5 9.6,-444.7 9.6,-444.7"
           style="fill:#b1cd1e;fill-opacity:1;fill-rule:nonzero;stroke:none"
           id="path290" />
        <path
           d="m 15665.88,-9396.651 1237.8,-138.4 c 94.5,142.9 327,501.9 598.2,973.6 296.1,515.2 217.5,1042.3 -191.1,1281.8 -141.6,83 -334.8,97 -544.2,39.5 -340.1,-93.5 -656.8,-355.3 -847.4,-700.5 -328.9,-596 -410.4,-1061.3 -253.3,-1456 m 1304.7,-417.4 c -5,0 -10,0.2 -15.1,0.8 l -1397.3,156.2 c -46.4,5.2 -86.9,34 -107.1,76.2 -236.1,494.8 -162.7,1057.5 231.1,1771 225.1,407.8 603.7,718.4 1012.7,830.7 280.3,77.1 547.7,53.3 752.8,-66.9 253.3,-148.5 424.6,-391.6 482.4,-684.4 60.5,-306.4 -6.4,-640.4 -193.5,-965.9 -358.4,-623.4 -651.3,-1054.3 -654.2,-1058.6 -25.4,-37.2 -67.4,-59.1 -111.8,-59.1"
           style="fill:#3f3e1c;fill-opacity:1;fill-rule:nonzero;stroke:none"
           id="path382" />
        <path
           d="m 17619.18,-8628.951 c -360,-626 -648.7,-1049.8 -648.7,-1049.8 l -455.2,50.9 -942.1,105.3 c -210,440 -151.1,961.2 227.5,1647.3 378.8,686.2 1143.7,967.3 1578.5,712.4 184.7,-108.3 320.8,-276 388.5,-481.3 92,-278 58.6,-624.5 -148.5,-984.8"
           style="fill:#b1cd1e;fill-opacity:1;fill-rule:nonzero;stroke:none"
           id="path384" />
        <g
           id="g2285"
           transform="translate(-4019.1198,-23570.551)">
          <path
             d="m 19348.8,18121.8 156.1,-58.2 c 85.1,309.3 71.1,638.1 -42,804.4 -48.4,71.2 -108.9,105.1 -190.3,106.4 -65.7,1 -103.9,-24.5 -129.6,-88.4 -79.1,-197.2 26.2,-580.1 205.8,-764.2 m 241.1,-369.7 c -15.8,0 -31.7,2.7 -47.3,8.5 l -315,117.5 c -16.5,6.2 -31.6,15.5 -44.6,27.5 -271.8,251.4 -413.4,776.8 -291.2,1081.2 67,167.1 207.6,261.3 385.4,258.3 169.9,-2.8 311.5,-80.6 409.6,-224.9 179.6,-264.2 191.8,-749.6 29.8,-1180.4 -20.4,-54.2 -72,-87.7 -126.7,-87.7"
             style="fill:#3f3e1c;fill-opacity:1;fill-rule:nonzero;stroke:none"
             id="path230" />
          <path
             d="m 19589.8,17887.5 -314.8,117.4 c -12.2,11.3 -24,23.1 -35.4,35.5 -304.5,329.5 -393.4,1076.5 35.4,1069.4 194.6,-3.2 317,-137.2 376.6,-330.8 l 0.5,-1.5 c 76,-248.7 48.6,-595.4 -62.3,-890"
             style="fill:#b1cd1e;fill-opacity:1;fill-rule:nonzero;stroke:none"
             id="path232" />
          <path
             d="m 19645.5,18066.4 c -37.2,21.4 -76.7,40.9 -118.2,58.3 -36.5,15.4 -71.5,27.5 -105.1,37 173.9,155.1 290.9,393.1 229.9,615.8 28.9,-94.7 42.9,-203.7 43,-318.5 0,-127.4 -17,-262 -49.6,-392.6"
             style="fill:#859a13;fill-opacity:1;fill-rule:nonzero;stroke:none"
             id="path234" />
          <path
             d="m 19102.3,19107.7 c -11.1,0 -22,5.4 -28.5,15.4 l -99.9,154.2 c -10.1,15.6 -5.7,36.6 10,46.8 15.7,10.1 36.6,5.7 46.8,-10 l 99.9,-154.2 c 10.2,-15.7 5.7,-36.6 -10,-46.8 -5.6,-3.7 -12,-5.4 -18.3,-5.4"
             style="fill:#3f3e1c;fill-opacity:1;fill-rule:nonzero;stroke:none"
             id="path236" />
          <path
             d="m 19605.6,19003.5 c -1.9,0 -3.7,0.1 -5.6,0.5 -18.4,3 -30.9,20.4 -27.8,38.9 l 30,181.2 c 3.1,18.5 20.5,31 39,27.9 18.4,-3.1 30.9,-20.5 27.8,-39 l -30.1,-181.2 c -2.7,-16.6 -17.1,-28.3 -33.3,-28.3"
             style="fill:#3f3e1c;fill-opacity:1;fill-rule:nonzero;stroke:none"
             id="path238" />
          <path
             d="m 19756.1,18328.6 c -11.7,0 -23.1,6.1 -29.3,16.9 -9.4,16.2 -3.8,36.9 12.4,46.3 l 159.2,91.6 c 16.1,9.4 36.8,3.8 46.2,-12.4 9.3,-16.2 3.7,-36.9 -12.4,-46.2 l -159.2,-91.7 c -5.4,-3.1 -11.2,-4.5 -16.9,-4.5"
             style="fill:#3f3e1c;fill-opacity:1;fill-rule:nonzero;stroke:none"
             id="path240" />
          <path
             d="m 18898.2,18632.6 c -3.9,0 -7.9,0.7 -11.8,2.2 l -172.1,64.2 c -17.5,6.5 -26.4,26 -19.9,43.5 6.6,17.5 26,26.4 43.5,19.9 l 172.2,-64.2 c 17.5,-6.5 26.4,-26 19.8,-43.5 -5,-13.7 -17.9,-22.1 -31.7,-22.1"
             style="fill:#3f3e1c;fill-opacity:1;fill-rule:nonzero;stroke:none"
             id="path242" />
          <path
             d="m 18952.8,17408.9 c 76.1,-80.8 391.5,-391 633.7,-264.7 121.8,63.6 191.3,179.6 185.9,310.4 -7.3,174.4 -138.1,331.6 -349.9,420.5 -153.6,64.5 -276.4,55.1 -365.1,-28 -103.2,-96.7 -146.8,-284.6 -104.6,-438.2 m 509.3,-566.3 c -381.3,0 -716,390 -733,410.1 -10.8,12.7 -19.1,27.4 -24.6,43.2 -89.4,259 -18.8,573.9 167.8,748.8 97.7,91.5 312.7,223.7 655,80 311.1,-130.5 503.8,-376.9 515.5,-658.9 10,-238.3 -113.8,-448.3 -331.1,-561.6 -83.5,-43.6 -167.7,-61.6 -249.6,-61.6"
             style="fill:#3f3e1c;fill-opacity:1;fill-rule:nonzero;stroke:none"
             id="path244" />
          <path
             d="m 19649.1,17024.2 c -110.9,-57.8 -226.2,-55.4 -334.2,-22.7 -263.6,79.4 -482.4,338.5 -482.4,338.5 -120,347.5 112.5,882.5 642.4,659.9 162.1,-68 277,-167.1 347.6,-277.6 160.1,-250.7 91.5,-559.9 -173.4,-698.1"
             style="fill:#b1cd1e;fill-opacity:1;fill-rule:nonzero;stroke:none"
             id="path246" />
          <path
             d="m 19819.7,17168.5 c -31.8,48 -66.2,92.6 -103,133.8 117.3,143.4 162.5,317.5 105.8,420 57.5,-90.1 85.5,-187.7 85.5,-282.3 0,-97.7 -30,-192.1 -88.3,-271.5"
             style="fill:#859a13;fill-opacity:1;fill-rule:nonzero;stroke:none"
             id="path248" />
          <path
             d="m 19084.9,17655.2 c -18.6,0 -33.8,15.1 -33.8,33.8 v 183.7 c 0,18.7 15.2,33.9 33.8,33.9 18.7,0 33.9,-15.2 33.9,-33.9 V 17689 c 0,-18.7 -15.2,-33.8 -33.9,-33.8"
             style="fill:#3f3e1c;fill-opacity:1;fill-rule:nonzero;stroke:none"
             id="path254" />
          <path
             d="m 19387.4,18320.4 c -18.7,0 -33.8,15.2 -33.8,33.9 v 183.7 c 0,18.7 15.1,33.8 33.8,33.8 18.7,0 33.8,-15.1 33.8,-33.8 v -183.7 c 0,-18.7 -15.1,-33.9 -33.8,-33.9"
             style="fill:#3f3e1c;fill-opacity:1;fill-rule:nonzero;stroke:none"
             id="path256" />
          <path
             d="m 19140.3,18693.7 c -3.9,0 -7.9,0.7 -11.8,2.1 -17.5,6.5 -26.4,26 -19.9,43.5 l 64.3,172.2 c 6.5,17.5 26,26.4 43.5,19.8 17.5,-6.5 26.4,-26 19.9,-43.5 l -64.3,-172.1 c -5,-13.6 -17.9,-22 -31.7,-22"
             style="fill:#3f3e1c;fill-opacity:1;fill-rule:nonzero;stroke:none"
             id="path258" />
          <path
             d="m 19479.9,17539 c -10.9,0 -21.6,5.2 -28.1,15 -10.4,15.5 -6.3,36.5 9.3,46.9 l 152.6,102.2 c 15.5,10.4 36.6,6.3 47,-9.3 10.4,-15.5 6.2,-36.5 -9.3,-46.9 l -152.7,-102.2 c -5.8,-3.9 -12.3,-5.7 -18.8,-5.7"
             style="fill:#3f3e1c;fill-opacity:1;fill-rule:nonzero;stroke:none"
             id="path260" />
          <path
             d="m 17725.4,17546 c -3.8,0 -7.5,-0.1 -11.1,-0.2 -82.8,-3.3 -110.8,-42 -124.7,-70.8 -67.6,-140.3 -87.3,-242.7 -58.7,-304.5 35.2,-75.6 156.4,-120.9 251.9,-145.6 237,-61.2 386.7,-61.8 460.3,-55.3 l 76.1,178.6 c -169.5,252.6 -424.9,397.8 -593.8,397.8 m 451.2,-849.8 c -108.3,0 -260.7,14.7 -461.6,66.6 -224.2,58 -364.8,154 -429.6,293.8 -87,187.5 -7.2,395.6 60.4,535.9 66.3,137.8 193.4,217.3 357.8,223.8 306.7,12.3 679,-235.2 884.7,-588 21.5,-37 24.3,-81.9 7.6,-121.3 l -132.6,-311.2 c -15,-35.3 -44.3,-62.5 -80.6,-75 -12,-4.1 -78.4,-24.6 -206.1,-24.6"
             style="fill:#3f3e1c;fill-opacity:1;fill-rule:nonzero;stroke:none"
             id="path262" />
          <path
             d="m 18471.3,17160 -17.7,-41.8 -114.8,-269.4 c 0,0 -178.7,-61.2 -590,45 l -1.6,0.4 c -409.5,106.5 -428.1,331.3 -279.5,639.5 130,269.8 584.2,151.2 884.4,-204.8 h 0.2 l 0.1,-0.3 c 43.3,-51.3 83.4,-107.7 118.9,-168.6"
             style="fill:#b1cd1e;fill-opacity:1;fill-rule:nonzero;stroke:none"
             id="path264" />
          <path
             d="m 18117,16832.9 c -91.7,4.7 -213.5,21 -368.2,60.9 l -1.6,0.4 c 203.2,3 289.6,120.7 320.4,175.9 41.2,73.8 146.1,204.8 284.5,258.8 h 0.2 l 0.1,-0.3 5.3,-11 c -50.2,-54.2 -93.9,-115.5 -130.8,-183.8 -48,-88.8 -84.5,-188.8 -109.9,-300.9"
             style="fill:#859a13;fill-opacity:1;fill-rule:nonzero;stroke:none"
             id="path266" />
          <path
             d="m 17430.3,16726.3 c -10.4,0 -20.6,4.8 -27.3,13.8 -11.1,15 -7.8,36.2 7.2,47.3 l 160.3,118.1 c 15.1,11.1 36.2,7.9 47.3,-7.2 11.1,-15 7.9,-36.2 -7.2,-47.3 l -160.2,-118.1 c -6.1,-4.5 -13.1,-6.6 -20.1,-6.6"
             style="fill:#3f3e1c;fill-opacity:1;fill-rule:nonzero;stroke:none"
             id="path268" />
          <path
             d="m 17129.9,17410.2 c -18.5,0 -33.6,14.9 -33.8,33.5 -0.2,18.7 14.8,34 33.5,34.2 l 199.1,2.1 h 0.3 c 18.5,0 33.7,-14.9 33.9,-33.5 0.1,-18.7 -14.8,-34 -33.5,-34.2 l -199.1,-2.1 h -0.4"
             style="fill:#3f3e1c;fill-opacity:1;fill-rule:nonzero;stroke:none"
             id="path270" />
          <path
             d="m 17782.3,17710.6 c -17.7,0 -32.6,13.7 -33.7,31.7 l -12.9,198.6 c -1.2,18.7 12.9,34.8 31.6,36 18.7,1.3 34.7,-12.9 35.9,-31.6 l 12.9,-198.7 c 1.2,-18.6 -12.9,-34.7 -31.6,-35.9 l -2.2,-0.1"
             style="fill:#3f3e1c;fill-opacity:1;fill-rule:nonzero;stroke:none"
             id="path272" />
          <path
             d="m 18213,17548 c -18.4,0 -33.5,14.7 -33.8,33.2 l -3.5,199.1 c -0.4,18.7 14.5,34.1 33.2,34.4 19.2,0.6 34.1,-14.5 34.4,-33.2 l 3.5,-199.1 c 0.3,-18.7 -14.5,-34.1 -33.2,-34.4 h -0.6"
             style="fill:#3f3e1c;fill-opacity:1;fill-rule:nonzero;stroke:none"
             id="path274" />
          <path
             d="m 17927,17222.5 c -12.1,0 -23.8,6.5 -29.8,17.9 l -69.4,130 c -8.8,16.4 -2.6,36.9 13.9,45.7 16.5,8.8 37,2.6 45.8,-13.9 l 69.4,-129.9 c 8.8,-16.5 2.5,-37 -14,-45.8 -5,-2.7 -10.5,-4 -15.9,-4"
             style="fill:#3f3e1c;fill-opacity:1;fill-rule:nonzero;stroke:none"
             id="path276" />
          <path
             d="m 18182.3,14676.7 c -12.4,0 -24.3,6.8 -30.3,18.6 -8.4,16.7 -1.7,37.1 15,45.5 l 191.2,96.5 c 16.7,8.5 37,1.7 45.5,-14.9 8.4,-16.7 1.7,-37.1 -15,-45.5 l -191.2,-96.5 c -4.9,-2.5 -10.1,-3.7 -15.2,-3.7"
             style="fill:#3f3e1c;fill-opacity:1;fill-rule:nonzero;stroke:none"
             id="path280" />
          <path
             d="m 18017,15432.3 c -12.4,0 -24.3,6.8 -30.2,18.6 -8.4,16.7 -1.8,37 14.9,45.5 l 191.2,96.5 c 16.7,8.5 37.1,1.7 45.5,-14.9 8.4,-16.7 1.7,-37.1 -15,-45.5 l -191.2,-96.6 c -4.9,-2.4 -10.1,-3.6 -15.2,-3.6"
             style="fill:#3f3e1c;fill-opacity:1;fill-rule:nonzero;stroke:none"
             id="path282" />
          <path
             d="m 18134.3,16306.1 c -2.8,0 -5.7,0.4 -8.6,1.1 l -207.2,54.1 c -18.1,4.7 -28.9,23.2 -24.2,41.3 4.7,18.1 23.1,28.9 41.3,24.2 l 207.2,-54.1 c 18.1,-4.7 28.9,-23.2 24.2,-41.3 -3.9,-15.2 -17.7,-25.3 -32.7,-25.3"
             style="fill:#3f3e1c;fill-opacity:1;fill-rule:nonzero;stroke:none"
             id="path284" />
          <path
             d="m 19936.5,16708.3 c -9.6,0 -19.3,4.2 -25.9,12.2 -12,14.3 -10.1,35.6 4.2,47.6 l 164.3,137.5 c 14.3,12 35.6,10.1 47.6,-4.2 12,-14.3 10.1,-35.7 -4.2,-47.7 l -164.3,-137.5 c -6.3,-5.3 -14,-7.9 -21.7,-7.9"
             style="fill:#3f3e1c;fill-opacity:1;fill-rule:nonzero;stroke:none"
             id="path286" />
          <path
             d="m 19452.6,15748.2 c -10.8,-108.1 -62,-202.5 -179.4,-224.9 -117.4,-22.5 -199.8,46.4 -249.7,142.9 -41.9,80.7 -60.9,180.6 -58.7,262.3 0,0 117.2,-9.2 228.7,12.1 111.4,21.3 217,73.1 217,73.1 32.1,-75.2 51.3,-175.1 42.1,-265.5"
             style="fill:#3f3e1c;fill-opacity:1;fill-rule:nonzero;stroke:none"
             id="path292" />
          <path
             d="m 18714.5,16114.3 c -5.9,0 -11.9,1.6 -17.3,4.8 -16.1,9.6 -21.3,30.4 -11.8,46.4 65.9,110.5 216.5,147.2 303.2,159.4 -72.3,70.8 -170.2,75.6 -214,73.8 -87.7,-3.8 -169,-41.5 -193.4,-89.6 -8.4,-16.7 -28.8,-23.4 -45.5,-14.9 -16.6,8.4 -23.3,28.8 -14.8,45.5 35.8,70.7 136.6,121.6 250.8,126.6 132.1,5.7 248.4,-50.9 310.8,-151.5 6.4,-10.3 6.8,-23.2 1.1,-33.9 -5.8,-10.6 -16.8,-17.4 -28.9,-17.7 -2.4,-0.1 -237,-8 -311.1,-132.4 -6.4,-10.6 -17.6,-16.5 -29.1,-16.5"
             style="fill:#3f3e1c;fill-opacity:1;fill-rule:nonzero;stroke:none"
             id="path294" />
          <path
             d="m 19562.1,16276.3 c -7.2,0 -14.4,2.3 -20.6,7 -115.1,88.5 -335.7,9.1 -338,8.3 -11.3,-4.2 -24.1,-1.9 -33.4,5.9 -9.3,7.8 -13.7,19.9 -11.5,31.9 20.9,116.4 108.1,211.9 233.1,255.3 107.9,37.5 220.4,27.4 279.9,-25.2 14,-12.4 15.3,-33.7 2.9,-47.7 -12.4,-14.1 -33.8,-15.4 -47.8,-3 -40.4,35.8 -129.9,40.8 -212.8,12 -41.2,-14.3 -130.6,-55 -171.6,-147.4 85,20.6 238.5,42 340.5,-36.4 14.8,-11.4 17.6,-32.6 6.2,-47.5 -6.7,-8.6 -16.7,-13.2 -26.9,-13.2"
             style="fill:#3f3e1c;fill-opacity:1;fill-rule:nonzero;stroke:none"
             id="path296" />
          <path
             d="m 19452.6,15748.2 c -10.8,-108.1 -62,-202.5 -179.4,-224.9 -117.4,-22.5 -199.8,46.4 -249.7,142.9 31.3,76.4 94.4,141.8 191.8,160.4 97.3,18.6 180,-18.9 237.3,-78.4"
             style="fill:#9b553b;fill-opacity:1;fill-rule:nonzero;stroke:none"
             id="path298" />
          <path
             d="m 19375.5,16863.2 c -6.7,0 -13.5,1.9 -19.4,6.1 -15.3,10.8 -19,31.9 -8.2,47.1 l 119.9,170.7 c 10.8,15.2 31.9,18.9 47.2,8.2 15.3,-10.8 18.9,-31.9 8.2,-47.2 l -120,-170.6 c -6.6,-9.3 -17,-14.3 -27.7,-14.3"
             style="fill:#3f3e1c;fill-opacity:1;fill-rule:nonzero;stroke:none"
             id="path302" />
          <path
             d="m 19694,15948.4 c -2.3,0 -4.8,0.3 -7.2,0.9 -18.3,4 -29.8,22 -25.8,40.2 l 44.6,203.8 c 4,18.2 22,29.8 40.3,25.8 18.3,-4 29.8,-22.1 25.8,-40.3 l -44.6,-203.7 c -3.5,-15.9 -17.5,-26.7 -33.1,-26.7"
             style="fill:#3f3e1c;fill-opacity:1;fill-rule:nonzero;stroke:none"
             id="path304" />
          <path
             d="m 18908.9,16990.4 c -18.5,0 -33.6,14.9 -33.8,33.5 l -2,208.6 c -0.2,18.7 14.8,33.9 33.5,34.1 h 0.3 c 18.6,0 33.7,-14.9 33.9,-33.5 l 2,-208.5 c 0.1,-18.7 -14.9,-34 -33.6,-34.2 h -0.3"
             style="fill:#3f3e1c;fill-opacity:1;fill-rule:nonzero;stroke:none"
             id="path306" />
          <path
             d="m 18658.5,16762.6 c -5,0 -10.1,1.1 -14.9,3.5 l -187.2,91.9 c -16.8,8.3 -23.7,28.6 -15.4,45.3 8.2,16.8 28.5,23.7 45.3,15.5 l 187.2,-92 c 16.7,-8.2 23.6,-28.5 15.4,-45.3 -5.9,-12 -17.9,-18.9 -30.4,-18.9"
             style="fill:#3f3e1c;fill-opacity:1;fill-rule:nonzero;stroke:none"
             id="path308" />
          <path
             d="m 18686.7,15326.6 c -6.7,0 -13.5,2 -19.4,6.1 l -170.9,119.5 c -15.4,10.7 -19.1,31.8 -8.4,47.1 10.7,15.3 31.8,19.1 47.1,8.4 l 171,-119.5 c 15.3,-10.7 19,-31.8 8.3,-47.1 -6.5,-9.5 -17,-14.5 -27.7,-14.5"
             style="fill:#3f3e1c;fill-opacity:1;fill-rule:nonzero;stroke:none"
             id="path310" />
          <path
             d="m 19175,14942 c -3.8,0 -7.6,0.6 -11.4,1.9 -17.6,6.3 -26.8,25.6 -20.5,43.3 l 69.6,196.5 c 6.3,17.7 25.6,26.9 43.2,20.6 17.6,-6.2 26.8,-25.5 20.6,-43.2 l -69.7,-196.5 c -4.9,-13.9 -17.9,-22.6 -31.8,-22.6"
             style="fill:#3f3e1c;fill-opacity:1;fill-rule:nonzero;stroke:none"
             id="path312" />
          <path
             d="m 18978.1,14559.1 c -4.7,0 -9.4,1 -13.9,3 l -190.2,85.6 c -17,7.7 -24.6,27.7 -17,44.7 7.7,17.1 27.8,24.7 44.8,17 l 190.2,-85.6 c 17,-7.6 24.6,-27.7 16.9,-44.7 -5.6,-12.6 -17.9,-20 -30.8,-20"
             style="fill:#3f3e1c;fill-opacity:1;fill-rule:nonzero;stroke:none"
             id="path314" />
          <path
             d="m 19366.2,14293.4 h -363.8 c 129.4,149.9 146.8,331.7 207.3,584.5 79.9,333.8 265.2,885 768.1,1270.2 v -0.6 0 c 0,-1.3 0.1,-4.7 0.2,-9.9 -106.7,-111.9 -200.5,-238.8 -276.7,-376.9 -315.5,-571.7 -425.4,-1046.6 -335.1,-1467.3"
             style="fill:#859a13;fill-opacity:1;fill-rule:nonzero;stroke:none"
             id="path316" />
          <path
             d="m 21680.1,18793.2 c -73.9,0 -148.3,-46.7 -202.9,-128.4 -140,-210.1 -26.6,-648.8 215.6,-873.8 l 250.2,27.8 c 29,153.1 71.6,475 -16.7,735 -47.1,138.8 -128.6,225.5 -223.6,237.9 -7.5,1 -15,1.5 -22.6,1.5 m -30.5,-1278.6 c -30.2,0 -59.6,10.1 -83.6,28.9 -384.9,302 -540.4,931.8 -314,1271.4 118.6,177.9 300.3,269.6 485.9,245.2 201.1,-26.3 363.2,-179.1 444.8,-419.2 146.5,-431.3 8.5,-958.6 2.6,-980.9 -14.4,-53.8 -60.4,-93.4 -115.8,-99.5 l -405,-45 c -5,-0.6 -10,-0.9 -14.9,-0.9"
             style="fill:#3f3e1c;fill-opacity:1;fill-rule:nonzero;stroke:none"
             id="path318" />
          <path
             d="m 22054.5,17694.9 -404.9,-44.9 c -27,21.1 -52.7,44.2 -77.1,69.2 -270.4,275.1 -382.2,759.3 -207.9,1020.6 183,274.5 528.2,256.8 674.1,-100.1 h 0.1 c 5.5,-13.6 10.8,-27.7 15.7,-42.3 135,-397.5 0,-902.5 0,-902.5"
             style="fill:#b1cd1e;fill-opacity:1;fill-rule:nonzero;stroke:none"
             id="path320" />
          <path
             d="m 21859.5,17994.7 c 176.1,241.8 231.3,515.1 179.2,645 h 0.1 c 5.5,-13.6 10.8,-27.7 15.7,-42.3 45,-132.4 60,-276.7 60,-410.3 0,-60.8 -3.1,-119.5 -7.9,-173.8 -25.1,3.8 -50.8,5.7 -77.1,5.7 -54.5,0 -111.3,-8.1 -170,-24.3"
             style="fill:#859a13;fill-opacity:1;fill-rule:nonzero;stroke:none"
             id="path322" />
          <path
             d="m 21297.5,18756.4 c -15.5,0 -29.6,10.9 -33,26.7 l -33.2,152 c -4,18.3 7.6,36.3 25.9,40.3 18.3,4 36.3,-7.6 40.2,-25.9 l 33.2,-152 c 4,-18.2 -7.6,-36.3 -25.8,-40.3 -2.5,-0.5 -4.9,-0.8 -7.3,-0.8"
             style="fill:#3f3e1c;fill-opacity:1;fill-rule:nonzero;stroke:none"
             id="path324" />
          <path
             d="m 22166.6,18308.2 c -14.1,0 -27.2,8.9 -32,23 -6.1,17.6 3.3,36.9 21,42.9 l 147.3,50.3 c 17.7,6.1 36.9,-3.4 42.9,-21.1 6.1,-17.7 -3.3,-36.9 -21,-42.9 l -147.3,-50.3 c -3.6,-1.3 -7.3,-1.9 -10.9,-1.9"
             style="fill:#3f3e1c;fill-opacity:1;fill-rule:nonzero;stroke:none"
             id="path326" />
          <path
             d="m 22776.7,17532.3 c -8.1,0 -16.3,2.9 -22.8,8.8 -13.8,12.6 -14.8,34 -2.3,47.8 l 104.7,115.2 c 12.5,13.8 33.9,14.8 47.7,2.3 13.9,-12.6 14.9,-34 2.3,-47.8 l -104.6,-115.2 c -6.6,-7.4 -15.8,-11.1 -25,-11.1"
             style="fill:#3f3e1c;fill-opacity:1;fill-rule:nonzero;stroke:none"
             id="path328" />
          <path
             d="m 23339.4,17332.9 c -12.5,0 -24.5,6.9 -30.4,18.8 -8.3,16.8 -1.4,37.1 15.3,45.4 l 139.5,68.9 c 16.8,8.3 37.1,1.4 45.4,-15.3 8.2,-16.8 1.4,-37.1 -15.4,-45.3 l -139.5,-69 c -4.8,-2.4 -9.9,-3.5 -14.9,-3.5"
             style="fill:#3f3e1c;fill-opacity:1;fill-rule:nonzero;stroke:none"
             id="path330" />
          <path
             d="m 23288.1,16405.7 c -10.2,0 -20.3,4.6 -26.9,13.3 l -94.4,123.7 c -11.4,14.9 -8.5,36.1 6.3,47.4 14.9,11.4 36.1,8.5 47.4,-6.3 l 94.5,-123.7 c 11.3,-14.9 8.4,-36.1 -6.4,-47.4 -6.1,-4.7 -13.4,-7 -20.5,-7"
             style="fill:#3f3e1c;fill-opacity:1;fill-rule:nonzero;stroke:none"
             id="path332" />
          <path
             d="m 22596.3,16360.5 -2.1,0.1 c -18.6,1.1 -32.8,17.2 -31.7,35.8 l 9.5,155.3 c 1.1,18.7 16.9,32.9 35.8,31.8 18.7,-1.2 32.9,-17.2 31.7,-35.9 l -9.4,-155.3 c -1.1,-17.9 -16,-31.8 -33.8,-31.8"
             style="fill:#3f3e1c;fill-opacity:1;fill-rule:nonzero;stroke:none"
             id="path334" />
          <path
             d="m 22444.6,17255.7 c -78.2,-51.7 -199.7,-168.7 -166.8,-221.1 95.3,-151.5 212.6,-289.3 596.6,-309.9 156.6,-8.5 276.2,31.6 337,112.6 56.2,74.7 62.6,186 18.2,313.1 -25.6,73.3 -78.7,125.2 -162.3,158.7 -164.1,65.7 -430.6,42.6 -622.7,-53.4 m 469.5,-802.8 c -17.8,0 -35.8,0.5 -54.2,1.5 -488.5,26.2 -678.6,225.1 -811.3,436.2 -154.3,245.5 88.3,490.7 255.9,596.9 3.5,2.2 7.1,4.3 10.8,6.1 215.5,110.4 574.2,178.3 852.6,66.8 156.1,-62.5 265.9,-173.4 317.3,-320.7 75.1,-215.1 54.8,-415.8 -57.4,-565 -108.1,-144 -289.2,-221.8 -513.7,-221.8"
             style="fill:#3f3e1c;fill-opacity:1;fill-rule:nonzero;stroke:none"
             id="path336" />
          <path
             d="m 22867.2,16589.6 c -336.2,18 -506.4,120.5 -624.4,261.9 -29.2,34.9 -55.2,72 -79.6,111.1 -123.7,196.8 213.7,410.5 213.7,410.5 58.7,30 125.3,55 195.5,73.4 v 0.1 c 306.9,80.5 684.3,36.8 785,-251.5 19.3,-55.1 30.8,-108.3 34.9,-158.6 22.8,-273.7 -171.2,-465.9 -525.1,-446.9"
             style="fill:#b1cd1e;fill-opacity:1;fill-rule:nonzero;stroke:none"
             id="path338" />
          <path
             d="m 22914.5,16588.3 c -15.5,0 -31.2,0.4 -47.3,1.3 -225.4,12.1 -376.1,62.1 -486.6,136.4 144.3,219.7 210.9,477.2 183.3,706.8 4.9,7.9 7.9,12.7 8.5,13.7 75.7,-133.6 61.4,-351.4 43.2,-482.4 -10.3,-74.7 33.1,-146.2 103.8,-172.5 69.3,-25.9 166.7,-49.9 288.9,-49.9 13,0 26.2,0.2 39.7,0.8 197.5,8.3 308.8,140.6 344.3,294 1.2,-14.3 1.8,-28.3 1.8,-42.2 0.3,-239 -173.6,-406 -479.6,-406"
             style="fill:#859a13;fill-opacity:1;fill-rule:nonzero;stroke:none"
             id="path340" />
          <path
             d="m 21147.2,16881.2 c -2.6,0 -5.2,0.2 -7.9,0.9 l -151.4,35.8 c -18.2,4.3 -29.4,22.6 -25.1,40.7 4.3,18.2 22.5,29.5 40.7,25.2 l 151.4,-35.9 c 18.2,-4.3 29.5,-22.5 25.2,-40.7 -3.7,-15.6 -17.6,-26 -32.9,-26"
             style="fill:#3f3e1c;fill-opacity:1;fill-rule:nonzero;stroke:none"
             id="path342" />
          <path
             d="m 21302,17354.1 c -6.8,0 -13.7,2 -19.6,6.2 l -126.8,90.3 c -15.2,10.8 -18.7,32 -7.9,47.2 10.8,15.2 31.9,18.8 47.2,7.9 l 126.7,-90.2 c 15.3,-10.9 18.8,-32 8,-47.2 -6.6,-9.3 -17,-14.2 -27.6,-14.2"
             style="fill:#3f3e1c;fill-opacity:1;fill-rule:nonzero;stroke:none"
             id="path344" />
          <path
             d="m 21284.9,16500.4 215.8,-66.3 c 263.7,60.5 488.2,206.2 634.7,412.7 132.2,186.4 189.6,407.8 153.7,592.3 -20.7,106.1 -66.5,242.5 -167.4,289.9 -80.4,37.8 -198.4,18.4 -332.3,-54.7 -262.7,-143.4 -479.4,-656.5 -504.5,-1173.9 m 209.7,-341.4 c -13.5,0 -26.9,2 -39.8,6 l -347.5,106.8 c -56.7,17.5 -95.5,70 -95.5,129.4 0,659.6 278.5,1309 647.9,1510.7 214.7,117.2 414.3,138.7 577.2,62.1 112.4,-52.8 258.8,-179.5 317.9,-483.1 49.8,-255.8 -24.4,-555.1 -198.6,-800.7 -192.7,-271.6 -489.2,-459.3 -835,-528.6 -8.8,-1.7 -17.7,-2.6 -26.6,-2.6"
             style="fill:#3f3e1c;fill-opacity:1;fill-rule:nonzero;stroke:none"
             id="path346" />
          <path
             d="m 21494.6,16294.4 -316.4,97.1 -31,9.7 c 0,606.3 251.1,1213.9 577.3,1391.9 326.3,178.1 613.1,105 697.5,-328.1 84.3,-433.1 -245.1,-1034 -927.4,-1170.6"
             style="fill:#b1cd1e;fill-opacity:1;fill-rule:nonzero;stroke:none"
             id="path348" />
          <path
             d="m 21689,16348.8 c -52.3,55 -111.1,104.2 -176,146.9 564.6,217.9 952.4,668.5 909,969.3 8.6,-44.4 12.9,-90.6 12.9,-137.9 0.1,-367.3 -258.7,-800.2 -745.9,-978.3"
             style="fill:#859a13;fill-opacity:1;fill-rule:nonzero;stroke:none"
             id="path350" />
          <path
             d="m 21664.6,18373.5 c -18.7,0 -33.9,15.2 -33.9,33.9 v 155.6 c 0,18.7 15.2,33.8 33.9,33.8 18.6,0 33.8,-15.1 33.8,-33.8 v -155.6 c 0,-18.7 -15.2,-33.9 -33.8,-33.9"
             style="fill:#3f3e1c;fill-opacity:1;fill-rule:nonzero;stroke:none"
             id="path352" />
          <path
             d="m 21946.7,18847.7 c -10.2,0 -20.3,4.6 -26.9,13.4 -11.3,14.9 -8.4,36.1 6.5,47.4 l 123.9,94.1 c 14.9,11.3 36.1,8.4 47.4,-6.5 11.3,-14.9 8.4,-36.1 -6.5,-47.4 l -123.9,-94.1 c -6.1,-4.7 -13.3,-6.9 -20.5,-6.9"
             style="fill:#3f3e1c;fill-opacity:1;fill-rule:nonzero;stroke:none"
             id="path354" />
          <path
             d="m 21962.6,17339.3 c -18.7,0 -33.8,15.2 -33.8,33.9 v 155.6 c 0,18.7 15.1,33.8 33.8,33.8 18.7,0 33.9,-15.1 33.9,-33.8 v -155.6 c 0,-18.7 -15.2,-33.9 -33.9,-33.9"
             style="fill:#3f3e1c;fill-opacity:1;fill-rule:nonzero;stroke:none"
             id="path358" />
          <path
             d="m 21574.6,17288.7 c -18.7,0 -33.9,15.2 -33.9,33.9 v 155.6 c 0,18.6 15.2,33.8 33.9,33.8 18.7,0 33.8,-15.2 33.8,-33.8 v -155.6 c 0,-18.7 -15.1,-33.9 -33.8,-33.9"
             style="fill:#3f3e1c;fill-opacity:1;fill-rule:nonzero;stroke:none"
             id="path360" />
          <path
             d="m 21584.4,16878.9 c -14.9,0 -28.6,10 -32.6,25.1 -4.9,18 5.8,36.6 23.9,41.4 l 150.2,40.4 c 18,4.8 36.6,-5.9 41.5,-23.9 4.8,-18.1 -5.9,-36.6 -23.9,-41.5 l -150.3,-40.3 c -2.9,-0.8 -5.9,-1.2 -8.8,-1.2"
             style="fill:#3f3e1c;fill-opacity:1;fill-rule:nonzero;stroke:none"
             id="path362" />
          <path
             d="m 22942,16708.6 c -12.8,0 -25,7.3 -30.7,19.7 -7.9,17 -0.4,37.1 16.5,44.9 l 141.3,65.1 c 17,7.8 37.1,0.4 44.9,-16.6 7.9,-17 0.4,-37.1 -16.5,-44.9 l -141.4,-65.1 c -4.5,-2.1 -9.4,-3.1 -14.1,-3.1"
             style="fill:#3f3e1c;fill-opacity:1;fill-rule:nonzero;stroke:none"
             id="path364" />
          <path
             d="m 22684.6,17048.3 c -8.1,0 -16.3,2.9 -22.8,8.8 -13.8,12.6 -14.8,34 -2.3,47.8 l 104.7,115.2 c 12.5,13.8 33.9,14.9 47.8,2.3 13.8,-12.6 14.8,-34 2.3,-47.8 l -104.7,-115.2 c -6.6,-7.3 -15.8,-11.1 -25,-11.1"
             style="fill:#3f3e1c;fill-opacity:1;fill-rule:nonzero;stroke:none"
             id="path366" />
          <path
             d="m 19818.9,15788.9 c -7.9,0 -15.7,2.7 -22.1,8.3 l -123.7,106.8 c -14.2,12.2 -15.8,33.6 -3.5,47.8 12.2,14.1 33.6,15.6 47.7,3.4 l 123.7,-106.8 c 14.2,-12.2 15.7,-33.6 3.5,-47.7 -6.7,-7.8 -16.1,-11.8 -25.6,-11.8"
             style="fill:#3f3e1c;fill-opacity:1;fill-rule:nonzero;stroke:none"
             id="path370" />
          <path
             d="m 20357.8,16326.4 c -7.8,0 -15.7,2.7 -22.1,8.2 l -123.7,106.8 c -14.2,12.3 -15.7,33.6 -3.5,47.8 12.2,14.1 33.6,15.7 47.7,3.5 l 123.7,-106.9 c 14.2,-12.2 15.7,-33.6 3.5,-47.7 -6.7,-7.8 -16.1,-11.7 -25.6,-11.7"
             style="fill:#3f3e1c;fill-opacity:1;fill-rule:nonzero;stroke:none"
             id="path372" />
          <path
             d="m 20720.2,16475 c -16.7,0 -31.3,12.4 -33.5,29.5 l -20.8,162.2 c -2.4,18.5 10.7,35.5 29.2,37.8 18.5,2.4 35.5,-10.7 37.9,-29.2 l 20.8,-162.2 c 2.4,-18.5 -10.7,-35.4 -29.2,-37.8 -1.5,-0.2 -2.9,-0.3 -4.4,-0.3"
             style="fill:#3f3e1c;fill-opacity:1;fill-rule:nonzero;stroke:none"
             id="path374" />
          <path
             d="m 21825.9,15921.8 c -12.9,0 -25.3,7.5 -30.9,20.1 -7.6,17.1 0.1,37.1 17.2,44.7 l 149.4,66.3 c 17.1,7.6 37.1,-0.1 44.7,-17.2 7.6,-17 -0.2,-37 -17.2,-44.6 l -149.4,-66.4 c -4.5,-2 -9.2,-2.9 -13.8,-2.9"
             style="fill:#3f3e1c;fill-opacity:1;fill-rule:nonzero;stroke:none"
             id="path376" />
          <path
             d="m 21900.6,15530.8 c -12.9,0 -25.3,7.5 -30.9,20.1 -7.6,17.1 0.1,37.1 17.2,44.7 l 149.4,66.3 c 17.1,7.6 37.1,-0.1 44.7,-17.2 7.6,-17 -0.2,-37 -17.2,-44.6 l -149.4,-66.4 c -4.5,-2 -9.2,-2.9 -13.8,-2.9"
             style="fill:#3f3e1c;fill-opacity:1;fill-rule:nonzero;stroke:none"
             id="path378" />
          <path
             d="m 21672,14831.1 c -17.8,0 -32.8,13.9 -33.8,31.9 -1,18.7 13.3,34.7 31.9,35.7 l 163.3,9.1 c 18.9,0.9 34.6,-13.2 35.6,-31.9 1.1,-18.6 -13.2,-34.6 -31.9,-35.6 l -163.2,-9.2 h -1.9"
             style="fill:#3f3e1c;fill-opacity:1;fill-rule:nonzero;stroke:none"
             id="path380" />
          <path
             d="m 20821.3,14943.2 c -71.8,-81.5 -168.5,-128.3 -276.9,-78.1 -108.5,50.2 -135.3,154.2 -119.6,261.7 13,90 55.9,182.3 105.3,247.4 0,0 89.9,-75.9 192.8,-123.5 103,-47.7 219,-67.2 219,-67.2 -17.8,-79.8 -60.4,-172.2 -120.6,-240.3"
             style="fill:#3f3e1c;fill-opacity:1;fill-rule:nonzero;stroke:none"
             id="path386" />
          <path
             d="m 20817.3,15587.8 c -6.7,0 -13.3,1.9 -19,5.8 -2,1.3 -197.2,131.7 -329.9,73.9 -17.2,-7.4 -37.1,0.4 -44.6,17.6 -7.4,17.1 0.4,37.1 17.6,44.5 117.9,51.3 261.6,-6.6 339.2,-47.3 -17.4,99.7 -94.3,160.8 -130.9,184.7 -73.4,48 -161.4,64.9 -209.3,40 -16.5,-8.6 -37,-2.2 -45.6,14.4 -8.6,16.6 -2.2,37 14.4,45.6 70.4,36.6 182,19.2 277.6,-43.3 110.7,-72.5 172.2,-186.3 164.2,-304.3 -0.8,-12.1 -8,-22.9 -18.9,-28.2 -4.7,-2.3 -9.8,-3.4 -14.8,-3.4"
             style="fill:#3f3e1c;fill-opacity:1;fill-rule:nonzero;stroke:none"
             id="path388" />
          <path
             d="m 21237.9,15302 c -14.5,0 -27.9,9.5 -32.4,24.1 -41.9,139.1 -267.4,203.2 -269.7,203.8 -11.7,3.3 -20.7,12.5 -23.7,24.3 -3,11.7 0.5,24.2 9.2,32.6 84.9,82.4 211.4,109.2 338.3,71.5 109.6,-32.4 195,-106.3 212.6,-183.6 4.2,-18.3 -7.2,-36.4 -25.4,-40.5 -18.2,-4.2 -36.4,7.2 -40.6,25.4 -11.9,52.6 -81.7,108.9 -165.8,133.8 -41.9,12.5 -138.2,31.5 -225.5,-19.6 81.2,-32.9 218.3,-105 255.4,-228.2 5.4,-17.8 -4.7,-36.7 -22.6,-42.1 -3.2,-1 -6.5,-1.5 -9.8,-1.5"
             style="fill:#3f3e1c;fill-opacity:1;fill-rule:nonzero;stroke:none"
             id="path390" />
          <path
             d="m 20819.9,14938.7 c -73.5,-79.9 -171.2,-124.7 -278.5,-72.2 -107.4,52.6 -131.9,157.1 -113.9,264.2 70.9,42.4 160.6,56.7 249.6,13.2 89,-43.6 132.7,-123.2 142.8,-205.2"
             style="fill:#9b553b;fill-opacity:1;fill-rule:nonzero;stroke:none"
             id="path392" />
          <path
             d="m 20391.1,15940.1 c 1.1,11.1 7.5,21.4 18.1,26.9 6.8,3.6 14,6.6 21.5,9.1 -12.9,-11.4 -26.1,-23.4 -39.6,-36"
             style="fill:#797861;fill-opacity:1;fill-rule:nonzero;stroke:none"
             id="path396" />
          <path
             d="m 21248.6,14292.2 c -13.8,0.8 -27.6,1.2 -41.4,1.2 h -433.8 c 105.5,145.3 222.3,295 343,434.5 452.5,523.2 774.7,875.1 670.4,1198.5 31.6,-95.6 48.4,-199.2 48.4,-308.8 0.1,-209.1 -61,-439.6 -196.9,-676 -146.6,-255 -281.4,-476.5 -389.7,-649.4"
             style="fill:#859a13;fill-opacity:1;fill-rule:nonzero;stroke:none"
             id="path398" />
          <path
             d="m 21223.4,16031.4 c -7.1,0 -14.2,2.2 -20.3,6.8 -15,11.2 -18,32.4 -6.8,47.3 3.7,5 97.7,127.8 97.7,127.8 l 53.7,-41.1 c 0,0 -93.5,-122.3 -97.2,-127.2 -6.7,-8.9 -16.8,-13.6 -27.1,-13.6"
             style="fill:#3f3e1c;fill-opacity:1;fill-rule:nonzero;stroke:none"
             id="path400" />
          <path
             d="m 20217.5,15613.9 c -13.3,0 -25.9,7.9 -31.3,21 -2.4,5.8 -59.5,149.4 -59.5,149.4 l 62.9,25 c 0,0 56.9,-143 59.2,-148.8 7.1,-17.3 -1.2,-37.1 -18.5,-44.1 -4.2,-1.7 -8.5,-2.5 -12.8,-2.5"
             style="fill:#3f3e1c;fill-opacity:1;fill-rule:nonzero;stroke:none"
             id="path402" />
          <path
             d="m 19978.1,14982.6 c -13.3,0 -26,7.9 -31.3,21 -2.4,5.8 -59.5,149.4 -59.5,149.4 l 62.9,25 c 0,0 56.9,-143 59.2,-148.7 7.1,-17.3 -1.2,-37.1 -18.5,-44.2 -4.2,-1.7 -8.5,-2.5 -12.8,-2.5"
             style="fill:#3f3e1c;fill-opacity:1;fill-rule:nonzero;stroke:none"
             id="path404" />
          <path
             d="m 19844.9,14460.2 c -13.4,0 -26,7.9 -31.4,21 -2.3,5.8 -59.5,149.4 -59.5,149.4 l 62.9,25 c 0,0 56.9,-143 59.3,-148.8 7.1,-17.2 -1.2,-37 -18.5,-44.1 -4.2,-1.7 -8.6,-2.5 -12.8,-2.5"
             style="fill:#3f3e1c;fill-opacity:1;fill-rule:nonzero;stroke:none"
             id="path406" />
          <path
             d="m 20400.6,14500.7 c -7.2,0 -14.5,2.3 -20.7,7.1 -14.8,11.5 -17.4,32.7 -6,47.5 3.8,5 99.7,126.2 99.7,126.2 l 53.1,-42 c 0,0 -95.5,-120.7 -99.3,-125.7 -6.7,-8.6 -16.7,-13.1 -26.8,-13.1"
             style="fill:#3f3e1c;fill-opacity:1;fill-rule:nonzero;stroke:none"
             id="path408" />
          <path
             d="m 21066.6,14546.3 c -7.3,0 -14.6,2.4 -20.8,7.1 -14.7,11.5 -17.4,32.8 -5.9,47.5 3.8,5 99.6,126.2 99.6,126.2 l 53.1,-42 c 0,0 -95.5,-120.8 -99.3,-125.7 -6.7,-8.6 -16.6,-13.1 -26.7,-13.1"
             style="fill:#3f3e1c;fill-opacity:1;fill-rule:nonzero;stroke:none"
             id="path410" />
          <path
             d="m 21229.8,15017.4 c -11.6,0 -23,6.1 -29.2,16.8 -9.5,16.2 -4,36.9 12.1,46.3 5.4,3.2 139.8,79.6 139.8,79.6 l 33.5,-58.8 c 0,0 -133.8,-76.1 -139.2,-79.2 -5.3,-3.2 -11.2,-4.7 -17,-4.7"
             style="fill:#3f3e1c;fill-opacity:1;fill-rule:nonzero;stroke:none"
             id="path412" />
        </g>
      </g>
    </g>
    <path
       d="m 156.97154,186.26047 h 0.004 -0.004 M 8.0816699,173.58869 c -5.4998059,0 -6.642806,0.62795 -6.8791671,0.89606 -0.035278,0.0388 -0.82902783,1.01247 -0.1481667,6.13833 0.4938889,3.72887 1.6545279,8.99231 3.877028,17.60362 l 0.6314723,2.40947 c 6.4699446,24.69444 11.3065286,42.49208 14.3721676,52.8955 l 0.144639,0.48331 c 1.153583,3.937 1.876778,6.06778 4.406195,7.75758 3.654778,2.44122 10.950223,3.67594 21.688779,3.67594 h 61.799613 c 10.73856,0 18.03753,-1.23472 21.68878,-3.67241 2.52942,-1.68981 3.25261,-3.82058 4.4062,-7.75406 l 0.14463,-0.49389 c 3.00567,-10.17411 7.84578,-27.97528 14.38276,-52.90255 l 0.45861,-1.76389 c 1.53105,-5.89139 2.55764,-10.19175 3.23497,-13.54314 1.74625,-8.66423 0.94897,-10.4775 0.66322,-10.82675 -0.22225,-0.27164 -1.33703,-0.90312 -6.88269,-0.90312 H 8.0816699 M 107.97423,274.9982 H 46.174617 c -13.017501,0 -21.593529,-1.67922 -26.99103,-5.28109 -5.531556,-3.69711 -7.0485,-8.86177 -8.269111,-13.01044 l -0.137584,-0.47625 C 7.683031,245.73881 2.8182251,227.84239 -3.679942,203.04564 l -0.6314722,-2.42358 c -2.3600835,-9.13342 -3.5454169,-14.55914 -4.099278,-18.74309 -0.6244168,-4.68489 -0.8219723,-9.97655 2.430639,-13.68778 3.3549169,-3.83116 8.787695,-4.15219 14.0617231,-4.15219 H 146.07071 c 5.40102,0 10.95022,0.33867 14.27339,4.40267 3.40077,4.15572 3.0233,10.25878 1.3088,18.76425 -0.72319,3.57716 -1.75683,7.90928 -3.35139,14.05114 l -0.46566,1.77447 c -6.5652,25.04017 -11.43,42.93306 -14.46389,53.20242 l -0.13759,0.47625 c -1.22061,4.14867 -2.73755,9.31333 -8.26911,13.00691 -5.3975,3.60539 -13.97353,5.28109 -26.99103,5.28109"
       style="fill:#3f3e1c;fill-opacity:1;fill-rule:nonzero;stroke:none;stroke-width:0.0352778"
       id="path188-6" />
    <path
       d="m 156.97154,186.26047 c -0.75847,3.75356 -1.86267,8.29734 -3.29142,13.79714 -0.15169,0.58209 -0.31044,1.17123 -0.46566,1.778 -7.80345,29.76387 -12.03678,44.97212 -14.42156,53.04367 -2.37772,8.06803 -3.96522,15.34583 -30.81867,15.34583 H 46.174617 c -26.849919,0 -28.440946,-7.2778 -30.818669,-15.34583 C 12.978226,246.80773 8.7413644,231.59948 0.94144723,201.83561 0.72625277,201.01011 0.51105831,200.20225 0.30997497,199.41909 -1.7326085,191.52039 -3.0978586,185.629 -3.6764142,181.25103 -5.1228032,170.37842 -1.7255529,168.81561 8.0816699,168.81561 H 146.07071 c 11.1513,0 14.0088,2.02142 10.90083,17.44486"
       style="fill:#f8ebcb;fill-opacity:1;fill-rule:nonzero;stroke:none;stroke-width:0.0352778"
       id="path190-7" />
    <path
       d="m 156.97154,186.26047 c -0.75847,3.75356 -1.86267,8.29734 -3.29142,13.79714 -1.79564,-1.09714 -3.26319,-2.30716 -4.55436,-3.3655 -2.83986,-2.32833 -4.55083,-3.73591 -8.56192,-3.73591 -4.01461,0 -5.72558,1.40758 -8.55838,3.73591 -3.44312,2.82575 -8.1527,6.69925 -16.84162,6.69925 -8.68186,0 -13.3985,-3.8735 -16.834553,-6.69925 -2.832806,-2.32833 -4.547306,-3.73591 -8.55839,-3.73591 -4.011083,0 -5.722056,1.40758 -8.554861,3.73591 -3.443112,2.82575 -8.156223,6.69925 -16.841613,6.69925 -8.681861,0 -13.3985,-3.8735 -16.838084,-6.69925 -2.832806,-2.32833 -4.543778,-3.73591 -8.554862,-3.73591 -4.014611,0 -5.725583,1.40758 -8.558389,3.73591 -3.443111,2.82575 -8.152695,6.69925 -16.834557,6.69925 -6.0536667,0 -10.1741114,-1.8803 -13.27855603,-3.97227 -2.04258347,-7.8987 -3.40783357,-13.79009 -3.98638917,-18.16806 3.85938916,1.37936 6.5299171,3.58069 8.7030284,5.36575 2.8363335,2.3248 4.543778,3.72886 8.5619168,3.72886 4.011084,0 5.718528,-1.40406 8.554862,-3.72886 3.439584,-2.82928 8.149167,-6.70631 16.838084,-6.70631 8.681862,0 13.398501,3.87703 16.834557,6.70631 2.832806,2.3248 4.543778,3.72886 8.558389,3.72886 4.011084,0 5.722056,-1.40406 8.554862,-3.72886 3.443111,-2.82928 8.156223,-6.70631 16.841612,-6.70631 8.681862,0 13.394973,3.87703 16.838083,6.70631 2.83281,2.3248 4.54378,3.72886 8.55486,3.72886 4.01109,0 5.72206,-1.40406 8.56192,-3.72886 3.43958,-2.82928 8.15622,-6.70631 16.83808,-6.70631 8.32556,0 12.99987,3.56306 16.4077,6.35"
       style="fill:#cba18b;fill-opacity:1;fill-rule:nonzero;stroke:none;stroke-width:0.0352778"
       id="path192-5" />
    <path
       d="M 107.97423,270.22511 H 46.174617 c -0.0247,0 -0.04939,0 -0.07408,0 0.02117,0 0.04939,0 0.07408,0 h 61.799613 c 26.85345,0 28.44095,-7.2778 30.81867,-15.34583 2.38478,-8.07155 6.61811,-23.2798 14.42156,-53.04367 0.15522,-0.60677 0.31397,-1.19591 0.46566,-1.778 v 0 c 1.42875,-5.4998 2.53295,-10.04358 3.29142,-13.79714 v 0 0 0 0 c -0.75847,3.75356 -1.86267,8.29734 -3.29142,13.79714 -0.15169,0.58209 -0.31044,1.17123 -0.46566,1.778 -7.80345,29.76387 -12.03678,44.97212 -14.42156,53.04367 -2.37772,8.06803 -3.96522,15.34583 -30.81867,15.34583 m -61.891335,0 c -0.02117,0 -0.03881,0 -0.05997,0 0.02117,0 0.03881,0 0.05997,0 m -0.08467,0 c -0.01764,0 -0.03175,0 -0.04939,0 0.01764,0 0.03175,0 0.04939,0 m -0.07761,0 c -0.01411,0 -0.03175,0 -0.04586,0 0.01411,0 0.03175,0 0.04586,0 m -0.07408,0 c -0.01764,0 -0.03528,0 -0.04939,0 0.01764,0 0.03175,0 0.04939,0 m -0.07408,0 c -0.01411,0 -0.03528,0 -0.04939,0 0.01764,0 0.03175,0 0.04939,0 m -0.07761,0 c -0.01764,0 -0.03528,0 -0.04939,0 0.01764,0 0.03175,0 0.04939,0 m -0.07408,0 c -0.01764,-0.004 -0.03528,-0.004 -0.05292,-0.004 0.01764,0 0.03528,0 0.05292,0.004 m -0.07408,-0.004 c -0.04939,0 -0.09878,0 -0.148166,0 0.04939,0 0.09525,0 0.148166,0 m -0.165805,0 c -0.01764,0 -0.03881,0 -0.05645,0 0.01764,0 0.03881,0 0.05645,0 m -0.08819,0 c -0.01411,0 -0.02469,0 -0.03881,0 0.01058,0 0.02469,0 0.03881,0 m -0.07761,0 c -0.01411,0 -0.02469,0 -0.03528,0 0.01058,0 0.02117,0 0.03528,0 m -0.07408,0 c -0.01058,0 -0.02117,0 -0.03528,0 0.01058,0 0.02469,0 0.03528,0 m -0.07056,0 c -0.01411,0 -0.02469,0 -0.03881,0 0.01411,0 0.02469,0 0.03881,0 m -0.07761,-0.004 c -0.0071,0 -0.01764,0 -0.02822,0 0.01058,0 0.02117,0 0.02822,0 m -0.07056,0 c -0.01058,0 -0.02469,0 -0.03528,0 0.01058,0 0.02469,0 0.03528,0 m -0.07056,0 c -0.01411,0 -0.02822,0 -0.03881,0 0.01411,0 0.0247,0 0.03881,0 m -0.07408,0 c -0.02117,0 -0.04233,0 -0.05997,0 0.02117,0 0.03881,0 0.05997,0 m -0.09525,0 c -0.01411,0 -0.03175,0 -0.04586,-0.004 0.01411,0.004 0.03175,0.004 0.04586,0.004 m -0.08467,-0.004 c -0.01058,0 -0.02117,0 -0.03528,0 0.01411,0 0.0247,0 0.03528,0 m -0.0635,0 c -0.01411,0 -0.03175,0 -0.04586,0 0.01411,0 0.03175,0 0.04586,0 m -0.07408,0 c -0.01411,0 -0.02822,0 -0.04233,0 0.01411,0 0.02822,0 0.04233,0 m -0.07056,0 c -0.01411,0 -0.03175,0 -0.04586,-0.004 0.01411,0.004 0.03175,0.004 0.04586,0.004 m -0.07761,-0.004 c -0.01411,0 -0.02469,0 -0.03881,0 0.01411,0 0.0247,0 0.03881,0 m -0.06703,0 c -0.01764,0 -0.03528,0 -0.04939,0 0.01411,0 0.03175,0 0.04939,0 m -0.07408,0 c -0.01764,0 -0.03528,0 -0.05292,0 0.01764,0 0.03528,0 0.05292,0 m -0.07056,0 c -0.01764,0 -0.03528,-0.004 -0.05292,-0.004 0.01764,0 0.03528,0.004 0.05292,0.004 m -0.07761,-0.004 c -0.02469,0 -0.04586,0 -0.06703,0 0.02117,0 0.04233,0 0.06703,0 m -0.07055,0 c -0.02117,0 -0.04233,0 -0.06703,0 0.02469,0 0.04586,0 0.06703,0 m -0.09525,-0.004 c -0.01411,0 -0.02822,0 -0.04233,0 0.01411,0 0.02822,0 0.04233,0 m -0.07408,0 c -0.01411,0 -0.02469,0 -0.03528,0 0.01058,0 0.02117,0 0.03528,0 m -0.07408,0 c -0.01058,0 -0.02117,0 -0.03528,0 0.01058,0 0.0247,0 0.03528,0 m -0.07056,-0.004 c -0.01058,0 -0.02117,0 -0.03528,0 0.01411,0 0.02469,0 0.03528,0 m -0.06703,0 c -0.01411,0 -0.02822,0 -0.04233,0 0.01411,0 0.02822,0 0.04233,0 m -0.07056,0 c -0.01411,0 -0.02822,-0.004 -0.04233,-0.004 0.01411,0 0.02822,0.004 0.04233,0.004 m -0.07056,-0.004 c -0.01764,0 -0.03175,0 -0.04939,0 0.01411,0 0.03175,0 0.04939,0 m -0.07055,0 c -0.0247,0 -0.04586,0 -0.06703,-0.004 0.02117,0.004 0.04586,0.004 0.06703,0.004 m -0.102306,-0.004 c -0.01058,0 -0.02117,0 -0.03528,0 0.01411,0 0.02469,0 0.03528,0 m -0.07055,0 c -0.01058,0 -0.02117,0 -0.03528,0 0.01411,0 0.02469,0 0.03528,0 m -0.07056,-0.004 c -0.01411,0 -0.02117,0 -0.03528,0 0.01058,0 0.02469,0 0.03528,0 m -0.0635,0 c -0.01411,0 -0.02822,0 -0.04233,0 0.01058,0 0.02822,0 0.04233,0 m -0.07055,-0.004 c -0.01411,0 -0.02822,0 -0.04233,0 0.01411,0 0.02822,0 0.04233,0 m -0.06703,0 c -0.01411,0 -0.03175,0 -0.04586,0 0.01411,0 0.02822,0 0.04586,0 m -0.07408,-0.004 c -0.01058,0 -0.0247,0 -0.03528,0 0.01058,0 0.02117,0 0.03528,0 m -0.07056,0 c -0.0071,0 -0.02117,0 -0.03175,0 0.01058,0 0.02117,0 0.03175,0 m -0.07056,-0.004 c -0.0035,0 -0.01058,0 -0.01411,0 0.0035,0 0.01058,0 0.01411,0 m -0.176388,-0.004 c -0.0071,0 -0.01411,0 -0.02117,0 0.0071,0 0.01411,0 0.02117,0 m -0.06703,0 c -0.0071,0 -0.01411,0 -0.0247,-0.004 0.01058,0.004 0.01764,0.004 0.0247,0.004 m -0.05644,-0.004 c -0.01411,0 -0.02822,0 -0.04233,0 0.01411,0 0.02822,0 0.04233,0 m -0.06703,0 c -0.01411,-0.004 -0.02822,-0.004 -0.03881,-0.004 0.01411,0 0.02469,0 0.03881,0.004 m -0.07408,-0.004 c -0.01058,0 -0.02117,0 -0.03175,0 0.01058,0 0.0247,0 0.03175,0 m -0.06703,-0.004 c -0.01058,0 -0.02117,0 -0.03528,0 0.01411,0 0.02469,0 0.03528,0 m -0.06703,0 c -0.01058,0 -0.02469,0 -0.03881,-0.004 0.01411,0.004 0.02469,0.004 0.03881,0.004 m -0.06703,-0.004 c -0.01411,0 -0.02469,0 -0.03528,0 0.01058,0 0.02117,0 0.03528,0 m -0.06703,0 c -0.02117,-0.004 -0.04586,-0.004 -0.06703,-0.004 0.02117,0 0.04233,0 0.06703,0.004 m -0.08467,-0.004 c -0.01764,0 -0.03528,0 -0.05292,-0.004 0.01764,0.004 0.03528,0.004 0.05292,0.004 m -0.07761,-0.004 c -0.01411,0 -0.02469,0 -0.03881,0 0.01411,0 0.02469,0 0.03881,0 m -0.07408,-0.004 c -0.01058,0 -0.02117,0 -0.02822,0 0.01058,0 0.01764,0 0.02822,0 m -0.06703,0 c -0.01058,0 -0.02117,0 -0.02822,-0.004 0.0071,0.004 0.01764,0.004 0.02822,0.004 m -0.06703,-0.004 c -0.01058,0 -0.01764,0 -0.02822,0 0.0071,0 0.02117,0 0.02822,0 m -0.06703,-0.004 c -0.01058,0 -0.01764,0 -0.02822,0 0.01058,0 0.02117,0 0.02822,0 m -0.0635,0 c -0.01058,0 -0.01764,0 -0.02822,-0.004 0.01058,0.004 0.01764,0.004 0.02822,0.004 m -0.07056,-0.004 c -0.0035,0 -0.0071,0 -0.0071,0 0,0 0.0035,0 0.0071,0 m -0.0635,-0.004 c -0.0035,0 -0.0071,0 -0.0071,0 0,0 0.0035,0 0.0071,0 m -0.112889,-0.004 c -0.0071,0 -0.01058,0 -0.01411,0 0.0035,0 0.0071,0 0.01411,0 m -0.06703,-0.004 c -0.0035,0 -0.0071,0 -0.01058,0 0.0035,0 0.0071,0 0.01058,0 m -0.04939,0 c -0.01058,0 -0.02117,-0.004 -0.03175,-0.004 0.01058,0.004 0.01764,0.004 0.03175,0.004 m -0.0635,-0.004 c -0.01058,0 -0.02117,0 -0.03528,0 0.01411,0 0.02469,0 0.03528,0 m -0.06703,-0.004 c -0.01058,0 -0.02117,0 -0.03528,0 0.01411,0 0.02469,0 0.03528,0 m -0.06703,0 c -0.01058,-0.004 -0.01764,-0.004 -0.02822,-0.004 0.01058,0 0.02117,0 0.02822,0.004 m -0.0635,-0.004 c -0.01058,0 -0.02117,-0.004 -0.03528,-0.004 0.01411,0 0.0247,0.004 0.03528,0.004 m -0.06703,-0.004 c -0.01058,0 -0.02117,0 -0.03528,0 0.01411,0 0.0247,0 0.03528,0 m -0.0635,-0.004 c -0.01411,0 -0.02822,0 -0.04233,0 0.01411,0 0.02822,0 0.04233,0 m -0.0635,-0.004 c -0.02117,0 -0.04233,0 -0.0635,0 0.01764,0 0.04233,0 0.0635,0 m -0.09878,-0.004 c -0.01058,0 -0.02117,0 -0.02822,0 0.0071,0 0.01764,0 0.02822,0 m -0.05997,-0.004 c -0.01058,0 -0.02469,0 -0.03528,0 0.01058,0 0.0247,0 0.03528,0 m -0.0635,-0.004 c -0.01058,0 -0.02469,0 -0.03881,0 0.01411,0 0.02822,0 0.03881,0 m -0.06703,0 c -0.01058,-0.004 -0.02117,-0.004 -0.03175,-0.004 0.01058,0 0.02117,0 0.03175,0.004 m -0.07055,-0.004 c -0.0071,0 -0.01411,-0.004 -0.0247,-0.004 0.01058,0 0.01764,0.004 0.0247,0.004 m -0.05997,-0.004 c -0.01058,0 -0.02117,0 -0.02822,-0.004 0.0071,0.004 0.01764,0.004 0.02822,0.004 m -0.06703,-0.004 c -0.01058,0 -0.01764,0 -0.02822,0 0.0071,0 0.02117,0 0.02822,0 m -0.05997,-0.004 c -0.01058,0 -0.02117,0 -0.03175,0 0.01411,0 0.02117,0 0.03175,0 m -0.116416,-0.007 c -0.0035,0 -0.0071,0 -0.01058,0 0.0035,0 0.0071,0 0.01058,0 m -0.03881,0 c -0.01058,0 -0.02117,-0.004 -0.03528,-0.004 0.01411,0.004 0.0247,0.004 0.03528,0.004 m -0.0635,-0.004 c -0.01058,0 -0.02469,0 -0.03528,-0.004 0.01058,0.004 0.0247,0.004 0.03528,0.004 m -0.07055,-0.004 c -0.0071,0 -0.01411,0 -0.0247,0 0.0071,0 0.01764,0 0.0247,0 m -0.0635,-0.004 c -0.0071,0 -0.01764,0 -0.0247,0 0.0071,0 0.01764,0 0.0247,0 m -0.0635,-0.004 c -0.0071,0 -0.01411,0 -0.02117,0 0.0071,0 0.01411,0 0.02117,0 m -0.05997,-0.004 c -0.01058,0 -0.02117,0 -0.03175,0 0.01058,0 0.02117,0 0.03175,0 m -0.0635,-0.004 c -0.0071,0 -0.01764,0 -0.02822,0 0.01058,0 0.02117,0 0.02822,0 m -0.0635,-0.004 c -0.0071,0 -0.01764,0 -0.02822,0 0.01058,0 0.01764,0 0.02822,0 m -0.05997,-0.004 c -0.01058,0 -0.02117,0 -0.03175,0 0.01058,0 0.02117,0 0.03175,0 m -0.176389,-0.0106 c 0,0 -0.0035,0 -0.0071,0 0.0035,0 0.0071,0 0.0071,0 m -0.04939,-0.004 c -0.0071,0 -0.01411,0 -0.02117,0 0.0071,0 0.01411,0 0.02117,0 m -0.05292,0 c -0.01058,-0.004 -0.02117,-0.004 -0.03175,-0.004 0.01058,0 0.02117,0 0.03175,0.004 m -0.06703,-0.007 c -0.0071,0 -0.01764,0 -0.02469,0 0.01058,0 0.01764,0 0.02469,0 m -0.05997,-0.004 c -0.01058,0 -0.01764,0 -0.02469,0 0.0071,0 0.01411,0 0.02469,0 m -0.0635,-0.004 c -0.0071,0 -0.01764,0 -0.02822,0 0.01058,0 0.01764,0 0.02822,0 m -0.05644,-0.004 c -0.01058,0 -0.02117,0 -0.03175,0 0.01058,0 0.02117,0 0.03175,0 m -0.06703,-0.004 c -0.0071,0 -0.01411,0 -0.0247,0 0.0071,0 0.01764,0 0.0247,0 m -0.05644,-0.004 c -0.01411,0 -0.02469,0 -0.03881,-0.004 0.01411,0.004 0.02469,0.004 0.03881,0.004 m -0.08819,-0.007 c -0.01411,0 -0.0247,0 -0.03528,0 0.01058,0 0.02469,0 0.03528,0 m -0.05997,-0.004 c -0.01058,0 -0.02469,0 -0.03528,0 0.01058,0 0.02469,0 0.03528,0 m -0.0635,-0.004 c -0.01058,0 -0.02469,0 -0.03528,-0.004 0.01058,0.004 0.02469,0.004 0.03528,0.004 m -0.05997,-0.004 c -0.01058,0 -0.02469,0 -0.03528,-0.004 0.01058,0.004 0.0247,0.004 0.03528,0.004 m -0.0635,-0.004 c -0.01058,0 -0.02117,-0.004 -0.03528,-0.004 0.01411,0 0.0247,0.004 0.03528,0.004 m -0.05997,-0.004 c -0.01058,-0.004 -0.0247,-0.004 -0.03528,-0.004 0.01058,0 0.0247,0 0.03528,0.004 m -0.05997,-0.004 c -0.01411,-0.004 -0.02117,-0.004 -0.03528,-0.004 0.01411,0 0.02117,0 0.03528,0.004 m -0.0635,-0.007 c -0.01058,0 -0.01764,0 -0.02469,0 0.0071,0 0.01411,0 0.02469,0 m -0.05997,-0.004 c -0.01764,0 -0.03175,-0.004 -0.04586,-0.004 0.01411,0 0.02822,0.004 0.04586,0.004 m -0.06703,-0.004 c -0.01764,-0.004 -0.03528,-0.004 -0.05292,-0.004 0.01764,0 0.03528,0 0.05292,0.004 m -0.07056,-0.007 c -0.01411,0 -0.02822,0 -0.04586,-0.004 0.01411,0.004 0.03175,0.004 0.04586,0.004 m -0.05644,-0.004 c -0.01764,0 -0.03175,0 -0.04939,-0.004 0.01764,0.004 0.03175,0.004 0.04939,0.004 m -0.0635,-0.004 c -0.01764,0 -0.03175,-0.004 -0.04939,-0.004 0.01764,0 0.03175,0.004 0.04939,0.004 m -0.0635,-0.004 c -0.01411,-0.004 -0.02822,-0.004 -0.04233,-0.004 0.01411,0 0.02822,0 0.04233,0.004 m -0.0635,-0.007 c -0.01411,0 -0.0247,0 -0.03881,-0.004 0.01411,0.004 0.0247,0.004 0.03881,0.004 m -0.05997,-0.004 c -0.01411,0 -0.02469,-0.004 -0.0388,-0.004 0.01411,0.004 0.02469,0.004 0.0388,0.004 m -0.05997,-0.004 c -0.01411,-0.004 -0.02822,-0.004 -0.0388,-0.004 0.01058,0 0.02469,0 0.0388,0.004 m -0.05997,-0.007 c -0.01411,0 -0.02469,0 -0.03528,0 0.01058,0 0.02117,0 0.03528,0 m -0.0635,-0.004 c -0.01764,0 -0.03881,-0.004 -0.05644,-0.004 0.01764,0 0.03881,0.004 0.05644,0.004 m -0.05997,-0.004 c -0.01764,-0.004 -0.03881,-0.004 -0.05645,-0.007 0.02117,0.004 0.03528,0.004 0.05645,0.007 m -0.07761,-0.007 c -0.01411,0 -0.0247,-0.004 -0.03528,-0.004 0.01058,0 0.02117,0.004 0.03528,0.004 m -0.0635,-0.004 c -0.01058,-0.004 -0.02117,-0.004 -0.03175,-0.004 0.01058,0 0.02117,0 0.03175,0.004 m -0.05997,-0.007 c -0.01058,0 -0.01764,0 -0.02822,-0.004 0.0071,0.004 0.02117,0.004 0.02822,0.004 m -0.05997,-0.004 c -0.0071,0 -0.01764,-0.004 -0.02469,-0.004 0.0071,0 0.01764,0.004 0.02469,0.004 m -0.05997,-0.007 c -0.0071,0 -0.01764,0 -0.02469,0 0.01058,0 0.01764,0 0.02469,0 m -0.05644,-0.004 c -0.01058,0 -0.01764,0 -0.02822,-0.004 0.0071,0.004 0.01764,0.004 0.02822,0.004 m -0.05644,-0.004 c -0.01411,-0.004 -0.02822,-0.004 -0.04233,-0.004 0.01411,0 0.02822,0 0.04233,0.004 m -0.05644,-0.007 c -0.01411,0 -0.0247,0 -0.03528,0 0.01058,0 0.02469,0 0.03528,0 m -0.09525,-0.007 c -0.0071,0 -0.01411,0 -0.02117,0 0.0071,0 0.01411,0 0.02117,0 m -0.04939,-0.004 c -0.01058,0 -0.02117,-0.004 -0.02822,-0.004 0.01058,0 0.01764,0.004 0.02822,0.004 m -0.05997,-0.007 c -0.0071,0 -0.01764,0 -0.02822,0 0.01058,0 0.02117,0 0.02822,0 m -0.05644,-0.004 c -0.0071,0 -0.01764,0 -0.02822,-0.004 0.01058,0.004 0.01764,0.004 0.02822,0.004 m -0.05644,-0.004 c -0.01058,-0.004 -0.02117,-0.004 -0.03175,-0.004 0.01058,0 0.02117,0 0.03175,0.004 m -0.05292,-0.007 c -0.01411,0 -0.0247,0 -0.03881,-0.004 0.01411,0.004 0.0247,0.004 0.03881,0.004 m -0.05997,-0.004 c -0.01411,-0.004 -0.0247,-0.004 -0.03881,-0.004 0.01411,0 0.0247,0 0.03881,0.004 m -0.05644,-0.007 c -0.01411,0 -0.03175,-0.004 -0.04233,-0.004 0.01411,0.004 0.02822,0.004 0.04233,0.004 m -0.05997,-0.004 c -0.03528,-0.004 -0.07761,-0.007 -0.116417,-0.0106 0.03881,0.004 0.07761,0.007 0.116417,0.0106 m -0.116417,-0.0106 c -0.02117,-0.004 -0.03528,-0.004 -0.05644,-0.007 0.01764,0.004 0.03528,0.004 0.05644,0.007 m -0.0635,-0.007 c -0.01764,0 -0.03175,-0.004 -0.04939,-0.004 0.01764,0 0.03175,0.004 0.04939,0.004 m -0.06703,-0.007 c -0.01411,0 -0.02822,-0.004 -0.04233,-0.004 0.01411,0 0.02822,0.004 0.04233,0.004 m -0.05292,-0.004 c -0.01764,-0.004 -0.03175,-0.004 -0.04586,-0.004 0.01411,0 0.02822,0 0.04586,0.004 m -0.05997,-0.007 c -0.01411,0 -0.02822,-0.004 -0.04586,-0.004 0.01411,0 0.03175,0.004 0.04586,0.004 m -0.05644,-0.004 c -0.01411,-0.004 -0.02822,-0.004 -0.04233,-0.007 0.01411,0.004 0.02822,0.004 0.04233,0.007 m -0.05997,-0.007 c -0.01411,0 -0.03175,-0.004 -0.04586,-0.004 0.01764,0 0.03175,0.004 0.04586,0.004 m -0.05644,-0.007 c -0.05645,-0.004 -0.112889,-0.0106 -0.172862,-0.0176 0.05997,0.007 0.116417,0.0141 0.172862,0.0176 m -0.176389,-0.0176 c -0.01764,0 -0.03528,-0.004 -0.04939,-0.004 0.01411,0 0.03175,0.004 0.04939,0.004 m -0.0635,-0.004 c -0.01411,-0.004 -0.02822,-0.004 -0.04233,-0.007 0.01411,0.004 0.02822,0.004 0.04233,0.007 m -0.05997,-0.007 c -0.01411,-0.004 -0.02822,-0.004 -0.04233,-0.004 0.01411,0 0.02822,0 0.04233,0.004 m -0.05292,-0.007 c -0.01411,0 -0.02822,-0.004 -0.04233,-0.004 0.01411,0 0.02822,0.004 0.04233,0.004 m -0.05997,-0.007 c -0.01411,0 -0.02822,0 -0.04233,-0.004 0.01411,0.004 0.02822,0.004 0.04233,0.004 m -0.05292,-0.004 c -0.01764,-0.004 -0.03175,-0.004 -0.04586,-0.007 0.01411,0.004 0.03175,0.004 0.04586,0.007 m -0.05997,-0.007 c -0.01411,0 -0.03175,-0.004 -0.04939,-0.004 0.01764,0 0.03528,0.004 0.04939,0.004 m -0.05292,-0.007 c -0.05644,-0.004 -0.112889,-0.0106 -0.169333,-0.0176 0.05644,0.007 0.112889,0.0141 0.169333,0.0176 m -0.176389,-0.0176 c -0.01764,0 -0.03528,-0.004 -0.04939,-0.004 0.01411,0 0.03175,0.004 0.04939,0.004 m -0.05644,-0.007 c -0.01764,0 -0.03175,-0.004 -0.04586,-0.004 0.01411,0 0.02822,0.004 0.04586,0.004 m -0.05997,-0.007 c -0.01411,0 -0.02822,-0.004 -0.04233,-0.004 0.01411,0 0.02822,0.004 0.04233,0.004 m -0.05644,-0.004 c -0.01411,-0.004 -0.02822,-0.004 -0.04586,-0.007 0.01764,0.004 0.03175,0.004 0.04586,0.007 m -0.05292,-0.007 c -0.186972,-0.0212 -0.373944,-0.0423 -0.557389,-0.067 0.183445,0.0247 0.370417,0.0459 0.557389,0.067 m -0.557389,-0.067 c -13.864167,-1.6898 -16.59114,-6.68513 -18.397362,-12.43541 0,0 0,0 0.0035,0 1.806222,5.75028 4.529667,10.74561 18.393834,12.43541 m 122.5338,-83.31324 v 0 c 0.77258,-3.82411 1.17475,-6.82625 1.17475,-9.17575 0,2.3495 -0.40217,5.35164 -1.17475,9.17575"
       style="fill:#2f2e15;fill-opacity:1;fill-rule:nonzero;stroke:none;stroke-width:0.0352778"
       id="path194-3" />
  </g>
</svg>
