<?xml version="1.0" encoding="UTF-8" standalone="no"?>
<!-- Created with Inkscape (http://www.inkscape.org/) -->

<svg
   width="367.24307mm"
   height="68.561958mm"
   viewBox="0 0 367.24307 68.561958"
   version="1.1"
   id="svg1363"
   xmlns="http://www.w3.org/2000/svg"
   xmlns:svg="http://www.w3.org/2000/svg">
  <defs
     id="defs1360" />
  <g
     id="layer1"
     transform="translate(77.4772,-122.89428)">
    <g
       id="cfh"
       transform="matrix(0.26458333,0,0,0.26458333,-95.437301,-57.93099)">
      <g
         fill="none"
         stroke="#00004a"
         stroke-width="3.1"
         stroke-miterlimit="10"
         id="g1216">
        <path
           d="m 125,766 1,2 h 7 l 3,1 h 1 l -1,-1 h 1 l 1,2 1,-1 h 1 l -1,2 1,-1 h 2 v 1 l 1,1 1,-2 4,4 h 1 v -1 h -1 v -1 c 2,0 2,1 2,2 h 1 l 2,2 4,2 h 1 l -1,1 h 1 l 1,2 2,-1 v 1 l -1,2 3,4 1,2 h 1 l 1,1 -1,2 1,1 h 1 v 2 h 1 l -1,1 h 3 l -3,2 1,1 h -1 l 2,1 -1,1 1,1 h -1 l 1,3 h -1 1 v 1 l -1,1 2,-1 v 2 h -1 v -1 l -2,1 1,2 -1,1 1,2 h 2 l -2,1 v -1 l -1,1 1,1 h -1 l 1,2 h -1 l 1,1 v 1 l -2,-2 v 1 l 1,2 -1,1 -1,-1 -2,4 -2,2 h 1 l -1,1 -3,-2 -1,2 v 2 l -1,-1 h -1 l -1,-1 -1,-3 v -2 h -1 v -1 h 1 l -3,-3 1,-1 -1,-1 h 1 l -1,-1 v 1 l -1,-1 h 1 -1 v -1 h 1 v -1 l -1,-2 -3,1 v -1 h 1 c 0,-2 -1,-3 -2,-3 v -2 h 1 l -2,-1 -3,-3 v 1 -2 c -2,-1 -3,-2 -3,-4 l -1,1 h -1 v -1 l 1,-1 -4,-3 -1,1 -5,-2 h -1 v 1 h -1 l -2,-1 -1,1 -2,-1 c -3,0 -5,1 -7,3 v -1 h -1 v 1 l -2,1 -8,9 -2,4 v 1 l 1,1 -2,2 h 1 v 1 l -1,-1 v 3 l -2,6 1,1 -2,1 1,1 -1,1 1,1 -1,1 1,1 -1,1 1,1 -1,1 v 6 l -1,1 1,2 v 1 l -1,1 1,1 v 1 l 2,6 -2,1 h 1 v 2 l 1,3 -1,2 1,-1 v 1 l 1,3 v 2 l 2,5 v 3 h 1 l -1,1 1,2 -1,3 h 1 v 1 l 2,2 1,1 v 6 l 1,1 v 2 l 2,4 h 1 c 0,2 2,6 7,12 h -1 l 2,2 v 1 l 11,7 h 1 v 1 l 1,-1 4,1 2,-1 1,1 2,-1 h 3 v -1 l 1,1 2,-1 4,-3 5,-6 3,-7 -1,-1 3,-6 -1,-1 v -1 l 3,-3 h -1 l 1,-2 2,1 3,-1 4,3 -1,1 h 1 v -1 l 1,1 -1,1 v 1 l 1,1 h -1 l 1,2 1,-1 v 2 h -1 v 2 h 1 v 1 l -1,1 h 2 l -2,2 h 2 v 1 c -2,0 -3,1 -3,2 l 1,2 h -1 l 1,2 c -2,1 -2,2 -2,3 v 1 h -2 l 1,1 v 1 l -4,5 -4,5 v 1 l -6,4 -4,2 v -1 l -2,1 1,1 -3,-1 -1,1 h -2 v 1 h -2 l -1,1 -1,-1 h -1 l 1,1 h -2 l 1,-1 h -1 l -2,1 -2,-1 h -1 v 1 l -4,-2 v 1 l -1,-1 -1,1 -2,-2 h -1 l -2,-1 h -4 l 1,-1 -2,-1 h -1 l -5,-4 -4,-3 v -1 l -1,1 -4,-6 -7,-8 v -1 l 1,-1 c -1,1 -3,-1 -5,-4 l 1,-1 -4,-8 c -1,-4 -3,-5 -4,-5 v -1 h 1 l -2,-3 v -1 l -1,-1 v -2 1 h -1 l 1,-2 v -1 l -1,-2 v -2 h -1 v -3 l -1,-1 v -2 l -1,-1 1,-4 -2,-1 1,-1 v -4 l -2,-1 v -1 l 1,-1 -1,-5 v -5 l -1,-2 v -2 l 2,-1 h -2 v -3 l -1,-2 2,-6 -1,-1 1,-4 h -2 l 3,-2 -1,-1 v -1 l 1,-1 v -1 l 2,-1 v -1 l -2,-1 2,-2 h -1 l -1,1 v -1 l 1,-1 v -2 h 1 -1 1 l 1,-1 v -1 h 1 l -1,-4 1,-1 v 2 l 1,-1 h -1 l 1,-1 v -1 l -1,-2 1,-1 v 1 h 1 v -3 l 2,-2 3,-5 v -1 h 1 v -1 l 2,-4 h 2 l 1,-1 h -1 v 1 l -2,-1 v -1 l 3,-1 h 2 c -1,-1 1,-2 4,-3 l 1,-2 1,1 6,-5 1,1 h 1 l 4,-4 h 1 v 2 c 2,0 2,-1 2,-2 h 2 l 2,1 1,-2 1,1 1,-1 v 2 c 0,-2 1,-2 2,-3 z m -49,99 1,1 h -1 z m 5,-65 v 1 h 1 v -1 z m 21,75 1,1 h -1 z m 6,-106 h 1 v 1 h -1 z m 2,2 v 1 h 1 v -1 z m 1,-1 v 1 h 2 l -1,-1 z m 16,-4 1,1 h -1 z m 1,168 h 1 v 1 h -1 z m 6,-139 h 1 l -1,1 h -1 z m 13,18 h 1 v 1 h -1 z m 2,-39 v 1 l 1,-1 z m 1,46 v 1 z m 1,-49 v 1 l -1,-1 z m 2,53 1,1 v -1 z m 1,0 1,1 1,-1 z m 1,3 h 1 l -1,-1 z m 3,-45 v 1 h 1 v -1 z m 6,5 h 1 v 1 z m 1,36 v 1 z m 2,-33 v 1 z"
           id="path1204" />
        <path
           d="m 219,755 h 2 l 2,1 1,-1 h 2 l 1,2 h 1 l -1,2 3,2 v -1 l 1,1 v 2 l 2,3 1,-1 -1,2 2,2 v 1 h -1 l 1,1 h -1 v 1 h 1 v -1 2 l 1,-1 h 1 v 1 l -1,1 2,1 v 1 l -1,-1 -1,1 2,2 -1,2 1,1 h -1 l 1,1 -1,3 1,2 h -1 l 1,1 v 1 l 1,4 c 0,2 1,3 2,3 v 1 l -2,2 2,4 -1,1 1,1 v 1 l -1,1 c 1,0 2,0 2,2 l -1,1 h 1 l -1,2 h 2 v 3 l -1,1 1,2 v 3 l -1,2 1,2 1,-1 h 1 l -1,2 1,1 -1,3 1,1 -1,3 2,2 -1,2 h 1 v 1 l 2,7 -1,2 2,2 h -1 1 l -1,2 v 1 h 1 v 1 h -1 l 4,5 -1,1 c 1,2 2,2 3,2 l -2,2 1,1 1,-1 h 1 v 1 l -1,1 v 3 h -1 2 l -1,3 3,5 1,2 h -1 l 1,1 v 4 h 4 l 7,-2 v 1 l 1,-1 4,3 1,-1 4,7 v 3 l -1,2 v 2 h -1 v -1 c -2,3 -4,4 -6,4 l -3,1 v -1 1 l -1,-1 -5,3 v 2 l -1,1 v 1 l 2,2 -3,2 v 1 l 1,1 v 1 h -1 v 3 -1 l -1,1 h 1 v 2 l -1,-1 v 2 l -1,2 v 2 l -1,-1 -2,1 v 3 l -1,2 -1,-1 h 1 v -1 h -1 v 1 h -2 v -2 h -1 v 1 l -3,-2 -1,1 v -1 l 2,-1 1,-1 h -2 l -2,-1 1,-1 -3,-2 h -1 l -2,-5 h -1 v 1 l -1,-1 v -1 l 1,1 v -1 l -2,-5 -1,-2 v -2 h -4 l -6,1 h -6 l -2,1 h -3 l -1,1 -1,-1 -1,-1 -1,1 -1,-1 -2,2 v 5 l -1,-1 v 11 h -1 v -1 l -1,1 1,1 v 2 l -2,-1 h -1 l -5,7 c -3,0 -5,1 -5,2 l -1,-1 h -3 l -1,-1 -1,1 -1,-3 v -2 h -1 v -1 h 1 l -1,-2 -1,-4 v 1 h 1 l -2,-1 v -1 l 2,-3 v -2 l 1,-4 v 1 h -1 l -1,-2 h -1 l 1,1 v 1 h -1 l -2,-1 -1,1 -1,-1 -1,1 h -1 c -2,-1 -3,-3 -3,-5 l -3,-3 h -1 l 2,-4 -1,-1 v -2 h 1 l -1,-1 h 2 l 1,-1 4,-5 v 2 l 4,-1 h 1 l 3,-1 v 1 l 4,-1 v 1 h 1 l 1,-1 v -1 l 1,-3 h -1 l 2,-1 v -1 l -1,-1 v -1 l 2,-1 v -1 h -1 v -1 l 2,-4 v -1 l 3,-10 -1,-1 1,-1 v -1 c 0,0 -1,0 0,0 l 1,-3 -1,-1 2,-4 h -1 l 1,-2 v -1 l 1,-2 -1,-3 v -3 l 1,2 h 1 v -1 l -1,-1 h 1 l -2,-4 h 1 v 1 l 2,-3 -1,-1 1,-2 1,-1 c -1,0 -2,-1 -2,-3 h 1 v -1 l 1,-1 -1,-1 1,-1 -1,-2 c 1,0 2,-1 2,-5 v -1 l 1,-3 -1,-1 1,-2 v -4 l -2,-3 h 2 v -4 l -1,-2 1,-1 v -2 l 1,-1 h -1 l -1,2 v -2 l 1,-2 v -1 l 2,-3 -1,-5 1,-3 h -1 l -1,1 2,-2 -2,-3 v -1 h 2 v -2 1 h -1 v -4 l 2,-1 h -2 l 2,-5 -1,-1 2,-1 -1,-1 h 1 v -3 h 2 l 1,1 c 0,-1 2,-3 5,-4 z m -39,155 v 1 z m 3,15 h 1 l -1,1 z m 4,4 v 2 z m 2,6 -1,1 v -1 z m 3,-53 1,1 h -1 l -1,-1 z m 2,52 v 1 h -1 z m 4,-69 -1,1 h -1 z m 4,-20 v 1 h 1 v -1 z m 1,-22 h 1 l -1,1 -1,-1 z m 2,-7 h 1 z m 1,104 v 1 h 1 z m 1,-142 h 1 l -1,1 z m 16,60 -1,3 v 4 l -1,1 2,1 -2,1 v -1 l -1,1 1,3 h -2 1 l -1,6 1,1 -2,1 v 1 h 1 l -1,4 v 2 l -1,-1 1,1 v 1 h -1 v 4 h -1 l 1,3 -2,2 v 4 l -1,2 v 3 h -1 l 1,1 -1,1 1,2 h 4 l 5,-1 v 1 h 1 v -1 l 1,1 h 5 v -2 l 1,1 1,-3 h -1 l 1,-1 -2,-3 h 2 v -1 l -2,-2 h 1 l -1,-1 -2,1 v -1 l 1,-1 v -5 l -1,-3 v -4 l -2,-3 v -1 h 1 v -1 h -1 v 1 -3 h 1 v -2 l -2,-1 1,-1 -1,-4 -3,-8 h 2 l -1,-2 z m -7,-89 1,1 z m 3,6 v 1 h 1 z m 4,-2 h 1 z m 1,-4 h 1 v 1 h -1 z m 8,14 1,1 h -1 z m 3,11 v 1 l 1,-1 z m 3,149 h 1 v 1 h -1 z m 0,-139 h 1 v 1 z m 1,134 h 1 v 1 h -1 z m 4,-102 1,1 v 1 l -1,-1 z m 1,106 h 1 v 1 h -2 z m 0,-95 z m 0,4 v 1 z m 0,95 h 1 v 1 h -1 z m 0,-97 h 1 v 1 h -1 z m 1,5 h 1 z m 4,13 1,1 h -1 l -1,-1 z m 0,81 h 1 v 1 h -2 z m 2,-66 v 1 z m 0,64 1,2 1,-1 z m 4,-57 h 1 v 1 h -1 z m 2,12 h 1 z m 24,8 v 3 h -1 v -2 z"
           id="path1206" />
        <path
           d="m 260,777 h 1 l -1,1 z m 0,2 h 1 v 2 l -1,-1 z m 21,-24 1,1 v 1 h 3 l -1,2 h -1 l -1,-1 v 1 l 2,1 h 1 l 4,3 2,1 h 3 l -2,2 -1,1 h 2 l 2,2 v -1 l 4,1 v 1 h -1 l -1,-1 c 0,2 -1,2 -2,2 l -1,1 1,1 2,-1 1,3 v 1 l -3,-1 v 1 l 3,1 v 1 h -1 l -1,1 2,2 -1,1 2,4 v 1 l -1,-1 v 1 l 2,7 -1,2 -1,-1 v -1 h -1 v 1 l 2,2 v -1 l 1,1 -1,1 1,3 v 1 h -1 l 1,4 v 3 l 1,-1 1,2 -2,2 3,3 -2,3 2,-1 v 1 l -2,2 1,1 -1,2 c 2,1 2,2 2,3 l -1,1 1,3 1,-1 v 2 l -1,3 h 1 l -2,5 1,5 -1,1 1,6 h 1 l -1,1 2,4 -1,3 v 4 c -1,2 0,3 2,3 l -2,1 v 1 h 1 l -1,4 v 2 l 1,2 -1,1 1,6 h -2 v 1 h 1 v 2 h -1 v 1 h 1 l 2,4 v 1 c -1,-1 -2,-1 -1,-2 h -2 l 1,3 v 3 l -2,1 3,5 1,-1 v 1 l 4,-2 2,1 1,-1 1,1 8,-2 v 1 l 1,-1 1,1 5,-1 1,1 7,-1 c 0,-4 -1,-5 -2,-6 v 1 l -3,-2 v -1 h 2 v -3 h -2 l 1,-1 -1,-2 -1,1 -1,-2 1,1 v -2 l -2,1 1,-1 h 1 v -1 h -2 v -2 h -1 l 2,-5 h -1 v -1 h 1 v -1 l -1,-3 2,-1 v 2 h 1 v -1 l -1,-2 h 2 v -2 h 2 l 1,1 h 1 v -1 h -1 l 3,-2 1,1 -1,1 1,1 1,-2 1,1 c 1,-1 1,-2 2,-1 h 1 v 3 l 3,-1 2,3 2,-1 1,2 h -1 c 2,1 3,2 2,3 l 2,-1 2,2 h -1 l -1,-1 -1,1 1,1 -1,1 1,1 v -1 l 1,1 -3,2 1,1 -1,2 v 7 l 1,6 h -1 v 2 l 3,6 3,3 h 2 l 5,6 3,6 -2,3 h 1 l -6,5 -3,1 h -2 l -4,-4 h -3 l -6,-3 -1,1 -3,-2 -2,1 v -1 h -7 l -2,-1 h -3 v -1 l -3,1 v -1 l -8,3 -1,-1 -15,8 -4,4 v -1 l -3,1 v 2 l -9,5 -4,-3 -1,1 -1,-3 c -1,-1 -2,0 -2,2 l -1,-2 3,-1 v -1 l -2,-1 h -2 l -2,-3 1,-1 v -5 h 1 v -1 c 0,-2 1,-3 3,-4 l -1,-1 -2,2 v -1 l 1,-2 h 1 l 1,1 4,-3 v -2 l 2,-2 1,1 3,-3 v -9 h 1 l -1,-1 h 2 c -1,-2 -2,-4 -1,-5 h 1 l -1,-3 1,-1 v -2 h -1 l 1,-2 v -2 l 1,-1 -2,-2 1,-3 v -1 l -1,-5 1,-1 -2,-1 1,-1 c -1,0 -2,-1 -1,-2 v -1 c 0,-5 -1,-7 -2,-7 h -1 v -1 l 2,-4 1,-1 h -1 v 1 h -1 l -1,-3 1,-2 h -1 l -1,-2 -1,-1 1,-1 v -7 h -1 l -1,1 h -1 l 1,-4 h 1 v -1 c -2,0 -2,-2 -2,-6 l -1,1 v -2 l -2,-2 v -1 l -1,-4 h -1 l -1,2 -1,-1 1,-2 1,1 v -2 h 1 l 1,2 v -1 l -3,-4 -2,-3 1,-1 -4,-4 h 1 -2 l 1,-1 h 1 l -1,-2 1,-2 1,1 v 1 l 2,-1 c -1,0 -2,-1 -1,-2 l -2,1 -1,-1 -1,-4 -1,1 -2,-1 1,-2 -1,-2 h 1 v 1 h 1 l 1,-1 -1,-1 h -1 v -2 h 1 l -2,-2 2,-1 h -1 v 1 l 2,1 c 0,-2 -2,-3 -3,-3 v -2 l 1,1 1,-1 h -2 l -1,1 h -1 v -2 h 2 l -2,-4 v -1 h 1 v -1 h -1 v 1 l -1,-2 h 1 v -1 h -2 1 v -3 h 1 l 1,4 2,-2 v -1 l -1,1 c -1,-3 -2,-5 -4,-6 l 1,-1 v 1 l 2,-1 1,2 2,-1 -1,-1 1,-1 h -3 v -2 h -1 l 1,-2 h 2 c 0,2 0,3 2,4 h 2 v -1 l -2,-1 1,-1 1,1 h 1 l -1,-4 3,1 1,-3 1,1 v -1 l 1,1 h 3 l 1,1 v -1 l -2,-1 1,-1 1,1 h 1 z m -19,30 v 1 h -1 z m 2,6 v 1 h -1 z m 2,-37 h 1 v 1 z m 0,44 h 2 v 1 h -1 z m 0,-4 1,1 v -1 z m 2,-45 v 1 l -1,1 h -1 z m -2,7 h 1 l 2,2 -2,1 -1,-2 z m 2,44 h 1 v 1 l -2,1 v -1 z m 1,-8 -1,1 h 1 z m 0,-27 h 1 v -1 z m 0,-11 1,1 v 1 l -1,-1 z m 0,54 h 2 l -1,1 h -1 z m 1,-57 1,1 h -1 z m 1,53 v 2 h 1 v -1 z m 2,-51 v 2 h -1 l 1,1 -1,1 -1,-2 v -1 z m -1,51 h 1 v -1 z m 2,-45 -1,1 v 1 h 2 z m -1,-7 h 2 v 1 z m 1,58 -1,1 h 2 v -1 z m 0,122 1,1 v 1 z m 0,-179 3,1 v 1 l -2,-1 z m 3,-2 1,1 -1,1 -1,-1 z m -1,74 h 1 l 1,1 h -2 z m 0,-64 1,1 v -1 z m 2,68 1,1 h -1 z m 1,-81 1,1 v 1 z m 2,11 -1,1 h 2 z m 0,-6 v 1 h -1 z m 1,186 h 1 v 1 h -2 v -1 z m 4,-174 v 1 h 1 v -1 z m 1,-7 3,3 -1,1 -1,-1 1,-1 -2,1 z m 0,177 v 1 h 1 v -1 z m 1,-170 v 1 l 2,1 v -2 z m 11,15 h 1 v 1 l -1,1 z m 0,4 1,1 -1,1 z m 2,5 v 1 l -1,1 -1,-1 z m -1,13 1,1 v 1 h -1 z m 0,-6 1,1 v 1 h -1 z m 2,3 v 1 l -1,-1 z m 0,103 -1,1 h 1 l 1,-1 z m 4,-7 -2,5 h -1 v -1 l 1,-1 v -1 z m -3,-76 h 2 l -1,1 h -1 z m 3,73 1,1 h -1 z m 1,-63 1,1 h -1 z m 20,44 h 1 z m 3,5 v 1 z m 8,20 v 2 z m 0,-32 v 1 z m 0,-4 1,1 h -1 z"
           id="path1208" />
        <path
           d="m 354,772 h 1 l -1,1 z m 1,2 h 1 l -1,2 -1,-1 z m 20,-24 1,1 v 1 h 3 v 2 h -2 l -1,-1 v 1 l 2,1 h 1 l 4,3 2,1 h 3 l -2,2 -1,1 h 2 l 2,2 v -1 l 4,1 v 1 h -1 l -1,-1 c 0,2 -1,2 -2,2 v 2 l 2,-1 1,3 v 1 l -3,-1 v 1 l 3,1 v 2 l -1,-1 -1,1 2,2 -1,1 2,4 v 1 l -1,-1 v 2 l 2,6 -1,2 -1,-1 v -1 l -1,1 2,2 v -1 l 1,1 -1,1 1,3 v 1 h -1 l 1,4 v 3 l 1,-1 1,2 -2,2 3,3 -2,3 2,-1 v 1 l -2,2 2,1 -2,2 c 2,1 3,2 2,3 l -1,1 1,3 h 1 v -1 2 l -1,3 h 1 l -2,5 1,5 -1,1 2,6 -1,1 2,4 -1,3 v 4 c -1,2 0,3 2,3 l -2,1 v 1 h 1 l -1,4 v 2 l 1,2 -1,1 1,6 h -1 l -1,1 h 2 l -1,2 h -1 v 1 h 1 l 2,4 v 1 c -1,-1 -2,-1 -1,-2 h -1 l 1,3 -1,1 v 2 l -2,1 3,5 1,-1 v 1 l 4,-2 2,1 h 2 l 8,-2 v 1 l 1,-1 1,1 h 1 l 4,-1 1,1 7,-1 c 0,-4 -1,-5 -2,-6 v 1 l -3,-2 v -1 h 2 v -3 h -2 l 1,-1 -1,-2 -1,1 -1,-2 1,1 v -1 h -2 l 1,-1 h 1 v -1 h -2 v -1 l 1,-1 h -2 l 3,-5 h -2 v -1 h 1 v -1 l -1,-3 2,-1 v 2 h 1 v -1 l -1,-2 h 2 v -1 l 2,-1 1,1 h 1 v -1 h -1 l 3,-2 1,1 -1,1 1,1 1,-2 1,1 c 1,-1 1,-2 2,-1 h 1 v 3 l 3,-1 3,3 1,-1 1,2 h -1 c 2,1 3,2 2,3 l 2,-1 2,2 h -1 l -1,-1 -1,1 1,1 -1,1 1,1 1,-1 v 1 l -3,2 1,1 -1,2 v 7 l 1,6 -1,1 v 1 l 3,6 3,3 h 2 l 5,6 3,6 -2,3 h 1 l -6,6 v -1 l -3,1 h -2 l -4,-4 h -3 l -6,-3 -1,1 -3,-2 -2,1 v -1 h -7 l -2,-1 h -3 v -1 l -3,1 v -1 l -8,3 -1,-1 -15,8 -4,4 v -1 l -3,1 v 2 l -9,5 -4,-3 -1,1 -1,-3 c -1,0 -2,0 -2,2 l -1,-2 3,-1 v -1 l -2,-1 h -1 l -3,-3 1,-1 v -5 h 1 v -1 c 0,-2 1,-3 3,-4 l -1,-1 -2,2 1,-1 v -2 h 1 l 1,1 4,-3 v -2 l 2,-2 1,1 3,-3 v -9 h 1 l -1,-1 h 2 l -1,-5 h 1 l -1,-3 1,-1 v -2 h -1 l 1,-2 v -2 l 1,-1 -2,-2 1,-3 -1,-6 1,-1 -2,-1 1,-1 -1,-2 v -1 l -1,-7 h -2 v -1 l 3,-4 v -1 h -1 v 1 h -1 l -1,-3 1,-2 h -1 l -1,-2 -1,-1 1,-1 v -7 h -1 v 1 h -2 l 1,-4 h 1 v -1 c -1,0 -2,-2 -2,-6 l -1,1 v -2 l -2,-2 1,-1 -2,-4 -2,2 v -3 l 2,1 -1,-2 h 1 l 1,2 v -1 l -3,-4 -2,-3 1,-1 -3,-4 h -2 l 1,-1 h 1 c 1,-1 0,-1 -1,-2 l 1,-2 2,1 -1,1 2,-1 -1,-2 -1,1 h -2 v -5 h -1 l -1,1 -2,-1 1,-2 v -2 h 1 l -1,1 h 1 l 1,-1 -1,-1 h -1 v -2 h 1 l -2,-2 2,-1 -1,1 2,1 c 0,-2 -1,-3 -3,-3 v -2 l 1,1 1,-1 h -2 l -1,1 h -1 v -2 h 2 l -2,-4 v -1 h 1 l -1,-1 v 1 l -1,-2 h 1 v -1 h -1 v -2 l 1,-1 1,4 2,-2 v -1 l -1,1 c -1,-3 -2,-5 -4,-6 l 1,-1 v 1 l 2,-1 2,2 1,-1 -1,-1 1,-1 h -3 v -2 h -1 l 1,-2 h 2 c 0,2 0,4 2,4 h 2 v -1 l -2,-1 1,-1 2,1 -1,-4 3,1 1,-3 1,1 v -1 l 1,1 h 2 l 1,1 h 1 v -1 l -1,-1 v -1 l 1,1 h 1 z m -19,30 v 1 h -1 z m 2,6 v 1 h -1 z m 2,-37 h 1 v 1 z m 0,44 h 2 v 1 h -1 z m 0,-4 1,1 v -1 z m 2,-45 v 1 l -1,1 h -1 z m -2,7 h 1 l 2,2 -2,1 -1,-2 z m 2,44 1,1 -2,1 v -1 z m 1,-8 -1,1 h 1 z m 0,-27 h 1 v -1 z m 0,-11 1,1 v 1 h -1 z m 1,54 h 1 v 1 h -2 z m 0,-57 1,1 h -1 z m 1,54 v 1 h 1 v -1 z m 2,-52 v 2 h -1 l 1,1 -1,1 -1,-2 v -1 z m -1,51 h 1 v -1 z m 2,-45 -1,1 v 1 h 2 z m 0,-7 h 1 v 1 l -2,-1 z m 0,58 v 1 h 1 v -1 z m 0,122 1,1 v 1 z m 0,-179 3,1 v 1 h -2 z m 3,-2 1,1 -1,1 -1,-1 z m 0,74 1,1 h -2 z m -1,-64 1,1 v -1 z m 2,68 1,1 h -1 z m 1,-81 1,1 v 1 z m 2,11 -1,1 h 2 z m 0,-6 v 1 z m 1,186 h 1 v 1 l -2,1 v -2 z m 4,-174 v 1 h 1 v -1 z m 2,-7 2,3 v 1 h -1 l -1,-1 1,-1 -2,1 z m -1,177 v 1 h 1 v -1 z m 1,-169 2,1 v -2 z m 11,14 h 1 v 1 l -1,1 z m 0,5 h 2 l -2,1 z m 2,4 v 2 h -1 v -1 z m -1,13 1,1 v 1 h -1 z m 0,-5 h 2 l -1,1 h -1 z m 2,2 v 1 l -1,-1 z m 0,103 -1,1 h 2 v -1 z m 4,-7 -2,5 h -1 v -1 l 1,-1 v -1 z m -3,-76 h 2 l -1,1 h -1 z m 3,73 1,1 h -1 z m 1,-63 1,1 h -1 z m 20,44 h 1 z m 3,5 v 1 z m 8,20 v 2 z m 0,-32 v 1 z m 1,-4 1,1 h -2 z m 74,-100 3,2 h -1 l -3,-1 z m -1,-9 1,1 v 1 z m 2,3 -1,2 v -2 z m -1,9 v 1 z m 0,5 1,1 h -1 z m 21,-34 h 1 v 1 l 2,1 v 1 h -1 l 1,1 h 2 l 1,-2 5,3 -2,1 h -2 l 1,1 v -1 c 2,0 3,2 4,4 l 3,3 h 3 v 1 h 3 l 1,1 2,-1 2,2 3,-1 h 1 l -1,-2 3,3 1,-1 h 1 v 1 l 4,-3 v 1 h 1 v -1 l 1,1 1,-1 1,1 h 2 l 1,1 3,-2 h 1 l 1,1 h 1 l 1,1 1,-1 1,1 2,-2 2,2 h 2 v -1 h 2 v 1 l -1,1 c 4,0 6,2 6,3 h 1 l 1,-1 1,3 v -1 h 2 l 1,3 -1,3 v 6 l -3,5 1,1 c -2,0 -3,1 -5,3 l -2,1 -1,-1 1,1 v 1 h -1 l -1,-1 -3,2 -1,-1 -1,1 v -1 l -1,-1 h -1 v 1 h -7 l 1,-1 h -1 v 2 l -2,-1 -2,1 -1,-1 h -1 l -3,1 -1,-1 h -1 v 3 l -1,-1 v 1 h -1 l -2,-1 -1,1 -1,-1 c -2,2 -4,2 -5,2 v 1 l -1,-1 -4,2 -2,-1 -3,1 v 1 l 1,-1 v 1 l -2,1 h 2 v 1 l -1,3 v 2 h -1 v 2 h 1 l 1,-1 v 3 l -2,1 2,3 c 0,0 0,1 0,0 l 1,3 -3,2 v 1 h 2 l -2,2 v 1 h 2 l -1,1 v 2 h -1 v -1 1 l 1,1 h -1 l 1,3 -1,1 h 1 v 1 h -1 v 1 l 2,1 -1,1 v -1 l -1,2 1,1 -2,1 1,3 v 2 c -1,0 0,0 0,0 l -1,1 v 1 l 2,1 6,-1 h 3 l 17,-2 14,-2 1,1 h 3 l 4,-1 h 1 v 1 l 1,-1 1,1 h -1 c 2,1 3,3 4,6 v 3 l -3,6 v 1 l -1,-1 c -1,2 -2,2 -4,2 l -2,-1 -1,1 h -2 a 288,288 0 0 1 -14,0 h -2 l -1,1 -2,-1 h -5 l -1,1 h -1 v 1 l -1,-1 -2,1 h -2 l -9,3 2,1 v 1 h -2 l 2,2 -1,2 v 1 l -1,2 h 2 v 2 l -1,1 2,3 -1,1 h 2 v 1 l -1,1 h 1 v 1 h -1 v 1 l 1,2 -1,1 3,3 -1,4 1,1 1,-2 v -2 h 1 v 3 l 1,-1 v 1 l -2,2 v 1 h 2 l -3,1 1,1 h 1 l 2,-3 v 1 c 0,1 -1,3 -3,3 l 1,3 h 1 v -2 l 2,-1 h 1 v 1 h -2 l 2,2 h 1 v 1 h -1 l -1,1 h 1 v 3 h 1 l 1,-1 -1,-1 v -1 1 h 2 v 1 l -1,1 1,2 v 1 h -1 l 1,-2 -1,1 -1,-1 h -1 l 1,3 h -1 v 1 l 3,1 h -1 v 1 l 2,2 -1,2 1,-1 1,1 -1,2 v 1 l -2,6 c -1,2 -3,3 -6,4 l -1,2 -1,-1 h -1 v 1 h 1 l -1,1 -2,-1 2,-2 h -1 l -3,1 v -2 l -2,-2 v 2 h -1 v -3 l -3,-2 2,-2 c -1,0 -2,0 -1,-1 l -1,1 h -1 l 1,-3 -1,-2 2,-1 h -2 v -1 l 1,-1 -1,-2 v -4 l -2,-4 -1,1 v -8 l -2,1 v -1 l 2,-1 -1,-1 h -1 v -1 l 1,-1 -2,-5 1,-1 h -2 l 1,-1 -2,-1 2,-2 -2,-1 1,-1 -2,-2 1,-1 -1,-3 1,-1 -3,-4 h -1 c -2,0 -5,-3 -10,-10 h 1 v -2 c 0,-2 1,-3 2,-3 v -1 h -1 v -1 c 2,0 4,-1 5,-5 h -1 l 1,-1 -1,-1 1,-1 -2,-2 -1,-1 1,-3 -1,-2 1,-1 -1,-2 h -1 v 1 h -1 v -3 l 1,-4 -1,-2 1,-1 -2,-1 v -2 l 1,1 h 1 l -1,-1 h -1 l 2,-2 -3,-2 h -1 l 1,-1 c 1,-2 0,-4 -2,-5 l -1,1 v -1 h 2 v -1 l 1,-2 v -1 l -1,1 h -1 l 1,-2 v -4 h -1 v 2 l -2,-2 1,-1 v 1 l 1,-1 -2,-4 h -1 v 1 l -1,-2 h -1 v -1 h 3 v 1 -3 l 1,-1 v 1 h 1 v -3 l -1,1 -1,-1 v -1 l -1,-3 h -2 l 1,-2 v -1 h -1 v 1 h -1 l -1,-1 2,-1 v -2 l 1,-1 v -8 l -2,-1 v 1 l -1,-1 1,-1 v 1 l 3,-2 h -1 v -1 h 1 l -1,-6 1,1 v -2 h 1 l 1,1 c 0,-1 1,-2 3,-2 l -3,-1 1,-2 -3,-3 v -1 l 1,1 2,-1 1,3 1,-1 1,1 v -1 h -1 l 1,-2 1,1 v -2 l -1,1 -2,-1 1,-2 h -1 v -1 l 2,-1 h 1 l -1,1 h 1 l 1,-1 v 2 l -2,1 v 1 h 1 l 3,-1 v -2 l 1,1 1,-2 h 1 v 1 z m -17,44 h 1 l -4,3 z m -3,-3 2,1 v 1 h -2 z m 2,-6 v 1 h 1 v -2 z m 0,18 h 1 v 2 z m 1,-14 v 1 z m 0,-3 v 2 h 1 l -1,-1 z m 0,-19 1,1 1,-1 z m 1,-6 1,1 -2,1 v -2 z m -1,13 v 1 h 1 z m 0,-11 h 1 v 1 z m 1,53 h 1 v 1 h -1 z m 0,-63 h 1 v 1 h -1 z m 1,13 -1,1 h 1 z m 0,42 h 1 v 1 h -1 z m 0,-9 1,1 v -1 z m 0,13 h 1 z m 1,-64 1,1 v 1 l -1,-1 z m 0,11 v 1 h 1 v -1 z m 1,64 h 1 v 1 h -1 z m 1,-63 1,2 v -1 z m 0,-12 1,1 h -1 z m 0,67 h 1 z m 1,-63 -1,1 h 1 z m 2,-9 v 1 h -1 z m 0,92 v 1 h 2 z m 0,-1 v 1 h 1 v -1 z m 1,-89 h 1 l -1,1 z m 0,3 2,2 v 1 l -2,-1 1,-1 h -1 z m 0,8 1,1 -1,1 h 1 v -2 z m 2,-8 h 1 v 1 h -1 z m 2,5 -2,1 v 1 h 1 l 1,-1 v 1 z m 0,-12 1,1 -2,1 v -1 z m 0,5 1,1 -1,1 h -1 v -1 z m 1,-6 1,1 h -1 z m 1,13 -1,1 v 1 h 2 v -1 z m -1,-10 2,1 -1,1 h -1 z m 1,6 h 1 v 1 z m 0,-2 h 1 l 1,1 h -1 z m 1,-4 h 1 z m 1,13 h 1 z m 0,-17 h 1 v 1 z m 2,8 2,1 -1,1 -2,-1 z m -1,-1 h 1 z m 2,5 h 3 v 1 l -1,1 h -2 z m 1,-5 1,1 v 1 l -1,-1 z m 1,-4 h 1 l -1,1 z m 0,14 1,1 1,-1 z m 1,164 h 1 l -1,1 z m 1,-173 v 1 h -1 z m 0,3 h 1 v 1 z m 0,-6 h 1 v 1 h -1 z m 2,179 v 1 h -1 z m -1,-171 h 1 v 1 h -1 z m 2,173 1,1 v 1 l -1,-1 z m 2,4 v 1 l -1,-1 z m -1,3 h 1 v 1 h -1 z m 1,-177 2,1 v 1 l 1,2 -1,2 -2,-1 v -1 h 2 v -1 h -2 l 1,-1 v -1 z m 0,-13 1,1 -1,1 z m 0,22 1,1 v -1 z m 2,36 v 1 z m 0,2 v 2 h 1 v -2 z m 0,15 1,2 v -2 z m 1,-3 v 2 l 1,-2 z m 1,-63 1,1 z m 0,9 v 1 z m 1,60 v 2 l -1,-1 z m 1,-21 h 2 v 1 l -3,1 v -1 z m 2,-37 v 1 h -1 z m 0,68 v 1 l -1,-1 z m 0,-66 v 1 z m 0,124 h 2 v 1 h -1 z m 2,-8 v 1 h -1 z m 1,9 h 1 v 1 h -1 z m 1,46 v 1 h -1 z m 2,-31 v 1 h 1 v -1 z m 0,4 v 1 l 1,-1 z m 3,24 v 1 l -1,-1 z m 0,-14 v 1 h 1 v -1 z m 1,4 1,1 z m 0,-1 h 1 z m 2,-8 1,1 v 1 l -1,-1 z m 0,13 h 1 v 1 z m 0,-4 h 1 l -1,1 z m 34,-131 h 1 v 1 h -1 z m 3,61 1,1 h -1 z"
           id="path1210" />
        <path
           d="m 638,734 1,1 h 2 l 2,2 4,-1 3,3 2,-1 1,1 h 2 l 1,1 1,-1 2,1 h 3 l 5,3 h 2 l 1,1 h 4 v 1 h 3 l -1,1 h 1 l 3,1 h 2 l 1,2 h 1 l 3,2 h 2 l 1,3 1,-1 1,2 1,-1 3,3 h 1 c 5,5 7,9 8,12 v 1 c 2,1 3,2 3,4 l 5,13 1,2 v 1 l -1,1 c 1,0 2,1 2,3 l -1,1 1,1 h 1 v 1 h -1 c -1,6 0,9 1,9 l -2,3 v 3 h -1 v 4 h -1 l 1,2 h -1 l 1,1 c -4,7 -9,14 -17,20 l -7,5 c -3,-1 -5,0 -5,3 l -2,-1 -16,4 -1,2 17,12 h 2 c -1,2 1,3 4,4 l 4,4 h 1 l 3,3 v -2 4 l 4,1 3,4 5,4 1,-1 h 1 v 1 h -2 l 1,1 -1,1 2,1 2,-1 v 3 h 1 v -1 h 2 v 2 h -3 l -1,1 c 3,0 4,1 4,2 h -1 l -1,1 h 2 c 0,0 0,-1 0,0 l -1,2 4,-1 -1,1 v 2 l 3,2 v 1 l -2,2 2,2 -1,1 h -1 l -1,-1 v 1 l 3,3 -1,1 -2,-2 -2,1 v 2 h -3 v 2 c 1,0 2,1 2,3 -2,0 -3,-1 -2,-3 h -1 v 3 l -3,1 v -1 l 1,-1 v -1 l -5,2 -1,-1 -1,1 h -1 v -1 l 1,-1 -3,-2 -5,1 v -2 l -2,1 -1,-5 -3,1 v -2 l 3,-1 c -2,-3 -4,-6 -5,-11 l -4,-4 h -1 v -1 l 1,-1 -1,-1 -1,1 -1,-5 -1,1 -2,-6 -9,-10 -6,-5 -1,2 -1,-1 1,-1 -1,-2 -2,1 h -1 v -4 h -2 l 1,2 -1,1 h -1 l 1,-1 v -2 h -1 v 1 h -1 l -1,-1 -1,1 -2,-1 -1,-1 h -1 l -5,-5 -1,2 -2,-1 1,-1 h -2 l 1,2 -1,3 v 1 h -1 l 1,5 -1,2 1,1 -2,3 v 2 l 2,-1 -1,1 -1,2 2,1 -2,2 v 1 h 2 l -1,4 -1,2 1,2 -3,4 v 1 c -2,6 -4,9 -6,10 h -2 v -1 l -2,2 h -1 l -3,-3 c -2,-2 -2,-4 -2,-5 h 1 l -1,-1 v -1 h 1 v -3 l 1,-3 h -1 l 3,-5 -1,-1 2,-5 -1,-1 1,-2 1,-12 1,1 -1,-4 h 1 l -2,-3 h 1 v -1 l 1,-1 -5,-8 2,-3 c -1,0 -2,-1 -2,-3 h 1 l 1,1 1,-4 -1,-6 c 0,-12 -1,-19 -2,-22 l -1,-5 v -1 h 1 l -3,-8 v -1 l -1,2 -1,-2 2,-1 -1,-4 1,-1 c -2,0 -3,-1 -3,-2 l 1,-1 -3,-4 2,-1 -3,-1 v -2 l 2,-1 -3,-6 -1,-1 2,-1 v 2 h 1 v -1 l -1,-2 1,-1 c -2,0 -2,-1 -2,-2 v -1 l 1,-1 v -1 h -2 v -1 l 1,-1 -1,-1 c 1,-2 -2,-4 -6,-5 h -4 l -1,-1 h -1 l -2,-1 v -7 l 1,-2 1,-2 c 2,0 3,-1 3,-2 v -1 h 2 l 3,-2 v 2 h 1 c 2,-2 4,-3 6,-2 v -2 l 5,2 1,-1 2,1 h 12 l 4,1 z m -31,21 h 1 -1 l -1,2 h -1 l 1,-1 v -1 z m 4,-24 v 1 h -2 c 1,-1 1,-2 2,-1 z m -1,32 v 1 h 1 v -1 z m 0,11 h 2 l -1,1 z m 5,16 h 1 l -1,2 z m 6,-63 h 1 l -1,2 z m 13,28 -2,1 1,2 -1,2 h 3 l -2,2 c 0,1 0,2 2,2 l -2,3 2,11 -1,1 1,1 h -1 l -1,1 h 2 v 1 l -1,1 c 1,0 2,2 1,6 h -1 c 2,1 3,2 2,3 v 3 l -1,2 c 0,6 1,9 2,10 l -2,2 1,1 v 1 h -1 v 1 h 1 l -1,1 v 1 l 2,17 3,2 v -1 c 1,0 2,0 1,2 l 7,-2 v 1 l 10,-1 3,-2 2,1 20,-6 7,-5 h 1 l 5,-11 -1,-1 1,-1 v -7 h 1 c -1,0 -2,-3 -2,-9 l -4,-6 -2,1 v -3 c -3,-1 -8,-5 -13,-11 l -5,-5 -1,1 h -1 c 0,-2 -5,-5 -16,-9 h -3 l -3,-2 -2,1 -2,-2 z m 0,128 1,1 v -2 z m 2,-86 h 1 v 1 z m 54,115 2,1 c 0,1 -1,2 -2,1 z m 5,2 h 2 v -1 z m 3,-155 -1,1 h 2 v -1 z m 2,157 v 2 l -1,-1 -1,-1 z m 10,-30 h 1 v 2 l -1,-1 z m 2,2 h 1 v 1 z m 4,14 v 1 h 1 v -1 z m 53,-158 h 1 l -1,3 1,-1 2,1 1,-1 -1,-1 h 1 l 2,2 h 2 v 1 h 1 l 1,-1 -3,-1 1,-1 2,2 v -1 h 1 v 1 l 1,-1 v 3 l 3,1 h 1 v 1 h -2 v 1 l 1,2 h 1 v -2 l -1,-1 h 2 l 4,6 -1,2 2,-1 v -2 h 1 v 3 l 1,1 v 1 l -1,-1 v 1 h 2 v 1 l 1,2 h 1 l 1,1 h -1 l 2,2 v 1 l 4,6 v 1 l 1,3 5,14 h 1 l -1,1 1,3 2,1 -2,1 1,5 v 1 l 2,2 -1,3 1,3 -1,1 1,5 c 0,0 0,1 0,0 v 4 l 1,4 -1,1 1,5 v 5 l -1,2 1,4 -1,1 v 1 l 1,1 h -1 l -3,12 1,2 -1,1 1,1 -2,1 1,1 -3,8 -1,-1 v 3 l -3,3 1,2 c -1,0 -2,0 -3,2 v 2 l 1,-1 v 1 l -2,2 v -1 l -1,1 v 2 l -3,3 1,1 -1,-1 h -1 c -5,4 -9,7 -14,8 l -3,1 h -9 l -2,-1 h -5 l -4,-2 h -2 l -5,-3 -4,-5 -1,1 -3,-4 -3,-4 v -1 l -4,-6 c -3,-4 -6,-12 -9,-26 v -1 l -2,-8 v 1 -2 h -1 v -3 h 1 l -1,-7 h 1 l -2,-6 1,-1 -1,-3 h 1 l -1,-1 1,-3 v -2 l -1,-1 1,-3 h -2 l 1,-1 1,-3 h -1 l 1,-1 1,-5 v -3 l 1,-3 -1,-1 2,-1 v -1 h -1 v -1 l 1,1 v -1 h -1 l 1,-1 c 0,0 0,-1 0,0 l 3,-8 -1,-1 h 1 l 1,1 v -3 l 1,-1 v -3 l 2,-1 -1,-1 h 1 l -1,-1 2,-2 v 1 l 1,-1 v -1 l 2,-1 v -2 l 1,-1 -1,-2 h 1 l 1,1 1,-1 v -1 h -1 v -1 h 3 l -1,-1 1,-1 1,1 -1,-2 1,-1 h 1 l 1,1 1,-2 h -1 v -1 l 2,-1 1,1 h 2 v -1 h -1 v -1 l 3,-2 h 1 l -1,1 v 1 h 1 c 0,-1 0,-2 2,-3 h 1 v 1 l 1,1 v -3 l 2,1 h 1 l -1,2 h 1 c 0,-1 1,-2 3,-2 l 4,-1 -1,-1 h 1 v 1 z m -41,36 v 1 z m 46,-13 v 2 h -1 l -1,-2 h -2 l -3,-1 v 2 c -2,0 -2,-1 -2,-2 l -2,2 -1,-2 h -1 v 1 h 1 l -1,1 -1,-1 -2,1 v 1 l -1,1 v 1 h 1 v 1 l -3,-1 c -1,0 -3,1 -6,5 v 3 l -4,2 v 1 c -1,2 -1,3 -2,2 l 1,1 c -2,1 -2,2 -2,4 l 1,1 -3,1 v 3 l -2,2 v 1 l -1,3 v 1 l -1,2 v 6 h -1 v 3 l -1,3 h 2 l -1,1 -1,-1 v 1 l 1,1 -1,2 h 1 v 1 l -1,3 2,-1 v 2 l 1,3 v 1 c 1,0 2,1 1,3 v 4 l 1,2 h -1 v 2 l 1,1 2,8 1,2 -1,1 c 2,0 3,2 4,6 l 2,1 -1,1 1,6 1,-1 2,6 1,4 v 1 h 1 c 2,3 5,6 8,7 l 2,2 h 1 v 1 h 3 l 2,1 1,-1 v 1 h 3 l 1,-1 1,1 2,-3 1,1 h 1 l -1,-1 6,-3 v 1 l 6,-9 v -2 h 2 l -1,-2 c 1,0 2,-1 2,-3 2,0 3,-2 3,-8 h 1 l -1,-1 1,-1 v -1 l 2,-3 -1,-1 1,-2 v -6 l 1,-1 h -1 l 1,-2 v -4 l 1,-2 -1,-1 1,-2 -1,-1 1,-1 -1,-2 v -4 l -2,-8 -1,-1 v -1 l -2,-1 2,-4 -1,-1 v -1 l 1,-3 -2,-7 h 1 l -1,-3 h -2 l 2,-4 v -1 h -1 c 0,-1 0,-2 -2,-3 l 1,-1 h -1 v -2 l -2,-3 v 1 l 1,1 h -1 l -1,-2 1,-1 -3,-4 -1,-2 -1,-1 h -3 v 1 h -1 l 1,-1 -1,-1 h -1 l -3,-1 -1,1 z m -37,62 v 1 l 1,-1 z m 9,-47 h 1 v 1 z m 3,-29 v 1 z m 2,-3 v 1 z m 8,130 v 1 h -1 z m 3,-135 -1,2 h -1 v -1 z m 3,0 v 1 z m 9,154 v 1 h -1 z m 4,-131 h 1 v -1 z m 1,-20 v 1 h 1 z m 1,-1 v 1 z m 3,25 v 1 h -1 z m 1,-24 v 1 l -1,-1 z m 2,5 1,1 v -1 z m 4,6 v 1 z m 3,32 1,1 v -1 z m 2,19 v 1 h 1 v -1 z m 1,5 h 1 z m 0,30 h 1 v 1 h -1 z m 14,-93 1,1 h -1 l -1,-1 z m 0,5 1,1 v 1 h -1 z m 0,-3 h 1 v 1 h -1 z m 0,-10 h 2 v 1 h -2 z m 1,2 h 1 l -2,1 z m 0,3 1,1 h -1 z m 121,-13 h 1 l 1,1 1,-1 -1,2 3,2 2,-1 -2,3 c 1,0 2,1 2,3 h -1 c 2,0 3,1 3,3 h -1 l 2,4 h 1 v 1 h -1 c 0,2 0,4 2,5 v 1 h -1 l 1,2 -1,1 1,2 v -1 h 1 v 8 l -1,3 1,1 v 2 l -1,2 h 2 l -1,1 h -1 l 1,2 h -1 l 1,7 h -1 c 0,2 1,3 2,3 l -1,2 v 2 h -1 1 l -1,2 1,4 -1,1 1,6 -1,1 1,1 -1,3 v 15 h -1 l 1,1 -1,3 v 2 l 1,1 -1,2 1,1 h -1 v 10 l -1,1 v 7 l -1,1 1,2 -1,1 v 6 l -1,1 v 1 l -1,2 1,2 h -1 1 l -2,6 1,1 -2,2 1,1 -1,3 1,-1 1,1 -2,4 h -1 l 1,3 h -1 l 1,1 -1,1 -1,-1 -1,6 1,-1 v 1 l -3,2 -1,1 2,2 h -1 l -1,-1 -1,2 v 2 l -2,3 -1,-1 -1,-2 -1,1 -2,-1 -3,-3 1,-1 -1,-1 v 1 l -1,-1 1,-1 -2,-1 1,-1 h 1 l -2,-2 1,-1 -1,-4 1,-2 h 1 v -2 l -1,-1 1,-2 -1,-1 2,-3 -1,-2 1,-4 v -2 l 1,-2 v -11 l 1,-1 c 0,0 0,-1 0,0 l -1,-3 2,-3 -1,-3 1,-1 -1,-1 2,-6 v -1 h -1 l 1,-2 v -2 l 1,-4 -1,-1 1,-3 h -1 l 1,-2 -1,-2 1,-1 v -2 l -1,-4 v -1 l -1,-1 2,-3 v -1 l -1,-2 1,-1 -2,-9 h 1 l 1,1 v -2 c -2,0 -2,-1 -2,-3 l -8,12 -6,10 a 187,187 0 0 1 -18,23 h -1 v 1 l -1,1 -1,-2 -3,1 -2,1 -1,-2 h -4 l -3,-1 1,-1 c -2,-1 -3,-2 -3,-4 -1,-3 -4,-5 -6,-6 l -3,-4 1,-1 c -2,0 -4,-2 -5,-5 l -3,-4 -7,-7 -1,1 v -4 l -1,1 -5,-5 -1,-3 -2,1 v 1 l 2,1 -1,1 v 1 l -2,1 1,1 -1,1 1,3 -1,3 1,-1 v 1 l -1,3 2,5 h 1 l -1,3 v 5 l 1,2 v 1 l -1,-1 v 1 l 2,1 -1,2 v 3 l 2,2 -1,-1 c -1,2 0,3 2,5 l -2,1 h 1 v 1 h -1 v 2 l 1,-1 1,1 v 1 l 2,2 v 1 l -2,-2 1,5 -1,-1 v 1 l 1,2 1,-1 v -3 h 1 l -1,4 v 1 h 1 l 2,2 -3,1 1,2 v 1 l 4,4 1,-2 1,4 -1,1 -1,-2 1,3 h 3 v 1 h -2 v 1 l 1,4 -2,1 1,2 -1,1 1,1 h -1 l 1,1 v 1 l -7,5 h -2 l -2,-2 v 1 l -3,-3 h -1 l -4,-2 v -1 l 2,-1 -2,-5 v -2 h 1 v -1 l -1,-4 -1,-1 h 1 l -3,-9 v -1 l -1,-1 1,-4 -2,-1 1,-1 v -1 c -2,0 -2,-1 -2,-2 l 1,-1 -1,-1 1,-1 c -1,0 -2,-1 -2,-4 l -1,-3 1,-1 -4,-11 h 1 l -2,-4 h -1 l 2,-4 v -1 l -1,1 -1,-4 1,-1 -2,-2 h -1 l 1,-2 v -3 h 1 l -2,-3 h -1 v -7 l -2,-2 h 2 l -1,-1 1,-1 -2,-2 h -1 v -1 h 1 l -1,-4 -2,1 1,-2 h 1 v -1 l 1,-1 h -1 v -1 l 1,-1 -3,-2 v -2 h 1 l -1,-3 v -1 h -1 v 1 h -1 v -2 l -1,1 v -1 l 3,-1 v -2 h 1 v -1 h -2 l -2,2 v -2 l 3,-2 -1,-3 -2,1 1,-1 -1,-1 2,-1 h -2 v 1 h -1 v -1 l 1,-1 v -2 h 1 l 1,2 h 1 v -1 h -1 v -1 l 1,-1 h -2 l 2,-1 c -2,0 -2,-1 -2,-2 v -4 h -1 l 1,-2 h 2 l -2,-6 h 1 l 3,-1 -1,-6 2,2 h 2 v -4 h 2 v -1 h -2 l -2,1 v -1 l 1,-1 h -1 l 1,-1 h -1 l 1,-1 h 1 c 1,2 3,4 5,4 l -1,-3 3,1 2,-2 3,3 1,1 1,-1 v -1 h -2 v -1 h 1 c 3,1 5,2 5,4 h -2 c 1,1 3,2 4,5 l 1,1 h 2 l 2,1 -1,1 1,1 h -2 l -1,-2 v 2 l 3,3 h 1 l -1,-1 1,-1 1,2 -2,1 -1,-1 -1,2 2,2 v 2 l -1,-1 h -1 v 1 l 1,2 v 1 l 3,1 -2,2 1,3 h 2 v 1 l -2,1 1,2 v 2 l 2,5 1,2 h -1 v 1 h 1 l 3,6 h 1 v 1 h -1 l 5,9 v 3 l 1,3 4,4 6,11 4,4 c 2,1 3,2 3,4 l 1,1 v -1 l -1,-2 1,1 1,2 1,-1 h 1 l 3,3 -1,1 2,2 v -1 h 1 l 1,1 12,-14 2,-3 7,-12 -1,-1 3,-2 v -2 l 4,-6 -1,-2 3,-6 1,-2 v -5 l 1,1 v -1 h -1 c 1,-2 2,-2 3,-2 v -1 h -1 l 2,-5 3,-1 -2,-1 v -1 l 3,-1 -1,-2 v -2 l 1,-1 -1,-1 h 2 l -1,-1 1,-1 v -6 l 3,-5 h 3 l -1,-3 z m -120,28 2,2 h -3 z m 3,-26 v 2 l -1,1 -1,-1 z m 0,12 -1,1 1,2 -1,2 h 1 z m 0,-6 1,-1 z m 0,16 v 1 z m 1,-15 -1,1 h 1 z m 0,38 h 1 l -1,1 z m 0,-11 h 1 z m 1,6 -1,1 v 1 h 1 z m 0,-42 v 2 l 2,1 v -1 z m 0,56 1,1 h -1 z m 2,-62 v 1 h 1 z m 2,-7 h 2 l -2,1 z m 0,10 1,1 v 2 l 1,-1 -1,-2 z m 1,-9 1,1 v 1 z m 0,3 1,1 h -1 z m 4,-6 -2,2 v -1 z m -1,11 v 1 h 1 v -1 z m 2,-6 h 2 v 1 h -2 l 1,1 v 1 l -2,-1 z m 0,-3 1,1 h -1 z m 0,10 1,1 h 2 c -1,0 -2,-1 -1,-3 z m 2,-8 3,1 h 1 v 1 l -1,-1 h -1 v 2 h -1 z m 3,-2 v 1 l -1,1 z m 2,11 v 1 l 1,-1 z m 1,-11 1,2 -1,-1 z m 2,154 h -1 2 z m 2,-136 1,1 h 1 z m 0,-8 h 1 l 2,4 -2,2 v -1 l 1,-1 z m 1,157 h 1 l -1,1 z m 4,-63 v 1 l -1,1 v -1 z m -1,-97 h 1 v 1 z m 2,160 2,1 v 1 h -3 v -1 z m 1,-58 h 1 v 1 h -1 z m 1,-86 h 1 v 1 z m 0,114 h 1 z m 2,31 v 1 h -1 z m -1,-125 1,2 -1,-1 z m 3,95 h 1 v 1 h -1 v 1 l -1,-1 z m 0,2 h 1 v 1 h -1 z m 2,13 1,1 v -1 z m 3,-94 v 1 h -1 z m 24,40 -1,1 1,1 z m 55,-85 h 1 v 1 h -1 z m 4,9 v 1 h 1 v -1 z m 3,3 h 1 l -1,1 z m 37,-38 h 1 v 1 h -1 z m 0,18 h 2 l -1,4 h -1 z m 0,-11 v 1 z m 97,-23 2,2 -1,3 h 1 l 2,1 v -1 l -1,-2 1,-1 4,3 v -1 l 5,5 c 2,0 2,1 2,2 h -1 l 6,11 v 3 h 1 l 1,1 v 1 l 1,1 -1,1 1,4 v 2 l 1,3 -1,1 v 1 l 1,-1 1,1 h -1 l 1,1 v 1 h -2 2 v 1 l -1,1 h -1 c 0,2 1,3 2,3 v 1 l -1,1 -1,-1 2,5 c -2,0 -2,1 -2,2 v 1 l 1,1 v 1 l -3,-1 -1,3 2,-1 1,-1 v 3 l 1,-1 v 1 h -1 l -2,-1 -1,1 1,2 1,-1 v 1 l -2,1 1,2 h 1 v -3 l 1,1 -1,2 1,1 h -2 v 1 l 2,1 v 1 l -1,2 v 1 l 1,1 -2,1 h 1 v 4 l -1,1 1,1 h -1 v 1 l 1,1 h -2 l 1,1 -1,1 2,2 -1,1 -1,-1 -1,3 1,1 -1,1 h -1 v 1 l 2,2 h -1 l -1,3 h 1 l -1,1 -1,-1 1,1 1,1 h -1 l 1,3 h -1 l 1,1 -1,1 1,1 -1,1 1,1 v 3 h 1 l -2,1 2,2 2,-1 v 1 -1 l 6,1 h 1 l 3,2 v 2 l 1,3 c -1,2 -3,5 -7,7 l -4,2 v 3 l 1,1 -1,3 2,5 4,14 3,5 v 1 l 4,6 v 2 l 1,1 -5,11 h -1 l -3,-1 -1,1 -5,-3 -2,-4 c -1,-4 -2,-6 -3,-5 v -2 l -1,-1 v -2 l -2,-7 v -1 h -1 v -3 l -1,-4 -2,-8 -2,-4 -1,-4 c -3,0 -4,1 -4,2 l -2,-1 h -1 l -2,1 h -1 l -1,1 -1,-1 -3,2 h -1 l -4,3 v -1 l -1,1 h -3 l -3,3 -1,-1 c 0,2 -2,3 -4,4 l -1,-1 -2,2 h -2 c 1,1 0,1 -1,1 v 1 c 1,0 2,1 2,3 l 1,-1 1,1 -1,1 2,1 -1,1 h -1 v 1 h 1 v 1 h 1 l 2,-1 v 1 l 1,1 v 1 l -1,1 h -1 l 1,-1 -2,1 v 1 l 2,1 h -2 l 3,2 -2,3 -1,-1 v 1 l 1,1 -1,1 1,2 v -2 h 1 v 2 l -1,1 v 1 h 1 v 1 l -2,3 v 2 l -1,-1 c 0,2 -2,4 -5,4 l -2,1 h -2 l -1,-1 1,-1 -5,-3 1,-1 v -1 h -2 c 0,-2 -1,-3 -2,-3 v -1 l 1,-3 -1,-1 1,-1 -1,-1 h -1 2 v -1 l -1,-1 1,-1 v 1 -1 l -1,-3 h 1 l -1,-3 v -1 l -2,-1 1,-1 -2,-3 -1,1 -2,-2 v 1 l -5,-3 h -1 v 1 h -1 l 1,-3 -1,-4 h 1 l 6,-7 v -1 h -1 l 1,-2 c -1,0 -2,-2 -3,-7 l -2,-3 1,-1 -3,-3 v -4 c -2,-2 -3,-3 -3,-5 l -2,1 v -1 l 1,-1 v -1 h 1 l -1,-2 1,-1 h -1 v 1 h -1 l -1,-4 h 1 l -4,-3 1,-3 -2,-1 1,-2 -2,-2 v 1 h -1 v -5 l -2,-5 -1,-1 v 1 -2 h -1 l -1,-1 v -1 l -1,-3 -1,1 v -2 h -2 v 2 h -1 v -1 l 2,-2 1,-3 -2,-1 v -2 l -1,-2 -2,2 -1,-1 1,-1 1,1 v -1 l -2,-3 v -1 c -1,0 -2,-1 -2,-3 l 1,1 1,-1 v -1 l -1,-1 h -2 v -1 l -2,-2 v -1 l 2,-1 v -3 l -1,-1 -1,1 h -1 l 1,-2 h -2 l 1,-1 c -2,0 -3,-1 -3,-2 l 3,1 v -3 l -1,-2 h -1 l -2,-2 v -1 l -3,-6 1,1 v -3 l 2,4 v 1 l 1,-2 -1,-1 2,-2 h -3 l -2,-4 v -1 h 2 l 1,1 2,-1 -2,-1 h 2 v -1 h -1 l 1,-1 h 2 v 1 l -1,1 h 3 c -1,-2 -2,-2 -3,-2 v -1 h 1 l 1,-1 1,1 v -1 h -2 v -1 h 1 l -1,-1 h 1 l -1,-1 v -1 l 1,2 h 1 l 2,-3 5,2 v -2 l 1,1 1,-1 v 1 h 1 v -1 h -1 l 3,-1 v 2 h 1 v 1 l 2,2 -1,1 h 3 v 1 h -2 l 1,1 3,-1 -1,1 3,1 -2,1 6,2 -1,1 1,1 h -2 l 4,2 h -1 l 1,1 v 1 h -1 l -1,-1 v 1 l 1,1 v 2 c 1,0 2,1 2,3 l -1,1 4,1 -2,1 1,1 h -2 l 1,4 v 1 l 1,1 1,1 h -1 l 1,1 -1,1 h -1 v -1 l -1,1 3,3 -2,1 1,1 h 2 l 1,1 h -1 l 1,1 h -1 v -1 h -1 v 2 l 3,3 -1,1 v 1 l 1,-1 1,2 -2,1 2,1 -1,2 c 2,0 3,1 3,2 h -1 l -1,1 1,1 -1,1 h 2 v 1 h -1 l 1,1 -1,1 2,2 -1,1 v 2 l 2,1 -1,1 1,1 1,1 h -2 l 1,1 h 1 l 1,1 -2,1 1,1 -1,1 v 1 l 1,3 h -1 l 2,1 -1,1 2,1 v 1 l -1,2 2,1 -1,1 v 1 l 2,1 1,2 h -2 l 1,1 -1,1 2,1 -1,1 1,3 c 0,2 1,3 2,3 v 1 h -1 l 2,2 -1,1 v 1 h 1 l -1,2 1,1 v -1 l 1,4 1,3 3,-1 1,1 1,-2 1,1 8,-3 1,-1 1,1 8,-4 v 1 l 4,-1 1,-2 2,1 1,-1 h 2 l 5,-2 -1,-2 -2,-2 h 1 v 1 h 1 v -2 h -1 l 1,-1 -2,-6 -1,-1 1,-2 h -1 v 1 -3 h -1 v -1 l 1,-1 -1,-1 1,-1 -1,-1 1,-1 -2,-1 v -11 l -1,1 -1,-1 v -2 h 1 l -1,-1 1,-1 -2,-1 1,-1 -1,-2 2,-1 -2,-2 v -2 l -2,-4 1,-1 -2,-5 v -2 l 1,-1 -1,-1 v -2 l -1,-4 -1,-1 v -4 l -1,-1 1,-1 -1,-1 v -4 l -1,-8 -1,-1 1,-5 h -2 l 1,-1 -1,-1 1,-1 2,2 -2,-4 v -2 l 1,1 1,-1 v -1 l -1,-1 -2,1 -1,-1 3,-1 v 1 l 1,-2 v -1 l 1,-2 -2,1 v -1 l 2,-2 2,-2 h 1 l 1,-3 1,1 h 4 l 1,1 h 1 v -3 z m -95,31 1,1 v -2 z m 1,-14 h 2 v 1 l -1,3 -1,-1 -1,-1 1,-1 h -1 l 1,-1 v 1 h 1 z m 0,-8 1,1 -2,1 v -1 z m 1,29 1,1 v 1 h -1 l -1,-1 z m -1,-13 1,1 h 1 l -1,-1 z m 2,-14 v 1 l -1,-1 z m 0,37 1,1 h -1 l -1,-1 z m 1,-42 h 1 l -2,2 v -1 z m -1,8 h 2 v 1 h -1 z m 0,12 1,1 h 1 l -1,-1 z m 1,11 v 1 z m 1,11 v 1 h -1 z m 0,1 1,1 -2,2 v -2 z m -1,-3 h 1 v 1 h -1 z m 1,-16 v 1 z m 1,-19 v 1 h -1 z m 0,29 v 1 l 1,-1 z m 0,-33 1,1 v 1 h -1 z m 1,41 1,1 -1,3 h -1 l 1,-2 -1,-1 z m -1,-42 h 2 v 1 h -1 z m 1,49 h 1 l -1,1 z m 0,-32 h 1 z m 0,-20 h 1 z m 1,54 v 1 l -1,1 v -1 z m 0,-47 h 1 v 1 h -1 z m 0,36 h 1 v -1 z m 0,-34 h 2 v 1 h -2 z m 1,44 1,1 h -2 z m -1,-4 v 1 h 1 v -1 z m 2,8 1,1 -1,1 v -1 l -1,1 h -1 z m -1,-39 v 1 h 1 v -1 z m 0,37 h 1 v 1 h -1 z m 0,-50 h 1 v 1 z m 1,9 h 2 l -1,-1 z m 3,-7 v 1 h -2 l -1,-1 z m -2,55 v 1 z m 0,-58 1,-1 v 1 z m 1,-3 v 1 z m 0,8 h 1 l -1,1 z m 0,48 h 1 v -1 z m 0,-52 h 1 l 1,1 h -1 z m 1,10 h 1 v -1 z m 1,-6 h 2 v 1 h -2 z m 0,56 h 1 v 1 h -1 z m 1,-49 h 2 z m 0,-14 h 1 z m 2,65 -1,2 v -1 z m -1,-55 v 1 h 1 v -1 z m 1,-6 h 1 v 1 h -1 z m 0,6 v 2 h 3 l 1,-1 h -1 v -1 h 1 -1 l -1,1 h -1 z m 1,-13 h 1 z m 0,9 1,1 z m 1,4 1,-1 z m 0,57 v 1 z m 0,-54 v 1 h 1 v -1 z m 1,62 1,1 -1,1 -1,-1 z m 1,5 h 1 z m 2,-73 1,1 h -1 z m 0,2 h 1 l -1,1 z m 1,0 h 1 l 2,2 -1,1 h -1 v -1 h 1 -2 z m 1,-6 h 1 v 1 z m 0,13 2,1 -1,-1 z m 0,68 1,1 v -1 z m 2,-70 h 4 v 2 z m 2,4 -1,2 h 1 l 1,-1 v -1 z m 5,-1 3,2 -1,1 -2,-2 -1,1 v -1 z m 0,2 v 1 l -1,1 v -1 z m -1,4 v 1 h 1 v -1 z m 3,11 h 1 z m 1,-4 h 1 v 1 h -1 z m 1,-2 1,1 -1,1 -1,-1 z m 1,10 h 1 l -1,1 -1,-1 z m 7,28 1,1 z m 2,16 h 1 v 1 h -1 z m 1,91 v 1 z m 1,-8 h 1 v 1 h -1 z m 2,8 h 1 l 1,1 h -1 z m 3,2 h 1 v 2 l -1,-1 -1,1 v -1 z m 0,-69 1,1 h -2 z m 2,72 h 1 -1 l 1,1 v 1 h -1 l -1,-2 z m 0,-72 h 1 z m 2,5 h 1 l -1,1 z m 3,69 h 1 z m 3,-1 h 1 v 1 z m 0,-34 h 1 l 1,1 v 1 h -1 l -1,-1 z m 1,11 h 1 z m 0,-13 h 2 l 1,5 h -2 l 1,-1 z m 2,11 v 1 h 1 v -1 z m 2,8 1,1 -1,1 -1,-1 z m 1,-4 1,1 h -1 z m 1,1 h 1 l -1,1 z m 8,-156 h 1 v 1 h -1 z m 0,-4 h 1 v 1 h -1 z m 2,19 v 1 z m 5,-17 v 1 z m 2,-1 v 1 l 2,1 v -1 l 1,1 2,-1 1,1 v -2 z m 2,4 v 1 z m 0,-11 3,2 h -2 z m 9,8 v 1 l 1,-1 z m 1,2 v 1 h 1 v -2 z m 2,-3 v 1 l 2,2 v -1 l -1,-2 z m 7,163 h 1 v 1 h -1 z m 1,-137 v 1 h 1 v -1 z m 1,59 v 2 h 1 v -2 z m 1,-10 1,1 z m 0,7 v 1 h 1 v -1 z m 1,-40 v 1 z m 0,39 v 1 z m 0,-59 v 1 l 1,-1 z m 0,51 h 1 l 1,-1 h -1 z m 1,-31 1,1 v -1 z m 1,-16 -1,1 h 2 v -1 z m 0,62 v 1 h -1 z m -1,-14 v 1 h 1 v -1 z m 1,-43 v 1 h -1 v 1 h 2 l -1,-1 h 2 v -1 z m -1,37 1,1 v -1 z m 1,-17 z m 0,-5 v 1 l 1,-1 z m 0,-18 v 1 h 1 v -1 z m 0,36 v 1 h 1 v -1 z m 1,-16 v 1 h 1 z m 0,-4 v 1 h 1 z m 0,2 v 1 l 2,-1 z m 0,-12 v 1 h 1 v -1 z m 58,-10 v 2 h 1 l 2,1 v -2 h 1 l 2,2 1,-1 h 1 l -1,2 h 2 l 1,-1 c -2,0 -3,-1 -3,-2 h 1 l 2,2 v -1 h 2 v 2 l 3,2 1,-1 v 1 l -2,1 1,3 h 1 v -2 l -1,-1 2,-1 3,6 v 2 h 2 l -1,-2 h 2 l -1,1 1,1 -1,1 h 2 v 1 h -1 v 1 h 2 l -1,1 2,2 1,-1 v 2 l 2,2 -1,1 5,5 -1,1 a 140,140 0 0 1 7,17 h 1 l -1,1 1,3 1,1 v 1 h -1 l 1,6 c 0,0 -1,0 0,0 l 2,3 -1,3 1,2 -1,1 1,6 h -1 l 1,3 -1,1 2,3 v 1 h -1 l 1,6 h -1 l 1,3 h -1 l 1,1 v 1 l -1,2 1,4 -1,1 1,1 -1,1 -3,12 v 3 l -1,2 v 1 l -2,7 h -1 l -1,2 -2,3 v 2 l -2,2 v 2 h 1 v 1 c -1,0 -2,0 -2,2 l -1,-1 v 2 l -3,3 1,2 -2,-2 v 1 c -5,4 -10,7 -14,8 l -3,1 v -1 l -3,1 -1,-1 -2,1 v -1 l -1,1 h -2 l -2,-1 h -5 l -4,-2 h -2 l -5,-4 -5,-4 -3,-3 c -1,-3 -3,-4 -4,-4 l 1,-1 -4,-6 c -3,-4 -6,-13 -9,-27 l -2,-8 h -1 l 1,-1 -1,-1 v -10 l -1,-6 1,-1 -1,-2 v -1 l -1,-1 1,-2 1,-2 -1,-1 1,-3 v -1 h -2 l 2,-3 h -1 l 1,-1 v -5 l 1,-2 -1,-2 2,-2 -1,-1 2,-2 h -2 l 1,-1 1,-1 h -1 1 v -1 l 3,-8 h -1 l 1,-1 1,1 v -2 l 1,-2 v -2 l 1,-1 v -2 h 1 l -1,-1 2,-1 1,-1 v -1 h 2 v -3 h 1 l -1,-2 h 3 v -1 l -1,-1 3,-1 -1,-1 h 1 l 1,1 v -1 l -1,-2 h 2 l 1,1 1,-3 -1,1 v -1 l 2,-1 h 3 v -1 h -1 v -1 l 2,-1 h 1 v 1 h 1 l 1,-2 v -1 h 2 v 2 l 1,-1 -1,-1 h 1 l 2,1 1,-1 -1,2 h 1 l 2,-2 h 4 v -2 l 1,1 z m -41,35 v 1 h -1 z m 46,-13 -1,2 h 1 -1 l -1,-1 h -2 l -3,-1 v 2 h -1 l -1,-2 c -1,-1 -1,0 -2,1 l -2,-1 1,1 h -5 v 1 l 1,1 -1,1 h 1 l -1,1 -2,-1 -6,5 -1,1 1,2 c -2,2 -3,3 -4,2 v 1 l -2,3 v 1 l -1,3 v 1 l -2,1 v 3 l -3,3 1,1 -2,2 1,1 -1,2 v 6 h -1 v 1 l -1,2 v 4 l 1,-1 v 1 h -1 v 1 l 1,1 -1,1 h 1 v 2 l -1,3 2,-1 v 2 l 1,2 v 2 l 1,3 v 8 l 1,1 h -1 c 1,2 1,5 3,7 v 1 l 1,1 -1,1 c 1,0 3,3 4,7 l 2,1 h -2 v 1 c 1,0 2,2 2,5 h 1 c 0,2 0,4 2,5 l 1,5 v 1 l 1,-1 c 2,4 5,7 8,8 0,0 0,-1 0,0 l 2,2 1,-1 v 1 l 3,1 2,1 1,-1 v 1 l 3,-1 v 1 l 1,-1 h 1 l 2,-2 1,1 v -2 c 2,0 3,0 5,-2 l 1,1 6,-9 v -2 l 2,-1 -1,-1 c 1,0 2,-1 2,-3 2,0 3,-3 3,-8 v -2 l 1,-1 v -1 l 1,-2 v -1 l 1,-2 -1,-4 1,-1 v -2 h 1 -1 l 1,-3 v -4 l 1,-2 h -1 l 1,-3 -1,-1 v -3 l -1,-1 1,-2 v -1 l -2,-8 -1,-1 -2,-2 1,-3 v -2 l 1,-3 -2,-7 h 1 l -1,-3 h -1 l -1,-1 2,-3 v -1 h -1 l -2,-4 1,-1 h -1 v -1 l -2,-3 v 1 l -1,-1 1,-1 -3,-4 -2,-2 v -1 h -4 l 1,-1 -2,-1 v 1 l -3,-1 h -1 z m -37,63 v 1 z m 9,-48 h 1 v 1 h -1 z m 2,-28 v 1 h 1 v -1 z m 3,-4 v 1 z m 7,131 h 1 v 1 h -1 z m 4,-135 -2,2 v -1 z m 2,0 h 1 v 1 h -1 z m 9,154 h 1 v 1 h -1 z m 5,-131 h 1 v -1 z m 1,-20 v 1 h 1 v -1 z m 1,-1 v 1 z m 2,25 h 1 v 1 h -1 z m 2,-25 v 1 h -1 z m 2,6 h 1 z m 4,5 v 1 z m 3,32 1,1 z m 2,20 h 1 z m 1,4 h 1 v 1 h -1 z m 0,31 h 1 v 1 z m 14,-94 1,1 -1,1 -1,-2 z m 0,6 1,1 h -1 z m 0,-4 h 1 l -1,1 z m 0,-9 h 2 l -1,1 z m 0,1 h 2 l -2,1 z m 1,4 h 1 v 1 l -2,-1 z m 121,-13 h 3 l -1,1 v 1 l 3,2 1,-2 h 1 l -3,3 3,3 -1,1 c 2,0 3,1 2,3 l 2,4 h 1 v 1 h -1 l 1,5 v 1 l -1,-1 2,3 h -1 v 3 h 1 v -1 h 1 v 2 l -1,2 1,3 -1,4 h 1 l -1,3 v 2 h 1 l -1,1 1,1 -2,1 c 1,0 2,2 2,7 l -1,-1 1,3 v 4 h -1 v 1 h 1 l -1,2 1,3 -1,2 1,6 -1,1 h 1 l -2,3 1,6 h -1 l 1,1 v 8 l -1,1 h 1 l -1,4 v 4 l 1,1 v 1 h -1 v 2 h -1 l 1,1 -1,3 1,4 h -1 v 6 h -1 l 1,2 -1,1 v 4 l -1,2 v 3 h -1 l 1,1 -1,3 1,1 -1,1 h 1 l -2,6 v 1 l -1,1 1,1 v 1 l -1,2 h 1 v 1 l -2,4 v 4 h -1 l -1,5 h 1 v 1 l -3,2 h -1 l 1,2 -1,1 -1,-1 v 3 l -2,3 h -1 l -1,-2 h -3 l -3,-4 h 1 l -1,-2 v 1 c -1,0 -2,0 -1,-1 l 1,-1 -2,-1 h 2 l -2,-2 1,-1 -1,-5 v -2 h 1 l 1,-1 -1,-1 v -3 l 1,-4 v -2 l 1,-3 v -8 l 1,-2 v -6 l 1,-1 -1,-2 2,-4 -2,-3 2,-1 h -1 l 2,-6 h -1 l 1,-1 -1,-1 1,-2 -1,-2 2,-4 h -1 l 1,-3 -1,-1 1,-1 -1,-3 v -1 l 1,-1 -2,-4 1,-2 h -1 l 2,-3 v -2 l -1,-1 v -1 c 1,-1 0,-4 -1,-10 h 1 v 1 l 1,-1 c -2,0 -2,-1 -2,-4 l -8,13 -6,10 a 187,187 0 0 1 -18,23 l -1,-1 h -1 l 1,1 -1,1 -1,-1 -3,1 v -1 l -2,2 -1,-2 h -4 l -3,-1 1,-1 v -1 c -2,0 -3,-1 -3,-4 l -6,-6 -3,-4 c -2,-1 -3,-2 -4,-5 l -3,-4 -7,-7 h -1 v -3 h -1 l -5,-5 -1,-2 -3,1 2,2 v 1 l -2,1 v 1 h 1 v 1 l -1,1 1,2 -1,3 h 1 v 1 l -1,3 2,5 h 1 l -2,3 1,5 1,2 h -1 l 2,1 -1,3 -1,2 c 2,1 3,1 2,2 h -1 l 2,5 -1,1 h 1 v 1 h -1 v 1 h 2 v 1 l -1,1 c 2,0 3,1 3,2 v 1 l -2,-2 1,4 h -1 l 1,3 1,-1 -1,-1 1,-2 h 1 l -1,3 v 2 l 1,-1 2,2 -1,1 -2,1 1,2 -1,1 c 2,0 4,1 5,3 v -1 c 1,0 2,1 2,4 h -1 l -1,-2 v 1 l 1,3 1,-1 2,1 v 1 h -1 l -1,-1 v 1 l 1,4 -2,2 v -1 l -1,1 2,1 v 1 h -1 l 1,1 -1,1 1,1 h -1 l -7,6 -1,-1 -1,1 c 1,-1 0,-2 -1,-2 v 1 h -1 l -2,-4 -1,1 c -1,-2 -2,-3 -4,-3 v -1 l 2,-1 c -2,-1 -2,-3 -2,-5 v -1 h 1 v -1 l -1,-5 h -1 1 l -3,-9 v -2 l -1,-1 1,-3 -2,-2 1,-1 c -2,-1 -3,-1 -2,-2 l 1,-2 -1,-1 1,-1 c -1,0 -2,-1 -2,-3 l -1,-4 h 1 l -4,-11 h 1 l -2,-4 h -1 l 2,-5 h -1 l -1,-3 1,-1 -3,-3 1,-1 v -3 l -1,-4 -1,1 v -8 l -2,-1 h 2 v -1 h -1 l 1,-2 -2,-2 -1,1 v -1 h 1 c 0,-3 -1,-4 -2,-5 l -1,1 1,-2 1,1 v -1 l 1,-1 v -1 h -1 v -1 l -2,-3 v -1 l 1,-1 -1,-3 h -1 v 1 h -1 v -2 h -1 v -1 h 3 v -3 l 1,1 v -1 l -1,-1 -1,1 v -1 l -3,2 1,-2 c 1,1 2,0 2,-1 v -3 l -2,1 v -1 l 1,-1 h -1 l 1,-1 h -1 v 1 h -1 v -1 l 1,-2 v -1 h 1 l 1,1 1,1 v -1 l -1,-1 v -1 h -1 l 2,-1 v -1 l -2,-1 v -1 c 0,0 0,-1 0,0 v -3 l -1,-1 1,-2 1,1 1,-1 -2,-6 1,1 3,-1 v -1 l -2,-6 h 1 l 2,2 h 1 l 1,-2 v -2 h 2 l -2,-1 -2,2 v -2 l 1,-1 -1,-1 h 2 l 5,4 v -1 l -1,-2 3,1 2,-2 3,3 h 1 l 1,-1 h -2 v -2 l 1,1 c 3,1 5,2 5,4 h -2 c 1,0 3,2 4,5 l 1,1 1,-1 v 1 h 3 v 1 l -1,1 h 1 l -2,1 -1,-2 v 2 l 3,3 h 1 v -1 h -1 l 1,-1 1,2 -2,1 -1,-1 -1,2 2,1 v 2 h -2 l 1,3 3,2 -2,2 v 3 h 3 l -1,1 -1,1 1,2 -1,1 3,5 -1,1 2,2 h -1 v 1 h 1 l 3,5 h 1 v 1 l -1,1 5,8 -1,4 c 2,0 2,1 2,3 l 3,4 7,10 4,5 c 2,0 3,2 3,4 v 1 l 1,-1 -1,-2 h 1 v 3 l 2,-1 h 1 l 3,3 h -1 v 1 l 2,1 v -1 h 1 l 1,2 11,-14 3,-4 7,-12 h -1 l 2,-3 1,-1 4,-6 -1,-3 3,-5 1,-3 v -4 h 1 v -1 h -1 l 3,-2 h -1 l 2,-5 3,-2 -2,-1 c 2,0 2,-1 3,-2 l -1,-1 v -4 l 2,-1 -1,-1 h 1 v -6 l 3,-6 h 2 v -2 z m -121,28 2,1 -1,1 h -1 z m 4,-26 v 2 h -2 z m 0,12 -1,1 v 3 l 1,1 z m -1,-6 h 1 v -1 z m 1,16 -1,1 h 1 z m 0,-16 v 1 h 1 v -1 z m 1,38 h 1 l -1,1 z m 0,-11 v 1 h 1 v -1 z m 1,7 -1,1 v 1 z m 0,-42 v 2 h 2 v -1 z m 0,56 1,1 h -1 z m 2,-62 v 1 z m 2,-8 2,1 h -1 l -1,1 z m 0,11 1,1 v 2 l 1,-1 v -1 l -1,-1 z m 1,-9 h 1 v 1 z m 0,3 1,1 h -1 z m 3,-7 h 1 v 1 l -2,1 z m 0,11 v 1 h 1 v -1 z m 2,-5 h 1 v 1 h -1 l 1,1 -2,-1 z m 0,-3 h 1 v 1 h -1 z m 0,9 1,2 h 2 v -1 l -2,-2 z m 2,-8 3,1 h 1 v 1 h -2 v 1 l -1,1 z m 2,-1 h 1 v 1 h -1 z m 3,10 v 1 z m 1,-10 1,1 h -1 z m 1,154 h 1 z m 2,-137 v 1 l 2,1 h 1 v -1 l -2,-1 z m 1,-8 h 1 l 2,4 v 1 l -2,1 v -1 l 1,-1 -2,-3 z m 1,158 h 1 l -1,1 z m 4,-63 v 1 h -2 z m -1,-97 h 1 z m 2,160 2,1 h -3 v -1 z m 1,-59 h 1 v 2 l -1,-1 z m 1,-85 h 1 v 1 z m 0,113 v 1 h 1 v -1 z m 2,32 v 1 l -1,-1 z m -1,-125 1,1 v 1 z m 3,94 1,2 h -1 v 1 l -1,-1 z m 0,3 h 1 v 1 z m 2,12 v 1 h 1 z m 3,-93 -1,1 h -1 z m 23,40 v 1 l 1,1 v -2 z m 56,-86 1,1 v 1 l -1,-1 z m 4,10 v 1 l 1,-1 z m 3,3 v 1 z"
           id="path1212" />
        <path
           d="m 1313,713 h 2 v 1 l -1,1 -2,-1 z m 0,-7 h 1 v 1 h -1 z m 25,-17 -1,3 h -1 l 1,1 1,-3 h 1 l -1,1 3,1 h 1 c 0,1 0,2 -2,2 l 1,1 1,-1 3,2 h -1 v 1 l 2,2 h 1 v 2 l 1,-1 1,1 -1,1 h 1 l 1,-1 v 2 l 1,1 1,-1 c 1,3 3,5 5,5 l 1,-1 3,2 v 2 l 1,-1 h 3 l -1,-1 h 1 l 3,3 2,-2 1,1 h -1 c 2,1 5,1 7,3 l 1,-1 h 1 v -1 h 1 v 3 h 1 l 1,-2 6,3 5,2 2,-2 h 1 l -1,2 h 6 l 3,1 1,-1 1,1 h 3 v 1 l 1,-1 1,1 1,-1 h 1 l 1,1 h 3 l 3,-1 1,1 h 1 l 1,-1 4,2 c 0,-1 1,-2 3,-2 h 2 v 1 l 3,1 v -2 c 1,1 2,1 2,3 l 1,-2 v 1 l 1,-1 1,1 h -1 v 2 h 2 l -1,1 v 1 h 3 l -1,1 1,1 -1,1 3,1 -1,1 1,1 -1,1 h 1 l -1,1 1,2 1,-1 1,1 -2,2 v 1 h 2 v 1 l -3,2 1,1 -2,1 2,1 -2,1 1,1 v 1 h -1 l -2,-2 c 0,1 0,2 -2,2 l 1,1 h -1 v 1 l -2,-2 v 2 h 1 v 1 l -3,-2 1,-1 h -3 l -1,2 h -1 l 1,-1 -1,-1 -2,1 v -1 c -1,0 -2,0 -2,-2 l -1,1 -1,-1 -1,1 -1,-1 h -1 v 1 l -1,-1 v 1 h -1 v -1 1 l -4,-2 -1,1 v -2 l -2,1 -1,-1 v 1 h 1 v 1 h -1 l -1,-2 -2,1 1,-1 -2,-1 v 2 h -1 l -1,-2 -2,1 1,-1 h -1 l -1,1 -1,-1 h 1 v -1 l -4,1 -1,-1 -1,1 -1,-1 -1,1 v -1 h -1 c 0,-1 -2,-2 -5,-2 l -1,1 -1,-1 -1,1 -3,-1 v 1 h -1 v -2 h -2 v 1 h -2 l 1,-1 v -1 h -2 l -2,1 -2,-2 h -3 l -1,3 -1,-1 2,-2 -2,-1 h -3 l -1,-1 -1,2 1,1 2,3 -1,1 1,3 h -1 l 1,1 1,-1 1,1 h -2 l 1,3 v 1 h 1 v 3 l 1,2 v 3 l 2,5 v 1 l -1,1 2,2 -1,1 2,3 -1,1 2,4 -1,1 2,4 h -1 l 3,4 1,-1 h 2 l 4,-2 2,1 14,-5 v 1 c 2,-2 3,-2 5,-2 l 5,-2 v 1 l 2,-1 c 0,1 1,2 3,2 h 2 l -1,1 3,7 -2,3 v 1 l -6,4 -1,-1 -5,1 -4,1 -4,1 h -1 l -1,1 -3,-1 -4,3 -1,-1 -4,2 h -1 l -4,1 1,1 v 5 h 1 l -1,1 1,2 -1,1 h 1 v 1 l -1,1 h 1 l -1,1 2,3 -1,1 1,2 -1,2 1,1 v 5 l 1,5 -1,2 h 2 v 1 l -1,1 1,1 -1,1 -1,3 h 1 v 3 l 1,1 -1,1 4,-2 3,1 1,-2 1,1 6,-3 h 5 v -2 l 1,1 h 1 v -1 l 1,1 1,-1 c 3,0 5,-1 8,-3 l 1,1 2,-1 v 1 l 1,-1 h 2 l 2,-1 h 3 l 1,-1 6,-1 1,1 3,-2 2,1 h 1 l 2,-1 3,1 h 1 c 3,0 4,1 4,2 l 1,-1 1,2 v -2 l 3,3 -1,2 1,3 -3,5 h -2 l -5,4 h -1 v -1 l -4,2 h -3 v 1 l -1,-1 -2,1 h -2 l -1,1 h -1 l -5,1 -5,2 v -1 l -1,2 -6,-1 -1,2 -3,-1 v 1 h -3 l -1,1 h -1 l -4,2 -1,1 -1,-1 v 1 h -3 l -1,2 -1,-1 -5,4 -1,-1 -3,3 -1,-1 -4,4 -3,3 -3,-1 -2,1 -2,-1 h -1 2 v 1 h -3 l -2,1 -3,-1 -1,1 -4,1 c 0,-2 -1,-2 -3,-2 h -2 l -7,-4 -2,-2 1,-1 -1,-1 v -1 h 1 l 3,-5 1,1 1,-1 -1,-1 1,-1 v -2 h 1 v 2 -1 h 1 v -3 l 1,2 2,-2 1,1 2,-2 v -1 h 2 v -1 h 1 v -2 l 1,1 v -2 l 1,-2 v -2 l -1,-2 1,-2 -1,-1 1,-1 -1,-1 1,-2 -1,-1 v -1 l -1,-2 h 1 l -1,-1 1,-3 -1,-2 1,-2 -2,-4 h -1 l 1,-2 v -3 l -1,1 v -2 l -1,-1 2,-1 -1,-1 v -1 l -1,-1 -2,1 -1,-1 c 0,1 0,2 -2,2 l -7,-5 v -2 l -2,-1 1,-1 -1,-1 1,-3 v -2 l 1,1 1,-1 v -1 l 1,-1 4,-2 h 2 l 2,-1 v -3 h -1 l -1,-1 1,-1 h -1 l 1,-1 -1,-3 -2,-2 1,-2 h -1 v -3 l -1,-3 -1,-1 1,-1 c 0,-2 -1,-3 -3,-5 h 1 l -3,-4 1,-1 -1,-1 v -1 l -2,-4 -1,1 v -1 l 2,-2 -1,-1 v 1 h -1 v -3 l -3,-5 1,-1 h -1 l 1,-1 h -2 v -2 h 1 l -1,-2 -1,1 -1,-1 1,-1 -2,-3 h 1 l -2,-2 v -1 h -2 v -1 l 3,-1 v -1 l -2,-1 h 1 l -1,-2 -1,1 h -1 l -1,-2 -1,1 -2,-2 1,2 h -1 l -1,-1 h -3 l -1,1 -1,-1 2,-2 -2,1 h -1 l 1,-1 -1,-1 v -3 h -3 v -2 h 1 v -1 h -1 l -1,-1 h 1 v -2 l -1,1 h -1 v -1 l 4,-3 1,1 -1,-3 -1,1 v -2 c 1,0 2,0 3,-2 l 1,1 -1,1 h 1 l 1,-3 v -1 h 1 v 2 h -1 v 1 l 2,-2 -1,-1 h 1 l -1,-2 2,-1 1,2 3,-2 -1,-1 2,1 c 0,-3 1,-4 4,-5 l -2,-2 v -1 l 1,1 1,-2 v 1 h 1 l -1,-1 h 1 z m -21,30 v 4 l -2,-2 z m -1,-10 v 1 z m 1,3 v 1 h 1 v -1 z m 0,3 1,1 1,-3 h -1 z m 1,-13 1,1 v 1 h -1 z m 2,0 1,1 v 1 h -1 z m 0,19 h 1 z m 4,1 v 1 z m 19,145 v 1 h 1 v -1 z m 1,-175 v -1 2 z m 2,70 v 1 z m 4,-62 1,-1 z m 0,-6 1,1 h -1 z m 1,3 z m 1,7 v 1 z m 3,106 h 1 v 1 z m 3,-102 v 1 h 1 v -1 z m 2,137 v 2 l -1,-1 z m 2,-111 v 1 l 1,-1 z m 4,2 h 1 v 1 h -1 z m 11,-25 h 1 z m 2,26 v 1 h 1 v -1 z m 6,132 h 1 v 1 h -1 z m 6,-129 h 1 v 1 h -1 z m 5,-23 v 1 z m 2,0 h 1 v 1 h -1 z m 3,26 v 1 z m 18,1 v 1 z m 0,37 h 1 l -1,1 z m 6,-34 h 1 v 1 z m 8,1 h 1 v 1 h -1 z m 12,-17 v 1 z m 0,10 h 1 v 1 h -1 z m 0,4 h 1 l 1,2 -2,-1 z"
           id="path1214" />
      </g>
      <g
         fill="#00004a"
         id="g1230">
        <path
           d="m 125,766 1,2 h 7 l 3,1 h 1 l -1,-1 h 1 l 1,2 1,-1 h 1 l -1,2 1,-1 h 2 v 1 l 1,1 1,-2 4,4 h 1 v -1 h -1 v -1 c 2,0 2,1 2,2 h 1 l 2,2 4,2 h 1 l -1,1 h 1 l 1,2 2,-1 v 1 l -1,2 3,4 1,2 h 1 l 1,1 -1,2 1,1 h 1 v 2 h 1 l -1,1 h 3 l -3,2 1,1 h -1 l 2,1 -1,1 1,1 h -1 l 1,3 h -1 1 v 1 l -1,1 2,-1 v 2 h -1 v -1 l -2,1 1,2 -1,1 1,2 h 2 l -2,1 v -1 l -1,1 1,1 h -1 l 1,2 h -1 l 1,1 v 1 l -2,-2 v 1 l 1,2 -1,1 -1,-1 -2,4 -2,2 h 1 l -1,1 -3,-2 -1,2 v 2 l -1,-1 h -1 l -1,-1 -1,-3 v -2 h -1 v -1 h 1 l -3,-3 1,-1 -1,-1 h 1 l -1,-1 v 1 l -1,-1 h 1 -1 v -1 h 1 v -1 l -1,-2 -3,1 v -1 h 1 c 0,-2 -1,-3 -2,-3 v -2 h 1 l -2,-1 -3,-3 v 1 -2 c -2,-1 -3,-2 -3,-4 l -1,1 h -1 v -1 l 1,-1 -4,-3 -1,1 -5,-2 h -1 v 1 h -1 l -2,-1 -1,1 -2,-1 c -3,0 -5,1 -7,3 v -1 h -1 v 1 l -2,1 -8,9 -2,4 v 1 l 1,1 -2,2 h 1 v 1 l -1,-1 v 3 l -2,6 1,1 -2,1 1,1 -1,1 1,1 -1,1 1,1 -1,1 1,1 -1,1 v 6 l -1,1 1,2 v 1 l -1,1 1,1 v 1 l 2,6 -2,1 h 1 v 2 l 1,3 -1,2 1,-1 v 1 l 1,3 v 2 l 2,5 v 3 h 1 l -1,1 1,2 -1,3 h 1 v 1 l 2,2 1,1 v 6 l 1,1 v 2 l 2,4 h 1 c 0,2 2,6 7,12 h -1 l 2,2 v 1 l 11,7 h 1 v 1 l 1,-1 4,1 2,-1 1,1 2,-1 h 3 v -1 l 1,1 2,-1 4,-3 5,-6 3,-7 -1,-1 3,-6 -1,-1 v -1 l 3,-3 h -1 l 1,-2 2,1 3,-1 4,3 -1,1 h 1 v -1 l 1,1 -1,1 v 1 l 1,1 h -1 l 1,2 1,-1 v 2 h -1 v 2 h 1 v 1 l -1,1 h 2 l -2,2 h 2 v 1 c -2,0 -3,1 -3,2 l 1,2 h -1 l 1,2 c -2,1 -2,2 -2,3 v 1 h -2 l 1,1 v 1 l -4,5 -4,5 v 1 l -6,4 -4,2 v -1 l -2,1 1,1 -3,-1 -1,1 h -2 v 1 h -2 l -1,1 -1,-1 h -1 l 1,1 h -2 l 1,-1 h -1 l -2,1 -2,-1 h -1 v 1 l -4,-2 v 1 l -1,-1 -1,1 -2,-2 h -1 l -2,-1 h -4 l 1,-1 -2,-1 h -1 l -5,-4 -4,-3 v -1 l -1,1 -4,-6 -7,-8 v -1 l 1,-1 c -1,1 -3,-1 -5,-4 l 1,-1 -4,-8 c -1,-4 -3,-5 -4,-5 v -1 h 1 l -2,-3 v -1 l -1,-1 v -2 1 h -1 l 1,-2 v -1 l -1,-2 v -2 h -1 v -3 l -1,-1 v -2 l -1,-1 1,-4 -2,-1 1,-1 v -4 l -2,-1 v -1 l 1,-1 -1,-5 v -5 l -1,-2 v -2 l 2,-1 h -2 v -3 l -1,-2 2,-6 -1,-1 1,-4 h -2 l 3,-2 -1,-1 v -1 l 1,-1 v -1 l 2,-1 v -1 l -2,-1 2,-2 h -1 l -1,1 v -1 l 1,-1 v -2 h 1 -1 1 l 1,-1 v -1 h 1 l -1,-4 1,-1 v 2 l 1,-1 h -1 l 1,-1 v -1 l -1,-2 1,-1 v 1 h 1 v -3 l 2,-2 3,-5 v -1 h 1 v -1 l 2,-4 h 2 l 1,-1 h -1 v 1 l -2,-1 v -1 l 3,-1 h 2 c -1,-1 1,-2 4,-3 l 1,-2 1,1 6,-5 1,1 h 1 l 4,-4 h 1 v 2 c 2,0 2,-1 2,-2 h 2 l 2,1 1,-2 1,1 1,-1 v 2 c 0,-2 1,-2 2,-3 z m -49,99 1,1 h -1 z m 5,-65 v 1 h 1 v -1 z m 21,75 1,1 h -1 z m 6,-106 h 1 v 1 h -1 z m 2,2 v 1 h 1 v -1 z m 1,-1 v 1 h 2 l -1,-1 z m 16,-4 1,1 h -1 z m 1,168 h 1 v 1 h -1 z m 6,-139 h 1 l -1,1 h -1 z m 13,18 h 1 v 1 h -1 z m 2,-39 v 1 l 1,-1 z m 1,46 v 1 z m 1,-49 v 1 l -1,-1 z m 2,53 1,1 v -1 z m 1,0 1,1 1,-1 z m 1,3 h 1 l -1,-1 z m 3,-45 v 1 h 1 v -1 z m 6,5 h 1 v 1 z m 1,36 v 1 z m 2,-33 v 1 z"
           id="path1218" />
        <path
           d="m 219,755 h 2 l 2,1 1,-1 h 2 l 1,2 h 1 l -1,2 3,2 v -1 l 1,1 v 2 l 2,3 1,-1 -1,2 2,2 v 1 h -1 l 1,1 h -1 v 1 h 1 v -1 2 l 1,-1 h 1 v 1 l -1,1 2,1 v 1 l -1,-1 -1,1 2,2 -1,2 1,1 h -1 l 1,1 -1,3 1,2 h -1 l 1,1 v 1 l 1,4 c 0,2 1,3 2,3 v 1 l -2,2 2,4 -1,1 1,1 v 1 l -1,1 c 1,0 2,0 2,2 l -1,1 h 1 l -1,2 h 2 v 3 l -1,1 1,2 v 3 l -1,2 1,2 1,-1 h 1 l -1,2 1,1 -1,3 1,1 -1,3 2,2 -1,2 h 1 v 1 l 2,7 -1,2 2,2 h -1 1 l -1,2 v 1 h 1 v 1 h -1 l 4,5 -1,1 c 1,2 2,2 3,2 l -2,2 1,1 1,-1 h 1 v 1 l -1,1 v 3 h -1 2 l -1,3 3,5 1,2 h -1 l 1,1 v 4 h 4 l 7,-2 v 1 l 1,-1 4,3 1,-1 4,7 v 3 l -1,2 v 2 h -1 v -1 c -2,3 -4,4 -6,4 l -3,1 v -1 1 l -1,-1 -5,3 v 2 l -1,1 v 1 l 2,2 -3,2 v 1 l 1,1 v 1 h -1 v 3 -1 l -1,1 h 1 v 2 l -1,-1 v 2 l -1,2 v 2 l -1,-1 -2,1 v 3 l -1,2 -1,-1 h 1 v -1 h -1 v 1 h -2 v -2 h -1 v 1 l -3,-2 -1,1 v -1 l 2,-1 1,-1 h -2 l -2,-1 1,-1 -3,-2 h -1 l -2,-5 h -1 v 1 l -1,-1 v -1 l 1,1 v -1 l -2,-5 -1,-2 v -2 h -4 l -6,1 h -6 l -2,1 h -3 l -1,1 -1,-1 -1,-1 -1,1 -1,-1 -2,2 v 5 l -1,-1 v 11 h -1 v -1 l -1,1 1,1 v 2 l -2,-1 h -1 l -5,7 c -3,0 -5,1 -5,2 l -1,-1 h -3 l -1,-1 -1,1 -1,-3 v -2 h -1 v -1 h 1 l -1,-2 -1,-4 v 1 h 1 l -2,-1 v -1 l 2,-3 v -2 l 1,-4 v 1 h -1 l -1,-2 h -1 l 1,1 v 1 h -1 l -2,-1 -1,1 -1,-1 -1,1 h -1 c -2,-1 -3,-3 -3,-5 l -3,-3 h -1 l 2,-4 -1,-1 v -2 h 1 l -1,-1 h 2 l 1,-1 4,-5 v 2 l 4,-1 h 1 l 3,-1 v 1 l 4,-1 v 1 h 1 l 1,-1 v -1 l 1,-3 h -1 l 2,-1 v -1 l -1,-1 v -1 l 2,-1 v -1 h -1 v -1 l 2,-4 v -1 l 3,-10 -1,-1 1,-1 v -1 c 0,0 -1,0 0,0 l 1,-3 -1,-1 2,-4 h -1 l 1,-2 v -1 l 1,-2 -1,-3 v -3 l 1,2 h 1 v -1 l -1,-1 h 1 l -2,-4 h 1 v 1 l 2,-3 -1,-1 1,-2 1,-1 c -1,0 -2,-1 -2,-3 h 1 v -1 l 1,-1 -1,-1 1,-1 -1,-2 c 1,0 2,-1 2,-5 v -1 l 1,-3 -1,-1 1,-2 v -4 l -2,-3 h 2 v -4 l -1,-2 1,-1 v -2 l 1,-1 h -1 l -1,2 v -2 l 1,-2 v -1 l 2,-3 -1,-5 1,-3 h -1 l -1,1 2,-2 -2,-3 v -1 h 2 v -2 1 h -1 v -4 l 2,-1 h -2 l 2,-5 -1,-1 2,-1 -1,-1 h 1 v -3 h 2 l 1,1 c 0,-1 2,-3 5,-4 z m -39,155 v 1 z m 3,15 h 1 l -1,1 z m 4,4 v 2 z m 2,6 -1,1 v -1 z m 3,-53 1,1 h -1 l -1,-1 z m 2,52 v 1 h -1 z m 4,-69 -1,1 h -1 z m 4,-20 v 1 h 1 v -1 z m 1,-22 h 1 l -1,1 -1,-1 z m 2,-7 h 1 z m 1,104 v 1 h 1 z m 1,-142 h 1 l -1,1 z m 16,60 -1,3 v 4 l -1,1 2,1 -2,1 v -1 l -1,1 1,3 h -2 1 l -1,6 1,1 -2,1 v 1 h 1 l -1,4 v 2 l -1,-1 1,1 v 1 h -1 v 4 h -1 l 1,3 -2,2 v 4 l -1,2 v 3 h -1 l 1,1 -1,1 1,2 h 4 l 5,-1 v 1 h 1 v -1 l 1,1 h 5 v -2 l 1,1 1,-3 h -1 l 1,-1 -2,-3 h 2 v -1 l -2,-2 h 1 l -1,-1 -2,1 v -1 l 1,-1 v -5 l -1,-3 v -4 l -2,-3 v -1 h 1 v -1 h -1 v 1 -3 h 1 v -2 l -2,-1 1,-1 -1,-4 -3,-8 h 2 l -1,-2 z m -7,-89 1,1 z m 3,6 v 1 h 1 z m 4,-2 h 1 z m 1,-4 h 1 v 1 h -1 z m 8,14 1,1 h -1 z m 3,11 v 1 l 1,-1 z m 3,149 h 1 v 1 h -1 z m 0,-139 h 1 v 1 z m 1,134 h 1 v 1 h -1 z m 4,-102 1,1 v 1 l -1,-1 z m 1,106 h 1 v 1 h -2 z m 0,-95 z m 0,4 v 1 z m 0,95 h 1 v 1 h -1 z m 0,-97 h 1 v 1 h -1 z m 1,5 h 1 z m 4,13 1,1 h -1 l -1,-1 z m 0,81 h 1 v 1 h -2 z m 2,-66 v 1 z m 0,64 1,2 1,-1 z m 4,-57 h 1 v 1 h -1 z m 2,12 h 1 z m 24,8 v 3 h -1 v -2 z"
           id="path1220" />
        <path
           d="m 260,777 h 1 l -1,1 z m 0,2 h 1 v 2 l -1,-1 z m 21,-24 1,1 v 1 h 3 l -1,2 h -1 l -1,-1 v 1 l 2,1 h 1 l 4,3 2,1 h 3 l -2,2 -1,1 h 2 l 2,2 v -1 l 4,1 v 1 h -1 l -1,-1 c 0,2 -1,2 -2,2 l -1,1 1,1 2,-1 1,3 v 1 l -3,-1 v 1 l 3,1 v 1 h -1 l -1,1 2,2 -1,1 2,4 v 1 l -1,-1 v 1 l 2,7 -1,2 -1,-1 v -1 h -1 v 1 l 2,2 v -1 l 1,1 -1,1 1,3 v 1 h -1 l 1,4 v 3 l 1,-1 1,2 -2,2 3,3 -2,3 2,-1 v 1 l -2,2 1,1 -1,2 c 2,1 2,2 2,3 l -1,1 1,3 1,-1 v 2 l -1,3 h 1 l -2,5 1,5 -1,1 1,6 h 1 l -1,1 2,4 -1,3 v 4 c -1,2 0,3 2,3 l -2,1 v 1 h 1 l -1,4 v 2 l 1,2 -1,1 1,6 h -2 v 1 h 1 v 2 h -1 v 1 h 1 l 2,4 v 1 c -1,-1 -2,-1 -1,-2 h -2 l 1,3 v 3 l -2,1 3,5 1,-1 v 1 l 4,-2 2,1 1,-1 1,1 8,-2 v 1 l 1,-1 1,1 5,-1 1,1 7,-1 c 0,-4 -1,-5 -2,-6 v 1 l -3,-2 v -1 h 2 v -3 h -2 l 1,-1 -1,-2 -1,1 -1,-2 1,1 v -2 l -2,1 1,-1 h 1 v -1 h -2 v -2 h -1 l 2,-5 h -1 v -1 h 1 v -1 l -1,-3 2,-1 v 2 h 1 v -1 l -1,-2 h 2 v -2 h 2 l 1,1 h 1 v -1 h -1 l 3,-2 1,1 -1,1 1,1 1,-2 1,1 c 1,-1 1,-2 2,-1 h 1 v 3 l 3,-1 2,3 2,-1 1,2 h -1 c 2,1 3,2 2,3 l 2,-1 2,2 h -1 l -1,-1 -1,1 1,1 -1,1 1,1 v -1 l 1,1 -3,2 1,1 -1,2 v 7 l 1,6 h -1 v 2 l 3,6 3,3 h 2 l 5,6 3,6 -2,3 h 1 l -6,5 -3,1 h -2 l -4,-4 h -3 l -6,-3 -1,1 -3,-2 -2,1 v -1 h -7 l -2,-1 h -3 v -1 l -3,1 v -1 l -8,3 -1,-1 -15,8 -4,4 v -1 l -3,1 v 2 l -9,5 -4,-3 -1,1 -1,-3 c -1,-1 -2,0 -2,2 l -1,-2 3,-1 v -1 l -2,-1 h -2 l -2,-3 1,-1 v -5 h 1 v -1 c 0,-2 1,-3 3,-4 l -1,-1 -2,2 v -1 l 1,-2 h 1 l 1,1 4,-3 v -2 l 2,-2 1,1 3,-3 v -9 h 1 l -1,-1 h 2 c -1,-2 -2,-4 -1,-5 h 1 l -1,-3 1,-1 v -2 h -1 l 1,-2 v -2 l 1,-1 -2,-2 1,-3 v -1 l -1,-5 1,-1 -2,-1 1,-1 c -1,0 -2,-1 -1,-2 v -1 c 0,-5 -1,-7 -2,-7 h -1 v -1 l 2,-4 1,-1 h -1 v 1 h -1 l -1,-3 1,-2 h -1 l -1,-2 -1,-1 1,-1 v -7 h -1 l -1,1 h -1 l 1,-4 h 1 v -1 c -2,0 -2,-2 -2,-6 l -1,1 v -2 l -2,-2 v -1 l -1,-4 h -1 l -1,2 -1,-1 1,-2 1,1 v -2 h 1 l 1,2 v -1 l -3,-4 -2,-3 1,-1 -4,-4 h 1 -2 l 1,-1 h 1 l -1,-2 1,-2 1,1 v 1 l 2,-1 c -1,0 -2,-1 -1,-2 l -2,1 -1,-1 -1,-4 -1,1 -2,-1 1,-2 -1,-2 h 1 v 1 h 1 l 1,-1 -1,-1 h -1 v -2 h 1 l -2,-2 2,-1 h -1 v 1 l 2,1 c 0,-2 -2,-3 -3,-3 v -2 l 1,1 1,-1 h -2 l -1,1 h -1 v -2 h 2 l -2,-4 v -1 h 1 v -1 h -1 v 1 l -1,-2 h 1 v -1 h -2 1 v -3 h 1 l 1,4 2,-2 v -1 l -1,1 c -1,-3 -2,-5 -4,-6 l 1,-1 v 1 l 2,-1 1,2 2,-1 -1,-1 1,-1 h -3 v -2 h -1 l 1,-2 h 2 c 0,2 0,3 2,4 h 2 v -1 l -2,-1 1,-1 1,1 h 1 l -1,-4 3,1 1,-3 1,1 v -1 l 1,1 h 3 l 1,1 v -1 l -2,-1 1,-1 1,1 h 1 z m -19,30 v 1 h -1 z m 2,6 v 1 h -1 z m 2,-37 h 1 v 1 z m 0,44 h 2 v 1 h -1 z m 0,-4 1,1 v -1 z m 2,-45 v 1 l -1,1 h -1 z m -2,7 h 1 l 2,2 -2,1 -1,-2 z m 2,44 h 1 v 1 l -2,1 v -1 z m 1,-8 -1,1 h 1 z m 0,-27 h 1 v -1 z m 0,-11 1,1 v 1 l -1,-1 z m 0,54 h 2 l -1,1 h -1 z m 1,-57 1,1 h -1 z m 1,53 v 2 h 1 v -1 z m 2,-51 v 2 h -1 l 1,1 -1,1 -1,-2 v -1 z m -1,51 h 1 v -1 z m 2,-45 -1,1 v 1 h 2 z m -1,-7 h 2 v 1 z m 1,58 -1,1 h 2 v -1 z m 0,122 1,1 v 1 z m 0,-179 3,1 v 1 l -2,-1 z m 3,-2 1,1 -1,1 -1,-1 z m -1,74 h 1 l 1,1 h -2 z m 0,-64 1,1 v -1 z m 2,68 1,1 h -1 z m 1,-81 1,1 v 1 z m 2,11 -1,1 h 2 z m 0,-6 v 1 h -1 z m 1,186 h 1 v 1 h -2 v -1 z m 4,-174 v 1 h 1 v -1 z m 1,-7 3,3 -1,1 -1,-1 1,-1 -2,1 z m 0,177 v 1 h 1 v -1 z m 1,-170 v 1 l 2,1 v -2 z m 11,15 h 1 v 1 l -1,1 z m 0,4 1,1 -1,1 z m 2,5 v 1 l -1,1 -1,-1 z m -1,13 1,1 v 1 h -1 z m 0,-6 1,1 v 1 h -1 z m 2,3 v 1 l -1,-1 z m 0,103 -1,1 h 1 l 1,-1 z m 4,-7 -2,5 h -1 v -1 l 1,-1 v -1 z m -3,-76 h 2 l -1,1 h -1 z m 3,73 1,1 h -1 z m 1,-63 1,1 h -1 z m 20,44 h 1 z m 3,5 v 1 z m 8,20 v 2 z m 0,-32 v 1 z m 0,-4 1,1 h -1 z"
           id="path1222" />
        <path
           d="m 354,772 h 1 l -1,1 z m 1,2 h 1 l -1,2 -1,-1 z m 20,-24 1,1 v 1 h 3 v 2 h -2 l -1,-1 v 1 l 2,1 h 1 l 4,3 2,1 h 3 l -2,2 -1,1 h 2 l 2,2 v -1 l 4,1 v 1 h -1 l -1,-1 c 0,2 -1,2 -2,2 v 2 l 2,-1 1,3 v 1 l -3,-1 v 1 l 3,1 v 2 l -1,-1 -1,1 2,2 -1,1 2,4 v 1 l -1,-1 v 2 l 2,6 -1,2 -1,-1 v -1 l -1,1 2,2 v -1 l 1,1 -1,1 1,3 v 1 h -1 l 1,4 v 3 l 1,-1 1,2 -2,2 3,3 -2,3 2,-1 v 1 l -2,2 2,1 -2,2 c 2,1 3,2 2,3 l -1,1 1,3 h 1 v -1 2 l -1,3 h 1 l -2,5 1,5 -1,1 2,6 -1,1 2,4 -1,3 v 4 c -1,2 0,3 2,3 l -2,1 v 1 h 1 l -1,4 v 2 l 1,2 -1,1 1,6 h -1 l -1,1 h 2 l -1,2 h -1 v 1 h 1 l 2,4 v 1 c -1,-1 -2,-1 -1,-2 h -1 l 1,3 -1,1 v 2 l -2,1 3,5 1,-1 v 1 l 4,-2 2,1 h 2 l 8,-2 v 1 l 1,-1 1,1 h 1 l 4,-1 1,1 7,-1 c 0,-4 -1,-5 -2,-6 v 1 l -3,-2 v -1 h 2 v -3 h -2 l 1,-1 -1,-2 -1,1 -1,-2 1,1 v -1 h -2 l 1,-1 h 1 v -1 h -2 v -1 l 1,-1 h -2 l 3,-5 h -2 v -1 h 1 v -1 l -1,-3 2,-1 v 2 h 1 v -1 l -1,-2 h 2 v -1 l 2,-1 1,1 h 1 v -1 h -1 l 3,-2 1,1 -1,1 1,1 1,-2 1,1 c 1,-1 1,-2 2,-1 h 1 v 3 l 3,-1 3,3 1,-1 1,2 h -1 c 2,1 3,2 2,3 l 2,-1 2,2 h -1 l -1,-1 -1,1 1,1 -1,1 1,1 1,-1 v 1 l -3,2 1,1 -1,2 v 7 l 1,6 -1,1 v 1 l 3,6 3,3 h 2 l 5,6 3,6 -2,3 h 1 l -6,6 v -1 l -3,1 h -2 l -4,-4 h -3 l -6,-3 -1,1 -3,-2 -2,1 v -1 h -7 l -2,-1 h -3 v -1 l -3,1 v -1 l -8,3 -1,-1 -15,8 -4,4 v -1 l -3,1 v 2 l -9,5 -4,-3 -1,1 -1,-3 c -1,0 -2,0 -2,2 l -1,-2 3,-1 v -1 l -2,-1 h -1 l -3,-3 1,-1 v -5 h 1 v -1 c 0,-2 1,-3 3,-4 l -1,-1 -2,2 1,-1 v -2 h 1 l 1,1 4,-3 v -2 l 2,-2 1,1 3,-3 v -9 h 1 l -1,-1 h 2 l -1,-5 h 1 l -1,-3 1,-1 v -2 h -1 l 1,-2 v -2 l 1,-1 -2,-2 1,-3 -1,-6 1,-1 -2,-1 1,-1 -1,-2 v -1 l -1,-7 h -2 v -1 l 3,-4 v -1 h -1 v 1 h -1 l -1,-3 1,-2 h -1 l -1,-2 -1,-1 1,-1 v -7 h -1 v 1 h -2 l 1,-4 h 1 v -1 c -1,0 -2,-2 -2,-6 l -1,1 v -2 l -2,-2 1,-1 -2,-4 -2,2 v -3 l 2,1 -1,-2 h 1 l 1,2 v -1 l -3,-4 -2,-3 1,-1 -3,-4 h -2 l 1,-1 h 1 c 1,-1 0,-1 -1,-2 l 1,-2 2,1 -1,1 2,-1 -1,-2 -1,1 h -2 v -5 h -1 l -1,1 -2,-1 1,-2 v -2 h 1 l -1,1 h 1 l 1,-1 -1,-1 h -1 v -2 h 1 l -2,-2 2,-1 -1,1 2,1 c 0,-2 -1,-3 -3,-3 v -2 l 1,1 1,-1 h -2 l -1,1 h -1 v -2 h 2 l -2,-4 v -1 h 1 l -1,-1 v 1 l -1,-2 h 1 v -1 h -1 v -2 l 1,-1 1,4 2,-2 v -1 l -1,1 c -1,-3 -2,-5 -4,-6 l 1,-1 v 1 l 2,-1 2,2 1,-1 -1,-1 1,-1 h -3 v -2 h -1 l 1,-2 h 2 c 0,2 0,4 2,4 h 2 v -1 l -2,-1 1,-1 2,1 -1,-4 3,1 1,-3 1,1 v -1 l 1,1 h 2 l 1,1 h 1 v -1 l -1,-1 v -1 l 1,1 h 1 z m -19,30 v 1 h -1 z m 2,6 v 1 h -1 z m 2,-37 h 1 v 1 z m 0,44 h 2 v 1 h -1 z m 0,-4 1,1 v -1 z m 2,-45 v 1 l -1,1 h -1 z m -2,7 h 1 l 2,2 -2,1 -1,-2 z m 2,44 1,1 -2,1 v -1 z m 1,-8 -1,1 h 1 z m 0,-27 h 1 v -1 z m 0,-11 1,1 v 1 h -1 z m 1,54 h 1 v 1 h -2 z m 0,-57 1,1 h -1 z m 1,54 v 1 h 1 v -1 z m 2,-52 v 2 h -1 l 1,1 -1,1 -1,-2 v -1 z m -1,51 h 1 v -1 z m 2,-45 -1,1 v 1 h 2 z m 0,-7 h 1 v 1 l -2,-1 z m 0,58 v 1 h 1 v -1 z m 0,122 1,1 v 1 z m 0,-179 3,1 v 1 h -2 z m 3,-2 1,1 -1,1 -1,-1 z m 0,74 1,1 h -2 z m -1,-64 1,1 v -1 z m 2,68 1,1 h -1 z m 1,-81 1,1 v 1 z m 2,11 -1,1 h 2 z m 0,-6 v 1 z m 1,186 h 1 v 1 l -2,1 v -2 z m 4,-174 v 1 h 1 v -1 z m 2,-7 2,3 v 1 h -1 l -1,-1 1,-1 -2,1 z m -1,177 v 1 h 1 v -1 z m 1,-169 2,1 v -2 z m 11,14 h 1 v 1 l -1,1 z m 0,5 h 2 l -2,1 z m 2,4 v 2 h -1 v -1 z m -1,13 1,1 v 1 h -1 z m 0,-5 h 2 l -1,1 h -1 z m 2,2 v 1 l -1,-1 z m 0,103 -1,1 h 2 v -1 z m 4,-7 -2,5 h -1 v -1 l 1,-1 v -1 z m -3,-76 h 2 l -1,1 h -1 z m 3,73 1,1 h -1 z m 1,-63 1,1 h -1 z m 20,44 h 1 z m 3,5 v 1 z m 8,20 v 2 z m 0,-32 v 1 z m 1,-4 1,1 h -2 z m 74,-100 3,2 h -1 l -3,-1 z m -1,-9 1,1 v 1 z m 2,3 -1,2 v -2 z m -1,9 v 1 z m 0,5 1,1 h -1 z m 21,-34 h 1 v 1 l 2,1 v 1 h -1 l 1,1 h 2 l 1,-2 5,3 -2,1 h -2 l 1,1 v -1 c 2,0 3,2 4,4 l 3,3 h 3 v 1 h 3 l 1,1 2,-1 2,2 3,-1 h 1 l -1,-2 3,3 1,-1 h 1 v 1 l 4,-3 v 1 h 1 v -1 l 1,1 1,-1 1,1 h 2 l 1,1 3,-2 h 1 l 1,1 h 1 l 1,1 1,-1 1,1 2,-2 2,2 h 2 v -1 h 2 v 1 l -1,1 c 4,0 6,2 6,3 h 1 l 1,-1 1,3 v -1 h 2 l 1,3 -1,3 v 6 l -3,5 1,1 c -2,0 -3,1 -5,3 l -2,1 -1,-1 1,1 v 1 h -1 l -1,-1 -3,2 -1,-1 -1,1 v -1 l -1,-1 h -1 v 1 h -7 l 1,-1 h -1 v 2 l -2,-1 -2,1 -1,-1 h -1 l -3,1 -1,-1 h -1 v 3 l -1,-1 v 1 h -1 l -2,-1 -1,1 -1,-1 c -2,2 -4,2 -5,2 v 1 l -1,-1 -4,2 -2,-1 -3,1 v 1 l 1,-1 v 1 l -2,1 h 2 v 1 l -1,3 v 2 h -1 v 2 h 1 l 1,-1 v 3 l -2,1 2,3 c 0,0 0,1 0,0 l 1,3 -3,2 v 1 h 2 l -2,2 v 1 h 2 l -1,1 v 2 h -1 v -1 1 l 1,1 h -1 l 1,3 -1,1 h 1 v 1 h -1 v 1 l 2,1 -1,1 v -1 l -1,2 1,1 -2,1 1,3 v 2 c -1,0 0,0 0,0 l -1,1 v 1 l 2,1 6,-1 h 3 l 17,-2 14,-2 1,1 h 3 l 4,-1 h 1 v 1 l 1,-1 1,1 h -1 c 2,1 3,3 4,6 v 3 l -3,6 v 1 l -1,-1 c -1,2 -2,2 -4,2 l -2,-1 -1,1 h -2 a 288,288 0 0 1 -14,0 h -2 l -1,1 -2,-1 h -5 l -1,1 h -1 v 1 l -1,-1 -2,1 h -2 l -9,3 2,1 v 1 h -2 l 2,2 -1,2 v 1 l -1,2 h 2 v 2 l -1,1 2,3 -1,1 h 2 v 1 l -1,1 h 1 v 1 h -1 v 1 l 1,2 -1,1 3,3 -1,4 1,1 1,-2 v -2 h 1 v 3 l 1,-1 v 1 l -2,2 v 1 h 2 l -3,1 1,1 h 1 l 2,-3 v 1 c 0,1 -1,3 -3,3 l 1,3 h 1 v -2 l 2,-1 h 1 v 1 h -2 l 2,2 h 1 v 1 h -1 l -1,1 h 1 v 3 h 1 l 1,-1 -1,-1 v -1 1 h 2 v 1 l -1,1 1,2 v 1 h -1 l 1,-2 -1,1 -1,-1 h -1 l 1,3 h -1 v 1 l 3,1 h -1 v 1 l 2,2 -1,2 1,-1 1,1 -1,2 v 1 l -2,6 c -1,2 -3,3 -6,4 l -1,2 -1,-1 h -1 v 1 h 1 l -1,1 -2,-1 2,-2 h -1 l -3,1 v -2 l -2,-2 v 2 h -1 v -3 l -3,-2 2,-2 c -1,0 -2,0 -1,-1 l -1,1 h -1 l 1,-3 -1,-2 2,-1 h -2 v -1 l 1,-1 -1,-2 v -4 l -2,-4 -1,1 v -8 l -2,1 v -1 l 2,-1 -1,-1 h -1 v -1 l 1,-1 -2,-5 1,-1 h -2 l 1,-1 -2,-1 2,-2 -2,-1 1,-1 -2,-2 1,-1 -1,-3 1,-1 -3,-4 h -1 c -2,0 -5,-3 -10,-10 h 1 v -2 c 0,-2 1,-3 2,-3 v -1 h -1 v -1 c 2,0 4,-1 5,-5 h -1 l 1,-1 -1,-1 1,-1 -2,-2 -1,-1 1,-3 -1,-2 1,-1 -1,-2 h -1 v 1 h -1 v -3 l 1,-4 -1,-2 1,-1 -2,-1 v -2 l 1,1 h 1 l -1,-1 h -1 l 2,-2 -3,-2 h -1 l 1,-1 c 1,-2 0,-4 -2,-5 l -1,1 v -1 h 2 v -1 l 1,-2 v -1 l -1,1 h -1 l 1,-2 v -4 h -1 v 2 l -2,-2 1,-1 v 1 l 1,-1 -2,-4 h -1 v 1 l -1,-2 h -1 v -1 h 3 v 1 -3 l 1,-1 v 1 h 1 v -3 l -1,1 -1,-1 v -1 l -1,-3 h -2 l 1,-2 v -1 h -1 v 1 h -1 l -1,-1 2,-1 v -2 l 1,-1 v -8 l -2,-1 v 1 l -1,-1 1,-1 v 1 l 3,-2 h -1 v -1 h 1 l -1,-6 1,1 v -2 h 1 l 1,1 c 0,-1 1,-2 3,-2 l -3,-1 1,-2 -3,-3 v -1 l 1,1 2,-1 1,3 1,-1 1,1 v -1 h -1 l 1,-2 1,1 v -2 l -1,1 -2,-1 1,-2 h -1 v -1 l 2,-1 h 1 l -1,1 h 1 l 1,-1 v 2 l -2,1 v 1 h 1 l 3,-1 v -2 l 1,1 1,-2 h 1 v 1 z m -17,44 h 1 l -4,3 z m -3,-3 2,1 v 1 h -2 z m 2,-6 v 1 h 1 v -2 z m 0,18 h 1 v 2 z m 1,-14 v 1 z m 0,-3 v 2 h 1 l -1,-1 z m 0,-19 1,1 1,-1 z m 1,-6 1,1 -2,1 v -2 z m -1,13 v 1 h 1 z m 0,-11 h 1 v 1 z m 1,53 h 1 v 1 h -1 z m 0,-63 h 1 v 1 h -1 z m 1,13 -1,1 h 1 z m 0,42 h 1 v 1 h -1 z m 0,-9 1,1 v -1 z m 0,13 h 1 z m 1,-64 1,1 v 1 l -1,-1 z m 0,11 v 1 h 1 v -1 z m 1,64 h 1 v 1 h -1 z m 1,-63 1,2 v -1 z m 0,-12 1,1 h -1 z m 0,67 h 1 z m 1,-63 -1,1 h 1 z m 2,-9 v 1 h -1 z m 0,92 v 1 h 2 z m 0,-1 v 1 h 1 v -1 z m 1,-89 h 1 l -1,1 z m 0,3 2,2 v 1 l -2,-1 1,-1 h -1 z m 0,8 1,1 -1,1 h 1 v -2 z m 2,-8 h 1 v 1 h -1 z m 2,5 -2,1 v 1 h 1 l 1,-1 v 1 z m 0,-12 1,1 -2,1 v -1 z m 0,5 1,1 -1,1 h -1 v -1 z m 1,-6 1,1 h -1 z m 1,13 -1,1 v 1 h 2 v -1 z m -1,-10 2,1 -1,1 h -1 z m 1,6 h 1 v 1 z m 0,-2 h 1 l 1,1 h -1 z m 1,-4 h 1 z m 1,13 h 1 z m 0,-17 h 1 v 1 z m 2,8 2,1 -1,1 -2,-1 z m -1,-1 h 1 z m 2,5 h 3 v 1 l -1,1 h -2 z m 1,-5 1,1 v 1 l -1,-1 z m 1,-4 h 1 l -1,1 z m 0,14 1,1 1,-1 z m 1,164 h 1 l -1,1 z m 1,-173 v 1 h -1 z m 0,3 h 1 v 1 z m 0,-6 h 1 v 1 h -1 z m 2,179 v 1 h -1 z m -1,-171 h 1 v 1 h -1 z m 2,173 1,1 v 1 l -1,-1 z m 2,4 v 1 l -1,-1 z m -1,3 h 1 v 1 h -1 z m 1,-177 2,1 v 1 l 1,2 -1,2 -2,-1 v -1 h 2 v -1 h -2 l 1,-1 v -1 z m 0,-13 1,1 -1,1 z m 0,22 1,1 v -1 z m 2,36 v 1 z m 0,2 v 2 h 1 v -2 z m 0,15 1,2 v -2 z m 1,-3 v 2 l 1,-2 z m 1,-63 1,1 z m 0,9 v 1 z m 1,60 v 2 l -1,-1 z m 1,-21 h 2 v 1 l -3,1 v -1 z m 2,-37 v 1 h -1 z m 0,68 v 1 l -1,-1 z m 0,-66 v 1 z m 0,124 h 2 v 1 h -1 z m 2,-8 v 1 h -1 z m 1,9 h 1 v 1 h -1 z m 1,46 v 1 h -1 z m 2,-31 v 1 h 1 v -1 z m 0,4 v 1 l 1,-1 z m 3,24 v 1 l -1,-1 z m 0,-14 v 1 h 1 v -1 z m 1,4 1,1 z m 0,-1 h 1 z m 2,-8 1,1 v 1 l -1,-1 z m 0,13 h 1 v 1 z m 0,-4 h 1 l -1,1 z m 34,-131 h 1 v 1 h -1 z m 3,61 1,1 h -1 z"
           id="path1224" />
        <path
           d="m 638,734 1,1 h 2 l 2,2 4,-1 3,3 2,-1 1,1 h 2 l 1,1 1,-1 2,1 h 3 l 5,3 h 2 l 1,1 h 4 v 1 h 3 l -1,1 h 1 l 3,1 h 2 l 1,2 h 1 l 3,2 h 2 l 1,3 1,-1 1,2 1,-1 3,3 h 1 c 5,5 7,9 8,12 v 1 c 2,1 3,2 3,4 l 5,13 1,2 v 1 l -1,1 c 1,0 2,1 2,3 l -1,1 1,1 h 1 v 1 h -1 c -1,6 0,9 1,9 l -2,3 v 3 h -1 v 4 h -1 l 1,2 h -1 l 1,1 c -4,7 -9,14 -17,20 l -7,5 c -3,-1 -5,0 -5,3 l -2,-1 -16,4 -1,2 17,12 h 2 c -1,2 1,3 4,4 l 4,4 h 1 l 3,3 v -2 4 l 4,1 3,4 5,4 1,-1 h 1 v 1 h -2 l 1,1 -1,1 2,1 2,-1 v 3 h 1 v -1 h 2 v 2 h -3 l -1,1 c 3,0 4,1 4,2 h -1 l -1,1 h 2 c 0,0 0,-1 0,0 l -1,2 4,-1 -1,1 v 2 l 3,2 v 1 l -2,2 2,2 -1,1 h -1 l -1,-1 v 1 l 3,3 -1,1 -2,-2 -2,1 v 2 h -3 v 2 c 1,0 2,1 2,3 -2,0 -3,-1 -2,-3 h -1 v 3 l -3,1 v -1 l 1,-1 v -1 l -5,2 -1,-1 -1,1 h -1 v -1 l 1,-1 -3,-2 -5,1 v -2 l -2,1 -1,-5 -3,1 v -2 l 3,-1 c -2,-3 -4,-6 -5,-11 l -4,-4 h -1 v -1 l 1,-1 -1,-1 -1,1 -1,-5 -1,1 -2,-6 -9,-10 -6,-5 -1,2 -1,-1 1,-1 -1,-2 -2,1 h -1 v -4 h -2 l 1,2 -1,1 h -1 l 1,-1 v -2 h -1 v 1 h -1 l -1,-1 -1,1 -2,-1 -1,-1 h -1 l -5,-5 -1,2 -2,-1 1,-1 h -2 l 1,2 -1,3 v 1 h -1 l 1,5 -1,2 1,1 -2,3 v 2 l 2,-1 -1,1 -1,2 2,1 -2,2 v 1 h 2 l -1,4 -1,2 1,2 -3,4 v 1 c -2,6 -4,9 -6,10 h -2 v -1 l -2,2 h -1 l -3,-3 c -2,-2 -2,-4 -2,-5 h 1 l -1,-1 v -1 h 1 v -3 l 1,-3 h -1 l 3,-5 -1,-1 2,-5 -1,-1 1,-2 1,-12 1,1 -1,-4 h 1 l -2,-3 h 1 v -1 l 1,-1 -5,-8 2,-3 c -1,0 -2,-1 -2,-3 h 1 l 1,1 1,-4 -1,-6 c 0,-12 -1,-19 -2,-22 l -1,-5 v -1 h 1 l -3,-8 v -1 l -1,2 -1,-2 2,-1 -1,-4 1,-1 c -2,0 -3,-1 -3,-2 l 1,-1 -3,-4 2,-1 -3,-1 v -2 l 2,-1 -3,-6 -1,-1 2,-1 v 2 h 1 v -1 l -1,-2 1,-1 c -2,0 -2,-1 -2,-2 v -1 l 1,-1 v -1 h -2 v -1 l 1,-1 -1,-1 c 1,-2 -2,-4 -6,-5 h -4 l -1,-1 h -1 l -2,-1 v -7 l 1,-2 1,-2 c 2,0 3,-1 3,-2 v -1 h 2 l 3,-2 v 2 h 1 c 2,-2 4,-3 6,-2 v -2 l 5,2 1,-1 2,1 h 12 l 4,1 z m -31,21 h 1 -1 l -1,2 h -1 l 1,-1 v -1 z m 4,-24 v 1 h -2 c 1,-1 1,-2 2,-1 z m -1,32 v 1 h 1 v -1 z m 0,11 h 2 l -1,1 z m 5,16 h 1 l -1,2 z m 6,-63 h 1 l -1,2 z m 13,28 -2,1 1,2 -1,2 h 3 l -2,2 c 0,1 0,2 2,2 l -2,3 2,11 -1,1 1,1 h -1 l -1,1 h 2 v 1 l -1,1 c 1,0 2,2 1,6 h -1 c 2,1 3,2 2,3 v 3 l -1,2 c 0,6 1,9 2,10 l -2,2 1,1 v 1 h -1 v 1 h 1 l -1,1 v 1 l 2,17 3,2 v -1 c 1,0 2,0 1,2 l 7,-2 v 1 l 10,-1 3,-2 2,1 20,-6 7,-5 h 1 l 5,-11 -1,-1 1,-1 v -7 h 1 c -1,0 -2,-3 -2,-9 l -4,-6 -2,1 v -3 c -3,-1 -8,-5 -13,-11 l -5,-5 -1,1 h -1 c 0,-2 -5,-5 -16,-9 h -3 l -3,-2 -2,1 -2,-2 z m 0,128 1,1 v -2 z m 2,-86 h 1 v 1 z m 54,115 2,1 c 0,1 -1,2 -2,1 z m 5,2 h 2 v -1 z m 3,-155 -1,1 h 2 v -1 z m 2,157 v 2 l -1,-1 -1,-1 z m 10,-30 h 1 v 2 l -1,-1 z m 2,2 h 1 v 1 z m 4,14 v 1 h 1 v -1 z m 53,-158 h 1 l -1,3 1,-1 2,1 1,-1 -1,-1 h 1 l 2,2 h 2 v 1 h 1 l 1,-1 -3,-1 1,-1 2,2 v -1 h 1 v 1 l 1,-1 v 3 l 3,1 h 1 v 1 h -2 v 1 l 1,2 h 1 v -2 l -1,-1 h 2 l 4,6 -1,2 2,-1 v -2 h 1 v 3 l 1,1 v 1 l -1,-1 v 1 h 2 v 1 l 1,2 h 1 l 1,1 h -1 l 2,2 v 1 l 4,6 v 1 l 1,3 5,14 h 1 l -1,1 1,3 2,1 -2,1 1,5 v 1 l 2,2 -1,3 1,3 -1,1 1,5 c 0,0 0,1 0,0 v 4 l 1,4 -1,1 1,5 v 5 l -1,2 1,4 -1,1 v 1 l 1,1 h -1 l -3,12 1,2 -1,1 1,1 -2,1 1,1 -3,8 -1,-1 v 3 l -3,3 1,2 c -1,0 -2,0 -3,2 v 2 l 1,-1 v 1 l -2,2 v -1 l -1,1 v 2 l -3,3 1,1 -1,-1 h -1 c -5,4 -9,7 -14,8 l -3,1 h -9 l -2,-1 h -5 l -4,-2 h -2 l -5,-3 -4,-5 -1,1 -3,-4 -3,-4 v -1 l -4,-6 c -3,-4 -6,-12 -9,-26 v -1 l -2,-8 v 1 -2 h -1 v -3 h 1 l -1,-7 h 1 l -2,-6 1,-1 -1,-3 h 1 l -1,-1 1,-3 v -2 l -1,-1 1,-3 h -2 l 1,-1 1,-3 h -1 l 1,-1 1,-5 v -3 l 1,-3 -1,-1 2,-1 v -1 h -1 v -1 l 1,1 v -1 h -1 l 1,-1 c 0,0 0,-1 0,0 l 3,-8 -1,-1 h 1 l 1,1 v -3 l 1,-1 v -3 l 2,-1 -1,-1 h 1 l -1,-1 2,-2 v 1 l 1,-1 v -1 l 2,-1 v -2 l 1,-1 -1,-2 h 1 l 1,1 1,-1 v -1 h -1 v -1 h 3 l -1,-1 1,-1 1,1 -1,-2 1,-1 h 1 l 1,1 1,-2 h -1 v -1 l 2,-1 1,1 h 2 v -1 h -1 v -1 l 3,-2 h 1 l -1,1 v 1 h 1 c 0,-1 0,-2 2,-3 h 1 v 1 l 1,1 v -3 l 2,1 h 1 l -1,2 h 1 c 0,-1 1,-2 3,-2 l 4,-1 -1,-1 h 1 v 1 z m -41,36 v 1 z m 46,-13 v 2 h -1 l -1,-2 h -2 l -3,-1 v 2 c -2,0 -2,-1 -2,-2 l -2,2 -1,-2 h -1 v 1 h 1 l -1,1 -1,-1 -2,1 v 1 l -1,1 v 1 h 1 v 1 l -3,-1 c -1,0 -3,1 -6,5 v 3 l -4,2 v 1 c -1,2 -1,3 -2,2 l 1,1 c -2,1 -2,2 -2,4 l 1,1 -3,1 v 3 l -2,2 v 1 l -1,3 v 1 l -1,2 v 6 h -1 v 3 l -1,3 h 2 l -1,1 -1,-1 v 1 l 1,1 -1,2 h 1 v 1 l -1,3 2,-1 v 2 l 1,3 v 1 c 1,0 2,1 1,3 v 4 l 1,2 h -1 v 2 l 1,1 2,8 1,2 -1,1 c 2,0 3,2 4,6 l 2,1 -1,1 1,6 1,-1 2,6 1,4 v 1 h 1 c 2,3 5,6 8,7 l 2,2 h 1 v 1 h 3 l 2,1 1,-1 v 1 h 3 l 1,-1 1,1 2,-3 1,1 h 1 l -1,-1 6,-3 v 1 l 6,-9 v -2 h 2 l -1,-2 c 1,0 2,-1 2,-3 2,0 3,-2 3,-8 h 1 l -1,-1 1,-1 v -1 l 2,-3 -1,-1 1,-2 v -6 l 1,-1 h -1 l 1,-2 v -4 l 1,-2 -1,-1 1,-2 -1,-1 1,-1 -1,-2 v -4 l -2,-8 -1,-1 v -1 l -2,-1 2,-4 -1,-1 v -1 l 1,-3 -2,-7 h 1 l -1,-3 h -2 l 2,-4 v -1 h -1 c 0,-1 0,-2 -2,-3 l 1,-1 h -1 v -2 l -2,-3 v 1 l 1,1 h -1 l -1,-2 1,-1 -3,-4 -1,-2 -1,-1 h -3 v 1 h -1 l 1,-1 -1,-1 h -1 l -3,-1 -1,1 z m -37,62 v 1 l 1,-1 z m 9,-47 h 1 v 1 z m 3,-29 v 1 z m 2,-3 v 1 z m 8,130 v 1 h -1 z m 3,-135 -1,2 h -1 v -1 z m 3,0 v 1 z m 9,154 v 1 h -1 z m 4,-131 h 1 v -1 z m 1,-20 v 1 h 1 z m 1,-1 v 1 z m 3,25 v 1 h -1 z m 1,-24 v 1 l -1,-1 z m 2,5 1,1 v -1 z m 4,6 v 1 z m 3,32 1,1 v -1 z m 2,19 v 1 h 1 v -1 z m 1,5 h 1 z m 0,30 h 1 v 1 h -1 z m 14,-93 1,1 h -1 l -1,-1 z m 0,5 1,1 v 1 h -1 z m 0,-3 h 1 v 1 h -1 z m 0,-10 h 2 v 1 h -2 z m 1,2 h 1 l -2,1 z m 0,3 1,1 h -1 z m 121,-13 h 1 l 1,1 1,-1 -1,2 3,2 2,-1 -2,3 c 1,0 2,1 2,3 h -1 c 2,0 3,1 3,3 h -1 l 2,4 h 1 v 1 h -1 c 0,2 0,4 2,5 v 1 h -1 l 1,2 -1,1 1,2 v -1 h 1 v 8 l -1,3 1,1 v 2 l -1,2 h 2 l -1,1 h -1 l 1,2 h -1 l 1,7 h -1 c 0,2 1,3 2,3 l -1,2 v 2 h -1 1 l -1,2 1,4 -1,1 1,6 -1,1 1,1 -1,3 v 15 h -1 l 1,1 -1,3 v 2 l 1,1 -1,2 1,1 h -1 v 10 l -1,1 v 7 l -1,1 1,2 -1,1 v 6 l -1,1 v 1 l -1,2 1,2 h -1 1 l -2,6 1,1 -2,2 1,1 -1,3 1,-1 1,1 -2,4 h -1 l 1,3 h -1 l 1,1 -1,1 -1,-1 -1,6 1,-1 v 1 l -3,2 -1,1 2,2 h -1 l -1,-1 -1,2 v 2 l -2,3 -1,-1 -1,-2 -1,1 -2,-1 -3,-3 1,-1 -1,-1 v 1 l -1,-1 1,-1 -2,-1 1,-1 h 1 l -2,-2 1,-1 -1,-4 1,-2 h 1 v -2 l -1,-1 1,-2 -1,-1 2,-3 -1,-2 1,-4 v -2 l 1,-2 v -11 l 1,-1 c 0,0 0,-1 0,0 l -1,-3 2,-3 -1,-3 1,-1 -1,-1 2,-6 v -1 h -1 l 1,-2 v -2 l 1,-4 -1,-1 1,-3 h -1 l 1,-2 -1,-2 1,-1 v -2 l -1,-4 v -1 l -1,-1 2,-3 v -1 l -1,-2 1,-1 -2,-9 h 1 l 1,1 v -2 c -2,0 -2,-1 -2,-3 l -8,12 -6,10 a 187,187 0 0 1 -18,23 h -1 v 1 l -1,1 -1,-2 -3,1 -2,1 -1,-2 h -4 l -3,-1 1,-1 c -2,-1 -3,-2 -3,-4 -1,-3 -4,-5 -6,-6 l -3,-4 1,-1 c -2,0 -4,-2 -5,-5 l -3,-4 -7,-7 -1,1 v -4 l -1,1 -5,-5 -1,-3 -2,1 v 1 l 2,1 -1,1 v 1 l -2,1 1,1 -1,1 1,3 -1,3 1,-1 v 1 l -1,3 2,5 h 1 l -1,3 v 5 l 1,2 v 1 l -1,-1 v 1 l 2,1 -1,2 v 3 l 2,2 -1,-1 c -1,2 0,3 2,5 l -2,1 h 1 v 1 h -1 v 2 l 1,-1 1,1 v 1 l 2,2 v 1 l -2,-2 1,5 -1,-1 v 1 l 1,2 1,-1 v -3 h 1 l -1,4 v 1 h 1 l 2,2 -3,1 1,2 v 1 l 4,4 1,-2 1,4 -1,1 -1,-2 1,3 h 3 v 1 h -2 v 1 l 1,4 -2,1 1,2 -1,1 1,1 h -1 l 1,1 v 1 l -7,5 h -2 l -2,-2 v 1 l -3,-3 h -1 l -4,-2 v -1 l 2,-1 -2,-5 v -2 h 1 v -1 l -1,-4 -1,-1 h 1 l -3,-9 v -1 l -1,-1 1,-4 -2,-1 1,-1 v -1 c -2,0 -2,-1 -2,-2 l 1,-1 -1,-1 1,-1 c -1,0 -2,-1 -2,-4 l -1,-3 1,-1 -4,-11 h 1 l -2,-4 h -1 l 2,-4 v -1 l -1,1 -1,-4 1,-1 -2,-2 h -1 l 1,-2 v -3 h 1 l -2,-3 h -1 v -7 l -2,-2 h 2 l -1,-1 1,-1 -2,-2 h -1 v -1 h 1 l -1,-4 -2,1 1,-2 h 1 v -1 l 1,-1 h -1 v -1 l 1,-1 -3,-2 v -2 h 1 l -1,-3 v -1 h -1 v 1 h -1 v -2 l -1,1 v -1 l 3,-1 v -2 h 1 v -1 h -2 l -2,2 v -2 l 3,-2 -1,-3 -2,1 1,-1 -1,-1 2,-1 h -2 v 1 h -1 v -1 l 1,-1 v -2 h 1 l 1,2 h 1 v -1 h -1 v -1 l 1,-1 h -2 l 2,-1 c -2,0 -2,-1 -2,-2 v -4 h -1 l 1,-2 h 2 l -2,-6 h 1 l 3,-1 -1,-6 2,2 h 2 v -4 h 2 v -1 h -2 l -2,1 v -1 l 1,-1 h -1 l 1,-1 h -1 l 1,-1 h 1 c 1,2 3,4 5,4 l -1,-3 3,1 2,-2 3,3 1,1 1,-1 v -1 h -2 v -1 h 1 c 3,1 5,2 5,4 h -2 c 1,1 3,2 4,5 l 1,1 h 2 l 2,1 -1,1 1,1 h -2 l -1,-2 v 2 l 3,3 h 1 l -1,-1 1,-1 1,2 -2,1 -1,-1 -1,2 2,2 v 2 l -1,-1 h -1 v 1 l 1,2 v 1 l 3,1 -2,2 1,3 h 2 v 1 l -2,1 1,2 v 2 l 2,5 1,2 h -1 v 1 h 1 l 3,6 h 1 v 1 h -1 l 5,9 v 3 l 1,3 4,4 6,11 4,4 c 2,1 3,2 3,4 l 1,1 v -1 l -1,-2 1,1 1,2 1,-1 h 1 l 3,3 -1,1 2,2 v -1 h 1 l 1,1 12,-14 2,-3 7,-12 -1,-1 3,-2 v -2 l 4,-6 -1,-2 3,-6 1,-2 v -5 l 1,1 v -1 h -1 c 1,-2 2,-2 3,-2 v -1 h -1 l 2,-5 3,-1 -2,-1 v -1 l 3,-1 -1,-2 v -2 l 1,-1 -1,-1 h 2 l -1,-1 1,-1 v -6 l 3,-5 h 3 l -1,-3 z m -120,28 2,2 h -3 z m 3,-26 v 2 l -1,1 -1,-1 z m 0,12 -1,1 1,2 -1,2 h 1 z m 0,-6 1,-1 z m 0,16 v 1 z m 1,-15 -1,1 h 1 z m 0,38 h 1 l -1,1 z m 0,-11 h 1 z m 1,6 -1,1 v 1 h 1 z m 0,-42 v 2 l 2,1 v -1 z m 0,56 1,1 h -1 z m 2,-62 v 1 h 1 z m 2,-7 h 2 l -2,1 z m 0,10 1,1 v 2 l 1,-1 -1,-2 z m 1,-9 1,1 v 1 z m 0,3 1,1 h -1 z m 4,-6 -2,2 v -1 z m -1,11 v 1 h 1 v -1 z m 2,-6 h 2 v 1 h -2 l 1,1 v 1 l -2,-1 z m 0,-3 1,1 h -1 z m 0,10 1,1 h 2 c -1,0 -2,-1 -1,-3 z m 2,-8 3,1 h 1 v 1 l -1,-1 h -1 v 2 h -1 z m 3,-2 v 1 l -1,1 z m 2,11 v 1 l 1,-1 z m 1,-11 1,2 -1,-1 z m 2,154 h -1 2 z m 2,-136 1,1 h 1 z m 0,-8 h 1 l 2,4 -2,2 v -1 l 1,-1 z m 1,157 h 1 l -1,1 z m 4,-63 v 1 l -1,1 v -1 z m -1,-97 h 1 v 1 z m 2,160 2,1 v 1 h -3 v -1 z m 1,-58 h 1 v 1 h -1 z m 1,-86 h 1 v 1 z m 0,114 h 1 z m 2,31 v 1 h -1 z m -1,-125 1,2 -1,-1 z m 3,95 h 1 v 1 h -1 v 1 l -1,-1 z m 0,2 h 1 v 1 h -1 z m 2,13 1,1 v -1 z m 3,-94 v 1 h -1 z m 24,40 -1,1 1,1 z m 55,-85 h 1 v 1 h -1 z m 4,9 v 1 h 1 v -1 z m 3,3 h 1 l -1,1 z m 37,-38 h 1 v 1 h -1 z m 0,18 h 2 l -1,4 h -1 z m 0,-11 v 1 z m 97,-23 2,2 -1,3 h 1 l 2,1 v -1 l -1,-2 1,-1 4,3 v -1 l 5,5 c 2,0 2,1 2,2 h -1 l 6,11 v 3 h 1 l 1,1 v 1 l 1,1 -1,1 1,4 v 2 l 1,3 -1,1 v 1 l 1,-1 1,1 h -1 l 1,1 v 1 h -2 2 v 1 l -1,1 h -1 c 0,2 1,3 2,3 v 1 l -1,1 -1,-1 2,5 c -2,0 -2,1 -2,2 v 1 l 1,1 v 1 l -3,-1 -1,3 2,-1 1,-1 v 3 l 1,-1 v 1 h -1 l -2,-1 -1,1 1,2 1,-1 v 1 l -2,1 1,2 h 1 v -3 l 1,1 -1,2 1,1 h -2 v 1 l 2,1 v 1 l -1,2 v 1 l 1,1 -2,1 h 1 v 4 l -1,1 1,1 h -1 v 1 l 1,1 h -2 l 1,1 -1,1 2,2 -1,1 -1,-1 -1,3 1,1 -1,1 h -1 v 1 l 2,2 h -1 l -1,3 h 1 l -1,1 -1,-1 1,1 1,1 h -1 l 1,3 h -1 l 1,1 -1,1 1,1 -1,1 1,1 v 3 h 1 l -2,1 2,2 2,-1 v 1 -1 l 6,1 h 1 l 3,2 v 2 l 1,3 c -1,2 -3,5 -7,7 l -4,2 v 3 l 1,1 -1,3 2,5 4,14 3,5 v 1 l 4,6 v 2 l 1,1 -5,11 h -1 l -3,-1 -1,1 -5,-3 -2,-4 c -1,-4 -2,-6 -3,-5 v -2 l -1,-1 v -2 l -2,-7 v -1 h -1 v -3 l -1,-4 -2,-8 -2,-4 -1,-4 c -3,0 -4,1 -4,2 l -2,-1 h -1 l -2,1 h -1 l -1,1 -1,-1 -3,2 h -1 l -4,3 v -1 l -1,1 h -3 l -3,3 -1,-1 c 0,2 -2,3 -4,4 l -1,-1 -2,2 h -2 c 1,1 0,1 -1,1 v 1 c 1,0 2,1 2,3 l 1,-1 1,1 -1,1 2,1 -1,1 h -1 v 1 h 1 v 1 h 1 l 2,-1 v 1 l 1,1 v 1 l -1,1 h -1 l 1,-1 -2,1 v 1 l 2,1 h -2 l 3,2 -2,3 -1,-1 v 1 l 1,1 -1,1 1,2 v -2 h 1 v 2 l -1,1 v 1 h 1 v 1 l -2,3 v 2 l -1,-1 c 0,2 -2,4 -5,4 l -2,1 h -2 l -1,-1 1,-1 -5,-3 1,-1 v -1 h -2 c 0,-2 -1,-3 -2,-3 v -1 l 1,-3 -1,-1 1,-1 -1,-1 h -1 2 v -1 l -1,-1 1,-1 v 1 -1 l -1,-3 h 1 l -1,-3 v -1 l -2,-1 1,-1 -2,-3 -1,1 -2,-2 v 1 l -5,-3 h -1 v 1 h -1 l 1,-3 -1,-4 h 1 l 6,-7 v -1 h -1 l 1,-2 c -1,0 -2,-2 -3,-7 l -2,-3 1,-1 -3,-3 v -4 c -2,-2 -3,-3 -3,-5 l -2,1 v -1 l 1,-1 v -1 h 1 l -1,-2 1,-1 h -1 v 1 h -1 l -1,-4 h 1 l -4,-3 1,-3 -2,-1 1,-2 -2,-2 v 1 h -1 v -5 l -2,-5 -1,-1 v 1 -2 h -1 l -1,-1 v -1 l -1,-3 -1,1 v -2 h -2 v 2 h -1 v -1 l 2,-2 1,-3 -2,-1 v -2 l -1,-2 -2,2 -1,-1 1,-1 1,1 v -1 l -2,-3 v -1 c -1,0 -2,-1 -2,-3 l 1,1 1,-1 v -1 l -1,-1 h -2 v -1 l -2,-2 v -1 l 2,-1 v -3 l -1,-1 -1,1 h -1 l 1,-2 h -2 l 1,-1 c -2,0 -3,-1 -3,-2 l 3,1 v -3 l -1,-2 h -1 l -2,-2 v -1 l -3,-6 1,1 v -3 l 2,4 v 1 l 1,-2 -1,-1 2,-2 h -3 l -2,-4 v -1 h 2 l 1,1 2,-1 -2,-1 h 2 v -1 h -1 l 1,-1 h 2 v 1 l -1,1 h 3 c -1,-2 -2,-2 -3,-2 v -1 h 1 l 1,-1 1,1 v -1 h -2 v -1 h 1 l -1,-1 h 1 l -1,-1 v -1 l 1,2 h 1 l 2,-3 5,2 v -2 l 1,1 1,-1 v 1 h 1 v -1 h -1 l 3,-1 v 2 h 1 v 1 l 2,2 -1,1 h 3 v 1 h -2 l 1,1 3,-1 -1,1 3,1 -2,1 6,2 -1,1 1,1 h -2 l 4,2 h -1 l 1,1 v 1 h -1 l -1,-1 v 1 l 1,1 v 2 c 1,0 2,1 2,3 l -1,1 4,1 -2,1 1,1 h -2 l 1,4 v 1 l 1,1 1,1 h -1 l 1,1 -1,1 h -1 v -1 l -1,1 3,3 -2,1 1,1 h 2 l 1,1 h -1 l 1,1 h -1 v -1 h -1 v 2 l 3,3 -1,1 v 1 l 1,-1 1,2 -2,1 2,1 -1,2 c 2,0 3,1 3,2 h -1 l -1,1 1,1 -1,1 h 2 v 1 h -1 l 1,1 -1,1 2,2 -1,1 v 2 l 2,1 -1,1 1,1 1,1 h -2 l 1,1 h 1 l 1,1 -2,1 1,1 -1,1 v 1 l 1,3 h -1 l 2,1 -1,1 2,1 v 1 l -1,2 2,1 -1,1 v 1 l 2,1 1,2 h -2 l 1,1 -1,1 2,1 -1,1 1,3 c 0,2 1,3 2,3 v 1 h -1 l 2,2 -1,1 v 1 h 1 l -1,2 1,1 v -1 l 1,4 1,3 3,-1 1,1 1,-2 1,1 8,-3 1,-1 1,1 8,-4 v 1 l 4,-1 1,-2 2,1 1,-1 h 2 l 5,-2 -1,-2 -2,-2 h 1 v 1 h 1 v -2 h -1 l 1,-1 -2,-6 -1,-1 1,-2 h -1 v 1 -3 h -1 v -1 l 1,-1 -1,-1 1,-1 -1,-1 1,-1 -2,-1 v -11 l -1,1 -1,-1 v -2 h 1 l -1,-1 1,-1 -2,-1 1,-1 -1,-2 2,-1 -2,-2 v -2 l -2,-4 1,-1 -2,-5 v -2 l 1,-1 -1,-1 v -2 l -1,-4 -1,-1 v -4 l -1,-1 1,-1 -1,-1 v -4 l -1,-8 -1,-1 1,-5 h -2 l 1,-1 -1,-1 1,-1 2,2 -2,-4 v -2 l 1,1 1,-1 v -1 l -1,-1 -2,1 -1,-1 3,-1 v 1 l 1,-2 v -1 l 1,-2 -2,1 v -1 l 2,-2 2,-2 h 1 l 1,-3 1,1 h 4 l 1,1 h 1 v -3 z m -95,31 1,1 v -2 z m 1,-14 h 2 v 1 l -1,3 -1,-1 -1,-1 1,-1 h -1 l 1,-1 v 1 h 1 z m 0,-8 1,1 -2,1 v -1 z m 1,29 1,1 v 1 h -1 l -1,-1 z m -1,-13 1,1 h 1 l -1,-1 z m 2,-14 v 1 l -1,-1 z m 0,37 1,1 h -1 l -1,-1 z m 1,-42 h 1 l -2,2 v -1 z m -1,8 h 2 v 1 h -1 z m 0,12 1,1 h 1 l -1,-1 z m 1,11 v 1 z m 1,11 v 1 h -1 z m 0,1 1,1 -2,2 v -2 z m -1,-3 h 1 v 1 h -1 z m 1,-16 v 1 z m 1,-19 v 1 h -1 z m 0,29 v 1 l 1,-1 z m 0,-33 1,1 v 1 h -1 z m 1,41 1,1 -1,3 h -1 l 1,-2 -1,-1 z m -1,-42 h 2 v 1 h -1 z m 1,49 h 1 l -1,1 z m 0,-32 h 1 z m 0,-20 h 1 z m 1,54 v 1 l -1,1 v -1 z m 0,-47 h 1 v 1 h -1 z m 0,36 h 1 v -1 z m 0,-34 h 2 v 1 h -2 z m 1,44 1,1 h -2 z m -1,-4 v 1 h 1 v -1 z m 2,8 1,1 -1,1 v -1 l -1,1 h -1 z m -1,-39 v 1 h 1 v -1 z m 0,37 h 1 v 1 h -1 z m 0,-50 h 1 v 1 z m 1,9 h 2 l -1,-1 z m 3,-7 v 1 h -2 l -1,-1 z m -2,55 v 1 z m 0,-58 1,-1 v 1 z m 1,-3 v 1 z m 0,8 h 1 l -1,1 z m 0,48 h 1 v -1 z m 0,-52 h 1 l 1,1 h -1 z m 1,10 h 1 v -1 z m 1,-6 h 2 v 1 h -2 z m 0,56 h 1 v 1 h -1 z m 1,-49 h 2 z m 0,-14 h 1 z m 2,65 -1,2 v -1 z m -1,-55 v 1 h 1 v -1 z m 1,-6 h 1 v 1 h -1 z m 0,6 v 2 h 3 l 1,-1 h -1 v -1 h 1 -1 l -1,1 h -1 z m 1,-13 h 1 z m 0,9 1,1 z m 1,4 1,-1 z m 0,57 v 1 z m 0,-54 v 1 h 1 v -1 z m 1,62 1,1 -1,1 -1,-1 z m 1,5 h 1 z m 2,-73 1,1 h -1 z m 0,2 h 1 l -1,1 z m 1,0 h 1 l 2,2 -1,1 h -1 v -1 h 1 -2 z m 1,-6 h 1 v 1 z m 0,13 2,1 -1,-1 z m 0,68 1,1 v -1 z m 2,-70 h 4 v 2 z m 2,4 -1,2 h 1 l 1,-1 v -1 z m 5,-1 3,2 -1,1 -2,-2 -1,1 v -1 z m 0,2 v 1 l -1,1 v -1 z m -1,4 v 1 h 1 v -1 z m 3,11 h 1 z m 1,-4 h 1 v 1 h -1 z m 1,-2 1,1 -1,1 -1,-1 z m 1,10 h 1 l -1,1 -1,-1 z m 7,28 1,1 z m 2,16 h 1 v 1 h -1 z m 1,91 v 1 z m 1,-8 h 1 v 1 h -1 z m 2,8 h 1 l 1,1 h -1 z m 3,2 h 1 v 2 l -1,-1 -1,1 v -1 z m 0,-69 1,1 h -2 z m 2,72 h 1 -1 l 1,1 v 1 h -1 l -1,-2 z m 0,-72 h 1 z m 2,5 h 1 l -1,1 z m 3,69 h 1 z m 3,-1 h 1 v 1 z m 0,-34 h 1 l 1,1 v 1 h -1 l -1,-1 z m 1,11 h 1 z m 0,-13 h 2 l 1,5 h -2 l 1,-1 z m 2,11 v 1 h 1 v -1 z m 2,8 1,1 -1,1 -1,-1 z m 1,-4 1,1 h -1 z m 1,1 h 1 l -1,1 z m 8,-156 h 1 v 1 h -1 z m 0,-4 h 1 v 1 h -1 z m 2,19 v 1 z m 5,-17 v 1 z m 2,-1 v 1 l 2,1 v -1 l 1,1 2,-1 1,1 v -2 z m 2,4 v 1 z m 0,-11 3,2 h -2 z m 9,8 v 1 l 1,-1 z m 1,2 v 1 h 1 v -2 z m 2,-3 v 1 l 2,2 v -1 l -1,-2 z m 7,163 h 1 v 1 h -1 z m 1,-137 v 1 h 1 v -1 z m 1,59 v 2 h 1 v -2 z m 1,-10 1,1 z m 0,7 v 1 h 1 v -1 z m 1,-40 v 1 z m 0,39 v 1 z m 0,-59 v 1 l 1,-1 z m 0,51 h 1 l 1,-1 h -1 z m 1,-31 1,1 v -1 z m 1,-16 -1,1 h 2 v -1 z m 0,62 v 1 h -1 z m -1,-14 v 1 h 1 v -1 z m 1,-43 v 1 h -1 v 1 h 2 l -1,-1 h 2 v -1 z m -1,37 1,1 v -1 z m 1,-17 z m 0,-5 v 1 l 1,-1 z m 0,-18 v 1 h 1 v -1 z m 0,36 v 1 h 1 v -1 z m 1,-16 v 1 h 1 z m 0,-4 v 1 h 1 z m 0,2 v 1 l 2,-1 z m 0,-12 v 1 h 1 v -1 z m 58,-10 v 2 h 1 l 2,1 v -2 h 1 l 2,2 1,-1 h 1 l -1,2 h 2 l 1,-1 c -2,0 -3,-1 -3,-2 h 1 l 2,2 v -1 h 2 v 2 l 3,2 1,-1 v 1 l -2,1 1,3 h 1 v -2 l -1,-1 2,-1 3,6 v 2 h 2 l -1,-2 h 2 l -1,1 1,1 -1,1 h 2 v 1 h -1 v 1 h 2 l -1,1 2,2 1,-1 v 2 l 2,2 -1,1 5,5 -1,1 a 140,140 0 0 1 7,17 h 1 l -1,1 1,3 1,1 v 1 h -1 l 1,6 c 0,0 -1,0 0,0 l 2,3 -1,3 1,2 -1,1 1,6 h -1 l 1,3 -1,1 2,3 v 1 h -1 l 1,6 h -1 l 1,3 h -1 l 1,1 v 1 l -1,2 1,4 -1,1 1,1 -1,1 -3,12 v 3 l -1,2 v 1 l -2,7 h -1 l -1,2 -2,3 v 2 l -2,2 v 2 h 1 v 1 c -1,0 -2,0 -2,2 l -1,-1 v 2 l -3,3 1,2 -2,-2 v 1 c -5,4 -10,7 -14,8 l -3,1 v -1 l -3,1 -1,-1 -2,1 v -1 l -1,1 h -2 l -2,-1 h -5 l -4,-2 h -2 l -5,-4 -5,-4 -3,-3 c -1,-3 -3,-4 -4,-4 l 1,-1 -4,-6 c -3,-4 -6,-13 -9,-27 l -2,-8 h -1 l 1,-1 -1,-1 v -10 l -1,-6 1,-1 -1,-2 v -1 l -1,-1 1,-2 1,-2 -1,-1 1,-3 v -1 h -2 l 2,-3 h -1 l 1,-1 v -5 l 1,-2 -1,-2 2,-2 -1,-1 2,-2 h -2 l 1,-1 1,-1 h -1 1 v -1 l 3,-8 h -1 l 1,-1 1,1 v -2 l 1,-2 v -2 l 1,-1 v -2 h 1 l -1,-1 2,-1 1,-1 v -1 h 2 v -3 h 1 l -1,-2 h 3 v -1 l -1,-1 3,-1 -1,-1 h 1 l 1,1 v -1 l -1,-2 h 2 l 1,1 1,-3 -1,1 v -1 l 2,-1 h 3 v -1 h -1 v -1 l 2,-1 h 1 v 1 h 1 l 1,-2 v -1 h 2 v 2 l 1,-1 -1,-1 h 1 l 2,1 1,-1 -1,2 h 1 l 2,-2 h 4 v -2 l 1,1 z m -41,35 v 1 h -1 z m 46,-13 -1,2 h 1 -1 l -1,-1 h -2 l -3,-1 v 2 h -1 l -1,-2 c -1,-1 -1,0 -2,1 l -2,-1 1,1 h -5 v 1 l 1,1 -1,1 h 1 l -1,1 -2,-1 -6,5 -1,1 1,2 c -2,2 -3,3 -4,2 v 1 l -2,3 v 1 l -1,3 v 1 l -2,1 v 3 l -3,3 1,1 -2,2 1,1 -1,2 v 6 h -1 v 1 l -1,2 v 4 l 1,-1 v 1 h -1 v 1 l 1,1 -1,1 h 1 v 2 l -1,3 2,-1 v 2 l 1,2 v 2 l 1,3 v 8 l 1,1 h -1 c 1,2 1,5 3,7 v 1 l 1,1 -1,1 c 1,0 3,3 4,7 l 2,1 h -2 v 1 c 1,0 2,2 2,5 h 1 c 0,2 0,4 2,5 l 1,5 v 1 l 1,-1 c 2,4 5,7 8,8 0,0 0,-1 0,0 l 2,2 1,-1 v 1 l 3,1 2,1 1,-1 v 1 l 3,-1 v 1 l 1,-1 h 1 l 2,-2 1,1 v -2 c 2,0 3,0 5,-2 l 1,1 6,-9 v -2 l 2,-1 -1,-1 c 1,0 2,-1 2,-3 2,0 3,-3 3,-8 v -2 l 1,-1 v -1 l 1,-2 v -1 l 1,-2 -1,-4 1,-1 v -2 h 1 -1 l 1,-3 v -4 l 1,-2 h -1 l 1,-3 -1,-1 v -3 l -1,-1 1,-2 v -1 l -2,-8 -1,-1 -2,-2 1,-3 v -2 l 1,-3 -2,-7 h 1 l -1,-3 h -1 l -1,-1 2,-3 v -1 h -1 l -2,-4 1,-1 h -1 v -1 l -2,-3 v 1 l -1,-1 1,-1 -3,-4 -2,-2 v -1 h -4 l 1,-1 -2,-1 v 1 l -3,-1 h -1 z m -37,63 v 1 z m 9,-48 h 1 v 1 h -1 z m 2,-28 v 1 h 1 v -1 z m 3,-4 v 1 z m 7,131 h 1 v 1 h -1 z m 4,-135 -2,2 v -1 z m 2,0 h 1 v 1 h -1 z m 9,154 h 1 v 1 h -1 z m 5,-131 h 1 v -1 z m 1,-20 v 1 h 1 v -1 z m 1,-1 v 1 z m 2,25 h 1 v 1 h -1 z m 2,-25 v 1 h -1 z m 2,6 h 1 z m 4,5 v 1 z m 3,32 1,1 z m 2,20 h 1 z m 1,4 h 1 v 1 h -1 z m 0,31 h 1 v 1 z m 14,-94 1,1 -1,1 -1,-2 z m 0,6 1,1 h -1 z m 0,-4 h 1 l -1,1 z m 0,-9 h 2 l -1,1 z m 0,1 h 2 l -2,1 z m 1,4 h 1 v 1 l -2,-1 z m 121,-13 h 3 l -1,1 v 1 l 3,2 1,-2 h 1 l -3,3 3,3 -1,1 c 2,0 3,1 2,3 l 2,4 h 1 v 1 h -1 l 1,5 v 1 l -1,-1 2,3 h -1 v 3 h 1 v -1 h 1 v 2 l -1,2 1,3 -1,4 h 1 l -1,3 v 2 h 1 l -1,1 1,1 -2,1 c 1,0 2,2 2,7 l -1,-1 1,3 v 4 h -1 v 1 h 1 l -1,2 1,3 -1,2 1,6 -1,1 h 1 l -2,3 1,6 h -1 l 1,1 v 8 l -1,1 h 1 l -1,4 v 4 l 1,1 v 1 h -1 v 2 h -1 l 1,1 -1,3 1,4 h -1 v 6 h -1 l 1,2 -1,1 v 4 l -1,2 v 3 h -1 l 1,1 -1,3 1,1 -1,1 h 1 l -2,6 v 1 l -1,1 1,1 v 1 l -1,2 h 1 v 1 l -2,4 v 4 h -1 l -1,5 h 1 v 1 l -3,2 h -1 l 1,2 -1,1 -1,-1 v 3 l -2,3 h -1 l -1,-2 h -3 l -3,-4 h 1 l -1,-2 v 1 c -1,0 -2,0 -1,-1 l 1,-1 -2,-1 h 2 l -2,-2 1,-1 -1,-5 v -2 h 1 l 1,-1 -1,-1 v -3 l 1,-4 v -2 l 1,-3 v -8 l 1,-2 v -6 l 1,-1 -1,-2 2,-4 -2,-3 2,-1 h -1 l 2,-6 h -1 l 1,-1 -1,-1 1,-2 -1,-2 2,-4 h -1 l 1,-3 -1,-1 1,-1 -1,-3 v -1 l 1,-1 -2,-4 1,-2 h -1 l 2,-3 v -2 l -1,-1 v -1 c 1,-1 0,-4 -1,-10 h 1 v 1 l 1,-1 c -2,0 -2,-1 -2,-4 l -8,13 -6,10 a 187,187 0 0 1 -18,23 l -1,-1 h -1 l 1,1 -1,1 -1,-1 -3,1 v -1 l -2,2 -1,-2 h -4 l -3,-1 1,-1 v -1 c -2,0 -3,-1 -3,-4 l -6,-6 -3,-4 c -2,-1 -3,-2 -4,-5 l -3,-4 -7,-7 h -1 v -3 h -1 l -5,-5 -1,-2 -3,1 2,2 v 1 l -2,1 v 1 h 1 v 1 l -1,1 1,2 -1,3 h 1 v 1 l -1,3 2,5 h 1 l -2,3 1,5 1,2 h -1 l 2,1 -1,3 -1,2 c 2,1 3,1 2,2 h -1 l 2,5 -1,1 h 1 v 1 h -1 v 1 h 2 v 1 l -1,1 c 2,0 3,1 3,2 v 1 l -2,-2 1,4 h -1 l 1,3 1,-1 -1,-1 1,-2 h 1 l -1,3 v 2 l 1,-1 2,2 -1,1 -2,1 1,2 -1,1 c 2,0 4,1 5,3 v -1 c 1,0 2,1 2,4 h -1 l -1,-2 v 1 l 1,3 1,-1 2,1 v 1 h -1 l -1,-1 v 1 l 1,4 -2,2 v -1 l -1,1 2,1 v 1 h -1 l 1,1 -1,1 1,1 h -1 l -7,6 -1,-1 -1,1 c 1,-1 0,-2 -1,-2 v 1 h -1 l -2,-4 -1,1 c -1,-2 -2,-3 -4,-3 v -1 l 2,-1 c -2,-1 -2,-3 -2,-5 v -1 h 1 v -1 l -1,-5 h -1 1 l -3,-9 v -2 l -1,-1 1,-3 -2,-2 1,-1 c -2,-1 -3,-1 -2,-2 l 1,-2 -1,-1 1,-1 c -1,0 -2,-1 -2,-3 l -1,-4 h 1 l -4,-11 h 1 l -2,-4 h -1 l 2,-5 h -1 l -1,-3 1,-1 -3,-3 1,-1 v -3 l -1,-4 -1,1 v -8 l -2,-1 h 2 v -1 h -1 l 1,-2 -2,-2 -1,1 v -1 h 1 c 0,-3 -1,-4 -2,-5 l -1,1 1,-2 1,1 v -1 l 1,-1 v -1 h -1 v -1 l -2,-3 v -1 l 1,-1 -1,-3 h -1 v 1 h -1 v -2 h -1 v -1 h 3 v -3 l 1,1 v -1 l -1,-1 -1,1 v -1 l -3,2 1,-2 c 1,1 2,0 2,-1 v -3 l -2,1 v -1 l 1,-1 h -1 l 1,-1 h -1 v 1 h -1 v -1 l 1,-2 v -1 h 1 l 1,1 1,1 v -1 l -1,-1 v -1 h -1 l 2,-1 v -1 l -2,-1 v -1 c 0,0 0,-1 0,0 v -3 l -1,-1 1,-2 1,1 1,-1 -2,-6 1,1 3,-1 v -1 l -2,-6 h 1 l 2,2 h 1 l 1,-2 v -2 h 2 l -2,-1 -2,2 v -2 l 1,-1 -1,-1 h 2 l 5,4 v -1 l -1,-2 3,1 2,-2 3,3 h 1 l 1,-1 h -2 v -2 l 1,1 c 3,1 5,2 5,4 h -2 c 1,0 3,2 4,5 l 1,1 1,-1 v 1 h 3 v 1 l -1,1 h 1 l -2,1 -1,-2 v 2 l 3,3 h 1 v -1 h -1 l 1,-1 1,2 -2,1 -1,-1 -1,2 2,1 v 2 h -2 l 1,3 3,2 -2,2 v 3 h 3 l -1,1 -1,1 1,2 -1,1 3,5 -1,1 2,2 h -1 v 1 h 1 l 3,5 h 1 v 1 l -1,1 5,8 -1,4 c 2,0 2,1 2,3 l 3,4 7,10 4,5 c 2,0 3,2 3,4 v 1 l 1,-1 -1,-2 h 1 v 3 l 2,-1 h 1 l 3,3 h -1 v 1 l 2,1 v -1 h 1 l 1,2 11,-14 3,-4 7,-12 h -1 l 2,-3 1,-1 4,-6 -1,-3 3,-5 1,-3 v -4 h 1 v -1 h -1 l 3,-2 h -1 l 2,-5 3,-2 -2,-1 c 2,0 2,-1 3,-2 l -1,-1 v -4 l 2,-1 -1,-1 h 1 v -6 l 3,-6 h 2 v -2 z m -121,28 2,1 -1,1 h -1 z m 4,-26 v 2 h -2 z m 0,12 -1,1 v 3 l 1,1 z m -1,-6 h 1 v -1 z m 1,16 -1,1 h 1 z m 0,-16 v 1 h 1 v -1 z m 1,38 h 1 l -1,1 z m 0,-11 v 1 h 1 v -1 z m 1,7 -1,1 v 1 z m 0,-42 v 2 h 2 v -1 z m 0,56 1,1 h -1 z m 2,-62 v 1 z m 2,-8 2,1 h -1 l -1,1 z m 0,11 1,1 v 2 l 1,-1 v -1 l -1,-1 z m 1,-9 h 1 v 1 z m 0,3 1,1 h -1 z m 3,-7 h 1 v 1 l -2,1 z m 0,11 v 1 h 1 v -1 z m 2,-5 h 1 v 1 h -1 l 1,1 -2,-1 z m 0,-3 h 1 v 1 h -1 z m 0,9 1,2 h 2 v -1 l -2,-2 z m 2,-8 3,1 h 1 v 1 h -2 v 1 l -1,1 z m 2,-1 h 1 v 1 h -1 z m 3,10 v 1 z m 1,-10 1,1 h -1 z m 1,154 h 1 z m 2,-137 v 1 l 2,1 h 1 v -1 l -2,-1 z m 1,-8 h 1 l 2,4 v 1 l -2,1 v -1 l 1,-1 -2,-3 z m 1,158 h 1 l -1,1 z m 4,-63 v 1 h -2 z m -1,-97 h 1 z m 2,160 2,1 h -3 v -1 z m 1,-59 h 1 v 2 l -1,-1 z m 1,-85 h 1 v 1 z m 0,113 v 1 h 1 v -1 z m 2,32 v 1 l -1,-1 z m -1,-125 1,1 v 1 z m 3,94 1,2 h -1 v 1 l -1,-1 z m 0,3 h 1 v 1 z m 2,12 v 1 h 1 z m 3,-93 -1,1 h -1 z m 23,40 v 1 l 1,1 v -2 z m 56,-86 1,1 v 1 l -1,-1 z m 4,10 v 1 l 1,-1 z m 3,3 v 1 z"
           id="path1226" />
        <path
           d="m 1313,713 h 2 v 1 l -1,1 -2,-1 z m 0,-7 h 1 v 1 h -1 z m 25,-17 -1,3 h -1 l 1,1 1,-3 h 1 l -1,1 3,1 h 1 c 0,1 0,2 -2,2 l 1,1 1,-1 3,2 h -1 v 1 l 2,2 h 1 v 2 l 1,-1 1,1 -1,1 h 1 l 1,-1 v 2 l 1,1 1,-1 c 1,3 3,5 5,5 l 1,-1 3,2 v 2 l 1,-1 h 3 l -1,-1 h 1 l 3,3 2,-2 1,1 h -1 c 2,1 5,1 7,3 l 1,-1 h 1 v -1 h 1 v 3 h 1 l 1,-2 6,3 5,2 2,-2 h 1 l -1,2 h 6 l 3,1 1,-1 1,1 h 3 v 1 l 1,-1 1,1 1,-1 h 1 l 1,1 h 3 l 3,-1 1,1 h 1 l 1,-1 4,2 c 0,-1 1,-2 3,-2 h 2 v 1 l 3,1 v -2 c 1,1 2,1 2,3 l 1,-2 v 1 l 1,-1 1,1 h -1 v 2 h 2 l -1,1 v 1 h 3 l -1,1 1,1 -1,1 3,1 -1,1 1,1 -1,1 h 1 l -1,1 1,2 1,-1 1,1 -2,2 v 1 h 2 v 1 l -3,2 1,1 -2,1 2,1 -2,1 1,1 v 1 h -1 l -2,-2 c 0,1 0,2 -2,2 l 1,1 h -1 v 1 l -2,-2 v 2 h 1 v 1 l -3,-2 1,-1 h -3 l -1,2 h -1 l 1,-1 -1,-1 -2,1 v -1 c -1,0 -2,0 -2,-2 l -1,1 -1,-1 -1,1 -1,-1 h -1 v 1 l -1,-1 v 1 h -1 v -1 1 l -4,-2 -1,1 v -2 l -2,1 -1,-1 v 1 h 1 v 1 h -1 l -1,-2 -2,1 1,-1 -2,-1 v 2 h -1 l -1,-2 -2,1 1,-1 h -1 l -1,1 -1,-1 h 1 v -1 l -4,1 -1,-1 -1,1 -1,-1 -1,1 v -1 h -1 c 0,-1 -2,-2 -5,-2 l -1,1 -1,-1 -1,1 -3,-1 v 1 h -1 v -2 h -2 v 1 h -2 l 1,-1 v -1 h -2 l -2,1 -2,-2 h -3 l -1,3 -1,-1 2,-2 -2,-1 h -3 l -1,-1 -1,2 1,1 2,3 -1,1 1,3 h -1 l 1,1 1,-1 1,1 h -2 l 1,3 v 1 h 1 v 3 l 1,2 v 3 l 2,5 v 1 l -1,1 2,2 -1,1 2,3 -1,1 2,4 -1,1 2,4 h -1 l 3,4 1,-1 h 2 l 4,-2 2,1 14,-5 v 1 c 2,-2 3,-2 5,-2 l 5,-2 v 1 l 2,-1 c 0,1 1,2 3,2 h 2 l -1,1 3,7 -2,3 v 1 l -6,4 -1,-1 -5,1 -4,1 -4,1 h -1 l -1,1 -3,-1 -4,3 -1,-1 -4,2 h -1 l -4,1 1,1 v 5 h 1 l -1,1 1,2 -1,1 h 1 v 1 l -1,1 h 1 l -1,1 2,3 -1,1 1,2 -1,2 1,1 v 5 l 1,5 -1,2 h 2 v 1 l -1,1 1,1 -1,1 -1,3 h 1 v 3 l 1,1 -1,1 4,-2 3,1 1,-2 1,1 6,-3 h 5 v -2 l 1,1 h 1 v -1 l 1,1 1,-1 c 3,0 5,-1 8,-3 l 1,1 2,-1 v 1 l 1,-1 h 2 l 2,-1 h 3 l 1,-1 6,-1 1,1 3,-2 2,1 h 1 l 2,-1 3,1 h 1 c 3,0 4,1 4,2 l 1,-1 1,2 v -2 l 3,3 -1,2 1,3 -3,5 h -2 l -5,4 h -1 v -1 l -4,2 h -3 v 1 l -1,-1 -2,1 h -2 l -1,1 h -1 l -5,1 -5,2 v -1 l -1,2 -6,-1 -1,2 -3,-1 v 1 h -3 l -1,1 h -1 l -4,2 -1,1 -1,-1 v 1 h -3 l -1,2 -1,-1 -5,4 -1,-1 -3,3 -1,-1 -4,4 -3,3 -3,-1 -2,1 -2,-1 h -1 2 v 1 h -3 l -2,1 -3,-1 -1,1 -4,1 c 0,-2 -1,-2 -3,-2 h -2 l -7,-4 -2,-2 1,-1 -1,-1 v -1 h 1 l 3,-5 1,1 1,-1 -1,-1 1,-1 v -2 h 1 v 2 -1 h 1 v -3 l 1,2 2,-2 1,1 2,-2 v -1 h 2 v -1 h 1 v -2 l 1,1 v -2 l 1,-2 v -2 l -1,-2 1,-2 -1,-1 1,-1 -1,-1 1,-2 -1,-1 v -1 l -1,-2 h 1 l -1,-1 1,-3 -1,-2 1,-2 -2,-4 h -1 l 1,-2 v -3 l -1,1 v -2 l -1,-1 2,-1 -1,-1 v -1 l -1,-1 -2,1 -1,-1 c 0,1 0,2 -2,2 l -7,-5 v -2 l -2,-1 1,-1 -1,-1 1,-3 v -2 l 1,1 1,-1 v -1 l 1,-1 4,-2 h 2 l 2,-1 v -3 h -1 l -1,-1 1,-1 h -1 l 1,-1 -1,-3 -2,-2 1,-2 h -1 v -3 l -1,-3 -1,-1 1,-1 c 0,-2 -1,-3 -3,-5 h 1 l -3,-4 1,-1 -1,-1 v -1 l -2,-4 -1,1 v -1 l 2,-2 -1,-1 v 1 h -1 v -3 l -3,-5 1,-1 h -1 l 1,-1 h -2 v -2 h 1 l -1,-2 -1,1 -1,-1 1,-1 -2,-3 h 1 l -2,-2 v -1 h -2 v -1 l 3,-1 v -1 l -2,-1 h 1 l -1,-2 -1,1 h -1 l -1,-2 -1,1 -2,-2 1,2 h -1 l -1,-1 h -3 l -1,1 -1,-1 2,-2 -2,1 h -1 l 1,-1 -1,-1 v -3 h -3 v -2 h 1 v -1 h -1 l -1,-1 h 1 v -2 l -1,1 h -1 v -1 l 4,-3 1,1 -1,-3 -1,1 v -2 c 1,0 2,0 3,-2 l 1,1 -1,1 h 1 l 1,-3 v -1 h 1 v 2 h -1 v 1 l 2,-2 -1,-1 h 1 l -1,-2 2,-1 1,2 3,-2 -1,-1 2,1 c 0,-3 1,-4 4,-5 l -2,-2 v -1 l 1,1 1,-2 v 1 h 1 l -1,-1 h 1 z m -21,30 v 4 l -2,-2 z m -1,-10 v 1 z m 1,3 v 1 h 1 v -1 z m 0,3 1,1 1,-3 h -1 z m 1,-13 1,1 v 1 h -1 z m 2,0 1,1 v 1 h -1 z m 0,19 h 1 z m 4,1 v 1 z m 19,145 v 1 h 1 v -1 z m 1,-175 v -1 2 z m 2,70 v 1 z m 4,-62 1,-1 z m 0,-6 1,1 h -1 z m 1,3 z m 1,7 v 1 z m 3,106 h 1 v 1 z m 3,-102 v 1 h 1 v -1 z m 2,137 v 2 l -1,-1 z m 2,-111 v 1 l 1,-1 z m 4,2 h 1 v 1 h -1 z m 11,-25 h 1 z m 2,26 v 1 h 1 v -1 z m 6,132 h 1 v 1 h -1 z m 6,-129 h 1 v 1 h -1 z m 5,-23 v 1 z m 2,0 h 1 v 1 h -1 z m 3,26 v 1 z m 18,1 v 1 z m 0,37 h 1 l -1,1 z m 6,-34 h 1 v 1 z m 8,1 h 1 v 1 h -1 z m 12,-17 v 1 z m 0,10 h 1 v 1 h -1 z m 0,4 h 1 l 1,2 -2,-1 z"
           id="path1228" />
      </g>
    </g>
  </g>
</svg>
