<?xml version="1.0" encoding="UTF-8" standalone="no"?>
<!-- Created with Inkscape (http://www.inkscape.org/) -->

<svg
   viewBox="0 0 165.92063 48.273198"
   version="1.1"
   id="svg11606"
   sodipodi:docname="chill-sign.svg"
   inkscape:version="1.1.1 (3bf5ae0d25, 2021-09-20)"
   xmlns:inkscape="http://www.inkscape.org/namespaces/inkscape"
   xmlns:sodipodi="http://sodipodi.sourceforge.net/DTD/sodipodi-0.dtd"
   xmlns:xlink="http://www.w3.org/1999/xlink"
   xmlns="http://www.w3.org/2000/svg"
   xmlns:svg="http://www.w3.org/2000/svg">
  <sodipodi:namedview
     id="namedview1565"
     pagecolor="#ffffff"
     bordercolor="#666666"
     borderopacity="1.0"
     inkscape:pageshadow="2"
     inkscape:pageopacity="0.0"
     inkscape:pagecheckerboard="0"
     showgrid="false"
     inkscape:zoom="5.4544154"
     inkscape:cx="270.60645"
     inkscape:cy="-26.033954"
     inkscape:window-width="2560"
     inkscape:window-height="1573"
     inkscape:window-x="0"
     inkscape:window-y="-10"
     inkscape:window-maximized="1"
     inkscape:current-layer="layer1-3" />
  <defs
     id="defs11603">
    <linearGradient
       xlink:href="#linearGradient13638"
       id="linearGradient9695"
       gradientUnits="userSpaceOnUse"
       gradientTransform="matrix(-11.684163,-0.19096588,-0.04088573,54.573479,217.05574,248.46084)"
       x1="0"
       y1="0"
       x2="1"
       y2="0"
       spreadMethod="pad" />
    <linearGradient
       x1="0"
       y1="0"
       x2="1"
       y2="0"
       gradientUnits="userSpaceOnUse"
       gradientTransform="matrix(-33.120462,-0.54132061,-0.11589655,154.69648,-166.48914,998.07151)"
       spreadMethod="pad"
       id="linearGradient13638">
      <stop
         style="stop-opacity:1;stop-color:#0d0d1c"
         offset="0"
         id="stop13618" />
      <stop
         style="stop-opacity:1;stop-color:#121221"
         offset="0.0757576"
         id="stop13620" />
      <stop
         style="stop-opacity:1;stop-color:#ffffff"
         offset="0.111111"
         id="stop13622" />
      <stop
         style="stop-opacity:1;stop-color:#ffffff"
         offset="0.166667"
         id="stop13624" />
      <stop
         style="stop-opacity:1;stop-color:#4b4b59"
         offset="0.222222"
         id="stop13626" />
      <stop
         style="stop-opacity:1;stop-color:#9a9aa9"
         offset="0.590909"
         id="stop13628" />
      <stop
         style="stop-opacity:1;stop-color:#ffffff"
         offset="0.666667"
         id="stop13630" />
      <stop
         style="stop-opacity:1;stop-color:#ffffff"
         offset="0.813131"
         id="stop13632" />
      <stop
         style="stop-opacity:1;stop-color:#a0a0af"
         offset="0.878788"
         id="stop13634" />
      <stop
         style="stop-opacity:1;stop-color:#0d0d1c"
         offset="1"
         id="stop13636" />
    </linearGradient>
    <clipPath
       clipPathUnits="userSpaceOnUse"
       id="clipPath13680-2">
      <path
         d="m 1707.31,71.1094 -22.5,8.7422 4.79,12.3398 0.35,-0.1328 22.15,-8.6094 -4.79,-12.3398"
         id="path13678-7" />
    </clipPath>
    <clipPath
       clipPathUnits="userSpaceOnUse"
       id="clipPath13692-0">
      <path
         d="m 1712.1,83.4492 -22.15,8.6094 22.15,-8.5977 v -0.0117"
         id="path13690-9" />
    </clipPath>
    <clipPath
       clipPathUnits="userSpaceOnUse"
       id="clipPath13704-3">
      <path
         d="m 1767.86,215.57 -30.26,11.75 5.65,14.559 30.26,-11.75 -5.65,-14.559"
         id="path13702-6" />
    </clipPath>
    <clipPath
       clipPathUnits="userSpaceOnUse"
       id="clipPath13758-0">
      <path
         d="m 1655.06,368.93 c 1.92,4.953 7.49,7.41 12.44,5.484 l 235.69,-91.516 c 2.47,-0.96 5.79,-3.433 7.41,-5.55 l 43.1,-56.055 c 4.85,-6.309 2.43,-12.555 -5.41,-13.938 l -69.64,-12.289 c -2.61,-0.457 -6.74,-0.054 -9.21,0.911 l -235.69,91.507 c -4.95,1.926 -7.41,7.493 -5.49,12.442 z"
         id="path13756-6" />
    </clipPath>
    <rect
       x="-1043.1545"
       y="2611.0254"
       width="1287.0983"
       height="880.00903"
       id="rect2229-2" />
    <clipPath
       clipPathUnits="userSpaceOnUse"
       id="clipPath13680-2-2">
      <path
         d="m 1707.31,71.1094 -22.5,8.7422 4.79,12.3398 0.35,-0.1328 22.15,-8.6094 -4.79,-12.3398"
         id="path13678-7-6" />
    </clipPath>
    <clipPath
       clipPathUnits="userSpaceOnUse"
       id="clipPath13692-0-1">
      <path
         d="m 1712.1,83.4492 -22.15,8.6094 22.15,-8.5977 v -0.0117"
         id="path13690-9-8" />
    </clipPath>
    <clipPath
       clipPathUnits="userSpaceOnUse"
       id="clipPath13704-3-7">
      <path
         d="m 1767.86,215.57 -30.26,11.75 5.65,14.559 30.26,-11.75 -5.65,-14.559"
         id="path13702-6-9" />
    </clipPath>
    <clipPath
       clipPathUnits="userSpaceOnUse"
       id="clipPath13758-0-2">
      <path
         d="m 1655.06,368.93 c 1.92,4.953 7.49,7.41 12.44,5.484 l 235.69,-91.516 c 2.47,-0.96 5.79,-3.433 7.41,-5.55 l 43.1,-56.055 c 4.85,-6.309 2.43,-12.555 -5.41,-13.938 l -69.64,-12.289 c -2.61,-0.457 -6.74,-0.054 -9.21,0.911 l -235.69,91.507 c -4.95,1.926 -7.41,7.493 -5.49,12.442 z"
         id="path13756-6-0" />
    </clipPath>
    <rect
       x="-1043.1545"
       y="2611.0254"
       width="156.80421"
       height="442.13152"
       id="rect2229-2-2" />
    <linearGradient
       xlink:href="#linearGradient13638"
       id="linearGradient1711"
       gradientUnits="userSpaceOnUse"
       gradientTransform="matrix(-11.684163,-0.19096588,-0.04088573,54.573479,217.05574,248.46084)"
       x1="0"
       y1="0"
       x2="1"
       y2="0"
       spreadMethod="pad" />
  </defs>
  <path
     d="M 6.02845,47.92338 C 2.69525,47.91438 -0.00715,45.1925 1e-5,41.85695 L 0.10101,6.03173 C 0.11001,2.69977 2.83247,-0.00771 6.16512,2e-5 l 122.3772,0.34585 c 1.54707,0.004 3.71235,0.61671 5.03417,1.42308 l 29.21512,17.82149 c 2.02583,1.23392 3.13302,2.95116 3.129,4.82654 -4e-5,1.87235 -1.12793,3.57674 -3.15636,4.80118 L 133.4461,46.87985 c -1.32264,0.79449 -3.48768,1.39468 -5.04412,1.39335 L 6.02845,47.92338"
     style="fill:#000000;fill-opacity:1;fill-rule:nonzero;stroke:none;stroke-width:0.484008"
     id="path1834" />
  <path
     d="M 1.4991683,6.0378808 C 1.5050377,3.4667849 3.5936289,1.3883303 6.1644132,1.3974315 L 128.53726,1.7454831 c 1.28261,0.00407 3.21228,0.5437072 4.31217,1.2181928 l 29.216,17.8237511 c 3.28785,2.006225 3.281,5.248303 -0.0197,7.236418 l -29.31816,17.661682 c -1.09942,0.660319 -3.03496,1.196529 -4.31844,1.190206 L 6.0378582,46.531746 C 3.4670739,46.522645 1.387786,44.43593 1.394351,41.866641 L 1.4991683,6.0378808"
     style="fill:#faae38;fill-opacity:1;fill-rule:nonzero;stroke:none;stroke-width:0.484007"
     id="path1831" />
  <path
     d="M 128.80341,3.90984 8.89743,3.57043 C 6.57685,3.56443 4.6854,5.4411 4.68256,7.76416 l -0.0937,32.38225 c -0.004,2.32125 1.86963,4.20933 4.1916,4.21877 l 119.90528,0.3376 c 1.16585,-0.003 2.91063,-0.48219 3.90339,-1.08279 L 159.08361,27.6632 c 2.98888,-1.80119 2.99863,-4.72591 0.0226,-6.54205 L 132.70223,5.01072 c -0.99491,-0.6039 -2.74056,-1.09667 -3.8986,-1.10045 z m -0.007,2.32657 c 0.73704,10e-4 2.06826,0.37426 2.69372,0.75947 l 26.39892,16.11081 c 0.82619,0.50238 1.11391,1.00722 1.1121,1.28543 -0.003,0.27589 -0.29076,0.78043 -1.11553,1.27849 l -26.49848,15.95991 c -0.62153,0.37933 -1.95579,0.75302 -2.69631,0.7425 L 8.78518,42.03364 C 7.75241,42.03164 6.90961,41.18998 6.91342,40.14918 L 7.00312,7.77003 C 7.00812,6.73279 7.85209,5.89342 8.88936,5.89341 L 128.79602,6.2346"
     style="fill:#000000;fill-opacity:1;fill-rule:nonzero;stroke:none;stroke-width:0.484008"
     id="path1828" />
  <path
     style="color:#000000;font-size:40px;-inkscape-font-specification:'Coconut Days';letter-spacing:1.97038px;white-space:pre;fill:#fefdfd;stroke:none;stroke-width:1.5;stroke-opacity:1;-inkscape-stroke:none"
     d="m 29.94064,20.936941 0.04555,7.680705 8.454421,-0.90955 0.183493,8.297588 -15.095881,-0.420747 -0.367205,-21.160789 15.544144,-0.978452 -0.303254,7.736486 z"
     id="path1825" />
  <path
     style="color:#000000;font-size:40px;-inkscape-font-specification:'Coconut Days';letter-spacing:1.97038px;white-space:pre;fill:#000000;fill-opacity:0.986133;stroke:none;stroke-width:1.5;stroke-opacity:1;-inkscape-stroke:none"
     d="m 39.486636,12.644361 -17.088423,1.075701 0.392294,22.594914 16.600634,0.46285 -0.218731,-9.9034 -8.441063,0.909 -0.03602,-6.073934 8.426885,0.243767 z m -1.564088,1.602609 -0.24148,6.163467 -8.495113,-0.245981 0.0046,0.776262 0.05048,8.511752 8.467299,-0.911775 0.148534,6.693586 L 24.265,34.854568 23.923753,15.127295 Z"
     id="path1822" />
  <path
     style="color:#000000;font-size:40px;-inkscape-font-specification:'Coconut Days';letter-spacing:1.97038px;white-space:pre;fill:#fefdfd;stroke:none;stroke-width:1.5;stroke-opacity:1;-inkscape-stroke:none"
     d="m 53.615218,13.061848 8.701218,-0.0516 -0.56223,22.938834 -7.814983,0.04635 -0.05855,-5.344108 -5.61285,0.03329 0.02994,5.048855 -6.686092,0.200792 -0.590173,-22.529151 7.304727,-0.04332 -0.0332,12.515353 5.532283,-0.03281 z"
     id="path1819" />
  <path
     style="color:#000000;font-size:40px;-inkscape-font-specification:'Coconut Days';letter-spacing:1.97038px;white-space:pre;fill:#000000;fill-opacity:0.986133;stroke:none;stroke-width:1.5;stroke-opacity:1;-inkscape-stroke:none"
     d="m 52.85266,12.315931 0.01235,0.757886 0.198523,12.025256 -4.017827,0.02383 0.03199,-12.515748 -8.826432,0.05235 0.630459,24.046509 8.170863,-0.245115 -0.02983,-5.030191 4.116213,-0.02441 0.05794,5.34344 9.289316,-0.05509 0.598597,-24.439391 z m 1.524769,1.491164 7.17024,-0.04252 -0.525914,21.438545 -6.34018,0.0376 -0.05922,-5.343432 -7.108587,0.04216 0.03005,5.066916 -5.202536,0.155401 -0.549547,-21.011191 5.782886,-0.0343 -0.03327,12.515756 7.046966,-0.04179 z"
     id="path1816" />
  <path
     style="color:#000000;font-size:40px;-inkscape-font-specification:'Coconut Days';letter-spacing:1.97038px;white-space:pre;fill:#fefdfd;stroke:none;stroke-width:1.5;stroke-opacity:1;-inkscape-stroke:none"
     d="m 72.781242,19.340042 1.229072,17.046625 -8.99663,0.05335 0.862798,-17.542448 z m 0.46827,-2.55415 -8.029828,0.04762 -0.02676,-4.511743 8.027439,-0.450456 z"
     id="path1813" />
  <path
     style="color:#000000;font-size:40px;-inkscape-font-specification:'Coconut Days';letter-spacing:1.97038px;white-space:pre;fill:#000000;fill-opacity:0.986133;stroke:none;stroke-width:1.5;stroke-opacity:1;-inkscape-stroke:none"
     d="m 73.96601,11.07872 -9.527769,0.533814 0.03544,5.975642 9.5306,-0.05652 -0.0044,-0.750077 z m -1.490793,1.585053 0.02003,3.376623 -6.530318,0.03873 -0.01808,-3.048783 z m -7.310036,5.436955 -0.939775,19.09367 10.590128,-0.06281 -1.333195,-18.497939 -0.653305,-0.04178 z m 1.423096,1.594091 5.491417,0.351616 1.125839,15.594565 -7.403656,0.04391 z"
     id="path1810" />
  <path
     style="color:#000000;font-size:40px;-inkscape-font-specification:'Coconut Days';letter-spacing:1.97038px;white-space:pre;fill:#fefdfd;stroke:none;stroke-width:1.5;stroke-opacity:1;-inkscape-stroke:none"
     d="m 94.462696,28.611253 0.419459,7.329352 -17.053313,0.101137 -1.533783,-23.141256 9.077197,-0.05383 -0.969744,17.623652 z"
     id="path1807" />
  <path
     style="color:#000000;font-size:40px;-inkscape-font-specification:'Coconut Days';letter-spacing:1.97038px;white-space:pre;fill:#000000;fill-opacity:0.986133;stroke:none;stroke-width:1.5;stroke-opacity:1;-inkscape-stroke:none"
     d="m 75.493565,12.155472 1.63321,24.639866 18.549776,-0.110012 -0.513466,-8.966642 -0.837035,0.154421 -9.122273,1.686778 0.961221,-17.467699 z m 1.603448,1.49063 7.48233,-0.04437 -0.977733,17.779937 10.161046,-1.877778 0.324882,5.691931 -15.557376,0.09226 z"
     id="path1804" />
  <path
     style="color:#000000;font-size:40px;-inkscape-font-specification:'Coconut Days';letter-spacing:1.97038px;white-space:pre;fill:#fefdfd;stroke:none;stroke-width:1.5;stroke-opacity:1;-inkscape-stroke:none"
     d="m 115.41702,28.486981 0.41945,7.329352 -17.053309,0.101137 -1.533782,-23.141256 9.077201,-0.05383 -0.96975,17.623652 z"
     id="path1801" />
  <path
     style="color:#000000;font-size:40px;-inkscape-font-specification:'Coconut Days';letter-spacing:1.97038px;white-space:pre;fill:#000000;fill-opacity:0.986133;stroke:none;stroke-width:1.5;stroke-opacity:1;-inkscape-stroke:none"
     d="m 96.448287,12.031197 1.633204,24.639866 18.548469,-0.110003 -0.51215,-8.96665 -0.83704,0.154421 -9.12359,1.686786 0.96254,-17.467708 z m 1.602139,1.490639 7.483634,-0.04438 -0.97904,17.779946 10.16105,-1.877779 0.32618,5.691924 -15.557365,0.09226 z"
     id="path1798" />
  <g
     id="layer1-3"
     transform="translate(87.607346,-217.11279)">
    <path
       d="m 146.02161,267.40483 c -3.33295,0.0419 -6.07666,-2.63825 -6.12052,-5.97352 l -0.44698,-35.82257 c -0.0424,-3.3317 2.63877,-6.08051 5.97115,-6.12376 l 122.36817,-1.52601 c 1.54695,-0.0198 3.72135,0.55986 5.05535,1.34592 l 29.48429,17.37254 c 2.04446,1.20279 3.17779,2.9029 3.20246,4.77812 0.0286,1.87213 -1.07309,3.59357 -3.08256,4.8489 L 273.4084,264.4125 c -1.31034,0.81463 -3.46594,1.44787 -5.02222,1.47034 l -122.36457,1.52199"
       style="fill:#000000;fill-opacity:1;fill-rule:nonzero;stroke:none;stroke-width:0.484008"
       id="path13738-5-1" />
    <g
       id="g13754-9-2"
       clip-path="url(#clipPath13758-0-2)"
       transform="matrix(0.44897162,-0.18079608,-0.18079608,-0.44897162,-535.5235,690.45701)"
       style="fill:#faae38;fill-opacity:1">
      <path
         d="m 1655.06,368.93 c 1.92,4.953 7.49,7.41 12.44,5.484 l 235.69,-91.516 c 2.47,-0.96 5.79,-3.433 7.41,-5.55 l 43.1,-56.055 c 4.85,-6.309 2.43,-12.555 -5.41,-13.938 l -69.64,-12.289 c -2.61,-0.457 -6.74,-0.054 -9.21,0.911 l -235.69,91.507 c -4.95,1.926 -7.41,7.493 -5.49,12.442 l 26.8,69.004"
         style="fill:#faae38;fill-opacity:1;fill-rule:nonzero;stroke:none"
         id="path13768-2-9" />
    </g>
    <path
       d="m 268.09969,221.53855 -119.89714,1.49465 c -2.3204,0.0296 -4.18293,1.93488 -4.15023,4.25771 l 0.40161,32.37989 c 0.032,2.32103 1.93379,4.18024 4.25564,4.15417 l 119.89641,-1.49645 c 1.16567,-0.0208 2.90292,-0.52666 3.88638,-1.14237 l 26.24731,-16.36017 c 2.96098,-1.84669 2.92599,-4.77122 -0.0775,-6.54163 l -26.6473,-15.70468 c -1.00404,-0.58861 -2.75702,-1.05463 -3.91498,-1.04069 z m 0.0289,2.3264 c 0.73697,-0.01 2.07374,0.34258 2.70502,0.71818 l 26.64226,15.70514 c 0.83377,0.48969 1.12918,0.99007 1.13163,1.26827 10e-4,0.27591 -0.27879,0.78479 -1.09585,1.2954 l -26.25126,16.36335 c -0.61566,0.3888 -1.94405,0.78285 -2.68464,0.78366 l -119.89712,1.49468 c -1.03268,0.0141 -1.88826,-0.81488 -1.90037,-1.85561 l -0.40556,-32.37674 c -0.0107,-1.0372 0.82016,-1.88937 1.85731,-1.90525 l 119.89785,-1.49288"
       style="fill:#000000;fill-opacity:1;fill-rule:nonzero;stroke:none;stroke-width:0.484008"
       id="path13770-2-3" />
    <text
       xml:space="preserve"
       transform="matrix(0.6714021,0,0,0.6714021,850.25817,-1527.0595)"
       id="text2227-8-1"
       style="font-style:normal;font-weight:normal;font-size:40px;line-height:1.25;font-family:sans-serif;letter-spacing:1.97038px;white-space:pre;shape-inside:url(#rect2229-2-2);fill:#fefdfd;fill-opacity:1;stroke:#000000;stroke-width:2.23413;stroke-miterlimit:4;stroke-dasharray:none;stroke-opacity:0.986133"
       x="68.920662"
       y="0"><tspan
         x="-1034.6726"
         y="2652.389"
         id="tspan10839"><tspan
           style="font-family:'Coconut Days';-inkscape-font-specification:'Coconut Days';text-align:center;text-anchor:middle"
           id="tspan10837">CHILL</tspan></tspan></text>
  </g>
</svg>
