<?xml version="1.0" encoding="UTF-8" standalone="no"?>
<!-- Created with Inkscape (http://www.inkscape.org/) -->

<svg
   viewBox="0 0 165.92063 182.97887"
   version="1.1"
   id="svg11606"
   width="165.92062"
   height="182.97887"
   sodipodi:docname="chill-sign.svg"
   inkscape:version="1.1.2 (0a00cf5339, 2022-02-04)"
   xmlns:inkscape="http://www.inkscape.org/namespaces/inkscape"
   xmlns:sodipodi="http://sodipodi.sourceforge.net/DTD/sodipodi-0.dtd"
   xmlns:xlink="http://www.w3.org/1999/xlink"
   xmlns="http://www.w3.org/2000/svg"
   xmlns:svg="http://www.w3.org/2000/svg">
  <sodipodi:namedview
     id="namedview2096"
     pagecolor="#ffffff"
     bordercolor="#666666"
     borderopacity="1.0"
     inkscape:pageshadow="2"
     inkscape:pageopacity="0.0"
     inkscape:pagecheckerboard="0"
     showgrid="false"
     inkscape:zoom="2.632412"
     inkscape:cx="143.02472"
     inkscape:cy="-0.37987974"
     inkscape:window-width="2560"
     inkscape:window-height="1573"
     inkscape:window-x="0"
     inkscape:window-y="-10"
     inkscape:window-maximized="1"
     inkscape:current-layer="svg11606"
     fit-margin-top="0"
     fit-margin-left="0"
     fit-margin-right="0"
     fit-margin-bottom="0" />
  <defs
     id="defs11603">
    <linearGradient
       xlink:href="#linearGradient13638"
       id="linearGradient9695"
       gradientUnits="userSpaceOnUse"
       gradientTransform="matrix(-11.684163,-0.19096588,-0.04088573,54.573479,217.05574,248.46084)"
       x1="0"
       y1="0"
       x2="1"
       y2="0"
       spreadMethod="pad" />
    <linearGradient
       x1="0"
       y1="0"
       x2="1"
       y2="0"
       gradientUnits="userSpaceOnUse"
       gradientTransform="matrix(-33.120462,-0.54132061,-0.11589655,154.69648,-166.48914,998.07151)"
       spreadMethod="pad"
       id="linearGradient13638">
      <stop
         style="stop-opacity:1;stop-color:#0d0d1c"
         offset="0"
         id="stop13618" />
      <stop
         style="stop-opacity:1;stop-color:#121221"
         offset="0.0757576"
         id="stop13620" />
      <stop
         style="stop-opacity:1;stop-color:#ffffff"
         offset="0.111111"
         id="stop13622" />
      <stop
         style="stop-opacity:1;stop-color:#ffffff"
         offset="0.166667"
         id="stop13624" />
      <stop
         style="stop-opacity:1;stop-color:#4b4b59"
         offset="0.222222"
         id="stop13626" />
      <stop
         style="stop-opacity:1;stop-color:#9a9aa9"
         offset="0.590909"
         id="stop13628" />
      <stop
         style="stop-opacity:1;stop-color:#ffffff"
         offset="0.666667"
         id="stop13630" />
      <stop
         style="stop-opacity:1;stop-color:#ffffff"
         offset="0.813131"
         id="stop13632" />
      <stop
         style="stop-opacity:1;stop-color:#a0a0af"
         offset="0.878788"
         id="stop13634" />
      <stop
         style="stop-opacity:1;stop-color:#0d0d1c"
         offset="1"
         id="stop13636" />
    </linearGradient>
    <clipPath
       clipPathUnits="userSpaceOnUse"
       id="clipPath13680-2">
      <path
         d="m 1707.31,71.1094 -22.5,8.7422 4.79,12.3398 0.35,-0.1328 22.15,-8.6094 -4.79,-12.3398"
         id="path13678-7" />
    </clipPath>
    <clipPath
       clipPathUnits="userSpaceOnUse"
       id="clipPath13692-0">
      <path
         d="m 1712.1,83.4492 -22.15,8.6094 22.15,-8.5977 v -0.0117"
         id="path13690-9" />
    </clipPath>
    <clipPath
       clipPathUnits="userSpaceOnUse"
       id="clipPath13704-3">
      <path
         d="m 1767.86,215.57 -30.26,11.75 5.65,14.559 30.26,-11.75 -5.65,-14.559"
         id="path13702-6" />
    </clipPath>
    <clipPath
       clipPathUnits="userSpaceOnUse"
       id="clipPath13758-0">
      <path
         d="m 1655.06,368.93 c 1.92,4.953 7.49,7.41 12.44,5.484 l 235.69,-91.516 c 2.47,-0.96 5.79,-3.433 7.41,-5.55 l 43.1,-56.055 c 4.85,-6.309 2.43,-12.555 -5.41,-13.938 l -69.64,-12.289 c -2.61,-0.457 -6.74,-0.054 -9.21,0.911 l -235.69,91.507 c -4.95,1.926 -7.41,7.493 -5.49,12.442 z"
         id="path13756-6" />
    </clipPath>
    <rect
       x="-1043.1545"
       y="2611.0254"
       width="1287.0983"
       height="880.00903"
       id="rect2229-2" />
    <clipPath
       clipPathUnits="userSpaceOnUse"
       id="clipPath13680-2-2">
      <path
         d="m 1707.31,71.1094 -22.5,8.7422 4.79,12.3398 0.35,-0.1328 22.15,-8.6094 -4.79,-12.3398"
         id="path13678-7-6" />
    </clipPath>
    <clipPath
       clipPathUnits="userSpaceOnUse"
       id="clipPath13692-0-1">
      <path
         d="m 1712.1,83.4492 -22.15,8.6094 22.15,-8.5977 v -0.0117"
         id="path13690-9-8" />
    </clipPath>
    <clipPath
       clipPathUnits="userSpaceOnUse"
       id="clipPath13704-3-7">
      <path
         d="m 1767.86,215.57 -30.26,11.75 5.65,14.559 30.26,-11.75 -5.65,-14.559"
         id="path13702-6-9" />
    </clipPath>
    <clipPath
       clipPathUnits="userSpaceOnUse"
       id="clipPath13758-0-2">
      <path
         d="m 1655.06,368.93 c 1.92,4.953 7.49,7.41 12.44,5.484 l 235.69,-91.516 c 2.47,-0.96 5.79,-3.433 7.41,-5.55 l 43.1,-56.055 c 4.85,-6.309 2.43,-12.555 -5.41,-13.938 l -69.64,-12.289 c -2.61,-0.457 -6.74,-0.054 -9.21,0.911 l -235.69,91.507 c -4.95,1.926 -7.41,7.493 -5.49,12.442 z"
         id="path13756-6-0" />
    </clipPath>
    <rect
       x="-1043.1545"
       y="2611.0254"
       width="156.80421"
       height="442.13153"
       id="rect2229-2-2" />
    <linearGradient
       xlink:href="#linearGradient13638"
       id="linearGradient1711"
       gradientUnits="userSpaceOnUse"
       gradientTransform="matrix(-11.684163,-0.19096588,-0.04088573,54.573479,217.05574,248.46084)"
       x1="0"
       y1="0"
       x2="1"
       y2="0"
       spreadMethod="pad" />
  </defs>
  <path
     class="st0"
     d="M 72.004605,182.97886 H 60.3536 V 14.95516 c 0,-1.522402 1.500228,-2.759354 3.346663,-2.759354 h 4.957679 c 1.846435,0 3.346663,1.236952 3.346663,2.759354 z"
     id="path8634"
     style="stroke-width:0.419152" />
  <g
     class="st1"
     id="g8708"
     transform="matrix(0.46160878,0,0,0.3806005,58.419459,11.099677)">
    <g
       class="st2"
       id="g8640">
      <path
         class="st3"
         d="m 15.02,215.7 c 0.17,5.19 0.4,9.72 0.7,13.12 0,-0.01 -0.33,-4.95 -0.7,-13.12 z"
         id="path8636" />
      <path
         class="st3"
         d="m 15.45,228.83 c -0.28,-3.2 -0.52,-7.62 -0.7,-13.14 h 0.55 c 0.36,8.07 0.7,13.06 0.7,13.11 z"
         id="path8638" />
    </g>
    <g
       class="st2"
       id="g8646">
      <path
         class="st3"
         d="m 14.67,146.6 c -1.13,26.85 -0.34,53.71 0.35,69.1 -0.87,-26.14 -0.35,-69.1 -0.35,-69.1 z"
         id="path8642" />
      <path
         class="st3"
         d="M 14.75,215.7 C 14.12,201.66 13.24,174 14.4,146.57 l 0.55,0.05 c -0.01,0.43 -0.51,43.25 0.35,69.08 z"
         id="path8644" />
    </g>
    <g
       class="st2"
       id="g8652">
      <path
         class="st3"
         d="m 20.21,248.24 c -0.09,-5.6 -0.21,-11.19 -0.28,-16.78 0.01,4.81 0.02,10.67 0.03,16.32 0.08,0.15 0.16,0.31 0.25,0.46 z"
         id="path8648" />
      <path
         class="st3"
         d="m 19.68,247.86 v -0.1 c -0.01,-5.64 -0.02,-11.51 -0.03,-16.31 l 0.55,0.03 c 0.04,3.22 0.1,6.44 0.16,9.66 0.04,2.37 0.09,4.74 0.12,7.12 l 0.02,1.11 -0.58,-1.08 c -0.06,-0.11 -0.12,-0.23 -0.19,-0.34 z"
         id="path8650" />
    </g>
    <g
       class="st2"
       id="g8658">
      <path
         class="st3"
         d="m 19.92,231.46 c -0.01,-5.23 -0.03,-9.21 -0.04,-10.29 -0.02,3.43 0,6.86 0.04,10.29 z"
         id="path8654" />
      <path
         class="st3"
         d="m 19.65,231.45 c -0.05,-3.96 -0.06,-7.24 -0.04,-10.3 l 0.55,0.03 c 0.01,1.02 0.03,4.68 0.04,10.3 z"
         id="path8656" />
    </g>
    <g
       class="st2"
       id="g8664">
      <path
         class="st3"
         d="M 15.4,90.21 C 14.52,67.67 15.02,30.65 15.02,30.65 13.9,53.78 14.71,76.93 15.4,90.21 Z"
         id="path8660" />
      <path
         class="st3"
         d="M 15.13,90.21 C 14.5,78.09 13.61,54.24 14.75,30.61 l 0.55,0.05 c -0.01,0.37 -0.49,37.27 0.38,59.54 z"
         id="path8662" />
    </g>
    <g
       class="st2"
       id="g8670">
      <path
         class="st3"
         d="m 15.4,90.21 c 0.18,4.48 0.41,8.38 0.71,11.31 0,0 -0.34,-4.27 -0.71,-11.31 z"
         id="path8666" />
      <path
         class="st3"
         d="M 15.83,101.54 C 15.55,98.79 15.31,94.97 15.12,90.2 h 0.55 c 0.36,6.96 0.7,11.26 0.7,11.3 z"
         id="path8668" />
    </g>
    <g
       class="st2"
       id="g8676">
      <path
         class="st3"
         d="m 17.59,124.87 c 0.01,5.35 0.03,10.7 0.04,16.05 0.03,10.81 0.06,21.62 0.08,32.42 0.06,-17.53 0.12,-35.07 0.17,-52.6 0.01,-3.52 0.11,-7.74 -0.23,-11.17 -0.49,3.25 -0.07,11.34 -0.06,15.3 z"
         id="path8672" />
      <path
         class="st3"
         d="m 17.45,173.33 -0.13,-48.48 c 0,-1.1 -0.04,-2.54 -0.07,-4.06 -0.1,-3.97 -0.22,-8.91 0.15,-11.28 l 0.32,-2.11 0.22,2.16 c 0.29,2.91 0.27,6.41 0.24,9.5 0,0.58 -0.01,1.15 -0.01,1.71 L 18,173.37 Z"
         id="path8674" />
    </g>
    <g
       class="st2"
       id="g8682">
      <path
         class="st3"
         d="m 13.23,98.11 c 0.09,7.5 -0.01,15.02 -0.03,22.51 0.34,-1.19 0.38,-2.76 0.4,-4.24 0.09,-6.05 0,-12.22 -0.37,-18.27 z"
         id="path8678" />
      <path
         class="st3"
         d="m 12.93,122.63 0.01,-2.02 c 0.01,-2.19 0.02,-4.39 0.03,-6.58 0.03,-5.22 0.06,-10.62 -0.01,-15.92 h 0.55 c 0.34,5.59 0.46,11.74 0.38,18.3 -0.02,1.59 -0.07,3.12 -0.42,4.34 z"
         id="path8680" />
    </g>
    <g
       class="st2"
       id="g8688">
      <path
         class="st3"
         d="M 12.85,10.33 C 12.82,9.31 12.78,8.29 12.74,7.28 c 0.02,1.01 0.06,2.03 0.11,3.05 z"
         id="path8684" />
      <path
         class="st3"
         d="M 12.58,10.34 C 12.52,9.17 12.48,8.19 12.47,7.27 l 0.55,0.01 c 0.04,1.02 0.07,2.03 0.11,3.06 z"
         id="path8686" />
    </g>
    <g
       class="st2"
       id="g8694">
      <path
         class="st3"
         d="m 13.33,21.85 c 0.13,-3.78 -0.28,-7.67 -0.48,-11.52 0.13,3.85 0.23,7.71 0.48,11.52 z"
         id="path8690" />
      <path
         class="st3"
         d="M 13.06,21.86 C 12.84,18.48 12.73,15.01 12.62,11.65 l -0.04,-1.32 h 0.55 c 0.06,1.06 0.13,2.12 0.2,3.18 0.19,2.76 0.38,5.61 0.28,8.38 z"
         id="path8692" />
    </g>
    <g
       class="st2"
       id="g8700">
      <path
         class="st3"
         d="m 18.06,35.05 c 0.06,-1.41 0.07,-2.83 0.02,-4.25 -0.09,1.3 -0.17,2.6 -0.26,3.9 z"
         id="path8696" />
      <path
         class="st3"
         d="m 17.54,34.78 0.27,-4.03 0.54,0.04 c 0.05,1.43 0.05,2.87 -0.02,4.28 L 18.3,35.9 Z"
         id="path8698" />
    </g>
    <g
       class="st2"
       id="g8706">
      <path
         class="st3"
         d="M 7.92,29.16 C 8.05,41.2 8.07,53.27 8.14,65.31 8.33,63.38 8.34,60.86 8.33,58.48 8.32,48.75 8.2,38.85 7.92,29.16 Z"
         id="path8702" />
      <path
         class="st3"
         d="M 7.87,65.29 C 7.85,61.77 7.83,58.25 7.82,54.73 7.78,46.34 7.74,37.67 7.65,29.15 l 0.55,0.02 c 0.26,8.95 0.4,18.82 0.42,29.33 0,2.42 -0.01,4.94 -0.2,6.87 z"
         id="path8704" />
    </g>
  </g>
  <g
     class="st1"
     id="g8770"
     transform="matrix(0.46160878,0,0,0.3806005,58.419459,11.099677)">
    <g
       class="st2"
       id="g8714">
      <path
         class="st3"
         d="m 27.29,60.9 c -0.17,-5.2 -0.4,-9.74 -0.7,-13.14 0,0.01 0.34,4.96 0.7,13.14 z"
         id="path8710" />
      <path
         class="st3"
         d="m 27.02,60.9 c -0.36,-8.08 -0.7,-13.08 -0.7,-13.13 l 0.54,-0.03 c 0.28,3.2 0.52,7.63 0.7,13.16 z"
         id="path8712" />
    </g>
    <g
       class="st2"
       id="g8720">
      <path
         class="st3"
         d="m 27.66,130.11 c 1.13,-26.89 0.32,-53.79 -0.37,-69.2 0.88,26.17 0.37,69.2 0.37,69.2 z"
         id="path8716" />
      <path
         class="st3"
         d="m 27.39,130.09 c 0,-0.43 0.5,-43.32 -0.37,-69.19 h 0.55 c 0.63,14.07 1.52,41.77 0.37,69.24 z"
         id="path8718" />
    </g>
    <g
       class="st2"
       id="g8726">
      <path
         class="st3"
         d="m 22.09,10.16 c -0.24,11.74 0.15,23.35 0.3,34.95 -0.04,-14.12 -0.07,-37.35 0,-37.36 -0.21,0.03 -0.28,1.35 -0.3,2.41 z"
         id="path8722" />
      <path
         class="st3"
         d="M 22.11,45.1 C 22.07,41.87 22.01,38.65 21.95,35.42 21.8,27.16 21.64,18.62 21.81,10.14 v 0 c 0.05,-2.16 0.22,-2.59 0.44,-2.68 0.03,-0.02 0.06,-0.02 0.1,-0.02 l 0.04,0.32 0.27,0.07 c -0.06,0.67 -0.04,22.18 0,37.3 z"
         id="path8724" />
    </g>
    <g
       class="st2"
       id="g8732">
      <path
         class="st3"
         d="m 22.38,45.11 c 0.01,5.23 0.03,9.22 0.04,10.31 0.03,-3.44 0.01,-6.87 -0.04,-10.31 z"
         id="path8728" />
      <path
         class="st3"
         d="M 22.16,55.41 C 22.15,54.38 22.13,50.62 22.12,45.1 l 0.55,0.03 c 0.05,3.97 0.06,7.25 0.04,10.32 z"
         id="path8730" />
    </g>
    <g
       class="st2"
       id="g8738">
      <path
         class="st3"
         d="m 25.21,23.4 c 0.09,-1.3 0.17,-2.6 0.26,-3.9 l -0.24,-0.36 c -0.07,1.42 -0.08,2.84 -0.02,4.26 z"
         id="path8734" />
      <path
         class="st3"
         d="m 24.93,23.4 c -0.05,-1.43 -0.05,-2.87 0.02,-4.29 l 0.04,-0.83 0.76,1.12 -0.27,4.03 z"
         id="path8736" />
    </g>
    <g
       class="st2"
       id="g8744">
      <path
         class="st3"
         d="m 26.94,186.58 c 0.89,22.57 0.39,59.65 0.39,59.65 1.12,-23.17 0.3,-46.35 -0.39,-59.65 z"
         id="path8740" />
      <path
         class="st3"
         d="m 27.05,246.21 c 0.01,-0.37 0.49,-37.33 -0.39,-59.63 h 0.55 c 0.64,12.13 1.53,36.02 0.39,59.69 z"
         id="path8742" />
    </g>
    <g
       class="st2"
       id="g8750">
      <path
         class="st3"
         d="m 26.94,186.58 c -0.18,-4.48 -0.41,-8.4 -0.71,-11.33 0,0 0.34,4.27 0.71,11.33 z"
         id="path8746" />
      <path
         class="st3"
         d="m 26.66,186.58 c -0.37,-6.97 -0.7,-11.28 -0.71,-11.32 l 0.54,-0.04 c 0.28,2.76 0.52,6.58 0.71,11.35 z"
         id="path8748" />
    </g>
    <g
       class="st2"
       id="g8756">
      <path
         class="st3"
         d="m 24.74,151.86 c -0.02,-5.36 -0.03,-10.72 -0.05,-16.08 -0.03,-10.82 -0.06,-21.65 -0.09,-32.47 -0.05,17.56 -0.11,35.12 -0.16,52.68 -0.01,3.52 -0.11,7.75 0.24,11.18 0.49,-3.24 0.07,-11.34 0.06,-15.31 z"
         id="path8752" />
      <path
         class="st3"
         d="M 24.62,169.36 24.4,167.2 c -0.29,-2.91 -0.27,-6.41 -0.25,-9.51 0,-0.59 0.01,-1.16 0.01,-1.72 l 0.16,-52.68 0.55,0.03 0.14,48.55 c 0,1.1 0.04,2.55 0.08,4.08 0.1,3.97 0.22,8.92 -0.14,11.29 z"
         id="path8754" />
    </g>
    <g
       class="st2"
       id="g8762">
      <path
         class="st3"
         d="m 29.1,178.66 c -0.1,-7.51 0,-15.04 0.02,-22.54 -0.34,1.2 -0.38,2.76 -0.4,4.25 -0.08,6.06 0.02,12.23 0.38,18.29 z"
         id="path8758" />
      <path
         class="st3"
         d="m 28.83,178.67 c -0.34,-5.6 -0.47,-11.77 -0.38,-18.32 0.02,-1.59 0.07,-3.12 0.42,-4.34 l 0.54,-1.89 -0.01,2.03 c -0.01,2.19 -0.02,4.38 -0.03,6.58 -0.03,5.23 -0.06,10.64 0.01,15.96 z"
         id="path8760" />
    </g>
    <g
       class="st2"
       id="g8768">
      <path
         class="st3"
         d="m 24.29,241.82 c -0.06,1.41 -0.07,2.84 -0.02,4.26 0.09,-1.3 0.17,-2.6 0.26,-3.9 z"
         id="path8764" />
      <path
         class="st3"
         d="m 23.99,246.08 c -0.05,-1.43 -0.05,-2.87 0.02,-4.29 l 0.04,-0.83 0.76,1.12 -0.27,4.03 z"
         id="path8766" />
    </g>
  </g>
  <g
     class="st2"
     id="g8776"
     transform="matrix(0.46160878,0,0,0.3806005,58.419459,11.099677)">
    <path
       class="st3"
       d="m 10.06,359.44 c 0.17,5.2 0.4,9.74 0.7,13.14 0.01,0 -0.33,-4.95 -0.7,-13.14 z"
       id="path8772" />
    <path
       class="st3"
       d="m 10.5,372.6 c -0.28,-3.19 -0.52,-7.62 -0.7,-13.16 h 0.55 c 0.36,8.08 0.7,13.08 0.7,13.13 z"
       id="path8774" />
  </g>
  <g
     class="st2"
     id="g8782"
     transform="matrix(0.46160878,0,0,0.3806005,58.419459,11.099677)">
    <path
       class="st3"
       d="m 9.7,290.24 c -1.13,26.89 -0.32,53.79 0.37,69.2 C 9.19,333.26 9.7,290.24 9.7,290.24 Z"
       id="path8778" />
    <path
       class="st3"
       d="M 9.79,359.44 C 9.16,345.37 8.27,317.67 9.42,290.2 l 0.55,0.05 c 0,0.43 -0.5,43.32 0.37,69.19 z"
       id="path8780" />
  </g>
  <g
     class="st2"
     id="g8788"
     transform="matrix(0.46160878,0,0,0.3806005,58.419459,11.099677)">
    <path
       class="st3"
       d="m 15.27,410.18 c 0.24,-11.74 -0.15,-23.35 -0.3,-34.95 0.04,14.12 0.07,37.35 0,37.36 0.2,-0.02 0.28,-1.34 0.3,-2.41 z"
       id="path8784" />
    <path
       class="st3"
       d="m 14.7,412.52 c 0.06,-0.67 0.04,-22.18 0,-37.3 l 0.55,0.03 c 0.04,3.22 0.1,6.45 0.16,9.67 0.15,8.26 0.31,16.8 0.14,25.29 -0.04,2.16 -0.21,2.59 -0.44,2.69 -0.03,0.02 -0.06,0.02 -0.1,0.02 l -0.04,-0.32 z"
       id="path8786" />
  </g>
  <g
     class="st2"
     id="g8794"
     transform="matrix(0.46160878,0,0,0.3806005,58.419459,11.099677)">
    <path
       class="st3"
       d="m 14.97,375.23 c -0.01,-5.23 -0.03,-9.22 -0.04,-10.31 -0.02,3.44 0,6.88 0.04,10.31 z"
       id="path8790" />
    <path
       class="st3"
       d="m 14.7,375.22 c -0.05,-3.97 -0.07,-7.25 -0.05,-10.32 l 0.55,0.03 c 0.01,1.05 0.03,4.91 0.05,10.31 z"
       id="path8792" />
  </g>
  <g
     class="st2"
     id="g8800"
     transform="matrix(0.46160878,0,0,0.3806005,58.419459,11.099677)">
    <path
       class="st3"
       d="m 12.15,396.94 c -0.09,1.3 -0.17,2.6 -0.26,3.9 l 0.24,0.36 c 0.07,-1.41 0.07,-2.84 0.02,-4.26 z"
       id="path8796" />
    <path
       class="st3"
       d="m 11.61,400.93 0.27,-4.03 0.54,0.04 c 0.05,1.43 0.05,2.87 -0.02,4.29 l -0.04,0.82 z"
       id="path8798" />
  </g>
  <g
     class="st2"
     id="g8806"
     transform="matrix(0.46160878,0,0,0.3806005,58.419459,11.099677)">
    <path
       class="st3"
       d="m 10.42,233.76 c 0.18,4.48 0.41,8.4 0.71,11.33 0,0 -0.34,-4.27 -0.71,-11.33 z"
       id="path8802" />
    <path
       class="st3"
       d="m 10.86,245.12 c -0.28,-2.76 -0.52,-6.58 -0.71,-11.35 h 0.55 c 0.37,6.97 0.7,11.28 0.71,11.32 z"
       id="path8804" />
  </g>
  <g
     class="st2"
     id="g8812"
     transform="matrix(0.46160878,0,0,0.3806005,58.419459,11.099677)">
    <path
       class="st3"
       d="m 12.62,268.48 c 0.02,5.36 0.03,10.72 0.05,16.08 0.03,10.82 0.06,21.65 0.09,32.47 0.05,-17.56 0.11,-35.12 0.16,-52.68 0.01,-3.52 0.11,-7.75 -0.24,-11.18 -0.49,3.24 -0.07,11.35 -0.06,15.31 z"
       id="path8808" />
    <path
       class="st3"
       d="m 12.48,317.02 -0.14,-48.55 c 0,-1.1 -0.04,-2.55 -0.08,-4.08 -0.1,-3.97 -0.22,-8.92 0.14,-11.29 l 0.32,-2.11 0.22,2.16 c 0.29,2.91 0.27,6.42 0.25,9.51 0,0.58 -0.01,1.15 -0.01,1.71 l -0.16,52.68 z"
       id="path8810" />
  </g>
  <g
     class="st2"
     id="g8818"
     transform="matrix(0.46160878,0,0,0.3806005,58.419459,11.099677)">
    <path
       class="st3"
       d="m 8.13,229.8 c 0.14,11.47 0.08,22.97 0.11,34.43 0.33,-1.83 0.37,-4.23 0.38,-6.5 0.04,-9.27 -0.09,-18.69 -0.49,-27.93 z"
       id="path8814" />
    <path
       class="st3"
       d="m 7.97,267.25 -0.01,-3.04 c -0.01,-3.36 -0.01,-6.72 -0.01,-10.08 0,-7.98 0,-16.24 -0.1,-24.35 l 0.55,0.01 c 0.37,8.53 0.53,17.94 0.48,27.95 -0.01,2.31 -0.05,4.72 -0.38,6.56 z"
       id="path8816" />
  </g>
  <g
     class="st2"
     id="g8824"
     transform="matrix(0.46160878,0,0,0.3806005,58.419459,11.099677)">
    <path
       class="st3"
       d="m 21.43,84.32 c 0.13,-3.79 -0.28,-7.68 -0.48,-11.53 0.12,3.84 0.23,7.71 0.48,11.53 z"
       id="path8820" />
    <path
       class="st3"
       d="M 21.16,84.33 C 20.94,80.94 20.82,77.46 20.72,74.09 l -0.04,-1.3 h 0.55 c 0.06,1.05 0.13,2.11 0.2,3.17 0.19,2.77 0.38,5.63 0.28,8.4 z"
       id="path8822" />
  </g>
  <g
     class="st2"
     id="g8830"
     transform="matrix(0.46160878,0,0,0.3806005,58.419459,11.099677)">
    <path
       class="st3"
       d="m 22.34,187.98 c 0.06,-1.41 0.07,-2.84 0.02,-4.26 -0.09,1.3 -0.17,2.6 -0.26,3.9 z"
       id="path8826" />
    <path
       class="st3"
       d="m 21.82,187.71 0.27,-4.03 0.54,0.04 c 0.05,1.43 0.05,2.87 -0.02,4.29 l -0.04,0.83 z"
       id="path8828" />
  </g>
  <g
     class="st2"
     id="g8836"
     transform="matrix(0.46160878,0,0,0.3806005,58.419459,11.099677)">
    <path
       class="st3"
       d="m 22.71,210.57 c -0.03,-0.01 -0.06,-0.01 -0.09,-0.02 0.62,26.22 0.19,62.74 0.19,62.74 0.98,-23.44 0.49,-46.88 -0.1,-62.72 z"
       id="path8832" />
    <path
       class="st3"
       d="m 22.53,273.27 c 0,-0.36 0.43,-36.82 -0.18,-62.73 l -0.01,-0.39 0.55,0.13 0.09,0.29 c 0.59,15.63 1.09,39.2 0.1,62.75 z"
       id="path8834" />
  </g>
  <g
     class="st2"
     id="g8842"
     transform="matrix(0.46160878,0,0,0.3806005,58.419459,11.099677)">
    <path
       class="st3"
       d="M 7.9,195.31 C 7.47,143.93 6.97,82.97 7.03,82.94 c -0.2,0.11 -0.24,5.14 -0.23,9.19 0.09,34.61 0.55,68.85 0.99,103.02 0.04,0.05 0.07,0.11 0.11,0.16 z"
       id="path8838" />
    <path
       class="st3"
       d="M 7.52,195.25 7.43,188.2 C 7.03,156.82 6.61,124.38 6.53,92.11 6.51,82.85 6.7,82.75 6.91,82.64 v 0 l 0.12,0.3 0.27,0.05 c -0.05,0.91 0.4,57.08 0.87,112.34 l 0.01,0.93 z"
       id="path8840" />
  </g>
  <g
     class="st2"
     id="g8848"
     transform="matrix(0.46160878,0,0,0.3806005,58.419459,11.099677)">
    <path
       class="st3"
       d="m 12.01,210.55 c 0.01,5.23 0.03,9.22 0.04,10.31 0.03,-3.44 0.01,-6.88 -0.04,-10.31 z"
       id="path8844" />
    <path
       class="st3"
       d="m 11.79,220.85 c -0.01,-1.03 -0.03,-4.79 -0.04,-10.31 l 0.55,0.03 c 0.05,3.97 0.06,7.25 0.04,10.32 z"
       id="path8846" />
  </g>
  <g
     class="st2"
     id="g8854"
     transform="matrix(0.46160878,0,0,0.3806005,58.419459,11.099677)">
    <path
       class="st3"
       d="m 22.08,329.77 c 0.89,22.57 0.39,59.65 0.39,59.65 1.12,-23.17 0.31,-46.36 -0.39,-59.65 z"
       id="path8850" />
    <path
       class="st3"
       d="m 22.2,389.39 c 0.01,-0.37 0.49,-37.33 -0.39,-59.63 h 0.55 c 0.64,12.14 1.53,36.03 0.39,59.69 z"
       id="path8852" />
  </g>
  <g
     class="st2"
     id="g8860"
     transform="matrix(0.46160878,0,0,0.3806005,58.419459,11.099677)">
    <path
       class="st3"
       d="m 22.08,329.77 c -0.18,-4.48 -0.41,-8.4 -0.71,-11.33 0.01,0 0.34,4.27 0.71,11.33 z"
       id="path8856" />
    <path
       class="st3"
       d="m 21.81,329.77 c -0.37,-6.97 -0.7,-11.28 -0.71,-11.32 l 0.54,-0.04 c 0.28,2.75 0.52,6.57 0.71,11.35 z"
       id="path8858" />
  </g>
  <g
     class="st2"
     id="g8866"
     transform="matrix(0.46160878,0,0,0.3806005,58.419459,11.099677)">
    <path
       class="st3"
       d="m 19.88,295.05 c -0.02,-5.36 -0.03,-10.72 -0.05,-16.08 -0.03,-10.82 -0.06,-21.65 -0.09,-32.47 -0.05,17.56 -0.11,35.12 -0.16,52.68 -0.01,3.52 -0.11,7.75 0.24,11.18 0.5,-3.24 0.07,-11.35 0.06,-15.31 z"
       id="path8862" />
    <path
       class="st3"
       d="m 19.76,312.54 -0.22,-2.16 c -0.29,-2.91 -0.27,-6.42 -0.25,-9.51 0,-0.58 0.01,-1.15 0.01,-1.71 l 0.16,-52.68 0.55,0.03 0.14,48.55 c 0,1.1 0.04,2.54 0.08,4.07 0.1,3.98 0.22,8.93 -0.14,11.3 z"
       id="path8864" />
  </g>
  <g
     class="st2"
     id="g8872"
     transform="matrix(0.46160878,0,0,0.3806005,58.419459,11.099677)">
    <path
       class="st3"
       d="m 24.25,321.85 c -0.1,-7.51 0,-15.04 0.02,-22.54 -0.34,1.2 -0.38,2.76 -0.4,4.25 -0.08,6.06 0.01,12.23 0.38,18.29 z"
       id="path8868" />
    <path
       class="st3"
       d="m 23.97,321.85 c -0.34,-5.6 -0.47,-11.76 -0.38,-18.32 0.02,-1.59 0.07,-3.12 0.41,-4.34 l 0.54,-1.89 v 2.02 c -0.01,2.2 -0.02,4.39 -0.03,6.59 -0.03,5.23 -0.06,10.63 0.01,15.95 z"
       id="path8870" />
  </g>
  <g
     class="st2"
     id="g8878"
     transform="matrix(0.46160878,0,0,0.3806005,58.419459,11.099677)">
    <path
       class="st3"
       d="m 24.65,409.76 c 0.03,1.02 0.07,2.04 0.11,3.06 -0.02,-1.02 -0.06,-2.04 -0.11,-3.06 z"
       id="path8874" />
    <path
       class="st3"
       d="m 24.48,412.82 c -0.04,-1.02 -0.07,-2.04 -0.11,-3.06 h 0.55 c 0.06,1.17 0.1,2.15 0.11,3.07 z"
       id="path8876" />
  </g>
  <g
     class="st2"
     id="g8884"
     transform="matrix(0.46160878,0,0,0.3806005,58.419459,11.099677)">
    <path
       class="st3"
       d="m 24.16,398.23 c -0.13,3.79 0.28,7.68 0.48,11.53 -0.12,-3.85 -0.22,-7.72 -0.48,-11.53 z"
       id="path8880" />
    <path
       class="st3"
       d="m 24.37,409.77 c -0.06,-1.06 -0.13,-2.12 -0.2,-3.18 -0.19,-2.76 -0.38,-5.62 -0.28,-8.39 l 0.54,0.02 c 0.22,3.38 0.34,6.86 0.44,10.22 l 0.04,1.33 z"
       id="path8882" />
  </g>
  <g
     class="st2"
     id="g8890"
     transform="matrix(0.46160878,0,0,0.3806005,58.419459,11.099677)">
    <path
       class="st3"
       d="m 19.43,385.01 c -0.06,1.41 -0.07,2.84 -0.02,4.26 0.09,-1.3 0.17,-2.6 0.26,-3.9 z"
       id="path8886" />
    <path
       class="st3"
       d="m 19.14,389.26 c -0.05,-1.43 -0.05,-2.87 0.02,-4.29 l 0.04,-0.82 0.76,1.12 -0.27,4.03 z"
       id="path8888" />
  </g>
  <g
     class="st1"
     id="g8896"
     transform="matrix(0.46160878,0,0,0.37459483,58.419459,13.29535)">
    <path
       class="st3"
       d="m 4.68,365.95 c 0.39,47.86 0.56,86.2 0.56,86.2 C 5.38,422.89 5.29,393.65 5.07,366 4.94,365.98 4.81,365.97 4.68,365.95 Z"
       id="path8892" />
    <path
       class="st3"
       d="m 4.96,452.13 c 0,-0.38 -0.17,-38.88 -0.56,-86.19 v -0.34 l 0.93,0.1 v 0.31 c 0.24,30.32 0.3,59.31 0.17,86.16 z"
       id="path8894" />
  </g>
  <g
     class="st1"
     id="g8902"
     transform="matrix(0.46160878,0,0,0.3806005,58.419459,11.099677)">
    <path
       class="st3"
       d="m 15.26,439.1 c 0.01,-0.02 0.02,-0.03 0.03,-0.04 -0.04,-6.57 0.03,-13.14 0.04,-19.7 -0.34,1.2 -0.38,2.76 -0.4,4.25 -0.07,5.17 0,10.42 0.25,15.61 0.03,-0.03 0.06,-0.07 0.08,-0.12 z"
       id="path8898" />
    <path
       class="st3"
       d="m 14.98,440.09 -0.07,-0.86 c -0.24,-4.98 -0.32,-10.24 -0.25,-15.64 0.02,-1.59 0.07,-3.12 0.41,-4.34 l 0.54,-1.89 v 2.02 c 0,2.1 -0.02,4.19 -0.03,6.29 -0.02,4.39 -0.05,8.93 -0.01,13.4 v 0.11 z"
       id="path8900" />
  </g>
  <g
     class="st1"
     id="g8908"
     transform="matrix(0.46160878,0,0,0.3806005,58.419459,11.099677)">
    <path
       class="st3"
       d="m 22.24,428.57 c -0.13,-6.65 -0.27,-13.28 -0.45,-19.86 -0.02,6.62 0.11,13.32 0.28,20.04 0.06,-0.06 0.12,-0.12 0.17,-0.18 z"
       id="path8904" />
    <path
       class="st3"
       d="m 21.83,429.61 -0.02,-0.86 c -0.15,-5.94 -0.3,-12.97 -0.28,-20.05 l 0.55,0.02 c 0.16,5.76 0.3,12.07 0.45,19.86 v 0.14 l -0.13,0.14 c -0.04,0.04 -0.07,0.07 -0.1,0.12 z"
       id="path8906" />
  </g>
  <g
     class="st1"
     id="g8914"
     transform="matrix(0.46160878,0,0,0.3806005,58.419459,11.099677)">
    <path
       class="st3"
       d="m 30.75,416.64 c -0.04,-6.59 -0.09,-13.19 -0.14,-19.78 -0.07,0 -0.15,0 -0.22,0 0.06,6.66 0.13,13.32 0.2,19.99 0.05,-0.08 0.1,-0.15 0.16,-0.21 z"
       id="path8910" />
    <path
       class="st3"
       d="m 24.32,446.67 -0.04,-3.77 c -0.06,-5.69 -0.11,-11.38 -0.17,-17.06 v -0.32 l 0.77,0.01 0.14,20.24 z"
       id="path8912" />
  </g>
  <path
     d="m 6.0284542,47.923377 c -3.3332,-0.009 -6.03560001,-2.73088 -6.028440004981,-6.06643 L 0.10101419,6.0317265 c 0.009,-3.33196 2.73146001,-6.03943999 6.06411001,-6.031709988911 L 128.54232,0.34586651 c 1.54707,0.004 3.71235,0.61671 5.03417,1.42307999 l 29.21512,17.8214905 c 2.02583,1.23392 3.13302,2.95116 3.129,4.82654 -4e-5,1.87235 -1.12793,3.57674 -3.15636,4.80118 l -29.31815,17.66169 c -1.32264,0.79449 -3.48768,1.39468 -5.04412,1.39335 L 6.0284542,47.923377"
     style="fill:#000000;fill-opacity:1;fill-rule:nonzero;stroke:none;stroke-width:0.484008"
     id="path1834" />
  <path
     d="M 1.4991725,6.0378773 C 1.5050419,3.4667814 3.5936331,1.3883268 6.1644174,1.397428 L 128.53726,1.7454796 c 1.28261,0.00407 3.21228,0.5437072 4.31217,1.2181928 l 29.216,17.8237516 c 3.28785,2.006225 3.281,5.248303 -0.0197,7.236418 l -29.31816,17.661682 c -1.09942,0.660319 -3.03496,1.196529 -4.31844,1.190206 L 6.0378624,46.531743 C 3.4670781,46.522642 1.3877902,44.435927 1.3943552,41.866638 L 1.4991725,6.0378773"
     style="fill:#faae38;fill-opacity:1;fill-rule:nonzero;stroke:none;stroke-width:0.484007"
     id="path1831" />
  <path
     d="M 128.80341,3.9098365 8.8974342,3.5704265 c -2.32058,-0.006 -4.21203,1.87067 -4.21487,4.19373 l -0.0937,32.3822505 c -0.004,2.32125 1.86963,4.20933 4.1916,4.21877 l 119.9052758,0.3376 c 1.16585,-0.003 2.91063,-0.48219 3.90339,-1.08279 l 26.49448,-15.95679 c 2.98888,-1.80119 2.99863,-4.72591 0.0226,-6.54205 L 132.70223,5.0107165 c -0.99491,-0.6039 -2.74056,-1.09667 -3.8986,-1.10045 z m -0.007,2.32657 c 0.73704,10e-4 2.06826,0.37426 2.69372,0.75947 l 26.39892,16.1108105 c 0.82619,0.50238 1.11391,1.00722 1.1121,1.28543 -0.003,0.27589 -0.29076,0.78043 -1.11553,1.27849 l -26.49848,15.95991 c -0.62153,0.37933 -1.95579,0.75302 -2.69631,0.7425 L 8.7851842,42.033637 c -1.03277,-0.002 -1.87557,-0.84366 -1.87176,-1.88446 l 0.0897,-32.3791505 c 0.005,-1.03724 0.84897,-1.87661 1.88624,-1.87662 l 119.9066558,0.34119"
     style="fill:#000000;fill-opacity:1;fill-rule:nonzero;stroke:none;stroke-width:0.484008"
     id="path1828" />
  <text
     xml:space="preserve"
     transform="matrix(0.6714021,0,0,0.6714021,714.95288,-1744.8997)"
     id="text2227-8-1"
     style="font-style:normal;font-weight:normal;font-size:40px;line-height:1.25;font-family:sans-serif;letter-spacing:1.97038px;white-space:pre;shape-inside:url(#rect2229-2-2);fill:#fefdfd;fill-opacity:1;stroke:#000000;stroke-width:2.23413;stroke-miterlimit:4;stroke-dasharray:none;stroke-opacity:0.986133"
     x="68.920662"
     y="0"><tspan
       x="-1034.6726"
       y="2652.389"
       id="tspan5678"><tspan
         style="font-family:'Coconut Days';-inkscape-font-specification:'Coconut Days';text-align:center;text-anchor:middle"
         id="tspan5676">CHILL</tspan></tspan></text>
  <style
     type="text/css"
     id="style8632">
	.st0{fill:#825F2C;}
	.st1{opacity:0.4;}
	.st2{opacity:0.76;}
	.st3{fill:#594040;}
</style>
</svg>
