<?xml version="1.0" encoding="UTF-8" standalone="no"?>
<!-- Created with Inkscape (http://www.inkscape.org/) -->

<svg
   viewBox="0 0 282.69406 63.539688"
   version="1.1"
   id="svg1510"
   xmlns="http://www.w3.org/2000/svg"
   xmlns:svg="http://www.w3.org/2000/svg">
  <defs
     id="defs1507" />
  <g
     id="layer1"
     transform="translate(-103.60142,-63.147682)">
    <g
       id="nonelastic"
       transform="matrix(0.26458333,0,0,0.26458333,-5.6370949,16.297912)">
      <g
         id="g1279">
        <path
           d="m 412.87,375.83 c 0.2,-29.94 4.82,-50.04 7.23,-72.55 3.01,-23.91 -6.83,-67.32 29.14,-67.32 11.05,0 15.07,0.8 22.11,2.61 l 6.83,1.81 c 0,0.2 -0.6,0 -0.6,0 1,-0.2 17.69,3.01 29.34,6.83 0.6,-8.84 2.01,-15.68 11.46,-15.68 4.62,0 9.45,3.22 11.25,10.05 -0.4,9.65 -0.8,19.49 -1.61,28.94 v 1.61 c 0,9.04 -1.61,17.69 -2.21,26.73 l -0.6,18.69 c -0.6,18.29 -0.8,38.79 -3.01,56.27 -2.01,5.43 -5.43,7.84 -9.45,7.84 -10.85,0 -11.25,-9.24 -11.25,-16.48 0,-34.37 1.81,-64.51 4.42,-98.47 -8.84,-4.22 -26.33,-5.83 -31.75,-8.24 h 0.2 l -4.42,-1 c -5.63,-1.21 -12.46,-3.42 -18.49,-3.22 -8.84,0 -11.05,5.23 -11.05,13.67 0,4.02 0.4,8.04 0.4,11.05 0,32.56 -8.04,59.69 -10.25,96.26 z"
           id="path1259" />
        <path
           d="m 527.82,269.32 0.8,-2.01 c 1.61,-2.61 4.42,-4.02 6.83,-4.02 4.42,0 6.63,3.62 8.24,8.04 3.62,-2.81 8.44,-3.82 13.26,-3.82 5.83,0 10.85,1.61 15.88,2.41 l 6.03,1 h -0.2 c 13.46,2.21 26.33,2.41 38.79,2.41 0.8,0 1.81,-0.2 2.61,-0.2 l 5.23,-0.6 c 2.41,-0.2 5.83,-0.2 8.24,-0.8 0.8,-5.63 4.42,-8.84 9.24,-8.84 3.01,0 6.43,1.61 8.84,5.02 l 2.21,6.63 v 1.81 c 0,2.21 0,3.62 -1.61,5.43 -0.2,24.92 -0.8,50.44 -1,75.16 -0.2,24.72 -9.65,31.15 -23.71,31.15 -6.63,0 -13.87,-1.61 -20.9,-3.01 -16.28,-3.42 -33.76,-5.23 -50.84,-6.43 h -3.42 c -6.83,-1.21 -10.45,-6.03 -10.45,-11.05 0,-3.42 1.61,-6.83 4.62,-8.84 -7.24,-4.42 -8.64,-19.49 -9.24,-27.53 l -0.4,-5.23 c -1.41,-17.89 -2.61,-35.77 -9.04,-53.46 l 1,1.21 z m 29.55,87.02 c 2.61,0 5.23,-0.6 8.04,-1.61 4.62,0 8.24,1.21 10.45,3.82 10.85,1.41 17.08,1.61 31.75,5.02 h -0.2 c 6.83,1.81 14.07,3.22 21.1,3.22 3.82,0 4.02,-49.84 4.02,-75.97 -6.03,1.21 -13.26,1.81 -19.49,1.81 -14.27,0 -28.14,-2.01 -37.58,-3.42 l -4.02,-1 c -4.22,-1 -10.25,-2.41 -13.87,-2.41 -3.42,0 -3.82,4.02 -3.82,15.68 0,3.22 0,6.23 0.2,9.65 v -0.6 l 3.82,20.5 c 0.8,4.22 2.21,9.65 2.21,14.87 0,4.21 -1.01,7.82 -2.61,10.44 z"
           id="path1261" />
        <path
           d="m 655.24,375.83 c 0.2,-29.94 4.82,-50.04 7.24,-72.55 3.01,-23.91 -6.83,-67.32 29.14,-67.32 11.05,0 15.07,0.8 22.11,2.61 l 6.83,1.81 c 0,0.2 -0.6,0 -0.6,0 1.01,-0.2 17.69,3.01 29.34,6.83 0.6,-8.84 2.01,-15.68 11.46,-15.68 4.62,0 9.45,3.22 11.25,10.05 -0.4,9.65 -0.8,19.49 -1.61,28.94 v 1.61 c 0,9.04 -1.61,17.69 -2.21,26.73 l -0.6,18.69 c -0.6,18.29 -0.8,38.79 -3.01,56.27 -2.01,5.43 -5.43,7.84 -9.45,7.84 -10.85,0 -11.25,-9.24 -11.25,-16.48 0,-34.37 1.81,-64.51 4.42,-98.47 -8.84,-4.22 -26.33,-5.83 -31.75,-8.24 h 0.2 l -4.42,-1 c -5.63,-1.21 -12.46,-3.42 -18.49,-3.22 -8.84,0 -11.05,5.23 -11.05,13.67 0,4.02 0.4,8.04 0.4,11.05 0,32.56 -8.04,59.69 -10.25,96.26 z"
           id="path1263" />
        <path
           d="m 834.11,328.8 c -6.63,0 -14.47,-0.2 -21.7,-3.62 3.82,33.36 10.25,40.8 29.74,40.8 7.64,0 16.08,-1 24.72,-1.21 l 29.34,-0.6 c 6.83,1.61 10.05,6.63 10.05,11.05 0,10.65 -11.86,12.06 -31.15,12.06 h -20.9 c -25.32,0 -34.77,-1.41 -43.21,-7.64 -19.9,-14.47 -20.9,-60.09 -20.9,-78.38 0.2,0.4 0.8,0.8 2.61,0.8 v -6.83 c -4.62,0 -6.03,0.4 -6.03,1.41 0,0.4 0.4,1 0.8,1.61 -3.62,-5.02 -10.25,-13.87 -10.25,-20.9 0,-11.25 9.85,-13.26 18.49,-13.26 12.46,0 24.52,0.4 37.78,0.4 9.85,0 27.73,-6.83 39.39,-6.83 18.69,0 18.69,13.26 18.69,23.91 v 3.82 c 0,1.81 0,3.01 -0.2,4.02 0.4,2.21 1.21,6.83 2.21,10.25 v -0.2 c 0.8,2.61 1.21,4.82 1.21,5.23 v 0.2 c 0.6,3.01 0.8,6.43 0.8,9.25 0,13.06 -23.31,15.68 -31.75,15.68 -5.63,0 -12.06,-0.4 -18.29,-1 h -11.45 z m -46.63,-30.54 0.4,0.6 z m 23.11,6.83 c 8.84,6.23 22.51,7.23 30.95,7.23 1.61,0 3.01,-0.2 4.02,-0.2 h 3.01 c 5.63,0 11.66,0.8 16.88,0.8 4.22,0 8.44,-0.4 11.86,-2.41 -2.21,-11.46 -3.42,-12.06 -4.22,-24.32 v -3.82 c 0,-1.21 0,-2.21 0,-3.01 0,-2.01 -0.2,-2.81 -0.8,-2.81 -9.45,0 -29.74,6.63 -41,6.63 -5.23,0 -22.91,-0.8 -26.73,-0.8 -0.8,0 -1.81,0 -3.62,0.4 l 3.22,3.42 c 3.42,3.82 4.62,4.42 5.63,12.66 0,2.41 0.6,4.22 0.8,6.23 z"
           id="path1265" />
        <path
           d="m 943.23,239.37 c -2.21,-1.21 -5.02,-2.21 -6.23,-3.01 l 2.81,-7.84 v 0.2 c 1.61,-5.63 3.62,-11.05 10.45,-13.87 10.45,0 10.45,9.45 10.45,17.69 0,18.09 -7.44,42.61 -11.86,55.67 l -3.42,10.05 v -0.2 c -8.04,23.71 -14.07,41.4 -15.47,66.32 1.81,2.01 3.01,5.02 3.01,7.44 0,7.03 -7.64,17.28 -14.07,17.28 -5.23,0 -10.25,-3.62 -11.05,-10.65 0.6,-32.96 8.64,-54.86 18.09,-82.2 v 0.2 l 5.02,-13.87 c 4.03,-12.26 10.06,-27.93 12.27,-43.21 z"
           id="path1267" />
        <path
           d="m 963.13,300.67 c 6.23,-16.28 4.22,-35.57 31.15,-35.57 20.5,0.4 41.8,2.61 61.7,8.84 4.22,2.81 4.82,4.82 4.82,11.46 0,14.87 -6.03,33.36 -7.44,45.62 2.21,16.28 2.21,36.58 4.82,55.67 0.8,1.61 1.41,4.42 1.41,6.63 l -0.2,5.23 c -2.21,5.83 -6.43,8.64 -10.85,8.64 -12.66,0 -13.06,-18.29 -13.46,-30.95 v -0.6 c -5.23,0.6 -10.65,0.4 -13.67,1 l -7.03,1.41 c -6.83,1.41 -15.07,3.42 -22.51,3.42 -17.69,0 -22.11,-12.06 -22.11,-20.7 l 0.2,-0.2 c 1,-8.24 7.23,-54.66 26.53,-54.66 7.23,0 15.47,4.22 21.5,5.23 6.03,-0.8 11.05,-1.41 15.27,-1.41 1.81,0 3.62,0 5.23,0.2 1.21,-7.03 2.21,-11.66 3.42,-19.49 -10.85,-3.01 -31.95,-7.24 -46.22,-7.24 -14.87,0 -9.44,3.22 -19.29,24.12 z m 63.71,56.87 c 1.61,0 2.41,0.2 3.62,0.2 1,0 2.01,-0.2 3.42,-0.6 -0.4,-8.24 -1,-24.92 -0.8,-26.53 -4.82,0 -9.65,1 -14.47,1 -5.23,0 -10.45,-1.41 -15.27,-3.22 l -3.62,-1 c -4.02,8.24 -6.43,16.48 -8.84,24.92 0,1.61 -2.01,5.23 -2.01,8.64 0,1.41 2.21,1.61 4.62,1.61 4.82,0 11.25,-1.61 17.08,-3.01 l -0.2,0.2 8.44,-1.81 c 2.2,-0.2 5.01,-0.4 8.03,-0.4 z"
           id="path1269" />
        <path
           d="m 1153.25,279.16 c -1.21,-0.6 -2.01,-1 -2.41,-1.41 -0.8,0.4 -2.01,0.6 -3.01,0.6 -2.21,0 -7.84,-1 -7.84,-1 -7.84,0 -17.08,2.81 -26.13,5.23 h 0.2 c -8.24,2.41 -15.88,4.62 -22.71,5.23 -0.4,2.81 -0.4,6.03 -0.4,8.84 v 1.21 c 0,4.82 -0.2,16.68 5.02,16.68 4.42,0 9.04,-1.41 13.67,-3.01 l 2.81,-1 h -0.2 c 12.66,-4.02 20.1,-5.02 24.92,-5.02 2.01,0 4.02,0.4 5.63,0.6 h 1.61 c 1.61,0 8.64,-9.65 14.67,-9.65 3.82,0 7.64,2.61 9.04,8.24 0,13.87 -1.41,22.91 -1.41,34.57 0,11.25 3.62,23.51 3.62,36.98 0,7.84 -1.41,20.7 -12.86,20.7 -9.65,0 -24.32,-8.24 -34.97,-14.07 l 0.2,0.2 c -15.47,-7.64 -28.94,-12.46 -44.62,-17.69 l -6.63,-2.21 c -5.02,-2.41 -7.44,-6.83 -7.44,-10.85 0,-5.02 4.22,-10.85 11.86,-10.85 1.81,0 3.82,0.6 5.43,0.8 l 2.41,0.6 c 22.71,6.63 44.61,19.9 66.32,30.14 -0.4,-9.65 -2.81,-20.3 -2.81,-30.95 0,-8.44 0,-11.25 0.6,-18.09 -7.64,3.22 -18.49,3.62 -26.53,4.02 l -6.03,0.6 c -9.45,1 -14.07,4.22 -21.3,4.02 -16.68,0 -18.29,-11.86 -19.49,-21.1 l -0.8,-4.02 c -0.8,-4.02 -1.41,-8.24 -1.21,-11.86 0,-28.54 24.72,-35.97 51.45,-35.97 11.86,0 26.33,1.81 39.39,4.22 z"
           id="path1271" />
        <path
           d="m 1208.92,234.15 -10.85,-3.01 c 3.82,-11.46 5.02,-16.28 5.23,-18.09 l 5.83,3.62 c 0.6,-0.4 10.05,-6.43 11.86,-10.45 4.22,6.43 4.82,20.1 4.82,27.13 0,11.66 -1.01,23.11 -2.01,33.56 l 8.24,1 c 0.4,0 0.6,0.2 0.8,0.2 l 4.02,0.4 c 9.85,1 26.33,2.01 26.33,15.68 0,5.23 -3.62,9.85 -10.05,11.25 l -6.23,0.4 c -2.81,-0.4 -5.43,-1.81 -7.24,-3.22 -10.05,-2.41 -5.83,-2.21 -17.69,-4.62 -0.6,7.64 -1.61,15.47 -2.61,22.71 l -3.01,21.91 c -0.8,6.23 -2.01,12.46 -1.81,18.09 v 3.62 c 0,1.41 0.2,2.61 0.2,3.82 0,7.23 -1,21.3 -11.05,21.3 -14.47,0 -14.07,-26.93 -14.07,-35.97 v -1.41 c 0,-17.89 4.42,-34.57 4.42,-52.05 v -7.64 c -0.4,-0.2 -0.6,-0.2 -1,-0.2 -0.2,0 -0.4,0 -0.6,0 -8.64,0 -24.12,-10.85 -24.12,-17.69 0,-5.23 3.82,-9.65 10.05,-9.65 2.21,0 2.21,0.2 3.42,0.4 l 11.25,5.02 c 1.41,0.6 3.22,1 4.42,1.61 l -0.2,-0.2 c 3.62,1.41 3.42,1.21 5.23,1.61 l 4.82,0.6 v -11.05 c 0.59,-6.02 1.4,-12.65 1.6,-18.68 z m 12.26,-29.14 c 0,0.4 0,0.8 -0.2,1.21 -1.41,-2.21 -3.01,-3.42 -5.43,-3.82 4.22,0.2 5.63,1.2 5.63,2.61 z"
           id="path1273" />
        <path
           d="m 1267,231.13 c 0,-3.42 0.2,-9.04 0.2,-15.27 0,-11.46 -1.41,-25.92 -8.24,-32.76 l 3.42,0.2 3.42,-3.22 c 1.61,-1.81 3.42,-2.61 5.43,-2.61 3.42,0 6.03,2.41 7.64,5.63 2.81,-4.62 6.63,-6.03 11.46,-6.03 11.25,0 25.32,11.46 32.76,11.46 10.45,0 7.24,-10.45 19.09,-10.45 9.24,0 10.25,10.05 10.25,17.89 0,1 0,2.01 0,3.01 v 2.21 c 0,7.84 -0.8,25.32 -10.25,30.95 h 0.2 c -12.66,8.04 -22.91,11.25 -37.78,11.25 -7.64,0 -15.07,-1 -22.11,-3.01 -1.81,2.01 -4.62,2.81 -6.63,2.81 -4.22,0 -8.24,-3.22 -8.84,-8.44 v -3.62 z m 26.33,91.64 -1.01,-4.62 c -2.41,-10.85 -3.42,-21.5 -8.04,-31.75 h 0.2 c -3.01,-7.84 -23.31,-3.22 -23.31,-15.47 0,-4.22 3.01,-9.04 10.25,-9.24 16.88,1 14.47,2.61 35.17,2.61 5.43,0 11.45,-1.81 17.69,-1.81 6.23,0 10.45,4.42 10.45,9.24 0,5.63 -3.22,7.23 -8.24,9.85 l -1.81,1 c -9.45,10.05 -11.66,24.92 -11.66,39.59 0,11.86 1.41,22.91 1.41,32.36 v 3.01 c 4.62,0 5.43,-0.4 9.85,-0.4 11.25,0 16.08,4.82 16.08,11.05 0,4.82 -3.42,9.65 -10.25,11.45 l -24.12,-0.4 c -4.02,3.42 -10.65,5.23 -12.06,5.63 l -1,-7.44 c -21.1,0 -24.12,-0.8 -25.72,-1.41 -4.62,-2.61 -6.83,-6.43 -6.83,-10.25 0,-4.42 3.42,-10.25 11.66,-10.25 5.43,0 11.26,3.82 15.88,3.82 1.21,-0.8 3.01,-1.81 8.24,-1.81 -1.81,-0.2 -1.81,-2.81 -1.81,-4.22 v -0.8 c 0,-17.28 -1,-17.28 -1,-25.92 v -3.82 z m -0.4,-126 c -2.01,5.23 -2.81,12.06 -3.42,18.29 0,0 0,0 0,0.6 0,0.2 0,0.6 0,1.21 3.01,-0.4 5.83,-0.2 11.66,-0.6 5.23,0 9.04,2.21 11.25,5.43 11.86,-0.8 18.89,-3.01 20.3,-15.47 -3.22,0.8 -7.03,1.21 -9.85,1.21 -6.43,0 -13.26,-3.42 -20.1,-6.63 -3.62,-1.43 -6.83,-3.24 -9.84,-4.04 z m 1.4,-2.61 c -0.6,0.6 -1,1.61 -1.41,2.61 -0.8,-0.4 -1.81,-0.8 -2.81,-1 z"
           id="path1275" />
        <path
           d="m 1443.85,301.27 c -5.83,-8.04 -29.34,-17.89 -43.41,-19.9 l 0.2,1.41 c 1.41,4.22 2.81,8.64 2.81,13.06 0,18.09 -15.27,35.17 -19.29,53.66 3.22,0.6 6.83,0.6 10.45,0.6 6.23,0 12.86,-0.2 17.48,-0.2 h 4.82 c 0.2,0 1.21,0 3.02,0 8.24,0 48.84,2.01 48.84,22.11 0,6.03 -4.82,10.85 -10.85,10.85 -5.83,0 -14.27,-10.45 -27.93,-10.45 -19.09,-2.21 -18.49,-2.81 -35.97,-2.81 h -2.61 c -10.25,0 -27.73,-1 -27.73,-15.68 0,-9.24 7.03,-23.71 12.86,-35.77 6.23,-12.66 8.24,-17.08 8.24,-23.11 0,-4.82 -4.42,-12.66 -4.42,-19.9 0,-8.64 6.23,-12.46 14.27,-12.46 4.82,0 48.63,10.05 60.89,28.94 z"
           id="path1277" />
      </g>
      <g
         id="g1301">
        <path
           fill="#be00d3"
           d="m 425.41,385.86 c 0.2,-29.94 4.82,-50.04 7.23,-72.55 3.01,-23.91 -6.83,-67.32 29.14,-67.32 11.05,0 15.07,0.8 22.11,2.61 l 6.83,1.81 c 0,0.2 -0.6,0 -0.6,0 1,-0.2 17.69,3.01 29.34,6.83 0.6,-8.84 2.01,-15.68 11.46,-15.68 4.62,0 9.45,3.22 11.25,10.05 -0.4,9.65 -0.8,19.49 -1.61,28.94 v 1.61 c 0,9.04 -1.61,17.69 -2.21,26.73 l -0.6,18.69 c -0.6,18.29 -0.8,38.79 -3.01,56.27 -2.01,5.43 -5.43,7.84 -9.45,7.84 -10.85,0 -11.25,-9.24 -11.25,-16.48 0,-34.37 1.81,-64.51 4.42,-98.47 -8.84,-4.22 -26.33,-5.83 -31.75,-8.24 h 0.2 l -4.42,-1 c -5.63,-1.21 -12.46,-3.42 -18.49,-3.22 -8.84,0 -11.05,5.23 -11.05,13.67 0,4.02 0.4,8.04 0.4,11.05 0,32.56 -8.04,59.69 -10.25,96.26 z"
           id="path1281" />
        <path
           fill="#be00d3"
           d="m 540.37,279.35 0.8,-2.01 c 1.61,-2.61 4.42,-4.02 6.83,-4.02 4.42,0 6.63,3.62 8.24,8.04 3.62,-2.81 8.44,-3.82 13.26,-3.82 5.83,0 10.85,1.61 15.88,2.41 l 6.03,1 h -0.2 c 13.46,2.21 26.33,2.41 38.79,2.41 0.8,0 1.81,-0.2 2.61,-0.2 l 5.23,-0.6 c 2.41,-0.2 5.83,-0.2 8.24,-0.8 0.8,-5.63 4.42,-8.84 9.24,-8.84 3.01,0 6.43,1.61 8.84,5.02 l 2.21,6.63 v 1.81 c 0,2.21 0,3.62 -1.61,5.43 -0.2,24.92 -0.8,50.44 -1.01,75.16 -0.21,24.72 -9.65,31.15 -23.71,31.15 -6.63,0 -13.87,-1.61 -20.9,-3.01 -16.28,-3.42 -33.76,-5.23 -50.84,-6.43 h -3.42 c -6.83,-1.21 -10.45,-6.03 -10.45,-11.05 0,-3.42 1.61,-6.83 4.62,-8.84 -7.24,-4.42 -8.64,-19.49 -9.24,-27.53 l -0.4,-5.23 C 548,318.14 546.8,300.26 540.37,282.57 l 1.01,1.21 z m 29.54,87.02 c 2.61,0 5.23,-0.6 8.04,-1.61 4.62,0 8.24,1.21 10.45,3.82 10.85,1.41 17.08,1.61 31.75,5.02 h -0.2 c 6.83,1.81 14.07,3.22 21.1,3.22 3.82,0 4.02,-49.84 4.02,-75.97 -6.03,1.21 -13.26,1.81 -19.49,1.81 -14.27,0 -28.14,-2.01 -37.58,-3.42 l -4.02,-1 c -4.22,-1 -10.25,-2.41 -13.87,-2.41 -3.42,0 -3.82,4.02 -3.82,15.68 0,3.22 0,6.23 0.2,9.65 v -0.6 l 3.82,20.5 c 0.8,4.22 2.21,9.65 2.21,14.87 0,4.21 -1,7.83 -2.61,10.44 z"
           id="path1283" />
        <path
           fill="#be00d3"
           d="m 667.78,385.86 c 0.2,-29.94 4.82,-50.04 7.24,-72.55 3.01,-23.91 -6.83,-67.32 29.14,-67.32 11.05,0 15.07,0.8 22.11,2.61 l 6.83,1.81 c 0,0.2 -0.6,0 -0.6,0 1.01,-0.2 17.69,3.01 29.34,6.83 0.6,-8.84 2.01,-15.68 11.46,-15.68 4.62,0 9.45,3.22 11.25,10.05 -0.4,9.65 -0.8,19.49 -1.61,28.94 v 1.61 c 0,9.04 -1.61,17.69 -2.21,26.73 l -0.6,18.69 c -0.6,18.29 -0.8,38.79 -3.01,56.27 -2.01,5.43 -5.43,7.84 -9.45,7.84 -10.85,0 -11.25,-9.24 -11.25,-16.48 0,-34.37 1.81,-64.51 4.42,-98.47 -8.84,-4.22 -26.33,-5.83 -31.75,-8.24 h 0.2 l -4.42,-1 c -5.63,-1.21 -12.46,-3.42 -18.49,-3.22 -8.84,0 -11.05,5.23 -11.05,13.67 0,4.02 0.4,8.04 0.4,11.05 0,32.56 -8.04,59.69 -10.25,96.26 z"
           id="path1285" />
        <path
           fill="#be00d3"
           d="m 846.65,338.84 c -6.63,0 -14.47,-0.2 -21.7,-3.62 3.82,33.36 10.25,40.8 29.74,40.8 7.64,0 16.08,-1 24.72,-1.21 l 29.34,-0.6 c 6.83,1.61 10.05,6.63 10.05,11.05 0,10.65 -11.86,12.06 -31.15,12.06 h -20.9 c -25.32,0 -34.77,-1.41 -43.21,-7.64 -19.9,-14.47 -20.9,-60.09 -20.9,-78.38 0.2,0.4 0.8,0.8 2.61,0.8 v -6.83 c -4.62,0 -6.03,0.4 -6.03,1.41 0,0.4 0.4,1 0.8,1.61 -3.62,-5.02 -10.25,-13.87 -10.25,-20.9 0,-11.25 9.85,-13.26 18.49,-13.26 12.46,0 24.52,0.4 37.78,0.4 9.85,0 27.73,-6.83 39.39,-6.83 18.69,0 18.69,13.26 18.69,23.91 v 3.82 c 0,1.81 0,3.01 -0.2,4.02 0.4,2.21 1.21,6.83 2.21,10.25 v -0.2 c 0.8,2.61 1.21,4.82 1.21,5.23 v 0.2 c 0.6,3.01 0.8,6.43 0.8,9.24 0,13.06 -23.31,15.68 -31.75,15.68 -5.63,0 -12.06,-0.4 -18.29,-1 h -11.45 z m -46.63,-30.55 0.4,0.6 z m 23.11,6.83 c 8.84,6.23 22.51,7.23 30.95,7.23 1.61,0 3.01,-0.2 4.02,-0.2 h 3.01 c 5.63,0 11.66,0.8 16.88,0.8 4.22,0 8.44,-0.4 11.86,-2.41 -2.21,-11.46 -3.42,-12.06 -4.22,-24.32 v -3.82 c 0,-1.21 0,-2.21 0,-3.01 0,-2.01 -0.2,-2.81 -0.8,-2.81 -9.45,0 -29.74,6.63 -41,6.63 -5.23,0 -22.91,-0.8 -26.73,-0.8 -0.8,0 -1.81,0 -3.62,0.4 l 3.22,3.42 c 3.42,3.82 4.62,4.42 5.63,12.66 0,2.42 0.6,4.22 0.8,6.23 z"
           id="path1287" />
        <path
           fill="#be00d3"
           d="m 955.78,249.41 c -2.21,-1.21 -5.02,-2.21 -6.23,-3.01 l 2.81,-7.84 v 0.2 c 1.61,-5.63 3.62,-11.05 10.45,-13.87 10.45,0 10.45,9.45 10.45,17.69 0,18.09 -7.44,42.61 -11.86,55.67 l -3.42,10.05 v -0.2 c -8.04,23.71 -14.07,41.4 -15.47,66.32 1.81,2.01 3.01,5.02 3.01,7.44 0,7.03 -7.64,17.28 -14.07,17.28 -5.23,0 -10.25,-3.62 -11.05,-10.65 0.6,-32.96 8.64,-54.86 18.09,-82.2 v 0.2 l 5.02,-13.87 c 4.03,-12.26 10.06,-27.94 12.27,-43.21 z"
           id="path1289" />
        <path
           fill="#be00d3"
           d="m 975.67,310.7 c 6.23,-16.28 4.22,-35.57 31.15,-35.57 20.5,0.4 41.8,2.61 61.7,8.84 4.22,2.81 4.82,4.82 4.82,11.46 0,14.87 -6.03,33.36 -7.44,45.62 2.21,16.28 2.21,36.58 4.82,55.67 0.8,1.61 1.41,4.42 1.41,6.63 l -0.2,5.23 c -2.21,5.83 -6.43,8.64 -10.85,8.64 -12.66,0 -13.06,-18.29 -13.46,-30.95 v -0.6 c -5.23,0.6 -10.65,0.4 -13.67,1 l -7.03,1.41 c -6.83,1.41 -15.07,3.42 -22.51,3.42 -17.69,0 -22.11,-12.06 -22.11,-20.7 l 0.2,-0.2 c 1,-8.24 7.23,-54.66 26.53,-54.66 7.23,0 15.47,4.22 21.5,5.23 6.03,-0.8 11.05,-1.41 15.27,-1.41 1.81,0 3.62,0 5.23,0.2 1.21,-7.03 2.21,-11.66 3.42,-19.49 -10.85,-3.01 -31.95,-7.24 -46.22,-7.24 -14.87,0 -9.44,3.22 -19.29,24.12 z m 63.71,56.88 c 1.61,0 2.41,0.2 3.62,0.2 1,0 2.01,-0.2 3.42,-0.6 -0.4,-8.24 -1,-24.92 -0.8,-26.53 -4.82,0 -9.65,1 -14.47,1 -5.23,0 -10.45,-1.41 -15.27,-3.22 l -3.62,-1 c -4.02,8.24 -6.43,16.48 -8.84,24.92 0,1.61 -2.01,5.23 -2.01,8.64 0,1.41 2.21,1.61 4.62,1.61 4.82,0 11.26,-1.61 17.08,-3.01 l -0.2,0.2 8.44,-1.81 c 2.2,-0.2 5.01,-0.4 8.03,-0.4 z"
           id="path1291" />
        <path
           fill="#be00d3"
           d="m 1165.79,289.2 c -1.21,-0.6 -2.01,-1 -2.41,-1.41 -0.8,0.4 -2.01,0.6 -3.01,0.6 -2.21,0 -7.84,-1 -7.84,-1 -7.84,0 -17.08,2.81 -26.13,5.23 h 0.2 c -8.24,2.41 -15.88,4.62 -22.71,5.23 -0.4,2.81 -0.4,6.03 -0.4,8.84 v 1.21 c 0,4.82 -0.2,16.68 5.02,16.68 4.42,0 9.04,-1.41 13.67,-3.01 l 2.81,-1 h -0.2 c 12.66,-4.02 20.1,-5.02 24.92,-5.02 2.01,0 4.02,0.4 5.63,0.6 h 1.61 c 1.61,0 8.64,-9.65 14.67,-9.65 3.82,0 7.64,2.61 9.04,8.24 0,13.87 -1.41,22.91 -1.41,34.57 0,11.25 3.62,23.51 3.62,36.98 0,7.84 -1.41,20.7 -12.86,20.7 -9.65,0 -24.32,-8.24 -34.97,-14.07 l 0.2,0.2 c -15.47,-7.64 -28.94,-12.46 -44.62,-17.69 l -6.63,-2.21 c -5.02,-2.41 -7.44,-6.83 -7.44,-10.85 0,-5.02 4.22,-10.85 11.86,-10.85 1.81,0 3.82,0.6 5.43,0.8 l 2.41,0.6 c 22.71,6.63 44.61,19.9 66.32,30.14 -0.4,-9.65 -2.81,-20.3 -2.81,-30.95 0,-8.44 0,-11.25 0.6,-18.09 -7.64,3.22 -18.49,3.62 -26.53,4.02 l -6.03,0.6 c -9.45,1 -14.07,4.22 -21.3,4.02 -16.68,0 -18.29,-11.86 -19.49,-21.1 l -0.8,-4.02 c -0.8,-4.02 -1.41,-8.24 -1.21,-11.86 0,-28.54 24.72,-35.97 51.45,-35.97 11.86,0 26.33,1.81 39.39,4.22 z"
           id="path1293" />
        <path
           fill="#be00d3"
           d="m 1221.46,244.18 -10.85,-3.01 c 3.82,-11.46 5.02,-16.28 5.23,-18.09 l 5.83,3.62 c 0.6,-0.4 10.05,-6.43 11.86,-10.45 4.22,6.43 4.82,20.1 4.82,27.13 0,11.66 -1.01,23.11 -2.01,33.56 l 8.24,1 c 0.4,0 0.6,0.2 0.8,0.2 l 4.02,0.4 c 9.85,1 26.33,2.01 26.33,15.68 0,5.23 -3.62,9.85 -10.05,11.25 l -6.23,0.4 c -2.81,-0.4 -5.43,-1.81 -7.23,-3.22 -10.05,-2.41 -5.83,-2.21 -17.69,-4.62 -0.6,7.64 -1.61,15.47 -2.61,22.71 l -3.01,21.91 c -0.8,6.23 -2.01,12.46 -1.81,18.09 v 3.62 c 0,1.41 0.2,2.61 0.2,3.82 0,7.23 -1,21.3 -11.05,21.3 -14.47,0 -14.07,-26.93 -14.07,-35.97 v -1.41 c 0,-17.89 4.42,-34.57 4.42,-52.05 v -7.64 c -0.4,-0.2 -0.6,-0.2 -1,-0.2 -0.2,0 -0.4,0 -0.6,0 -8.64,0 -24.12,-10.85 -24.12,-17.69 0,-5.23 3.82,-9.65 10.05,-9.65 2.21,0 2.21,0.2 3.42,0.4 l 11.25,5.02 c 1.41,0.6 3.22,1 4.42,1.61 l -0.2,-0.2 c 3.62,1.41 3.42,1.21 5.23,1.61 l 4.82,0.6 v -11.05 c 0.59,-6.02 1.39,-12.65 1.59,-18.68 z m 12.26,-29.14 c 0,0.4 0,0.8 -0.2,1.21 -1.41,-2.21 -3.01,-3.42 -5.43,-3.82 4.22,0.2 5.63,1.2 5.63,2.61 z"
           id="path1295" />
        <path
           fill="#be00d3"
           d="m 1279.54,241.17 c 0,-3.42 0.2,-9.04 0.2,-15.27 0,-11.46 -1.41,-25.92 -8.24,-32.76 l 3.42,0.2 3.42,-3.22 c 1.61,-1.81 3.42,-2.61 5.43,-2.61 3.42,0 6.03,2.41 7.64,5.63 2.81,-4.62 6.63,-6.03 11.46,-6.03 11.25,0 25.32,11.46 32.76,11.46 10.45,0 7.24,-10.45 19.09,-10.45 9.24,0 10.25,10.05 10.25,17.89 0,1 0,2.01 0,3.01 v 2.21 c 0,7.84 -0.8,25.32 -10.25,30.95 h 0.2 c -12.66,8.04 -22.91,11.25 -37.78,11.25 -7.64,0 -15.07,-1 -22.11,-3.01 -1.81,2.01 -4.62,2.81 -6.63,2.81 -4.22,0 -8.24,-3.22 -8.84,-8.44 v -3.62 z m 26.33,91.64 -1.01,-4.62 c -2.41,-10.85 -3.42,-21.5 -8.04,-31.75 h 0.2 c -3.01,-7.84 -23.31,-3.22 -23.31,-15.47 0,-4.22 3.01,-9.04 10.25,-9.24 16.88,1 14.47,2.61 35.17,2.61 5.43,0 11.45,-1.81 17.69,-1.81 6.23,0 10.45,4.42 10.45,9.25 0,5.63 -3.22,7.23 -8.24,9.85 l -1.81,1 c -9.45,10.05 -11.66,24.92 -11.66,39.59 0,11.86 1.41,22.91 1.41,32.36 v 3.01 c 4.62,0 5.43,-0.4 9.85,-0.4 11.25,0 16.08,4.82 16.08,11.05 0,4.82 -3.42,9.65 -10.25,11.45 l -24.12,-0.4 c -4.02,3.42 -10.65,5.23 -12.06,5.63 l -1,-7.44 c -21.1,0 -24.12,-0.8 -25.72,-1.41 -4.62,-2.61 -6.83,-6.43 -6.83,-10.25 0,-4.42 3.42,-10.25 11.66,-10.25 5.43,0 11.26,3.82 15.88,3.82 1.21,-0.8 3.01,-1.81 8.24,-1.81 -1.81,-0.2 -1.81,-2.81 -1.81,-4.22 v -0.8 c 0,-17.28 -1,-17.28 -1,-25.92 v -3.83 z m -0.4,-126.01 c -2.01,5.23 -2.81,12.06 -3.42,18.29 0,0 0,0 0,0.6 0,0.2 0,0.6 0,1.21 3.01,-0.4 5.83,-0.2 11.66,-0.6 5.23,0 9.04,2.21 11.25,5.43 11.86,-0.8 18.89,-3.01 20.3,-15.47 -3.22,0.8 -7.03,1.21 -9.85,1.21 -6.43,0 -13.26,-3.42 -20.1,-6.63 -3.61,-1.43 -6.83,-3.23 -9.84,-4.04 z m 1.4,-2.61 c -0.6,0.6 -1,1.61 -1.41,2.61 -0.8,-0.4 -1.81,-0.8 -2.81,-1 z"
           id="path1297" />
        <path
           fill="#be00d3"
           d="m 1456.4,311.31 c -5.83,-8.04 -29.34,-17.89 -43.41,-19.9 l 0.2,1.41 c 1.41,4.22 2.81,8.64 2.81,13.06 0,18.09 -15.27,35.17 -19.29,53.66 3.22,0.6 6.83,0.6 10.45,0.6 6.23,0 12.86,-0.2 17.48,-0.2 h 4.82 c 0.2,0 1.21,0 3.02,0 8.24,0 48.84,2.01 48.84,22.11 0,6.03 -4.82,10.85 -10.85,10.85 -5.83,0 -14.27,-10.45 -27.93,-10.45 -19.09,-2.21 -18.49,-2.81 -35.97,-2.81 h -2.61 c -10.25,0 -27.73,-1 -27.73,-15.68 0,-9.24 7.03,-23.71 12.86,-35.77 6.23,-12.66 8.24,-17.08 8.24,-23.11 0,-4.82 -4.42,-12.66 -4.42,-19.9 0,-8.64 6.23,-12.46 14.27,-12.46 4.82,0 48.63,10.05 60.89,28.94 z"
           id="path1299" />
      </g>
    </g>
  </g>
</svg>
