<?xml version="1.0" encoding="UTF-8" standalone="no"?>
<!-- Created with Inkscape (http://www.inkscape.org/) -->

<svg
   viewBox="0 0 291.71371 80.004707"
   version="1.1"
   id="svg1510"
   xmlns="http://www.w3.org/2000/svg"
   xmlns:svg="http://www.w3.org/2000/svg">
  <defs
     id="defs1507" />
  <g
     id="layer1"
     transform="translate(-157.89224,-81.60192)">
    <g
       id="nonelastic"
       transform="matrix(0.26458333,0,0,0.26458333,-5.6370949,16.297912)">
      <g
         id="songlander"
         transform="translate(233.59362,-160.5917)">
        <path
           fill="#00004a"
           d="m 473.7,501.59 c -1.21,-0.6 -2.01,-1 -2.41,-1.41 -0.8,0.4 -2.01,0.6 -3.01,0.6 -2.21,0 -7.84,-1 -7.84,-1 -7.84,0 -17.08,2.81 -26.13,5.23 h 0.2 c -8.24,2.41 -15.88,4.62 -22.71,5.23 -0.4,2.81 -0.4,6.03 -0.4,8.84 v 1.21 c 0,4.82 -0.2,16.68 5.02,16.68 4.42,0 9.04,-1.41 13.67,-3.01 l 2.81,-1 h -0.2 c 12.66,-4.02 20.1,-5.02 24.92,-5.02 2.01,0 4.02,0.4 5.63,0.6 h 1.61 c 1.61,0 8.64,-9.65 14.67,-9.65 3.82,0 7.64,2.61 9.04,8.24 0,13.87 -1.41,22.91 -1.41,34.57 0,11.25 3.62,23.51 3.62,36.98 0,7.84 -1.41,20.7 -12.86,20.7 -9.65,0 -24.32,-8.24 -34.97,-14.07 l 0.2,0.2 c -15.47,-7.64 -28.94,-12.46 -44.61,-17.69 l -6.63,-2.21 c -5.02,-2.41 -7.44,-6.83 -7.44,-10.85 0,-5.02 4.22,-10.85 11.86,-10.85 1.81,0 3.82,0.6 5.43,0.8 l 2.41,0.6 c 22.71,6.63 44.62,19.89 66.32,30.14 -0.4,-9.65 -2.81,-20.3 -2.81,-30.95 0,-8.44 0,-11.25 0.6,-18.09 -7.64,3.22 -18.49,3.62 -26.53,4.02 l -6.03,0.6 c -9.45,1 -14.07,4.22 -21.3,4.02 -16.68,0 -18.29,-11.86 -19.49,-21.1 l -0.8,-4.02 c -0.8,-4.02 -1.41,-8.24 -1.21,-11.86 0,-28.54 24.72,-35.97 51.45,-35.97 11.86,0 26.33,1.81 39.39,4.22 z"
           id="path1304" />
        <path
           fill="#00004a"
           d="m 495.6,511.81 0.8,-2.01 c 1.61,-2.61 4.42,-4.02 6.83,-4.02 4.42,0 6.63,3.62 8.24,8.04 3.62,-2.81 8.44,-3.82 13.26,-3.82 5.83,0 10.85,1.61 15.88,2.41 l 6.03,1.01 h -0.2 c 13.46,2.21 26.33,2.41 38.79,2.41 0.8,0 1.81,-0.2 2.61,-0.2 l 5.23,-0.6 c 2.41,-0.2 5.83,-0.2 8.24,-0.8 0.8,-5.63 4.42,-8.84 9.24,-8.84 3.01,0 6.43,1.61 8.84,5.02 l 2.21,6.63 v 1.81 c 0,2.21 0,3.62 -1.61,5.43 -0.2,24.92 -0.8,50.44 -1.01,75.16 -0.21,24.72 -9.65,31.15 -23.71,31.15 -6.63,0 -13.87,-1.61 -20.9,-3.01 -16.28,-3.42 -33.76,-5.23 -50.85,-6.43 h -3.42 c -6.83,-1.21 -10.45,-6.03 -10.45,-11.05 0,-3.42 1.61,-6.83 4.62,-8.84 -7.24,-4.42 -8.64,-19.49 -9.24,-27.53 l -0.4,-5.23 c -1.41,-17.89 -2.61,-35.77 -9.04,-53.46 l 1,1.21 z m 29.54,87.01 c 2.61,0 5.23,-0.6 8.04,-1.61 4.62,0 8.24,1.21 10.45,3.82 10.85,1.41 17.08,1.61 31.75,5.02 h -0.2 c 6.83,1.81 14.07,3.21 21.1,3.21 3.82,0 4.02,-49.84 4.02,-75.97 -6.03,1.21 -13.26,1.81 -19.49,1.81 -14.27,0 -28.13,-2.01 -37.58,-3.42 l -4.02,-1 c -4.22,-1 -10.25,-2.41 -13.87,-2.41 -3.42,0 -3.82,4.02 -3.82,15.68 0,3.21 0,6.23 0.2,9.65 V 553 l 3.82,20.5 c 0.8,4.22 2.21,9.65 2.21,14.87 0,4.23 -1,7.84 -2.61,10.45 z"
           id="path1306" />
        <path
           fill="#00004a"
           d="m 634.93,611.62 c 0.18,-26.21 4.22,-43.8 6.33,-63.5 2.64,-20.93 -5.98,-58.93 25.51,-58.93 9.67,0 13.19,0.7 19.35,2.29 l 5.98,1.58 c 0,0.18 -0.53,0 -0.53,0 0.88,-0.18 15.48,2.64 25.68,5.98 0.53,-7.74 1.76,-13.72 10.03,-13.72 4.05,0 8.27,2.81 9.85,8.8 -0.35,8.44 -0.7,17.06 -1.41,25.33 v 1.41 c 0,7.91 -1.41,15.48 -1.94,23.39 l -0.53,16.36 c -0.53,16.01 -0.7,33.95 -2.64,49.25 -1.76,4.75 -4.75,6.86 -8.27,6.86 -9.5,0 -9.85,-8.09 -9.85,-14.42 0,-30.08 1.58,-56.46 3.87,-86.19 -7.74,-3.69 -23.04,-5.1 -27.79,-7.21 h 0.18 l -3.87,-0.88 c -4.93,-1.06 -10.91,-2.99 -16.18,-2.81 -7.74,0 -9.67,4.57 -9.67,11.96 0,3.52 0.35,7.04 0.35,9.67 0,28.5 -7.04,52.24 -8.97,84.25 z"
           id="path1308" />
        <path
           fill="#00004a"
           d="m 815.35,508.22 c 7.84,0 13.87,0.4 21.1,0.4 1,-4.62 7.44,-7.04 9.45,-7.04 3.62,0 7.64,3.02 9.04,8.44 0.8,19.9 2.01,53.26 9.65,72.55 3.82,2.01 6.03,5.43 6.03,12.06 0,8.24 -2.61,19.29 -4.02,26.13 l -1.21,5.43 c -1.01,4.62 -1.21,9.65 -1.21,14.07 0,11.25 1.41,22.91 1.41,33.96 0,12.86 -1.61,35.57 -16.08,35.57 -17.28,0 -39.79,-14.87 -56.47,-21.3 h 0.2 c -11.66,-4.82 -23.31,-8.64 -35.17,-12.66 h 0.2 c 3.42,1.01 -47.63,-10.45 -47.63,-27.13 0,-13.06 14.67,-14.47 27.13,-14.47 8.04,0 12.46,5.23 12.46,11.25 0,1.81 -0.4,3.42 -1.41,5.23 12.46,4.82 27.93,8.24 40.19,12.86 18.69,7.03 36.58,18.89 54.66,24.72 0.6,-4.22 0.8,-9.04 0.8,-13.06 0,-9.45 -0.8,-19.29 -0.8,-29.54 0,-10.85 1.81,-20.7 3.82,-30.35 l 1.81,-8.64 c -2.81,1.21 -5.83,1.41 -9.65,1.41 -4.42,0 -7.64,-0.4 -10.65,-0.4 -7.03,0 -24.12,3.82 -39.39,3.82 -7.64,0 -14.87,-1.21 -19.49,-4.82 -11.25,-8.64 -21.7,-35.37 -21.7,-57.68 0,-14.87 4.42,-28.34 15.88,-34.37 9.66,-5.44 31.96,-6.44 51.05,-6.44 z m 18.69,17.68 c 0,-0.4 0,-1.21 0.2,-2.21 h -19.49 c -31.55,0 -50.24,1.61 -50.24,22.91 0,15.88 10.05,36.98 17.08,46.62 h 3.82 c 17.89,0 32.36,-3.62 50.44,-3.62 h 1.21 c -1.41,-14.47 -1.81,-28.54 -2.21,-43.01 0,-4.81 -0.81,-17.87 -0.81,-20.69 z"
           id="path1310" />
        <path
           fill="#00004a"
           d="m 918.79,469.32 c -2.21,-1.21 -5.02,-2.21 -6.23,-3.01 l 2.81,-7.84 v 0.2 c 1.61,-5.63 3.62,-11.05 10.45,-13.87 10.45,0 10.45,9.45 10.45,17.68 0,18.09 -7.44,42.61 -11.86,55.67 L 921,528.2 V 528 c -8.04,23.71 -14.07,41.4 -15.47,66.32 1.81,2.01 3.01,5.02 3.01,7.43 0,7.04 -7.64,17.28 -14.07,17.28 -5.23,0 -10.25,-3.62 -11.05,-10.65 0.6,-32.96 8.64,-54.86 18.09,-82.2 v 0.2 l 5.02,-13.87 c 4.02,-12.24 10.05,-27.92 12.26,-43.19 z"
           id="path1312" />
        <path
           fill="#00004a"
           d="m 922.14,566.99 c 6.23,-16.28 4.22,-35.57 31.15,-35.57 20.5,0.4 41.8,2.61 61.7,8.84 4.22,2.81 4.82,4.82 4.82,11.46 0,14.87 -6.03,33.36 -7.44,45.62 2.21,16.28 2.21,36.58 4.82,55.67 0.8,1.61 1.41,4.42 1.41,6.63 l -0.2,5.23 c -2.21,5.83 -6.43,8.64 -10.85,8.64 -12.66,0 -13.06,-18.29 -13.46,-30.95 v -0.6 c -5.23,0.6 -10.65,0.4 -13.67,1 l -7.03,1.41 c -6.83,1.41 -15.07,3.42 -22.51,3.42 -17.69,0 -22.11,-12.06 -22.11,-20.7 l 0.2,-0.2 c 1,-8.24 7.23,-54.66 26.53,-54.66 7.23,0 15.48,4.22 21.5,5.23 6.03,-0.8 11.05,-1.41 15.27,-1.41 1.81,0 3.62,0 5.23,0.2 1.21,-7.03 2.21,-11.66 3.42,-19.49 -10.85,-3.01 -31.95,-7.24 -46.22,-7.24 -14.87,0 -9.45,3.22 -19.29,24.12 z m 63.71,56.87 c 1.61,0 2.41,0.2 3.62,0.2 1,0 2.01,-0.2 3.42,-0.6 -0.4,-8.24 -1,-24.92 -0.8,-26.53 -4.82,0 -9.65,1.01 -14.47,1.01 -5.23,0 -10.45,-1.41 -15.27,-3.22 l -3.62,-1 c -4.02,8.24 -6.43,16.48 -8.84,24.92 0,1.61 -2.01,5.23 -2.01,8.64 0,1.41 2.21,1.61 4.62,1.61 4.82,0 11.25,-1.61 17.08,-3.01 l -0.2,0.2 8.44,-1.81 c 2.2,-0.21 5.02,-0.41 8.03,-0.41 z"
           id="path1314" />
        <path
           fill="#00004a"
           d="m 1022.66,607.68 c 0.18,-26.16 4.21,-43.72 6.32,-63.39 2.63,-20.9 -5.97,-58.82 25.46,-58.82 9.66,0 13.17,0.7 19.32,2.28 l 5.97,1.58 c 0,0.18 -0.53,0 -0.53,0 0.88,-0.18 15.45,2.63 25.64,5.97 0.53,-7.73 1.76,-13.7 10.01,-13.7 4.04,0 8.25,2.81 9.83,8.78 -0.35,8.43 -0.7,17.03 -1.4,25.29 v 1.41 c 0,7.9 -1.4,15.45 -1.93,23.35 l -0.53,16.33 c -0.53,15.98 -0.7,33.89 -2.63,49.17 -1.76,4.74 -4.74,6.85 -8.25,6.85 -9.48,0 -9.83,-8.08 -9.83,-14.4 0,-30.03 1.58,-56.36 3.86,-86.04 -7.73,-3.69 -23,-5.09 -27.74,-7.2 h 0.18 l -3.86,-0.88 c -4.92,-1.05 -10.89,-2.98 -16.15,-2.81 -7.73,0 -9.66,4.57 -9.66,11.94 0,3.51 0.35,7.02 0.35,9.66 0,28.45 -7.02,52.15 -8.95,84.11 z"
           id="path1316" />
        <path
           fill="#00004a"
           d="m 1217.45,521.54 c -13.46,-6.03 -24.72,-7.03 -35.97,-8.24 l -7.84,-0.8 c -7.03,-0.6 -15.07,-2.41 -21.1,-2.61 0.4,0.4 1,13.46 1.41,18.49 3.01,19.09 1.21,29.74 15.88,43.21 10.45,9.65 27.33,11.86 43.41,11.86 8.04,0 10.85,-0.2 17.69,-0.8 -5.83,-19.49 -7.64,-36.17 -7.64,-54.26 0,-17.48 2.21,-34.97 4.42,-54.26 l 3.42,-25.12 c 0,-15.07 0.6,-41.6 11.46,-41.6 8.64,0 10.85,7.64 10.85,17.48 0,5.43 -0.6,11.46 -1.41,16.28 -1,28.94 -4.42,55.07 -4.42,84.21 0,17.68 -0.2,27.73 5.23,43.81 2.81,1.41 4.62,3.62 5.83,8.04 l 0.6,6.83 c 0,6.23 -2.81,12.66 -12.06,12.66 0,0 -0.2,-0.2 -0.4,-0.2 -5.43,4.62 -15.68,5.43 -25.72,5.43 -68.13,0 -80.39,-17.08 -83.8,-69.53 0,-2.81 -1.21,-10.25 -1.21,-17.69 0,-19.89 8.04,-21.3 19.29,-21.3 5.83,0 11.86,0.8 16.88,2.21 16.28,4.42 30.55,2.61 50.44,11.86 z"
           id="path1318" />
        <path
           fill="#00004a"
           d="m 1310.97,573.8 c -6.63,0 -14.47,-0.2 -21.7,-3.62 3.82,33.36 10.25,40.8 29.74,40.8 7.64,0 16.08,-1 24.72,-1.21 l 29.34,-0.6 c 6.83,1.61 10.05,6.63 10.05,11.05 0,10.65 -11.86,12.06 -31.15,12.06 h -20.9 c -25.32,0 -34.77,-1.41 -43.21,-7.64 -19.9,-14.47 -20.9,-60.09 -20.9,-78.38 0.2,0.4 0.8,0.8 2.61,0.8 v -6.83 c -4.62,0 -6.03,0.4 -6.03,1.41 0,0.4 0.4,1 0.8,1.61 -3.62,-5.02 -10.25,-13.87 -10.25,-20.9 0,-11.25 9.85,-13.26 18.49,-13.26 12.46,0 24.52,0.4 37.78,0.4 9.85,0 27.73,-6.83 39.39,-6.83 18.69,0 18.69,13.26 18.69,23.92 v 3.82 c 0,1.81 0,3.01 -0.2,4.02 0.4,2.21 1.21,6.83 2.21,10.25 v -0.2 c 0.8,2.61 1.21,4.82 1.21,5.23 v 0.2 c 0.6,3.02 0.8,6.43 0.8,9.24 0,13.06 -23.31,15.68 -31.75,15.68 -5.63,0 -12.06,-0.4 -18.29,-1 h -11.45 z m -46.63,-30.55 0.4,0.6 z m 23.12,6.84 c 8.84,6.23 22.51,7.24 30.95,7.24 1.61,0 3.01,-0.2 4.02,-0.2 h 3.02 c 5.63,0 11.66,0.8 16.88,0.8 4.22,0 8.44,-0.4 11.86,-2.41 -2.21,-11.46 -3.42,-12.06 -4.22,-24.32 v -3.82 c 0,-1.21 0,-2.21 0,-3.01 0,-2.01 -0.2,-2.81 -0.8,-2.81 -9.45,0 -29.74,6.63 -41,6.63 -5.23,0 -22.91,-0.8 -26.73,-0.8 -0.8,0 -1.81,0 -3.62,0.4 l 3.22,3.42 c 3.42,3.82 4.62,4.42 5.63,12.66 -0.02,2.4 0.58,4.21 0.79,6.22 z"
           id="path1320" />
        <path
           fill="#00004a"
           d="m 1396.38,504.41 c -0.6,-4.22 -1.61,-8.24 -3.22,-11.86 v -2.21 c 0.8,-4.22 4.22,-6.63 7.64,-6.63 5.83,0 8.64,7.43 10.25,13.26 11.66,-2.61 31.75,-3.62 47.23,-3.62 15.88,0 22.91,0 27.93,7.64 l 0.2,1.41 v -0.2 c 0.6,1.81 0.6,3.01 0.6,4.22 0,6.83 -5.02,11.25 -10.85,11.25 -2.21,0 -4.02,-0.4 -5.83,-1.61 -5.63,-0.8 -14.07,-1.21 -21.7,-1.21 -14.47,0 -26.53,0.4 -33.76,2.01 2.61,19.49 5.63,43.41 6.83,63.71 0,6.43 -4.62,9.85 -9.04,9.85 -8.84,0 -12.66,-14.67 -14.87,-24.92 l -2.21,-8.64 c -2.81,-8.24 -7.64,-22.91 -7.64,-33.16 0,-10.05 4.22,-15.68 8.44,-19.29 z"
           id="path1322" />
      </g>
    </g>
  </g>
</svg>
