<?xml version="1.0" encoding="UTF-8" standalone="no"?>
<!-- Created with Inkscape (http://www.inkscape.org/) -->

<svg
   viewBox="0 0 295.53958 83.653312"
   version="1.1"
   id="svg1510"
   xmlns="http://www.w3.org/2000/svg"
   xmlns:svg="http://www.w3.org/2000/svg">
  <defs
     id="defs1507" />
  <g
     id="layer1"
     transform="translate(1.905655,-46.992126)">
    <g
       id="nonelastic"
       transform="matrix(0.26458333,0,0,0.26458333,-5.6370949,16.297912)">
      <g
         id="panda_gang"
         transform="translate(-356.89692,-591.99037)">
        <g
           id="g1343">
          <path
             fill="#d22940"
             d="m 384.82,809.54 0.6,0.4 c -0.2,-1.41 -0.2,-2.81 -0.2,-4.02 0,-6.83 2.61,-15.07 11.05,-15.07 11.25,0 12.66,13.26 13.67,21.91 l 0.4,3.21 c 0,-0.2 52.65,-3.41 62.5,-3.41 7.64,0 15.27,2.61 15.27,12.86 0,8.24 -5.43,20.5 -5.43,26.53 0,8.84 4.02,21.3 4.02,33.16 0,14.07 -4.62,25.32 -22.11,25.32 -2.61,0 -5.23,-0.4 -8.24,-0.4 -7.03,0 -23.92,1.61 -31.15,1.61 -3.01,0 -6.03,-0.2 -8.64,-1.21 0.6,24.32 2.01,46.02 7.03,71.14 h 0.2 c 5.83,0 10.85,4.42 10.85,12.06 0,9.65 -0.6,27.33 -12.26,29.74 h -2.21 c -12.26,-1.81 -15.07,-20.5 -17.48,-33.16 l -0.6,-4.02 c -1.81,-11.86 -4.42,-25.92 -5.02,-38.38 -2.81,-1.41 -5.83,-4.02 -5.83,-8.44 l -0.6,-48.43 c -4.02,-6.03 -4.22,-17.69 -4.22,-22.91 0,-5.02 0.4,-10.45 0.4,-17.28 -0.4,-2.41 -1.21,-5.23 -1.81,-7.43 l -0.4,-1.81 -2.41,-4.62 c -2.01,-4.02 -4.02,-7.64 -4.02,-12.66 l -3.42,-2.81 z m 26.73,18.09 0.4,4.42 c -1.61,0 -3.42,0 -4.42,-0.2 z m 0.41,4.42 0.8,4.42 c 2.81,15.07 3.01,32.96 3.62,48.84 16.48,1.81 29.94,8.24 46.22,8.24 4.42,0 7.03,-0.4 7.03,-5.23 0,-4.82 -1.41,-12.66 -2.21,-16.68 l 0.2,0.2 c -2.61,-6.43 -2.41,-16.08 -2.41,-21.5 0,-5.83 1,-11.66 3.01,-18.69 -5.02,0 -9.24,1 -16.48,1 -11.65,0 -29.54,-0.2 -39.78,-0.6 z"
             id="path1325" />
          <path
             fill="#d22940"
             d="m 486.52,837.48 c 6.23,-16.28 4.22,-35.57 31.15,-35.57 20.5,0.4 41.8,2.61 61.7,8.84 4.22,2.81 4.82,4.82 4.82,11.46 0,14.87 -6.03,33.36 -7.44,45.62 2.21,16.28 2.21,36.58 4.82,55.67 0.8,1.61 1.41,4.42 1.41,6.63 l -0.2,5.23 c -2.21,5.83 -6.43,8.64 -10.85,8.64 -12.66,0 -13.06,-18.29 -13.47,-30.95 v -0.6 c -5.23,0.6 -10.65,0.4 -13.67,1 l -7.03,1.41 c -6.83,1.41 -15.07,3.42 -22.51,3.42 -17.69,0 -22.11,-12.06 -22.11,-20.7 l 0.2,-0.2 c 1,-8.24 7.23,-54.66 26.53,-54.66 7.24,0 15.47,4.22 21.5,5.23 6.03,-0.8 11.05,-1.41 15.27,-1.41 1.81,0 3.62,0 5.23,0.2 1.21,-7.03 2.21,-11.66 3.42,-19.49 -10.85,-3.01 -31.95,-7.24 -46.22,-7.24 -14.87,0 -9.45,3.22 -19.29,24.12 z m 63.7,56.87 c 1.61,0 2.41,0.2 3.62,0.2 1,0 2.01,-0.2 3.42,-0.6 -0.4,-8.24 -1,-24.92 -0.8,-26.53 -4.82,0 -9.65,1.01 -14.47,1.01 -5.23,0 -10.45,-1.41 -15.27,-3.22 l -3.62,-1 c -4.02,8.24 -6.43,16.48 -8.84,24.92 0,1.61 -2.01,5.23 -2.01,8.64 0,1.41 2.21,1.61 4.62,1.61 4.82,0 11.25,-1.61 17.08,-3.01 l -0.2,0.2 8.44,-1.81 c 2.2,-0.21 5.02,-0.41 8.03,-0.41 z"
             id="path1327" />
          <path
             fill="#d22940"
             d="m 584.59,912.24 c 0.18,-26.21 4.22,-43.8 6.33,-63.5 2.64,-20.93 -5.98,-58.93 25.51,-58.93 9.67,0 13.19,0.7 19.35,2.29 l 5.98,1.58 c 0,0.18 -0.53,0 -0.53,0 0.88,-0.18 15.48,2.64 25.68,5.98 0.53,-7.74 1.76,-13.72 10.03,-13.72 4.05,0 8.27,2.81 9.85,8.8 -0.35,8.44 -0.7,17.06 -1.41,25.33 v 1.41 c 0,7.91 -1.41,15.48 -1.94,23.39 l -0.53,16.36 c -0.53,16.01 -0.7,33.95 -2.64,49.25 -1.76,4.75 -4.75,6.86 -8.27,6.86 -9.5,0 -9.85,-8.09 -9.85,-14.42 0,-30.08 1.58,-56.46 3.87,-86.19 -7.74,-3.69 -23.04,-5.1 -27.79,-7.21 h 0.18 l -3.87,-0.88 c -4.93,-1.06 -10.91,-2.99 -16.18,-2.81 -7.74,0 -9.67,4.57 -9.67,11.96 0,3.52 0.35,7.04 0.35,9.67 0,28.5 -7.04,52.24 -8.97,84.25 z"
             id="path1329" />
          <path
             fill="#d22940"
             d="m 774.23,839.69 c -13.47,-6.03 -24.72,-7.03 -35.97,-8.24 l -7.84,-0.8 c -7.03,-0.6 -15.07,-2.41 -21.1,-2.61 0.4,0.4 1.01,13.46 1.41,18.49 3.01,19.09 1.21,29.74 15.88,43.21 10.45,9.65 27.33,11.86 43.41,11.86 8.04,0 10.85,-0.2 17.68,-0.8 -5.83,-19.49 -7.64,-36.17 -7.64,-54.26 0,-17.48 2.21,-34.97 4.42,-54.26 l 3.42,-25.12 c 0,-15.07 0.6,-41.6 11.45,-41.6 8.64,0 10.85,7.64 10.85,17.48 0,5.43 -0.6,11.46 -1.41,16.28 -1,28.94 -4.42,55.07 -4.42,84.21 0,17.68 -0.2,27.73 5.23,43.81 2.81,1.41 4.62,3.62 5.83,8.04 l 0.6,6.83 c 0,6.23 -2.81,12.66 -12.06,12.66 0,0 -0.2,-0.2 -0.4,-0.2 -5.43,4.62 -15.68,5.43 -25.72,5.43 -68.13,0 -80.39,-17.08 -83.8,-69.53 0,-2.81 -1.21,-10.25 -1.21,-17.69 0,-19.89 8.04,-21.3 19.29,-21.3 5.83,0 11.86,0.8 16.88,2.21 16.28,4.42 30.55,2.61 50.44,11.86 z"
             id="path1331" />
          <path
             fill="#d22940"
             d="m 816.43,837.48 c 6.23,-16.28 4.22,-35.57 31.15,-35.57 20.5,0.4 41.8,2.61 61.7,8.84 4.22,2.81 4.82,4.82 4.82,11.46 0,14.87 -6.03,33.36 -7.44,45.62 2.21,16.28 2.21,36.58 4.82,55.67 0.8,1.61 1.41,4.42 1.41,6.63 l -0.2,5.23 c -2.21,5.83 -6.43,8.64 -10.85,8.64 -12.66,0 -13.06,-18.29 -13.47,-30.95 v -0.6 c -5.23,0.6 -10.65,0.4 -13.67,1 l -7.03,1.41 c -6.83,1.41 -15.07,3.42 -22.51,3.42 -17.69,0 -22.11,-12.06 -22.11,-20.7 l 0.2,-0.2 c 1,-8.24 7.23,-54.66 26.53,-54.66 7.24,0 15.47,4.22 21.5,5.23 6.03,-0.8 11.05,-1.41 15.27,-1.41 1.81,0 3.62,0 5.23,0.2 1.21,-7.03 2.21,-11.66 3.42,-19.49 -10.85,-3.01 -31.95,-7.24 -46.22,-7.24 -14.87,0 -9.45,3.22 -19.29,24.12 z m 63.71,56.87 c 1.61,0 2.41,0.2 3.62,0.2 1,0 2.01,-0.2 3.42,-0.6 -0.4,-8.24 -1,-24.92 -0.8,-26.53 -4.82,0 -9.65,1.01 -14.47,1.01 -5.23,0 -10.45,-1.41 -15.27,-3.22 l -3.62,-1 c -4.02,8.24 -6.43,16.48 -8.84,24.92 0,1.61 -2.01,5.23 -2.01,8.64 0,1.41 2.21,1.61 4.62,1.61 4.82,0 11.25,-1.61 17.08,-3.01 l -0.2,0.2 8.44,-1.81 c 2.2,-0.21 5.02,-0.41 8.03,-0.41 z"
             id="path1333" />
          <path
             fill="#d22940"
             d="m 1096.79,822.6 c 7.84,0 13.87,0.4 21.1,0.4 1.01,-4.62 7.44,-7.04 9.45,-7.04 3.62,0 7.64,3.02 9.04,8.44 0.8,19.9 2.01,53.26 9.65,72.55 3.82,2.01 6.03,5.43 6.03,12.06 0,8.24 -2.61,19.29 -4.02,26.13 l -1.21,5.43 c -1,4.62 -1.21,9.65 -1.21,14.07 0,11.26 1.41,22.91 1.41,33.96 0,12.86 -1.61,35.57 -16.08,35.57 -17.28,0 -39.79,-14.87 -56.47,-21.3 h 0.2 c -11.66,-4.82 -23.31,-8.64 -35.17,-12.66 h 0.2 c 3.42,1.01 -47.63,-10.45 -47.63,-27.13 0,-13.06 14.67,-14.47 27.13,-14.47 8.04,0 12.46,5.23 12.46,11.25 0,1.81 -0.4,3.42 -1.41,5.23 12.46,4.82 27.93,8.24 40.19,12.86 18.69,7.03 36.58,18.89 54.66,24.72 0.6,-4.22 0.8,-9.04 0.8,-13.06 0,-9.45 -0.8,-19.29 -0.8,-29.54 0,-10.85 1.81,-20.7 3.82,-30.35 l 1.81,-8.64 c -2.81,1.21 -5.83,1.41 -9.65,1.41 -4.42,0 -7.64,-0.4 -10.65,-0.4 -7.03,0 -24.12,3.82 -39.39,3.82 -7.64,0 -14.87,-1.21 -19.49,-4.82 -11.25,-8.64 -21.7,-35.37 -21.7,-57.68 0,-14.87 4.42,-28.34 15.88,-34.36 9.65,-5.44 31.96,-6.45 51.05,-6.45 z m 18.69,17.69 c 0,-0.4 0,-1.21 0.2,-2.21 h -19.49 c -31.55,0 -50.24,1.61 -50.24,22.91 0,15.88 10.05,36.98 17.08,46.62 h 3.82 c 17.89,0 32.36,-3.62 50.44,-3.62 h 1.21 c -1.41,-14.47 -1.81,-28.54 -2.21,-43.01 -0.01,-4.81 -0.81,-17.88 -0.81,-20.69 z"
             id="path1335" />
          <path
             fill="#d22940"
             d="m 1150.25,837.48 c 6.23,-16.28 4.22,-35.57 31.15,-35.57 20.5,0.4 41.8,2.61 61.7,8.84 4.22,2.81 4.82,4.82 4.82,11.46 0,14.87 -6.03,33.36 -7.44,45.62 2.21,16.28 2.21,36.58 4.82,55.67 0.8,1.61 1.41,4.42 1.41,6.63 l -0.2,5.23 c -2.21,5.83 -6.43,8.64 -10.85,8.64 -12.66,0 -13.06,-18.29 -13.46,-30.95 v -0.6 c -5.23,0.6 -10.65,0.4 -13.67,1 l -7.03,1.41 c -6.83,1.41 -15.07,3.42 -22.51,3.42 -17.69,0 -22.11,-12.06 -22.11,-20.7 l 0.2,-0.2 c 1.01,-8.24 7.23,-54.66 26.53,-54.66 7.23,0 15.47,4.22 21.5,5.23 6.03,-0.8 11.05,-1.41 15.27,-1.41 1.81,0 3.62,0 5.23,0.2 1.21,-7.03 2.21,-11.66 3.42,-19.49 -10.85,-3.01 -31.95,-7.24 -46.22,-7.24 -14.87,0 -9.44,3.22 -19.29,24.12 z m 63.71,56.87 c 1.61,0 2.41,0.2 3.62,0.2 1,0 2.01,-0.2 3.42,-0.6 -0.4,-8.24 -1,-24.92 -0.8,-26.53 -4.82,0 -9.65,1.01 -14.47,1.01 -5.23,0 -10.45,-1.41 -15.27,-3.22 l -3.62,-1 c -4.02,8.24 -6.43,16.48 -8.84,24.92 0,1.61 -2.01,5.23 -2.01,8.64 0,1.41 2.21,1.61 4.62,1.61 4.82,0 11.26,-1.61 17.08,-3.01 l -0.2,0.2 8.44,-1.81 c 2.2,-0.21 5.01,-0.41 8.03,-0.41 z"
             id="path1337" />
          <path
             fill="#d22940"
             d="m 1248.32,912.24 c 0.18,-26.21 4.22,-43.8 6.33,-63.5 2.64,-20.93 -5.98,-58.93 25.51,-58.93 9.67,0 13.19,0.7 19.35,2.29 l 5.98,1.58 c 0,0.18 -0.53,0 -0.53,0 0.88,-0.18 15.48,2.64 25.68,5.98 0.53,-7.74 1.76,-13.72 10.03,-13.72 4.05,0 8.27,2.81 9.85,8.8 -0.35,8.44 -0.7,17.06 -1.41,25.33 v 1.41 c 0,7.91 -1.41,15.48 -1.93,23.39 l -0.53,16.36 c -0.53,16.01 -0.7,33.95 -2.64,49.25 -1.76,4.75 -4.75,6.86 -8.27,6.86 -9.5,0 -9.85,-8.09 -9.85,-14.42 0,-30.08 1.58,-56.46 3.87,-86.19 -7.74,-3.69 -23.04,-5.1 -27.79,-7.21 h 0.18 l -3.87,-0.88 c -4.93,-1.06 -10.9,-2.99 -16.18,-2.81 -7.74,0 -9.67,4.57 -9.67,11.96 0,3.52 0.35,7.04 0.35,9.67 0,28.5 -7.04,52.24 -8.97,84.25 z"
             id="path1339" />
          <path
             fill="#d22940"
             d="m 1432.73,822.6 c 7.84,0 13.87,0.4 21.1,0.4 1.01,-4.62 7.44,-7.04 9.45,-7.04 3.62,0 7.64,3.02 9.04,8.44 0.8,19.9 2.01,53.26 9.65,72.55 3.82,2.01 6.03,5.43 6.03,12.06 0,8.24 -2.61,19.29 -4.02,26.13 l -1.21,5.43 c -1,4.62 -1.21,9.65 -1.21,14.07 0,11.26 1.41,22.91 1.41,33.96 0,12.86 -1.61,35.57 -16.08,35.57 -17.28,0 -39.79,-14.87 -56.47,-21.3 h 0.2 c -11.66,-4.82 -23.31,-8.64 -35.17,-12.66 h 0.2 c 3.42,1.01 -47.63,-10.45 -47.63,-27.13 0,-13.06 14.67,-14.47 27.13,-14.47 8.04,0 12.46,5.23 12.46,11.25 0,1.81 -0.4,3.42 -1.41,5.23 12.46,4.82 27.93,8.24 40.19,12.86 18.69,7.03 36.58,18.89 54.66,24.72 0.6,-4.22 0.8,-9.04 0.8,-13.06 0,-9.45 -0.8,-19.29 -0.8,-29.54 0,-10.85 1.81,-20.7 3.82,-30.35 l 1.81,-8.64 c -2.81,1.21 -5.83,1.41 -9.65,1.41 -4.42,0 -7.64,-0.4 -10.65,-0.4 -7.03,0 -24.12,3.82 -39.39,3.82 -7.64,0 -14.87,-1.21 -19.49,-4.82 -11.25,-8.64 -21.7,-35.37 -21.7,-57.68 0,-14.87 4.42,-28.34 15.88,-34.36 9.66,-5.44 31.96,-6.45 51.05,-6.45 z m 18.69,17.69 c 0,-0.4 0,-1.21 0.2,-2.21 h -19.49 c -31.55,0 -50.24,1.61 -50.24,22.91 0,15.88 10.05,36.98 17.08,46.62 h 3.82 c 17.89,0 32.36,-3.62 50.44,-3.62 h 1.21 c -1.41,-14.47 -1.81,-28.54 -2.21,-43.01 0,-4.81 -0.81,-17.88 -0.81,-20.69 z"
             id="path1341" />
        </g>
        <path
           fill="#faae38"
           d="m 381.06,791.98 0.6,0.4 c -0.2,-1.41 -0.2,-2.81 -0.2,-4.02 0,-6.83 2.61,-15.07 11.05,-15.07 11.25,0 12.66,13.26 13.67,21.91 l 0.4,3.21 c 0,-0.2 52.65,-3.41 62.5,-3.41 7.64,0 15.27,2.61 15.27,12.86 0,8.24 -5.43,20.5 -5.43,26.53 0,8.84 4.02,21.3 4.02,33.16 0,14.07 -4.62,25.32 -22.11,25.32 -2.61,0 -5.23,-0.4 -8.24,-0.4 -7.03,0 -23.92,1.61 -31.15,1.61 -3.01,0 -6.03,-0.2 -8.64,-1.21 0.6,24.32 2.01,46.02 7.03,71.14 h 0.2 c 5.83,0 10.85,4.42 10.85,12.06 0,9.65 -0.6,27.33 -12.26,29.74 h -2.21 c -12.26,-1.81 -15.07,-20.5 -17.48,-33.16 l -0.6,-4.02 c -1.81,-11.86 -4.42,-25.92 -5.02,-38.38 -2.81,-1.41 -5.83,-4.02 -5.83,-8.44 l -0.6,-48.43 c -4.02,-6.03 -4.22,-17.69 -4.22,-22.91 0,-5.02 0.4,-10.45 0.4,-17.28 -0.4,-2.41 -1.21,-5.23 -1.81,-7.43 l -0.4,-1.81 -2.41,-4.62 c -2.01,-4.02 -4.02,-7.64 -4.02,-12.66 L 371,803.86 Z m 26.73,18.09 0.4,4.42 c -1.61,0 -3.42,0 -4.42,-0.2 z m 0.4,4.42 0.8,4.42 c 2.81,15.07 3.01,32.96 3.62,48.84 16.48,1.81 29.94,8.24 46.22,8.24 4.42,0 7.03,-0.4 7.03,-5.23 0,-4.82 -1.41,-12.66 -2.21,-16.68 l 0.2,0.2 c -2.61,-6.43 -2.41,-16.08 -2.41,-21.5 0,-5.83 1,-11.66 3.01,-18.69 -5.02,0 -9.24,1 -16.48,1 -11.64,0 -29.53,-0.2 -39.78,-0.6 z"
           id="path1345" />
        <path
           fill="#faae38"
           d="m 482.75,819.92 c 6.23,-16.28 4.22,-35.57 31.15,-35.57 20.5,0.4 41.8,2.61 61.7,8.84 4.22,2.81 4.82,4.82 4.82,11.46 0,14.87 -6.03,33.36 -7.44,45.62 2.21,16.28 2.21,36.58 4.82,55.67 0.8,1.61 1.41,4.42 1.41,6.63 l -0.2,5.23 c -2.21,5.83 -6.43,8.64 -10.85,8.64 -12.66,0 -13.06,-18.29 -13.47,-30.95 v -0.6 c -5.23,0.6 -10.65,0.4 -13.67,1 l -7.03,1.41 c -6.83,1.41 -15.07,3.42 -22.51,3.42 -17.69,0 -22.11,-12.06 -22.11,-20.7 l 0.2,-0.2 c 1,-8.24 7.23,-54.66 26.53,-54.66 7.24,0 15.47,4.22 21.5,5.23 6.03,-0.8 11.05,-1.41 15.27,-1.41 1.81,0 3.62,0 5.23,0.2 1.21,-7.03 2.21,-11.66 3.42,-19.49 -10.85,-3.01 -31.95,-7.24 -46.22,-7.24 -14.87,0 -9.45,3.22 -19.29,24.12 z m 63.71,56.87 c 1.61,0 2.41,0.2 3.62,0.2 1,0 2.01,-0.2 3.42,-0.6 -0.4,-8.24 -1,-24.92 -0.8,-26.53 -4.82,0 -9.65,1.01 -14.47,1.01 -5.23,0 -10.45,-1.41 -15.27,-3.22 l -3.62,-1 c -4.02,8.24 -6.43,16.48 -8.84,24.92 0,1.61 -2.01,5.23 -2.01,8.64 0,1.41 2.21,1.61 4.62,1.61 4.82,0 11.25,-1.61 17.08,-3.01 l -0.2,0.2 8.44,-1.81 c 2.2,-0.21 5.02,-0.41 8.03,-0.41 z"
           id="path1347" />
        <path
           fill="#faae38"
           d="m 580.83,894.68 c 0.18,-26.21 4.22,-43.8 6.33,-63.5 2.64,-20.93 -5.98,-58.93 25.51,-58.93 9.67,0 13.19,0.7 19.35,2.29 l 5.98,1.58 c 0,0.18 -0.53,0 -0.53,0 0.88,-0.18 15.48,2.64 25.68,5.98 0.53,-7.74 1.76,-13.72 10.03,-13.72 4.05,0 8.27,2.81 9.85,8.8 -0.35,8.44 -0.7,17.06 -1.41,25.33 v 1.41 c 0,7.91 -1.41,15.48 -1.94,23.39 l -0.53,16.36 c -0.53,16.01 -0.7,33.95 -2.64,49.25 -1.76,4.75 -4.75,6.86 -8.27,6.86 -9.5,0 -9.85,-8.09 -9.85,-14.42 0,-30.08 1.58,-56.46 3.87,-86.19 -7.74,-3.69 -23.04,-5.1 -27.79,-7.21 h 0.18 l -3.87,-0.88 c -4.93,-1.06 -10.91,-2.99 -16.18,-2.81 -7.74,0 -9.67,4.57 -9.67,11.96 0,3.52 0.35,7.04 0.35,9.67 0,28.5 -7.04,52.24 -8.97,84.25 z"
           id="path1349" />
        <path
           fill="#faae38"
           d="m 770.46,822.13 c -13.47,-6.03 -24.72,-7.03 -35.97,-8.24 l -7.84,-0.8 c -7.03,-0.6 -15.07,-2.41 -21.1,-2.61 0.4,0.4 1.01,13.46 1.41,18.49 3.01,19.09 1.21,29.74 15.88,43.21 10.45,9.65 27.33,11.86 43.41,11.86 8.04,0 10.85,-0.2 17.68,-0.8 -5.83,-19.49 -7.64,-36.17 -7.64,-54.26 0,-17.48 2.21,-34.97 4.42,-54.26 l 3.42,-25.12 c 0,-15.07 0.6,-41.6 11.45,-41.6 8.64,0 10.85,7.64 10.85,17.48 0,5.43 -0.6,11.46 -1.41,16.28 -1,28.94 -4.42,55.07 -4.42,84.21 0,17.68 -0.2,27.73 5.23,43.81 2.81,1.41 4.62,3.62 5.83,8.04 l 0.6,6.83 c 0,6.23 -2.81,12.66 -12.06,12.66 0,0 -0.2,-0.2 -0.4,-0.2 -5.43,4.62 -15.68,5.43 -25.72,5.43 -68.13,0 -80.39,-17.08 -83.8,-69.53 0,-2.81 -1.21,-10.25 -1.21,-17.69 0,-19.89 8.04,-21.3 19.29,-21.3 5.83,0 11.86,0.8 16.88,2.21 16.28,4.42 30.55,2.61 50.44,11.86 z"
           id="path1351" />
        <path
           fill="#faae38"
           d="m 812.67,819.92 c 6.23,-16.28 4.22,-35.57 31.15,-35.57 20.5,0.4 41.8,2.61 61.7,8.84 4.22,2.81 4.82,4.82 4.82,11.46 0,14.87 -6.03,33.36 -7.44,45.62 2.21,16.28 2.21,36.58 4.82,55.67 0.8,1.61 1.41,4.42 1.41,6.63 l -0.2,5.23 c -2.21,5.83 -6.43,8.64 -10.85,8.64 -12.66,0 -13.06,-18.29 -13.47,-30.95 v -0.6 c -5.23,0.6 -10.65,0.4 -13.67,1 l -7.03,1.41 c -6.83,1.41 -15.07,3.42 -22.51,3.42 -17.69,0 -22.11,-12.06 -22.11,-20.7 l 0.2,-0.2 c 1,-8.24 7.23,-54.66 26.53,-54.66 7.24,0 15.47,4.22 21.5,5.23 6.03,-0.8 11.05,-1.41 15.27,-1.41 1.81,0 3.62,0 5.23,0.2 1.21,-7.03 2.21,-11.66 3.42,-19.49 -10.85,-3.01 -31.95,-7.24 -46.22,-7.24 -14.87,0 -9.45,3.22 -19.29,24.12 z m 63.71,56.87 c 1.61,0 2.41,0.2 3.62,0.2 1,0 2.01,-0.2 3.42,-0.6 -0.4,-8.24 -1,-24.92 -0.8,-26.53 -4.82,0 -9.65,1.01 -14.47,1.01 -5.23,0 -10.45,-1.41 -15.27,-3.22 l -3.62,-1 c -4.02,8.24 -6.43,16.48 -8.84,24.92 0,1.61 -2.01,5.23 -2.01,8.64 0,1.41 2.21,1.61 4.62,1.61 4.82,0 11.25,-1.61 17.08,-3.01 l -0.2,0.2 8.44,-1.81 c 2.2,-0.21 5.01,-0.41 8.03,-0.41 z"
           id="path1353" />
        <path
           fill="#faae38"
           d="m 1093.03,805.05 c 7.84,0 13.87,0.4 21.1,0.4 1.01,-4.62 7.44,-7.04 9.45,-7.04 3.62,0 7.64,3.02 9.04,8.44 0.8,19.9 2.01,53.26 9.65,72.55 3.82,2.01 6.03,5.43 6.03,12.06 0,8.24 -2.61,19.29 -4.02,26.13 l -1.21,5.43 c -1,4.62 -1.21,9.65 -1.21,14.07 0,11.26 1.41,22.91 1.41,33.96 0,12.86 -1.61,35.57 -16.08,35.57 -17.28,0 -39.79,-14.87 -56.47,-21.3 h 0.2 c -11.66,-4.82 -23.31,-8.64 -35.17,-12.66 h 0.2 c 3.42,1.01 -47.63,-10.45 -47.63,-27.13 0,-13.06 14.67,-14.47 27.13,-14.47 8.04,0 12.46,5.23 12.46,11.25 0,1.81 -0.4,3.42 -1.41,5.23 12.46,4.82 27.93,8.24 40.19,12.86 18.69,7.03 36.58,18.89 54.66,24.72 0.6,-4.22 0.8,-9.04 0.8,-13.06 0,-9.45 -0.8,-19.29 -0.8,-29.54 0,-10.85 1.81,-20.7 3.82,-30.35 l 1.81,-8.64 c -2.81,1.21 -5.83,1.41 -9.65,1.41 -4.42,0 -7.64,-0.4 -10.65,-0.4 -7.03,0 -24.12,3.82 -39.39,3.82 -7.64,0 -14.87,-1.21 -19.49,-4.82 -11.25,-8.64 -21.7,-35.37 -21.7,-57.68 0,-14.87 4.42,-28.34 15.88,-34.36 9.65,-5.45 31.95,-6.45 51.05,-6.45 z m 18.69,17.68 c 0,-0.4 0,-1.21 0.2,-2.21 h -19.49 c -31.55,0 -50.24,1.61 -50.24,22.91 0,15.88 10.05,36.98 17.08,46.62 h 3.82 c 17.89,0 32.36,-3.62 50.44,-3.62 h 1.21 c -1.41,-14.47 -1.81,-28.54 -2.21,-43.01 -0.01,-4.81 -0.81,-17.88 -0.81,-20.69 z"
           id="path1355" />
        <path
           fill="#faae38"
           d="m 1146.49,819.92 c 6.23,-16.28 4.22,-35.57 31.15,-35.57 20.5,0.4 41.8,2.61 61.7,8.84 4.22,2.81 4.82,4.82 4.82,11.46 0,14.87 -6.03,33.36 -7.44,45.62 2.21,16.28 2.21,36.58 4.82,55.67 0.8,1.61 1.41,4.42 1.41,6.63 l -0.2,5.23 c -2.21,5.83 -6.43,8.64 -10.85,8.64 -12.66,0 -13.06,-18.29 -13.46,-30.95 v -0.6 c -5.23,0.6 -10.65,0.4 -13.67,1 l -7.03,1.41 c -6.83,1.41 -15.07,3.42 -22.51,3.42 -17.69,0 -22.11,-12.06 -22.11,-20.7 l 0.2,-0.2 c 1.01,-8.24 7.23,-54.66 26.53,-54.66 7.23,0 15.47,4.22 21.5,5.23 6.03,-0.8 11.05,-1.41 15.27,-1.41 1.81,0 3.62,0 5.23,0.2 1.21,-7.03 2.21,-11.66 3.42,-19.49 -10.85,-3.01 -31.95,-7.24 -46.22,-7.24 -14.87,0 -9.44,3.22 -19.29,24.12 z m 63.7,56.87 c 1.61,0 2.41,0.2 3.62,0.2 1,0 2.01,-0.2 3.42,-0.6 -0.4,-8.24 -1,-24.92 -0.8,-26.53 -4.82,0 -9.65,1.01 -14.47,1.01 -5.23,0 -10.45,-1.41 -15.27,-3.22 l -3.62,-1 c -4.02,8.24 -6.43,16.48 -8.84,24.92 0,1.61 -2.01,5.23 -2.01,8.64 0,1.41 2.21,1.61 4.62,1.61 4.82,0 11.25,-1.61 17.08,-3.01 l -0.2,0.2 8.44,-1.81 c 2.21,-0.21 5.02,-0.41 8.03,-0.41 z"
           id="path1357" />
        <path
           fill="#faae38"
           d="m 1244.56,894.68 c 0.18,-26.21 4.22,-43.8 6.33,-63.5 2.64,-20.93 -5.98,-58.93 25.51,-58.93 9.67,0 13.19,0.7 19.35,2.29 l 5.98,1.58 c 0,0.18 -0.53,0 -0.53,0 0.88,-0.18 15.48,2.64 25.68,5.98 0.53,-7.74 1.76,-13.72 10.03,-13.72 4.05,0 8.27,2.81 9.85,8.8 -0.35,8.44 -0.7,17.06 -1.41,25.33 v 1.41 c 0,7.91 -1.41,15.48 -1.93,23.39 l -0.53,16.36 c -0.53,16.01 -0.7,33.95 -2.64,49.25 -1.76,4.75 -4.75,6.86 -8.27,6.86 -9.5,0 -9.85,-8.09 -9.85,-14.42 0,-30.08 1.58,-56.46 3.87,-86.19 -7.74,-3.69 -23.04,-5.1 -27.79,-7.21 h 0.18 l -3.87,-0.88 c -4.93,-1.06 -10.9,-2.99 -16.18,-2.81 -7.74,0 -9.67,4.57 -9.67,11.96 0,3.52 0.35,7.04 0.35,9.67 0,28.5 -7.04,52.24 -8.97,84.25 z"
           id="path1359" />
        <path
           fill="#faae38"
           d="m 1428.97,805.05 c 7.84,0 13.87,0.4 21.1,0.4 1.01,-4.62 7.44,-7.04 9.45,-7.04 3.62,0 7.64,3.02 9.04,8.44 0.8,19.9 2.01,53.26 9.65,72.55 3.82,2.01 6.03,5.43 6.03,12.06 0,8.24 -2.61,19.29 -4.02,26.13 l -1.21,5.43 c -1,4.62 -1.21,9.65 -1.21,14.07 0,11.26 1.41,22.91 1.41,33.96 0,12.86 -1.61,35.57 -16.08,35.57 -17.28,0 -39.79,-14.87 -56.47,-21.3 h 0.2 c -11.66,-4.82 -23.31,-8.64 -35.17,-12.66 h 0.2 c 3.42,1.01 -47.63,-10.45 -47.63,-27.13 0,-13.06 14.67,-14.47 27.13,-14.47 8.04,0 12.46,5.23 12.46,11.25 0,1.81 -0.4,3.42 -1.41,5.23 12.46,4.82 27.93,8.24 40.19,12.86 18.69,7.03 36.58,18.89 54.66,24.72 0.6,-4.22 0.8,-9.04 0.8,-13.06 0,-9.45 -0.8,-19.29 -0.8,-29.54 0,-10.85 1.81,-20.7 3.82,-30.35 l 1.81,-8.64 c -2.81,1.21 -5.83,1.41 -9.65,1.41 -4.42,0 -7.64,-0.4 -10.65,-0.4 -7.03,0 -24.12,3.82 -39.39,3.82 -7.64,0 -14.87,-1.21 -19.49,-4.82 -11.25,-8.64 -21.7,-35.37 -21.7,-57.68 0,-14.87 4.42,-28.34 15.88,-34.36 9.65,-5.45 31.96,-6.45 51.05,-6.45 z m 18.69,17.68 c 0,-0.4 0,-1.21 0.2,-2.21 h -19.49 c -31.55,0 -50.24,1.61 -50.24,22.91 0,15.88 10.05,36.98 17.08,46.62 h 3.82 c 17.89,0 32.36,-3.62 50.44,-3.62 h 1.21 c -1.41,-14.47 -1.81,-28.54 -2.21,-43.01 0,-4.81 -0.81,-17.88 -0.81,-20.69 z"
           id="path1361" />
      </g>
    </g>
  </g>
</svg>
