<?xml version="1.0" encoding="UTF-8" standalone="no"?>
<!-- Created with Inkscape (http://www.inkscape.org/) -->

<svg
   width="265.18594mm"
   height="179.52902mm"
   viewBox="0 0 265.18594 179.52902"
   version="1.1"
   id="svg1363"
   xmlns="http://www.w3.org/2000/svg"
   xmlns:svg="http://www.w3.org/2000/svg">
  <defs
     id="defs1360" />
  <g
     id="layer1"
     transform="translate(-47.125707,-80.078219)">
    <g
       id="break_falls"
       transform="matrix(0.26458333,0,0,0.26458333,-127.16126,62.492668)">
      <path
         d="m 679,119 4,2 2,-1 2,1 h 1 l 2,1 1,-1 1,2 1,-1 1,2 1,-1 1,1 v -1 h 1 v 2 l 10,3 1,1 1,-1 2,2 h 3 l 5,3 h 1 v 1 l 2,-1 v 2 h 1 l 3,2 h 1 l 4,4 h 1 l 7,6 v 1 l 1,-1 1,2 h -1 l 5,5 v 1 l 2,4 v 1 l 3,12 -1,1 v 2 h -1 l 1,1 -1,1 v 2 l -2,3 v 1 l -6,4 v 2 h -1 l -1,-1 c 0,1 -1,4 -5,7 h -1 v -1 l -2,3 1,1 v -1 h 1 l 5,3 h 1 l 8,3 1,-1 c 9,4 15,9 17,14 1,0 3,2 5,6 l 1,1 h -1 l 1,1 -1,1 3,2 v 1 l -2,1 2,3 h 1 v 1 h -1 v 1 l 2,2 v 1 h -1 l -1,-1 v 4 l -1,1 h 1 v 1 l -1,1 h 1 l 1,-1 v 1 l -2,2 v 4 c -1,0 -2,1 -2,3 v 2 c -2,1 -4,3 -4,5 h -1 v 1 h -2 l -1,1 1,1 -5,4 -1,-1 -1,1 h -1 l -1,2 1,1 -3,-1 v 1 h -1 v -1 l -3,2 h -2 l -4,3 h -3 l -2,2 v -1 l -2,2 -3,-1 -5,2 -3,2 h -1 l -5,2 -1,-1 v 1 h -1 l -4,1 h -1 v -1 h -2 v 1 l -2,-1 v 2 l -1,-1 -1,1 v -1 h -1 l -1,2 -2,-1 v 1 l -4,-2 -1,1 h -2 l -2,-2 h -2 1 l -1,-1 -2,1 -1,-3 h -1 l -1,1 c 0,-1 -1,-2 -3,-2 l -3,-3 v -2 h -1 l 1,-1 v -1 l -3,-1 1,-1 v -3 l 1,1 1,-1 v -1 h 2 l -1,-1 5,-2 v -2 l 2,1 1,-1 v -1 h -1 l 3,-3 v -2 h 1 l -2,-5 2,-4 -1,-1 1,-1 h -1 l 2,-7 v -1 l 1,-2 -1,-1 h 2 l -1,1 h 1 l -1,-7 v -1 h -1 v -7 h -3 l -2,-1 h -3 l 1,-1 -1,-2 h -1 l -3,-4 v -6 l 2,-2 -1,-1 c 1,0 3,-1 6,-5 l 4,-2 h -1 v -2 l -1,-5 v -3 l -1,-4 -1,-1 1,-2 -2,-1 v -1 h 1 l -1,-1 v -2 l -1,-1 1,-1 -2,-1 h 1 l -1,-3 v -1 l -1,1 c -2,-9 -4,-13 -5,-14 l -1,1 v -1 l -1,-2 -1,-2 h -1 v -1 h 1 l -2,-4 v 1 h -1 l 1,-2 v -1 l -1,1 c -2,0 -3,-2 -3,-4 l -1,1 h -1 l -3,-3 -2,-5 -1,-1 1,-2 v -1 l 1,-1 v 2 h 1 l -1,-2 5,-2 -1,-1 4,-1 h 1 v -2 h 1 v 1 h 4 l 2,1 z m -10,0 h 1 v 1 h -1 z m 4,30 1,1 h -1 z m 4,115 1,1 h -1 z m 0,3 h 1 z m 2,-7 h 1 v 1 h -1 z m 5,-4 v 1 z m 4,2 h 1 v -1 z m 2,-19 v 1 h 1 v -1 z m 2,-5 1,-1 z m 4,-88 v 7 l 1,3 v 2 l 1,4 v 1 l 1,1 -1,2 v 1 c 1,0 2,2 2,6 l 1,1 h -1 l 1,6 3,13 h 1 l 10,-5 c 6,-1 11,-6 17,-15 v -4 l -2,-1 1,-1 v -1 c -2,0 -3,-1 -3,-3 -2,-3 -6,-6 -10,-8 l -5,-4 h -1 c 0,-2 -4,-3 -11,-4 l -1,-2 -1,1 -1,-1 z m 16,66 -2,-1 -4,1 1,10 v -1 26 l -1,1 1,1 -1,3 v 3 l 1,2 h 1 l 2,-1 h 7 l 7,-1 1,-1 1,1 h 1 l 8,-4 h 1 v 1 a 50,50 0 0 0 14,-10 v -1 c -1,-1 0,-2 1,-4 h -1 l 1,-3 -2,-2 h 2 c 0,-2 -1,-5 -4,-7 v -3 h -1 v -1 h 1 l -1,-2 h -4 l -4,-2 -3,-2 h -2 l -1,-1 h -2 l -3,-2 -2,1 v -1 h -2 l -1,-1 h -6 z m 27,-25 -1,1 h 1 z m 0,2 v 1 z m 12,80 1,-1 v 1 z m 8,-5 h 1 v 1 h -1 z m 61,-159 1,1 h 3 l 1,2 5,-1 3,3 1,-1 2,1 h 1 l 2,1 1,-1 2,1 h 3 l 5,3 h 2 l 1,1 h 4 v 1 h 3 l -1,1 h 1 l 3,1 h 2 l 1,2 h 1 l 3,2 h 2 c 0,2 1,3 2,3 v -1 l 1,2 1,-1 c 2,2 4,3 3,4 l 2,-1 8,12 -1,1 c 3,0 4,2 3,4 l 5,13 2,2 -1,1 2,3 -2,2 2,1 v -1 l 1,2 h -2 l 1,8 -1,3 v 4 l -1,-1 -1,1 v 5 h -1 l 1,1 c -3,8 -9,14 -17,20 -2,0 -4,1 -8,5 -3,-1 -4,0 -5,2 h -1 l -1,-1 -16,5 -1,2 17,11 h 2 c 0,2 1,3 4,4 l 4,5 h 2 l 3,3 -1,-2 c 1,0 2,1 1,4 h 3 l 4,4 4,4 2,-1 h 1 l -1,1 h -1 v 3 h 3 l 1,2 1,1 v -2 l 1,1 1,1 -4,1 4,2 v 1 l -2,-1 v 1 h 2 l -1,2 4,-1 -1,1 v 1 l -1,1 4,2 v 2 l -2,1 2,2 -1,1 h -1 l -1,-1 v 1 c 1,0 2,1 2,3 v 1 l -3,-2 -2,1 1,2 h -3 v 2 l 2,3 h -1 l -2,-3 -1,3 -2,1 v -2 l 1,-1 -5,2 -1,-1 h -1 v 1 h -2 v -1 l 1,-1 -3,-2 -4,1 h -1 v -2 l -2,1 -1,-5 -2,1 -1,-2 3,-1 -5,-11 -4,-4 h -1 v -1 l 1,-1 -1,-1 -1,1 -1,-4 h -1 l -2,-6 -9,-9 -6,-6 -1,2 h -1 l 1,-1 -1,-2 h -3 l -1,-4 -1,1 v 2 h -1 1 l -1,-2 -1,1 -2,-2 v 1 h -2 l -1,-2 -1,1 -5,-5 c -1,-1 -2,0 -2,1 h -1 v -1 l -2,-1 1,3 -1,2 v 2 -1 5 l -1,2 1,2 -1,3 -1,1 h 2 l -1,2 1,1 -1,3 h -1 l 2,1 v 3 l -2,2 1,2 -3,4 v 1 c -2,6 -4,9 -7,10 l -1,-1 h -1 l -1,2 h -1 l -3,-3 c -2,-2 -3,-4 -2,-5 v -2 l 1,-1 -1,-1 1,-1 1,-3 h -1 l 2,-5 v -1 l 2,-5 -1,-1 1,-2 1,-11 h 1 l -1,-3 h 1 l -1,-4 v 1 -2 l 1,-1 -5,-7 2,-4 -2,-2 h 1 l 1,1 2,-5 -2,-6 c 0,-11 -1,-18 -2,-21 1,-3 0,-5 -1,-5 v -1 h 1 l -2,-8 h -1 v 1 l -1,-1 1,-1 -1,-5 1,-1 -2,-1 1,-2 -4,-4 2,-1 -2,-1 v -1 l 1,-2 -3,-6 1,-1 h 1 l -1,1 h 2 v -1 l -2,-1 1,-1 -2,-2 1,-1 1,-1 -1,-1 1,-1 h -1 l -2,1 v -1 l 1,-1 -1,-1 h 1 c 0,-2 -2,-4 -7,-5 h -4 v -1 h -2 l -2,-1 v -8 l 2,-1 v -2 l 4,-2 -1,-1 h 3 l 3,-2 v 2 c 3,-2 5,-3 7,-2 v -2 l 5,2 1,-1 2,1 h 12 l 4,1 z m -32,20 1,1 -1,2 h -1 v -2 z m 3,19 2,1 v 1 h -1 z m 2,-42 -1,1 h -1 c 0,-1 1,-2 2,-1 z m -2,32 h 1 z m 5,26 1,1 v 1 h -1 z m 7,-62 h 1 l -1,2 z m 13,28 v -1 c 0,1 -1,2 -2,1 v 1 l 1,2 -1,1 3,1 -2,2 2,1 -2,3 1,11 v 2 l 1,1 h -2 l 2,1 -1,1 1,6 -1,1 c 2,0 2,1 2,3 l -1,1 v 3 c 0,6 1,9 2,10 l -2,2 1,1 v 1 h -2 v 1 h 1 v 1 l -1,1 c 2,3 3,9 3,17 l 3,1 v -1 l 1,2 7,-1 v 1 l 10,-2 3,-1 2,1 21,-6 7,-5 v 1 c 2,-2 4,-5 6,-11 l -1,-2 h 1 v -7 l 1,-1 -2,-8 -3,-6 h -2 l -1,-2 c -3,-1 -8,-5 -13,-12 l -5,-4 -1,1 -1,-1 c 0,-1 -5,-4 -16,-8 l -2,-1 -2,1 -3,-2 h -1 l -3,-1 z m -1,126 1,1 v -2 z m 3,-85 h 1 v 1 h -1 z m 54,114 2,1 -2,1 z m 6,2 h 1 v -1 z m 4,2 v 1 h -1 l -1,-1 z m -1,-155 v 1 h 1 v -1 z m 12,126 h 1 v 1 h -1 z m 2,1 h 1 v 1 h -2 z m 4,14 v 1 l 1,-1 z m -3,-155 h 1 v 1 l -1,1 -1,-1 z m 0,-7 v 1 z m 25,-16 -1,3 -1,-1 1,2 1,-4 h 1 l -1,2 3,1 v -1 h 1 v 1 l -1,1 v 1 h 1 l 1,-1 c 1,2 2,2 3,2 v 1 h -2 v 1 c 1,0 2,0 2,2 h 1 l 1,-1 v 2 l 1,-1 v 1 l -1,1 h 1 l 1,-1 v 3 h 1 l 1,-1 c 2,4 4,5 6,5 l 4,1 -1,2 1,-1 1,1 v -1 h 1 l 1,1 v -2 h 1 l 3,3 1,-2 1,1 v 1 l 7,2 1,-1 1,1 v -1 h 1 v 2 h 1 l 1,-2 c 0,2 2,3 6,4 l 1,-1 4,2 3,-1 -1,1 3,1 3,-1 4,2 v -1 l 1,1 1,-1 h 2 v 1 l 1,-1 2,2 1,-2 2,2 1,-1 h 2 l 2,-1 1,1 h 3 l 4,1 3,-2 1,1 1,-1 v 1 l 3,1 v -1 l 2,2 1,-1 h 2 v 1 h -1 v 1 l 2,1 -1,1 1,1 1,-1 h 1 l -1,1 1,2 2,2 v 5 l 1,-1 1,1 -2,2 v 1 h 2 v 1 c -1,0 -2,1 -2,3 l -2,1 2,1 -2,1 1,1 v 1 h -1 l -2,-1 -2,1 1,1 -1,1 h -1 l -1,-2 -1,2 h 1 l 1,1 -4,-2 1,-1 h -2 l -1,2 h -1 l 1,-1 -2,-1 -1,1 v -1 c -2,0 -3,-1 -3,-2 l -1,1 v -1 l -1,1 -1,-1 h -1 l -1,1 -1,-1 1,1 h -1 v -1 l -1,1 -3,-2 -2,1 v -2 l -2,1 v -1 h -1 v 1 h 1 v 1 h -1 l -1,-2 -1,1 v -1 l -2,-1 v 2 l -2,-2 -1,1 v -1 l -1,-1 -1,2 v -2 l -4,1 -1,-1 -1,1 -1,-1 -1,1 v -1 h -1 c 0,-1 -2,-2 -5,-2 h -2 l -1,1 -3,-1 v 1 h -2 l 1,-2 h -2 l -1,1 h -1 v -2 h -2 l -2,1 -2,-2 h -2 c 0,2 -1,2 -2,2 l 1,-2 -2,-1 h -3 v -1 h -1 v 3 l 2,3 -1,1 1,2 v 1 h 2 v 1 h -1 l 1,3 -1,1 h 1 v 2 l 1,3 v 3 l 2,5 -1,2 c 1,0 2,0 3,2 l -1,1 1,3 -1,1 2,3 -1,1 2,5 c 0,2 1,3 2,3 l 1,-1 h 2 l 4,-1 h 2 c 1,-1 6,-3 15,-4 l 5,-2 v 1 c 2,-2 4,-2 5,-2 l 2,-1 3,3 h 1 l 1,-1 v 1 h -1 l 3,7 v 1 l -2,2 v 1 l -6,4 -1,-1 -6,2 v -1 l -3,1 -4,1 h -2 l -1,1 h -3 l -4,2 -1,-1 -4,2 h -1 l -4,1 1,1 v 5 h 1 l -1,1 1,2 -1,1 h 1 v 1 l -1,1 h 1 l -1,1 2,3 -1,1 1,2 -1,1 1,2 v 5 l 1,5 -1,2 h 1 l 1,-1 v 1 l -1,1 1,2 h -1 v 1 l -1,2 1,1 -1,3 h 2 l -1,1 v 1 l 4,-2 h 3 l 1,-1 h 1 l 6,-3 3,1 2,-1 1,-1 h 1 v -1 l 1,1 1,-1 v 1 l 8,-3 h 4 v -1 l 2,1 1,-1 v 1 l 2,-1 h 3 l 1,-1 6,-1 1,1 3,-2 2,1 h 1 l 2,-1 4,1 h 1 l 4,2 1,-1 v 2 h 1 v -2 l 2,3 -1,1 1,4 -2,5 h -3 l -4,4 h -1 v -1 l -5,2 h -4 l -2,1 -2,-1 -1,2 -1,-1 -5,2 -1,-1 -4,2 -2,1 h -5 l -2,2 -3,-1 v 1 l -1,-1 h -2 l -1,1 h -1 l -4,3 h -1 l -1,-1 v 2 h -2 l -1,-1 -1,2 -1,-1 -5,4 h -1 l -3,2 -2,-1 -4,4 -2,3 -4,-1 -1,1 -2,-1 h -1 1 v 1 h -3 l -2,1 -3,-1 -1,1 h -4 l -3,-1 h -2 l -7,-4 -2,-2 1,-1 -1,-1 v -1 h 1 l 3,-5 1,1 1,-1 -1,-1 1,-1 v -1 l -1,-1 h 2 v 2 l 1,-1 v -2 1 l 3,-1 h 1 l 2,-2 v -1 h 1 l 1,1 1,-2 v 1 l 1,-1 -1,-1 h 2 l -1,-1 1,-3 v -1 l -1,-2 1,-3 v -1 l -1,-1 1,-2 -1,-1 v -5 l 1,-2 c -1,0 -2,-1 -2,-3 l 1,-1 -2,-4 1,-2 -1,-1 1,-2 -1,1 -1,-1 v -3 h 1 l -1,-1 1,-1 -1,-1 h -1 l -1,1 -1,-1 -3,2 -6,-5 h -1 v -2 l -1,-1 v -7 l 1,1 2,-1 -1,-1 1,-1 5,-2 h 1 l 2,-1 h 1 l -1,-2 1,-1 h -2 v -1 l 1,-1 h -1 v -4 l -2,-2 1,-2 h -2 l 1,-1 -1,-1 v -4 l -1,-1 1,-1 -3,-4 -2,-4 1,-1 -1,-2 -2,-4 h -1 l 1,-2 v -1 h -1 v 1 l -1,-1 h 1 l -1,-1 1,-2 -3,-4 1,-1 h -1 v -2 h -1 v -3 l -2,1 v -2 l -1,-3 h 1 l -3,-2 v -1 h -1 v -1 l 2,-1 v -1 l -1,-1 v -2 l -1,1 v -1 l -1,1 -1,-2 h -1 l -1,1 -1,-2 h -1 l 1,2 h -1 l -1,-1 h -3 l -1,1 v -1 l 2,-2 h -1 l -1,1 h -1 v -1 l -1,-1 h 1 l -1,-2 1,-1 h -4 v -2 h 1 v -1 h -1 v -1 h 1 v -1 l -1,-1 -1,1 v -1 l 3,-3 1,1 v -3 l -1,1 -1,-1 4,-3 v 2 l 2,-3 h -1 v -1 h 2 v 2 h -1 v 1 l 2,-2 -1,-1 h 1 l -1,-1 v -1 l 1,-1 2,2 2,-2 -1,-1 h 1 l 1,1 c 1,-3 2,-4 5,-4 v -1 l -2,-2 h 1 l 1,-2 v 2 h 1 l -1,-2 1,1 z m -22,29 v 1 l 1,1 h -1 l 1,1 v 1 l -2,-2 z m -1,-10 1,1 h -1 z m 1,3 v 1 h 1 v -1 z m 0,3 2,1 v -3 z m 1,-13 h 1 l 1,1 v 1 h -1 z m 3,19 h 1 z m 0,-18 1,1 h -1 z m 3,19 v 1 l 1,-1 z m 19,143 v 1 h 1 z m 2,-173 v 1 z m 2,69 v 1 z m 4,-61 h 1 l -1,1 z m 0,-6 h 1 v 1 h -1 z m 1,3 1,1 h -1 z m 1,8 z m 2,104 h 1 v 1 z m 5,34 v 2 l -1,-1 z m -1,-134 h 1 v -1 z m 4,25 v 1 l 1,-1 z m 4,2 h 1 v 1 h -1 z m 11,-25 h 1 z m 3,26 v 1 h 1 v -1 z m 5,130 h 1 v 1 h -1 z m 7,-127 h 1 v 1 h -1 z m 5,-23 1,1 h -1 z m 2,0 h 1 l 1,1 h -2 z m 3,26 v 1 z m 18,38 1,-1 z m 0,-37 v 1 h 1 v -1 z m 7,3 h 1 v 1 z m 8,1 h 1 v 1 h -1 z m 12,-6 h 1 z m 0,-10 h 1 z m 0,13 h 1 l 1,2 -2,-1 z m 68,-57 h 1 v 1 l 1,-1 2,1 1,-1 h 2 l 1,2 h 1 l -1,2 3,2 h 1 v 2 l 2,3 1,-1 -1,2 2,2 v 1 l -1,-1 1,2 h -1 v 1 h 1 v -1 2 l 2,-1 v 1 l -1,1 2,1 v 1 l -1,-1 -1,1 2,2 -1,2 1,1 h -1 l 1,1 -1,3 1,1 -1,1 1,1 v 1 l 1,4 c 0,2 1,3 2,3 v 1 l -2,2 2,4 -1,1 1,1 -1,1 2,2 -1,1 1,1 -1,1 1,1 1,-1 v 1 l -1,1 1,1 v 1 h -1 l 1,3 v 3 l -1,1 1,2 1,-1 h 1 l -1,2 1,1 -2,3 2,1 -1,3 1,2 v 2 h 1 v 1 l 2,7 -1,2 2,2 h -1 1 l -1,2 v 1 h 1 v 1 h -1 c 1,3 3,4 4,4 v 1 l -1,1 2,2 -1,2 1,1 v -1 h 1 v 1 h -1 l 1,4 h -1 2 l -1,3 3,5 1,2 h -1 l 1,1 v 3 l 2,1 1,-1 v 1 c 4,-1 6,-1 8,-3 v 1 h 1 l 4,2 h 1 l 5,7 v 2 c 0,2 -1,3 -2,3 v 1 h -1 l -6,3 -3,1 h -1 l -5,2 v 2 l -1,1 v 1 l 1,3 -2,1 v 1 l 1,1 v 1 h -1 v 3 l -1,-1 v 1 h 1 v 2 h -1 v -1 l -1,1 1,1 -2,2 1,2 h -1 l -1,-1 -2,1 1,3 -2,2 -1,-1 h 1 v -1 h -1 v 1 h -2 v -2 l -1,1 -3,-2 -1,1 v -1 l 2,-1 h 1 v -1 h -2 l -2,-1 1,-1 -2,-2 h -2 c 0,-2 0,-4 -2,-5 l -1,1 -1,-1 v -1 l 1,1 -2,-6 -1,-2 v -2 l -1,1 -3,-1 -6,1 h -1 l -3,1 -2,-1 h -1 l -1,1 h -3 l -2,1 v -1 h -3 l -3,1 v 2 l 1,3 -1,-1 -1,3 v 2 l 1,4 -1,1 1,1 h -1 v -1 h -1 l -1,1 1,1 v 1 h -3 l -5,7 -6,1 h -1 l -1,-1 -1,1 -1,-1 -1,1 -2,-4 v -1 h -1 v -1 h 1 v -2 l -2,-4 h 2 l -2,-1 2,-3 -1,-3 c 1,0 2,-1 2,-3 v 1 h -1 l -1,-2 h -1 l 1,1 v 1 h -1 l -2,-1 -1,1 -2,-1 -1,1 c -3,-1 -4,-3 -4,-5 l -3,-3 2,-4 -2,-1 v -2 h 1 v -1 h 1 l 2,-1 3,-4 h 1 v 1 l 4,-1 h 1 l 3,-1 v 1 h 4 v 1 h 1 l 1,-2 v -1 l 1,-3 h -1 l 2,-1 -1,-2 v -1 l 2,-1 v -1 h -1 v -1 l 3,-4 -1,-1 3,-9 v -4 l 2,-2 -1,-1 1,-4 1,-2 -1,-1 1,-3 v -5 l 1,2 h 1 v -1 l -1,-1 h 1 l -2,-4 1,1 1,-3 v -1 l 1,-2 v -1 l -1,-3 h 1 v -1 l 1,-1 -1,-1 1,-1 -1,-1 c 1,0 2,-2 2,-5 v -1 l 1,-4 -1,-1 1,-1 v -4 l -1,-4 1,1 1,-1 -1,-1 v -1 l 1,-1 -1,-2 v -3 l 1,-1 h -1 l -1,1 v -1 l 2,-2 h -1 v -1 c 1,0 2,-1 2,-3 h 1 l -2,-6 1,-2 -2,1 2,-3 -2,-2 v -1 h 2 l 1,-2 h -1 v 1 h -1 l 1,-2 -1,-2 2,-1 h -1 l 2,-5 -2,-1 3,-1 -2,-1 h 2 l -1,-1 1,-1 2,-1 1,1 c 0,-1 2,-3 5,-4 z m -42,153 1,1 v -1 z m 4,15 1,-1 z m 3,4 v 2 h 1 v -2 z m 2,5 h 1 v 1 l -1,1 -1,-1 z m 4,-52 1,1 h -1 z m 2,51 v 1 l -1,1 v -1 z m 4,-67 v 1 h -1 z m 5,-20 -1,1 h 1 z m 1,-22 h 1 l -1,1 -1,-1 z m 2,96 v 1 h 1 v -1 z m 0,-103 h 1 v 1 h -1 z m 2,-38 h 1 l -1,1 z m 16,60 -1,3 v 3 l 1,1 h -1 v 1 h 1 l -1,2 h -1 v -1 l -1,1 1,2 -1,1 c -1,0 0,0 0,0 l -1,5 1,1 -2,2 v 1 h 1 l -1,4 v 1 h -1 v 2 h -1 l 1,4 h -1 l 1,3 -2,2 v 4 l -1,1 v 3 h -1 v 3 l 1,2 1,-1 h 1 l 1,1 1,-1 v 1 l 5,-1 h 1 v -1 l 1,1 h 3 v 1 l 2,-1 v -1 h 1 l 1,-3 -1,1 1,-1 -2,-4 h 1 l 1,1 v -2 l -2,-1 1,-1 h -3 l 2,-1 -1,-2 v -4 l -1,-3 v -1 l 1,-2 -3,-4 v -1 h 1 -1 v -2 h 1 v -2 l -1,-2 -1,-4 -2,-8 h 1 l -1,-2 z m -6,-87 h 1 z m 2,6 h 1 z m 5,-3 h 1 z m 1,-4 h 1 v 1 h -1 z m 8,14 1,1 h -1 z m 3,11 v 1 l 1,-1 z m 2,147 h 1 v 1 h -1 z m 1,-5 h 1 v 1 h -1 z m 0,-132 h 1 v 1 z m 5,136 h 1 v 1 h -2 z m 0,-104 1,1 z m 0,108 h 1 v 1 h -1 z m 0,-98 v 1 h 1 v -1 z m 1,4 v 1 z m 0,-2 h 1 v 1 h -1 z m 1,5 h 1 z m 3,93 h 1 v 1 h -1 z m 1,-80 v 1 h -1 v -1 z m 1,77 v 1 l 1,2 1,-1 z m 1,-62 v 1 z m 4,7 h 1 v 1 h -1 z m 2,11 v 1 h 1 v -1 z m 24,9 1,2 v 1 h -1 l -1,-3 z m -14,-155 4,3 h 3 v -1 l 1,1 1,-1 v 1 c 0,1 -1,2 -3,1 v 1 h 3 l 3,2 -2,1 3,2 v -1 l 3,3 1,-2 v 3 h -1 l 1,2 v -2 l 2,1 -1,2 3,4 c 0,2 1,4 3,5 l -1,1 v 1 h 1 v -1 h 1 v 2 h 1 v 1 l 2,4 v 4 l 2,2 v 1 h -1 l 1,2 h 1 l 1,1 h -1 v 3 l 1,2 v 1 l 3,7 1,1 v 3 l -1,1 c 2,3 4,10 6,21 l 1,1 -1,1 1,4 3,9 -1,1 1,1 v 2 l 1,-1 -1,3 v 1 h 1 l 1,1 -1,2 2,1 8,-8 14,-17 4,-7 h -1 l 4,-3 v -1 h -1 l 4,-7 h 2 l -1,-4 h 1 l -1,-1 2,-3 v -3 l 1,-2 v -1 l -2,-1 v -1 l 3,-1 -1,-2 h -1 l 1,2 h -2 v -2 l 1,-1 -1,-2 1,-1 h -1 1 l 2,1 v -1 h -2 l 1,-3 1,-1 v -1 h -2 l 1,-2 -1,-4 1,-2 -1,-2 h 3 l -1,-3 1,-1 h 1 v 2 h 3 c 0,-1 -1,-2 -3,-2 l 1,-2 2,-2 -1,3 v 1 c 2,0 3,-1 5,-4 l 1,2 4,-2 c 0,1 1,3 4,5 l 2,-1 1,2 h -2 v 1 c 3,0 4,1 4,2 v 2 l 1,1 1,-1 2,2 v 1 l -2,-1 -1,2 h -1 2 v 1 l -1,2 1,2 -1,1 2,1 v 2 l -1,-1 h -1 v 1 l 1,2 -2,1 v 2 l -1,2 1,2 h -3 v 1 l 2,2 -1,1 v -1 l -2,2 1,2 -3,6 h -2 v 1 l 1,3 -4,3 h 2 v 1 h -2 c -3,5 -6,9 -9,10 -2,4 -4,6 -5,6 v 2 h -2 l 1,1 -9,9 -1,-1 -5,6 v 1 l 1,1 h -3 l -1,1 1,1 10,-2 h 3 v -1 h 2 l 1,-1 3,1 6,-1 h 2 v -1 h 1 l 4,3 1,-2 4,3 h 1 l 3,4 1,4 -1,1 1,1 h 2 v 3 h -1 v 1 h 1 v 2 l -1,1 h 1 l -1,1 2,4 -1,1 3,5 v 2 l 1,4 h 1 l -1,2 v 3 h 1 v -2 c 1,0 2,1 2,3 h -2 l 3,4 -1,1 v 2 l -1,1 v 2 h 2 l -1,1 c 2,0 2,1 3,4 h -3 l 1,1 -1,2 h 2 v 1 l -1,1 h 2 v 1 l -1,1 1,1 -3,-1 c 0,1 1,2 3,2 l -3,1 v 3 h 5 l -3,2 1,1 -1,3 v 1 h 1 v -2 c 1,0 2,1 2,3 l -1,1 1,1 -3,-1 -2,1 h 4 l -3,3 c 0,2 1,3 3,3 l -1,2 -1,-1 h -2 l -1,-3 -1,1 v 2 l -1,-1 c 0,1 1,2 3,2 l -1,2 v 1 l -1,1 h -2 l 1,-4 h -1 l -4,2 3,3 v 2 l -1,1 -2,-1 v -1 h 1 l -3,-4 -2,2 h -1 l -2,-2 1,-1 -2,-1 v 3 l -3,-1 v -1 l -3,-1 2,-2 -4,-5 c -2,0 -4,0 -4,-2 v -1 l 2,1 v -1 l -3,-3 -1,2 v -2 l 3,-1 -1,-3 v 1 h -2 l 1,-2 c 1,0 2,-1 2,-3 l -1,-2 v -1 l -2,-2 3,-3 -1,-1 v -1 l 1,-1 h -1 v -3 l 2,-1 h -1 v -1 l 1,-3 h -2 v -2 l 1,1 v -1 h -1 v -1 l 1,-1 -1,-2 v -1 l -1,-1 2,-2 -2,-2 1,-3 h -2 1 l 1,-2 v -1 h -1 v 2 h -1 l -1,-2 2,-1 -1,-3 1,-2 h -1 v -1 l 2,-4 -1,-4 -5,1 -3,-1 -1,1 -4,-1 -1,3 h -1 v -2 l -4,2 -1,-1 -1,1 h -2 l -3,3 v -1 l 1,-1 v -1 h -1 c 0,2 0,2 -2,2 h -1 l -3,-1 v 2 h 1 l 2,1 h -4 l -1,-1 v 1 l 1,2 h -1 l -4,-2 h -1 v 1 l 2,2 -2,1 v 1 l 1,2 h -1 l 1,4 -1,2 1,1 -1,2 1,1 v 2 c 0,5 -1,7 -2,7 l 1,1 -1,2 1,2 -1,2 v 1 l -1,6 1,2 h -1 l 1,1 v 1 h -1 l -1,-1 c 0,3 -1,5 -2,5 l 1,2 c 0,2 -1,3 -3,3 l 2,3 h -3 c 0,3 -1,4 -3,5 l -3,-1 v -1 l -3,1 -3,-6 -1,1 -1,-1 2,-2 -1,-1 1,-1 -2,-6 c 0,0 1,0 0,0 h -1 v -1 l 1,-1 v -1 c 0,-1 0,-2 1,-1 l -1,-2 1,-3 v -1 l -1,-5 1,1 h 1 v -1 l -1,-2 1,-2 v -5 c 0,-2 -1,-3 -2,-3 v -1 h 1 l 1,-4 -1,-1 v -2 h 1 c 0,-2 -2,-4 -7,-5 l -4,-6 -1,1 h -1 l 1,-2 c 1,1 2,0 2,-1 h -2 c 2,-1 3,-2 3,-4 l 1,1 3,-1 -1,-2 3,-1 h -1 l 1,-2 v 1 l 1,-1 -2,-1 2,-1 h -1 l 1,-1 v -1 h -1 v 1 h -1 v -1 l 1,-2 c 0,-2 0,-4 -2,-5 v -1 l 2,1 v -1 l -2,-4 c 0,-4 -1,-7 -3,-8 l 1,-2 -1,-1 v -1 l 1,-1 -3,-5 h 1 l -3,-5 h 1 l -3,-4 1,-1 -4,-7 1,-1 v -1 l -1,1 -5,-14 h -1 c 0,-4 -1,-6 -3,-6 0,-1 0,-2 -2,-3 h 2 v -1 l -2,-3 1,-1 v -1 l -1,1 -1,-1 v -3 l -2,-1 2,-2 -1,-2 1,-1 -2,-2 1,-1 h -1 l 1,-1 v -2 l -1,-2 -1,1 v -1 h 2 v -1 l -2,-2 1,-5 2,-5 -2,-2 z m -2,10 h 1 z m 4,-7 v 1 h 1 z m 1,-3 v 1 h -1 z m 2,0 1,2 -1,1 -1,-1 v -1 z m 9,12 v 1 h 1 l 1,-1 z m 6,111 v 1 h 1 v -1 z m 25,-33 h 1 v 1 h -1 z m 6,37 v 1 h 1 v -1 z m 28,-61 v 1 h -1 z m 2,-32 1,1 h -1 z m 4,147 1,1 h -2 z m 0,-151 v 1 h 1 z m 1,141 h 1 l -1,3 -1,-1 v -1 z m 0,-144 v 1 h 1 v -1 z m 0,129 h 1 v 1 h -1 z m 1,7 v 1 h -1 z m 0,-6 h 1 v 1 h -1 z m 2,-141 -1,1 h -1 z m 1,1 h 1 l -1,1 z m 2,173 1,1 v 3 h -1 l -2,-4 z m -1,-171 h 1 v 2 z m 4,-2 v 1 h -1 v 1 h -1 v -2 z m 1,180 1,1 v 1 h -1 z m 2,3 h 1 l 1,1 -1,1 -1,-1 z m 1,-4 -1,1 h 2 v -1 z m 2,4 h 1 v 3 h -1 z m 0,-9 h 1 z m 1,-171 h 1 l 1,2 v 1 h -1 z m 1,181 h 2 v 1 h -1 z m 1,3 h 1 l 1,1 -1,1 h -1 z m 0,3 2,1 -1,1 z m 1,-12 v 1 h 1 v -1 z m 0,5 h 1 l -1,1 z m 1,1 h 1 l 1,1 -1,1 -1,-1 z m 1,-81 -1,1 h 1 l 1,-1 z m 1,84 h 2 l -1,1 h -1 z m 2,-12 v 1 l 1,1 h 1 l -1,-2 z m 0,-64 h 1 l 1,2 h -2 z m 3,73 h 1 v 1 h -1 z m 2,-18 v 1 l 1,1 1,-1 z m 2,1 v 1 h 1 v -1 z m 0,-32 1,1 v 1 h -1 z m 1,14 h 1 v 1 z m 0,-13 2,1 h -2 z m 1,4 h 1 l -1,2 z m 2,7 h 1 v 1 l -2,1 h -1 z m 1,17 2,2 h -1 l -1,-1 -2,1 v -1 z m -2,-2 1,1 h -1 z m 1,-12 h 1 v 2 z"
         fill="#00004a"
         id="path1193" />
      <path
         d="m 679,119 4,2 2,-1 2,1 h 1 l 2,1 1,-1 1,2 1,-1 1,2 1,-1 1,1 v -1 h 1 v 2 l 10,3 1,1 1,-1 2,2 h 3 l 5,3 h 1 v 1 l 2,-1 v 2 h 1 l 3,2 h 1 l 4,4 h 1 l 7,6 v 1 l 1,-1 1,2 h -1 l 5,5 v 1 l 2,4 v 1 l 3,12 -1,1 v 2 h -1 l 1,1 -1,1 v 2 l -2,3 v 1 l -6,4 v 2 h -1 l -1,-1 c 0,1 -1,4 -5,7 h -1 v -1 l -2,3 1,1 v -1 h 1 l 5,3 h 1 l 8,3 1,-1 c 9,4 15,9 17,14 1,0 3,2 5,6 l 1,1 h -1 l 1,1 -1,1 3,2 v 1 l -2,1 2,3 h 1 v 1 h -1 v 1 l 2,2 v 1 h -1 l -1,-1 v 4 l -1,1 h 1 v 1 l -1,1 h 1 l 1,-1 v 1 l -2,2 v 4 c -1,0 -2,1 -2,3 v 2 c -2,1 -4,3 -4,5 h -1 v 1 h -2 l -1,1 1,1 -5,4 -1,-1 -1,1 h -1 l -1,2 h 1 v 1 l -3,-1 v 1 h -1 v -1 l -3,2 h -2 l -4,3 h -3 l -2,2 v -1 l -2,2 -3,-1 -5,2 -3,2 h -1 l -5,2 -1,-1 v 1 h -1 l -4,1 h -1 v -1 h -2 v 1 l -2,-1 v 2 l -1,-1 -1,1 v -1 h -1 l -1,2 -2,-1 v 1 l -4,-2 -1,1 h -2 l -2,-2 h -2 1 l -1,-1 -2,1 -1,-3 h -2 l -3,-1 -3,-3 v -2 h -1 l 1,-1 v -1 l -3,-1 1,-1 v -3 l 1,1 1,-1 v -1 h 2 l -1,-1 5,-2 v -2 l 2,1 1,-1 v -1 h -1 l 3,-3 v -2 h 1 l -2,-5 2,-4 -1,-1 1,-1 h -1 l 2,-7 v -1 l 1,-2 -1,-1 h 1 v 1 h 1 l -1,-7 v -1 h -1 v -7 h -3 l -2,-1 h -3 l 1,-1 -1,-2 h -1 l -3,-4 v -6 l 2,-2 -1,-1 c 1,0 3,-1 6,-5 2,0 3,0 4,-2 h -1 v -2 l -1,-5 v -3 l -1,-4 -1,-1 1,-2 -2,-1 v -1 h 1 l -1,-1 v -2 l -1,-1 1,-1 -2,-1 h 1 l -1,-3 v -1 l -1,1 c -2,-9 -4,-13 -5,-14 l -1,1 v -1 l -1,-2 -1,-2 h -1 v -1 h 1 l -2,-4 v 1 h -1 l 1,-2 v -1 l -1,1 c -2,0 -3,-2 -3,-4 l -1,1 h -1 l -3,-3 -2,-5 -1,-1 1,-2 v -1 l 1,-1 v 2 h 1 l -1,-2 5,-2 -1,-1 4,-1 h 1 v -2 h 1 v 1 h 4 l 2,1 z m -10,0 h 1 v 1 h -1 z m 4,30 1,1 h -1 z m 4,115 1,1 h -1 z m 0,3 h 1 z m 2,-7 h 1 v 1 h -1 z m 5,-4 v 1 z m 4,2 h 1 v -1 z m 2,-19 v 1 h 1 v -1 z m 2,-5 1,-1 z m 4,-88 v 7 l 1,3 v 2 l 1,4 v 1 l 1,1 -1,2 v 1 c 1,0 2,2 2,6 l 1,1 h -1 l 1,6 3,13 h 1 l 10,-5 c 6,-1 11,-6 17,-15 v -4 l -2,-1 1,-1 v -1 c -2,0 -3,-1 -3,-3 -2,-3 -6,-6 -10,-8 l -5,-4 h -1 c 0,-2 -4,-3 -11,-4 l -1,-2 -1,1 -1,-1 z m 16,66 -2,-1 -4,1 1,10 v -1 26 l -1,1 v 7 l 1,2 h 1 l 2,-1 h 7 l 7,-1 1,-1 1,1 h 1 l 8,-4 h 1 v 1 a 51,51 0 0 0 14,-10 v -1 c -1,-1 0,-2 1,-4 h -1 l 1,-3 -2,-2 h 2 c 0,-2 -1,-5 -4,-7 v -3 h -1 v -1 h 1 l -1,-2 h -4 l -4,-2 -3,-2 h -2 l -1,-1 h -2 l -3,-2 -2,1 v -1 h -2 l -1,-1 h -6 z m 27,-25 -1,1 h 1 z m 0,2 v 1 z m 12,80 1,-1 v 1 z m 8,-5 h 1 v 1 h -1 z m 61,-159 1,1 h 3 l 1,2 5,-1 3,3 1,-1 2,1 h 1 l 2,1 1,-1 2,1 h 3 l 5,3 h 2 l 1,1 h 4 v 1 h 3 l -1,1 h 1 l 3,1 h 2 l 1,2 h 1 l 3,2 h 2 c 0,2 0,3 2,3 v -1 l 1,2 1,-1 c 2,2 4,3 3,4 l 2,-1 8,12 -1,1 c 3,0 4,2 3,4 l 5,13 2,2 -1,1 2,3 -2,2 2,1 v -1 l 1,2 h -2 l 1,8 -1,3 v 4 l -1,-1 -1,1 v 5 h -1 l 1,1 c -3,8 -9,14 -17,20 -2,0 -4,1 -8,5 -3,-1 -4,0 -5,2 h -1 l -1,-1 -16,5 -1,2 17,11 2,1 4,3 4,5 h 2 l 3,3 -1,-2 c 1,0 2,1 1,4 h 3 l 4,4 4,4 2,-1 h 1 l -1,1 h -1 v 3 h 3 l 1,2 1,1 v -2 l 1,1 1,1 -4,1 4,2 v 1 l -2,-1 v 1 h 2 l -1,2 4,-1 -1,1 v 1 l -1,1 4,2 v 2 l -2,1 2,2 -1,1 h -1 l -1,-1 v 1 c 1,0 2,1 2,3 v 1 l -3,-2 -2,1 v 2 h -2 l -1,2 c 2,0 2,1 3,3 h -1 l -2,-3 -1,3 -2,1 -1,-1 1,-1 1,-1 -5,2 h -1 l -1,-1 v 1 h -2 v -1 l 1,-1 -3,-2 -4,1 h -1 v -2 l -2,1 -1,-5 -2,1 -1,-2 3,-1 -5,-11 -4,-4 h -1 v -1 l 1,-1 -1,-1 -1,1 -1,-4 h -1 l -2,-6 -9,-9 -6,-6 -1,2 h -1 l 1,-1 -1,-2 h -3 l -1,-4 -1,1 v 2 h -1 1 l -1,-2 v -1 l -1,2 -2,-2 v 1 h -2 l -1,-2 -1,1 -5,-5 c -1,-1 -2,0 -2,1 h -1 v -1 l -2,-1 1,3 -1,2 v 2 -1 5 l -1,2 1,2 -1,3 -1,1 h 2 l -1,2 1,1 -1,3 h -1 l 2,1 v 3 l -2,2 1,2 -3,4 v 1 c -2,6 -4,9 -7,10 l -1,-1 h -1 l -1,2 h -1 l -3,-3 c -2,-2 -3,-4 -2,-5 v -2 l 1,-1 -1,-1 1,-1 1,-3 h -1 l 2,-5 v -1 l 2,-5 -1,-1 1,-2 1,-11 h 1 l -1,-3 h 1 l -1,-4 v 1 -2 l 1,-1 -5,-7 2,-4 -2,-2 h 1 l 1,1 1,-5 -1,-6 c 0,-11 -1,-18 -2,-21 1,-3 0,-5 -1,-5 v -1 h 1 l -2,-8 h -1 v 1 l -1,-1 1,-1 -1,-5 1,-1 c -2,0 -3,0 -2,-1 l 1,-2 -4,-4 2,-1 -2,-1 v -1 l 1,-2 -3,-6 h -1 l 2,-1 h 1 l -1,1 h 2 v -1 l -2,-1 1,-1 -2,-2 1,-1 1,-1 -1,-1 h 1 l -1,-1 -2,1 v -1 l 1,-1 -1,-1 h 1 c 0,-2 -2,-4 -7,-5 h -4 v -1 h -2 l -2,-1 v -7 l 2,-2 v -2 l 4,-2 -1,-1 h 3 l 3,-2 v 2 c 3,-2 5,-3 7,-2 v -2 l 5,2 1,-1 2,1 h 12 l 4,1 z m -32,20 1,1 -1,2 h -1 v -2 z m 3,19 2,1 v 1 h -1 z m 2,-42 -1,1 h -1 c 0,-1 1,-2 2,-1 z m -2,32 h 1 z m 5,26 1,1 v 1 h -1 z m 7,-62 h 1 l -1,2 z m 13,28 v -1 c 0,1 -1,2 -2,1 v 1 l 1,2 -1,1 3,1 -2,2 2,1 -2,3 1,11 v 2 l 1,1 h -2 l 2,1 -1,1 1,6 -1,1 c 2,0 2,1 2,3 l -1,1 v 3 c 0,6 1,9 2,10 l -2,2 1,1 v 1 h -2 v 1 h 1 v 1 l -1,1 c 2,3 3,9 3,17 l 3,1 v -1 l 1,2 7,-1 v 1 l 10,-2 3,-1 2,1 21,-6 7,-5 v 1 c 2,-2 4,-5 6,-11 l -1,-2 h 1 v -7 l 1,-1 -2,-8 -3,-6 h -2 l -1,-2 c -3,-1 -8,-5 -13,-12 l -5,-4 -1,1 -1,-1 c 0,-1 -5,-4 -16,-8 l -2,-1 -2,1 -3,-2 h -1 l -3,-1 z m -1,126 1,1 v -2 z m 3,-85 h 1 v 1 h -1 z m 54,114 2,1 -2,1 z m 6,2 h 1 v -1 z m 4,2 v 1 h -1 l -1,-1 z m -1,-155 v 1 h 1 v -1 z m 12,126 h 1 v 1 h -1 z m 2,1 h 1 v 1 h -2 z m 4,14 v 1 l 1,-1 z m -3,-155 h 1 v 1 l -1,1 -1,-1 z m 0,-7 v 1 z m 25,-16 -1,3 -1,-1 1,2 1,-4 h 1 l -1,2 3,1 v -1 h 1 v 1 l -1,1 v 1 h 1 l 1,-1 c 1,2 2,2 3,2 v 1 h -2 v 1 c 1,0 2,0 2,2 h 1 l 1,-1 v 2 l 1,-1 v 1 l -1,1 h 1 l 1,-1 v 3 h 1 l 1,-1 c 2,4 4,5 6,5 -1,0 0,0 0,0 l 4,1 -1,2 1,-1 1,1 v -1 h 1 l 1,1 v -2 h 1 l 3,3 1,-2 1,1 v 1 l 7,2 1,-1 1,1 v -1 h 1 v 2 h 1 l 1,-2 c 0,2 2,3 6,4 l 1,-1 4,2 3,-1 -1,1 3,1 3,-1 4,2 v -1 l 1,1 1,-1 h 2 v 1 l 1,-1 2,2 1,-2 2,2 1,-1 h 2 l 2,-1 1,1 h 3 l 4,1 3,-2 1,1 1,-1 v 1 l 3,1 v -1 l 2,2 1,-1 h 2 v 1 h -1 v 1 l 2,1 -1,1 1,1 1,-1 h 1 v 3 l 2,2 v 5 l 1,-1 1,1 -2,2 v 1 h 2 v 1 c -1,0 -2,1 -2,3 l -2,1 2,1 -2,1 1,1 v 1 h -1 l -2,-1 -2,1 1,1 -1,1 h -1 l -1,-2 v 2 l 1,1 -4,-2 2,-1 h -3 l -1,2 h -1 l 1,-1 -2,-1 -1,1 v -1 c -2,0 -3,0 -3,-2 l -1,1 v -1 l -1,1 -1,-1 -1,1 -1,-1 v 1 h -1 v -1 l -1,1 -3,-2 -1,1 h -1 v -2 l -2,1 v -1 h -1 v 1 h 1 v 1 h -1 l -1,-2 -1,1 v -1 l -2,-1 v 2 l -2,-2 -1,1 v -1 h -1 l -1,1 v -1 h 1 l -1,-1 -4,1 -1,-1 -1,1 -1,-1 -1,1 v -1 h -1 c 0,-1 -2,-2 -5,-2 l -1,1 -1,-1 -1,1 -3,-1 v 1 h -2 l 1,-2 h -2 l -1,1 h -1 v -2 h -2 l -2,1 -2,-2 h -2 c 0,2 -1,2 -2,2 l 1,-2 -2,-1 h -3 v -1 h -1 v 3 l 2,3 -1,1 1,2 v 1 h 2 v 1 h -1 l 1,3 -1,1 h 1 v 2 l 1,3 v 3 l 2,5 -1,2 c 1,0 2,0 3,2 l -1,1 1,3 -1,1 2,3 -1,1 2,5 c 0,2 1,3 2,3 l 1,-1 h 2 l 4,-1 h 2 l 15,-4 5,-2 v 1 c 2,-2 4,-2 5,-2 h 1 l 1,-1 4,3 1,-1 v 1 h -1 l 3,7 v 1 l -2,2 v 1 l -6,4 -1,-1 -6,2 v -1 l -3,1 -4,1 h -2 l -1,1 h -3 l -4,2 -1,-1 -4,2 h -1 l -4,1 1,1 v 5 h 1 l -1,1 1,2 -1,1 h 1 v 2 c 1,1 0,1 -1,1 l 2,3 -1,1 1,2 -1,2 1,1 v 5 l 1,5 -1,2 h 1 l 1,-1 v 1 l -1,1 1,2 h -1 v 1 l -1,2 1,1 -1,3 h 2 l -1,1 v 1 l 4,-2 h 3 l 1,-1 h 1 l 6,-3 3,1 h 2 l 1,-2 1,1 v -2 l 1,1 1,-1 1,1 7,-3 2,1 1,-1 h 1 v -1 l 2,1 1,-1 v 1 l 2,-1 h 3 l 1,-1 6,-1 1,1 3,-2 2,1 h 1 l 2,-1 4,1 h 1 l 4,2 1,-1 v 2 h 1 v -2 l 2,3 -1,2 1,3 -2,5 h -3 l -4,4 h -1 v -1 l -5,2 h -4 l -2,1 -2,-1 -1,2 h -1 l -5,1 -1,-1 -4,2 -2,1 h -5 l -2,2 -3,-1 v 1 l -1,-1 -2,1 -1,1 -1,-1 -4,3 h -1 l -1,-1 v 2 h -2 l -1,-1 -1,2 -1,-1 -5,4 h -1 l -3,2 -2,-1 -4,4 -2,3 -4,-1 -1,1 -2,-1 h -1 v 1 l 1,-1 v 1 h -3 l -2,1 -3,-1 -1,1 -4,1 c 0,-2 -1,-2 -3,-2 h -2 l -7,-4 c -1,0 -2,0 -2,-2 l 1,-1 -1,-1 v -1 h 1 l 3,-5 1,1 1,-1 -1,-1 1,-1 v -1 l -1,-1 h 2 v 2 l 1,-1 v -2 1 l 3,-1 h 1 l 2,-2 v -1 h 1 l 1,1 1,-2 v 1 l 1,-1 -1,-1 h 2 l -1,-1 1,-3 v -1 l -1,-2 1,-2 v -2 l -1,-1 1,-2 -1,-1 v -4 l 1,-3 c -1,0 -2,-1 -2,-3 l 1,-1 -2,-4 1,-2 -1,-1 1,-2 -1,1 -1,-1 v -2 l 1,-1 -1,-1 1,-1 -1,-1 h -1 l -1,1 -1,-1 -3,2 -6,-5 h -1 v -2 l -1,-1 v -6 h 1 l 2,-1 -1,-1 1,-1 5,-2 h 1 l 2,-1 h 1 l -1,-2 1,-1 h -2 l 1,-2 h -1 v -1 l -1,-2 1,-1 -2,-2 1,-2 h -2 l 1,-1 -1,-1 v -4 l -1,-1 1,-1 -3,-4 -2,-4 1,-1 -1,-2 c -1,0 -2,-1 -2,-4 h -1 l 1,-2 v -1 h -1 v 1 l -1,-1 h 1 l -1,-1 1,-2 -3,-4 1,-1 h -1 v -2 h -1 v -3 l -2,1 v -2 l -2,-3 h 2 l -3,-2 v -1 h -1 v -1 l 2,-1 v -1 l -1,-1 v -2 l -1,1 h -1 l -1,-2 h -1 l -1,1 -1,-2 h -1 l 1,2 h -1 l -1,-1 h -3 l -1,1 v -1 l 2,-2 h -1 l -1,1 h -1 v -1 l -1,-1 h 1 l -1,-2 v -1 h -3 v -2 h 1 v -1 h -1 v -1 h 1 v -1 l -1,-1 -1,1 3,-4 1,1 v -2 h -1 l -1,-1 4,-3 v 2 l 2,-2 -1,-1 v -1 l 2,1 v 1 h -1 v 1 l 2,-2 h -1 l 1,-1 -1,-1 v -1 h 1 l 2,1 2,-2 -1,-1 h 1 l 1,1 c 1,-3 2,-4 5,-4 v -1 l -2,-2 h 1 l 1,-1 v 1 h 1 l -1,-1 h 1 z m -22,29 v 1 l 1,1 h -1 l 1,1 v 1 l -2,-2 z m -1,-10 1,1 h -1 z m 1,3 v 1 h 1 v -1 z m 0,3 2,1 v -3 z m 1,-13 h 1 l 1,1 v 1 h -1 z m 3,19 h 1 z m 0,-18 1,1 h -1 z m 3,19 v 1 l 1,-1 z m 19,143 v 1 h 1 z m 2,-173 v 1 z m 2,69 v 1 z m 4,-61 h 1 l -1,1 z m 0,-6 h 1 v 1 h -1 z m 1,3 1,1 h -1 z m 1,8 z m 2,104 h 1 v 1 z m 5,34 v 2 l -1,-1 z m -1,-134 h 1 v -1 z m 4,25 v 1 l 1,-1 z m 4,2 h 1 v 1 h -1 z m 11,-25 h 1 z m 3,26 v 1 h 1 v -1 z m 5,130 h 1 v 1 h -1 z m 7,-127 h 1 v 1 h -1 z m 5,-23 1,1 h -1 z m 2,0 h 1 l 1,1 h -2 z m 3,26 v 1 z m 18,38 1,-1 z m 0,-37 v 1 h 1 v -1 z m 7,3 h 1 v 1 z m 8,1 h 1 v 1 h -1 z m 12,-6 h 1 z m 0,-10 h 1 z m 0,13 h 1 l 1,2 -2,-1 z m 68,-57 h 1 v 1 l 1,-1 2,1 1,-1 h 2 l 1,2 h 1 l -1,2 3,2 h 1 v 2 l 2,3 1,-1 -1,2 2,2 v 1 l -1,-1 1,2 h -1 v 1 h 1 v -1 2 l 1,-1 h 1 v 1 l -1,1 2,1 v 1 l -1,-1 -1,1 2,2 -1,2 1,1 h -1 l 1,1 -1,3 1,1 -1,1 1,1 v 1 l 1,4 c 0,2 1,3 2,3 v 1 l -2,2 2,4 -1,1 1,1 -1,1 2,2 -1,1 1,1 -1,1 1,1 1,-1 v 1 l -1,1 v 1 l 1,1 h -1 l 1,3 v 3 l -1,1 1,2 1,-1 h 1 l -2,2 2,1 -2,3 2,1 -1,3 1,2 v 2 h 1 v 1 l 2,7 -1,2 2,2 h -1 1 l -1,2 v 1 h 1 v 1 h -1 c 1,3 3,4 4,4 v 1 l -1,1 2,2 -1,2 v 1 l 1,-1 h 1 v 1 h -1 l 1,4 h -1 2 l -1,3 3,5 1,2 h -1 l 1,1 v 3 l 2,1 1,-1 v 1 c 4,-1 6,-1 7,-3 l 1,1 h 1 l 4,2 h 1 l 5,7 v 2 c 0,2 -1,3 -2,3 v 1 h -1 l -6,3 -3,1 h -1 l -6,2 1,2 -1,1 v 1 l 1,3 -2,1 v 1 l 1,1 v 1 h -1 v 3 l -1,-1 v 1 h 1 v 2 h -1 l -1,-1 v 1 l 1,1 -2,2 1,2 h -1 l -1,-1 -2,1 1,3 -2,2 -1,-1 h 1 v -1 h -1 v 1 h -2 v -2 h -1 v 1 l -3,-2 -1,1 v -1 l 2,-1 h 1 v -1 h -2 l -2,-1 1,-1 -2,-2 h -2 l -2,-5 h -1 v 1 l -1,-1 v -1 l 1,1 v -1 l -2,-5 -1,-2 v -2 l -1,1 -3,-1 -6,1 h -1 l -3,1 -2,-1 h -1 l -1,1 h -3 l -2,1 v -1 h -3 l -3,1 v 5 l -1,-1 v 5 l 1,4 -1,1 v 1 -1 h -1 l -1,1 1,1 v 1 h -3 l -5,7 -6,1 h -1 l -1,-1 -1,1 -1,-1 -1,1 -2,-4 v -1 h -1 v -1 h 1 l -1,-2 h 1 l -2,-4 h 2 l -2,-1 2,-3 -1,-3 c 1,0 2,-1 2,-3 h -1 v 1 h -1 v -2 h -1 l 1,1 -1,1 -2,-1 -1,1 -2,-1 -1,1 c -3,-1 -4,-3 -4,-5 l -3,-3 2,-4 -2,-1 v -2 h 1 v -1 h 1 l 2,-1 3,-4 h 1 v 1 l 4,-1 h 1 l 3,-1 v 1 h 4 v 1 h 1 l 1,-2 v -1 l 1,-3 h -1 l 2,-1 -1,-2 v -1 l 2,-1 v -1 h -1 v -1 l 3,-4 -1,-1 3,-9 v -4 l 2,-2 -1,-1 1,-4 1,-2 -1,-1 1,-3 v -5 l 1,2 h 1 l -1,-1 v -1 h 1 l -2,-4 1,1 1,-3 v -1 l 1,-2 v -1 l -1,-3 h 1 v -1 l 1,-1 -1,-1 1,-1 -1,-1 c 1,0 2,-2 2,-5 v -1 l 1,-4 -1,-1 1,-1 v -4 l -1,-4 1,1 1,-1 -1,-1 v -1 l 1,-1 -1,-2 v -3 l 1,-1 h -1 l -1,1 v -1 l 1,-2 v -1 c 1,0 2,-1 2,-3 l -1,-6 1,-2 -2,1 2,-3 -2,-2 v -1 h 2 l 1,-2 h -1 v 1 h -1 l 1,-2 -1,-2 2,-1 h -1 l 1,-5 -1,-1 3,-1 -2,-1 h 2 l -1,-1 1,-1 2,-1 1,1 c 0,-1 2,-3 5,-4 z m -42,153 1,1 v -1 z m 4,15 1,-1 z m 3,4 v 2 h 1 v -2 z m 2,5 h 1 v 1 l -1,1 -1,-1 z m 4,-52 1,1 h -1 l -1,-1 z m 2,51 v 1 l -1,1 v -1 z m 4,-67 v 1 h -1 z m 5,-20 -1,1 h 1 z m 1,-22 h 1 l -1,1 -1,-1 z m 2,96 v 1 h 1 v -1 z m 0,-103 h 1 v 1 h -1 z m 2,-38 h 1 l -1,1 z m 16,60 -1,3 v 3 l 1,1 h -1 v 1 h 1 l -1,2 h -1 v -1 l -1,1 1,2 -1,1 c -1,0 0,0 0,0 l -1,5 1,1 -2,2 v 1 h 1 l -2,4 1,1 h -1 v 2 h -1 l 1,4 h -1 l 1,3 -2,2 v 4 l -2,1 1,1 v 2 h -1 v 3 l 1,2 1,-1 h 1 v 1 l 2,-1 v 1 l 5,-1 h 1 v -1 l 1,1 h 3 v 1 l 2,-1 v -1 h 1 l 1,-3 h -1 v 1 l 1,-1 -2,-4 h 1 l 1,1 v -2 l -2,-1 1,-1 h -3 l 2,-1 -1,-2 v -4 l -1,-3 v -3 l -2,-4 v -1 h 1 -1 v -2 h 1 v -2 l -1,-2 -1,-4 -2,-8 h 1 l -1,-2 z m -6,-87 h 1 z m 2,6 h 1 z m 5,-3 h 1 z m 1,-4 h 1 v 1 h -1 z m 8,14 1,1 h -1 z m 3,11 v 1 l 1,-1 z m 2,147 h 1 v 1 h -1 z m 1,-5 h 1 v 1 h -1 z m 0,-132 h 1 v 1 z m 5,136 h 1 v 1 h -2 z m 0,-104 1,1 z m 0,108 h 1 v 1 h -1 z m 0,-98 v 1 h 1 v -1 z m 1,4 v 1 z m 0,-2 h 1 v 1 h -1 z m 1,5 h 1 z m 3,93 h 1 v 1 h -1 z m 1,-80 v 1 h -1 v -1 z m 1,77 v 1 l 1,2 1,-1 z m 1,-62 v 1 z m 4,7 h 1 v 1 h -1 z m 2,11 v 1 h 1 v -1 z m 24,9 1,2 v 1 h -1 l -1,-3 z m -14,-155 4,3 h 3 v -1 l 1,1 1,-1 v 1 c 0,1 -1,2 -3,1 v 1 h 3 l 3,2 -2,1 3,2 v -1 l 3,3 1,-2 v 3 h -1 l 1,2 v -2 l 2,1 -1,2 3,4 c 0,2 1,4 3,5 l -1,1 v 1 h 1 v -1 h 1 v 2 h 1 v 1 c 0,2 1,3 2,3 v 5 l 2,2 v 1 h -1 l 1,2 1,-1 1,2 h -1 v 3 l 1,2 v 1 l 3,7 1,1 v 3 l -1,1 c 2,3 4,10 6,21 l 1,1 -1,1 1,4 3,9 -1,1 1,1 v 2 l 1,-1 -1,3 v 1 h 1 l 1,1 -1,2 2,1 8,-8 14,-17 4,-7 h -1 l 4,-3 v -1 h -1 l 4,-7 h 2 l -1,-4 h 1 l -1,-1 2,-3 v -3 l 1,-2 v -1 l -2,-1 v -1 l 3,-1 -1,-2 h -1 v 2 h -1 v -2 l 1,-1 -1,-2 1,-1 h -1 1 l 1,1 1,-1 h -2 l 1,-3 1,-1 v -1 h -2 l 1,-2 -1,-4 1,-2 -1,-2 h 3 l -1,-3 1,-1 h 1 v 2 h 3 c 0,-1 -1,-2 -3,-2 l 1,-2 2,-2 -1,3 v 1 c 2,0 3,-1 5,-3 l 1,1 4,-2 c 0,1 1,3 4,5 l 2,-1 1,2 h -2 v 1 c 3,0 4,1 4,2 v 2 l 1,1 1,-1 2,2 v 1 l -2,-1 -2,2 h 2 v 1 l -1,2 1,2 -1,1 2,1 v 2 l -1,-1 h -1 v 1 l 1,2 -2,1 v 2 l -1,2 1,2 h -3 v 1 l 2,2 -1,1 v -1 l -2,2 1,2 -3,6 h -1 l -1,1 1,3 -4,3 h 2 v 2 l -2,-1 c -3,5 -6,9 -9,10 -2,4 -4,6 -5,6 v 2 h -2 l 1,1 -9,9 -1,-1 -5,6 v 1 l 1,1 h -3 l -1,1 1,1 10,-2 h 3 v -1 h 2 l 1,-1 3,1 6,-1 h 2 v -1 h 1 l 4,3 1,-2 4,3 h 1 l 3,4 1,4 -1,1 1,1 h 2 v 3 h -1 v 1 h 1 v 2 l -1,1 h 1 l -1,1 2,4 -1,1 3,5 v 2 l 1,4 h 1 v 1 l -1,1 v 3 h 1 v -2 c 1,0 2,1 2,3 h -2 l 3,4 -1,1 v 2 l -1,1 v 2 h 2 l -1,1 3,4 h -3 l 1,1 -1,2 h 2 v 1 l -1,1 h 2 v 1 l -1,1 1,1 -3,-1 c 0,2 1,2 3,2 l -3,1 v 3 h 5 l -3,2 1,1 -1,3 v 1 h 1 v -2 c 1,0 2,1 2,3 l -1,1 1,1 -3,-1 -2,1 h 4 l -3,3 c 0,2 1,3 3,3 l -1,2 -1,-1 h -2 l -1,-3 -1,1 v 2 l -1,-1 c 0,1 1,2 3,2 l -1,2 v 1 l -1,1 h -2 l 1,-4 h -1 l -4,2 3,3 v 2 l -1,1 -2,-1 v -1 h 1 l -3,-4 -2,2 h -1 l -2,-2 1,-1 -2,-1 v 3 l -3,-1 v -1 l -3,-1 2,-2 -4,-5 c -2,0 -4,0 -4,-2 v -1 l 2,1 v -1 l -3,-3 -1,2 v -2 l 3,-1 -1,-3 v 1 h -2 l 1,-2 c 1,0 2,-1 2,-3 l -1,-2 v -1 l -2,-2 3,-3 -1,-1 v -1 l 1,-1 h -1 v -3 l 2,-1 h -1 v -1 l 1,-3 h -2 v -2 l 1,1 v -1 h -1 v -1 l 1,-1 -1,-2 v -1 l -1,-1 2,-2 -2,-2 1,-3 h -2 1 l 1,-2 v -1 h -1 v 2 h -1 l -1,-2 2,-1 -1,-3 1,-2 h -1 v -1 l 2,-4 -1,-4 -5,1 -3,-1 -1,1 -4,-1 -1,3 h -1 v -2 l -4,2 -1,-1 -1,1 h -2 l -3,3 v -1 l 1,-1 v -1 h -1 c 0,2 0,2 -2,2 h -1 l -3,-1 v 2 h 1 l 2,1 h -4 l -1,-1 v 1 l 1,2 h -1 l -4,-2 h -1 v 1 l 2,2 -2,1 v 1 l 1,2 h -1 l 1,4 -1,2 1,1 -1,2 1,1 v 2 c 0,5 -1,7 -2,7 l 1,1 -1,2 1,2 -1,2 v 2 l -1,5 1,2 h -1 l 1,1 v 1 h -1 l -1,-1 c 0,3 -1,5 -2,5 l 1,2 c 0,2 -1,3 -3,3 l 2,3 h -3 c 0,3 -1,5 -3,5 l -3,-1 v -1 l -3,1 -3,-6 -1,1 -1,-1 2,-2 -1,-1 1,-1 -2,-6 h -1 v -1 l 1,-1 v -1 h -1 c 1,-1 1,-2 2,-1 l -1,-2 1,-3 v -1 l -1,-5 1,1 h 1 v -1 l -1,-2 1,-2 -1,-1 1,-4 c 0,-2 -1,-3 -2,-3 v -1 h 1 l 1,-4 -1,-1 v -2 h 1 c 0,-2 -2,-4 -7,-5 l -4,-6 -1,1 h -1 l 1,-2 c 1,1 2,0 2,-1 h -2 c 2,-1 3,-2 3,-4 l 1,1 3,-1 -1,-2 3,-1 h -1 l 1,-2 v 1 l 1,-1 -2,-1 2,-1 h -1 l 1,-1 v -1 h -1 v 1 h -1 v -1 l 1,-2 c 0,-2 0,-4 -2,-5 v -1 l 2,1 v -1 l -2,-4 c 0,-4 -1,-7 -3,-8 l 1,-2 -1,-1 v -1 l 1,-1 -3,-5 h 1 l -3,-5 h 1 l -3,-4 v -1 l -3,-7 1,-1 v -1 l -1,1 -5,-14 h -2 c 1,-4 0,-6 -2,-6 0,-1 0,-2 -2,-3 h 2 v -1 l -2,-3 1,-1 v -1 l -1,1 -1,-1 v -3 l -2,-1 2,-2 -1,-2 1,-1 -2,-2 1,-1 h -1 l 1,-1 v -2 l -1,-2 -1,1 v -1 h 2 v -1 l -2,-2 1,-5 2,-5 -2,-2 z m -2,10 h 1 z m 4,-7 v 1 h 1 z m 1,-3 v 1 h -1 z m 2,0 1,2 -1,1 -1,-1 v -1 z m 9,12 v 1 h 1 l 1,-1 z m 6,111 v 1 h 1 v -1 z m 25,-33 h 1 v 1 h -1 z m 6,37 v 1 h 1 v -1 z m 28,-61 v 1 h -1 z m 2,-32 1,1 h -1 z m 4,147 1,1 h -2 z m 0,-151 v 1 h 1 z m 1,141 h 1 l -1,3 -1,-1 v -1 z m 0,-144 v 1 h 1 v -1 z m 0,129 h 1 v 1 h -1 z m 1,7 v 2 l -1,-1 z m 0,-6 h 1 v 1 h -1 z m 2,-141 -1,1 h -1 z m 1,1 h 1 l -1,1 z m 2,173 1,1 v 3 h -1 l -2,-4 z m -1,-171 h 1 v 2 z m 4,-2 v 1 h -1 v 1 h -1 v -2 z m 1,180 1,1 v 1 h -1 z m 2,3 h 1 l 1,1 -1,1 -1,-1 z m 1,-4 -1,1 h 2 v -1 z m 2,4 h 1 v 3 h -1 z m 0,-9 h 1 z m 1,-171 h 1 l 1,2 v 1 h -1 z m 1,181 h 2 v 1 h -1 z m 1,3 h 1 l 1,1 -1,1 h -1 z m 0,3 2,1 -1,1 z m 1,-12 v 1 h 1 v -1 z m 0,5 h 1 l -1,1 z m 1,1 h 1 l 1,1 -1,1 -1,-1 z m 1,-81 -1,1 h 1 l 1,-1 z m 1,84 h 2 l -1,1 h -1 z m 2,-12 v 1 l 1,1 h 1 l -1,-2 z m 0,-64 h 1 l 1,2 h -2 z m 3,73 h 1 v 1 h -1 z m 2,-18 v 1 l 1,1 1,-1 z m 2,1 v 1 h 1 v -1 z m 0,-32 1,1 v 1 h -1 z m 1,14 h 1 v 1 z m 0,-13 2,1 h -2 z m 1,4 h 1 l -1,2 z m 2,7 h 1 v 1 l -2,1 h -1 z m 1,17 2,2 h -1 l -1,-1 -2,1 v -1 z m -2,-2 1,1 h -1 z m 1,-12 h 1 v 2 z"
         fill="none"
         stroke="#00004a"
         stroke-width="2.1"
         stroke-miterlimit="10"
         id="path1195" />
      <path
         d="m 697,125 4,2 1,-1 2,1 h 1 l 1,1 1,-1 1,2 2,-1 1,2 1,-1 1,1 v -1 2 -1 l 10,3 v 1 h 1 l 3,1 h 2 l 5,3 h 1 v 1 l 1,-1 1,1 -1,1 h 1 l 3,2 h 1 l 4,3 v 1 l 1,-1 6,7 h 2 v 1 l -1,1 5,4 v 1 l 2,4 v 1 l 2,11 -1,1 1,1 -1,1 v 3 l -2,4 v 1 l -5,3 h -1 v 2 l -1,-1 -5,7 h -1 v -1 l -2,3 h 2 l 5,2 v 1 -1 l 8,3 h 1 c 8,3 14,8 16,13 l 4,5 h 1 v 1 l -1,1 1,1 h -1 l 3,2 v 1 l -2,1 2,3 h 1 v 1 l -1,-1 v 2 l 2,2 h -1 l -1,-1 v 4 l -1,1 h 1 v 1 l -1,1 h 1 l 1,-1 v 1 l -2,2 v 4 c -1,0 -2,1 -2,3 v 1 l -4,6 h -1 1 -2 l -1,1 v 1 h 1 l -5,4 -1,-1 -1,1 h -1 l -1,1 1,1 h -3 v 1 h -1 v -1 l -2,2 h -1 l -1,-1 -4,3 v 1 h -3 l -1,1 v -1 h -1 l -1,2 -3,-1 v 1 l -4,2 c -2,0 -3,1 -3,2 h -1 v -1 l -5,2 -1,-1 v 1 h -1 l -4,1 v -1 h -2 v 1 l -2,-1 v 2 l -1,-1 -1,1 v -1 h -1 l -1,2 -2,-1 v 1 l -4,-2 v 1 l -1,-1 -1,1 -2,-2 h -2 1 l -1,-1 -2,1 -1,-3 -1,1 h -1 c 0,-1 0,-2 -2,-2 l -4,-3 1,-1 -1,-1 v -1 h 1 c -2,0 -3,-1 -3,-2 h 1 v -3 l 1,1 1,-1 v -1 h 2 l -1,-1 4,-2 v -1 h 2 l 1,-1 v -1 l 2,-3 v -2 l -1,-4 2,-4 -1,-1 v -1 l 2,-7 v -1 l 1,-1 -1,-1 1,-1 v 1 h 1 l -2,-6 1,-1 h -1 v -2 l -1,-4 h 1 l -2,-1 -1,1 -2,-2 -1,1 -2,-1 1,-1 -1,-1 h -1 l -2,-4 v -2 l -1,-3 c 2,-1 2,-2 2,-3 l 5,-5 4,-2 -1,-1 v -1 l -1,-5 v -2 l -1,-4 -1,-1 1,-2 -2,-1 v -1 h 1 l -1,-1 v -2 l -1,-1 1,-1 h -1 l -1,-4 h 1 -2 l -4,-12 h -1 v -1 l -2,-2 h 1 l -1,-2 -1,1 v -1 h 1 v -1 l -2,-4 v 2 h -1 l 1,-3 h -1 c -2,0 -3,-1 -3,-3 l -1,1 -3,-3 -2,-5 -1,-1 1,-2 v -1 h 1 v 2 -2 c 1,-2 3,-3 4,-2 v -2 l 3,-1 v 1 h 2 l -1,-1 v -1 h 1 v 1 h 6 z m -10,0 h 1 v 1 h -1 z m 4,28 1,1 z m 3,109 h 1 v 1 h -1 z m 1,2 v 1 h 1 v -1 z m 2,-6 h 1 v 1 h -1 z m 4,-4 h 1 l -1,1 z m 4,2 h 1 z m 2,-17 v 1 z m 2,-6 v 1 l 1,-1 z m 3,-83 v 1 l 1,1 -1,1 v 3 l 1,1 h -1 l 2,3 v 1 l -1,1 2,4 -1,1 h 1 v 2 l -1,1 2,6 1,1 -1,-1 c 1,3 2,4 1,6 l 3,13 h 1 l 9,-5 c 5,-1 10,-6 16,-14 v -4 l -2,-1 1,-1 c -2,0 -2,-1 -3,-3 -2,-3 -5,-6 -9,-8 l -5,-4 v 1 h -1 c 0,-2 -3,-4 -10,-5 v -1 h -2 l -1,-1 z m 16,63 -3,-1 -3,1 c -1,1 0,4 1,9 h -1 1 l -1,1 1,14 v 1 l -1,3 h 1 l -1,1 v 3 l 1,1 -1,1 v 6 l 1,2 3,-1 1,1 3,-1 h 2 v 1 l 6,-2 h 3 l 8,-3 h 1 a 47,47 0 0 0 13,-9 l -1,-1 1,-3 v -4 l -1,-1 h 1 c 0,-2 -1,-5 -3,-7 v -3 h -1 v -1 h 1 l -1,-2 h -2 l -2,1 -4,-3 -2,-2 -1,1 h -1 l -1,-2 h -2 l -3,-2 -2,1 h -2 v -1 h -6 z m 24,-24 v 1 h 1 v -1 z m 0,3 h 1 z m 12,74 h 1 v 1 h -1 z m 7,-4 h 1 v 1 h -1 z m 56,-150 1,1 h 2 l 2,1 h 4 l 3,2 h 1 l 2,1 1,-1 2,1 1,-1 1,2 h 3 c 3,0 5,1 5,2 h 1 l 1,1 h 2 l 2,1 h 3 v 1 l 3,1 h 2 l 1,2 h 1 l 3,2 h 2 c -1,2 0,2 1,3 l 1,-1 1,1 c 0,1 0,0 0,0 l 3,3 h 2 l 7,11 -1,1 c 3,0 4,2 3,4 l 5,11 c 0,2 0,2 2,3 h -1 v 1 l 1,3 -1,1 1,1 h 1 v 1 h -1 c -1,5 0,8 1,8 l -2,3 v 2 l 1,1 h -2 v 5 l -1,1 h 1 c -3,7 -9,14 -16,19 -2,0 -4,1 -7,4 -3,0 -5,1 -5,3 h -1 l -1,-1 -14,4 -1,2 15,11 h 2 c 0,2 1,3 4,4 l 3,4 h 2 l 3,3 -1,-1 v -1 l 1,4 h 3 l 4,4 4,4 1,-1 h 1 l -1,1 h -1 l 1,1 -1,1 2,1 1,-1 1,3 h 1 v -1 h 1 v 2 h -3 c 2,1 4,1 3,2 v 1 h -1 2 l -1,2 3,-1 -1,1 1,1 -1,1 3,2 v 1 l -2,2 2,1 -1,1 -2,-1 v 2 l 3,2 v 1 c -1,0 -2,0 -3,-2 l -2,1 v 2 l -2,1 -1,1 3,3 h -1 l -2,-3 -1,3 -2,1 v -2 l 1,-1 -5,2 v -1 h -2 v 1 h -1 v -1 l 1,-1 -3,-2 -4,1 h -1 l 1,-2 -2,1 -1,-5 h -1 l -2,1 v -1 l 2,-1 -4,-11 -4,-4 h -1 l 1,-2 h -2 l -1,-4 -1,1 -1,-6 -9,-9 -6,-5 -1,2 -1,-1 1,-1 v -1 l -1,-1 -2,1 -1,-4 -1,1 v 2 h -1 l 1,-1 -1,-1 v 1 h -1 l -2,-2 v 1 h -1 l -1,-1 h -2 l -4,-5 -2,1 h -1 v -1 h -1 v 2 l -1,2 1,2 -1,-1 v 5 l -1,2 1,1 -1,3 v 1 h 1 l -1,2 1,1 -1,3 2,1 -1,3 -2,1 2,3 c -1,-1 -2,1 -3,3 v 1 c -2,6 -4,9 -7,9 v 1 l -1,-1 c -1,0 -2,0 -2,2 l -1,-1 -3,-3 -2,-4 h 1 v -5 l 1,-3 2,-4 v -1 l 2,-5 -1,-1 1,-2 v -10 h 1 v -3 l -1,-3 h 1 l -1,-1 1,-2 -5,-6 2,-4 -1,-2 1,1 2,-4 -1,-6 c 0,-11 -1,-18 -3,-20 v -6 l -2,-8 -1,1 v -1 l 1,-1 -1,-4 1,-1 -2,-1 v -2 l -3,-3 2,-1 -2,-1 v -2 l 1,-1 -3,-6 1,-1 h 1 v 1 h 1 v -1 l -2,-1 1,-1 -1,-2 v -1 l 1,-1 -1,-1 h 1 -3 l 1,-1 v -1 l -1,-1 h 1 c 0,-2 -2,-3 -6,-4 h -4 v -1 h -2 l -2,-1 v -7 l 2,-2 v -2 l 3,-1 v -1 h 2 l 3,-2 v 1 h 1 c 2,-1 4,-2 6,-1 v -2 l 4,2 1,-1 2,1 8,-1 1,1 h 3 l 3,1 z m -29,19 v 1 l -1,1 h -1 l 1,-1 -1,-1 z m 4,-22 -1,1 -1,-1 z m -2,40 h 2 v 1 h -1 z m 0,-10 1,1 1,-1 z m 5,25 h 1 l -1,1 z m 6,-58 h 1 v 1 h -1 z m 13,26 -1,-1 -1,1 v 4 h 3 l -3,2 2,2 -1,2 1,11 -1,1 1,1 h -1 v 1 h 1 l -1,2 c 1,0 2,2 1,5 h -1 c 2,1 3,2 2,3 v 3 l -1,1 c 0,6 1,9 2,9 l -2,3 1,1 h -1 v 1 l 1,1 -1,1 v 1 l 2,15 3,2 v -1 l 1,2 c 3,-1 5,-2 6,-1 l 9,-1 4,-1 1,1 20,-6 6,-5 1,1 5,-11 -1,-1 h 1 v -7 h 1 c -1,-1 -2,-3 -2,-9 l -3,-5 h -2 l -1,-2 h 1 c -4,-1 -8,-5 -13,-11 l -5,-4 -1,1 v -1 c 0,-1 -5,-4 -15,-8 h -4 l -2,-1 h -2 l -2,-2 z m -2,119 h 2 v -1 z m 3,-81 1,1 h -1 z m 50,109 h 2 l -1,1 z m 6,1 h 1 v -1 z m 4,1 v 2 h -1 l -1,-1 z m -1,-146 v 1 h 1 z m 11,119 h 1 v 2 l -1,-1 z m 1,2 h 2 z m 4,13 v 1 h 1 v -1 z m -3,-147 1,1 -1,1 -1,-1 z m 0,-6 h 1 z m 23,-16 -1,3 h -1 l 1,1 h 1 v -3 h 2 l -1,1 3,1 v -1 1 c 1,1 0,1 -1,1 v 1 h 2 l 2,1 v 1 h -1 v 1 c 1,0 2,0 2,2 l 1,-1 v 2 l 1,-1 v 2 l 2,-1 v 1 l -1,1 1,1 2,-1 c 1,3 3,5 4,5 l 1,-1 3,2 v 1 h 4 l -1,-1 h 1 l 3,2 1,-1 1,1 7,2 h 1 v -1 h 1 v 2 h 1 l 1,-2 c 0,2 2,3 6,4 v -1 l 4,2 3,-1 -1,1 3,1 3,-1 3,2 1,-1 v 1 l 1,-1 h 3 v 1 l 1,-1 1,2 1,-2 2,2 1,-1 h 1 l 3,-1 1,1 h 2 l 4,1 2,-2 1,1 1,-1 h 1 l -1,1 3,1 v -1 l 2,2 1,-1 h 2 v 1 h -1 v 1 h 2 l -1,1 v 1 h 3 l -1,1 1,1 -1,1 3,1 -1,1 h 1 l -1,2 h 1 l -1,1 v 1 h 2 l -1,2 v 1 h 1 v 1 l -2,2 1,1 -2,1 1,1 -1,1 1,1 h -1 l -2,-1 -2,2 h 1 l -1,1 -1,-2 h -1 v 2 l 1,1 -3,-1 1,-1 h -3 v 1 h -1 v -1 l -1,-1 -1,2 h -1 v -1 h 1 c -2,0 -3,-1 -3,-2 h -5 v 1 h -1 v -1 l -4,-1 h -1 v -1 l -2,1 v -2 h -1 v 2 h 1 v 1 h -1 l -1,-2 -1,1 v -2 h -2 l 1,1 h -1 l -1,-1 -2,1 1,-1 -1,-1 -1,1 -1,-1 h 1 v -1 l -4,2 -1,-1 -1,1 -1,-1 -1,1 v -2 l -1,1 c 0,-1 -1,-2 -4,-2 h -1 l -2,-1 v 1 h -3 v 1 h -1 v -2 h -2 v 1 h -2 l 1,-1 v -1 h -2 l -2,1 -2,-2 h -2 c 0,2 -1,2 -2,2 l 1,-2 -2,-1 h -2 l -1,-1 -1,2 v 1 c 1,0 2,1 2,3 v 1 l 1,2 h -1 l 1,1 1,-1 v 1 l -1,1 1,2 -1,1 h 2 v 1 l -1,2 2,2 -1,2 v 1 l 2,4 v 2 l 2,2 -1,1 1,3 -1,1 2,3 -1,1 2,4 h -1 l 2,3 h 4 l 3,-2 2,1 14,-5 v 1 l 4,-2 v 1 c 2,-2 4,-2 6,-2 l 1,-1 3,3 h 1 l 1,-1 v 1 h -1 l 2,7 -1,3 v 1 l -6,3 v -1 l -6,2 v -1 l -3,1 -4,1 h -2 l -1,1 h -2 l -4,2 -1,-1 -4,2 -4,1 1,1 -1,2 v 2 l 1,1 v 2 l -1,1 h 1 v 2 h 1 l -2,1 3,3 h -1 l 1,3 -1,1 v 6 l 1,5 -1,2 h 1 l 1,-1 v 1 l -1,1 1,1 -1,1 1,1 -1,2 v 3 l 1,1 h -1 v 1 l 4,-2 3,1 1,-2 1,1 5,-3 h 5 v -1 h 2 v -1 l 1,1 1,-1 7,-2 h 4 v -1 l 1,1 2,-1 v 1 l 2,-1 2,-1 v 1 l 1,-2 h 6 l 1,1 3,-2 1,1 h 1 l 2,-1 4,1 c 3,0 4,1 4,2 l 1,-1 1,2 v -2 l 2,2 v 6 l -2,4 h -3 l -4,4 h -1 v -1 l -4,1 -2,1 h -2 l -1,1 -2,-1 -1,2 -1,-1 -5,1 -5,2 -1,1 -5,-1 -2,2 -2,-1 -1,1 h -2 l -1,1 h -1 l -4,2 h -2 v 1 h -3 l -1,1 h -1 l -4,3 h -1 l -3,2 -1,-1 -4,3 -3,4 -2,-2 -2,2 -2,-1 h -1 1 l 1,1 h -4 l -1,1 -3,-1 -1,1 h -3 c -1,-1 -1,-2 -3,-2 l -2,1 h -1 l -6,-4 -2,-2 1,-1 -1,-1 v -1 h 1 l 3,-4 h 2 l -1,-1 1,-2 -1,-1 h 1 v 1 h 2 l -1,-1 v -1 l 1,-1 v 2 c 2,0 2,-1 2,-2 h 1 l 1,1 1,-2 1,-1 h 1 l 1,-1 h 1 l -1,-1 h 2 v -1 h -1 l 1,-3 v -1 l -1,-2 1,-2 v -2 l -1,-1 1,-2 h -1 v -7 l -1,-2 1,-2 -2,-3 1,-2 -1,-1 1,-2 -1,1 -1,-1 1,-1 v -1 l -1,-1 h 1 l -1,-1 1,-1 -1,-1 h -1 l -1,1 -1,-1 -2,2 -6,-5 h -1 v -2 l -1,-1 v -6 l 1,1 2,-1 -1,-1 1,-1 5,-2 h 1 l 2,-1 v -3 l -1,1 -1,-1 1,-1 v -1 h -1 1 l -1,-3 -2,-2 1,-2 h -1 v -5 l -1,-1 1,-1 -3,-5 -2,-4 v -2 l -2,-4 h -1 l 1,-2 v -1 h -1 v 1 l -1,-1 h 1 l -1,-1 1,-1 -3,-4 1,-1 -1,-1 h 1 v -1 h -2 v -1 l 1,-1 -1,-1 -1,1 -1,-1 1,-1 -2,-3 h 1 l -2,-2 v -1 h -1 v -1 l 2,-1 -2,-1 1,-1 -1,-1 -1,1 -1,-2 h -2 l -1,-1 h -1 l 1,1 -1,1 -1,-1 h -2 l -1,1 -1,-1 2,-2 -2,1 h -1 v -1 l 1,-1 h -1 v -3 h -3 v -2 h 1 v -1 h -1 v -1 h 1 l -1,-1 h -1 l 3,-4 1,1 v -2 h -2 v -1 l 3,-2 1,1 -1,1 h 1 l 1,-3 v -1 h 1 v 2 h -1 v 1 l 2,-2 -1,-1 h 1 l -1,-2 2,-1 1,2 2,-2 -1,-1 h 1 l 1,1 c 1,-3 2,-4 4,-4 l -2,-3 h 2 l 1,-1 v 1 -1 z m -20,28 v 2 l 1,1 v 1 c -1,0 -2,-1 -2,-3 z m -1,-10 1,1 h -1 z m 1,4 h 1 z m 0,2 2,1 v -2 z m 1,-12 1,1 v 1 z m 2,18 h 2 z m 0,-17 h 1 v 1 h -1 z m 4,18 z m 17,135 v 1 h 1 v -1 z m 2,-164 v 1 z m 1,66 1,1 v -1 z m 5,-58 h 1 l -1,1 z m 0,-6 v 1 z m 0,3 h 1 v 1 h -1 z m 1,7 v 1 h 1 v -1 z m 3,99 1,1 z m 4,33 v 1 h -1 z m -1,-128 v 1 l 1,-1 z m 4,24 v 1 l 1,-1 z m 4,2 h 1 v 1 h -1 z m 10,-24 h 1 v 1 h -1 z m 2,25 1,1 v -1 z m 5,123 h 1 v 1 h -1 z m 7,-120 v 1 z m 4,-22 h 1 v 1 h -1 z m 2,0 h 1 v 1 h -1 z m 3,24 v 1 z m 17,36 h 1 l -1,1 z m 0,-35 v 1 h 1 z m 6,3 h 1 v 1 z m 7,1 h 1 v 1 z m 12,-6 h 1 v 1 h -1 z m 0,-9 v 1 z m 0,13 h 1 v 2 z m 62,-54 h 2 l 2,1 1,-1 h 2 v 2 h 2 l -1,1 3,3 v -1 h 1 l -1,2 2,3 h 2 l -2,1 2,2 v 1 h -1 1 l -1,1 v 1 h 1 v -1 l 1,2 v -1 h 1 v 1 l -1,1 2,1 h -1 l -1,1 2,1 -1,2 1,1 h -1 v 1 h 1 l -1,3 1,1 -1,1 1,1 v 1 l 1,4 h -1 l 2,3 -1,2 2,4 -1,1 1,1 -1,1 1,2 v 3 l 1,1 v -1 l 1,1 h -1 v 3 l 1,2 -1,1 1,2 -1,1 v 2 h 2 l -1,1 1,1 -1,3 2,1 -2,2 c 0,2 1,2 2,3 l -1,2 h 2 l -1,1 2,6 -1,2 2,1 h -1 l 1,1 -1,2 h 1 v 2 h -1 l 4,4 -1,1 2,2 -1,2 h 2 v 1 h -1 v 4 h 1 v -1 3 l 2,5 2,2 h -2 l 1,1 v 3 l 2,1 1,-1 1,1 6,-3 1,1 h 1 l 3,2 h 1 l 5,6 v 3 l -2,2 v 1 h -1 c -2,2 -3,3 -5,3 l -3,1 h -1 l -5,2 v 2 l -1,1 1,3 -2,2 1,1 v 1 h -1 v 3 h -1 1 v 2 l -1,-1 v 2 l -1,2 v 1 h -1 l -2,1 v 2 l -1,2 -1,-1 h 1 v -1 h -1 v 1 h -2 v -2 1 l -3,-2 -1,1 1,-1 h 1 v -1 h -1 l -2,-1 v -1 l -2,-2 h -1 l -2,-5 h -1 v 1 l -1,-1 h 1 l -2,-5 -1,-2 1,-1 -1,-1 h -3 l -6,1 -1,-1 -3,1 h -3 l -1,1 -2,-1 h -1 l -1,1 v -1 l -1,1 -1,-1 -1,1 v -1 l -3,1 v 2 l 1,3 -1,-1 -1,3 1,1 -1,1 1,4 -1,1 h 1 -1 v -1 h -1 l -1,2 1,1 v 1 l -2,-1 -5,7 -5,1 h -2 l -1,-1 v 1 l -1,-1 -1,1 -2,-3 v -2 h -1 v -1 h 1 l -1,-2 h 1 l -2,-3 h 1 l -1,-1 2,-3 -1,-2 2,-3 v -1 h -1 v 1 h -1 v -1 h -1 1 l -1,1 -2,-1 -1,1 -1,-1 -1,1 h -1 c -2,-1 -3,-3 -3,-5 l -3,-3 1,-3 -1,-1 v -2 h 1 v -1 h 1 c 0,0 0,1 0,0 l 1,-1 4,-4 h 1 l -1,1 4,-1 1,1 3,-1 v 1 l 4,-1 v 1 l 1,-1 v -1 l 1,-3 1,-1 v -3 l 1,-1 v -1 h -1 v -1 l 3,-4 -1,-1 3,-9 v -3 l 1,-2 -1,-1 2,-4 h -1 l 1,-1 v -1 l 1,-3 v -5 l 1,2 v -1 l -1,-1 h 1 l -2,-4 h 1 l 1,1 1,-3 -1,-1 2,-1 v -1 c -1,0 -2,-1 -2,-3 h 1 v -2 h 1 l -1,-1 1,-1 v -1 l 2,-5 -1,-1 1,-3 -1,-1 1,-2 v -4 l -1,-3 1,1 1,-1 -1,-1 1,-2 -1,-2 v -3 h 1 -1 l -1,1 v -1 l 2,-3 h -1 c 1,0 2,-1 2,-3 l -1,-5 1,-2 h -2 l 2,-2 -2,-3 h 2 v -2 h -1 l 1,-1 -1,-2 2,-1 h -1 l 1,-5 -1,-1 h 3 l -2,-1 v -1 h 1 v -1 h 1 l -1,-1 3,-1 1,1 z m -38,144 v 1 z m 3,14 h 1 l -1,1 z m 3,4 v 2 l 1,-2 z m 2,6 1,-1 v 1 l -1,1 -1,-1 z m 4,-50 v 1 h -1 v -1 z m 2,48 -1,1 -1,1 1,-1 z m 3,-63 v 1 h -1 z m 4,-19 v 1 h 1 v -1 z m 2,-21 v 1 h -1 z m 1,91 v 1 l 1,-1 z m 0,-97 h 1 z m 2,-36 h 2 l -1,1 z m 15,57 -1,2 v 3 l 1,1 h -1 v 1 h 1 l -1,2 h -1 v -1 h -1 l 1,3 h -1 v 1 l -1,5 1,1 -2,1 v 1 h 1 l -1,4 v 1 h -1 l 1,1 v 1 h -1 v 6 l -2,2 1,1 v 3 l -2,1 1,1 v 2 h -1 v 2 l 1,2 h 3 l 5,-1 v 1 h 1 v -1 l 1,1 h 5 v -2 1 h 1 v -3 h -1 l 1,-1 -1,-3 1,1 1,-1 -2,-2 v -1 l -2,1 v -1 l 1,-1 v -3 h -1 v -2 h 1 l -1,-3 v -3 l -2,-4 h 1 v -1 h -1 v 1 -3 h 1 v -1 l -1,-2 v -1 l -1,-3 -2,-8 h 1 z m -5,-83 h 1 z m 2,5 v 1 h 1 v -1 z m 4,-2 h 1 z m 1,-4 h 1 v 1 h -1 z m 7,13 h 1 l 1,1 -1,1 -1,-1 z m 3,11 v 1 l 1,-1 z m 2,138 h 1 v 1 h -1 z m 1,-4 h 1 v 1 h -1 z m 0,-125 h 1 v 1 z m 4,129 h 2 l -1,1 h -1 z m 0,-99 h 1 l 1,1 h -2 z m 1,102 v 1 z m 0,-92 v 1 z m 0,4 v 1 h 1 v -1 z m 1,-2 v 1 z m 0,4 h 1 v 1 h -1 z m 4,88 v 1 h -1 z m 0,-75 v 1 h -1 v -1 z m 2,73 v 2 h 1 z m 0,-59 v 1 z m 4,6 h 1 v 1 h -1 z m 1,11 v 1 h 1 v -1 z m 23,8 v 3 l -1,-2 z m -14,-146 4,3 v -1 l 1,1 h 2 v -1 l 1,1 1,-1 v 1 l -3,1 v 1 h 1 l 2,-1 c -1,2 0,2 2,2 l -2,1 v 1 l 3,1 h 1 l 2,2 1,-2 v 3 h -1 v 1 l 1,1 v -1 h 1 v 3 l 3,3 2,5 v 1 h 1 v -1 h 1 l -1,2 v 1 l 1,-1 1,1 h -1 l 2,4 v 4 l 2,2 v 1 h -1 l 1,2 1,-1 1,2 h -1 v 3 l 1,2 c 1,1 2,3 2,7 l 2,1 -1,1 h 1 l -1,1 v 1 c 2,4 4,10 6,21 v 1 l -1,1 2,3 h -1 l 4,9 -2,1 1,1 v 1 h 1 l -1,3 v 1 l 1,-1 1,1 v 2 l 1,1 7,-7 c 3,-1 7,-7 14,-17 l 3,-6 h -1 l 4,-3 h -1 v -1 l 4,-6 1,-1 v -4 l 2,-3 -1,-3 1,-2 v -1 h -1 v -1 l 2,-1 v -2 l -2,-1 v 1 l 1,1 -1,1 h -1 v -1 h 1 l -1,-2 1,-1 v -3 l 2,2 v -1 h -1 v -3 l 1,-1 v -1 h -1 v -2 l -1,-3 v -1 l 2,-2 -1,-1 2,-1 -1,-3 h 2 v 2 l 3,-1 -3,-2 1,-1 2,-2 -1,3 v 1 l 5,-3 1,1 3,-2 4,5 2,-1 v 1 l -1,1 c 3,1 4,1 4,3 l -1,1 2,2 v -1 l 3,1 -1,1 -1,-1 -2,2 2,1 v 1 l -2,1 1,2 -1,1 2,1 v 1 h -1 l -1,1 1,1 -1,2 v 1 l -1,2 v 2 h -2 v 1 l 2,2 -1,1 -1,-1 -1,2 1,2 c -1,-1 -2,2 -3,6 h -1 v 3 l -3,3 h 1 v 2 l -1,-1 h -1 c -3,5 -5,8 -8,10 l -5,5 1,1 v 1 h -2 v 1 l -8,9 -1,-1 -4,5 v 1 l 1,2 h -1 l -2,-1 -1,1 v 2 l 10,-3 h 3 v -1 h 1 l 1,1 1,-2 3,1 5,-1 h 2 v -1 h 1 l 4,3 1,-1 3,2 h 1 l 3,4 v 4 l 1,2 h 2 l -1,2 h -1 v 1 h 1 v 2 l -1,1 h 2 l -1,1 1,4 v 1 l 3,5 -1,1 c 1,0 2,2 1,4 v 1 l 2,-1 v 1 l -2,1 1,3 v -1 c 1,0 2,0 2,2 h -1 c 0,2 1,3 2,3 l -1,1 v 3 l -1,1 v 1 h 2 l -1,1 3,4 h -3 l 1,1 v 1 l -1,1 h 2 v 1 l -1,1 h 2 v 1 l -1,1 1,1 -3,-1 c 0,1 1,2 3,2 l -3,1 1,3 h 1 l 3,-1 -3,2 1,1 -1,3 v 1 h 1 v -2 l 2,3 -1,1 1,1 h -1 l -2,-1 -2,1 h 4 l -3,2 c 0,3 1,4 2,4 v 1 l -1,-1 -2,1 v -3 h -2 v 2 h -1 l 3,2 -1,1 1,2 -2,1 -1,-1 v -3 h -1 l -4,2 c 2,0 3,1 3,3 v 2 l -2,-1 v -1 h 1 l -3,-4 -2,2 h -1 l -2,-1 1,-1 v -1 h -1 l -1,2 -3,-1 1,-1 -3,-1 2,-1 v -1 l -4,-4 -4,-2 1,-1 1,1 v -1 l -2,-3 -2,2 v -2 l 3,-1 -1,-3 v 2 h -1 v -3 c 1,0 2,-1 2,-3 l -1,-1 v -2 l -2,-2 3,-2 -1,-1 v -1 l 1,-1 h -1 v -2 l 2,-1 v -1 h -1 l 1,-3 -2,-1 v -1 l 1,1 v -1 h -1 v -1 l 1,-1 -1,-2 v -1 l -1,-1 2,-2 -2,-2 1,-3 -1,1 v -1 l 1,-1 v -1 h -1 v 1 h -1 l -1,-1 3,-1 -1,-3 v -2 h -1 v -1 l 2,-3 -1,-4 h -7 l -1,1 -3,-1 -2,2 -1,-1 -4,2 v -1 h -3 l -3,3 v -1 l 1,-1 v -1 h -1 l -1,2 h -4 l -1,1 h 2 l 1,1 h -3 l -1,-1 v 3 l -4,-2 h -1 v 1 l 2,2 -2,1 v 1 l 1,2 h -1 l 1,3 -1,3 h 1 l -1,2 1,1 -1,2 h 1 c 0,4 -1,6 -2,6 l 1,1 -1,3 1,1 -1,2 v 2 l -1,5 1,2 h -1 l 1,1 h -2 l -1,4 v 2 c 0,2 -1,3 -3,3 l 2,3 h -3 1 c -1,3 -2,4 -4,5 l -2,-2 h -3 c -2,-2 -3,-4 -2,-5 h -1 v 1 l -1,-1 1,-2 v -2 l -2,-5 1,-1 h -1 v -3 l 1,-1 v -4 l 1,-1 -2,-4 h 2 v -1 l -1,-1 1,-2 v -5 l -1,-3 v -1 h 1 v -3 l -1,-2 v -1 l 1,-1 c 0,-1 -2,-3 -6,-4 l -4,-6 -1,1 v -1 l 2,-2 h -2 l 3,-3 1,1 c 0,-1 1,-2 2,-1 l -1,-2 c 2,0 3,-1 3,-2 h -1 l 1,-1 1,1 1,-1 -2,-1 1,-1 v -2 1 h -1 v -1 l 1,-2 -2,-5 v -1 l 1,1 v -1 l -2,-4 c 1,-3 0,-6 -2,-7 l 1,-2 -1,-1 v -2 l -2,-4 h 1 l -2,-5 v -1 l -3,-3 1,-1 -4,-7 1,-1 h -1 l -4,-13 -1,1 h -1 c 1,-4 0,-6 -2,-7 l -1,-2 1,-1 v -1 l -2,-2 1,-1 v -1 l -1,1 -1,-1 1,-2 h -1 l 1,-1 -3,-1 2,-2 -1,-2 1,-1 -2,-1 1,-1 -1,-1 1,-1 v -1 l -1,-1 v -1 h 1 c 0,-1 0,-2 -2,-3 l 2,-4 h -1 l 2,-6 -1,-1 z m -1,9 -1,1 h 2 v -1 z m 3,-6 v 1 h 1 c 1,-1 0,-1 -1,-1 z m 1,-3 v 1 h -1 z m 2,0 1,2 -1,1 -1,-1 v -1 z m 9,12 h 1 z m 5,104 v 1 h 1 v -1 z m 23,-31 h 1 v 1 h -1 z m 6,35 v 1 l 1,1 v -2 z m 26,-58 v 1 h -1 z m 2,-29 h 1 -2 z m 3,138 1,1 h -1 z m 0,-142 v 1 h 1 z m 2,133 v 3 l -2,-1 1,-1 z m -1,-136 h 1 z m 0,121 h 1 v 1 h -1 z m 1,8 v 1 h -1 z m 0,-7 h 1 v 1 l -1,1 z m 2,-133 -1,2 -1,-1 z m 1,1 h 1 l -2,1 z m 2,163 1,2 v 2 l -1,1 -2,-4 z m -1,-161 h 1 v 2 c -1,0 -2,-1 -1,-2 z m 4,-2 v 1 h -2 l 1,1 h -2 v -2 z m 1,170 1,1 v 1 h -1 z m 2,3 1,1 -1,1 z m 0,-4 v 1 h 1 v -1 z m 2,4 h 2 v 3 h -2 z m 0,-9 v 1 h 1 z m 1,-161 h 1 l 1,2 v 1 l -1,-1 z m 1,171 h 2 v 1 h -1 z m 1,3 h 1 l 1,1 -1,1 h -1 z m 0,3 h 1 v 2 z m 1,-12 v 1 h 1 v -1 z m 0,5 v 1 z m 1,1 h 1 l 1,2 h -2 z m 0,-76 v 1 h 1 l 1,-1 z m 2,79 h 1 v 1 h -1 z m 1,-11 v 1 l 1,1 h 1 v -2 z m 1,-60 1,1 h -1 z m 2,68 h 1 v 1 h -1 z m 3,-17 v 1 l 1,1 v -1 z m 1,-29 h 1 v 2 h -1 z m 0,30 v 1 h 1 v -1 z m 1,-17 h 1 v 1 z m 0,-12 2,1 h -2 z m 1,4 h 1 l -1,1 z m 1,6 h 2 v 1 l -2,1 h -1 z m 2,16 2,2 h -1 l -1,-1 -2,1 v -1 z m -2,-2 1,1 h -1 z m 1,-11 h 1 v 2 z"
         fill="#5151a8"
         id="path1197" />
      <path
         fill="#00004a"
         stroke="#00004a"
         stroke-width="2.1"
         stroke-miterlimit="10"
         d="m 1105,320 3,2 h -1 c -2,0 -3,-1 -3,-2 z m 0,8 h 1 l 1,1 h -1 z m 0,-5 h 1 v 1 h -1 z m 5,15 h 1 l -4,3 z m -6,-27 h 1 v 1 z m 2,2 v 2 l -2,-1 z m 21,-20 v 1 l 1,-1 2,1 v 1 l -1,1 h 1 l 2,1 1,-3 5,3 -1,1 h -3 v 1 h 1 v -1 c 2,1 3,2 4,5 l 4,2 h 4 l -1,1 h 3 l 2,1 1,-1 3,1 h 3 v -2 l 3,3 v -2 h 2 v 1 l 4,-2 v 1 h 1 v -1 l 2,1 1,-1 h 2 l 1,1 c 3,0 4,-1 4,-2 l 1,1 h 1 l 2,1 1,-1 1,1 2,-2 2,2 h 2 l 1,-2 h 2 v 1 l -1,1 6,3 h 1 l 1,-1 2,3 v -1 h 1 l 1,3 -1,3 1,6 -3,6 h 1 c -2,0 -3,1 -5,4 h -4 l 2,1 v 1 h -1 l -2,-1 -3,2 v -1 l -1,1 h -1 l -1,-1 h -1 v 1 l -1,-1 -3,1 -1,-1 h -2 1 -1 v 1 h -7 l -2,1 -1,-1 h -2 l 1,1 -1,2 -1,-1 v 1 h -1 l -2,-1 -1,1 -1,-1 -5,3 -1,1 -1,-1 -3,2 h -1 l -1,-1 h -1 l -3,1 v 1 l 1,-1 v 1 l -1,1 h 1 l 1,1 -2,3 1,3 h -2 v 1 h 2 v 2 l -2,1 3,3 v 4 l -3,2 h 3 l -3,3 1,1 1,-1 v 1 l -1,1 1,1 h -1 v -1 h -1 v 1 l 1,2 1,3 -1,1 h 1 v 1 h -2 v 1 l 3,1 -1,1 v -1 l -1,1 1,2 -2,1 1,3 v 2 l -1,1 v 1 l 2,1 c 4,0 6,-1 7,-2 l 2,1 18,-4 1,1 14,-2 h 5 l 4,-1 h 1 v 1 l 1,-1 1,1 h -1 c 2,1 4,3 5,6 l -1,1 v 1 c 0,2 -1,5 -3,7 h -1 c 0,2 -2,2 -4,2 h -2 l -1,1 -2,-1 a 1793,1793 0 0 1 -15,1 h -2 l -1,1 -2,-1 -4,1 -1,-1 -2,2 -1,-1 v 1 l -1,-1 -2,2 -1,-1 -1,1 -9,3 1,1 v 1 h -1 c 0,1 0,2 2,2 v 1 l -2,1 1,1 -1,2 v 1 l 1,-1 h 1 v 2 l -1,2 c 1,0 2,1 2,3 h -1 l 2,1 v 1 l -1,1 h 2 v 1 h -2 v 1 l 1,2 v 1 l 2,3 -1,4 2,1 1,-2 -1,-1 v -1 h 2 l -1,3 2,-1 v 1 l -2,1 v 2 l 1,-1 h 1 v 1 l -4,1 1,1 h 2 l 2,-3 c -1,2 -1,4 -3,4 l 1,3 c 1,1 1,0 1,-1 v -1 l 2,-1 1,1 h -2 l 2,2 1,-1 v 2 h -1 l -1,1 h 1 v 3 h 1 l 1,-2 h -1 v -1 l 2,1 v 1 l -1,1 1,1 v 2 -2 h -1 l -1,-1 v 4 h -1 v 1 l 3,1 -1,1 2,2 -1,2 h 2 v 4 l -2,6 -6,4 -1,2 -2,-1 v 1 h 1 l -1,1 -2,-1 1,-2 -3,1 h -1 l 1,-1 v -1 l -3,-2 1,2 h -2 v -3 l -3,-2 2,-2 -1,-1 -1,1 h -1 l 1,-3 v -2 l 1,-1 h -2 l 1,-2 c 0,-1 0,-2 -2,-2 l 1,-2 v -1 l -2,-5 -1,1 -1,-7 v -1 h -1 l 2,-1 -1,-2 -1,1 v -2 h 1 c -1,-2 -1,-4 -3,-5 l 1,-2 -1,1 h -1 l 1,-1 v -1 l -1,-1 1,-1 -2,-2 2,-1 -2,-1 v -2 l -1,-2 1,-1 -3,-5 -1,1 h -1 c -2,0 -5,-3 -10,-10 h 1 l -1,-1 1,-1 h -1 c 0,-3 1,-4 3,-3 v -1 h -1 v -1 c 2,0 4,-2 5,-5 v -1 h -1 v -1 l 1,-1 c -1,-1 -2,-1 -2,-3 l -1,-1 v -3 l -1,-2 1,-1 -1,-2 h -1 v 1 h -1 v -2 l 1,-4 -1,-3 v -1 l -2,-1 1,-2 1,1 h 1 l -1,-2 -1,1 1,-2 -2,-2 h -1 l 1,-1 c 0,-2 -1,-4 -3,-5 v 1 -1 l 2,-1 -1,-1 2,-1 -1,-1 h -2 l 2,-1 h -1 l 1,-4 h -2 v 2 c -1,-1 -2,-1 -2,-3 h 1 v -1 l -1,-4 h -1 v 2 l -1,-2 h -1 v -1 h 2 v 1 h 1 l -1,-4 h 1 v 1 l 2,-1 -1,-2 h -1 l -1,-1 1,-1 -2,-2 h -1 v -3 l -1,-1 v 2 h -1 l -1,-2 2,-1 -1,-1 1,-1 1,-1 -1,-3 h 1 l -1,-1 1,-1 -1,-1 1,-2 -2,-1 -1,1 v -1 l 1,-1 v 1 l 3,-2 h -1 l -1,-1 h 1 l -1,-6 1,1 v -2 h 1 l 1,1 c 0,-2 1,-2 3,-2 v -1 l -2,-1 v -1 l -3,-4 v -1 l 2,1 1,-1 2,3 h 2 v -1 h -1 v -2 l 1,1 v -2 l -1,1 -2,-1 1,-2 h -1 v -1 l 2,-2 h 1 v 1 h 1 v 2 l -2,1 v 1 h 2 l 3,-2 -1,-1 h 2 l 1,-2 h 1 v 1 c 1,1 2,0 4,-1 z m -20,42 2,2 v 1 l -2,-1 z m 2,13 h 1 v 1 z m -1,-19 1,1 1,-3 z m 2,4 -1,1 h 1 z m 0,-3 v 2 h 1 l -1,-1 z m 2,31 h 1 z m -2,-43 v 1 h 1 v -1 z m -1,-7 h 2 z m 4,42 v 1 z m 0,3 h 1 v 1 h -1 z m -3,-51 1,1 h -1 l -1,-1 z m 3,38 1,1 v -1 z m -4,-37 2,1 h -2 z m 6,62 h 2 l -1,1 h -1 z m -4,-59 v 1 z m -1,-13 h 1 v 1 h -1 z m 6,63 h 1 z m -4,-57 v 1 h 1 v -1 z m 0,-11 1,1 v 1 l -1,-1 z m 8,89 v 1 h 2 v -1 z m 0,-1 v 1 h 1 v -2 z m -6,-75 1,1 v -1 z m 0,-13 h 1 v 1 h -1 z m 1,4 -1,1 h 1 v -2 z m 1,-9 h 1 v 1 h -1 z m 3,13 v 1 l -1,1 h 2 v -2 z m -1,-8 h 1 l 1,2 v 1 l -2,-1 1,-1 h -1 z m 0,-3 h 1 l -1,1 z m 2,3 h 1 z m 2,5 -1,1 h 2 v -1 z m 0,-13 1,1 -2,1 z m 0,6 1,1 h -2 z m 3,7 -1,1 v 1 l 2,-1 z m 14,170 v 1 z m -15,-180 h 1 v 2 l -1,-1 z m -1,-3 h 2 z m 1,9 h 2 l -1,1 z m 1,-3 1,1 h -1 z m 17,180 v 1 h -2 z m -17,-184 h 2 l -1,1 z m 2,14 h 1 z m 1,-9 h 2 v 1 h -3 z m 15,181 1,1 v 1 z m -16,-183 h 1 v 1 h -1 z m 0,-6 h 1 v 1 z m 18,196 v 1 h -1 z m 0,-3 1,1 h -1 l -1,-1 z m -15,-181 h 3 v 1 l -1,1 h -2 z m 0,-6 h 1 l 1,1 v 1 h -1 l -1,-1 z m 1,-4 h 1 l -1,1 z m 1,14 1,1 1,-1 z m 2,-9 v 1 h -1 z m 0,3 h 1 v 1 h -1 z m 0,-6 h 1 v 1 h -1 z m 1,8 h 1 v 1 h -1 z m 8,49 v 1 z m 1,17 1,2 v -2 z m 0,-15 v 2 l 1,-2 z m -4,-48 2,1 -1,1 c 1,0 2,1 2,3 l -2,1 -1,-1 v -1 l 1,1 v -1 h -2 l 2,-1 -1,-1 h 1 l -2,-2 z m 0,9 v 1 h 1 v -1 z m 5,52 v 1 z m -6,-74 h 1 v 1 h -1 z m 7,79 1,2 -1,-1 z m 7,69 h 1 v 2 z m 5,49 v 1 z m -4,-57 v 1 h -1 z m -7,-82 h 2 v 1 l -3,1 v -1 z m 4,32 v 1 l -1,-1 z m -7,-72 v 1 z m -1,-9 h 1 v 1 z m 13,141 v 1 z m -8,-130 v 1 h -1 z m 12,149 v 1 l 1,-1 z m 0,-5 -1,2 h 1 z m 3,29 1,1 h -1 l -1,-1 z m -15,-171 v 1 l 1,-1 z m 15,157 v 1 h 1 v -1 z m 1,4 1,1 z m 0,-1 h 1 z m 2,5 h 1 v 1 c -1,1 -1,0 -1,-1 z m 0,-13 1,1 v 1 l -1,-1 z m 1,9 h 1 l -2,1 z m 36,-72 h 1 v 1 h -1 z m -5,-63 h 1 v 1 z m 49,50 h 1 v 1 h 1 l 2,1 1,-2 h 2 l 1,3 1,-1 h 1 v 1 l -1,1 3,3 v -1 h 1 v 2 l 2,3 h 2 l -2,2 3,1 v 1 h -1 v 2 -1 l 1,2 h 1 v 1 l 1,2 h -1 v 1 l 1,1 -1,3 1,1 h -1 1 v 6 l 1,1 -1,1 2,4 c 0,2 1,3 2,3 v 1 l -1,2 2,4 -1,1 1,1 v 1 l -1,1 2,1 -1,2 v 2 h 2 l -1,1 1,1 v 1 l -1,1 2,2 -1,1 1,2 -2,2 1,2 1,-1 h 1 l -1,2 1,1 -1,3 2,1 -2,3 2,2 v 3 h 1 c 0,4 1,6 2,7 l -1,3 2,1 v 3 h 1 v 2 h -1 c 1,3 3,4 4,4 v 1 l -1,1 3,2 -2,2 h 3 v 1 h -1 v 4 h 1 v -1 3 l 3,6 1,2 h -2 l 2,1 v 3 l 2,1 1,-1 1,1 7,-3 v 1 l 2,-1 4,3 1,-1 5,7 v 3 c 0,1 -1,3 -2,2 v 2 l -1,-1 c -1,3 -3,4 -5,4 l -4,1 h -1 l -5,3 v 2 l -1,1 1,3 -2,2 v 1 l 1,1 -1,1 v 4 h 1 v 2 l -1,-1 v 1 l -1,3 v 2 l -1,-1 -3,1 1,3 -2,2 v -1 h 1 v -1 h -1 v 1 h -3 l 1,-1 -1,-1 v 1 l -3,-2 -1,1 1,-2 1,1 v -2 l -1,1 -2,-2 v -1 c -1,0 -2,0 -3,-2 h -1 l -2,-5 h -1 v 1 l -1,-1 h 1 c 0,-2 -1,-4 -3,-5 h 1 l -2,-3 1,-1 -1,-1 -1,1 -3,-1 -7,2 v -1 l -3,1 h -4 l -1,1 h -3 l -1,1 -1,-1 h -3 l -3,1 v 3 l 1,2 h -1 l -1,2 1,2 h -1 l 1,5 v 1 h -1 v -1 l -2,2 2,1 v 1 h -3 l -5,7 h -1 l -5,2 -1,-1 -1,1 -1,-1 -1,1 -1,-1 h -1 c -1,0 -2,-1 -2,-3 v -2 h -1 l 1,-1 -1,-2 h 1 l -2,-4 1,1 -2,-1 2,-3 v -3 l 1,-3 v -1 2 h -1 l -1,-2 h -1 l 1,1 h -1 l -2,-1 -1,1 h -3 c -3,-1 -4,-2 -4,-5 l -3,-3 1,-4 h -1 v -2 h 1 l -1,-1 1,-1 1,1 1,-2 c 3,-2 4,-3 4,-5 h 1 v 2 l 4,-2 1,1 3,-1 v 1 l 4,-1 v 1 h 1 l 1,-2 1,-4 h -1 l 2,-1 -1,-2 v -1 l 2,-1 v -1 h -1 v -1 l 2,-4 v -1 c 0,-4 1,-8 3,-10 l -1,-1 v -1 l 1,-1 -1,-1 2,-2 -1,-1 1,-4 v -1 l 1,-1 -1,-1 1,-3 v -5 l 1,1 v -1 l -1,-1 h 1 l -2,-3 h 1 l 1,-3 v -1 l 1,-2 v -1 l -1,-3 h 1 v -1 h -1 l 1,-1 v -4 l 2,-5 -1,-1 2,-3 -2,-1 v -1 l 2,-1 -1,-2 1,-2 -3,-4 h 1 l 1,1 v -3 l 1,-2 -2,-1 1,-2 -1,-1 2,-1 h -1 l -1,1 v -1 l 1,-3 c 1,0 2,-1 2,-3 l -1,-6 1,-2 h -3 l 3,-2 -3,-3 v -1 h 3 v -2 1 h -1 v -4 l 2,-1 h -2 l 2,-5 -2,-1 3,-1 -2,-1 h 2 l -1,-1 1,-1 2,-1 1,1 c -1,-2 1,-4 4,-6 z m -37,160 v 1 h 1 v -1 z m 5,16 h 1 l -1,1 z m 3,4 v 2 h 1 v -2 z m 3,6 -1,1 v -1 z m 6,-2 v 1 l -1,1 v -1 z m -4,-53 v 1 l -1,1 v -1 z m 5,-17 v 1 h -1 z m 10,56 v 1 h 1 v -1 z m -6,-76 h 1 z m 1,-23 -1,1 v -1 z m 1,-7 h 1 z m 1,-40 h 1 l -1,1 z m 18,62 v 6 l 1,1 h -1 v 1 h 1 l -1,2 h -1 v -1 l -1,1 1,2 -1,1 -1,6 1,1 -2,2 1,1 -1,4 v 1 h -1 l 1,1 v 1 h -1 v 4 l 1,3 -2,2 v 4 l -1,2 v 3 h -1 l 1,1 -1,2 2,1 h 4 l 5,-1 v 1 h 1 v -1 l 1,1 h 5 v -2 l 1,1 h 1 v -4 l -1,1 h -1 l 2,-1 -2,-3 h 2 v -1 l -2,-2 v -1 h -1 l -1,1 v -1 l 1,-1 -1,-2 v -3 l 1,-1 c -1,0 -2,-1 -2,-3 h 1 l -1,-1 1,-3 -3,-3 v -1 h 1 -1 v -2 h 1 v -2 l -2,-2 h 1 l -2,-4 h 1 l -3,-8 h 1 v -1 l -1,-2 z m -9,-91 1,1 h -1 z m 3,6 -1,1 h 1 l 1,-1 z m 5,-2 1,-1 -1,1 h -1 z m 0,-4 h 1 v 1 h -1 z m 21,176 v 1 z m 0,-4 h 1 z m -12,-159 1,1 -1,1 z m 4,12 v 1 l 1,-1 z m 13,151 h 2 v 1 h -2 z m 1,3 h 1 v 1 h -1 z m -11,-145 h 1 v 2 l -1,-1 z m 17,147 v 1 h -1 z m -11,-114 h 1 l 1,1 v 1 l -2,-1 z m 1,11 v 1 h 1 v -1 z m 1,4 v 1 z m 0,-2 h 1 v 1 h -1 z m 1,5 h 1 l -1,1 z m 10,94 1,2 1,-1 z m -5,-81 v 1 l -1,1 v -1 z m 2,16 v 1 h 1 v -1 z m 5,7 h 1 v 1 h -1 z m 2,12 h 1 z m 25,7 1,3 v 1 h -1 l -1,-3 z m -3,-55 h 1 l -1,1 z m 0,1 1,1 v 1 h -1 z m 2,7 v 1 h -1 c 0,-1 0,-2 1,-1 z m 19,-31 1,1 h 3 v 3 l -2,-1 -1,-1 v 1 l 2,1 h 2 l 3,3 h 1 l 2,1 h 3 c 0,2 -1,2 -2,2 v 2 l 1,-1 2,2 1,-1 4,1 -1,1 h -1 c 0,1 -1,2 -3,2 l 1,1 2,-1 1,3 v 1 h -3 l 3,2 v 1 h -1 v 1 l 1,1 v 1 l -1,1 3,3 v 1 h -2 v 1 l 3,7 -1,2 h -1 v -2 h -1 v 2 l 2,1 v -1 l 1,1 -1,1 c 0,2 0,3 2,3 l -1,1 -1,1 2,3 -1,1 v 2 h 2 l 1,1 -1,1 -1,1 2,3 -1,3 2,-1 v 1 l -2,2 v 1 h 1 l -1,3 c 2,0 3,1 2,3 v 4 h 1 v -1 1 l -1,3 h 1 l -2,6 2,5 -1,1 1,6 h 1 l -1,1 c 0,1 1,3 3,3 l -2,4 v 4 l 2,4 h -2 v 1 l 2,1 -1,4 -1,1 2,3 -1,1 1,6 h -2 v 1 h 2 l -1,1 h -1 v 2 h 1 l 2,4 v 1 l -1,-3 h -1 l 1,4 -1,1 v 2 l -2,1 c 1,3 3,5 4,5 l 1,-1 v 1 l 4,-2 2,1 1,-1 1,1 c 4,-2 7,-3 9,-2 l 1,-1 1,1 5,-1 1,1 8,-2 -2,-5 h -1 v 1 l -2,-3 h 1 v -3 h -2 v -1 l 1,-1 -1,-1 -1,1 -1,-2 h 1 v -1 h -1 l -1,1 v -2 l 2,1 v -1 h -3 l 1,-1 v -1 h -1 l 2,-5 h -1 v -2 h 1 l -1,-3 2,-1 v 1 l 1,-1 -1,-1 v -1 h 2 v -1 l 1,-1 2,1 h 1 v -1 h -1 l 3,-2 v 2 h 1 l 1,-2 1,2 c 0,-2 1,-2 2,-2 v 1 l 1,-1 v 2 l 1,1 3,-1 2,4 c 0,-2 1,-2 2,-2 v 2 c 2,1 2,2 2,3 l 2,-1 2,2 h -3 l 1,1 -1,1 1,1 1,-1 v 2 c -2,0 -3,0 -3,2 h 1 l -1,2 v 8 l 2,5 -2,1 v 1 l 4,7 4,3 h 1 l 6,6 3,5 -1,3 v 1 l -6,5 h 1 l -4,1 h -2 l -4,-4 -1,1 -1,-1 h -2 l -6,-2 h -1 l -3,-1 h -5 v -1 l -5,1 -2,-1 h -3 v -1 l -3,1 -9,2 -1,-1 -16,10 -3,3 -1,-1 c 0,2 -1,2 -3,2 l 1,1 c -5,4 -8,6 -10,6 l -4,-2 h -2 v -3 c -1,0 -2,0 -2,2 l -1,-1 2,-2 v -1 l -1,-1 -2,1 -2,-4 v -6 h 1 v -1 c 0,-2 1,-3 3,-4 l -1,-1 -2,2 v -1 l 1,-2 h 1 l 1,1 4,-4 v -1 l 2,-2 1,1 3,-4 v -10 h 1 l -1,-5 h 2 l -1,-3 1,-1 -1,-1 1,-1 h -2 l 1,-2 v -2 l 1,-1 -2,-2 2,-3 v -1 c -2,-2 -2,-4 -2,-6 h 1 l -3,-1 2,-2 -2,-1 1,-1 -2,-8 h -2 l 3,-5 h -1 v 1 h -1 l -1,-4 1,-1 h -1 c 0,-2 0,-2 -2,-3 l -1,-1 2,-1 -1,-3 1,-1 -1,-3 h -1 v 1 h -1 v -4 h 1 c -1,0 -2,-2 -2,-6 h -1 v -2 c 0,-1 -1,-2 -3,-2 l 1,-1 -2,-4 -1,2 h -1 v -2 h 2 v -1 l 1,-1 v 2 h 1 v -1 l -3,-4 -3,-3 1,-1 -4,-4 h -1 v -1 h 2 c 0,-1 0,-2 -2,-2 h 1 l 1,-2 h 1 v 1 h 1 l -1,-2 -1,1 -1,-1 -1,-4 h -1 v 1 l -3,-1 1,-2 -1,-2 h 2 l -1,1 h 1 l 1,-1 -1,-2 -1,1 v -2 h 1 l -2,-2 1,-1 v 1 l 3,1 -4,-3 v -2 l 1,1 v -1 h -1 l -1,1 h -1 v -2 h 2 l -2,-4 v -1 h 1 v -1 h -1 l -1,1 -1,-2 h 2 v -1 h -2 l 1,-2 v -1 h 1 v 3 h 1 l 1,-1 v -1 h -1 c 0,-3 -2,-5 -4,-5 l 1,-1 h 2 l 2,2 1,-1 -1,-2 1,-1 h -3 l 1,-2 h -2 1 v -2 h 3 c -1,3 0,4 2,4 h 1 v -1 l -1,-1 1,-1 1,1 h 1 l -2,-4 h 1 l 2,1 2,-3 h 1 l 1,1 h 1 l 1,-1 1,1 h 1 v -1 l -2,-1 h 3 z m -17,37 v 1 l -1,-1 z m 2,7 h 3 l -1,1 h -1 z m 0,-4 h 2 v -1 z m 3,6 v 1 l -1,1 v -1 z m 11,135 h 1 v 1 z m -15,-182 h 1 v 1 z m 1,2 2,2 -2,1 -1,-2 z m 3,36 v 2 l 1,-2 z m -2,-43 v 2 h -2 z m 3,60 h 2 v 1 h -2 z m -2,-44 h 1 l 1,-1 z m 4,40 v 2 h 1 v -2 z m -4,-51 2,1 -1,1 h -1 z m 5,51 h 1 v -1 z m -4,-55 c 1,1 2,1 1,2 h -1 z m 6,61 1,1 v -1 z m 13,131 h 1 v 1 l -2,1 v -1 z m -16,-189 v 2 l 1,1 h -2 v -2 z m 6,73 h 1 l 1,1 h -2 z m -5,-67 v 2 l 2,-1 z m 0,-8 2,1 h -2 z m 7,79 1,1 h -1 z m -6,-77 h 2 l 1,2 -2,-1 z m 2,-2 h 1 v 1 h -2 z m 0,10 h 1 z m 18,177 -1,1 h 1 z m -16,-190 h 1 v 1 z m 3,11 -1,1 h 2 v -1 z m -1,-7 h 1 v 1 h -1 z m 6,12 v 1 h 1 v -1 z m 2,-7 2,3 v 2 l -1,-1 v -2 l -1,1 z m 1,8 2,1 -1,-2 z m 19,139 v 1 h 1 v -1 z m 4,-8 -2,5 h -1 v -1 h 1 l -1,-2 z m -10,-94 2,1 -1,1 -1,-1 z m -1,-23 h 1 v 1 l -1,2 z m 0,5 h 2 l -2,1 z m 2,5 v 1 l -1,1 v -2 z m 0,7 h 1 v 2 l -1,-1 z m 9,97 1,1 h -1 z m -7,-95 v 1 h -1 z m 2,21 h 1 v 1 h -1 z m 4,10 1,1 h -1 z m 22,44 h 2 z m 4,6 v 1 z m 9,20 v 1 z m -1,-34 v 2 z m 0,-3 h 1 v 1 h -1 z m 29,-23 1,1 -2,1 z m 0,2 h 1 v 2 h -1 z m 2,6 v 1 h -2 z m 19,-31 1,2 h -1 4 v 2 h -2 l -1,-1 v 1 l 2,1 h 2 l 3,3 3,1 h 3 c 0,1 -1,2 -2,1 l -1,2 h 2 l 2,2 1,-1 3,1 v 1 l -1,-1 c 0,2 -1,3 -3,2 v 1 l 1,1 2,-1 1,3 v 1 h -3 l 3,2 v 1 h -1 l -1,1 2,1 v 1 l -1,1 2,3 v 1 h -1 v 1 l 2,6 -1,3 -1,-1 1,-1 h -1 v 1 l 1,2 1,-1 v 2 c -1,2 0,3 1,3 v 1 l -1,1 1,3 v 3 h 1 l 1,1 -1,2 2,3 -1,3 2,-1 v 1 l -2,2 -1,1 h 2 l -1,3 c 1,0 2,1 2,3 l -1,1 1,3 v -1 h 1 v 1 l -1,3 h 1 l -2,6 1,5 h -1 l 2,6 v 1 c 0,2 0,3 2,4 l -2,4 1,4 h -1 c 0,2 1,3 3,3 l -2,1 v 1 l 1,1 -1,3 v 2 l 1,3 -1,1 2,5 -2,1 1,1 v 1 h -2 v 2 l 1,-1 2,5 -1,-2 h -1 l 1,4 -1,1 v 2 h -2 c 1,4 3,6 4,6 l 1,-1 v 1 l 4,-2 2,1 1,-1 1,1 9,-3 v 1 l 1,-1 1,1 5,-2 1,1 8,-1 -2,-5 h -1 v 1 l -3,-3 h 2 v -3 h -2 v -1 l 1,-1 -1,-1 h -1 l -1,-1 h 1 v -1 h -2 l 1,-1 h 1 -2 v -2 h -1 l 2,-6 -1,1 v -2 h 1 l -1,-3 2,-1 v 1 h 1 v -1 l -1,-2 h 2 v -2 l 2,-1 1,2 h 1 v -1 h -1 l 4,-2 v 1 l -1,1 h 2 v -2 l 2,1 1,-1 h 2 v 1 l -1,1 1,1 3,-1 2,3 2,-1 1,2 h -1 c 2,1 3,1 2,3 l 2,-1 2,2 h -1 l -1,-1 v 2 l -1,1 1,1 1,-1 v 1 l -3,2 2,1 -2,2 1,8 h -1 l 2,5 -1,1 v 1 c 1,5 3,7 3,7 l 4,3 1,-1 6,6 3,6 -1,3 v 1 l -5,5 -4,1 h -2 l -4,-4 -1,1 -1,-1 h -1 l -6,-2 h -2 l -3,-1 h -4 l -1,-1 -4,1 -3,-1 -1,-1 -2,1 1,-1 -4,1 1,-1 -10,3 v -1 l -16,10 -4,3 v -1 c 0,1 -1,2 -3,1 v 2 c -5,4 -8,6 -10,6 -2,-1 -4,-2 -3,-3 l -2,1 -1,-3 c -1,0 -2,0 -2,2 l -1,-1 c 0,-1 1,-2 3,-2 v -1 l -2,-1 h -2 l -2,-3 1,-1 -1,-3 h 1 l -1,-1 v -1 h 2 l -1,-1 4,-5 h -2 l -1,2 v -1 l 1,-2 1,1 4,-4 v -1 l 3,-2 3,-3 v -9 h 1 v -2 l 1,1 -1,-5 v -1 l 1,1 -1,-3 1,-1 v -2 h -1 l 1,-2 -1,-2 2,-1 -2,-3 1,-2 v -1 l -2,-6 h 1 l -2,-1 1,-2 -1,-1 v -1 l -2,-8 h -2 c 2,-2 3,-3 3,-5 v -1 l -1,2 -1,-1 v -5 l -1,1 c 1,-2 0,-3 -1,-3 l -1,-1 1,-1 v -7 h -2 v 1 h -1 v -4 h 1 l -1,-7 -2,1 1,-2 -3,-2 1,-1 -2,-4 h -1 l -1,2 v -2 h 2 l -1,-1 1,-1 1,2 v -1 l -3,-4 -3,-3 1,-2 -3,-3 h -1 v -1 h 1 v -1 l -1,-1 v -1 c 1,1 1,0 1,-1 h 2 l -1,1 2,-1 -1,-1 -1,1 -2,-1 -1,-4 -1,1 -3,-1 1,-3 v -1 h 1 v 1 l 1,-1 v -2 l -1,1 -1,-2 h 1 v -1 l -2,-1 2,-1 -1,1 3,1 -4,-4 1,-1 h 1 -1 l -2,1 -1,-1 v -1 l 2,-1 -2,-3 v -2 l 1,1 v -1 h -1 l -1,-1 h 1 v -1 h -2 v -1 l 1,-1 v -1 h 1 l 1,3 2,-1 v -1 h -1 c -1,-3 -2,-5 -5,-5 l 2,-1 h 2 l 2,2 1,-1 -1,-2 1,-1 h -3 v -2 l -1,1 v -1 l 1,-2 h 2 c 0,3 0,4 2,4 h 2 v -1 l -2,-1 1,-1 2,1 -1,-4 3,1 1,-3 h 1 l 1,1 h 2 v -1 l 1,1 h 1 v -1 l -2,-1 h 3 z m -17,37 v 2 l -1,-1 z m 2,7 2,1 v 1 h -1 z m 0,-3 h 1 l 1,-1 z m 3,6 v 1 l -1,1 -1,-2 z m 11,135 h 1 v 1 z m -15,-182 h 1 z m 0,2 h 1 l 2,2 h -2 z m 4,36 v 2 z m -2,-43 -1,2 h -1 z m 3,60 h 2 v 1 z m -2,-44 h 1 v -1 z m 4,40 v 1 l 1,-1 z m -4,-51 h 1 v 1 h -1 z m 5,51 h 1 v -1 z m -4,-55 1,1 -1,1 z m 6,61 h 1 z m 13,131 v 1 l -1,1 v -2 z m -16,-189 v 2 l 1,1 h -2 l -1,-2 h 1 z m 6,72 h 1 l 1,2 -2,-1 z m -5,-66 v 1 h 1 z m 0,-8 1,1 h -1 z m 7,79 1,1 h -1 z m -6,-77 h 2 l 1,1 h -2 z m 2,-2 h 1 v 1 h -2 z m 0,9 v 1 h 1 z m 17,178 v 1 h 1 v -1 z m -15,-190 h 1 v 1 z m 2,11 h 1 z m 0,-7 h 1 v 1 h -1 z m 6,12 v 1 h 1 v -1 z m 2,-7 2,3 v 1 h -2 l 1,-1 v -1 l -2,1 z m 1,8 2,1 v -1 l -1,-1 z m 18,139 1,1 v -1 z m 5,-8 -2,5 h -1 v -1 l 1,-1 -1,-1 z m -10,-94 c 1,0 2,0 1,1 h -1 z m -1,-23 h 1 v 1 l -1,1 h -1 z m 0,5 h 2 l -2,1 z m 2,4 v 2 l -1,1 -1,-2 z m 0,8 h 1 v 1 h -1 z m 9,97 1,1 h -2 z m -7,-95 v 1 h -2 z m 2,21 h 1 v 1 h -2 z m 4,10 h 1 v 1 h -1 z m 22,44 h 2 z m 4,5 -1,1 h 1 z m 9,21 -1,1 h 1 z m -1,-34 -1,1 h 1 z m 0,-3 h 1 v 1 z m 88,-17 h 1 l 5,1 2,1 1,-1 v 1 l 1,-1 v 2 l 1,-1 h 1 l 2,1 v -1 l 10,5 c 3,2 6,3 6,5 3,-1 4,1 5,5 l 1,-1 3,2 -1,1 1,1 h -1 v 1 h 1 l 1,-1 c 0,3 1,4 2,5 l -1,1 2,1 c 0,2 -1,3 -2,3 v 1 c 0,2 -2,3 -3,5 v 1 l -2,1 -1,-1 h -1 v 1 l -2,-1 -1,2 -3,-2 h -1 c -1,0 -2,0 -3,-2 h -1 v -1 h 1 v -1 l -2,1 -1,-3 v -2 l -1,-2 h 1 l -1,-2 c -1,1 -2,0 -3,-1 l 1,-1 c -3,0 -4,0 -4,-2 h -2 l 1,-1 v -1 l -1,1 h -1 c -2,-2 -5,-3 -10,-3 h -2 l -3,-1 -5,2 h -3 l -1,1 h -1 v -2 l -1,1 v 1 h -4 v 1 h -1 l -1,-1 h -1 l -1,2 v 1 h -1 l -1,-1 -4,3 -1,-1 -2,6 v 3 l 2,-1 v 1 l -1,1 9,9 v -2 h 1 v 3 l 6,3 1,2 1,-1 h 1 v 1 l -1,1 10,6 1,-1 h 1 c 1,2 4,3 10,4 1,1 3,3 8,4 l 6,3 2,2 v -1 h 1 l 2,3 1,-1 1,1 6,3 3,3 3,2 7,8 v 2 l 1,2 1,-1 h 1 l 1,3 h -1 l 3,6 -1,1 c 1,-1 2,1 2,3 v 3 h 2 l -1,1 1,1 h -1 l 1,2 -1,2 1,4 h -1 v 1 l 1,2 h -1 l -1,2 v 2 l -1,4 h -1 v 1 c -2,5 -5,9 -10,14 v 1 l -2,-1 -3,3 -1,1 v -1 2 l -1,-1 -3,1 h -1 l -4,1 1,1 -2,-1 v 1 l -1,1 v -2 1 h -1 l -2,-1 -3,1 h -3 v 1 l -1,-1 h -6 l -2,1 v -1 h -2 v 1 l -4,-3 -1,1 h -1 c 0,-1 -4,-2 -10,-2 v -2 l -1,1 c -2,-2 -4,-2 -6,-2 v -2 l -5,-4 v -1 l 1,1 v -1 h -2 l -1,1 v -3 l -3,-3 h -2 l 1,-2 h -1 v -4 h -1 l -1,1 -1,-2 h -1 l 1,-5 -1,1 v -2 h -1 l 1,-1 -1,-2 1,-1 -1,1 v -1 l 1,-3 v -3 h -1 l 3,-2 -1,-1 h 1 l -1,-1 h 2 l -1,-3 7,-6 1,-1 h 1 l 3,1 -2,1 v 1 h 1 l 2,-2 c 2,2 3,3 3,5 h -1 2 v 1 l -1,1 2,1 2,2 v -1 3 h 1 v 1 l 1,3 v 1 c 1,0 2,1 2,3 v 1 c 0,1 1,2 3,2 h -1 v 1 l -1,2 h 2 v -1 h 1 l 1,2 -1,1 5,2 1,2 h 2 l 3,2 2,-1 1,1 h 4 l 1,-1 4,2 v -1 h 1 l 1,-1 1,1 c 7,-2 11,-5 11,-9 l 2,-4 v -1 l 1,-1 -1,-4 h 1 l -1,-3 v -3 l -4,-7 -5,-5 c -1,0 -3,-1 -5,-4 l -7,-5 h -1 v 1 l -10,-5 h -2 l -5,-1 -2,-2 h -3 l -1,-1 -1,1 -1,-2 -1,1 -3,-2 h -1 l -6,-3 -1,1 -9,-6 h -1 l -3,-2 v -1 l -5,-7 -2,-2 -1,-1 h 1 v -2 l -1,1 1,-1 h -2 v -1 l 1,-1 h -2 v -1 l -1,-2 v -1 l -1,-5 v -1 l -1,-1 v -1 l 1,-3 -2,-2 3,-3 -1,-1 1,-4 h 1 v -1 h -1 v -1 l 3,-1 v -1 l -2,-1 h 2 l 2,-4 7,-5 h 2 l 6,-2 -1,1 1,-1 v -1 h 3 v -2 h 1 l 1,1 h 1 v -1 h 3 l 5,-1 h 10 z m -32,102 h 1 l -1,1 z m 13,37 h 1 v 1 h -1 z m 1,2 v 1 z m 34,-59 h 1 z m 13,-45 1,1 v -2 z m 28,82 1,1 h -1 z m 3,-8 h 1 z"
         id="path1199" />
      <path
         fill="#5151a8"
         d="m 1123,325 3,2 h -1 c -2,0 -3,-1 -3,-2 z m 0,7 1,1 -1,1 z m 0,-5 v 1 z m 5,16 -3,3 h -1 c 1,-2 2,-3 4,-3 z m -6,-27 h 1 v 1 z m 1,2 h 1 v 1 l -1,1 -1,-1 z m 20,-20 h 1 v 1 -1 l 2,1 v 2 l 1,1 h 1 l 1,-3 5,3 -1,2 -1,-1 h -1 v 1 h 1 v -1 l 3,5 4,2 h 3 v 1 h 3 l 1,1 2,-1 2,1 3,-1 v 1 -2 l 3,3 v -2 h 1 v 1 l 5,-3 v 1 h 1 l -1,-1 h 1 l 1,1 1,-1 1,1 1,-1 1,2 4,-2 1,1 1,-1 2,1 h 1 l 3,-1 2,1 h 2 v -1 h 2 l -1,1 c 4,1 6,2 6,4 h 1 l 1,-2 2,4 v -1 h 1 l 1,2 -1,3 1,6 -3,6 v 1 l -4,3 -2,1 -2,-1 2,1 v 1 h -1 l -2,-1 -3,2 h -1 l -2,-1 v 1 h -7 v -1 2 l -3,-1 -2,1 v -1 l -1,1 v -1 l -3,2 -1,-2 h -1 v 3 l -1,-1 v 1 h -2 l -1,-1 -1,2 -2,-2 -4,3 -1,1 v -1 l -4,2 -2,-1 -4,1 v 1 l 1,-1 v 1 l -1,1 h 2 l -1,4 1,2 h -1 l -1,2 h 1 l 1,-1 v 3 l -2,1 3,3 v 3 l -2,2 v 1 h 2 c -1,2 -2,2 -3,2 l 1,1 h 1 v 3 h -1 v -1 3 l 1,3 -1,1 h 1 v 1 h -2 v 1 l 3,1 -1,1 v -1 l -1,2 v 1 l -1,1 1,3 v 4 l 1,1 c 4,0 6,-1 7,-2 l 2,1 17,-3 h 1 l 14,-2 h 2 l 2,1 c 0,-1 1,-2 4,-2 h 1 v 1 l 1,-1 1,1 h -1 c 2,1 3,3 4,6 v 3 l -3,6 v 1 l -1,-1 c 0,2 -2,2 -4,2 h -5 a 148,148 0 0 1 -13,1 v -1 l -1,1 -2,-1 -1,2 -1,-1 h -5 l -2,1 -1,1 -1,-1 -2,1 h -1 l -1,1 v -1 l -8,3 1,2 v 1 h -2 l 2,1 v 1 l -1,1 1,1 -1,2 v 1 l 1,-1 1,2 -1,2 1,3 h 1 v 2 l 1,1 v 1 l -1,-1 v 2 l 1,2 -1,1 c 2,0 3,1 3,3 l -1,4 2,1 1,-3 -1,-1 h 1 v 2 h 2 l -2,2 v 1 h 1 v 1 l -3,1 1,1 h 2 l 2,-3 -3,4 1,3 1,-1 v -1 l 2,-2 1,1 v 1 h -2 l 2,1 h 1 v 2 l -1,-1 v 2 h 1 l -1,1 1,1 h 1 v -1 h -1 v -1 h 1 l 1,1 v 1 l 1,2 v 1 h -1 v -1 h -1 l -1,-1 v 1 l 1,3 -1,-1 -1,1 3,1 v 2 l 2,2 -1,1 h 2 l -1,3 1,1 c -1,0 -2,2 -2,6 l -6,4 -1,2 -2,-1 v 2 h 1 -1 l -2,-1 1,-2 -3,2 -1,-1 1,-1 v -1 l -3,-2 v 1 l 1,1 -1,1 h -1 l 1,-3 c -2,0 -3,-1 -4,-3 1,0 2,0 2,-2 h -3 l 1,-2 v -2 l 1,-1 h -2 v -1 l 1,-2 -1,-1 v -4 l -2,-4 h -1 l -1,-7 h -1 l 1,-1 v -2 l -1,1 h -1 v -1 l 1,-1 -2,-5 1,-1 h -2 l 1,-1 -2,-1 2,-2 -2,-1 1,-1 -2,-2 1,-1 -1,-3 1,-1 -3,-4 h -2 c -2,0 -5,-3 -9,-9 v -3 c 0,-2 1,-3 2,-3 h -1 v -2 c 2,0 4,-1 5,-5 h -1 l 1,-1 -1,-1 1,-1 -2,-2 -1,-1 1,-3 -1,-2 1,-1 -1,-2 h -2 v 1 h -1 l 1,-3 v -7 l -2,-2 v -1 h 2 l -1,-1 v 1 -1 l 1,-1 v -1 l -2,-1 h -1 l 1,-1 c 0,-2 -1,-4 -3,-5 l -1,1 1,-1 2,-1 -1,-1 1,-1 v -1 l -1,1 h -1 l 1,-2 h -1 l 1,-4 h -2 l 1,1 v 1 h -1 l -2,-2 2,-1 v 1 -1 l -1,-4 h -1 v 1 l -1,-2 h -1 l -1,-1 h 3 v 1 h 1 l -1,-3 1,-1 v 1 h 2 l -1,-3 h -1 l -1,-1 -1,-3 h -1 v -3 h -1 v 1 h -1 l -1,-1 2,-1 v -2 l 1,-1 v -1 l -1,-2 h 1 l -1,-1 1,-2 v -3 h -3 v -1 h 1 l 3,-1 v -1 l -1,1 v -1 h 1 l -2,-6 h 1 l 1,-1 h 1 c 0,-1 1,-2 3,-1 v -1 l -2,-1 v -1 l -3,-4 v -1 h 1 l 1,1 1,-1 2,3 1,-1 1,1 v -2 h -1 v -1 l 1,1 v -2 l -1,1 -2,-1 1,-2 h -1 v -1 l 2,-2 h 1 l -1,1 h 2 v 1 l -2,2 1,1 3,-2 v -1 h 1 l 1,-2 h 1 v 1 z m -18,42 2,1 v 1 h -1 l -1,-1 z m 1,12 h 1 v 1 z m 0,-19 v 2 h 1 l 1,-3 z m 1,4 v 1 l 1,-1 z m 0,-2 v 2 h 1 v -2 z m 3,30 h 1 z m -3,-42 1,1 v -1 z m 0,-8 v 1 h 1 v -1 z m 3,42 h 1 v 1 h -1 z m 1,3 h 1 v 1 h -2 v -1 z m -4,-51 1,1 -1,1 -1,-1 z m 3,38 1,1 v -1 z m -3,-36 1,1 h -1 z m 6,61 h 1 v 1 z m -5,-58 v 1 h 1 v -1 z m 0,-13 v 1 z m 5,62 v 1 h 1 v -1 z m -3,-56 v 1 z m -1,-11 1,1 v 1 l -1,-1 z m 8,88 2,1 v -1 z m 0,-2 v 1 h 1 v -1 z m -6,-73 1,1 v -1 z m 0,-13 h 1 v 1 h -1 z m 1,4 v 1 z m 1,-9 h 1 v 1 h -1 z m 2,13 1,1 -1,1 h 2 v -2 z m 0,-8 2,2 v 1 l -2,-1 1,-1 h -1 z m 0,-3 h 1 l -1,1 z m 2,3 h 1 z m 2,5 -1,1 h 1 l 1,1 v -2 z m 0,-12 v 1 h -2 z m 0,5 1,1 h -2 z m 3,7 -1,1 v 1 l 2,-1 z m 13,167 v 1 z m -15,-177 h 1 v 2 h -1 z m 0,-3 h 1 v 1 h -1 z m 1,9 h 1 v 1 z m 0,-3 h 1 l 1,1 -2,1 z m 17,177 v 1 h -1 z m -16,-181 h 1 v 1 h -1 z m 2,13 v 1 h 1 v -1 z m 1,-8 2,1 -1,1 -2,-1 z m 14,178 1,2 -1,-1 z m -15,-180 h 1 v 1 h -1 z m -1,-6 h 1 v 1 z m 18,194 v 1 z m 1,-4 v 2 h -1 l -1,-2 z m -16,-178 h 3 v 1 l -1,1 h -1 z m 1,-5 1,1 z m 0,-5 h 1 l -1,1 z m 2,14 1,1 v -1 z m 1,-9 v 1 h -1 z m 1,3 h 1 v 1 h -1 z m -1,-6 h 1 v 1 h -1 z m 1,8 h 1 v 1 h -1 z m 7,49 v 1 h 1 v -1 z m 2,16 v 2 h 1 v -2 z m -1,-14 v 2 h 1 v -2 z m -3,-48 2,1 -1,2 1,2 -1,1 h -1 v -1 h 1 v -1 h -1 l 1,-1 -1,-1 h 1 l -2,-2 z m 0,9 v 1 h 1 v -1 z m 5,51 -1,2 h 1 z m -6,-72 v 1 z m 7,78 1,1 z m 6,67 2,1 v 1 h -1 z m 5,48 h 1 v 1 h -1 z m -3,-55 v 1 h -1 c 0,-1 0,-2 1,-1 z m -7,-82 2,1 c -1,0 -2,0 -3,2 v -2 z m 3,31 v 2 l -1,-1 z m -7,-70 h 1 v 1 h -1 z m 0,-8 h 1 v 1 z m 12,138 h 1 v 1 h -1 z m -8,-128 1,1 h -2 z m 12,147 v 1 l 1,-1 z m 0,-5 v 1 z m 3,28 1,1 v 1 h -1 z m -14,-168 -1,1 h 1 z m 14,154 v 1 h 1 v -1 z m 1,4 v 1 l 1,1 z m 0,-1 v 1 h 1 v -1 z m 2,6 h 1 v 1 z m 0,-13 1,1 v 1 z m 1,9 h 1 l -1,1 z m 34,-72 h 1 v 1 h -1 z m -5,-61 h 1 z m 43,57 h 1 v 1 l 1,-1 h 1 l 1,1 1,-1 h 2 l 1,2 h 1 v 1 l 3,3 v -1 h 1 v 3 l 2,2 h 1 l -1,2 2,1 v 1 h -1 l 1,1 -1,1 h 1 v 1 h 2 l -1,1 2,2 h -1 v 1 l 1,1 v 3 l 1,1 h -1 l 1,1 -1,3 1,1 -1,1 1,1 v 1 l 1,4 c 0,2 1,3 2,3 v 1 l -1,2 1,4 v 4 l 1,1 v 4 h 2 l -1,1 1,1 v 1 l -1,1 2,2 -1,1 1,2 -1,2 v 2 l 2,-1 -1,2 2,1 -2,3 2,1 -1,3 2,2 -1,2 h 2 l -1,1 2,7 -1,2 2,1 v 4 l 1,-1 v 2 h -1 c 1,3 3,4 4,4 v 1 l -1,1 3,2 -2,2 1,1 1,-1 h 1 v 1 h -1 v 4 h 1 v -1 3 l 3,5 1,2 -1,1 v -1 1 l 1,1 v 3 h 4 c 3,0 5,-1 7,-3 v 1 h 1 l 4,2 h 1 l 5,7 v 2 c 0,2 0,3 -2,3 l 1,1 h -2 c -1,2 -3,4 -5,4 l -3,1 v -1 1 l -1,-1 -5,3 v 2 l -1,1 v 1 l 1,2 -2,2 v 1 l 1,1 v 1 h -1 l 1,2 v 1 l -1,-1 v 1 h 1 v 2 h -1 v -1 2 l -1,3 v 1 l -1,-1 -3,1 1,3 -2,2 v -1 h 1 v -1 h -1 v 1 h -2 v -1 l -1,-1 v 1 l -3,-2 -1,1 1,-2 1,1 v -2 l -1,1 -2,-2 v -1 l -2,-2 -1,1 c 0,-3 -1,-4 -3,-6 v 1 h -1 l -1,-1 h 1 c 0,-2 0,-4 -2,-5 h 1 l -2,-3 1,-1 -1,-1 -1,1 h -3 l -6,1 -2,1 -3,1 -2,-1 h -1 l -1,2 -3,-1 -2,1 v -1 l -1,1 v -1 l -1,1 -1,-1 -3,1 v 3 l 1,2 h -1 l -1,2 1,2 h -1 l 1,5 v 1 h -1 l -2,1 2,1 v 1 h -3 l -5,7 c -3,0 -4,1 -5,2 l -1,-1 -1,1 v -1 l -1,1 -1,-1 h -1 c -2,0 -2,-1 -2,-3 v -2 l -1,1 v -1 h 1 l -1,-3 -2,-4 1,1 h 1 l -2,-1 2,-3 -1,-3 2,-3 v -1 h -1 v 2 h -1 l -1,-2 v 1 h -5 l -1,1 c -3,-1 -4,-3 -4,-6 l -3,-2 1,-5 h -1 v -2 h 1 l -1,-1 h 2 l 1,-2 3,-4 h 1 v 1 l 4,-1 h 1 l 3,-1 v 1 l 4,-1 v 1 l 2,-1 -1,-1 1,-3 2,-1 v -1 l -1,-1 v -2 l 1,-1 h -1 v -1 l 3,-5 h -1 l 3,-10 -1,-1 v -1 l 1,-1 -1,-1 2,-2 -1,-1 1,-4 v -1 l 1,-1 -1,-1 1,-3 v -5 l 1,1 v -1 h -1 l 1,-1 -2,-3 h 1 l 1,-3 v -1 l 1,-1 v -1 l -1,-4 h 1 l -1,-1 h 1 v -4 l 1,-5 v -1 l 1,-4 -1,-1 1,-1 v -5 l -2,-3 h 2 l -1,-1 v -1 l 1,-2 -1,-2 v -2 l 1,-1 h -1 l -1,1 v -1 l 1,-3 c 1,0 2,-1 2,-3 l -1,-6 1,-2 h -2 l 2,-2 -2,-3 v -1 h 1 l 1,-1 v -1 h -1 l 1,1 h -1 v -2 l -1,-2 2,-1 h -1 l 1,-5 -1,-1 3,-1 -2,-1 h 1 v -1 l 1,-1 h -1 l 3,-1 1,1 c 0,-2 1,-3 4,-5 z m -34,157 v 1 h 1 v -1 z m 4,15 h 1 l -1,1 z m 4,5 v 2 z m 2,5 v 1 l -1,1 v -1 z m 6,-1 v 1 l -1,1 v -1 z m -4,-53 v 1 l -1,1 v -1 z m 4,-16 v 1 z m 10,55 v 1 l 1,-1 z m -6,-75 h 1 z m 1,-23 v 2 l -1,-1 z m 1,-7 h 1 v 1 h -1 z m 1,-38 h 1 z m 18,60 -1,3 v 3 l 1,1 h -1 v 1 h 1 l -1,2 v -1 l -1,1 1,3 h -2 1 l -1,6 1,1 -2,2 h 1 l -1,4 v 2 h -1 l 1,1 h -1 v 7 l -1,2 v 4 l -1,2 v 3 h -1 l 1,1 -1,1 1,2 h 4 l 6,-1 v 1 -1 h 1 v 1 l 3,-1 1,1 2,-1 -1,-1 1,1 h 1 v -4 l -1,1 1,-1 -2,-3 h 2 v -1 l -2,-2 1,-1 h -1 l -2,1 v -1 l 1,-1 v -6 l -1,-3 -1,-1 1,-2 c -1,0 -2,-1 -2,-4 h -1 1 v -1 h -1 v 1 -3 h 1 v -2 l -2,-2 h 1 l -2,-4 h 1 l -3,-8 h 1 z m -9,-89 1,1 h -1 z m 2,6 h 1 z m 5,-3 h 1 z m 0,-4 h 1 v 1 h -1 z m 20,175 h 1 z m 1,-5 h 1 z m -12,-156 1,1 h -1 z m 3,11 1,1 v -1 z m 14,148 h 1 v 1 h -1 z m 1,4 v 1 z m -11,-143 h 1 v 2 l -1,-1 z m 16,145 v 1 h -1 z m -11,-112 h 1 l 1,1 h -1 z m 2,10 v 1 z m 0,5 v 1 z m 0,-2 h 1 v 1 z m 1,4 h 1 v 1 h -1 z m 10,93 v 2 l 2,-1 z m -5,-79 v 1 h -1 v -1 z m 2,15 v 1 h 1 v -1 z m 5,7 h 1 v 1 h -1 z m 2,12 h 1 v -1 z m 24,7 1,3 h -1 l -1,-2 z m -4,-60 1,1 -1,1 z m 0,2 h 1 v 2 h -1 z m 2,6 v 1 h -1 z m 18,-30 1,1 h 3 v 3 l -1,-1 h -1 l 1,1 h 2 c 0,2 2,3 3,4 v -1 l 2,2 h 4 l -3,1 v 2 l 1,-1 3,2 v -1 l 4,2 -1,1 -1,-1 c 0,1 -1,2 -3,2 l 1,2 2,-2 1,3 v 1 h -2 l 2,2 v 1 h -1 v 1 l 1,1 v 1 l -1,1 3,3 v 1 h -1 l -1,1 3,6 -1,2 h -1 v -1 l -1,1 2,1 1,-1 v 1 l -1,1 c 0,2 0,3 2,3 l -1,1 -1,1 2,3 -1,1 v 2 h 2 l 1,1 -2,2 3,3 -1,3 2,-1 -1,1 -2,2 2,1 -1,2 2,3 -1,1 1,3 1,-1 v 2 l -1,2 1,1 -2,5 2,5 -1,1 1,6 h 1 l -1,1 2,3 -2,4 1,3 c 0,3 0,4 2,4 l -2,1 2,1 -2,4 v 1 l 2,3 -1,1 1,6 h -2 v 1 h 1 v 1 h -1 v 2 l 1,-1 2,5 -1,-2 h -1 l 1,4 -1,1 1,2 h -2 l 3,6 1,-1 v 1 l 4,-2 2,1 1,-1 h 1 l 8,-2 v 1 l 1,-1 1,1 h 1 l 4,-1 h 1 l 7,-1 c 0,-3 -1,-5 -2,-5 v 1 l -3,-3 h 1 v -3 h -1 v -2 l -1,-1 h -1 l -1,-1 h 1 l 1,-1 h -1 l -1,1 v -1 h 1 v -1 h -2 v -1 l 1,-1 h -2 l 2,-5 h -1 v -1 h 1 v -1 l -1,-3 1,-1 h 1 v 2 l 1,-1 -2,-2 h 3 l -1,-1 v -1 l 2,-1 1,2 h 1 v -1 h -1 l 4,-2 v 1 l -1,1 1,1 h 1 v -3 l 2,2 1,-2 v 1 h 2 l -1,1 1,1 h 3 l 2,3 2,-2 v 3 c 2,0 2,1 2,2 l 2,-1 1,2 h -2 v 2 l 1,1 1,1 c -2,0 -3,1 -3,2 h 1 l -1,2 v 8 l 2,5 -1,1 -1,1 4,7 3,3 1,-1 6,6 3,6 -1,3 v 1 l -5,5 -4,1 -1,-1 c -3,-1 -5,-2 -4,-3 h -4 l -6,-3 -1,1 -3,-2 -2,1 v -1 l -1,1 -1,-1 h -5 l -2,-1 v 1 l -1,-1 h -5 l -9,3 v -1 l -15,9 -4,3 v -1 c 0,2 -1,2 -3,2 v 1 c -4,4 -7,6 -9,6 l -4,-3 -1,1 -1,-3 c -1,0 -2,0 -2,2 l -1,-2 2,-1 1,-1 -2,-1 -1,1 h -1 l -2,-4 1,-1 -1,-3 h 1 l -1,-1 v -1 h 1 v -1 l 3,-5 h -1 l -1,2 v -1 l 1,-2 1,1 c 2,-2 3,-4 4,-3 v -2 l 2,-2 1,1 2,-3 1,-9 v -2 h 1 l -1,-5 h 1 l -1,-3 1,-1 v -2 h -1 l 1,-2 -1,-2 h 2 l -2,-3 1,-3 -2,-6 1,-1 -2,-1 1,-1 -1,-2 1,-1 c -1,-5 -2,-7 -3,-7 h -1 l 2,-5 v -1 1 h -1 l -1,-3 1,-2 h -2 c 1,-1 0,-2 -1,-2 l -1,-1 1,-1 v -4 c 0,1 0,0 0,0 v -3 h -1 l -1,1 h -1 v -4 h 1 v -1 l -1,-6 -2,1 1,-2 -3,-2 1,-1 -2,-4 -2,2 v -3 l 2,1 -1,-2 h 2 v 2 l 1,-1 -4,-4 -2,-3 1,-1 -4,-4 h -1 v -1 h 2 l -1,-2 1,-2 1,1 v 1 l 1,-1 -1,-1 h -2 l -1,-4 h -1 v 1 l -3,-2 1,-2 v -2 h 1 l -1,1 h 1 l 1,-1 -1,-1 h -1 v -2 h 1 l -2,-1 v -1 l 1,-1 v 1 l -1,1 h 3 l -3,-3 v -1 h 1 v -1 h -1 l -1,1 h -1 v -2 h 2 l -3,-4 1,-1 h 1 -2 l -1,-2 1,1 v -1 h -1 v -3 h 1 l 1,3 2,-1 v -1 h -1 c -1,-3 -2,-5 -5,-5 l 2,-1 v 1 l 1,-1 2,2 1,-1 -1,-1 1,-1 v -1 h -3 v -1 h -1 v -1 l 1,-2 2,1 c 0,2 1,3 2,3 h 2 v -1 h -2 l 1,-2 2,2 -1,-4 2,1 2,-4 1,1 h 3 l 1,1 v -1 l -1,-1 1,-1 1,1 z m -16,36 v 1 h -1 z m 2,7 2,1 v 1 l -1,-1 z m 0,-3 h 1 v -1 z m 3,6 -1,1 -1,-1 z m 10,132 h 1 v 2 z m -14,-179 h 1 v 1 h -1 z m 0,2 h 1 l 2,2 h -2 l -1,-1 z m 4,36 v 1 z m -2,-43 v 1 l -1,1 h -1 z m 3,59 h 1 v 1 h -1 z m -2,-43 h 1 v -1 z m 4,40 v 1 z m -4,-51 1,1 v 1 l -1,-1 z m 5,50 1,1 v -2 z m -4,-53 1,1 h -1 l -1,-1 z m 5,59 v 1 h 1 v -1 z m 13,130 h 1 l -1,1 -1,-1 z m -16,-187 1,1 -1,1 1,1 h -1 l -1,-1 v -1 z m 7,72 1,1 h -2 z m -5,-66 -1,1 v 1 l 2,-1 z m -1,-7 h 2 v 1 z m 7,77 1,1 h -1 z m -6,-76 h 2 l 1,2 -2,-1 z m 3,-2 v 1 h -2 z m -1,10 h 1 z m 17,174 v 1 l 1,1 v -2 z m -15,-187 h 1 v 1 z m 3,11 v 1 h 1 v -1 z m -1,-7 h 1 v 1 h -1 z m 6,12 v 1 h 1 z m 2,-7 2,3 v 2 h -1 l -1,-1 1,-1 h -2 z m 1,8 1,1 v -2 z m 18,137 1,1 v -1 z m 4,-8 v 1 l -2,5 -1,-1 1,-1 v -2 z m -9,-93 1,2 h -1 z m -2,-22 h 1 v 1 l -1,1 z m 0,5 h 2 l -2,1 z m 2,4 v 2 l -1,1 v -2 z m 0,8 h 1 v 1 h -1 z m 9,95 v 2 l -1,-1 z m -7,-93 v 1 h -1 z m 2,20 h 1 l -1,2 -1,-1 z m 4,11 h 1 z m 21,42 1,1 h -1 z m 3,6 v 1 h 1 v -1 z m 9,20 v 1 l 1,-1 z m -1,-33 v 1 z m 0,-3 h 1 z m 26,-21 h 1 l -1,1 z m 0,2 h 1 v 1 h -1 z m 2,6 v 1 l -1,-1 z m 18,-31 1,1 v 1 h 3 v 2 h -1 l -1,-1 1,1 2,1 3,3 v -1 l 2,2 h 4 l -3,1 v 2 l 1,-1 3,3 v -1 l 4,1 -1,1 -1,-1 c 0,1 -1,2 -3,2 l 1,2 2,-1 1,2 v 1 h -2 l 2,2 v 1 h -1 v 1 l 1,1 v 1 l -1,1 3,3 v 1 h -1 l -1,1 3,6 -1,2 h -1 v -1 l -1,1 2,1 h 1 v 1 l -1,1 c 0,2 0,2 2,3 l -1,1 h -1 l 2,4 -1,1 v 1 h 2 l 1,1 -1,1 -1,1 2,3 -1,3 2,-1 v 1 l -2,2 v 1 h 2 l -2,2 c 2,1 3,2 3,4 l -1,1 1,3 v -1 h 1 v 1 l -1,3 h 1 l -2,5 1,6 1,6 v 1 l 2,4 -2,3 1,4 h -1 c 0,2 1,3 2,3 l -1,1 -1,1 h 2 l -1,4 v 2 l 1,2 -1,1 2,6 -2,1 h 1 v 2 h -1 l -1,1 h 1 l 3,4 -1,1 -1,-2 h -1 l 1,3 v 3 l -2,1 3,5 h 1 l 4,-2 2,1 1,-1 1,1 c 3,-2 6,-2 8,-2 l 1,-1 1,1 h 1 l 4,-1 1,1 7,-1 c 0,-4 -1,-5 -2,-6 v 1 l -3,-2 v -1 h 1 v -3 h -1 l 1,-1 -1,-1 h -2 v -1 h 1 v -1 h -2 v -1 h 1 l -2,-1 1,-1 h -2 l 3,-6 -1,1 -1,-2 h 2 l -2,-3 2,-1 h 1 l -1,1 h 1 v -1 l -1,-1 v -1 h 3 l -1,-1 2,-1 1,1 h 1 v -1 h -1 l 4,-1 v 1 h -1 l 1,1 h 1 v -2 l 2,1 1,-1 h 2 l -1,2 1,1 3,-1 c 0,1 0,2 2,3 l 2,-1 v 2 c 2,0 2,1 2,3 l 2,-1 1,2 -1,-1 -1,1 v 2 l 1,1 v -1 l 1,1 -4,2 2,1 -1,2 v 7 l 2,6 -2,1 v 1 l 4,6 3,3 h 1 l 6,6 3,5 -1,3 v 1 l -5,5 -4,1 h -1 c -3,-2 -5,-3 -4,-4 l -2,1 v -1 h -2 l -6,-2 h -1 l -3,-1 h -4 l -1,-1 -4,1 -2,-1 -1,-1 -2,1 v -1 l -3,1 v -1 l -9,3 v -1 l -15,9 -3,4 -1,-1 -3,1 1,1 v 1 l -10,5 -3,-2 h -2 l -1,-3 -2,2 -1,-1 c 0,-1 1,-2 3,-2 v -1 h -3 l -3,-3 1,-2 -1,-3 h 1 v -1 h 1 l -1,-1 3,-5 h -1 l -1,1 1,-2 h 1 l 4,-3 v -2 l 3,-2 v 1 l 3,-3 v -9 h 1 l -1,-1 v -1 l 1,1 -1,-5 v -1 h 1 v -5 h 1 -2 l 1,-3 v -1 l 1,-1 -2,-3 1,-2 v -1 c -1,-3 -2,-4 -1,-6 l -2,-1 2,-2 -2,-1 1,-1 -2,-8 -2,1 v -1 l 3,-5 h -1 v 1 h -1 l -1,-4 1,-1 h -1 c 0,-2 0,-2 -2,-2 l -1,-2 2,-1 -1,-3 1,-1 -1,-3 h -1 v 1 h -1 v -4 h 1 c -1,0 -2,-2 -2,-6 h -1 v -2 l -3,-2 1,-1 -2,-3 -2,1 v -2 h 2 v -1 l 1,-1 v 2 h 1 v -1 l -3,-4 -3,-3 1,-1 -3,-3 v -1 l -2,1 1,-2 1,1 v -1 l -1,-1 v -1 l 1,-1 h 1 v 1 l 1,-1 -1,-1 h -2 l -1,-4 -1,1 -3,-2 1,-2 v -1 h 1 v 1 l 1,-1 v -2 h -1 l -1,-1 h 1 v -1 l -2,-1 v -1 l 1,-1 v 2 l 2,1 c 0,-3 -2,-4 -3,-4 v -1 h 1 -3 v -1 l 2,-1 -2,-3 v -1 h 1 v -1 h -1 l -1,1 -1,-2 h 1 l 1,-1 h -2 l 1,-2 -1,-1 h 1 l 1,4 2,-2 v -1 l -1,1 c -1,-3 -2,-5 -4,-5 0,-1 0,-2 1,-1 l 2,-1 1,2 2,-1 -1,-1 v -1 h -3 l 1,-2 h -2 1 v -2 h 3 c -1,2 0,4 1,4 h 2 v -1 l -1,-1 v -1 l 2,1 -1,-3 v -1 l 3,1 1,-3 1,1 v -1 l 1,1 h 2 v -1 l 1,1 h 1 l -2,-2 h 2 l 1,1 z m -16,36 v 2 l -1,-1 z m 2,8 h 2 v 1 h -1 z m 0,-4 h 1 v -1 z m 3,6 v 1 l -1,1 -1,-2 z m 10,133 h 1 v 1 z m -14,-180 h 1 v 1 h -1 z m 0,3 h 1 l 2,2 h -2 z m 4,35 v 2 l 1,-2 z m -2,-42 -1,2 -1,-1 c 1,-1 1,-2 2,-1 z m 3,59 h 1 z m -2,-43 h 1 v -1 z m 4,39 v 1 z m -4,-50 h 1 v 1 h -1 z m 5,50 h 1 v -1 z m -4,-54 1,1 -1,1 -1,-2 z m 5,60 h 1 z m 13,129 h 1 v 1 l -1,1 -1,-2 z m -16,-186 1,1 h -1 l 1,2 h -1 l -1,-2 z m 7,71 1,1 h -2 z m -5,-65 -1,1 h 2 z m -1,-8 h 2 v 1 h -2 z m 7,77 1,2 -1,-1 z m -6,-76 2,1 1,1 h -2 z m 3,-2 v 1 h -2 z m -1,10 v 1 h 1 v -1 z m 17,175 v 1 h 1 v -1 z m -15,-188 1,1 v 1 z m 3,12 h 1 z m -1,-7 h 1 v 1 h -1 z m 6,12 h 1 z m 2,-7 2,2 v 2 h -1 l -1,-1 1,-1 -2,1 z m 1,7 v 1 h 1 v -2 z m 18,137 v 1 h 1 v -1 z m 4,-7 -2,5 h -1 v -1 l 1,-1 v -1 z m -9,-93 1,1 h -2 z m -2,-23 1,1 -1,2 z m 0,5 h 2 l -2,1 z m 2,5 v 1 l -1,1 v -2 z m 0,7 h 1 v 1 h -1 z m 9,96 v 1 h -1 z m -7,-94 v 1 h -1 z m 2,21 h 1 v 1 h -2 z m 4,10 h 1 v 1 z m 21,43 h 1 z m 3,5 v 1 h 1 v -1 z m 9,20 v 1 l 1,-1 z m -1,-33 v 1 z m 0,-3 h 1 v 1 h -1 z m 83,-15 h 1 l 5,1 2,1 h 2 v 1 l 1,-1 h 1 l 1,1 1,-1 9,5 6,4 c 2,0 4,2 4,6 l 1,-1 3,2 v 1 l 1,1 h -1 v 1 h 1 v -1 l 2,5 h -1 l 2,1 c 0,2 -1,3 -2,3 v 1 c 0,2 -1,4 -3,5 v 2 h -2 l -1,-1 h -1 l 1,2 h -1 l -1,-1 -1,1 c -2,0 -3,-1 -3,-2 l -1,1 -3,-2 h -1 v -1 h 1 v -1 l -2,1 -1,-3 h 1 -1 l 1,-2 h -1 l -1,-2 h 1 v -2 c -2,0 -3,0 -4,-2 h 1 l -4,-2 h -1 v -2 l -1,1 v -1 l -1,1 c -1,-2 -5,-3 -9,-3 v -1 l -2,1 -3,-1 c -3,0 -5,1 -5,2 l -1,-1 h -1 l -1,1 h -1 v -1 l -1,1 v 1 h -7 l -1,2 1,1 h -1 l -1,-1 -4,3 v -1 l -3,6 1,1 -1,2 1,-1 h 1 v 1 h -1 v 1 l 9,9 v -2 h 1 v 2 l 5,3 2,2 h 1 v 1 l 9,6 h 1 l 10,4 7,4 7,2 2,2 -1,-1 h 1 l 2,3 1,-1 1,1 v 1 c 1,-1 3,0 6,3 l 3,2 2,2 8,8 -1,1 v 1 c 1,0 2,0 2,2 l 1,-1 1,3 h -1 l 3,6 1,4 v 3 h 2 l -1,1 1,1 h -1 l 2,2 c -2,0 -2,1 -2,2 l 2,4 h -1 v 3 h -1 l -1,2 1,2 -2,4 h -1 l 1,1 c -2,4 -5,9 -10,14 h -1 l -3,3 h -1 v -1 h -1 v 2 h -1 l -2,1 v -1 l -1,1 v -1 l -4,1 1,1 v 1 l -2,-1 1,1 h -2 v -1 1 h -1 l -2,-1 -3,1 -2,-1 -1,2 -1,-2 -1,1 v -1 l -3,1 v -1 l -1,1 h -2 v -1 h -2 v 2 l -4,-3 h -1 l -1,1 -9,-3 v -1 l -1,1 -6,-3 1,-1 -6,-5 h 2 -3 v -2 l -3,-3 h -1 l -1,-1 1,-1 h -1 v -4 h -1 l -1,1 -1,-2 h -1 l 1,-5 -1,1 v -2 h -1 l 1,-1 -1,-2 1,-1 h -1 l 2,-3 -1,-3 h -1 l 3,-2 -1,-1 h 1 l -1,-1 h 1 v -3 l 6,-6 1,-1 h 2 l 2,1 -2,1 v 1 h 1 l 2,-2 3,4 -1,1 h 2 v 1 l -1,1 2,1 2,2 v -1 3 h 1 v 1 l 1,3 v 1 -1 l 2,4 c 0,2 1,2 2,2 v 2 l -1,1 h 2 v -1 h 1 v 2 l -1,1 5,3 v -1 l 2,2 1,-1 3,3 1,-1 1,1 h 5 l 1,-1 3,2 v -1 h 1 l 1,-1 1,1 c 7,-3 11,-5 11,-9 l 1,-4 v -1 l 2,-1 -2,-4 h 2 l -2,-3 v -1 l 1,-1 -5,-7 -4,-5 c -2,0 -3,-2 -6,-4 l -6,-5 h -1 l -10,-4 v -1 l -1,1 c 0,-1 -2,-2 -5,-2 l -2,-1 h -2 l -1,-1 -1,1 h -1 l -1,-2 h -1 l -3,-1 -6,-3 -1,1 -8,-6 h -1 l -4,-2 1,-1 -5,-7 c -1,-2 -2,-2 -3,-2 v -1 h 1 v -2 l -1,1 v -1 h -1 v -2 h -1 v -1 l -1,-2 v -1 l -1,-4 v -3 h -1 v -1 l 1,-2 -1,-3 c 0,-1 0,-2 2,-3 l -1,-1 1,-4 1,1 v -2 h -1 l 2,-2 -1,-1 1,-1 v 1 l 3,-4 7,-5 h 1 l 5,-3 v 1 h 1 v -2 l 2,1 v -2 h 2 v 1 h 1 v -1 h 3 l 5,-1 h 9 c 1,1 2,0 2,-1 z m -30,100 h 1 l -1,1 z m 12,37 h 1 l 1,1 h -1 z m 1,2 h 1 v 1 h -1 z m 32,-58 h 1 z m 13,-45 v 1 l 1,1 v -2 z m 27,82 v 1 z m 3,-8 z"
         id="path1201" />
    </g>
  </g>
</svg>
