<?xml version="1.0" encoding="UTF-8" standalone="no"?>
<!-- Created with Inkscape (http://www.inkscape.org/) -->

<svg
   width="159.98mm"
   height="38.897549mm"
   viewBox="0 0 159.98 38.897549"
   version="1.1"
   id="svg38174"
   inkscape:version="1.1.1 (3bf5ae0d25, 2021-09-20)"
   sodipodi:docname="festival-banner.svg"
   xmlns:inkscape="http://www.inkscape.org/namespaces/inkscape"
   xmlns:sodipodi="http://sodipodi.sourceforge.net/DTD/sodipodi-0.dtd"
   xmlns="http://www.w3.org/2000/svg"
   xmlns:svg="http://www.w3.org/2000/svg">
  <sodipodi:namedview
     id="namedview38176"
     pagecolor="#ffffff"
     bordercolor="#666666"
     borderopacity="1.0"
     inkscape:pageshadow="2"
     inkscape:pageopacity="0.0"
     inkscape:pagecheckerboard="0"
     inkscape:document-units="mm"
     showgrid="false"
     fit-margin-top="0"
     fit-margin-left="0"
     fit-margin-right="0"
     fit-margin-bottom="0"
     inkscape:zoom="1.5554293"
     inkscape:cx="310.20375"
     inkscape:cy="83.578212"
     inkscape:window-width="2560"
     inkscape:window-height="1573"
     inkscape:window-x="0"
     inkscape:window-y="-10"
     inkscape:window-maximized="1"
     inkscape:current-layer="path1111" />
  <defs
     id="defs38171">
    <rect
       x="646.24011"
       y="219.70514"
       width="420.76038"
       height="51.844727"
       id="rect22238" />
    <rect
       x="646.24011"
       y="219.70514"
       width="420.76038"
       height="51.844727"
       id="rect22238-3" />
  </defs>
  <g
     inkscape:label="Vrstva 1"
     inkscape:groupmode="layer"
     id="layer1"
     transform="translate(-36.63012,-163.53491)">
    <g
       id="g37209"
       transform="matrix(2.2350455,0,0,2.2350455,-381.62427,-166.29665)">
      <path
         style="display:inline;fill:#211e1e;fill-opacity:1;fill-rule:nonzero;stroke:none;stroke-width:0.255379"
         d="m 255.18984,164.97611 h -64.7211 v -13.64014 h 64.7211 v 13.64014"
         id="path872" />
      <path
         style="display:inline;fill:#98989a;fill-opacity:1;fill-rule:nonzero;stroke:none;stroke-width:0.268501"
         d="m 192.84094,162.97784 v -9.64361 h 59.9767 v 9.64361 h -59.9767"
         id="path874" />
      <path
         style="display:inline;fill:#bdf8f5;fill-opacity:1;fill-rule:nonzero;stroke:none;stroke-width:0.157839"
         d="m 254.38627,152.4988 c 0,0.13071 -0.10543,0.23676 -0.23614,0.23676 -0.13071,0 -0.23614,-0.10605 -0.23614,-0.23676 0,-0.13072 0.10543,-0.23615 0.23614,-0.23615 0.13071,0 0.23614,0.10543 0.23614,0.23615"
         id="path1314" />
      <path
         style="display:inline;fill:#3f3f3f;fill-opacity:1;fill-rule:nonzero;stroke:none;stroke-width:0.1578;stroke-miterlimit:4;stroke-dasharray:none"
         d="m 254.33884,152.19923 -0.20324,-0.20102 4.37375,-4.42557 0.20323,0.20102 -4.37374,4.42557"
         id="path1320"
         inkscape:transform-center-x="-17.955844"
         inkscape:transform-center-y="-18.694128" />
      <g
         aria-label="17th Sep, Brno"
         transform="matrix(0.14359211,0,0,0.14359211,103.08959,122.84118)"
         id="text22236"
         style="font-size:40px;letter-spacing:2.61658px;white-space:pre;fill:#faae38;stroke:#000000;stroke-width:1.95982">
        <g
           id="path1103">
          <path
             style="color:#000000;-inkscape-font-specification:'Coconut Days';stroke:none;-inkscape-stroke:none"
             d="m 663.24023,228.70871 v 32.48 h -12.28 l 1.08,-23.08 h -4.48 v -9.4 z"
             id="path1148" />
          <path
             style="color:#000000;-inkscape-font-specification:'Coconut Days';fill:#000000;stroke:none;-inkscape-stroke:none"
             d="m 646.58008,227.72852 v 11.35937 h 4.43164 l -1.07813,23.08008 h 14.28711 v -34.43945 h -0.98047 z m 1.96094,1.96093 h 13.71875 v 30.51953 h -10.27149 l 1.07813,-23.08007 h -4.52539 z"
             id="path1150" />
        </g>
        <g
           id="path1105">
          <path
             style="color:#000000;-inkscape-font-specification:'Coconut Days';stroke:none;-inkscape-stroke:none"
             d="m 690.85679,230.10871 -3.04,31 -11.32,0.64 3.92,-15.88 h -11.04 l -0.48,-15.76 z"
             id="path1154" />
          <path
             style="color:#000000;-inkscape-font-specification:'Coconut Days';fill:#000000;stroke:none;-inkscape-stroke:none"
             d="m 667.88672,229.12891 0.53906,17.71875 h 10.74024 l -3.93946,15.95507 13.48438,-0.76367 3.22656,-32.91015 h -1.08008 z m 2.02148,1.95898 h 19.86719 l -2.85156,29.08984 -9.15821,0.51758 3.90235,-15.80664 h -11.33985 z"
             id="path1156" />
        </g>
        <g
           id="path1107">
          <path
             style="color:#000000;-inkscape-font-specification:'Coconut Days';stroke:none;-inkscape-stroke:none"
             d="m 695.47334,228.78871 h 26.08 l -0.4,16.92 -7.28,0.12 v 16.4 h -11.12 l 1.36,-16.28 -8.24,0.08 z"
             id="path1160" />
          <path
             style="color:#000000;-inkscape-font-specification:'Coconut Days';fill:#000000;stroke:none;-inkscape-stroke:none"
             d="m 694.4707,227.80859 0.0234,1.00196 0.42188,18.20703 8.13085,-0.0801 -1.35937,16.27148 h 13.16602 v -16.41601 l 7.25781,-0.11914 0.44531,-18.86524 z m 2.00586,1.96094 h 24.07422 l -0.35547,14.97461 -7.30273,0.12109 v 16.38282 h -9.07422 l 1.36133,-16.28907 -8.34961,0.0801 z"
             id="path1162" />
        </g>
        <g
           id="path1109">
          <path
             style="color:#000000;-inkscape-font-specification:'Coconut Days';stroke:none;-inkscape-stroke:none"
             d="m 744.36988,227.90871 h 12.96 l -1.04,34.16 h -11.64 l -0.04,-7.96 h -8.36 v 7.52 l -9.96,0.24 -0.68,-33.56 h 10.88 l -0.16,18.64 h 8.24 z"
             id="path1166" />
          <path
             style="color:#000000;-inkscape-font-specification:'Coconut Days';fill:#000000;stroke:none;-inkscape-stroke:none"
             d="m 743.37891,226.92969 0.0117,0.99023 0.18946,18.04883 h -6.26172 l 0.16016,-18.64063 h -12.86915 l 0.72071,35.54297 11.90039,-0.28515 v -7.49805 h 6.4043 l 0.041,7.96094 h 13.56445 l 1.09961,-36.11914 z m 1.98046,1.95898 h 10.95899 l -0.97852,32.19922 H 745.625 l -0.041,-7.95898 h -10.31445 v 7.54296 l -8.01953,0.19336 -0.64063,-31.57617 h 8.89258 l -0.16015,18.63867 h 10.21875 z"
             id="path1168" />
        </g>
        <g
           id="path1111">
          <path
             style="color:#000000;-inkscape-font-specification:'Coconut Days';stroke:none;-inkscape-stroke:none"
             d="m 790.00292,237.18871 v 4.2 l 13.48,5.48 -0.64,15.08 h -22.16 v -12.84 l 12.16,0.8 -11.8,-6.16 -0.12,-15.24 h 22.28 l 0.28,10.32 z"
             id="path1172" />
          <path
             style="color:#000000;-inkscape-font-specification:'Coconut Days';fill:#000000;stroke:none;-inkscape-stroke:none"
             d="m 779.93555,227.5293 0.13281,16.8164 8.19922,4.28125 -8.56446,-0.56445 v 14.86523 h 24.07813 l 0.70898,-16.70703 -13.50781,-5.49218 v -2.4336 l 13.51172,1.64453 -0.33789,-12.41015 z m 1.97461,1.95898 H 802.25 l 0.22266,8.23047 -13.44922,-1.63672 v 1.10742 4.85938 l 13.45117,5.46679 -0.57031,13.45313 H 781.66211 V 250.1543 l 11.11719,0.73242 0.51757,-1.8457 -11.27929,-5.88868 z"
             id="path1174" />
        </g>
        <g
           id="path1113">
          <path
             style="color:#000000;-inkscape-font-specification:'Coconut Days';stroke:none;-inkscape-stroke:none"
             d="m 817.01943,252.62871 18.4,-1.12 v 10.36 h -27.48 l 0.96,-32.12 26.04,-1.2 -1,9.72 -16.92,-1.8 v 6 l 12.8,-1 v 8.68 l -12.8,-0.52 z"
             id="path1178" />
          <path
             style="color:#000000;-inkscape-font-specification:'Coconut Days';fill:#000000;stroke:none;-inkscape-stroke:none"
             d="m 836.03125,227.51758 -28.08398,1.29492 -1.01758,34.03516 h 29.46875 V 250.4668 l -5.59961,0.34179 v -10.39843 l -12.79883,1 v -3.85157 l 16.81445,1.78907 z m -2.18359,2.0625 -0.78321,7.61133 -17.02539,-1.8125 v 8.14843 l 12.80078,-1 v 6.60157 l -12.80078,-0.52149 v 5.0625 l 1.03906,-0.0625 17.36133,-1.05859 v 8.33984 h -25.49218 l 0.90429,-30.20312 z M 818,250.64844 l 9.23437,0.37695 -9.23437,0.5625 z"
             id="path1180" />
        </g>
        <g
           id="path1115">
          <path
             style="color:#000000;-inkscape-font-specification:'Coconut Days';stroke:none;-inkscape-stroke:none"
             d="m 840.55599,228.78871 25.68,-0.32 -1.2,11.84 q -0.24,2.24 -0.44,4.36 -0.2,2.12 -0.36,3.8 -0.16,1.68 -0.28,2.72 -0.08,1 -0.08,1.04 0,0.04 -0.52,0 -0.48,-0.04 -1.28,-0.12 -0.8,-0.12 -1.84,-0.24 -1.04,-0.12 -2.12,-0.28 -2.52,-0.32 -5.72,-0.8 l 0.4,11.2 h -12.24 z m 12.16,14.64 2.16,0.36 2.08,-9.48 -4.24,-0.2 z"
             id="path1184" />
          <path
             style="color:#000000;-inkscape-font-specification:'Coconut Days';fill:#000000;stroke:none;-inkscape-stroke:none"
             d="m 867.32227,227.47461 -27.7461,0.3457 v 0.96875 34.17969 h 14.23438 l -0.39453,-11.04688 c 1.63168,0.23848 3.22993,0.46773 4.57617,0.63868 0.72314,0.10692 1.433,0.20072 2.13086,0.28125 0.6848,0.079 1.28752,0.15846 1.80664,0.23632 l 0.0254,0.004 0.0234,0.002 c 0.53655,0.0537 0.96789,0.0937 1.29687,0.1211 h 0.002 0.004 c 0.18579,0.0143 0.32793,0.0234 0.46484,0.0234 0.0685,0 0.12739,0.003 0.2461,-0.0156 0.0593,-0.009 0.13123,-0.014 0.28711,-0.0859 0.0779,-0.036 0.18448,-0.0887 0.3125,-0.22656 0.064,-0.0689 0.18325,-0.27852 0.18359,-0.2793 3.4e-4,-7.8e-4 0.0801,-0.39174 0.0801,-0.39257 0,0.15665 8.1e-4,0.0336 0.004,-0.01 0.003,-0.0434 0.007,-0.1096 0.0137,-0.19531 0.0132,-0.17142 0.0339,-0.42305 0.0605,-0.75586 0.0805,-0.7002 0.1716,-1.59471 0.27735,-2.70508 0.1067,-1.12036 0.22797,-2.38722 0.36133,-3.80078 0.13292,-1.40897 0.27791,-2.85822 0.4375,-4.34766 v -0.004 z m -2.17188,1.98828 -1.08984,10.74609 0.002,-0.004 c -0.16042,1.49722 -0.30766,2.9534 -0.44141,4.37109 -0.13331,1.4131 -0.25469,2.6792 -0.36132,3.79883 -0.10629,1.11598 -0.19855,2.01826 -0.27735,2.70117 l -0.002,0.0176 -0.002,0.0176 c -0.003,0.042 -0.005,0.0563 -0.008,0.0957 -0.24538,-0.0225 -0.45887,-0.0412 -0.78906,-0.0742 h -0.008 c -0.53757,-0.08 -1.14187,-0.15932 -1.82617,-0.23828 -0.68244,-0.0787 -1.37787,-0.1702 -2.08789,-0.27539 l -0.01,-0.002 h -0.01 c -1.67067,-0.21215 -3.57161,-0.47774 -5.69921,-0.79688 l -1.16602,-0.17578 0.4043,11.36524 h -10.24414 v -31.25391 z m -13.41406,3.61914 v 11.17774 l 0.81836,0.13476 3.07812,0.51367 2.5293,-11.52343 z m 1.95898,2.05469 2.05469,0.0957 -1.63086,7.4375 -0.42383,-0.0703 z"
             id="path1186" />
        </g>
        <g
           id="path1117">
          <path
             style="color:#000000;-inkscape-font-specification:'Coconut Days';stroke:none;-inkscape-stroke:none"
             d="m 882.57254,251.42871 q -0.84,3.4 -1.52,6.12 -0.28,1.16 -0.56,2.28 -0.28,1.12 -0.52,2 -0.2,0.88 -0.36,1.44 -0.12,0.56 -0.12,0.6 -0.04,0.08 -0.8,0.08 -0.72,0.04 -1.64,0 l -2.4,-0.08 0.76,-4.12 -3.84,-0.2 0.56,-8.12 z"
             id="path1190" />
          <path
             style="color:#000000;-inkscape-font-specification:'Coconut Days';fill:#000000;stroke:none;-inkscape-stroke:none"
             d="m 871.21875,250.44922 -0.69141,10.02539 3.71875,0.19336 -0.76367,4.14258 3.52735,0.11718 c 0.61918,0.0269 1.17497,0.0263 1.68359,0 0.27052,0 0.48131,-0.004 0.67578,-0.0234 0.0972,-0.01 0.18763,-0.0196 0.31641,-0.0547 0.12878,-0.0351 0.39938,0.0255 0.68359,-0.54297 l 0.10352,-0.20703 v -0.15234 c 0.003,-0.0175 0.006,-0.0295 0.0117,-0.0566 0.0184,-0.0918 0.0464,-0.23168 0.0859,-0.41601 0.10707,-0.37963 0.22183,-0.83747 0.34766,-1.38867 l 0.01,-0.041 c 0.15954,-0.58621 0.33143,-1.24171 0.51563,-1.97851 0.18669,-0.74677 0.37392,-1.50621 0.56055,-2.2793 l 0.002,-0.008 c 0.45316,-1.81269 0.95812,-3.85076 1.51758,-6.11524 l 0.30078,-1.21484 h -1.25195 z m 1.82812,1.95898 h 8.27149 c -0.43164,1.74367 -0.85373,3.45008 -1.2168,4.90235 v 0.004 l -0.002,0.004 c -0.18606,0.77083 -0.37259,1.52943 -0.55859,2.27344 -0.18534,0.74134 -0.35599,1.40033 -0.51368,1.97851 l -0.006,0.0215 -0.004,0.0195 c -0.12783,0.56245 -0.24225,1.01331 -0.33985,1.35742 h -0.0117 l -0.0273,0.002 c -0.43885,0.0244 -0.95488,0.0236 -1.54297,-0.002 h -0.006 l -1.26757,-0.043 0.75585,-4.09766 -3.95898,-0.20507 z"
             id="path1192" />
        </g>
        <g
           id="path1119">
          <path
             style="color:#000000;-inkscape-font-specification:'Coconut Days';stroke:none;-inkscape-stroke:none"
             d="m 931.12561,245.14871 0.44,16.8 h -23.68 l -1.96,-33.6 24.92,0.32 -1.04,12.96 -7,2.6 z m -14.2,-5.44 2.28,-0.68 0.24,-6.04 h -2.52 z m 2.8,10.12 h -2.8 v 7.16 l 2.48,0.16 z"
             id="path1196" />
          <path
             style="color:#000000;-inkscape-font-specification:'Coconut Days';fill:#000000;stroke:none;-inkscape-stroke:none"
             d="m 904.88672,227.35547 2.07422,35.57226 h 25.61133 l -0.49024,-18.6582 -0.84961,-0.0957 -4.21094,-0.46485 3.71094,-1.3789 1.17383,-14.62696 z m 2.07812,1.98633 22.82032,0.29297 -0.90625,11.29296 -6.41407,2.38282 0.23243,1.89257 7.4707,0.82618 0.39258,14.93945 h -21.75 z m 8.98047,2.66797 v 9.01367 l 1.25977,-0.375 2.95117,-0.88086 0.30859,-7.75781 z m 1.96094,1.95898 h 0.51953 l -0.17187,4.32031 -0.34766,0.10352 z m -1.96094,14.88086 v 9.05859 l 4.39649,0.28321 0.4082,-9.3418 h -1.02344 z m 1.96094,1.95898 h 0.79492 l -0.23242,5.29688 -0.5625,-0.0352 z"
             id="path1198" />
        </g>
        <g
           id="path1121">
          <path
             style="color:#000000;-inkscape-font-specification:'Coconut Days';stroke:none;-inkscape-stroke:none"
             d="m 954.38214,248.66871 5.8,13.36 -8.72,1.8 -5.16,-13.8 v 12.88 h -9.72 l -0.56,-34.84 h 23.48 l -0.76,18.6 z m -5.16,-13.72 -2.6,-0.56 v 7.6 l 2.6,-0.8 z"
             id="path1202" />
          <path
             style="color:#000000;-inkscape-font-specification:'Coconut Days';fill:#000000;stroke:none;-inkscape-stroke:none"
             d="m 935.02539,227.08789 0.5918,36.80078 h 11.66406 v -8.44336 l 3.55664,9.51367 10.72266,-2.21484 -5.89844,-13.58594 4.03516,-1.84961 0.82617,-20.2207 z m 1.99219,1.96094 h 21.46484 l -0.69531,16.98047 -4.68555,2.14843 0.38086,0.88086 5.32031,12.25391 -6.71679,1.38672 -4.86524,-13.01367 -1.89843,0.34375 v 11.90039 h -7.7754 z m 8.625,4.12695 v 10.14063 l 4.55859,-1.4043 v -7.75391 l -0.77344,-0.16797 z m 1.95898,2.42578 0.64063,0.13867 v 4.72461 l -0.64063,0.19727 z"
             id="path1204" />
        </g>
        <g
           id="path1123">
          <path
             style="color:#000000;-inkscape-font-specification:'Coconut Days';stroke:none;-inkscape-stroke:none"
             d="m 980.55866,228.94871 11.72,0.28 -1.96,33 -6.72,0.24 -8.68,-17.84 1.84,18.32 h -12.04 v -34.6 h 8.52 l 8.92,18.16 z"
             id="path1208" />
          <path
             style="color:#000000;-inkscape-font-specification:'Coconut Days';fill:#000000;stroke:none;-inkscape-stroke:none"
             d="m 963.73828,227.36914 v 36.55859 h 14.10352 l -1.39844,-13.92382 6.55273,13.46679 8.24805,-0.29492 2.07227,-34.90234 -13.83399,-0.33008 0.0996,1.09375 1.12109,12.28125 -6.85351,-13.94922 z m 1.96094,1.95898 h 6.92969 l 8.65039,17.61329 1.85547,-0.52149 -1.5,-16.46484 9.60546,0.23047 -1.84765,31.0957 -5.19141,0.18555 -8.40039,-17.26758 -1.85742,0.52734 1.73242,17.24219 h -9.97656 z"
             id="path1210" />
        </g>
        <g
           id="path1125">
          <path
             style="color:#000000;-inkscape-font-specification:'Coconut Days';stroke:none;-inkscape-stroke:none"
             d="m 1019.5352,229.66871 0.68,32.28 -24.12,0.36 1.76,-33.04 z m -9,9.08 h -3.76 l 0.2,14.4 h 3.56 z"
             id="path1214" />
          <path
             style="color:#000000;-inkscape-font-specification:'Coconut Days';fill:#000000;stroke:none;-inkscape-stroke:none"
             d="m 996.92773,228.27148 -1.86718,35.03321 26.15425,-0.39063 -0.7207,-34.20703 -0.9414,-0.0176 z m 1.85547,1.99414 19.791,0.36524 0.6406,30.35351 -22.08394,0.32813 z m 6.998,7.50391 0.2286,16.35938 h 5.5058 v -16.35938 h -0.9804 z m 1.9883,1.95899 h 1.7852 v 12.43945 h -1.6133 z"
             id="path1216" />
        </g>
      </g>
      <path
         style="display:inline;fill:#bdf8f5;fill-opacity:1;fill-rule:nonzero;stroke:none;stroke-width:0.157839"
         d="m 191.46093,152.19657 c 0,0.13071 0.10543,0.23676 0.23614,0.23676 0.13071,0 0.23614,-0.10605 0.23614,-0.23676 0,-0.13072 -0.10543,-0.23615 -0.23614,-0.23615 -0.13071,0 -0.23614,0.10543 -0.23614,0.23615"
         id="path1314-3" />
      <path
         style="display:inline;fill:#3f3f3f;fill-opacity:1;fill-rule:nonzero;stroke:none;stroke-width:0.1578;stroke-miterlimit:4;stroke-dasharray:none"
         d="m 191.50836,152.19923 0.20324,-0.20102 -4.37375,-4.42557 -0.20323,0.20102 4.37374,4.42557"
         id="path1320-6"
         inkscape:transform-center-x="17.955844"
         inkscape:transform-center-y="-18.694128" />
      <path
         style="display:inline;fill:#211e1e;fill-opacity:1;fill-rule:nonzero;stroke:none;stroke-width:0.255379"
         d="m 258.52371,190.93891 h -64.7211 v -13.64014 h 64.7211 v 13.64014"
         id="path872-6" />
      <path
         style="display:inline;fill:#98989a;fill-opacity:1;fill-rule:nonzero;stroke:none;stroke-width:0.268501"
         d="m 196.17481,188.94064 v -9.64361 h 59.9767 v 9.64361 h -59.9767"
         id="path874-7" />
      <path
         style="display:inline;fill:#bdf8f5;fill-opacity:1;fill-rule:nonzero;stroke:none;stroke-width:0.157839"
         d="m 257.72014,178.4616 c 0,0.13071 -0.10543,0.23676 -0.23614,0.23676 -0.13071,0 -0.23614,-0.10605 -0.23614,-0.23676 0,-0.13072 0.10543,-0.23615 0.23614,-0.23615 0.13071,0 0.23614,0.10543 0.23614,0.23615"
         id="path1314-5" />
      <path
         style="display:inline;fill:#3f3f3f;fill-opacity:1;fill-rule:nonzero;stroke:none;stroke-width:0.1578;stroke-miterlimit:4;stroke-dasharray:none"
         d="m 257.67271,178.16203 -0.20324,-0.20102 4.37375,-4.42557 0.20323,0.20102 -4.37374,4.42557"
         id="path1320-3"
         inkscape:transform-center-x="-17.955844"
         inkscape:transform-center-y="-18.694128" />
      <text
         xml:space="preserve"
         transform="matrix(0.14359211,0,0,0.14359211,106.42346,148.80398)"
         id="text22236-5"
         style="font-style:normal;font-weight:normal;font-size:40px;line-height:1.25;font-family:sans-serif;letter-spacing:2.61658px;white-space:pre;shape-inside:url(#rect22238-3);fill:#faae38;fill-opacity:1;stroke:#000000;stroke-width:1.95982;stroke-miterlimit:4;stroke-dasharray:none;stroke-opacity:1"><tspan
           x="646.24023"
           y="261.06871"
           id="tspan1279"><tspan
             style="font-family:'Coconut Days';-inkscape-font-specification:'Coconut Days'"
             id="tspan1277">17th Sep, Brno</tspan></tspan></text>
      <path
         style="display:inline;fill:#bdf8f5;fill-opacity:1;fill-rule:nonzero;stroke:none;stroke-width:0.157839"
         d="m 194.7948,178.15937 c 0,0.13071 0.10543,0.23676 0.23614,0.23676 0.13071,0 0.23614,-0.10605 0.23614,-0.23676 0,-0.13072 -0.10543,-0.23615 -0.23614,-0.23615 -0.13071,0 -0.23614,0.10543 -0.23614,0.23615"
         id="path1314-3-6" />
      <path
         style="display:inline;fill:#3f3f3f;fill-opacity:1;fill-rule:nonzero;stroke:none;stroke-width:0.1578;stroke-miterlimit:4;stroke-dasharray:none"
         d="m 194.84224,178.16203 0.20324,-0.20102 -4.37376,-4.42557 -0.20322,0.20102 4.37374,4.42557"
         id="path1320-6-2"
         inkscape:transform-center-x="17.955844"
         inkscape:transform-center-y="-18.694128" />
    </g>
  </g>
</svg>
