<?xml version="1.0" encoding="UTF-8" standalone="no"?>
<!-- Created with Inkscape (http://www.inkscape.org/) -->

<svg
   width="171.7337mm"
   height="39.01017mm"
   viewBox="0 0 171.73371 39.01017"
   version="1.1"
   id="svg38174"
   inkscape:version="1.1.1 (3bf5ae0d25, 2021-09-20)"
   sodipodi:docname="festival-banner.svg"
   xmlns:inkscape="http://www.inkscape.org/namespaces/inkscape"
   xmlns:sodipodi="http://sodipodi.sourceforge.net/DTD/sodipodi-0.dtd"
   xmlns="http://www.w3.org/2000/svg"
   xmlns:svg="http://www.w3.org/2000/svg">
  <sodipodi:namedview
     id="namedview38176"
     pagecolor="#ffffff"
     bordercolor="#666666"
     borderopacity="1.0"
     inkscape:pageshadow="2"
     inkscape:pageopacity="0.0"
     inkscape:pagecheckerboard="0"
     inkscape:document-units="mm"
     showgrid="false"
     fit-margin-top="0"
     fit-margin-left="0"
     fit-margin-right="0"
     fit-margin-bottom="0"
     inkscape:zoom="1.0998546"
     inkscape:cx="205.0271"
     inkscape:cy="-155.4751"
     inkscape:window-width="2560"
     inkscape:window-height="1573"
     inkscape:window-x="0"
     inkscape:window-y="-10"
     inkscape:window-maximized="1"
     inkscape:current-layer="g37209" />
  <defs
     id="defs38171">
    <rect
       x="646.24011"
       y="219.70514"
       width="420.76038"
       height="51.844727"
       id="rect22238" />
    <rect
       x="646.24011"
       y="219.70514"
       width="420.76038"
       height="51.844727"
       id="rect22238-3" />
    <rect
       x="646.24011"
       y="219.70514"
       width="420.76038"
       height="51.844727"
       id="rect22238-3-9" />
  </defs>
  <g
     inkscape:label="Vrstva 1"
     inkscape:groupmode="layer"
     id="layer1"
     transform="translate(-43.895784,-221.45033)">
    <g
       id="g37209"
       transform="matrix(2.2350455,0,0,2.2350455,-381.62427,-166.29665)">
      <path
         style="display:inline;fill:#211e1e;fill-opacity:1;fill-rule:nonzero;stroke:none;stroke-width:0.266189"
         d="m 264.11871,190.93891 h -70.3161 v -13.64014 h 70.3161 v 13.64014"
         id="path872-6" />
      <path
         style="display:inline;fill:#98989a;fill-opacity:1;fill-rule:nonzero;stroke:none;stroke-width:0.281275"
         d="m 196.05115,188.94065 v -9.64361 h 65.81903 v 9.64361 h -65.81903"
         id="path874-7" />
      <path
         style="display:inline;fill:#bdf8f5;fill-opacity:1;fill-rule:nonzero;stroke:none;stroke-width:0.157839"
         d="m 262.83966,178.4616 c 0,0.13071 -0.10543,0.23676 -0.23614,0.23676 -0.13071,0 -0.23614,-0.10605 -0.23614,-0.23676 0,-0.13072 0.10543,-0.23615 0.23614,-0.23615 0.13071,0 0.23614,0.10543 0.23614,0.23615"
         id="path1314-5" />
      <path
         style="display:inline;fill:#3f3f3f;fill-opacity:1;fill-rule:nonzero;stroke:none;stroke-width:0.1578;stroke-miterlimit:4;stroke-dasharray:none"
         d="m 262.84845,178.42926 -0.20324,-0.20102 4.37375,-4.42557 0.20323,0.20102 -4.37374,4.42557"
         id="path1320-3"
         inkscape:transform-center-x="-17.955844"
         inkscape:transform-center-y="-18.694128" />
      <g
         aria-label="17/09/2022  Brno"
         transform="matrix(0.14359211,0,0,0.14359211,106.68324,148.73427)"
         id="text22236-5"
         style="font-size:40px;letter-spacing:2.61658px;white-space:pre;fill:#faae38;stroke:#000000;stroke-width:1.95982">
        <g
           id="path5059">
          <path
             style="color:#000000;-inkscape-font-specification:'Coconut Days';stroke:none;-inkscape-stroke:none"
             d="m 663.24023,228.70871 v 32.48 h -12.28 l 1.08,-23.08 h -4.48 v -9.4 z"
             id="path5108" />
          <path
             style="color:#000000;-inkscape-font-specification:'Coconut Days';fill:#000000;stroke:none;-inkscape-stroke:none"
             d="m 646.58008,227.72852 v 11.35937 h 4.43164 l -1.07813,23.08008 h 14.28711 v -34.43945 h -0.98047 z m 1.96094,1.96093 h 13.71875 v 30.51953 h -10.27149 l 1.07813,-23.08007 h -4.52539 z"
             id="path5110" />
        </g>
        <g
           id="path5061">
          <path
             style="color:#000000;-inkscape-font-specification:'Coconut Days';stroke:none;-inkscape-stroke:none"
             d="m 690.85679,230.10871 -3.04,31 -11.32,0.64 3.92,-15.88 h -11.04 l -0.48,-15.76 z"
             id="path5114" />
          <path
             style="color:#000000;-inkscape-font-specification:'Coconut Days';fill:#000000;stroke:none;-inkscape-stroke:none"
             d="m 667.88672,229.12891 0.53906,17.71875 h 10.74024 l -3.93946,15.95507 13.48438,-0.76367 3.22656,-32.91015 h -1.08008 z m 2.02148,1.95898 h 19.86719 l -2.85156,29.08984 -9.15821,0.51758 3.90235,-15.80664 h -11.33985 z"
             id="path5116" />
        </g>
        <g
           id="path5063">
          <path
             style="color:#000000;-inkscape-font-specification:'Coconut Days';stroke:none;-inkscape-stroke:none"
             d="m 704.78959,231.90856 h 3.32031 l -10.15625,32.87109 h -3.32031 z"
             id="path5120" />
          <path
             style="color:#000000;-inkscape-font-specification:'Coconut Days';fill:#000000;stroke:none;-inkscape-stroke:none"
             d="m 704.06641,230.92773 -0.21289,0.69141 -10.54883,34.14063 h 5.37109 l 10.76172,-34.83204 z m 1.44726,1.96094 h 1.26758 l -9.55078,30.91016 h -1.26758 z"
             id="path5122" />
        </g>
        <g
           id="path5065">
          <path
             style="color:#000000;-inkscape-font-specification:'Coconut Days';stroke:none;-inkscape-stroke:none"
             d="m 733.84648,260.94871 -22,0.24 0.56,-31.72 20.44,-1.16 z m -9.72,-25.72 h -2.68 l 0.36,20 h 2.32 z"
             id="path5126" />
          <path
             style="color:#000000;-inkscape-font-specification:'Coconut Days';fill:#000000;stroke:none;-inkscape-stroke:none"
             d="m 733.79492,227.27344 -22.35156,1.26758 -0.59375,33.63867 24.00781,-0.26172 -0.0312,-1 z m -1.89648,2.07031 0.9375,30.63672 -19.99219,0.2168 0.52734,-29.80274 z m -11.44922,4.9043 0.39453,21.96093 h 4.26172 v -21.96093 h -0.97852 z m 1.99414,1.96093 h 0.70312 v 18.03907 h -0.37695 z"
             id="path5128" />
        </g>
        <g
           id="path5067">
          <path
             style="color:#000000;-inkscape-font-specification:'Coconut Days';stroke:none;-inkscape-stroke:none"
             d="m 764.10302,229.50871 -3.12,31.36 -10.64,0.48 1.92,-8.52 h -11.92 l -1.24,-23.8 z m -9.12,6.36 h -3.4 v 8.44 l 2.24,0.52 z"
             id="path5132" />
          <path
             style="color:#000000;-inkscape-font-specification:'Coconut Days';fill:#000000;stroke:none;-inkscape-stroke:none"
             d="m 738.07031,228.0293 1.3418,25.77929 h 11.625 l -1.93164,8.57618 12.76953,-0.57618 3.30859,-33.25976 -1.0625,-0.0195 z m 2.06641,1.99804 22.88476,0.44141 -2.92968,29.45898 -8.50977,0.38282 1.90625,-8.46094 h -12.21484 z m 10.4668,4.86133 v 10.19922 l 4.05273,0.93945 1.44141,-11.13867 h -1.11524 z m 1.95898,1.95899 h 1.30664 l -0.87891,6.78125 -0.42773,-0.0996 z"
             id="path5134" />
        </g>
        <g
           id="path5069">
          <path
             style="color:#000000;-inkscape-font-specification:'Coconut Days';stroke:none;-inkscape-stroke:none"
             d="m 778.03583,231.90856 h 3.32031 l -10.15625,32.87109 h -3.32031 z"
             id="path5138" />
          <path
             style="color:#000000;-inkscape-font-specification:'Coconut Days';fill:#000000;stroke:none;-inkscape-stroke:none"
             d="m 777.3125,230.92773 -0.21289,0.69141 -10.54883,34.14063 h 5.37109 l 10.76172,-34.83204 z m 1.44727,1.96094 h 1.26757 l -9.55078,30.91016 h -1.26758 z"
             id="path5140" />
        </g>
        <g
           id="path5071">
          <path
             style="color:#000000;-inkscape-font-specification:'Coconut Days';stroke:none;-inkscape-stroke:none"
             d="m 786.17272,228.70871 24.24,0.52 -0.88,15.4 -9.88,5.08 11.84,-0.72 -1.12,12.2 -24.96,-0.36 0.36,-12.16 14.88,-5.92 -0.04,-5.76 -5.16,-0.36 -0.76,4.52 -9.28,-1.64 z"
             id="path5144" />
          <path
             style="color:#000000;-inkscape-font-specification:'Coconut Days';fill:#000000;stroke:none;-inkscape-stroke:none"
             d="m 785.25977,227.70898 -0.0645,0.93164 -0.82226,11.67969 11.12304,1.96485 0.77539,-4.61719 3.36719,0.23437 0.0293,4.1836 -14.85547,5.91015 -0.4082,13.79883 26.86132,0.38672 1.30665,-14.24023 -8.32422,0.50586 6.23047,-3.20313 0.9707,-16.97266 z m 1.82617,1.99805 22.28906,0.48047 -0.78906,13.82617 -9.38086,4.82422 0.50781,1.84961 10.70117,-0.65039 -0.93359,10.1582 -23.0586,-0.33203 0.31055,-10.52148 14.9043,-5.92969 -0.0508,-7.33789 -6.95117,-0.48438 -0.74415,4.42188 -7.4375,-1.31445 z"
             id="path5146" />
        </g>
        <g
           id="path5073">
          <path
             style="color:#000000;-inkscape-font-specification:'Coconut Days';stroke:none;-inkscape-stroke:none"
             d="m 838.02923,260.94871 -22,0.24 0.56,-31.72 20.44,-1.16 z m -9.72,-25.72 h -2.68 l 0.36,20 h 2.32 z"
             id="path5150" />
          <path
             style="color:#000000;-inkscape-font-specification:'Coconut Days';fill:#000000;stroke:none;-inkscape-stroke:none"
             d="m 837.97852,227.27344 -22.35352,1.26758 -0.59375,33.63867 24.00781,-0.26172 -0.0312,-1 z m -1.89844,2.07031 0.9375,30.63672 -19.99024,0.2168 0.52539,-29.80274 z m -11.44922,4.9043 0.39648,21.96093 h 4.26172 v -21.96093 h -0.98047 z m 1.99609,1.96093 h 0.70313 v 18.03907 h -0.37891 z"
             id="path5152" />
        </g>
        <g
           id="path5075">
          <path
             style="color:#000000;-inkscape-font-specification:'Coconut Days';stroke:none;-inkscape-stroke:none"
             d="m 843.96578,228.70871 24.24,0.52 -0.88,15.4 -9.88,5.08 11.84,-0.72 -1.12,12.2 -24.96,-0.36 0.36,-12.16 14.88,-5.92 -0.04,-5.76 -5.16,-0.36 -0.76,4.52 -9.28,-1.64 z"
             id="path5156" />
          <path
             style="color:#000000;-inkscape-font-specification:'Coconut Days';fill:#000000;stroke:none;-inkscape-stroke:none"
             d="m 843.05469,227.70898 -0.0664,0.93164 -0.82226,11.67969 11.12304,1.96485 0.77539,-4.61719 3.36719,0.23437 0.0293,4.1836 -14.85547,5.91015 -0.4082,13.79883 26.86132,0.38672 1.30664,-14.24023 -8.32421,0.50586 6.23046,-3.20313 0.97071,-16.97266 z m 1.82422,1.99805 22.28906,0.48047 -0.78906,13.82617 -9.38086,4.82422 0.50781,1.84961 10.70117,-0.65039 -0.93359,10.1582 -23.0586,-0.33203 0.31055,-10.52148 14.9043,-5.92969 -0.0508,-7.33789 -6.95118,-0.48438 -0.74414,4.42188 -7.4375,-1.31445 z"
             id="path5158" />
        </g>
        <g
           id="path5077">
          <path
             style="color:#000000;-inkscape-font-specification:'Coconut Days';stroke:none;-inkscape-stroke:none"
             d="m 874.90229,228.70871 24.24,0.52 -0.88,15.4 -9.88,5.08 11.84,-0.72 -1.12,12.2 -24.96,-0.36 0.36,-12.16 14.88,-5.92 -0.04,-5.76 -5.16,-0.36 -0.76,4.52 -9.28,-1.64 z"
             id="path5162" />
          <path
             style="color:#000000;-inkscape-font-specification:'Coconut Days';fill:#000000;stroke:none;-inkscape-stroke:none"
             d="m 873.99023,227.70898 -0.0664,0.93164 -0.82031,11.67969 11.12109,1.96485 0.77734,-4.61719 3.36719,0.23437 0.0293,4.1836 -14.85742,5.91015 -0.40821,13.79883 26.86328,0.38672 1.30664,-14.24023 -8.32421,0.50586 6.23046,-3.20313 0.96875,-16.97266 z m 1.82422,1.99805 22.29102,0.48047 -0.78906,13.82617 -9.38282,4.82422 0.50782,1.84961 10.70117,-0.65039 -0.9336,10.1582 -23.05859,-0.33203 0.3125,-10.52148 14.9043,-5.92969 -0.0508,-7.33789 -6.95313,-0.48438 -0.74414,4.42188 -7.4375,-1.31445 z"
             id="path5164" />
        </g>
        <g
           id="path5079">
          <path
             style="color:#000000;-inkscape-font-specification:'Coconut Days';stroke:none;-inkscape-stroke:none"
             d="m 966.47183,245.14871 0.44,16.8 h -23.68 l -1.96,-33.6 24.92,0.32 -1.04,12.96 -7,2.6 z m -14.2,-5.44 2.28,-0.68 0.24,-6.04 h -2.52 z m 2.8,10.12 h -2.8 v 7.16 l 2.48,0.16 z"
             id="path5168" />
          <path
             style="color:#000000;-inkscape-font-specification:'Coconut Days';fill:#000000;stroke:none;-inkscape-stroke:none"
             d="m 940.23242,227.35547 2.07422,35.57226 h 25.61133 l -0.48828,-18.6582 -0.84961,-0.0957 -4.21289,-0.4668 3.71093,-1.37695 1.17383,-14.62696 z m 2.07813,1.98633 22.82031,0.29297 -0.90625,11.29296 -6.41406,2.38282 0.23437,1.89257 7.46875,0.82618 0.39258,14.93945 h -21.75 z m 8.98047,2.66797 v 9.01367 l 1.26171,-0.375 2.95118,-0.88086 0.30664,-7.75781 z m 1.96093,1.95898 h 0.51953 l -0.17187,4.32031 -0.34766,0.10352 z m -1.96093,14.88086 v 9.05859 l 4.39648,0.28321 0.4082,-9.3418 h -1.02343 z m 1.96093,1.95898 h 0.79688 l -0.23242,5.29688 -0.56446,-0.0352 z"
             id="path5170" />
        </g>
        <g
           id="path5081">
          <path
             style="color:#000000;-inkscape-font-specification:'Coconut Days';stroke:none;-inkscape-stroke:none"
             d="m 989.72836,248.66871 5.8,13.36 -8.72,1.8 -5.16,-13.8 v 12.88 h -9.72 l -0.56,-34.84 h 23.48 l -0.76,18.6 z m -5.16,-13.72 -2.6,-0.56 v 7.6 l 2.6,-0.8 z"
             id="path5174" />
          <path
             style="color:#000000;-inkscape-font-specification:'Coconut Days';fill:#000000;stroke:none;-inkscape-stroke:none"
             d="m 970.37305,227.08789 0.59179,36.80078 h 11.66407 v -8.43945 l 3.55468,9.50976 10.72461,-2.21484 -5.89843,-13.58594 4.0332,-1.84961 0.82617,-20.2207 z m 1.99023,1.96094 h 21.46484 l -0.69335,16.98047 -4.6875,2.14843 0.38281,0.88086 5.31836,12.25391 -6.7168,1.38672 -4.86523,-13.01367 -1.89844,0.34375 v 11.90039 h -7.77539 z m 8.625,4.12695 v 10.14063 l 4.56055,-1.4043 v -7.75391 l -0.77344,-0.16797 z m 1.96094,2.42578 0.63867,0.13867 v 4.72461 l -0.63867,0.19727 z"
             id="path5176" />
        </g>
        <g
           id="path5083">
          <path
             style="color:#000000;-inkscape-font-specification:'Coconut Days';stroke:none;-inkscape-stroke:none"
             d="m 1015.9049,228.94871 11.72,0.28 -1.96,33 -6.72,0.24 -8.68,-17.84 1.84,18.32 h -12.04 v -34.6 h 8.52 l 8.92,18.16 z"
             id="path5180" />
          <path
             style="color:#000000;-inkscape-font-specification:'Coconut Days';fill:#000000;stroke:none;-inkscape-stroke:none"
             d="m 999.08594,227.36914 v 36.55859 h 14.10156 l -1.3984,-13.92382 6.5527,13.46679 8.248,-0.29492 2.0743,-34.90234 -13.834,-0.33008 0.1,1.09375 1.1191,12.2832 -6.8535,-13.95117 z m 1.95896,1.95898 h 6.9297 l 8.6504,17.61329 1.8555,-0.52149 -1.5,-16.46484 9.6054,0.23047 -1.8457,31.0957 -5.1933,0.18555 -8.4004,-17.26758 -1.8574,0.52734 1.7343,17.24219 h -9.9785 z"
             id="path5182" />
        </g>
        <g
           id="path5085">
          <path
             style="color:#000000;-inkscape-font-specification:'Coconut Days';stroke:none;-inkscape-stroke:none"
             d="m 1054.8814,229.66871 0.68,32.28 -24.12,0.36 1.76,-33.04 z m -9,9.08 h -3.76 l 0.2,14.4 h 3.56 z"
             id="path5186" />
          <path
             style="color:#000000;-inkscape-font-specification:'Coconut Days';fill:#000000;stroke:none;-inkscape-stroke:none"
             d="m 1032.2734,228.27148 -1.8671,35.03321 26.1562,-0.39063 -0.7207,-34.20703 -0.9414,-0.0176 z m 1.8555,1.99414 19.793,0.36524 0.6386,30.35351 -22.0839,0.32813 z m 6.9981,7.50391 0.2285,16.35938 h 5.5058 v -16.35938 h -0.9804 z m 1.9882,1.95899 h 1.7871 v 12.43945 h -1.6152 z"
             id="path5188" />
        </g>
      </g>
      <path
         style="display:inline;fill:#bdf8f5;fill-opacity:1;fill-rule:nonzero;stroke:none;stroke-width:0.157839"
         d="m 194.7948,178.15937 c 0,0.13071 0.10543,0.23676 0.23614,0.23676 0.13071,0 0.23614,-0.10605 0.23614,-0.23676 0,-0.13072 -0.10543,-0.23615 -0.23614,-0.23615 -0.13071,0 -0.23614,0.10543 -0.23614,0.23615"
         id="path1314-3-6" />
      <path
         style="display:inline;fill:#3f3f3f;fill-opacity:1;fill-rule:nonzero;stroke:none;stroke-width:0.1578;stroke-miterlimit:4;stroke-dasharray:none"
         d="m 194.75915,178.11164 0.20324,-0.20102 -4.37376,-4.42557 -0.20322,0.20102 4.37374,4.42557"
         id="path1320-6-2"
         inkscape:transform-center-x="17.955844"
         inkscape:transform-center-y="-18.694128" />
      <path
         style="display:inline;fill:#211e1e;fill-opacity:1;fill-rule:nonzero;stroke:none;stroke-width:0.266189"
         d="m 251.87323,115.72946 h -70.3161 v -13.64014 h 70.3161 v 13.64014"
         id="path872-6-1" />
      <path
         style="display:inline;fill:#98989a;fill-opacity:1;fill-rule:nonzero;stroke:none;stroke-width:0.281275"
         d="m 183.80566,113.7312 v -9.64361 h 65.81903 v 9.64361 h -65.81903"
         id="path874-7-2" />
      <path
         style="display:inline;fill:#bdf8f5;fill-opacity:1;fill-rule:nonzero;stroke:none;stroke-width:0.157839"
         d="m 250.59417,103.25215 c 0,0.13071 -0.10543,0.23676 -0.23614,0.23676 -0.13071,0 -0.23613,-0.10605 -0.23613,-0.23676 0,-0.13072 0.10543,-0.23615 0.23613,-0.23615 0.13072,0 0.23614,0.10543 0.23614,0.23615"
         id="path1314-5-7" />
      <path
         style="display:inline;fill:#3f3f3f;fill-opacity:1;fill-rule:nonzero;stroke:none;stroke-width:0.1578;stroke-miterlimit:4;stroke-dasharray:none"
         d="m 250.60296,103.21981 -0.20323,-0.20102 4.37374,-4.425566 0.20323,0.20102 -4.37374,4.425566"
         id="path1320-3-0"
         inkscape:transform-center-x="-17.955844"
         inkscape:transform-center-y="-18.694128" />
      <text
         xml:space="preserve"
         transform="matrix(0.14359211,0,0,0.14359211,94.437756,73.524824)"
         id="text22236-5-9"
         style="font-style:normal;font-weight:normal;font-size:40px;line-height:1.25;font-family:sans-serif;letter-spacing:2.61658px;white-space:pre;shape-inside:url(#rect22238-3-9);fill:#faae38;fill-opacity:1;stroke:#000000;stroke-width:1.95982;stroke-miterlimit:4;stroke-dasharray:none;stroke-opacity:1"><tspan
           x="646.24023"
           y="261.06871"
           id="tspan1054"><tspan
             style="font-family:'Coconut Days';-inkscape-font-specification:'Coconut Days'"
             id="tspan1044">17</tspan><tspan
             style="font-family:'Coconut Days';-inkscape-font-specification:'Coconut Days'"
             id="tspan1046">/</tspan><tspan
             style="font-family:'Coconut Days';-inkscape-font-specification:'Coconut Days'"
             id="tspan1048">09</tspan><tspan
             style="font-family:'Coconut Days';-inkscape-font-specification:'Coconut Days'"
             id="tspan1050">/</tspan><tspan
             style="font-family:'Coconut Days';-inkscape-font-specification:'Coconut Days'"
             id="tspan1052">2022  Brno</tspan></tspan></text>
      <path
         style="display:inline;fill:#bdf8f5;fill-opacity:1;fill-rule:nonzero;stroke:none;stroke-width:0.157839"
         d="m 182.54931,102.94992 c 0,0.13071 0.10544,0.23676 0.23615,0.23676 0.1307,0 0.23614,-0.10605 0.23614,-0.23676 0,-0.13072 -0.10544,-0.23615 -0.23614,-0.23615 -0.13071,0 -0.23615,0.10543 -0.23615,0.23615"
         id="path1314-3-6-3" />
      <path
         style="display:inline;fill:#3f3f3f;fill-opacity:1;fill-rule:nonzero;stroke:none;stroke-width:0.1578;stroke-miterlimit:4;stroke-dasharray:none"
         d="m 182.51366,102.90219 0.20324,-0.20102 -4.37376,-4.425566 -0.20322,0.20102 4.37374,4.425566"
         id="path1320-6-2-6"
         inkscape:transform-center-x="17.955844"
         inkscape:transform-center-y="-18.694128" />
    </g>
  </g>
</svg>
