<svg viewBox="0 0 165.9 48.3" xml:space="preserve" xmlns="http://www.w3.org/2000/svg">
	<g id="znaÄka" transform="translate(-4 -4)">
    <path id="path1834" fill="#010101"
          d="M10 52c-3 0-6-3-6-7V10c0-4 3-6 6-6h122l6 1 29 18c2 1 3 3 3 5s-1 4-3 5l-30 17-5 2H10"/>
        <path id="path1831" fill="#faae37"
              d="M5 10c0-3 3-5 5-5h122l5 2 29 17c3 2 3 6 0 8l-29 17-5 1H10c-3 0-5-2-5-5V10"/>
        <path id="path1828" fill="#010101"
              d="M133 8 13 7c-2 0-4 2-4 4v33c0 2 1 4 4 4h120l4-1 26-16c3-2 3-4 0-6L137 9l-4-1Zm0 2 2 1 27 16 1 1-1 1-27 16-2 1H13l-2-2V11l2-2 120 1"/>
  </g>
    <g id="Home" transform="translate(-3 -4)">
    <text id="text" transform="translate(24 39)" fill="none" stroke="#010101" stroke-width="2" stroke-miterlimit="10"
          font-family="Coconut-Days" font-size="28.7" letter-spacing="1"><tspan style="-inkscape-font-specification:'Coconut Days'" id="tspan1646" font-style="normal" font-variant="normal" font-weight="400" font-stretch="normal" font-family="Coconut Days" fill="#fff" fill-opacity="1">home</tspan></text>
  </g>
</svg>
