<svg viewBox="0 0 165.9 48.3" xml:space="preserve" xmlns="http://www.w3.org/2000/svg">
	<g id="znaÄka" transform="translate(-3 -5)">
    <path id="path1834" fill="#010101" d="M163 53c4 0 6-3 6-6V11c0-3-2-6-6-6H41l-5 2L7 25c-2 1-4 2-4 4s2 4 4 5l29 18 5 1h122"/>
		<path id="path1831" fill="#faae37" d="M168 11c0-3-2-5-5-5L41 7l-4 1L7 26c-3 2-3 5 0 7l30 18 4 1 122-1c3 0 5-2 5-4V11"/>
		<path id="path1828" fill="#010101" d="m41 9 119-1c3 0 5 2 5 5v32c0 2-2 4-4 4L41 50l-4-1-27-16c-3-2-3-5 0-7l27-16 4-1zm0 2-3 1-27 16-1 1 1 2 27 16h123l1-2V13c0-1 0-2-2-2H41"/>
  </g>
	<g id="Home" transform="translate(-3 -5)">
    <text id="text" transform="translate(53 40)" fill="none" stroke="#010101" stroke-width="2" stroke-miterlimit="10" font-family="Coconut-Days" font-size="28.7" letter-spacing="1"><tspan style="-inkscape-font-specification:'Coconut Days'" id="tspan3642" font-style="normal" font-variant="normal" font-weight="400" font-stretch="normal" font-family="Coconut Days" fill="#fff" fill-opacity="1">home</tspan></text>
  </g>
</svg>
