<?xml version="1.0" encoding="UTF-8" standalone="no"?>
<!-- Generator: Adobe Illustrator 23.0.1, SVG Export Plug-In . SVG Version: 6.00 Build 0)  -->

<svg
   version="1.1"
   viewBox="0 0 141.06256 74.359862"
   enable-background="new 0 0 185.14 81.08"
   xml:space="preserve"
   xmlns:xlink="http://www.w3.org/1999/xlink"
   xmlns="http://www.w3.org/2000/svg"
   xmlns:svg="http://www.w3.org/2000/svg"><defs
   id="defs1528" />
<font
   horiz-adv-x="1000"
   id="font1462"
   horiz-origin-x="0"
   horiz-origin-y="0"
   vert-origin-x="512"
   vert-origin-y="768"
   vert-adv-y="1024">
<!-- Coconut Days is a trademark of Khurasan &amp; Jalembe. -->
<!-- Copyright: Copyright 2022 Adobe System Incorporated. All rights reserved. -->
<font-face
   font-family="Coconut-Days"
   units-per-em="1000"
   underline-position="-75"
   underline-thickness="50"
   id="font-face1284" />
<missing-glyph
   horiz-adv-x="501"
   d="M411,-200l-318,0l0,1003l318,0M168,119l0,-113l166,0l0,113M301,39l-100,0l0,47l100,0M234,292l0,-56l34,0l0,23l33,0l0,-47l-100,0l0,80l-33,0l0,-113l166,0l0,113M301,415l0,-66l-133,0l0,-34l166,0l0,100M168,475l0,-33l66,0l0,-37l-66,0l0,-33l100,0l0,70l66,0l0,33M234,536l-33,0l0,36l33,0M168,606l0,-104l166,0l0,34l-66,0l0,70M169,736l0,-33l65,0l0,-37l-66,0l0,-34l166,0l0,34l-66,0l0,37l66,0l0,33M168,-17l0,-34l70,0l-70,-47l0,-33l166,0l0,33l-102,0l70,47l32,0l0,34z"
   id="missing-glyph1286" />
<glyph
   unicode=" "
   horiz-adv-x="402"
   id="glyph1288" />
<glyph
   unicode="d"
   horiz-adv-x="585"
   d="M14,823l262,-26l294,-86l-41,-665l-269,-77l-228,-13M263,208l69,10l0,303l-69,21z"
   id="glyph1290" />
<glyph
   unicode="c"
   horiz-adv-x="620"
   d="M275,541l0,-286l315,32l5,-309l-562,19l-9,788l579,33l-13,-288z"
   id="glyph1292" />
<glyph
   unicode="b"
   horiz-adv-x="666"
   d="M636,398l11,-420l-592,0l-49,840l623,-8l-26,-324l-175,-65M281,534l57,17l6,151l-63,0M351,281l-70,0l0,-179l62,-4z"
   id="glyph1294" />
<glyph
   unicode="a"
   horiz-adv-x="720"
   d="M453,818l253,-840l-288,0l-11,84l-116,0l-13,-84l-262,0l195,840M386,234l-30,246l-38,-246z"
   id="glyph1296" />
<glyph
   unicode="h"
   horiz-adv-x="833"
   d="M489,829l324,0l-26,-854l-291,0l-1,199l-209,0l0,-188l-249,-6l-17,839l272,0l-4,-466l206,0z"
   id="glyph1298" />
<glyph
   unicode="i"
   horiz-adv-x="384"
   d="M319,591l42,-635l-335,0l36,653M337,686l-299,0l0,168l299,15z"
   id="glyph1300" />
<glyph
   unicode="j"
   horiz-adv-x="604"
   d="M18,285l234,-22l47,42l-61,546l345,0l-14,-700l-147,-171l-391,0z"
   id="glyph1302" />
<glyph
   unicode="k"
   horiz-adv-x="833"
   d="M800,756l-299,-353l306,-397l-368,-19l-95,264l-20,-283l-276,0l-32,858l369,0l-23,-317l221,295z"
   id="glyph1304" />
<glyph
   unicode="K"
   horiz-adv-x="833"
   d="M800,756l-299,-353l306,-397l-368,-19l-95,264l-20,-283l-276,0l-32,858l369,0l-23,-317l221,295z"
   id="glyph1306" />
<glyph
   unicode="!"
   horiz-adv-x="410"
   d="M20,791l370,21l-70,-579l-247,0M73,140l263,0l-5,-169l-263,0z"
   id="glyph1308" />
<glyph
   unicode="&quot;"
   horiz-adv-x="454"
   d="M210,857l-40,-241l-116,0l-9,236M413,857l-40,-241l-116,0l-9,236z"
   id="glyph1310" />
<glyph
   unicode="$"
   horiz-adv-x="604"
   d="M532,489l-249,18l281,-230l-27,-228l-136,-3l12,-95l-166,5l13,87l-223,-4l-8,263l275,-16l-256,266l20,193l205,-8l-12,87l152,8l0,-101l178,-7z"
   id="glyph1312" />
<glyph
   unicode="%"
   horiz-adv-x="762"
   d="M624,780C587,631 553,497 524,379C511,329 499,280 487,232C475,183 464,140 455,103C446,65 438,35 432,12C426,-11 423,-22 422,-22C421,-22 416,-21 406,-20C395,-19 382,-17 366,-14C350,-11 332,-9 312,-6C291,-3 270,0 249,3C199,10 143,19 80,28l311,758M235,524l-210,0l23,246l221,8M730,254l0,-256l-234,0l68,256z"
   id="glyph1314" />
<glyph
   unicode="&amp;"
   horiz-adv-x="764"
   d="M667,80l-180,-6l9,-108l-163,0l4,104l-264,-7l-37,306l108,66l-79,31l1,256l261,21l-10,113l159,0l-16,-102l131,11l-11,-189l-321,0l-15,-73l241,9l0,-169l-236,-11l-5,-62l309,8l-11,132l178,-17z"
   id="glyph1316" />
<glyph
   unicode="@"
   horiz-adv-x="750"
   d="M65,785l653,0l-10,-508l-463,-26l-11,294l248,15l10,-183l77,5l-2,197l-352,-8l-13,-336l472,8l9,-265l-657,15M391,365l-3,100l-26,3l-12,-103z"
   id="glyph1318" />
<glyph
   unicode="_"
   horiz-adv-x="833"
   d="M44,138l731,11l-13,-233l-702,0z"
   id="glyph1320" />
<glyph
   unicode="?"
   horiz-adv-x="593"
   d="M22,782l544,37l-27,-337l-155,-158l57,-125l-251,0l13,139l125,125l-261,-15M178,131l253,-4l-6,-164l-240,-10z"
   id="glyph1322" />
<glyph
   unicode="&gt;"
   horiz-adv-x="511"
   d="M53,542l-14,121l386,129l43,-203M468,186l-43,-203l-386,129l14,121M383,442l0,-132l-323,27l0,86z"
   id="glyph1324" />
<glyph
   unicode="="
   horiz-adv-x="784"
   d="M47,345l684,9l0,-204l-680,0M47,656l684,20l0,-251l-684,0z"
   id="glyph1326" />
<glyph
   unicode="&lt;"
   horiz-adv-x="511"
   d="M39,589l43,203l386,-129l-14,-121M454,233l14,-121l-386,-129l-43,203M447,423l0,-86l-323,-27l0,132z"
   id="glyph1328" />
<glyph
   unicode=";"
   horiz-adv-x="405"
   d="M67,713l278,0l-12,-237l-254,0M355,314C341,257 328,206 317,161C312,142 308,123 303,104C298,85 294,69 291,54C287,39 284,27 282,18C279,9 278,4 278,3C277,2 271,1 259,1C246,0 232,0 217,1l-60,2l19,103l-96,5l14,203z"
   id="glyph1330" />
<glyph
   unicode="Z"
   horiz-adv-x="701"
   d="M430,321l241,58l0,-406l-642,0l24,210l290,316l-314,0l0,305l629,0l13,-229z"
   id="glyph1332" />
<glyph
   unicode="z"
   horiz-adv-x="701"
   d="M430,321l241,58l0,-406l-642,0l24,210l290,316l-314,0l0,305l629,0l13,-229z"
   id="glyph1334" />
<glyph
   unicode="Y"
   horiz-adv-x="782"
   d="M516,768l247,0l-66,-551l-164,3l0,-257l-282,0l19,260l-181,3l-72,552l272,0l16,-305l172,0z"
   id="glyph1336" />
<glyph
   unicode="y"
   horiz-adv-x="782"
   d="M516,768l247,0l-66,-551l-164,3l0,-257l-282,0l19,260l-181,3l-72,552l272,0l16,-305l172,0z"
   id="glyph1338" />
<glyph
   unicode="x"
   horiz-adv-x="833"
   d="M588,417l225,-409l-263,-14l-75,162l-78,-176l-384,12l262,425l-221,399l283,37l103,-214l95,189l273,-12z"
   id="glyph1340" />
<glyph
   unicode="X"
   horiz-adv-x="833"
   d="M588,417l225,-409l-263,-14l-75,162l-78,-176l-384,12l262,425l-221,399l283,37l103,-214l95,189l273,-12z"
   id="glyph1342" />
<glyph
   unicode="W"
   horiz-adv-x="951"
   d="M640,832l292,-8l-34,-844l-337,0l-82,222l-130,-240l-295,18l-27,831l316,0l-2,-460l102,340l83,-1l108,-343z"
   id="glyph1344" />
<glyph
   unicode="w"
   horiz-adv-x="951"
   d="M640,832l292,-8l-34,-844l-337,0l-82,222l-130,-240l-295,18l-27,831l316,0l-2,-460l102,340l83,-1l108,-343z"
   id="glyph1346" />
<glyph
   unicode="v"
   horiz-adv-x="765"
   d="M421,811l329,0l-210,-831l-349,0l-171,803l276,28l68,-426z"
   id="glyph1348" />
<glyph
   unicode="V"
   horiz-adv-x="765"
   d="M421,811l329,0l-210,-831l-349,0l-171,803l276,28l68,-426z"
   id="glyph1350" />
<glyph
   unicode="U"
   horiz-adv-x="775"
   d="M515,745l247,0l-66,-767l-608,12l-73,769l273,0l16,-424l172,0z"
   id="glyph1352" />
<glyph
   unicode="u"
   horiz-adv-x="775"
   d="M515,745l247,0l-66,-767l-608,12l-73,769l273,0l16,-424l172,0z"
   id="glyph1354" />
<glyph
   unicode="t"
   horiz-adv-x="689"
   d="M21,807l652,0l-10,-423l-182,-3l0,-410l-278,0l34,407l-206,-2z"
   id="glyph1356" />
<glyph
   unicode="T"
   horiz-adv-x="689"
   d="M21,807l652,0l-10,-423l-182,-3l0,-410l-278,0l34,407l-206,-2z"
   id="glyph1358" />
<glyph
   unicode="S"
   horiz-adv-x="621"
   d="M264,597l0,-105l337,-137l-16,-377l-554,0l0,321l304,-20l-295,154l-3,381l557,0l7,-258z"
   id="glyph1360" />
<glyph
   unicode="s"
   horiz-adv-x="621"
   d="M264,597l0,-105l337,-137l-16,-377l-554,0l0,321l304,-20l-295,154l-3,381l557,0l7,-258z"
   id="glyph1362" />
<glyph
   unicode="r"
   horiz-adv-x="651"
   d="M486,310l145,-334l-218,-45l-129,345l0,-322l-243,0l-14,871l587,0l-19,-465M357,653l-65,14l0,-190l65,20z"
   id="glyph1364" />
<glyph
   unicode="R"
   horiz-adv-x="651"
   d="M486,310l145,-334l-218,-45l-129,345l0,-322l-243,0l-14,871l587,0l-19,-465M357,653l-65,14l0,-190l65,20z"
   id="glyph1366" />
<glyph
   unicode="Q"
   horiz-adv-x="685"
   d="M610,72l79,-113l-200,-42l-20,102l-423,0l-19,747l640,11M402,546l-103,0l0,-334l60,0z"
   id="glyph1368" />
<glyph
   unicode="q"
   horiz-adv-x="685"
   d="M610,72l79,-113l-200,-42l-20,102l-423,0l-19,747l640,11M402,546l-103,0l0,-334l60,0z"
   id="glyph1370" />
<glyph
   unicode="p"
   horiz-adv-x="699"
   d="M39,807l642,8l-30,-296C647,482 643,445 640,410C637,375 634,343 631,315C628,287 626,265 625,248C623,231 622,222 622,221C622,220 618,220 610,221C601,222 590,223 577,225C564,226 548,228 531,230C514,232 496,234 478,237C436,242 388,249 335,257l10,-280l-306,0M343,441l54,-9l52,237l-106,5z"
   id="glyph1372" />
<glyph
   unicode="P"
   horiz-adv-x="699"
   d="M39,807l642,8l-30,-296C647,482 643,445 640,410C637,375 634,343 631,315C628,287 626,265 625,248C623,231 622,222 622,221C622,220 618,220 610,221C601,222 590,223 577,225C564,226 548,228 531,230C514,232 496,234 478,237C436,242 388,249 335,257l10,-280l-306,0M343,441l54,-9l52,237l-106,5z"
   id="glyph1374" />
<glyph
   unicode="O"
   horiz-adv-x="643"
   d="M602,785l17,-807l-603,-9l44,826M377,558l-94,0l5,-360l89,0z"
   id="glyph1376" />
<glyph
   unicode="o"
   horiz-adv-x="643"
   d="M602,785l17,-807l-603,-9l44,826M377,558l-94,0l5,-360l89,0z"
   id="glyph1378" />
<glyph
   unicode="n"
   horiz-adv-x="731"
   d="M424,803l293,-7l-49,-825l-168,-6l-217,446l46,-458l-301,0l0,865l213,0l223,-454z"
   id="glyph1380" />
<glyph
   unicode="N"
   horiz-adv-x="731"
   d="M424,803l293,-7l-49,-825l-168,-6l-217,446l46,-458l-301,0l0,865l213,0l223,-454z"
   id="glyph1382" />
<glyph
   unicode="M"
   horiz-adv-x="988"
   d="M908,803l54,-806l-334,-18l-18,302l-74,-290l-107,0l-66,259l-31,-271l-305,12l60,826l281,0l118,-403l152,385z"
   id="glyph1384" />
<glyph
   unicode="m"
   horiz-adv-x="988"
   d="M908,803l54,-806l-334,-18l-18,302l-74,-290l-107,0l-66,259l-31,-271l-305,12l60,826l281,0l118,-403l152,385z"
   id="glyph1386" />
<glyph
   unicode="l"
   horiz-adv-x="731"
   d="M691,241l14,-273l-635,0l-52,862l338,0l-40,-656z"
   id="glyph1388" />
<glyph
   unicode="L"
   horiz-adv-x="731"
   d="M691,241l14,-273l-635,0l-52,862l338,0l-40,-656z"
   id="glyph1390" />
<glyph
   unicode="0"
   horiz-adv-x="606"
   d="M578,3l-550,-6l14,793l511,29M335,646l-67,0l9,-500l58,0z"
   id="glyph1392" />
<glyph
   unicode="1"
   horiz-adv-x="470"
   d="M425,809l0,-812l-307,0l27,577l-112,0l0,235z"
   id="glyph1394" />
<glyph
   unicode="2"
   horiz-adv-x="708"
   d="M55,809l606,-13l-22,-385l-247,-127l296,18l-28,-305l-624,9l9,304l372,148l-1,144l-129,9l-19,-113l-232,41z"
   id="glyph1396" />
<glyph
   unicode="3"
   horiz-adv-x="632"
   d="M592,800l0,-360l-73,-42l73,-37l-25,-356l-537,-8l9,235l359,-11l-2,89l-230,-16l2,224l228,0l9,56l-333,-10l-8,245z"
   id="glyph1398" />
<glyph
   unicode="4"
   horiz-adv-x="731"
   d="M336,772l-17,-380l66,0l0,404l311,13l-11,-836l-295,0l0,195l-359,0l35,612z"
   id="glyph1400" />
<glyph
   unicode="5"
   horiz-adv-x="618"
   d="M583,786l0,-259l-350,0l0,-54l340,0l10,-473l-542,-10l0,345l270,-10l8,64l-278,7l0,359z"
   id="glyph1402" />
<glyph
   unicode="6"
   horiz-adv-x="632"
   d="M596,443l0,-435l-563,-18l25,799l289,0l-44,-325M373,312l-50,0l0,-172l50,0z"
   id="glyph1404" />
<glyph
   unicode="7"
   horiz-adv-x="609"
   d="M580,774l-76,-775l-283,-16l98,397l-276,0l-12,394z"
   id="glyph1406" />
<glyph
   unicode="8"
   horiz-adv-x="648"
   d="M617,452l-50,-465l-530,21l0,394l115,35l-75,41l-14,291l502,-11l-56,-306M362,317l-87,-7l4,-180l83,0M373,634l-84,0l0,-117l74,-6z"
   id="glyph1408" />
<glyph
   unicode="9"
   horiz-adv-x="692"
   d="M663,789l-78,-784l-266,-12l48,213l-298,0l-31,595M435,630l-85,0l0,-211l56,-13z"
   id="glyph1410" />
<glyph
   unicode="."
   horiz-adv-x="398"
   d="M67,234l278,0l-12,-237l-254,0z"
   id="glyph1412" />
<glyph
   unicode="-"
   horiz-adv-x="653"
   d="M43,496l569,13l-8,-252l-561,0z"
   id="glyph1414" />
<glyph
   unicode=","
   horiz-adv-x="370"
   d="M325,241C311,184 298,133 287,88C282,69 278,50 273,31C268,12 264,-4 261,-19C257,-34 254,-46 252,-55C249,-64 248,-69 248,-70C247,-71 241,-72 229,-72C216,-73 202,-73 187,-72l-60,2l19,103l-96,5l14,203z"
   id="glyph1416" />
<glyph
   unicode="+"
   horiz-adv-x="794"
   d="M42,468l198,0l-11,213l339,0l0,-195l176,-2l0,-223l-199,-7l-3,-155l-282,0l3,162l-221,7z"
   id="glyph1418" />
<glyph
   unicode=")"
   horiz-adv-x="491"
   d="M449,689l-28,-632l-381,-99l0,244l218,52l0,277l-212,74l0,251z"
   id="glyph1420" />
<glyph
   unicode="("
   horiz-adv-x="491"
   d="M443,856l0,-251l-212,-74l0,-277l218,-52l0,-244l-381,99l-28,632z"
   id="glyph1422" />
<glyph
   unicode="'"
   horiz-adv-x="243"
   d="M210,857l-40,-241l-116,0l-9,236z"
   id="glyph1424" />
<glyph
   unicode="A"
   horiz-adv-x="720"
   d="M453,818l253,-840l-288,0l-11,84l-116,0l-13,-84l-262,0l195,840M386,234l-30,246l-38,-246z"
   id="glyph1426" />
<glyph
   unicode="C"
   horiz-adv-x="620"
   d="M275,541l0,-286l315,32l5,-309l-562,19l-9,788l579,33l-13,-288z"
   id="glyph1428" />
<glyph
   unicode="B"
   horiz-adv-x="666"
   d="M636,398l11,-420l-592,0l-49,840l623,-8l-26,-324l-175,-65M281,534l57,17l6,151l-63,0M351,281l-70,0l0,-179l62,-4z"
   id="glyph1430" />
<glyph
   unicode="D"
   horiz-adv-x="585"
   d="M14,823l262,-26l294,-86l-41,-665l-269,-77l-228,-13M263,208l69,10l0,303l-69,21z"
   id="glyph1432" />
<glyph
   unicode="E"
   horiz-adv-x="737"
   d="M253,211l460,28l0,-259l-687,0l24,803l651,30l-25,-243l-423,45l0,-150l320,25l0,-217l-320,13z"
   id="glyph1434" />
<glyph
   unicode="F"
   horiz-adv-x="687"
   d="M24,813l648,10l-19,-290l-316,39l3,-144l301,21l-18,-194l-278,16l10,-291l-319,0z"
   id="glyph1436" />
<glyph
   unicode="G"
   horiz-adv-x="759"
   d="M365,449l373,-7l-19,-448l-670,-19l-31,848l665,0l-17,-290l-271,0l10,91l-108,2l2,-420l230,0l4,43l-175,-5z"
   id="glyph1438" />
<glyph
   unicode="H"
   horiz-adv-x="833"
   d="M489,829l324,0l-26,-854l-291,0l-1,199l-209,0l0,-188l-249,-6l-17,839l272,0l-4,-466l206,0z"
   id="glyph1440" />
<glyph
   unicode="I"
   horiz-adv-x="384"
   d="M319,591l42,-635l-335,0l36,653M337,686l-299,0l0,168l299,15z"
   id="glyph1442" />
<glyph
   unicode="J"
   horiz-adv-x="604"
   d="M18,285l234,-22l47,42l-61,546l345,0l-14,-700l-147,-171l-391,0z"
   id="glyph1444" />
<glyph
   unicode=":"
   horiz-adv-x="405"
   d="M67,713l278,0l-12,-237l-254,0M79,313l254,0l12,-237l-278,0z"
   id="glyph1446" />
<glyph
   unicode="’"
   horiz-adv-x="243"
   d="M210,857l-40,-241l-116,0l-9,236z"
   id="glyph1448" />
<glyph
   unicode="‘"
   horiz-adv-x="243"
   d="M45,616l40,241l116,0l9,-236z"
   id="glyph1450" />
<glyph
   unicode="”"
   horiz-adv-x="454"
   d="M210,857l-40,-241l-116,0l-9,236M413,857l-40,-241l-116,0l-9,236z"
   id="glyph1452" />
<glyph
   unicode="“"
   horiz-adv-x="454"
   d="M248,616l40,241l116,0l9,-236M45,616l40,241l116,0l9,-236z"
   id="glyph1454" />
<glyph
   unicode="e"
   horiz-adv-x="737"
   d="M253,211l460,28l0,-259l-687,0l24,803l651,30l-25,-243l-423,45l0,-150l320,25l0,-217l-320,13z"
   id="glyph1456" />
<glyph
   unicode="g"
   horiz-adv-x="759"
   d="M365,449l373,-7l-19,-448l-670,-19l-31,848l665,0l-17,-290l-271,0l10,91l-108,2l2,-420l230,0l4,43l-175,-5z"
   id="glyph1458" />
<glyph
   unicode="f"
   horiz-adv-x="687"
   d="M24,813l648,10l-19,-290l-316,39l3,-144l301,21l-18,-194l-278,16l10,-291l-319,0z"
   id="glyph1460" />
</font>
</defs>
</svg>
