<?xml version="1.0" encoding="UTF-8" standalone="no"?>
<!-- Generator: Adobe Illustrator 23.0.1, SVG Export Plug-In . SVG Version: 6.00 Build 0)  -->

<svg
   version="1.1"
   viewBox="0 0 141.06256 74.359862"
   enable-background="new 0 0 185.14 81.08"
   xml:space="preserve"
   id="svg1195"
   xmlns:xlink="http://www.w3.org/1999/xlink"
   xmlns="http://www.w3.org/2000/svg"
   xmlns:svg="http://www.w3.org/2000/svg"><defs
   id="defs1528" />


	<g
   id="znaÄka"
   transform="translate(-23.487967,-3.36)">
	<g
   id="g1476">
		<defs
   id="defs1465">
			<path
   id="SVGID_1_"
   d="M 181.61,77.73 H 3.53 c -3.11,0 -5.62,-2.52 -5.62,-5.62 V 8.98 c 0,-3.11 2.52,-5.62 5.62,-5.62 h 178.08 c 3.11,0 5.62,2.52 5.62,5.62 V 72.1 c 0,3.11 -2.52,5.63 -5.62,5.63 z" />
		</defs>
		<clipPath
   id="SVGID_2_">
			<use
   xlink:href="#SVGID_1_"
   overflow="visible"
   id="use1467"
   x="0"
   y="0"
   width="100%"
   height="100%" />
		</clipPath>
		<g
   clip-path="url(#SVGID_2_)"
   id="g1474">
			<path
   fill="#010101"
   d="M 162.26314,33.266199 28.16,30.94 C 25.620382,30.89595 23.55,28.86 23.55,26.33 V 7.97 c 0,-2.54 2.08,-4.61 4.61,-4.61 h 131.77 c 2.54,0 4.61,2.08 4.61,4.61 v 18.36 c 0.01,2.53 0.25275,6.980078 -2.27686,6.936199 z"
   id="path1470" />
			<path
   fill="#010101"
   d="m 159.12,20.02 c 7.80757,5.284493 6.89,14.41 -1.11,19.58 l -53.33,34.46 c -8,5.17 -20.6,4.82 -28,-0.78 L 28.72,36.98 c -7.39,-5.6 -6.89,-14.41 1.11,-19.58 67.548713,-2.991234 61.524526,2.508636 129.29,2.62 z"
   id="path1472" />
		</g>
	</g>
	<g
   id="g1490">
		<defs
   id="defs1479">
			<path
   id="SVGID_3_"
   d="M 178.83,74.29 H 6.3 C 3.35,74.29 0.96,71.9 0.96,68.95 V 10.19 C 0.96,7.24 3.35,4.85 6.3,4.85 h 172.53 c 2.95,0 5.34,2.39 5.34,5.34 v 58.75 c 0,2.95 -2.39,5.35 -5.34,5.35 z" />
		</defs>
		<clipPath
   id="SVGID_4_">
			<use
   xlink:href="#SVGID_3_"
   overflow="visible"
   id="use1481"
   x="0"
   y="0"
   width="100%"
   height="100%" />
		</clipPath>
		<g
   clip-path="url(#SVGID_4_)"
   id="g1488">
			<path
   fill="#faae37"
   d="M 159.45221,34.5619 30.16,30.6 C 27.751131,30.52619 25.78,28.63 25.78,26.22 V 9.23 c 0,-2.41 1.97,-4.38 4.38,-4.38 h 127.68 c 2.41,0 4.38,1.97 4.38,4.38 v 16.98 c 0,2.42 -0.35892,8.425715 -2.76779,8.3519 z"
   id="path1484" />
			<path
   fill="#faae37"
   d="m 156.97,20.42 c 7.16,5.23 6.67,13.45 -1.07,18.28 L 104.29,70.87 C 96.54,75.7 84.35,75.37 77.2,70.15 L 30.78,36.24 c -7.16,-5.23 -6.67,-13.45 1.07,-18.28 44.744127,-4.079238 81.74862,0.57769 125.12,2.46 z"
   id="path1486" />
		</g>
	</g>
	<g
   id="g1504">
		<defs
   id="defs1493">
			<path
   id="SVGID_5_"
   d="M 175.09,72.35 H 9.66 c -2.82,0 -5.1,-2.29 -5.1,-5.1 V 11.4 c 0,-2.82 2.29,-5.1 5.1,-5.1 H 175.1 c 2.82,0 5.1,2.29 5.1,5.1 v 55.84 c 0,2.82 -2.29,5.11 -5.11,5.11 z" />
		</defs>
		<clipPath
   id="SVGID_6_">
			<use
   xlink:href="#SVGID_5_"
   overflow="visible"
   id="use1495"
   x="0"
   y="0"
   width="100%"
   height="100%" />
		</clipPath>
		<g
   clip-path="url(#SVGID_6_)"
   id="g1502">
			<path
   fill="#010101"
   d="M 154.97,30.79 H 32.53 c -2.3,0 -4.19,-1.88 -4.19,-4.19 V 10.48 c 0,-2.3 1.88,-4.19 4.19,-4.19 h 122.44 c 2.3,0 4.19,1.88 4.19,4.19 V 26.6 c 0,2.31 -1.89,4.19 -4.19,4.19 z"
   id="path1498" />
			<path
   fill="#010101"
   d="M 107.26961,17.424782 154.13,21.1 c 6.86,4.97 6.4,12.8 -1.03,17.39 l -49.48,30.6 C 96.19,73.68 84.51,73.37 77.65,68.4 L 33.15,36.15 c -6.86,-4.97 -6.4,-12.8 1.03,-17.39 l 47.119614,-2.025218 c 7.42,-4.59 19.109996,-4.28 25.969996,0.69 z"
   id="path1500" />
		</g>
	</g>
	<g
   id="g1518">
		<defs
   id="defs1507">
			<path
   id="SVGID_7_"
   d="M 170.8,68.16 H 13.95 c -2.62,0 -4.74,-2.12 -4.74,-4.74 v -50.6 c 0,-2.62 2.12,-4.74 4.74,-4.74 H 170.8 c 2.62,0 4.74,2.12 4.74,4.74 v 50.6 c 0,2.62 -2.12,4.74 -4.74,4.74 z" />
		</defs>
		<clipPath
   id="SVGID_8_">
			<use
   xlink:href="#SVGID_7_"
   overflow="visible"
   id="use1509"
   x="0"
   y="0"
   width="100%"
   height="100%" />
		</clipPath>
		<g
   clip-path="url(#SVGID_8_)"
   id="g1516">
			<path
   fill="#faae37"
   d="M 151.73,30.37 H 35.63 c -2.14,0 -3.89,-1.75 -3.89,-3.89 V 11.97 c 0,-2.14 1.75,-3.89 3.89,-3.89 h 116.1 c 2.14,0 3.89,1.75 3.89,3.89 v 14.51 c -0.01,2.14 -1.75,3.89 -3.89,3.89 z"
   id="path1512" />
			<path
   fill="#faae37"
   d="M 99.407961,21.472881 150.85,21.55 c 6.5,4.52 6.06,11.64 -0.97,15.82 L 103.03,65.2 C 96,69.38 84.93,69.1 78.43,64.57 L 36.29,35.25 c -6.5,-4.52 -6.06,-11.64 0.97,-15.82 l 48.230079,1.693033 c 7.03,-4.17 7.427882,-4.170152 13.917882,0.349848 z"
   id="path1514" />
		</g>
	</g>
</g>
<g
   id="text_1_"
   transform="translate(-23.487967,-3.36)">




<g
   aria-label="more"
   id="text"
   style="font-size:26.6747px;font-family:Coconut-Days;letter-spacing:1;fill:#ffffff;stroke:#010101;stroke-width:1.8476;stroke-miterlimit:10"><path
     d="m 74.985184,13.10352 1.440434,21.499808 -8.90935,0.480145 -0.480144,-8.05576 -1.973928,7.735663 h -2.854193 l -1.76053,-6.908747 -0.826916,7.228844 -8.135783,-0.320097 1.600482,-22.033302 h 7.49559 l 3.147615,10.749904 4.054554,-10.269759 z"
     style="font-family:'Coconut Days';-inkscape-font-specification:'Coconut Days'"
     id="path4374" /><path
     d="m 94.177302,13.583665 0.45347,21.526482 -16.084844,0.240073 1.173687,-22.033302 z m -6.001807,6.055157 h -2.507422 l 0.133374,9.602891 h 2.374048 z"
     style="font-family:'Coconut Days';-inkscape-font-specification:'Coconut Days'"
     id="path4376" /><path
     d="m 109.23486,26.254147 3.86783,8.90935 -5.81508,1.200361 -3.30001,-7.572584 -0.14103,6.959066 H 97.364621 L 96.991175,12.516677 h 15.658045 l -0.50682,12.403735 z m -3.44103,-9.149422 -1.73386,-0.373446 -0.0109,4.321023 1.68346,-0.594388 z"
     style="font-family:'Coconut Days';-inkscape-font-specification:'Coconut Days'"
     id="path4378" /><path
     d="m 121.38486,28.894942 12.27036,-0.746891 v 6.908747 H 115.3297 l 0.6402,-21.419784 17.36523,-0.800241 -0.66687,6.481952 -11.2834,-1.200361 v 4.001205 l 8.5359,-0.666868 v 5.78841 l -8.5359,-0.346771 z"
     style="font-family:'Coconut Days';-inkscape-font-specification:'Coconut Days'"
     id="path4380" /></g></g>
</svg>
