<?xml version="1.0" encoding="UTF-8" standalone="no"?>
<svg
   version="1.0"
   width="71.179268mm"
   height="18.271067mm"
   id="svg866"
   xmlns="http://www.w3.org/2000/svg"
   xmlns:svg="http://www.w3.org/2000/svg">
  <defs
     id="defs862">
    <pattern
       id="EMFhbasepattern"
       patternUnits="userSpaceOnUse"
       width="6"
       height="6"
       x="0"
       y="0" />
  </defs>
  <path
     style="fill:#0000dc;fill-rule:nonzero;fill-opacity:1;stroke:none;"
     d="  M -0.33333333,0.66666667   C 4,0.66666667 4,0.66666667 4,0.66666667   C 4,28.666667 4,28.666667 4,28.666667   C -0.33333333,28.666667 -0.33333333,28.666667 -0.33333333,28.666667   z  M 4,0.66666667   C 5.6666667,0.66666667 5.6666667,0.66666667 5.6666667,0.66666667   C 8.3333333,28.666667 8.3333333,28.666667 8.3333333,28.666667   C 7,28.666667 7,28.666667 7,28.666667   z  M 11.333333,0.66666667   C 12.666667,0.66666667 12.666667,0.66666667 12.666667,0.66666667   C 10,28.666667 10,28.666667 10,28.666667   C 8.6666667,28.666667 8.6666667,28.666667 8.6666667,28.666667   z  M 13,0.66666667   C 17.333333,0.66666667 17.333333,0.66666667 17.333333,0.66666667   C 17.333333,28.666667 17.333333,28.666667 17.333333,28.666667   C 13,28.666667 13,28.666667 13,28.666667   z  M 36.333333,0.66666667   C 34.333333,16.333333 34.333333,16.333333 34.333333,16.333333   C 38.666667,16.333333 38.666667,16.333333 38.666667,16.333333   C 36.666667,0.66666667 36.666667,0.66666667 36.666667,0.66666667   C 40.666667,0.66666667 40.666667,0.66666667 40.666667,0.66666667   C 44.666667,28.666667 44.666667,28.666667 44.666667,28.666667   C 40.333333,28.666667 40.333333,28.666667 40.333333,28.666667   C 39,20.333333 39,20.333333 39,20.333333   C 33.666667,20.333333 33.666667,20.333333 33.666667,20.333333   C 32.666667,28.666667 32.666667,28.666667 32.666667,28.666667   C 28.333333,28.666667 28.333333,28.666667 28.333333,28.666667   C 32.333333,0.66666667 32.333333,0.66666667 32.333333,0.66666667   z  M 57.333333,22.333333   C 57.333333,20.666667 57.333333,20.666667 57.333333,20.666667   C 61.666667,20.666667 61.666667,20.666667 61.666667,20.666667   C 61.666667,22 61.666667,22 61.666667,22   C 61.666667,23.666667 63,24.666667 64.333333,24.666667   C 65.666667,24.666667 67,23.666667 67,22   C 67,19.333333 67,19.333333 67,19.333333   C 67,17.666667 65.333333,17 63.666667,16.666667   C 60,16 57.333333,13.666667 57.333333,10   C 57.333333,7 57.333333,7 57.333333,7   C 57.333333,3.3333333 60.666667,0.33333333 64.333333,0.33333333   C 68,0.33333333 71.333333,3.3333333 71.333333,7   C 71.333333,8.6666667 71.333333,8.6666667 71.333333,8.6666667   C 67,8.6666667 67,8.6666667 67,8.6666667   C 67,7.3333333 67,7.3333333 67,7.3333333   C 67,5.6666667 65.666667,4.6666667 64.333333,4.6666667   C 63,4.6666667 61.666667,5.6666667 61.666667,7.3333333   C 61.666667,10 61.666667,10 61.666667,10   C 61.666667,11.666667 63.333333,12.333333 65,12.666667   C 68.666667,13 71.333333,15.666667 71.333333,19.333333   C 71.333333,22.333333 71.333333,22.333333 71.333333,22.333333   C 71.333333,26 68,29 64.333333,29   C 60.666667,29 57.333333,26 57.333333,22.333333   z  M 92.333333,0.66666667   C 90.333333,16.333333 90.333333,16.333333 90.333333,16.333333   C 94.666667,16.333333 94.666667,16.333333 94.666667,16.333333   C 92.666667,0.66666667 92.666667,0.66666667 92.666667,0.66666667   C 96.666667,0.66666667 96.666667,0.66666667 96.666667,0.66666667   C 100.66667,28.666667 100.66667,28.666667 100.66667,28.666667   C 96.333333,28.666667 96.333333,28.666667 96.333333,28.666667   C 95,20.333333 95,20.333333 95,20.333333   C 89.666667,20.333333 89.666667,20.333333 89.666667,20.333333   C 88.666667,28.666667 88.666667,28.666667 88.666667,28.666667   C 84.333333,28.666667 84.333333,28.666667 84.333333,28.666667   C 88.333333,0.66666667 88.333333,0.66666667 88.333333,0.66666667   z  M 121.66667,0.66666667   C 125,0.66666667 128.33333,3.6666667 128.33333,7.3333333   C 128.33333,11 128.33333,11 128.33333,11   C 128.33333,13.333333 127,15.333333 125,16.666667   C 129.66667,28.666667 129.66667,28.666667 129.66667,28.666667   C 124.66667,28.666667 124.66667,28.666667 124.66667,28.666667   C 120.66667,17.666667 120.66667,17.666667 120.66667,17.666667   C 118.66667,17.666667 118.66667,17.666667 118.66667,17.666667   C 118.66667,28.666667 118.66667,28.666667 118.66667,28.666667   C 114.33333,28.666667 114.33333,28.666667 114.33333,28.666667   C 114.33333,0.66666667 114.33333,0.66666667 114.33333,0.66666667   z  M 124,10   C 124,7.6666667 124,7.6666667 124,7.6666667   C 124,5.6666667 122.33333,4.6666667 120.66667,4.6666667   C 118.66667,4.6666667 118.66667,4.6666667 118.66667,4.6666667   C 118.66667,13.333333 118.66667,13.333333 118.66667,13.333333   C 120.66667,13.333333 120.66667,13.333333 120.66667,13.333333   C 122.66667,13.333333 124,12.666667 124,10   z  M 140,0.66666667   C 144.66667,0.66666667 144.66667,0.66666667 144.66667,0.66666667   C 148.33333,12 148.33333,12 148.33333,12   C 152,0.66666667 152,0.66666667 152,0.66666667   C 156.66667,0.66666667 156.66667,0.66666667 156.66667,0.66666667   C 150.66667,18 150.66667,18 150.66667,18   C 150.66667,28.666667 150.66667,28.666667 150.66667,28.666667   C 146.33333,28.666667 146.33333,28.666667 146.33333,28.666667   C 146.33333,18 146.33333,18 146.33333,18   z  M 175,0.66666667   C 175,28.666667 175,28.666667 175,28.666667   C 170.66667,28.666667 170.66667,28.666667 170.66667,28.666667   C 170.66667,0.66666667 170.66667,0.66666667 170.66667,0.66666667   z  M 180.33333,0.66666667   C 185,0.66666667 185,0.66666667 185,0.66666667   C 179.66667,14.333333 179.66667,14.333333 179.66667,14.333333   C 185.33333,28.666667 185.33333,28.666667 185.33333,28.666667   C 180.33333,28.666667 180.33333,28.666667 180.33333,28.666667   C 175,14.666667 175,14.666667 175,14.666667   z  M 5.6666667,40.666667   C 5.6666667,62 5.6666667,62 5.6666667,62   C 5.6666667,63.666667 7,64.666667 8.3333333,64.666667   C 9.6666667,64.666667 11,63.666667 11,62   C 11,40.666667 11,40.666667 11,40.666667   C 15.333333,40.666667 15.333333,40.666667 15.333333,40.666667   C 15.333333,62.333333 15.333333,62.333333 15.333333,62.333333   C 15.333333,66 12,69 8.3333333,69   C 4.6666667,69 1.3333333,66 1.3333333,62.333333   C 1.3333333,40.666667 1.3333333,40.666667 1.3333333,40.666667   z  M 33.333333,40.666667   C 33.333333,68.666667 33.333333,68.666667 33.333333,68.666667   C 29,68.666667 29,68.666667 29,68.666667   C 29,40.666667 29,40.666667 29,40.666667   z  M 35,40.666667   C 39.333333,68.666667 39.333333,68.666667 39.333333,68.666667   C 37.666667,68.666667 37.666667,68.666667 37.666667,68.666667   C 33.666667,40.666667 33.666667,40.666667 33.666667,40.666667   z  M 44,40.666667   C 44,68.666667 44,68.666667 44,68.666667   C 39.333333,68.666667 39.333333,68.666667 39.333333,68.666667   C 39.333333,40.666667 39.333333,40.666667 39.333333,40.666667   z  M 62.333333,67   C 62.333333,42.333333 62.333333,42.333333 62.333333,42.333333   C 58.333333,42.333333 58.333333,42.333333 58.333333,42.333333   C 58.333333,40.666667 58.333333,40.666667 58.333333,40.666667   C 70.333333,40.666667 70.333333,40.666667 70.333333,40.666667   C 70.333333,42.333333 70.333333,42.333333 70.333333,42.333333   C 66.666667,42.333333 66.666667,42.333333 66.666667,42.333333   C 66.666667,67 66.666667,67 66.666667,67   C 70.333333,67 70.333333,67 70.333333,67   C 70.333333,68.666667 70.333333,68.666667 70.333333,68.666667   C 58.333333,68.666667 58.333333,68.666667 58.333333,68.666667   C 58.333333,67 58.333333,67 58.333333,67   z  M 88.666667,40.666667   C 92.333333,68.666667 92.333333,68.666667 92.333333,68.666667   C 88.333333,68.666667 88.333333,68.666667 88.333333,68.666667   C 84.333333,40.666667 84.333333,40.666667 84.333333,40.666667   z  M 100.66667,40.666667   C 96.666667,68.666667 96.666667,68.666667 96.666667,68.666667   C 92.666667,68.666667 92.666667,68.666667 92.666667,68.666667   C 96,40.666667 96,40.666667 96,40.666667   z  M 114,40.666667   C 127.66667,40.666667 127.66667,40.666667 127.66667,40.666667   C 127.66667,44.666667 127.66667,44.666667 127.66667,44.666667   C 118.66667,44.666667 118.66667,44.666667 118.66667,44.666667   C 118.66667,52 118.66667,52 118.66667,52   C 127,52 127,52 127,52   C 127,56 127,56 127,56   C 118.66667,56 118.66667,56 118.66667,56   C 118.66667,64.666667 118.66667,64.666667 118.66667,64.666667   C 127.66667,64.666667 127.66667,64.666667 127.66667,64.666667   C 127.66667,68.666667 127.66667,68.666667 127.66667,68.666667   C 114,68.666667 114,68.666667 114,68.666667   z  M 149.66667,40.666667   C 153,40.666667 156.33333,43.666667 156.33333,47.333333   C 156.33333,51 156.33333,51 156.33333,51   C 156.33333,53.333333 155,55.333333 153,56.666667   C 157.66667,68.666667 157.66667,68.666667 157.66667,68.666667   C 152.66667,68.666667 152.66667,68.666667 152.66667,68.666667   C 148.66667,57.666667 148.66667,57.666667 148.66667,57.666667   C 146.66667,57.666667 146.66667,57.666667 146.66667,57.666667   C 146.66667,68.666667 146.66667,68.666667 146.66667,68.666667   C 142.33333,68.666667 142.33333,68.666667 142.33333,68.666667   C 142.33333,40.666667 142.33333,40.666667 142.33333,40.666667   z  M 152,50   C 152,47.666667 152,47.666667 152,47.666667   C 152,45.666667 150.33333,44.666667 148.66667,44.666667   C 146.66667,44.666667 146.66667,44.666667 146.66667,44.666667   C 146.66667,53.333333 146.66667,53.333333 146.66667,53.333333   C 148.66667,53.333333 148.66667,53.333333 148.66667,53.333333   C 150.66667,53.333333 152,52.666667 152,50   z  M 169.33333,62.333333   C 169.33333,60.666667 169.33333,60.666667 169.33333,60.666667   C 173.66667,60.666667 173.66667,60.666667 173.66667,60.666667   C 173.66667,62 173.66667,62 173.66667,62   C 173.66667,63.666667 175,64.666667 176.33333,64.666667   C 177.66667,64.666667 179,63.666667 179,62   C 179,59.333333 179,59.333333 179,59.333333   C 179,57.666667 177.33333,57 175.66667,56.666667   C 172,56 169.33333,53.666667 169.33333,50   C 169.33333,47 169.33333,47 169.33333,47   C 169.33333,43.333333 172.66667,40.333333 176.33333,40.333333   C 180,40.333333 183.33333,43.333333 183.33333,47   C 183.33333,48.666667 183.33333,48.666667 183.33333,48.666667   C 179,48.666667 179,48.666667 179,48.666667   C 179,47.333333 179,47.333333 179,47.333333   C 179,45.666667 177.66667,44.666667 176.33333,44.666667   C 175,44.666667 173.66667,45.666667 173.66667,47.333333   C 173.66667,50 173.66667,50 173.66667,50   C 173.66667,51.666667 175.33333,52.333333 177,52.666667   C 180.66667,53 183.33333,55.666667 183.33333,59.333333   C 183.33333,62.333333 183.33333,62.333333 183.33333,62.333333   C 183.33333,66 180,69 176.33333,69   C 172.66667,69 169.33333,66 169.33333,62.333333   z  M 202.33333,67   C 202.33333,42.333333 202.33333,42.333333 202.33333,42.333333   C 198.33333,42.333333 198.33333,42.333333 198.33333,42.333333   C 198.33333,40.666667 198.33333,40.666667 198.33333,40.666667   C 210.33333,40.666667 210.33333,40.666667 210.33333,40.666667   C 210.33333,42.333333 210.33333,42.333333 210.33333,42.333333   C 206.66667,42.333333 206.66667,42.333333 206.66667,42.333333   C 206.66667,67 206.66667,67 206.66667,67   C 210.33333,67 210.33333,67 210.33333,67   C 210.33333,68.666667 210.33333,68.666667 210.33333,68.666667   C 198.33333,68.666667 198.33333,68.666667 198.33333,68.666667   C 198.33333,67 198.33333,67 198.33333,67   z  M 224,44.666667   C 224,40.666667 224,40.666667 224,40.666667   C 241,40.666667 241,40.666667 241,40.666667   C 241,44.666667 241,44.666667 241,44.666667   C 234.66667,44.666667 234.66667,44.666667 234.66667,44.666667   C 234.66667,68.666667 234.66667,68.666667 234.66667,68.666667   C 230.33333,68.666667 230.33333,68.666667 230.33333,68.666667   C 230.33333,44.666667 230.33333,44.666667 230.33333,44.666667   z  M 252,40.666667   C 256.66667,40.666667 256.66667,40.666667 256.66667,40.666667   C 260.33333,52 260.33333,52 260.33333,52   C 264,40.666667 264,40.666667 264,40.666667   C 268.66667,40.666667 268.66667,40.666667 268.66667,40.666667   C 262.66667,58 262.66667,58 262.66667,58   C 262.66667,68.666667 262.66667,68.666667 262.66667,68.666667   C 258.33333,68.666667 258.33333,68.666667 258.33333,68.666667   C 258.33333,58 258.33333,58 258.33333,58   z "
     id="path864" />
</svg>
