<svg id="Capa_1" enable-background="new 0 0 512 512" viewBox="0 0 512 512"
     xmlns="http://www.w3.org/2000/svg">
    <path d="m488.468 95.677h-464.936c-8.854 0-16.032 7.178-16.032 16.032v288.581c0 8.854 7.178 16.032 16.032 16.032h464.935c8.854 0 16.032-7.178 16.032-16.032v-288.58c.001-8.855-7.177-16.033-16.031-16.033z"
          fill="#ffc269"/>
    <path d="m48.22 383.75c-8.854 0-16.032-7.178-16.032-16.032v-272.041h-8.655c-8.854 0-16.032 7.178-16.032 16.032v288.581c0 8.854 7.179 16.032 16.032 16.032h464.935c8.854 0 16.032-7.178 16.032-16.032v-8.874h-412.167l-2.083-7.667h-42.03z"
          fill="#ffa95f"/>
    <g fill="#ffc269">
        <path d="m368.226 63.613c-8.854 0-16.032-7.178-16.032-16.032v-16.033c0-8.854 7.178-16.032 16.032-16.032 8.854 0 16.032 7.178 16.032 16.032v16.032c0 8.855-7.178 16.033-16.032 16.033z"/>
        <path d="m368.226 496.484c-8.854 0-16.032-7.178-16.032-16.032v-16.032c0-8.854 7.178-16.032 16.032-16.032 8.854 0 16.032 7.178 16.032 16.032v16.032c0 8.854-7.178 16.032-16.032 16.032z"/>
        <path d="m304.097 63.613c-8.854 0-16.032-7.178-16.032-16.032v-16.033c0-8.854 7.178-16.032 16.032-16.032 8.854 0 16.032 7.178 16.032 16.032v16.032c0 8.855-7.178 16.033-16.032 16.033z"/>
        <path d="m304.097 496.484c-8.854 0-16.032-7.178-16.032-16.032v-16.032c0-8.854 7.178-16.032 16.032-16.032 8.854 0 16.032 7.178 16.032 16.032v16.032c0 8.854-7.178 16.032-16.032 16.032z"/>
        <path d="m207.903 63.613c-8.854 0-16.032-7.178-16.032-16.032v-16.033c0-8.854 7.178-16.032 16.032-16.032 8.854 0 16.032 7.178 16.032 16.032v16.032c0 8.855-7.177 16.033-16.032 16.033z"/>
        <path d="m207.903 496.484c-8.854 0-16.032-7.178-16.032-16.032v-16.032c0-8.854 7.178-16.032 16.032-16.032 8.854 0 16.032 7.178 16.032 16.032v16.032c0 8.854-7.177 16.032-16.032 16.032z"/>
    </g>
    <path d="m39.565 127.742h432.871v256.516h-432.871z" fill="#95d6a4"/>
    <path d="m416.323 360.21h-320.646c-17.709 0-32.065-14.356-32.065-32.065v-144.29c0-17.709 14.356-32.065 32.065-32.065h320.645c17.709 0 32.065 14.356 32.065 32.065v144.29c0 17.709-14.356 32.065-32.064 32.065z"
          fill="#b3e59f"/>
    <path d="m143.774 63.613c-8.854 0-16.032-7.178-16.032-16.032v-16.033c0-8.854 7.178-16.032 16.032-16.032 8.854 0 16.032 7.178 16.032 16.032v16.032c0 8.855-7.177 16.033-16.032 16.033z"
          fill="#ffc269"/>
    <circle cx="143.774" cy="183.855" fill="#ff8086" r="16.032"/>
    <circle cx="143.774" cy="328.145" fill="#ff8086" r="16.032"/>
    <circle cx="143.774" cy="256" fill="#ff8086" r="16.032"/>
    <path d="m143.774 496.484c-8.854 0-16.032-7.178-16.032-16.032v-16.032c0-8.854 7.178-16.032 16.032-16.032 8.854 0 16.032 7.178 16.032 16.032v16.032c0 8.854-7.177 16.032-16.032 16.032z"
          fill="#ffc269"/>
    <circle cx="207.903" cy="183.855" fill="#8bb3ea" r="16.032"/>
    <circle cx="207.903" cy="328.145" fill="#8bb3ea" r="16.032"/>
    <circle cx="207.903" cy="256" fill="#8bb3ea" r="16.032"/>
    <circle cx="368.226" cy="183.855" fill="#8bb3ea" r="16.032"/>
    <circle cx="368.226" cy="328.145" fill="#8bb3ea" r="16.032"/>
    <circle cx="368.226" cy="256" fill="#8bb3ea" r="16.032"/>
    <circle cx="304.097" cy="183.855" fill="#ff8086" r="16.032"/>
    <circle cx="304.097" cy="328.145" fill="#ff8086" r="16.032"/>
    <circle cx="304.097" cy="256" fill="#ff8086" r="16.032"/>
    <path d="m488.468 88.177h-112.742v-18.297c9.308-3.139 16.033-11.946 16.033-22.3v-16.032c0-12.976-10.557-23.532-23.533-23.532s-23.532 10.557-23.532 23.532v16.032c0 10.353 6.724 19.16 16.032 22.3v18.297h-49.129v-18.297c9.308-3.139 16.032-11.946 16.032-22.3v-16.032c0-12.976-10.557-23.532-23.532-23.532s-23.532 10.557-23.532 23.532v16.032c0 10.353 6.724 19.16 16.032 22.3v18.297h-81.193v-18.297c9.308-3.139 16.032-11.946 16.032-22.3v-16.032c0-12.976-10.557-23.532-23.532-23.532s-23.532 10.557-23.532 23.532v16.032c0 10.353 6.724 19.16 16.032 22.3v18.297h-49.129v-18.297c9.308-3.139 16.032-11.946 16.032-22.3v-16.032c0-12.976-10.557-23.532-23.532-23.532-12.976 0-23.533 10.557-23.533 23.532v16.032c0 10.354 6.724 19.16 16.033 22.3v18.297h-112.743c-12.975 0-23.532 10.557-23.532 23.532v288.581c0 12.976 10.557 23.532 23.532 23.532h112.742v18.297c-9.309 3.139-16.033 11.946-16.033 22.3v16.032c0 12.976 10.557 23.532 23.533 23.532s23.532-10.557 23.532-23.532v-16.032c0-10.353-6.724-19.16-16.032-22.3v-18.297h49.129v18.297c-9.308 3.139-16.032 11.946-16.032 22.3v16.032c0 12.976 10.557 23.532 23.532 23.532s23.532-10.557 23.532-23.532v-16.032c0-10.353-6.724-19.16-16.032-22.3v-18.297h81.193v18.297c-9.308 3.139-16.032 11.946-16.032 22.3v16.032c0 12.976 10.557 23.532 23.532 23.532s23.532-10.557 23.532-23.532v-16.032c0-10.353-6.724-19.16-16.032-22.3v-18.297h49.129v18.297c-9.308 3.139-16.032 11.946-16.032 22.3v16.032c0 12.976 10.557 23.532 23.532 23.532 12.976 0 23.533-10.557 23.533-23.532v-16.032c0-10.354-6.724-19.16-16.033-22.3v-18.297h112.742c12.976 0 23.532-10.557 23.532-23.532v-288.581c.001-12.975-10.556-23.532-23.531-23.532zm-128.775-56.629c0-4.705 3.828-8.532 8.532-8.532 4.705 0 8.533 3.828 8.533 8.532v16.032c0 4.705-3.828 8.532-8.533 8.532s-8.532-3.828-8.532-8.532zm-64.129 0c0-4.705 3.828-8.532 8.532-8.532s8.532 3.828 8.532 8.532v16.032c0 4.705-3.828 8.532-8.532 8.532s-8.532-3.828-8.532-8.532zm-96.193 0c0-4.705 3.828-8.532 8.532-8.532s8.532 3.828 8.532 8.532v16.032c0 4.705-3.828 8.532-8.532 8.532s-8.532-3.828-8.532-8.532zm-64.129 0c0-4.705 3.828-8.532 8.533-8.532s8.532 3.828 8.532 8.532v16.032c0 4.705-3.828 8.532-8.532 8.532-4.705 0-8.533-3.828-8.533-8.532zm17.065 448.904c0 4.705-3.828 8.532-8.532 8.532-4.705 0-8.533-3.828-8.533-8.532v-16.032c0-4.705 3.828-8.532 8.533-8.532s8.532 3.828 8.532 8.532zm64.129 0c0 4.705-3.828 8.532-8.532 8.532s-8.532-3.828-8.532-8.532v-16.032c0-4.705 3.828-8.532 8.532-8.532s8.532 3.828 8.532 8.532zm96.193 0c0 4.705-3.828 8.532-8.532 8.532s-8.532-3.828-8.532-8.532v-16.032c0-4.705 3.828-8.532 8.532-8.532s8.532 3.828 8.532 8.532zm64.129 0c0 4.705-3.828 8.532-8.533 8.532s-8.532-3.828-8.532-8.532v-16.032c0-4.705 3.828-8.532 8.532-8.532 4.705 0 8.533 3.828 8.533 8.532zm120.242-80.161c0 4.705-3.828 8.532-8.532 8.532h-464.936c-4.705 0-8.532-3.828-8.532-8.532v-288.582c0-4.705 3.828-8.532 8.532-8.532h464.936c4.705 0 8.532 3.828 8.532 8.532z"/>
    <path d="m472.436 120.242h-16.033c-4.142 0-7.5 3.358-7.5 7.5s3.358 7.5 7.5 7.5h8.533v65.162h-48.613c-4.142 0-7.5 3.358-7.5 7.5v96.193c0 4.142 3.358 7.5 7.5 7.5h48.613v65.162h-89.21v-26.314c9.308-3.139 16.033-11.946 16.033-22.3s-6.724-19.16-16.033-22.3v-27.545c9.308-3.139 16.033-11.946 16.033-22.3s-6.724-19.16-16.033-22.3v-27.546c9.308-3.139 16.033-11.946 16.033-22.3s-6.724-19.16-16.033-22.3v-26.314h48.612c4.142 0 7.5-3.358 7.5-7.5s-3.358-7.5-7.5-7.5h-384.774c-4.142 0-7.5 3.358-7.5 7.5v256.517c0 4.142 3.358 7.5 7.5 7.5h16.033c4.142 0 7.5-3.358 7.5-7.5s-3.358-7.5-7.5-7.5h-8.533v-65.162h48.613c4.142 0 7.5-3.358 7.5-7.5v-96.193c0-4.142-3.358-7.5-7.5-7.5h-48.613v-65.162h89.21v26.314c-9.309 3.139-16.033 11.946-16.033 22.3s6.724 19.16 16.033 22.3v27.546c-9.309 3.139-16.033 11.946-16.033 22.3s6.724 19.16 16.033 22.3v27.546c-9.309 3.139-16.033 11.946-16.033 22.3s6.724 19.16 16.033 22.3v26.314h-48.612c-4.142 0-7.5 3.358-7.5 7.5s3.358 7.5 7.5 7.5h384.773c4.142 0 7.5-3.358 7.5-7.5v-256.518c.001-4.142-3.357-7.5-7.499-7.5zm-384.259 95.161v81.193h-41.113v-81.193zm280.049 121.274c-4.705 0-8.532-3.828-8.532-8.532s3.828-8.532 8.532-8.532c4.705 0 8.533 3.828 8.533 8.532s-3.828 8.532-8.533 8.532zm0-72.145c-4.705 0-8.532-3.828-8.532-8.532s3.828-8.532 8.532-8.532c4.705 0 8.533 3.828 8.533 8.532s-3.828 8.532-8.533 8.532zm0-72.145c-4.705 0-8.532-3.828-8.532-8.532s3.828-8.532 8.532-8.532c4.705 0 8.533 3.828 8.533 8.532s-3.828 8.532-8.533 8.532zm-7.5-30.832c-9.308 3.139-16.032 11.946-16.032 22.3s6.724 19.16 16.032 22.3v27.545c-9.308 3.139-16.032 11.946-16.032 22.3s6.724 19.16 16.032 22.3v27.546c-9.308 3.139-16.032 11.946-16.032 22.3s6.724 19.16 16.032 22.3v26.314h-49.129v-26.314c9.308-3.139 16.032-11.946 16.032-22.3s-6.724-19.16-16.032-22.3v-27.546c9.308-3.139 16.032-11.946 16.032-22.3s-6.724-19.16-16.032-22.3v-27.546c9.308-3.139 16.032-11.946 16.032-22.3s-6.724-19.16-16.032-22.3v-26.314h49.129zm-152.823 13.768c4.705 0 8.532 3.828 8.532 8.532s-3.828 8.532-8.532 8.532-8.532-3.828-8.532-8.532 3.828-8.532 8.532-8.532zm7.5 30.832c9.308-3.139 16.032-11.946 16.032-22.3s-6.724-19.16-16.032-22.3v-26.314h33.097v65.681c-12.794 1.745-24.452 7.891-33.097 17.111zm88.694 130.522c-4.705 0-8.532-3.828-8.532-8.532s3.828-8.532 8.532-8.532 8.532 3.828 8.532 8.532-3.828 8.532-8.532 8.532zm-83.532-100.497c5.871-10.48 16.143-17.85 27.935-20.072v79.783c-11.793-2.222-22.064-9.591-27.935-20.072 6.53-4.187 10.871-11.504 10.871-19.82 0-8.315-4.341-15.632-10.871-19.819zm42.935-20.071c11.791 2.222 22.063 9.592 27.935 20.072-6.53 4.187-10.87 11.504-10.87 19.82s4.34 15.633 10.87 19.82c-5.871 10.48-16.143 17.85-27.935 20.072zm40.597 48.423c-4.705 0-8.532-3.828-8.532-8.532s3.828-8.532 8.532-8.532 8.532 3.828 8.532 8.532-3.828 8.532-8.532 8.532zm0-72.145c-4.705 0-8.532-3.828-8.532-8.532s3.828-8.532 8.532-8.532 8.532 3.828 8.532 8.532-3.828 8.532-8.532 8.532zm-7.5-30.832c-9.308 3.139-16.032 11.946-16.032 22.3s6.724 19.16 16.032 22.3v11.88c-8.645-9.22-20.304-15.366-33.097-17.112v-65.681h33.097zm-88.694 85.913c4.705 0 8.532 3.828 8.532 8.532s-3.828 8.532-8.532 8.532-8.532-3.828-8.532-8.532 3.828-8.532 8.532-8.532zm0 72.145c4.705 0 8.532 3.828 8.532 8.532s-3.828 8.532-8.532 8.532-8.532-3.828-8.532-8.532 3.828-8.532 8.532-8.532zm7.5 30.832c9.308-3.139 16.032-11.946 16.032-22.3s-6.724-19.16-16.032-22.3v-11.878c8.644 9.219 20.302 15.365 33.097 17.11v65.681h-33.097zm48.097-39.367c12.794-1.745 24.452-7.891 33.097-17.111v11.879c-9.308 3.139-16.032 11.946-16.032 22.3s6.724 19.16 16.032 22.3v26.314h-33.097zm-119.726-135.755c4.705 0 8.532 3.828 8.532 8.532s-3.828 8.532-8.532 8.532c-4.705 0-8.533-3.828-8.533-8.532s3.828-8.532 8.533-8.532zm0 72.145c4.705 0 8.532 3.828 8.532 8.532s-3.828 8.532-8.532 8.532c-4.705 0-8.533-3.828-8.533-8.532s3.828-8.532 8.533-8.532zm0 72.145c4.705 0 8.532 3.828 8.532 8.532s-3.828 8.532-8.532 8.532c-4.705 0-8.533-3.828-8.533-8.532s3.828-8.532 8.533-8.532zm7.5 30.832c9.308-3.139 16.032-11.946 16.032-22.3s-6.724-19.16-16.032-22.3v-27.545c9.308-3.139 16.032-11.946 16.032-22.3s-6.724-19.16-16.032-22.3v-27.546c9.308-3.139 16.032-11.946 16.032-22.3s-6.724-19.16-16.032-22.3v-26.314h49.129v26.314c-9.308 3.139-16.032 11.946-16.032 22.3s6.724 19.16 16.032 22.3v27.546c-9.308 3.139-16.032 11.946-16.032 22.3s6.724 19.16 16.032 22.3v27.546c-9.308 3.139-16.032 11.946-16.032 22.3s6.724 19.16 16.032 22.3v26.314h-49.129zm272.549-53.848v-81.193h41.113v81.193z"/>
</svg>
