<?xml version="1.0" encoding="UTF-8" standalone="no"?>
<!-- Created with Inkscape (http://www.inkscape.org/) -->

<svg
   width="135.73125mm"
   height="143.93333mm"
   viewBox="0 0 135.73125 143.93333"
   version="1.1"
   id="svg1363"
   xmlns="http://www.w3.org/2000/svg"
   xmlns:svg="http://www.w3.org/2000/svg">
  <defs
     id="defs1360" />
  <g
     id="layer1"
     transform="translate(-116.70338,-31.245574)">
    <g
       id="tails"
       transform="matrix(0.26458333,0,0,0.26458333,72.517966,-2.0919257)">
      <g
         fill="#fcaf39"
         id="g1148">
        <path
           d="m 167,139 h 1 v 1 h -1 z m 56,-5 c 2,2 3,3 2,5 h 2 l 3,-2 1,1 v 5 h 1 v -4 h 2 l -1,1 2,2 1,-1 -1,3 v -1 l -1,-1 v 2 l 1,1 v -1 h 3 c 0,4 1,6 2,7 v -2 l 1,1 h 2 v 3 h -1 l -1,-2 -1,2 3,3 6,1 v 1 h 3 l 1,1 1,-1 v 2 l 1,-1 1,1 h 2 v 1 h 2 v 1 l 4,-1 c 1,1 2,1 1,2 l 5,-1 1,2 5,-1 v 1 l 5,2 3,1 -1,1 v 1 l 2,-1 c 2,2 3,4 2,7 l 1,3 -3,4 1,2 h -1 l -1,-1 h -1 l 1,1 -4,3 -1,-1 v 1 l -1,-1 -1,1 h 2 -1 l -2,1 1,1 v 1 l -1,-1 h -1 l -11,-1 -1,-1 h -1 l -3,1 v -2 l -4,1 -2,-1 h -2 l -1,-2 c -2,1 -3,2 -5,1 v -1 1 l -1,-1 -7,-1 v -1 l -2,1 2,1 -2,3 v 4 l -1,-1 v 2 l -1,2 1,2 v 1 h -1 v 1 l -1,2 -1,1 2,-1 v 2 h -2 v 2 h 1 l -2,3 v 3 h -1 l -1,7 v 1 l -1,2 -1,1 1,2 h -1 l -2,11 v -1 l -1,3 -1,1 h 1 l -1,1 v 1 l 1,1 -1,2 1,1 h -2 l -1,8 h -1 l -1,6 v -1 2 l -1,1 v 2 h -1 l -1,7 -1,1 1,1 h -2 v 7 c -1,-1 -2,0 -3,2 v 1 l 2,-2 v 4 l -1,1 -1,1 v 2 l -1,-1 h -1 l 2,2 v 1 l -1,-1 h -2 v 1 l -1,3 -4,4 v 2 l -1,1 v 1 h -1 v -1 l -2,1 v 2 l -3,1 c 0,-1 0,-2 -2,-2 l -4,-1 c 1,0 0,-2 -3,-5 v -3 l 2,-1 -2,-3 h 1 v -4 l 1,-2 -1,-2 2,-1 -1,-1 2,-3 1,-3 v -1 l 1,-1 v -1 l 1,-4 v -1 l 1,-1 1,-4 v -3 h 1 v -1 l 2,-3 -1,-3 h 1 l 1,-4 v -1 l 2,-2 1,-5 v -1 l 1,-1 v -4 l 1,-1 1,-3 -2,-1 2,-2 v -6 l 1,-2 -1,-1 2,-2 c -1,-2 -2,-4 -1,-7 l 1,-1 -1,-5 2,-1 v -1 h -2 v -1 h 1 v -5 l 1,-1 -2,-1 h 1 v -3 l 1,1 1,-1 -2,-5 1,-1 -1,-4 v -1 l 2,1 v -4 l -3,1 v -1 h 2 v -1 h -1 l -1,-1 h -3 v -1 h 1 -3 l -3,-1 2,-1 -1,-1 -3,1 -1,-1 h -1 l -1,-1 -2,-1 -1,-1 h -1 l -1,-1 -2,1 -1,-2 h -3 l -1,-3 -1,1 c -4,-4 -6,-6 -7,-9 v 1 l -2,-2 1,-1 v -3 l -1,-1 -1,2 -1,-1 h 1 v -1 l -1,-1 v -1 l 1,1 1,-1 c -2,0 -3,-1 -2,-2 l 2,-3 h -3 l 2,-4 -2,-1 c 2,-2 4,-3 6,-2 v -1 l 1,-1 h -1 v -2 l 1,1 4,-1 1,1 h 2 v 1 h 5 v -2 h 2 c -1,1 0,2 1,3 l 1,-1 1,1 1,1 h 2 v -1 h 1 v 1 l 1,-1 1,3 -1,1 h 3 l 1,2 v -1 l 5,5 1,-1 3,3 5,-1 v 1 h 3 l 2,1 -2,-5 h 2 l 1,1 -1,1 v 1 h 1 l 4,1 v -3 h -2 v -1 h -1 v -1 z m -34,139 1,1 -1,1 z m 16,20 v 2 l -1,-1 z m 0,-159 v 2 l -1,-1 z m 12,8 v 1 h 1 v -1 z m 4,1 1,1 1,-2 z m 5,-13 v 1 l -1,-1 z m 1,11 h 1 l 1,-1 z m 2,-7 v 2 h -1 l -1,-1 h 1 z m -1,-3 1,1 h -2 z m 2,13 v 1 h 2 z m 1,-11 1,1 h 2 v 1 l -2,2 -2,-1 v -3 z m 1,-1 1,1 h -1 z m 3,53 -1,1 h 1 z m 1,-44 1,1 v 1 z m 3,10 v 1 h 1 z m 1,-9 1,1 -1,1 z m 1,2 1,3 -1,1 -1,-1 z m 25,45 h 1 v 1 h -1 z"
           id="path1142" />
        <path
           d="m 266,160 2,1 -2,3 h -1 l 1,-2 z m 2,16 v 1 h -1 l -1,-1 z m 1,2 1,1 -2,1 v -1 z m 0,-12 1,1 v 1 l -1,-1 -1,-1 z m 107,-13 2,2 v 1 l -2,2 1,1 1,-1 1,2 v -1 l -1,-2 2,-1 3,4 h 1 c 2,1 3,3 4,6 1,1 2,1 1,2 h -1 c 0,5 1,9 3,13 l -1,4 h 1 l 1,1 -1,1 1,1 -1,2 v 3 l -1,3 1,3 -1,1 -1,1 1,-1 1,2 -1,-1 v 2 l -2,-1 v 1 l 2,1 v 1 l -1,1 h -1 l -1,-1 c 0,2 1,3 2,3 l -1,1 v 1 l -1,-1 h -1 l 1,6 -3,1 v 2 l 1,1 v 1 l -4,-2 -1,2 h 3 v 3 l 2,-1 -2,1 h -1 l -1,-1 h -1 v 2 h 2 c -1,1 -1,2 -3,1 v 2 h 1 l 1,-2 1,1 -1,1 v 2 l -1,-1 -2,1 3,2 -1,1 -2,2 1,2 h -2 v 1 h 1 v 2 l -1,1 v 1 l -1,1 v 1 h -1 v 1 l 1,1 -1,1 -2,-2 v 1 l 1,1 h -2 l 2,3 -1,1 -1,-1 -1,3 1,1 -2,1 v -1 l -1,1 1,3 -1,-1 -1,3 v 1 h -2 l 1,2 h -1 v 6 l -1,2 h 1 l -2,3 h 2 l -3,1 1,3 h 1 l 1,-1 h 1 v 1 l 6,2 h 1 l 3,4 -1,1 v 4 c -1,2 -4,4 -9,5 l -6,1 v 3 l 1,1 -2,3 1,6 h -1 l 1,15 2,6 -1,1 3,9 -1,1 1,1 c -4,7 -7,10 -9,10 v 1 l -4,-3 -1,1 c 0,-1 -1,-3 -4,-5 l -1,-5 -1,-6 v -1 c 1,-1 0,-1 -1,-2 l 1,-1 v -1 l -1,-7 1,-1 -1,-1 1,-3 v -13 l -1,-5 h 1 l -1,-5 -4,1 -3,-1 h -3 l -1,-1 -1,1 h -5 l -5,2 v -1 h -5 l -4,2 -1,-1 -5,3 v -1 l -3,1 h -4 v 1 c 1,0 2,1 1,3 h 1 l 1,1 -1,1 2,2 -2,1 v -1 l -1,1 v 1 l 1,-1 h 1 v 2 l 3,-1 v 1 h -1 l 1,2 -1,1 -1,1 v -1 l 1,-1 -3,1 2,2 v 1 l -2,-1 h -1 l 3,2 -2,3 -1,-1 v 3 l -1,1 1,1 v -1 h 1 v 2 h -2 l -1,1 h 1 v 2 l -3,2 1,1 -1,1 h -1 c -1,2 -3,2 -6,2 h -4 l -1,-2 1,-1 -4,-3 1,-1 v -2 h -2 c 1,-2 0,-3 -1,-4 v -1 c 1,1 2,0 2,-2 l -1,-2 2,-1 -2,-1 1,-1 v 1 h 1 l 1,-1 -2,-1 2,-1 v 1 -4 l 1,1 v -6 l -2,-1 v -1 l 2,1 -2,-4 h -1 l -1,-2 -1,1 c -3,-2 -4,-3 -4,-5 h -1 v 1 h -1 l 1,-3 v -5 l 1,1 h 1 l 8,-6 v -1 h -1 v -1 l 2,-1 c -2,-1 -2,-3 -1,-8 -1,-1 -2,-3 -1,-4 0,0 0,-1 0,0 l -2,-5 1,-1 v -3 l -1,-5 h -2 v -1 l 1,-1 v -1 h 1 v -2 l 1,-1 h -1 v 1 l -1,-1 v -4 h 1 l -3,-4 2,-2 -2,-2 2,-2 -2,-3 v 1 h -1 l 1,-4 v -1 l -1,-6 1,1 -1,-2 v 1 -1 l 1,-2 -2,1 c 1,-1 0,-2 -1,-2 l 1,-1 -1,-3 h -1 v -2 h -1 l -1,1 h -1 v -1 l 3,-1 1,-2 -1,-2 v -2 h 1 l -1,-3 -2,2 -1,-2 h 1 v 1 l 1,-1 -2,-4 1,-1 -1,-3 h 2 v -2 h -1 l -2,-1 h 1 l -1,-3 v -1 l 2,-1 v -3 l -1,-1 h -1 l 1,-2 h -2 v -1 h 1 l -2,-3 3,2 1,-3 -1,-3 h -1 l -1,-3 -2,-8 1,1 1,-1 v -2 h 1 v 6 l 1,-1 v -2 l 2,-1 v -1 h -2 c 0,-1 0,-3 -2,-5 v -1 h 2 l 2,2 2,-1 -3,-1 1,-1 2,1 h 1 -1 v -1 l 1,-1 1,1 v 1 l -1,1 h 3 c 0,-1 -1,-2 -3,-2 l 1,-1 1,-1 v 1 h 2 l -1,1 h 1 v -1 l -2,-2 v -1 l 1,1 h 1 l -1,-1 h 1 v -2 2 h 1 l 3,-2 4,4 h 1 l -1,-1 1,-1 h 2 v 1 l 1,-1 h -1 3 l 1,1 h -1 l 1,1 v 1 l 1,3 h -1 l 3,1 v 1 h -2 v 1 h 4 -1 v 1 l 2,2 h -2 l 5,4 -1,1 1,1 h -1 l -1,-1 v 1 l 3,2 v 2 h -1 l -1,-1 v 1 l 1,2 -1,2 c 1,0 2,1 1,3 l -1,1 3,2 h -1 v 2 h -1 l -1,-1 v 6 l 1,1 v 1 h -1 v 2 h -1 v -1 h -1 l 2,4 -2,2 v 1 l 1,-1 v 1 h 2 v 1 h -1 l 1,1 h -1 v -1 h -1 l -1,2 c 2,0 2,1 2,3 l -1,1 v 1 h 1 v 2 l -1,1 1,1 -2,2 c 2,0 3,1 3,3 h -3 l 1,1 v 1 l -1,1 h 2 v 1 h -1 v 1 l -1,1 2,3 h -2 l 1,1 -1,1 2,1 -2,2 c 1,0 2,1 1,2 h -1 l 1,1 h 1 v 1 l -2,1 v 2 l -1,1 v 6 l 1,2 -1,2 1,2 -1,1 v 1 l 1,1 h 1 v 2 h -2 l 1,1 -2,1 v 1 h 2 l -1,2 v 2 l 1,4 v 1 h -1 l 2,3 -2,1 v 1 l -1,2 1,1 v -1 5 l 1,3 2,-1 1,1 h 2 l 1,1 9,-1 1,-1 1,1 9,-1 h 5 l 1,-1 2,1 2,-1 1,1 6,-1 v -2 l -1,-2 h 1 v 1 -2 l 1,-1 -1,-6 1,-1 -1,-1 1,-2 v 1 l -1,-1 1,-2 h -1 l 1,-2 v -2 h 1 l -1,-2 1,-1 -1,-1 1,-3 v -3 h 1 v -3 l 1,-2 v -1 l -2,1 v -1 l 1,-1 -1,-1 h 2 l -1,-1 1,-1 -1,-1 1,-1 v -3 h 1 l -1,-2 1,-3 -1,-4 1,-1 v -6 c 0,0 0,-1 0,0 v -2 l 1,-1 -1,-1 h 1 v -8 l 1,-3 v -2 l -1,-1 1,-1 h -1 l 2,-5 1,-8 v -1 l -1,-1 2,-4 -1,-1 1,-1 -1,-1 1,-1 2,3 -1,-5 v -2 l 1,2 2,-1 v -2 l -1,-1 -3,1 1,-1 2,-1 1,1 1,-1 v -2 l 2,-1 h -3 l 1,-1 3,-1 -1,-1 3,-1 v 1 c 1,-3 2,-4 3,-3 v 1 h 2 v 1 l 1,-1 2,1 1,2 h 1 v -3 z m -107,23 1,1 h -2 z m 1,11 v 1 l -1,1 v -1 z m -1,-29 1,1 v -2 z m 2,33 1,1 -1,1 v -1 h -2 z m -2,-16 h 1 z m 0,9 2,1 -2,1 z m 0,-36 1,1 h -1 z m 3,30 v 1 c -1,2 -1,3 -2,2 h -1 l 2,-1 v -1 z m -1,8 1,2 -2,-1 z m -1,10 h 1 l -1,1 z m 0,-8 1,1 v 1 l -1,-1 z m 1,-46 h 1 z m 0,23 v 1 h 1 v -1 z m 1,17 1,1 v -1 z m 0,-30 1,1 h 1 l -1,-1 z m 1,16 v 1 l 1,-1 z m 2,-25 1,1 h 1 l -1,1 -2,3 -1,-1 1,-1 -1,-1 v -1 h 2 z m -2,33 h 1 v -1 z m 0,16 h 1 l 1,-1 z m 0,8 1,1 h -1 z m 2,3 -1,1 z m -1,-50 1,1 h 1 l -1,-1 z m 0,5 v 1 h 1 v -1 z m 2,56 v 1 l -1,1 v -1 z m 1,-78 v 1 h -2 v -1 z m -2,83 1,1 h -1 z m 2,-14 v 1 z m 1,-68 v 1 l -1,1 v -1 z m -1,4 h 1 l 1,1 v 1 h -1 z m 0,184 h 1 v 1 z m 2,-174 1,1 v -1 z m 0,74 1,1 v -1 z m 2,-92 v 1 l -2,1 v -1 z m 0,6 v 1 h -1 z m -1,186 h 1 l 1,1 h -1 z m 1,-175 1,1 v -1 z m 0,167 h 1 l -1,1 z m 2,11 h 1 l 1,2 h -1 l -1,-1 -1,1 v -1 z m -1,-193 1,1 h -1 z m 1,4 h 1 v 1 z m 0,2 h 2 l -1,1 h -1 z m 0,-7 h 1 v 1 z m 0,12 2,1 v -2 z m 2,185 v 2 h -1 v -1 z m 0,-200 h 1 z m 0,6 h 1 v 1 z m 4,2 v 1 h -3 v -1 z m -3,9 h 1 v -1 z m 1,-7 1,1 h -1 z m 1,-6 1,1 h -1 z m 0,14 v 1 h 2 z m 0,-11 h 1 l 1,1 h -1 z m 1,4 1,1 1,-1 v 1 h -2 z m 0,-9 h 1 v 1 z m 0,202 h 1 v 1 z m 1,-189 h 1 z m 2,0 -1,3 h 3 l 1,-1 h -1 v -1 h 1 -1 l -1,1 h -1 z m 0,-11 h 1 v 1 z m 0,199 1,1 v 1 z m 1,-194 h 1 v 1 h -1 z m 0,10 1,1 v -1 z m 0,-4 h 1 v -1 z m 1,-4 1,2 -1,-1 z m 3,-9 h 1 z m 1,14 h 1 l -2,1 z m 0,-2 h 1 v 1 h -1 z m 0,9 v 1 l 2,1 -1,-2 z m 1,-7 h 1 l 1,3 -1,1 -1,-1 v -1 l 1,1 v -1 h -1 z m 1,164 1,1 v -1 z m 1,-153 -1,1 1,1 2,-1 -1,-1 z m 0,-5 1,1 1,-1 2,1 v 1 h -1 v 2 z m 1,-12 v 1 z m 1,178 v 1 l -1,1 v -1 z m 0,-63 1,2 h -2 v -1 z m -1,44 h 1 l 1,1 v 1 h -1 l -1,-1 z m 1,-71 v 2 l -1,-1 z m 0,81 v 1 h 1 v -1 z m 1,-12 2,1 v 5 h -1 l -1,-1 1,-1 z m 0,-122 v 1 h 1 v -1 z m 0,138 1,1 v 1 l -1,-1 z m 1,-150 -1,1 h 1 z m 1,-4 v 2 l -1,-1 z m -1,52 1,1 v 1 z m 0,104 1,1 h -1 z m 1,-158 3,3 -1,1 -1,-3 -1,1 -1,-1 z m -1,105 h 1 l -1,1 z m 2,-82 v 1 l -1,1 v -2 z m -1,76 h 1 v 1 h -1 z m 0,-84 h 1 v 1 h -1 z m 2,-2 1,1 -2,1 v -1 z m 36,160 1,1 v 1 l -1,-1 z m 12,-158 v 1 h 1 v -1 z m 3,-16 h 1 v 1 h -1 z m 1,-4 h 1 v 1 h -1 z m 6,4 v 1 l 1,-1 z m 2,94 v 2 h 1 v -2 z m 1,-95 v 2 l 2,1 v -1 1 h 3 l 1,1 v -2 h -1 z m 0,5 v 1 h 1 v -1 z m 1,88 h 1 z m 2,7 -1,1 -1,-1 z m -1,-9 v 1 h 1 v -1 z m 1,-6 1,1 v -1 z m 1,-91 3,3 h -1 v -1 h -2 z m 1,89 1,1 1,-1 -1,-1 z m 1,1 v 1 z m 2,-5 v 1 z m 2,-4 -1,1 h 1 z m 1,-71 v 1 h 1 z m 0,3 v 1 h 1 v -2 z m 2,54 h 1 z m 0,-10 v 1 h 1 v -1 z m 1,-46 2,3 v -1 l -1,-2 z m 1,50 -1,1 h 1 z m 0,3 v 1 h 1 z m 0,-7 v 2 l 1,-2 z m 0,-18 v 2 h 1 v -2 z m 1,23 v 1 h 1 v -1 z m 0,-2 v 1 h 1 v -1 z m 3,-14 v 1 h -1 v 1 h 1 v -1 h 1 v 1 l 1,-1 z m 1,-10 -1,1 z m 0,4 -1,2 h 2 z m 0,10 -1,1 h 1 z m 0,-7 v 1 h 1 z"
           id="path1144" />
        <path
           d="m 409,169 -2,3 -1,-1 v 2 h 1 l 2,-3 h 1 l -1,1 c 0,1 1,2 3,2 v -1 l 1,1 -3,1 v 1 h 2 l 3,3 h -2 v 1 c 1,0 2,1 2,3 l 1,-1 v 2 h 1 v 1 l -1,1 2,-1 v 1 l -1,2 1,1 2,-1 c 0,4 2,6 4,7 v -1 l 3,3 -1,1 h 2 v 1 h 3 v -1 h 1 l 2,4 2,-1 1,1 h -1 l 7,4 h 1 l 1,1 v -1 h 1 l -1,2 1,1 2,-2 c 0,2 1,3 5,5 h 1 l 4,3 h 3 l -1,1 2,1 4,1 3,2 1,-1 v 1 h 2 l 2,1 v 1 l 1,-1 1,2 2,-1 1,2 h 3 v 1 l 3,-1 1,1 1,1 h 2 l 3,2 4,-1 1,1 h 1 l -1,1 3,1 1,-1 1,3 2,-1 h 1 v 1 h -1 v 2 l 2,1 h -1 v 1 l 1,1 1,-1 v 4 h -1 c 2,0 2,1 2,2 0,0 0,1 0,0 v 2 l -1,1 h 1 l -1,1 -1,2 h 1 l 1,-1 v 1 l -2,2 v 1 l 2,1 v 1 c -1,-1 -2,0 -4,2 l 1,1 h -3 l 2,2 h -2 v 2 l -2,-2 -2,1 v 1 h -2 v -2 h -1 l -1,2 1,1 -3,-2 2,-1 -3,-1 -1,2 h -1 v -3 l -2,1 h -1 l 1,-1 c -2,0 -2,-1 -2,-3 l -1,1 -1,-1 h -1 v -1 h -2 l -1,-1 v 2 l -1,-1 v -1 l -1,1 -3,-3 -1,1 h -1 l 1,-1 v -1 h -2 v -1 l -1,-1 v 2 h 1 v 1 h -1 l -1,-2 h -2 l 1,-1 -2,-1 v 2 l -1,-1 -1,-1 h -2 l 1,-1 -1,-1 -1,1 v -1 h 1 v -1 h -5 l -1,-1 -1,1 -1,-1 h -1 v -2 l -1,1 c 0,-2 -1,-3 -4,-4 h -1 l -2,-1 v 1 l -3,-2 -1,2 -1,-1 1,-2 h -2 l -1,1 -2,-1 1,-1 v -1 l -2,-1 -2,1 c 0,-1 0,-2 -2,-3 h -2 l -2,2 v -1 l 2,-2 -2,-1 h -1 l -2,-1 -1,-1 -1,2 v 1 l 1,4 -1,1 v 3 h 2 v 1 h -2 l 1,3 -2,1 1,1 1,-1 v 1 l -1,2 1,3 -1,2 -1,1 1,6 -1,2 1,3 -1,1 v 14 l 1,4 1,-1 3,1 4,-1 2,1 h 30 c -1,1 0,2 2,3 h 2 v 1 h -1 v 9 l -2,2 v 1 l -8,2 v -1 h -7 l 1,-1 -4,1 v -1 l -5,1 -1,-1 h -2 l -3,-1 -4,1 h -1 c -1,-1 -3,0 -5,1 v -1 h -5 l 1,1 -2,3 v 2 l 1,1 -1,1 v 2 l -1,1 h 1 v 1 l -1,1 h 1 v 1 h -2 l 2,3 -2,1 1,3 -2,1 1,2 -2,3 1,1 -1,1 v 6 l -2,1 1,1 1,-1 v 1 l -2,1 1,2 h -1 v 1 l -1,2 v 2 l -1,2 1,1 -1,1 4,-1 3,2 2,-2 1,1 7,-1 2,1 h 3 l 1,-1 1,1 v -1 l 2,1 v -1 l 1,1 8,-1 2,1 h 2 l 1,-1 1,1 h 2 v 1 l 2,-1 1,1 h 2 l 1,-1 7,1 v 1 l 4,-1 1,2 h 2 l 2,-1 3,3 1,-1 4,4 h 1 v 1 h 1 v -1 l 2,3 -2,2 v 4 l -4,4 -2,-1 -6,3 h -1 v -1 h -8 l -1,-1 -2,1 -2,-1 -2,1 h -1 l -5,-1 -6,1 v -1 l -2,2 -5,-3 -2,2 -3,-2 v 1 l -1,-1 h -2 l -2,1 v -1 l -6,2 -1,-1 v 1 h -3 l -1,-1 -1,1 h -1 l -6,2 -1,-1 -3,2 -2,-1 -5,2 -4,3 -3,-2 -2,1 -2,-2 h -1 l 2,1 v 1 l -3,-1 -1,-1 -2,1 -3,-2 -1,1 -4,-1 c 0,-1 0,-2 -2,-2 h -3 v -1 l -6,-6 -1,-3 h 1 l -1,-2 1,-1 1,1 4,-5 1,1 h 1 v -1 l 1,-2 v -1 h 1 l -1,1 1,1 1,-1 v -1 l 1,-1 v 1 c 2,1 2,0 3,-1 v 1 h 1 c 0,-1 1,-2 2,-1 l 1,-1 1,1 1,-2 1,1 v -2 h 1 l 1,1 v -2 c 0,-2 1,-2 2,-2 l -1,-1 1,-1 v -2 l 1,-2 v -1 l 1,-1 -1,-1 1,-2 -1,-2 h 1 v -3 h 1 l -1,-1 2,-2 -1,-4 2,-1 -1,-5 h -1 l 2,-1 -1,-1 2,-2 h -2 v -1 l 1,-1 v -2 h 1 v -4 h -1 l -2,1 -1,-1 -2,1 -6,-7 v -3 l -1,-1 1,-1 -1,-1 2,-3 v -2 l 1,2 c 0,-1 1,-2 2,-1 v -2 h 1 l 5,-1 2,1 2,-2 1,1 v -3 h -1 l -1,-1 2,-1 v -1 h -1 l 1,-1 v -3 l -1,-3 1,-1 -1,-1 v -3 l 1,-3 -1,-1 2,-1 -2,-6 -1,-5 1,-1 -1,-1 1,-1 -1,-4 h -1 v -1 l 2,-1 -1,-2 v 2 l -1,-2 v -1 l 1,-2 -2,-5 h 2 l -1,-1 v -1 l 1,-1 h -2 v -1 l 1,-1 v -1 h -2 v -1 l 1,-1 -1,-4 h 1 l -2,-2 1,-1 -2,-1 v -1 h 3 v -1 l -1,-1 1,-1 -1,-1 h -2 v -2 h -2 l -1,-2 h -1 l 1,2 h -1 l -1,-2 h -1 l -2,-1 -1,1 v -1 l 2,-2 -2,1 h -1 v -1 l 1,-1 -1,-1 v -1 l 1,-2 -1,1 -2,-2 v -1 h 2 v -1 l -2,-1 v -1 l 1,1 1,-1 -1,-1 h -1 v -1 l 4,-3 1,2 1,-3 h -2 v -1 l 4,-2 1,1 -1,1 3,-2 -1,-1 v -1 l 2,1 -1,2 v -1 l -1,2 3,-2 -1,-1 1,1 v -3 h 1 l 2,2 3,-2 -1,-1 2,1 c 1,-2 3,-3 5,-3 l -1,-3 v -1 l 1,1 2,-1 -1,1 h 1 v -1 z m -46,185 v 1 h 1 v -1 z m 14,-168 1,1 v 1 l -1,1 -1,-2 z m 1,7 h 1 v 1 l -1,1 v 3 l -2,-3 z m 1,-14 v 1 z m 1,10 1,2 1,-3 z m 0,-7 1,2 -1,-1 z m 0,5 h 1 z m 1,10 h 2 z m 3,-21 h 1 l 1,1 -1,2 -1,-1 z m 1,23 1,1 v -1 z m 2,138 v 2 h -1 l -1,-2 z m 0,-160 v 2 h -1 z m 5,122 h 1 v 1 z m 4,-53 v 1 h 1 v -1 z m 11,123 h 1 l -1,1 h -1 z m 7,-196 h 1 v 1 h -1 z m 4,10 h 1 l -1,1 z m 1,5 v 1 z m 1,-8 h 1 l -1,1 z m 0,-3 h 1 v 1 h -1 z m 1,45 v 1 h 1 z m 3,-28 v 1 h 1 v -1 z m 0,32 h 1 z m 14,4 v 1 h 1 z m 5,-28 h 1 v 1 h -1 z m 7,35 v 1 h -1 z m 9,5 v 1 h -1 z m 2,-28 h 1 l -1,1 z m 3,1 h 1 l -1,1 h -1 z m 3,72 h 1 l -2,1 z m 10,-38 v 1 h 1 v -1 z m 6,5 h 1 v 1 z m 8,3 h 1 v 1 h -1 z m 13,1 h 1 v 2 z m 1,-4 h 1 z m 3,-11 v 1 z"
           id="path1146" />
      </g>
      <g
         fill-rule="evenodd"
         clip-rule="evenodd"
         fill="#fcaf39"
         id="g1156">
        <path
           d="m 458,363 1,1 h 2 l -2,-1 h 1 l 1,1 v -3 l 1,1 v -2 1 l 1,1 v 1 l 1,-1 1,1 h -1 v 1 l 1,-1 h 2 l -1,1 h 1 c 0,0 -1,0 0,0 l 1,-1 v 1 l 1,-1 1,1 h -1 l 1,1 1,-1 -1,-1 v -1 l 1,1 c 0,1 0,0 0,0 h 1 l -1,1 h 1 v -1 h 2 l 1,1 h 1 v 2 l 1,-1 v 1 l 1,1 h -1 v 1 l 1,-1 1,1 -1,1 h -1 2 l 1,1 1,1 h -1 v 2 l -1,1 v -1 2 h -2 l -1,1 1,-1 1,1 v 3 h -1 v -2 l -1,-1 v 1 l -1,1 h -1 v -1 1 h 1 l -1,1 -1,-1 1,1 h -1 v 2 l -2,-1 2,-1 h -2 l -2,1 h -1 v 2 h 1 l -1,1 v 1 l -1,1 2,1 h -1 v 1 h -1 1 v 1 -1 l 1,1 h -2 v 4 l 1,3 v 6 h -1 v 5 l 1,1 h -1 v 6 l -1,1 -1,-1 h -1 v -1 l 1,1 -1,-1 v -4 l -1,-3 v -14 l 1,-1 h -1 l 1,-1 v -2 h -1 l 1,-1 h -1 l -1,-1 v -3 h -1 l 1,-1 h -1 v -1 1 -1 h -2 1 v -1 l -1,1 v -1 h -1 l -1,1 -1,-2 v 3 -2 h -1 v 1 l -1,-1 h 1 -1 v 1 h -1 l 1,2 -1,1 -1,-1 -1,1 h 1 v 1 h -1 v -1 h -2 v -1 h -1 l -1,1 1,-1 h -1 1 l -1,-1 v -1 h -2 1 l 1,-1 -1,-1 v 1 h -1 v -1 1 h 1 v 1 h -1 v 3 c 0,0 0,1 0,0 v 3 -1 h 1 v 1 h -1 v 3 l -1,2 h 1 l -1,1 h 1 l -1,2 -2,1 v 1 l -1,-1 v -2 l 1,-3 h -1 v -5 l -1,-2 v -4 l -1,-1 h 1 v -1 l -1,-1 -1,1 v -1 h 1 l -1,-1 v -1 h -1 l 1,1 h -3 l 1,-1 -1,1 v 1 h -1 v -1 h -1 v -1 h 1 -3 1 l -1,-1 h -1 v 1 l -1,-1 1,1 h -1 v -1 h -1 v 2 h -1 1 -2 l -1,1 c 0,-1 0,-1 0,0 l -1,-1 v 1 l -1,-1 h -1 1 v -1 h -2 1 l -1,1 v 2 l -1,-1 -1,1 v 1 h 1 -1 l -1,-1 v 1 l -1,-1 v 2 h -2 v 1 h 1 v 2 l -1,-1 c 0,0 0,1 0,0 v 5 -1 h 1 l -1,1 h -1 l 1,1 v 4 -1 1 l -1,1 h 1 v 1 l -1,1 h -1 1 -1 v -1 l -1,1 v -1 h 1 l -1,-1 1,-1 -1,-1 v 1 h -1 l 1,-1 h 1 l -1,-1 v -2 l 1,-1 v -6 c 1,0 0,0 0,0 l -1,-1 -1,1 v -2 h -1 l 1,-1 h -1 v -1 l 1,1 v -1 h -1 l -1,-1 v 2 h -3 v -2 h -1 l -1,1 v -1 h -2 v -2 1 h -2 1 l -1,-1 1,-1 h 1 v -1 c 1,0 0,0 0,0 l 1,-1 v -2 h -1 v -3 1 h 1 c 0,0 1,0 0,0 v 1 l 1,-1 h 1 v -1 1 l 1,-1 h -1 l -1,1 v -2 h 1 v 1 -1 h 1 v 1 h 1 v -1 h -1 3 v -1 l -1,1 1,-1 -1,-1 v 1 l -1,-1 h 1 v -1 1 h 1 v -2 1 h 1 v 1 h 1 l -1,-1 h 3 l -1,1 h 1 -1 2 l 1,-1 v 2 h -1 1 v -1 h 1 v 1 -2 1 l 1,-1 h 2 -1 1 c 1,0 0,0 0,0 h 1 l -1,-1 1,-1 h 1 l -1,1 v 1 h 1 v 1 l 1,1 1,-1 c 0,0 1,0 0,0 v -1 l 1,1 v -1 h -1 c 0,0 -1,0 0,0 v -1 h 1 l -1,-1 2,2 v 1 l 1,-1 h 1 v -1 l 1,1 h 1 l -1,1 v 1 l 1,-1 h 1 -1 v -2 h 1 v 1 h 2 l 1,-1 h -1 v -1 l 1,1 h 1 v 1 l -1,1 1,-1 h 1 -1 v -1 h 1 c 0,1 0,1 0,0 0,0 1,0 0,0 h 2 v 1 h -2 l 1,1 1,-1 v 2 -1 h 1 l -1,-1 h 1 v -1 h 1 l 1,1 v -2 l 1,2 v -1 h 1 l 1,1 -1,-1 v 1 l 1,1 1,-1 v 1 h 1 -1 l 1,-1 1,1 v 1 h -1 1 v -1 h 1 v 1 -1 h -1 l 1,-1 h -1 v -1 h 1 v 1 l 1,1 h -1 v 1 h 1 v 1 -2 1 l 1,-1 h 1 v 1 h -1 l 1,1 v -1 h 2 l 1,1 v -1 l 1,-1 v 2 l 1,-1 v 1 l 1,-1 1,1 -1,-1 h 1 v -1 h 1 l 1,-1 h 1 v 2 l -1,-1 h -1 v 1 l -1,1 z m -54,11 v 1 z m 72,-7 h -1 2 l -1,-1 z m -28,11 v 1 l 1,-1 z m 15,4 v 1 -1 h 1 z m -45,-6 v 2 -1 l 1,-1 z m -13,-7 c 0,0 0,1 0,0 l -1,-1 1,2 v -1 h 2 z m 6,-6 -1,1 v 1 h -2 v 1 l 2,-1 c 1,0 0,0 0,0 l 1,-1 v 2 -3 h 1 z m 61,1 v 1 l 1,1 1,-1 h -1 l 1,-1 h -2 1 z m -20,18 h -1 v 1 h 2 v -2 z m -45,-6 h 2 l -1,-1 v 1 z m 44,-13 h 1 l 1,1 v -1 z m 28,7 1,1 v -1 z m 1,1 h -1 v 1 z m -70,-9 v 1 h 1 l -1,-1 c 0,1 0,0 0,0 z m 3,2 v -1 l -1,1 z m 39,17 v -2 z m 1,-17 h -2 z m -33,11 h 1 v -1 z m 46,-12 v 1 h -1 1 z m -3,0 v -1 z m -39,12 v 1 l 1,-1 z m -22,-1 1,-1 z m 52,-10 h 1 v -1 z m 20,2 1,1 v -1 z m -42,-4 h -1 l 1,1 z m 16,18 h 1 z m 27,-16 -1,1 h 1 z m -72,3 1,1 z m 5,-1 v 1 z m 1,1 c -1,0 -1,0 0,0 z m 34,-4 v -1 h -1 z m 26,17 v -1 z m -42,-5 -1,1 z m -24,-1 h 1 v -1 z m 75,-3 v 1 z m -43,-9 h -1 z m -8,0 1,-1 z m 7,13 h 1 v -1 z m 36,-10 c 0,1 0,1 0,0 z m 0,0 h -1 z m -22,-1 -1,-1 z m -19,9 1,-1 z m 4,-11 z m 37,17 h 1 z m -65,-4 v -1 z m 13,-13 h 1 z m -12,13 v -1 z m 34,1 v -1 h -1 z m -36,-6 v 1 z m 58,-7 v -1 z m -13,1 c 0,1 0,1 0,0 z m 29,5 v 1 z m -46,5 h 1 z m -4,1 h -1 z m -9,1 v -1 z m 49,-12 z m -21,13 v 1 z m -3,-15 h 1 z m 10,17 h 1 l -1,-1 z m -28,-16 v -1 z m 36,18 -1,-1 z m -47,1 -1,-1 v 1 z m 47,-18 h 1 z m -47,21 z m -10,-12 z m 2,1 v -1 z m 70,0 h 1 z m -36,4 v -1 z m -36,-10 h 1 z m 15,6 c 0,1 0,0 0,0 z m 21,-12 h -1 z m -19,1 v 1 z m 26,1 v 1 z m 20,1 1,-1 h -1 z m -43,11 z m -22,-4 z m 1,1 z m 42,7 z m -31,4 v -1 z m 49,2 v -1 z m -49,3 1,-1 z m 32,-11 z m 9,1 z m -2,0 z m -8,0 z m 7,1 z m 0,1 z m -13,-20 z m 0,0 v 1 z m -19,2 z m 23,0 c 1,0 1,0 0,0 h 1 z m 12,1 z m 3,0 h 1 z m -46,0 z m 1,25 v -1 z m -7,-22 h -1 z m 66,1 v -1 z m 4,3 z m -1,3 v -1 z m -56,2 v 1 z m 60,-9 v -2 h 2 l -1,1 v 1 h 1 -1 l -1,1 z"
           id="path1150" />
        <path
           d="m 412,361 h -1 l -1,-1 1,-1 v 1 l 1,1 c 1,0 1,0 0,0 z m -11,9 h -1 1 l -1,-1 h 1 l 1,-1 v 2 z m -2,2 v 1 h 2 l -1,1 h -1 v -1 h -1 z m 23,-11 v -2 1 h 1 v 1 z m -22,14 -1,1 h -1 v -1 c 1,-1 2,0 2,1 z m 1,1 h -1 v -1 h 2 v 1 z m 17,-15 v -1 c 0,0 0,1 0,0 l 1,1 z m -16,11 h -1 1 v -1 l 1,-1 z m 70,10 h -1 v -1 z m 4,-17 h 1 v -1 c 0,0 -1,0 0,0 h 1 v 1 z m -45,11 h -1 v -1 h 2 v 1 z m 14,-15 -1,-1 2,1 z m -7,15 h 1 v 1 h -1 z m 19,-16 v 1 h -2 l 1,-1 z m 20,18 -1,1 v -1 h -1 1 v -1 1 -1 z m -27,-18 h 1 l -1,1 h -1 1 z m -51,11 1,-1 v 1 l -1,1 z m 5,-7 v -1 l 1,1 z m 64,-2 h -1 v -1 l 1,-1 -1,1 z m -15,-1 v -1 z m -55,14 -1,-1 v -1 z m 68,-12 v -2 h 1 l -1,1 h 1 v 1 z m -47,16 v 1 l -1,-1 z m 46,-18 v -1 l 1,-1 v 1 z m -44,-3 v -1 1 c 0,1 0,1 0,0 z m -11,19 h 1 l -1,1 z m 3,-16 v -1 h 1 z m 58,-1 h 1 l -1,1 z m 2,3 h -1 v -1 h 1 z m -6,-1 h 1 v 1 h -1 z m -31,-3 v 1 l -1,-1 h 1 c 0,0 0,1 0,0 z m 0,18 v -1 l 2,1 z m -36,-11 -1,1 v -1 c 0,0 0,-1 0,0 z m 39,-8 v 1 h -1 v -1 z m 39,17 h 1 l -1,1 z m -83,-2 2,1 h -1 z m 65,14 h 1 v 1 z m -56,-7 v -1 z m 55,-21 h -1 l 1,-1 z m -61,10 c 1,0 1,0 0,0 v 1 z m 15,24 h -1 l 1,-1 z m 42,-11 h 1 v 1 h -1 z m 1,3 h 1 z m -38,-5 v 2 z m 65,-6 h 1 l -1,1 z m -37,-15 v 2 z m 9,3 v -1 l 1,1 z m -33,0 v -1 c -1,0 -1,0 0,0 0,-1 0,0 0,0 v 1 c 0,-1 0,0 0,0 z m 28,23 c 0,-1 0,0 0,0 v 1 l -1,-1 z m -18,-9 v -1 l 1,1 v -1 z m 44,4 v -2 z m -19,6 1,-1 v 1 z m 6,-1 -1,1 v -2 z m -22,5 -1,-1 h 1 z m 18,-8 1,1 h -1 z m -52,-23 1,1 z m 51,3 h 1 l -1,1 z m -55,2 v 1 h -1 z m 26,13 v -1 z m -31,3 v -1 h 1 z m 24,-3 h 1 c 1,1 0,0 0,0 z m 49,4 v -1 z m -24,3 h 1 v 1 z m 4,0 h 1 l -1,1 z m 13,30 -1,1 z m -3,-31 h 1 v 1 h -1 z m -57,-6 v 1 z m 51,-17 c 1,0 0,0 0,0 z m 14,32 1,1 z m -14,-33 h -1 z m 21,21 1,-1 v 1 z m -82,-8 h -1 v -1 z m 12,-8 v -1 z m 31,14 h 1 l 1,1 z"
           id="path1152" />
        <path
           d="m 450,385 -1,-2 h 1 z m 9,-26 v -1 h 1 v 1 z m -52,2 -1,-1 h 1 z m 46,1 v -1 l 1,1 z m -53,6 -1,1 v -1 z m 44,28 v 1 z m -27,-3 v -1 l 1,1 z m 49,-34 h 1 z m -19,25 h -1 z m 31,-20 v -1 z m -62,-2 v -1 h 1 z m -16,12 c 0,1 0,0 0,0 z m 70,-12 -1,-1 z m -62,0 h -1 l 1,-1 z m -3,17 h 1 z m 41,12 v -1 z m -45,-24 v -1 l 1,1 z m 7,-4 h -1 z m -4,14 v -1 z m 58,9 v -1 z m 7,-1 v -1 l 1,1 z m -68,-17 v -1 z m 59,17 v -1 h 1 z m 3,2 -1,1 v -1 z m -50,3 h -1 v -1 1 -1 z m 65,-10 -1,1 v -1 z m -30,3 v 1 z m 1,3 v -1 z m -32,1 h 1 z m 46,13 1,-1 v 1 z m -7,-42 -1,1 v -1 z m -55,6 -1,1 z m 1,13 v -1 z m 37,0 v 1 z m -14,-19 z m 52,21 v -1 z m -37,0 -1,-1 h 1 z m 28,-17 v -1 l 1,1 z m -36,15 v 1 z m -18,-15 v -1 h 1 z m 55,30 h -1 l 1,-1 z m -51,-35 -1,1 v -1 z m 40,3 h -1 z m -40,20 h -1 z m 21,-21 -1,1 v -1 z m 17,1 z m -30,0 z m -14,-3 h -1 v -1 h 1 z m 15,1 1,1 z m 43,56 -1,1 v -1 z m -1,-11 c 0,0 1,0 0,0 z m -57,-45 -1,-1 h 1 z m 43,27 h -1 z m -42,-3 v 1 z m 50,-22 h 1 z m -62,3 v 1 z m 81,7 v -1 z m -79,8 v -1 z m 72,-19 h -1 z m -59,0 h 1 z m -21,12 h -1 z m 2,0 h -1 z m 73,13 v 1 z m -7,3 h -1 z m -22,0 v 1 z m 1,10 h 1 z m 24,20 h -1 z m -67,-56 h -1 z m 51,-1 h -1 z m -53,17 v -1 z m 85,-15 -1,-1 h 1 z m -56,-4 h -1 1 c 0,-1 0,-1 0,0 z m 51,21 h 1 z m 2,1 v -1 z m -23,1 h -1 z m 2,-23 h -1 z m 12,25 v -1 z m -11,0 v 1 z m 0,4 h -1 z m -7,0 v 1 z m -40,2 z m 5,0 h -1 z m 65,-20 h -1 v -1 z m -40,23 -1,1 z m -7,-33 h -1 z m -22,36 h 1 v 1 z m 33,1 h -1 l 1,-1 z m -3,3 1,-1 z m -19,-39 z m 55,5 v -1 z m -65,-6 h -1 z m 46,3 -1,1 v -1 z m -5,-1 -1,-1 z m -49,15 v 1 z m 0,-18 h -1 z m 22,2 h -1 z m -11,26 h 1 z m 7,-9 z m 41,11 -1,1 v -1 z m -39,-10 c 0,0 0,-1 0,0 z m 43,13 h -1 z m -10,5 h 1 z m -37,-34 h 1 z m -18,19 z m 28,-7 v 1 h -1 v -1 z m -32,-3 v 1 z m 36,-14 -1,1 z m -28,-2 v 1 z m 15,23 v -1 z m -7,-16 h 1 z m 45,0 h -1 z m 9,19 c 0,0 0,1 0,0 z m -29,1 h -1 z m 20,0 v 1 l -1,-1 z m -45,0 1,1 z m 35,2 -1,1 v -1 z m 7,-27 z m 21,10 -1,-1 z m -28,18 1,1 v -1 z m 29,-17 v 1 z m -77,1 z m -3,1 v 1 z m 64,18 h -1 v -1 h 1 z m -63,-18 v 1 z m 64,-9 h 1 z m -35,-2 h 1 z m -29,14 -1,-1 z m 81,0 v 1 z m -50,-13 z m 42,20 z m -15,1 z m -65,-12 z m 88,1 h 1 z m -35,17 z m 26,2 h -1 z m -56,5 h -1 z m 16,-17 v -1 z m 30,25 h -1 z m -32,-43 h 1 z m 31,46 z m 11,-46 v 1 z m -78,5 v 1 z m 44,15 c 1,0 0,0 0,0 z m -34,1 v -1 z m 64,3 v 1 z m -75,-22 z m 55,23 v 1 h -1 z m 23,-23 h 1 z m -7,1 v -1 z m -59,0 z m 13,-4 h 1 z m -21,5 h -1 z m 4,0 z m 74,0 h 1 z m -73,12 h -1 z m 77,-12 h 1 l -1,1 z m -22,-6 -1,1 v -1 z m -18,36 z m 8,1 v -1 z m -37,1 v -1 z m 34,0 z m 34,-18 1,-1 z m -49,-1 v 1 z m 10,-18 v 1 z m -36,0 v -1 z m 66,46 z m -6,3 z m 10,-28 z m -32,-19 v -1 z m -38,0 h 1 z m 59,55 v 1 z m 4,1 c 0,1 0,1 0,0 z m -59,-58 c -1,0 -1,0 0,0 z m 56,61 h 1 v 1 z m -15,-61 h 1 z m 29,5 v -1 z m -79,18 h -1 z m 41,0 h -1 z m -17,0 z m -10,1 h -1 z m 62,0 h 1 z m -78,-18 h -1 z m 73,19 h 1 z m -13,0 h 1 z m 4,1 h -1 z m 17,-19 z m -80,0 c 0,1 0,1 0,0 z m 4,0 z m 68,21 h 1 z m -24,2 v -1 h 1 z m -29,2 z m 45,0 v 1 z m -26,-34 v 1 z m 33,39 h 1 z m -12,-38 -1,1 z m -17,40 v 1 z m -28,-39 h -1 z m 60,46 h -1 z m -72,-28 z m 69,33 c 0,1 0,1 0,0 z m 4,-49 h -1 z m -12,1 v -1 z m 14,0 h -1 z m -51,16 h 1 l -1,1 z m -7,-16 v -1 z m 2,18 v 1 z m -17,-1 z m 49,-16 v 1 z m -54,8 h -1 z m 6,0 c -1,0 0,0 0,0 z m -4,1 v -1 z m 7,6 c 0,0 1,0 0,0 z m -4,-6 h -1 z m -1,1 z m 35,4 z m -39,-4 c -1,0 -1,0 0,0 z m 84,0 z m -81,-5 z m -4,0 z m 15,13 v -1 z m 29,1 v -1 z m 17,0 v -1 1 c 1,0 0,0 0,0 z m -11,0 c 1,0 1,0 0,0 z m -47,0 v 1 z m 79,1 h 1 z m -62,0 1,1 z m 1,2 z m -4,0 c 0,1 0,1 0,0 z m 28,1 z m 19,1 v -1 z m 16,1 z m -30,2 c 0,-1 0,-1 0,0 z m 18,0 v 1 z m -25,1 z m 2,1 z m 5,0 z m 0,3 h 1 z m -32,0 h -1 z m 1,1 v -1 z m 26,0 h 1 z m 22,2 h -1 z m -33,-41 z m 22,0 z m -14,1 h 1 z m 24,49 h 1 z m 1,2 h -1 z m -39,-50 z m 40,51 h 1 z m -57,-51 v 1 z m 46,1 h 1 z m -29,0 h 1 z m 42,57 h -1 z m -2,1 h 1 z m 6,1 v 1 h -1 z m -28,-58 v -1 z m 17,0 h -1 z m -60,17 v -1 z m 26,0 h 1 z m -23,1 h -1 z m 79,0 z m -81,0 c 0,0 0,1 0,0 z m 9,0 1,1 z m 14,1 h -1 l 1,-1 z m 15,0 h -1 1 c -1,0 0,0 0,0 z m -40,0 h -1 z m 52,-19 v -1 z m -26,20 v -1 l 1,1 z m -14,-19 h -1 v -1 h 1 z m 66,20 v 1 z m -32,-20 z m 29,21 z m -64,-21 h -1 z m 55,1 v -1 h 1 z m -64,0 c 0,-1 0,0 0,0 z m 50,21 1,1 z m 27,-21 z m -75,0 z m 74,0 v 1 z m -21,22 h -1 z m -9,0 c 0,1 0,1 0,0 z m 30,1 v -1 z m 1,-22 z m -19,22 h 1 z m 5,0 h -1 z m -9,0 z m 7,0 z m 9,-22 v 1 z m -20,23 h 1 v 1 z m 2,1 h -1 z m -35,0 v 1 z m 52,2 h -1 z m -27,1 v -1 z m -24,0 z m 29,0 z m -45,-23 v 1 z m 15,24 v 1 z m 23,1 v -1 z m 24,0 z m -63,-24 h -1 z m 40,26 z m 42,-24 v -1 z m -35,26 h -1 z m 26,3 z m -61,-47 v 1 z m 19,3 z m 31,48 z m -35,-47 h 1 z m 36,50 z m -1,6 h 1 z m -33,-53 v -1 z m 12,0 z m -15,0 z m 43,0 h 1 z m -41,16 v 1 z m -11,-16 h 1 z m 1,1 v -1 z m 54,4 h 1 z m -36,-3 z"
           id="path1154" />
      </g>
      <g
         fill="#fcaf39"
         id="g1174">
        <path
           d="m 198,405 h 1 v 1 h -1 z m 55,-8 3,4 h 1 l 4,-2 1,1 v 5 l 1,-1 -1,-4 h 2 v 1 l -1,1 2,1 h 1 v 2 h -1 l -1,-1 v 1 l 2,1 v -1 l 2,1 3,6 v -2 l 1,1 h 2 v 3 l -2,-2 v 2 l 2,3 7,1 h 2 l 1,1 h 1 l 1,1 h 3 l 1,1 h 1 l 1,1 3,-2 2,2 5,-1 v 2 l 6,-1 v 1 l 5,2 h 3 v 1 l -1,1 c 1,1 2,0 2,-1 3,2 3,4 2,7 l 2,3 -3,4 1,2 h -1 l -1,-1 v 1 c -1,0 0,0 0,0 -2,3 -4,4 -4,3 h -1 l -1,-1 v 1 h 1 v 1 h -2 l -1,1 h 2 l -1,1 h -1 v -1 h -11 v 1 l -1,-1 h -2 l -2,1 -1,-2 -4,1 -1,-1 h -3 l -1,-1 -4,1 -1,-1 v 1 l -1,-1 h -7 v -2 l -2,1 v 1 h 2 l -2,3 v 6 l -1,1 1,3 h -1 c 0,0 0,1 0,0 v 1 l -1,3 h 2 v 1 l -2,1 -1,1 1,1 -1,2 v 4 l -1,-1 -1,8 v 1 l -1,2 -1,1 1,1 -1,1 v 11 l -1,-1 v 3 l -1,1 h 1 l -1,1 v 1 l 1,1 -1,2 1,1 h -2 l -1,8 -1,6 v 1 l -1,2 v 2 l -1,-1 v 8 h -1 v 1 l -1,1 v 6 c -1,0 -2,1 -2,3 v 1 l 1,-2 1,2 h -1 v 2 l -2,2 v 2 l -1,-1 2,1 v 2 l -1,-1 h -2 v 1 l -1,3 c -2,2 -3,3 -3,5 v 1 l -1,1 v 1 h -2 l -1,1 v 2 l -3,1 -2,-2 -4,-1 -4,-5 1,-3 h 1 l -2,-3 1,-1 v -4 l 1,-2 c -1,0 -2,-1 -1,-2 h 1 l -1,-2 2,-2 1,-4 v -1 l 1,-1 -1,-1 2,-4 -1,-1 2,-1 v -5 l 1,1 -1,-3 h 1 v -2 l 1,-3 -1,-2 1,-1 1,-4 2,-2 v -6 l 1,1 -1,-2 h 1 v -5 l 1,-1 v -2 l -1,-1 2,-2 c -2,-1 -2,-3 0,-7 l 1,-2 -2,-1 2,-1 c -1,-3 -2,-5 -1,-8 l -1,-6 2,-1 v -1 h -2 v -1 h 1 v -5 l 1,-1 h -3 l 1,-1 v -2 h 1 l 1,-1 -2,-4 1,-1 -1,-5 h -1 l 1,-1 1,1 v -1 l 1,-1 v -2 l -3,2 h -1 l 1,-2 h 1 v -1 1 l -2,-1 h -2 l -1,-1 1,-1 h -1 l -2,1 -3,-1 2,-2 h -1 l -3,1 -1,-1 h -1 l -1,-1 h -2 l -1,-2 -1,1 -1,-1 -2,1 c -1,0 -2,-1 -1,-2 l -1,-1 -2,1 -2,-3 v 1 h -1 c -4,-3 -6,-6 -7,-8 l -2,-1 v -2 l 1,-3 h -1 l -1,1 h -1 l 1,-1 -2,-1 1,-1 h 1 l -2,-2 2,-3 h -3 l 2,-4 -2,-1 c 2,-2 3,-3 6,-2 l -1,-1 2,-1 v -1 h -1 l -1,-1 v -1 l 1,1 1,1 4,-2 1,1 h 1 l 1,1 5,-1 v -2 l 1,1 2,3 1,-1 1,1 v -1 l 1,1 2,1 -1,-2 h 2 l -1,1 h 1 v -1 l 2,3 -1,1 h 3 l 1,1 5,4 h 2 l 2,2 6,-1 v 1 l 3,-1 1,1 -2,-4 h 2 l 1,1 v 1 l -1,1 h 5 v -3 h -2 v -1 l -1,1 v -2 z m -25,141 h 1 v 1 z m 7,-140 v 1 h -1 z m 11,158 -1,2 -1,-1 z m 2,-152 v 1 l 1,1 v -1 z m 4,2 h 1 v -1 z m 4,-14 v 1 h -1 z m 1,11 h 1 l 1,-1 z m 1,-10 v 1 h -1 z m 1,3 v 2 h -2 l 1,-1 z m 2,-1 1,1 h 2 v 1 l -2,1 h -2 v -3 z m 0,11 v 1 h 1 v -1 z m 1,-12 1,1 h -1 z m 4,8 h 1 l 1,2 h -1 z m 2,44 -1,1 h 1 z m 2,-43 1,1 v 1 z m 0,10 1,1 v -1 z m 1,-7 1,2 v 1 h -1 z m 28,42 h 1 v 1 h -1 z m 79,-32 h 1 v 1 h 1 l 2,1 1,-1 2,1 v 2 h 2 v 1 l -1,1 2,4 v -1 h 1 v 2 l 1,4 h 2 l -2,1 2,2 v 1 h -1 v 1 l -1,1 v 1 h 1 v -1 2 h 2 l -1,1 1,2 v 1 l -1,-1 -1,1 2,2 -2,2 1,1 h -1 l 1,1 -1,3 v 2 h -1 l 1,1 v 1 l -1,1 1,4 h -1 c 0,2 0,4 2,4 v 1 l -3,2 1,4 -1,1 1,1 v 1 l -1,1 1,2 -1,1 1,1 -1,1 1,1 h 1 l -1,1 v 2 l -1,1 1,3 -1,1 v 2 l -1,1 -1,3 2,-1 h 1 l -2,1 1,2 -2,3 c 2,0 2,1 2,2 l -2,2 1,3 -1,2 h 1 v 1 l 1,8 -2,2 2,2 h -1 1 l -2,3 h 1 v 2 h -1 l 3,5 -1,1 c 0,2 1,3 2,3 l -2,2 v 1 l 1,-1 h 1 v 1 l -1,1 v 3 h -1 v 1 h 1 l 1,-1 v 1 l -2,2 2,6 1,3 h -1 v -1 1 c -1,1 0,1 1,1 l -1,4 2,1 1,-1 v 1 l 8,-1 1,1 h 1 l 3,3 h 2 l 3,8 -1,3 c 0,2 -1,3 -3,2 l 1,1 v 1 h -1 l -1,-1 -6,3 h -3 v -1 l -1,1 -1,-1 -6,2 v 2 l -1,1 1,4 -3,1 v 3 h -1 v 3 l -1,-1 v 1 l 1,1 -1,1 -1,-1 v 2 l -2,3 v 1 l -1,-1 -3,1 v 2 l -2,2 v -1 h 1 v -1 h -1 v 1 h -3 v -1 l 1,-1 h -1 v 1 l -3,-3 -1,1 v -1 l 2,-1 1,1 v -2 h -2 l -1,-2 v -1 l -1,-3 -2,1 c 1,-3 0,-5 -1,-6 l -1,-1 v 1 l -1,-1 h 1 l -1,-6 -1,-3 1,-1 -1,-1 h -1 l -2,-1 h -11 l -2,-1 h -1 l -1,1 -3,-1 h -2 v -1 h -3 l -1,-1 -2,1 -1,3 v 2 l -1,-1 -1,3 v 2 h -1 v 5 l -1,1 1,1 -1,-1 v -1 l -2,2 1,1 v 1 l -3,-1 -7,7 v -1 l -6,1 -1,-1 h -1 v -1 l -2,1 v -1 h -1 c -2,-1 -2,-2 -2,-4 l 1,-1 h -1 v -1 h 1 v -3 l -1,-4 1,1 c 1,-1 0,-1 -1,-2 l 2,-3 1,-3 2,-3 -1,1 h -1 v -3 h -1 l 1,1 -1,1 -2,-1 h -1 l -2,-1 -1,1 h -1 c -2,-2 -3,-4 -2,-6 l -2,-4 h -1 l 3,-4 -2,-1 1,-2 h 1 v -1 h 1 l 2,-1 c 3,-1 4,-3 4,-4 h 1 v 2 l 4,-1 1,1 h 3 l 1,1 h 4 l -1,1 h 1 l 2,-1 v -1 l 1,-3 v -1 h 2 v -4 h 2 v -1 h -1 v -1 l 4,-4 -1,-1 6,-10 -1,-1 1,-1 v -2 c 1,1 1,0 2,-2 l -1,-1 3,-4 v -1 l 1,-1 v -1 l 1,-3 v -2 l 1,-3 1,2 v -2 l 1,-1 -1,-4 1,1 2,-3 v -1 l 1,-1 1,-1 c -1,0 -2,-2 -1,-4 h 1 v -1 h 1 v -4 l 4,-5 -1,-2 2,-3 -1,-1 h 1 l 1,-2 v -1 l 1,-3 -1,-4 1,1 1,-1 v -2 l 1,-1 -1,-3 1,-1 v -2 h 1 c -1,-1 -1,0 -2,1 v -2 c 1,0 2,0 2,-2 v -1 c 1,0 2,0 3,-2 v -7 l 2,-2 h -3 l 3,-2 -2,-3 1,-1 1,1 1,-2 v -1 1 h -1 l 1,-2 v -2 l 2,-1 h -1 l 2,-5 -1,-2 3,1 -1,-2 h 1 v -1 l 1,-1 2,-1 1,1 z m -75,155 -1,1 h 1 z m 0,17 h 1 l -1,1 z m 3,5 -1,2 h 1 z m 1,6 v 1 l -1,1 v -1 z m 6,0 v 1 l -2,1 1,-1 z m 9,-55 v 1 h -1 v -1 z m 5,44 h 1 z m 4,-60 v 1 h -1 z m 9,-20 1,1 v -1 z m 23,-3 -1,3 v 1 l -1,2 1,1 h -1 l -1,1 2,1 -2,1 v -1 l -1,1 v 3 h -2 1 l -3,6 1,1 c 0,1 -1,2 -2,1 v 1 c 0,0 1,0 0,0 l -2,4 1,2 -1,-1 v 3 l -1,-1 v 1 l -1,3 -1,4 -2,1 v 1 l -1,4 -1,1 v 1 l -1,2 h -1 l 1,1 -1,2 1,2 h 2 v 1 l 1,-1 1,1 h 5 v 1 h 1 v -1 l 1,1 h 3 l 1,1 h 2 l -1,-1 v -1 l 1,1 h 1 l 1,-3 h -1 l 1,-1 -1,-3 h 1 l 1,-1 -1,-2 v -2 l -2,1 v -1 l 1,-1 v -2 l 1,-1 h -1 l 1,-2 v -5 l 1,-3 -2,-4 v -1 l 1,1 1,-1 h -2 l 1,-1 v -2 h 1 v -1 l -1,-2 1,-1 -1,-4 h 1 l -1,-9 h 1 v -3 z m -16,-20 -1,1 -1,-1 z m 3,-7 h 1 z m 10,-40 h 1 l -1,1 z m 1,159 1,1 v 1 l -1,-1 z m 2,-4 h 1 z m 4,5 h 2 l -1,1 h -1 z m 0,4 h 1 l -1,1 z m 5,3 v 1 h -1 z m 3,-2 -1,1 1,2 1,-1 z m 1,-193 1,1 h -1 z m 1,7 1,1 v -1 z m 6,-2 h 1 v 1 h -1 z m 1,-4 1,1 v 1 l -1,-1 z m 4,91 -1,1 h 1 z m 0,-5 v 1 l 1,-1 z m 0,39 v 1 l 1,-1 z m 0,-31 h 1 v 1 h -1 z m 1,15 1,1 h -1 l -1,-1 z m -1,-20 h 1 v 1 h -1 z m 2,-14 1,2 -1,-1 z m 0,-58 1,1 h -1 z m 0,129 v 1 h 1 v -1 z m 1,-117 v 1 h 1 z m 0,105 h 1 v 1 h -1 z m 1,-94 h 1 v 2 l -1,-1 z m 21,120 1,3 v 1 l -1,-1 -1,-2 z"
           id="path1158" />
        <path
           d="m 417,485 v 3 h 1 v -1 h 2 v 1 l 3,-1 v 1 l -1,1 h 1 l 1,-1 c 0,1 1,2 3,2 h 1 l 1,1 h 1 v 1 h 2 l 2,1 h 1 l 2,1 v -1 h 1 v 2 l 7,2 1,-1 1,3 h 1 l 1,-1 -1,-1 h 3 v -2 l 2,-1 h 2 l 3,2 -1,1 c 1,0 2,1 1,2 h 1 l 3,3 1,-1 1,1 -2,1 2,2 h 3 v 2 l 2,-2 1,1 2,2 v -2 l 2,2 1,-2 h 1 l -1,2 h 1 v -1 l 2,-1 1,3 1,-1 v -1 h 2 l 2,4 1,-1 3,7 -2,1 1,1 v 1 l -3,5 h -2 v 1 l -2,1 -2,-1 -4,2 -4,-7 -1,1 -3,-1 -1,2 1,4 -1,2 v 9 l 1,4 -2,-1 v 1 h 1 l -1,2 1,10 -1,1 -1,3 v 2 h 1 l -1,3 v 3 l -1,4 v 1 l -1,1 1,1 h -1 v 1 l -2,5 1,1 -1,2 14,-3 h 1 v 1 l 2,-1 7,3 -1,2 1,3 -7,7 -1,-1 -4,2 v -1 l -16,5 c -2,-1 -3,1 -4,4 l -2,1 -2,1 -6,-2 c -1,-1 -5,1 -10,4 l -8,3 c -2,2 -4,2 -8,3 l -1,-1 -1,1 -4,-1 h -3 l -3,-3 h -1 l -1,-2 4,-8 c 1,0 2,0 3,-2 l 4,-3 c 1,1 7,-1 18,-5 5,0 8,-2 11,-4 v -1 l 1,-2 -1,-1 1,-1 v -2 l 1,-2 v -3 l 1,-6 h 1 v -4 l 1,-1 -1,-2 2,-1 h -1 v -4 h 1 l -1,-8 1,-1 h -1 l 1,-3 v -2 l -1,-5 -1,-4 1,-2 -2,-4 1,-1 v -2 h 1 l -1,-1 -1,1 v -3 l -1,-2 h 1 v -1 l -6,-1 v 1 h 1 l -1,1 -2,-2 -6,2 -2,-1 -2,1 h -1 l -2,2 -1,-2 h -1 v 1 h 1 l -2,2 -3,-3 v 1 h -2 v -1 l 1,-1 h -1 l -1,1 v 2 -1 l -1,-1 -3,1 v -3 h 1 v -1 l -3,1 v -1 l 1,-1 h -2 l -1,-1 2,-2 v -2 h -1 l -1,1 h -2 l 1,-1 1,1 1,-2 v -4 l -1,1 h -1 v -1 h 2 v -1 c -2,-1 -2,-2 -2,-4 h 1 l 1,1 v 1 h -1 1 l 1,-1 h -1 l 1,-1 v -3 h -2 v -1 c 2,1 4,0 5,-2 l 1,-1 h -3 v -1 l 2,-1 2,1 v -3 l 1,-1 1,2 1,-1 v -2 z m -14,22 h 1 v 1 h -1 z m 2,-1 1,2 v -1 z m 3,-18 v 1 h -1 z m 4,33 h 1 l -1,1 z m 1,-5 -1,1 h 1 z m 59,-88 4,1 h 2 l 2,1 h 2 v 1 l 2,-1 6,3 v -1 l 2,2 h 1 l 9,10 v 1 l -1,1 3,5 -1,2 1,-1 v 5 l -1,1 v 1 l -1,3 1,1 -1,1 h -1 1 v 2 h -1 v 1 l -1,1 v 2 l -2,1 1,1 v 1 c -3,-1 -4,1 -6,4 l -1,-1 -2,3 -1,-1 c 0,1 -1,2 -3,2 v 1 h 1 v 1 c -2,-1 -5,0 -9,3 l -7,1 v -1 l -5,2 -1,1 -1,-2 -3,1 v 1 l -2,-1 -1,1 -2,-1 -4,1 h -5 l -2,-1 -3,2 c -3,-1 -5,-2 -6,-4 h -2 l -3,-2 -2,1 -2,-3 -1,1 -1,-2 h -2 l -5,-8 v -4 l 1,-1 -2,-2 v -2 h -1 1 v -5 l 1,-2 -1,-1 3,-2 v -1 l 2,-3 -1,-2 c 1,0 3,-2 5,-6 2,1 4,-1 6,-4 l 1,1 1,-1 v -3 h 2 l 2,1 -1,-1 1,-1 v -1 h 1 l 2,1 4,-2 1,1 3,-1 h 1 l 5,-1 v 1 l 11,-3 h 4 v 1 z m -54,92 h 1 l -1,1 z m 4,-34 h 1 v 1 h -1 z m 4,2 h 1 v 1 h -1 z m 1,3 v 1 l 1,1 z m 1,27 h 2 v 1 l -1,1 -1,-1 z m 3,-25 h 1 z m 2,24 v 1 h -1 z m 34,-71 -1,-1 -1,1 v -1 l -9,2 -8,6 c -3,-1 -7,2 -13,7 l -1,1 v 3 c 1,3 3,4 4,4 h 7 v 1 l 6,-1 v 1 h 1 l 2,1 1,-1 v 1 h 6 l 1,-1 3,1 c 5,-1 9,-3 14,-7 v -1 l -1,-1 c 2,0 3,-1 3,-3 l 3,-2 c 0,-3 0,-6 -2,-9 l -1,1 -3,-2 h -2 l -3,-1 z m -27,47 v 1 h -1 z m 6,4 h 1 v 1 h -1 z m 8,-2 v 1 h 1 z m 19,14 v 1 h 1 v -1 z m 1,17 v 1 h 1 v -1 z m 1,-18 v 1 h 2 z m 6,-24 v 1 h -1 z m -1,41 v 1 h 1 v -1 z m 1,-16 h 1 z m 3,2 -1,1 h 1 z"
           id="path1160" />
        <path
           d="m 525,443 1,1 -1,1 h 4 l -1,3 -1,-1 -1,-1 v 1 l 1,1 2,1 2,4 c 2,0 2,1 2,2 h 4 c -1,2 -2,2 -3,1 l -1,2 h 2 l 2,2 v -1 l 4,2 -1,2 v -1 l -1,-1 c -1,2 -2,2 -3,2 h -1 l 1,2 2,-1 v 4 l -2,-1 -1,1 3,2 -1,1 h -1 v 1 l 1,2 -1,1 1,4 v 1 l -1,-1 -1,1 1,7 -1,2 h -1 v -1 l -1,1 1,1 h 1 v 1 l -1,1 1,3 -1,1 h -1 l 1,5 -1,1 v 1 h 1 l 1,2 -2,2 1,4 -1,2 h 2 l -1,1 -2,1 v 1 h 1 l -2,3 c 2,1 2,2 2,4 h -1 v 4 -1 h 1 l -1,2 -1,2 1,1 -4,5 1,6 h -1 v 7 h -1 c 0,2 0,4 2,5 l -3,3 v 4 h -1 c -1,2 0,4 1,4 l -2,1 2,1 -3,4 v 5 h -1 v 7 h -2 l 1,1 v 1 h -1 l -1,2 1,-1 1,5 v 1 l -1,-2 -1,-1 v 4 l -1,1 v 2 h -2 c 0,4 1,6 2,7 l 1,-1 v 1 l 4,-1 2,1 h 2 l 1,1 h 9 l 1,-1 1,1 v 1 h 5 l 1,1 h 7 v -6 h -1 v 1 l -2,-3 v -1 l 1,1 1,-4 h -2 v -1 h 2 l -1,-2 h -1 l -1,-1 h 1 v -1 h -1 v -1 h 1 l -2,-1 1,-1 v -1 h -1 l 4,-5 h -2 v -2 h 2 l -1,-4 h 3 v 2 l 1,-1 -1,-2 v -1 l 2,1 v -2 h 2 l 1,2 h 1 l 1,-1 h -1 l 3,-2 v 2 l 1,1 1,-2 1,2 c 1,-1 1,-2 2,-1 h 2 l -1,1 -1,1 1,1 h 3 l 2,4 2,-1 v 2 l -1,1 c 2,0 3,1 2,3 l 2,-1 1,3 -1,-1 h -1 v 1 l -1,1 1,1 h 1 v 1 l -4,1 2,1 -3,2 -1,8 v 6 l -1,1 -1,1 2,8 3,3 h 1 l 5,8 2,6 -3,3 1,1 -7,4 h -4 l -2,-1 -3,-4 h -1 l -1,-1 h -2 l -5,-4 h -1 l -3,-2 h -2 v -1 h -2 l -1,-1 -4,-1 -2,-1 h -1 l -1,-1 h -4 v -1 l -10,1 v -1 l -18,5 -5,3 v -1 l -3,1 v 2 l -11,3 -3,-3 h -2 v -4 c -1,0 -2,0 -3,2 l -1,-2 3,-1 1,-1 -2,-1 h -2 l -1,-4 1,-1 v -4 l 1,1 v -2 h 1 v -1 l 4,-4 -1,-1 -2,2 v -1 l 2,-2 h 1 v 1 c 3,-2 4,-3 5,-2 v -2 l 4,-1 c -1,0 -1,0 0,0 l 3,-2 3,-9 v -1 l 1,-1 1,1 v -6 h 1 v -3 l 1,-1 v -1 h 1 l -2,-1 2,-2 v -2 h 1 l -1,-4 2,-2 v -7 h 1 l -2,-2 2,-1 c -1,0 -2,-1 -1,-2 l 1,-1 -1,-8 h -2 l 1,-1 c 1,-1 3,-2 3,-4 l 1,-1 h -1 v 1 h -1 v -4 l 1,-1 h -1 l -1,-3 -1,-2 h 2 v -4 l 1,-1 v -3 h -1 l -1,1 -1,-1 1,-4 1,1 1,-1 c -2,0 -2,-2 -1,-6 h -1 l 1,-2 -3,-3 2,-1 -1,-4 h -1 l -2,1 1,-2 h 1 v -1 h 2 l -1,2 h 1 v -1 c 0,-3 -1,-5 -2,-5 l -2,-4 1,-1 -2,-4 v -1 l -1,1 v -2 l 2,1 -1,-2 v -1 c 1,1 1,0 2,-1 l 1,1 -1,1 2,-1 -1,-2 -1,1 -1,-1 v -4 l -1,-1 -1,1 -2,-2 1,-2 1,-2 1,1 -1,1 h 1 l 1,-1 v -2 h -1 v -2 l 1,1 v -1 l -2,-2 h 1 l 1,-1 v 1 h -1 l 3,2 -3,-5 v -1 l 1,1 1,-1 h -4 l 1,-2 h 1 l -1,-4 1,-1 h 1 l -1,-1 h -1 v -2 l 1,1 v -1 h -2 v -1 l 2,-1 -1,-1 h 2 v 4 l 2,-2 v -1 l -1,1 c 0,-4 -1,-6 -3,-7 l 1,-1 1,1 h 1 l 2,2 1,-1 v -1 l 1,-1 h -1 l -2,-1 1,-2 h -2 1 l 1,-2 2,1 c -1,2 0,3 1,4 h 2 l -1,-2 1,-1 1,2 h 1 l -1,-4 1,-1 2,2 2,-3 h 1 v 1 h 1 l 1,1 h 1 l 1,1 h 1 v -1 l -1,-1 1,-1 1,1 1,1 z m -46,185 h 1 v 2 z m 7,9 -2,1 v -1 z m 6,-4 v 2 l 1,-1 z m 7,-163 -1,1 -1,-1 z m -1,-7 h 1 l -1,2 h -1 z m 0,-2 1,1 h -1 z m 2,16 -1,1 -1,-1 z m -1,7 3,1 -1,1 h -1 z m 2,4 h 1 l -2,1 v -1 z m -1,-7 h 1 l 1,-1 z m 1,15 h 1 v 1 h -1 z m 3,-17 -1,1 h 1 z m 0,14 -1,1 h 1 z m 1,22 1,2 -2,-1 z m 0,-23 1,1 v -1 z m 0,7 v 1 h 1 v -1 z m 0,21 1,1 h -1 z m 4,-82 h 1 v 1 h -1 z m 0,3 h 1 l 1,2 h -2 z m 1,10 h 1 v -1 z m 3,-17 -2,2 -1,-1 z m -1,5 2,1 -1,1 h -1 z m 2,-3 h 1 v 1 h -1 z m 0,166 v 1 h 1 z m 2,-163 1,1 -1,1 v 1 h -1 v -2 z m 0,6 -1,1 v 1 h 2 z m 5,150 v 1 c -1,1 -3,2 -3,4 h -1 v -1 l 1,-1 v -1 z m -3,-157 h 1 v 1 l -2,-1 z m 0,1 3,1 v 2 l -2,-1 z m 1,9 h -1 l 1,1 1,-1 z m 2,-10 h 1 l -1,1 h -1 z m 0,154 1,2 -1,-1 z m 2,-145 v 1 h 1 z m 1,-12 1,1 -1,1 z m 1,5 h 1 l -1,1 z m 3,14 -1,1 h 2 z m 3,-7 2,4 -1,1 -1,-1 1,-1 h -2 z m -1,8 v 1 l 2,1 v -2 z m 4,41 1,2 h -1 z m 0,19 h 2 l -1,2 -1,-1 z m 2,-24 h 1 v 1 h -1 z m 0,36 h 1 v 1 z m 2,-34 -1,1 h -1 z m 0,-10 v 1 l -1,1 v -2 z m 0,-5 h 1 l -2,1 z m 0,-5 h 2 l -1,1 -1,1 z m 9,104 h 2 l -1,1 z m 2,6 v 1 l 1,-1 z m 4,23 v 1 l 1,-1 z m 7,-34 v 1 h 1 v -1 z m 2,-4 1,1 h -1 z m 83,-89 1,1 c 0,1 1,2 4,2 l 2,2 1,-1 v 1 l 1,-1 1,1 -1,1 h 2 l 2,1 9,6 5,7 c 2,0 3,3 3,6 h 1 l 3,3 -1,1 1,1 h -1 v 1 h 1 v -1 l 1,6 h -1 l 1,1 c 0,2 -1,3 -2,3 v 1 l -5,4 1,2 h -3 l -1,-1 h -1 v 1 l -2,-1 c 0,1 0,2 -1,1 l -3,-3 -1,1 -2,-3 h -1 v -2 l 1,1 v -1 h -2 v -3 h 1 -1 l 1,-1 v -1 l -1,-3 h 1 v -1 l -3,-3 h 1 c -3,0 -4,-2 -4,-3 l -1,-1 1,-1 h -3 c -1,-2 -4,-4 -9,-5 v -1 h -1 l -3,-2 -6,1 -1,-1 h -1 l -1,1 h -1 v -2 l -1,1 v 1 h -1 l -4,-2 v 1 l -2,-1 h -1 l -1,2 v 1 h -1 v -1 l -5,2 -1,-1 -4,5 1,1 -2,2 h 2 v 1 h -1 l 7,12 h 1 l -1,-1 v -1 h 1 v 3 l 5,4 1,3 1,-1 v 2 l 8,9 1,-1 h 1 l 9,7 6,6 6,4 2,2 v -1 h 1 c -1,1 0,2 1,4 l 1,-1 1,2 5,5 3,3 2,3 5,10 -1,1 v 1 c 1,0 2,1 1,2 h 2 v 2 l 1,7 -1,1 c 1,0 2,2 1,4 l -1,3 2,1 h -1 v 4 l -2,1 1,5 h -1 v 3 l -1,-1 -2,3 v 2 l -2,3 h -1 v 1 c -3,4 -8,8 -14,12 v 1 l -1,-1 -4,2 v 1 l -1,-1 v -1 l -1,2 h -5 v -1 h -4 l 1,2 -2,-1 v 1 h -1 v -2 1 h -1 l -2,-1 h -3 l -2,-1 -2,1 v -2 h -5 v -1 l -1,1 -2,-1 v -1 h -2 v 1 l -4,-4 -1,1 -1,-1 -9,-4 v -1 l 1,-1 h -1 l -1,1 c -1,-2 -3,-4 -5,-4 v -1 l -4,-6 v -1 l 1,1 1,-1 h -3 v -2 l -2,-5 -1,1 -1,-2 1,-1 h -1 l 1,-1 v -3 l -2,1 c 1,-2 0,-3 -1,-3 l 2,-4 h -2 l 1,-2 h -1 l 1,-1 v -3 h -1 v -1 c 2,0 3,-1 3,-2 v -3 l -1,-1 4,-1 -1,-1 h 1 l -1,-1 h 2 v -3 l 8,-4 1,-2 h 1 l 1,1 v -1 l 2,2 -2,1 v 1 h 1 l 2,-1 2,5 h -1 l 2,1 -1,1 2,2 h -1 l 1,2 h 1 l -1,1 1,1 -1,1 h 2 l -1,1 1,3 -1,1 v 1 -1 c 2,1 2,2 2,4 h -1 c 0,2 1,3 2,3 v 1 h -1 l 1,1 -1,1 1,1 v -2 l 1,1 v 2 l -1,1 4,4 1,-1 1,3 h 2 l 2,3 2,-1 1,2 h 5 l 4,3 v -1 h 1 l 1,-1 1,1 c 8,0 12,-2 13,-6 l 2,-4 1,-1 1,-1 v -4 h 2 l -1,-3 v -2 l 1,-1 -3,-8 -3,-6 c -2,0 -3,-2 -5,-6 l -5,-7 h -1 v 1 l -10,-7 1,-1 h -2 l -4,-3 -2,-1 -3,-1 -1,-1 h -1 l -1,-2 h -1 l -3,-2 h -1 l -4,-5 -1,1 -8,-8 v -1 l -1,1 -3,-3 1,-1 -3,-8 -2,-4 v -1 h 1 v -1 h -1 v -1 h -1 v -1 l 1,-1 h -2 l 1,-1 c 0,-1 0,-2 -2,-2 l 1,-1 v -9 l 1,-3 v -2 c 0,-2 1,-3 3,-3 v -1 c 0,-3 1,-4 2,-4 v -1 h -1 l 1,-1 3,-1 c -1,-1 -2,-1 -1,-2 h 1 v 1 l 4,-4 8,-3 h 1 l 6,-1 v 1 h 1 v -2 l 3,1 v -2 h 2 v 2 h 1 v -1 h 3 v 1 h 8 l 3,1 h 2 l 1,1 h 1 v 1 c 2,0 3,-1 3,-2 z m -56,97 h 1 l -2,1 z m 3,41 h 1 v 1 h -1 z m 0,2 h 1 l -1,1 z m 48,-52 h 1 v 1 h -1 z m 25,-43 v 1 l 1,1 v -2 z m 7,91 v 1 z m 5,-7 h 1 z"
           id="path1162" />
        <g
           fill-rule="evenodd"
           clip-rule="evenodd"
           id="g1172">
          <path
             d="m 407,602 1,-1 h 4 v 1 h 2 l 1,2 v 1 h 1 v 2 -1 h 2 v 1 l -1,-1 1,1 v 1 -1 h -1 v 2 h 1 v 2 l -1,-1 v 1 h -1 l 1,1 h -1 v 2 c 0,1 0,0 0,0 v 1 h 1 v 1 h -1 c 1,0 0,0 0,0 h -1 v 1 l -1,-1 -1,-1 v 1 -1 h -1 l -1,1 h 2 v 1 h 1 v 2 -1 h -2 v -1 1 h -2 v 1 h 1 -1 v 1 h 1 v 1 h 1 v -2 1 h -1 v -1 h 1 l 1,1 -1,1 v 1 l -1,1 -1,1 1,-1 h -2 1 v 1 h -1 1 v -1 h 1 l -1,1 v 14 c 0,0 -1,0 0,0 v 1 h -1 v 6 l -1,3 v 5 l 1,1 v 8 l 1,1 v 5 l -1,1 v 1 h -2 v -6 c -1,0 0,0 0,0 v -1 h -1 l 1,-1 -1,-2 v -8 l -1,-2 v -1 l 1,-6 v -5 l 1,-2 v -9 h -1 v -4 h -1 l 1,-1 v 1 -1 h -1 1 v -2 l -1,1 v -2 1 h -2 v -1 h 2 l -1,-1 v 1 l -1,-1 h 2 -1 v -2 h -1 v 1 h -1 v -1 c 0,0 1,0 0,0 v -2 h -1 v -1 h 1 v 1 c 0,0 1,0 0,0 l 1,1 h 1 -1 v -2 h -1 v -1 h 1 v 1 -5 1 h -1 v -1 h -1 1 l -1,-1 1,-1 h 1 v 1 -2 h 1 v -1 h 1 v -1 c 1,0 1,0 0,0 h 1 v -1 h -1 l 1,-1 h 1 v 1 l -1,-1 v 1 h 1 -1 z m 4,18 -1,-1 v 2 h 1 l -1,-1 z m 6,-10 h 1 l -1,-1 z m -7,8 c 0,0 1,0 0,0 z m -7,-7 1,-1 h -1 z m 0,-5 h -1 v 1 z m 14,4 v -1 h -1 z m -1,-1 v -1 z m -11,9 h 1 z m 0,-4 h -1 z m -1,-1 z m 13,-6 h -1 z m -13,6 v 1 z m -1,-7 z m 3,13 v -1 z m 5,0 z m -1,-3 c 1,0 0,0 0,0 z m -5,-7 z"
             id="path1164" />
          <path
             d="m 417,605 v 1 l -1,-1 h 1 l 1,-1 v 1 z m -6,-5 h -1 c 0,0 0,-1 0,0 l 1,-1 z m -15,11 v -1 c -1,0 0,0 0,0 l 1,1 v -1 z m 21,3 v -2 h 1 v 1 z m -16,-4 1,-1 v 2 h 1 -1 v -1 z m 2,10 v 1 h -1 v -1 z"
             id="path1166" />
          <path
             d="m 401,610 h 1 l -1,2 -1,-1 h 1 z m 17,8 v -1 1 h -2 z m -5,3 v 1 l -1,-1 z m -13,-7 v -2 z m 3,-9 -1,-1 h 1 z m 0,5 -1,-1 v -1 1 h 1 z m 0,-9 1,-1 1,1 z m 1,3 v -1 h 1 z m 1,19 v -1 l 1,1 v 1 z m 13,0 h 2 z m -4,-4 h -1 v -1 z m 5,-2 v 1 h -1 z m 1,-13 h -1 v -1 z m -2,10 -1,1 -1,-1 z m -16,-12 h 1 v 1 h -1 z m -4,4 -1,-1 h 1 z m 18,13 h 1 z m -5,5 h 2 l -1,1 z m -7,-2 h -1 v -1 h 1 z m -2,-6 v 1 l -1,-1 h 1 v 1 z m 12,3 1,-1 v 1 z m 2,-17 -1,1 z m -16,4 h -1 z m 16,-6 v -1 h 1 z m 0,-1 -1,1 v -1 z m 4,17 h -1 l 1,-1 z m -17,-13 v -1 c 0,0 1,0 0,0 h 1 v 1 z m 3,32 h -1 v -1 z m 9,-18 h 1 z m 0,1 1,-1 z m 4,-6 v 1 l -1,1 1,-1 z m -5,7 v 1 l -1,-1 v 1 -1 z m -1,2 v -1 h 1 z m -6,-21 v -1 z m 4,30 1,-1 v 1 z m -14,-13 v -2 z m 1,-4 h -1 1 c 1,0 0,0 0,0 z m 13,-13 1,-1 v 1 z m 8,12 h 1 l -1,1 z m -21,-9 h 1 z m 14,23 1,1 h -1 z m -10,-24 1,-1 v 1 z m 19,14 -1,1 v -1 z m -5,6 h -1 v -1 h 1 z m 5,-3 v -1 h -1 1 z m 2,-11 h -1 z m -11,14 h 1 z m 5,-20 v 2 z m -16,6 h 1 z m 11,19 v 1 z m 5,-6 v -1 h 1 z m -12,1 h -1 l 1,-1 z m 0,5 h 1 z m 12,-4 h 1 v 1 h -1 z m 1,-14 c 1,0 1,0 0,0 z m 1,7 h -1 z m -5,-14 v -1 z m 7,17 h 1 z m -17,-2 v -1 l 1,1 z m 17,-17 h 1 z m 0,16 v 1 z m -21,-4 v -1 1 -1 z m 17,8 h -1 z m -20,2 h 1 z m 9,8 h -1 v -1 z m 15,-18 -1,-1 h 1 z m -3,-1 1,1 h -1 z m -15,-8 v 1 z m 4,23 c -1,0 0,0 0,0 z m -5,-26 v 1 h -1 1 z m 10,25 h -1 z m 1,8 v 1 l -1,-1 z m -5,-34 h 1 z m 10,4 h 1 z m -16,0 -1,-1 z m 18,18 v -1 z m -17,1 v 1 h -1 v -1 z m -5,-11 v -1 z m 17,15 1,-1 z m -9,-27 v 1 z m -7,13 z m 16,25 v -1 z m -10,-13 c 0,1 0,1 0,0 z m 16,-21 v 1 z m -6,17 v -1 z m -3,3 v 1 l -1,-1 z m 2,0 z m 1,-25 v -1 z m 3,0 v -1 z m -16,7 z m 10,-7 v 1 z m 5,19 z m -1,-15 v 1 h 1 z m 3,3 v -1 z m -23,10 h -1 z m 7,-15 v -1 l 1,1 z m 17,11 v -1 z m -26,-5 v 1 z m 11,28 z m -3,-15 h 1 z m 0,-1 c 0,0 1,0 0,0 z m 2,3 z m 1,41 -1,1 z m -4,-57 z m -3,-1 z m 4,-1 -1,1 z m -7,4 h 1 v 1 z m 21,-7 c -1,0 -1,0 0,0 z m 0,21 -1,-1 z m -15,-17 z m 19,8 v -1 z m -13,27 h -1 z m -14,-32 h 1 z m 12,32 h -1 z m -6,-18 h -1 z m 23,-7 -1,1 v -1 z m -18,6 h 1 z m 14,-1 z m -15,7 h -1 1 c -1,0 -1,0 0,0 z m 9,0 h -1 z m -1,19 z m -7,-47 z m 15,8 1,-1 v 1 c 0,1 0,0 0,0 z m -1,5 h 1 z m -18,-4 h 1 z m 21,6 h -1 z m -4,8 1,1 z m -10,-21 z m -7,19 h -1 l 1,-1 v 1 c 0,1 0,0 0,0 z m 13,8 v -1 h 1 z m 4,-23 h -1 z m -12,20 v -1 z m -5,-15 h 1 z"
             id="path1168" />
          <path
             d="m 419,612 -1,1 v -1 z m -9,11 h 1 z m -10,-16 v -1 z m 15,10 v 1 z m -5,37 h -1 z m 2,-54 h 1 z m -7,21 v -1 z m -3,-22 v 1 z m -1,7 z m 24,12 v 1 z m -9,3 h 1 z m -15,-6 v -1 z m 3,11 c 0,-1 0,0 0,0 z m 15,-17 c 0,0 0,1 0,0 z m -23,12 v 1 z m 6,-16 h -1 l 1,-1 z m -5,14 z m 7,1 h 1 z m 2,0 h -1 z m 11,-19 v 1 z m -10,25 h -1 z m 14,-9 h 1 z m -26,-12 z m 6,4 z m 9,28 z m 10,-18 v -1 z m -20,-19 h 1 z m -3,22 h -1 z m 23,-2 v -1 z m -9,14 z m 0,4 c 0,1 0,1 0,0 z m -1,4 h 1 z m 2,-12 z m 6,-9 v 1 z m -14,-2 h 1 z m 16,0 z m -11,-24 z m -3,4 z m 9,2 v -1 z m -15,23 z m 19,-23 c -1,0 -1,0 0,0 z m -18,11 h -1 z m 3,16 v 1 z m -3,-15 v -1 z m 12,43 c 0,-1 0,-1 0,0 z m -8,2 z m -8,-52 z m 23,1 h 1 z m -9,56 z m -8,-45 -1,-1 z m 11,-20 h -1 1 c -1,-1 0,-1 0,0 z m 6,25 z m -9,-27 z m 10,14 v 1 z m -7,24 h 1 z m -14,-30 z m 19,23 z m -1,-22 z m -12,32 z m -3,-32 z m 3,35 z m 5,-16 c 0,1 0,0 0,0 z m 8,-10 z m 2,-6 v 1 z m -13,-10 z m -8,5 z m 2,1 v -1 z m 0,0 z m -5,0 v 1 z m 3,5 z m 0,3 z m 24,1 z m -26,1 z m 1,3 z m 4,1 z m 13,0 -1,1 z m -15,2 v 1 z m 4,1 v -1 z m 12,1 z m 1,0 h 1 z m -5,2 v 1 z m -1,5 z m -1,3 z m -1,12 z m 7,-45 h -1 z m -15,25 c 0,-1 0,-1 0,0 z m 12,-26 z m -4,26 v -1 z m -4,0 z m 11,0 z m -12,3 -1,-1 z m -2,-7 h 1 z m 3,40 z m 5,-31 z m -12,-19 z m 19,4 h 1 z m -15,14 z m 14,-7 z m 2,0 v 1 z m 3,-8 z m -6,9 z m -11,42 1,-1 z m 7,-41 z m -13,-16 z m 12,26 z m 0,3 v 1 z m 0,7 v 1 z m 8,-40 z m -5,-1 h -1 v -1 z m 2,-1 z m 4,12 z m -12,-13 c 0,1 0,1 0,0 z m -1,28 z m -4,0 h 1 z m -10,-9 v -1 z m 18,12 1,-1 z m -2,-35 v -1 z m -9,23 z m 14,2 v -1 z m -19,-3 h 1 z m 17,18 z m -8,1 z m -1,0 v 1 z m 13,-14 v -1 z m 8,-10 h -1 z m -10,8 c -1,0 0,0 0,0 z m 3,-16 v 1 z m 3,0 z m -23,0 z m 2,-1 v -1 z m 21,-1 z m -7,22 z m 3,-9 z m -11,-15 z m -5,0 v -1 z m 3,16 z m 2,9 z m 2,-26 h 1 z m -3,-1 z m 11,28 z m 7,-28 z m -11,18 v 1 z m 1,1 -1,-1 h 1 z m 0,-3 c 1,0 0,0 0,0 z"
             id="path1170" />
        </g>
      </g>
      <g
         fill="#00004a"
         id="g1182">
        <path
           d="m 191,161 h 1 v 1 z m 48,-4 c 2,1 2,2 2,3 l 1,1 3,-2 1,1 v 4 h 1 v -4 h 2 l -1,1 v 1 l 1,1 h 1 v 2 l -1,-1 h -1 v 1 l 1,1 1,-1 h 2 c 0,4 1,5 2,6 v -2 l 1,1 h 1 l 1,2 -1,1 v -1 l -1,-1 -1,2 2,2 6,1 v 1 h 2 v 1 l 2,-1 v 2 l 1,-1 v 1 h 2 v 1 h 2 l 3,-1 2,2 h 4 v 1 l 5,-1 v 2 l 4,1 2,1 -1,1 1,1 2,-1 c 2,1 2,3 1,6 l 1,3 -2,3 v 2 l -1,-1 h -1 v 1 l -3,2 h -1 v -1 h -1 v 1 h 1 l -2,1 h 1 l -1,1 h -1 v -1 h -10 l -1,-1 -3,1 v -1 h -4 l -1,-1 h -2 l -1,-1 h -4 l -1,-1 h -6 v -1 l -2,1 2,1 a 312,312 0 0 0 -2,5 h -1 v 2 l -1,1 1,2 -1,1 h 1 l -2,2 v 1 h 2 v 1 h -2 v 2 h 1 l -2,2 v 3 h -1 l -1,6 v 1 l -1,2 -1,1 1,1 -1,1 -1,8 -1,3 h -1 l 1,1 -1,1 1,1 -1,1 1,2 h -2 l -1,7 v -1 l -1,5 h -1 v 1 l -1,2 v 1 l -1,7 h -1 l 1,1 h -2 l 1,1 h -1 v 5 c -1,0 -2,0 -2,2 l 1,-1 1,2 h -1 v 2 l -2,1 v 2 -1 h -1 l 2,1 v 1 h -1 v -1 h -2 v 2 l -1,2 c -1,1 -3,2 -3,4 v 1 l -1,1 v 1 h -1 v -1 l -2,1 v 2 h -3 l -1,-1 -3,-1 -3,-5 v -2 h 1 l -1,-3 h 1 v -4 l 1,-2 -1,-1 1,-1 v -1 l 2,-2 v -3 h 1 v -3 l 1,-3 v -1 l 1,-1 1,-4 v -2 h 1 l -1,-1 2,-3 -1,-2 h 1 l 1,-4 2,-2 v -5 l 1,1 v -6 l 1,-1 1,-2 -1,-1 1,-1 c -1,-1 -1,-3 1,-6 v -1 l -1,-2 2,-1 -1,-7 h 1 l -1,-5 h 2 v -1 h -1 l -1,-1 h 1 v -5 h 1 v -1 h -2 1 v -2 h 1 v -1 l -1,-4 h 1 l -1,-4 v -1 h 1 v -1 h 1 v -2 l -2,2 -1,-1 1,-1 1,-1 -1,1 -1,-1 h -2 v -2 l -2,1 -3,-1 2,-1 -1,-1 -3,1 v -1 h -2 v -1 h -2 v -2 l -1,1 -2,-1 -1,1 -1,-2 v -1 l -2,1 h -1 c 1,-1 0,-2 -1,-3 v 1 h -1 c -3,-3 -5,-6 -5,-8 l -1,1 -1,-1 v -2 l 1,-2 -1,-1 -1,2 -1,-1 h 1 v -1 h -1 v -1 h 2 c -2,-1 -2,-2 -2,-3 l 2,-2 h -3 l 2,-3 -2,-1 c 2,-2 3,-2 5,-2 v -1 h 2 v -1 h -1 l -1,-1 v -1 l 1,1 h 4 l 1,1 h 6 v -2 l 1,1 1,2 h 2 l 1,1 h 2 l -1,-1 h 2 l -1,1 h 1 v -1 l 1,2 v 1 l -1,1 2,-1 1,1 1,1 v -1 l 4,4 h 1 l 3,3 4,-1 h 3 l 1,1 -2,-4 h 3 v 2 l -1,1 h 4 l 1,-2 h -2 v -1 h -1 v -1 z m -30,120 h 1 v 1 z m 15,17 -1,1 h -1 l 1,-1 z m -1,-137 h 1 l -1,1 z m 11,6 v 1 h 1 v -1 z m 3,1 1,1 1,-1 z m 5,-11 h -1 z m 0,9 1,1 1,-2 z m 2,-5 v 1 h -1 v -1 z m -1,-3 1,1 z m 2,11 v 1 h 2 z m 1,-9 1,1 h 1 v 1 c -1,-1 -1,0 -1,1 l -2,-1 v -2 z m 1,-1 h 1 v 1 z m 2,45 -1,1 h 1 z m 1,-38 h 1 v 2 z m 3,9 v 1 h 1 z m 0,-8 1,1 v 1 z m 1,2 1,2 v 1 h -1 z m 22,38 1,1 v 1 l -1,-1 z"
           id="path1176" />
        <path
           d="m 276,179 2,1 -1,2 h -1 z m 1,13 1,1 v 1 h -1 l -1,-1 z m 2,3 v 1 h -2 l 1,-1 z m 0,-11 1,1 h -1 l -1,-1 z m 92,-11 2,2 -2,2 1,1 1,-1 1,2 v -1 l -1,-2 h 2 c 0,0 0,2 2,3 h 1 c 2,1 3,3 3,5 l 2,2 h -2 l 3,11 v 3 l 1,1 v 2 l -1,2 1,3 -2,2 1,2 -1,1 v 1 h 1 v 1 h -1 l 1,1 -2,-1 -1,1 2,1 v 1 h -2 l 1,3 -1,1 -1,-1 v 5 l -2,1 v 2 l 1,1 -3,-1 -1,2 1,-1 2,1 -1,2 h 2 -2 l -1,-1 -1,1 v 1 h 1 l -2,1 v 2 h 1 l 1,-2 1,1 -2,1 1,1 h -2 l -1,1 2,1 v 1 l -2,2 1,2 h -2 1 v 2 l -1,1 v 1 h -1 v 2 l -1,-1 v 1 l 1,1 v 1 l -2,-2 v 2 l -1,1 2,2 h -2 c 1,0 0,0 0,0 l -1,2 v 1 l -1,1 v -1 l -1,1 1,2 v 1 l -1,-1 -1,3 h -1 v 5 h -1 l 1,1 h -1 v 3 l -1,2 1,1 h -2 l 1,3 h 1 l 1,-1 v 1 h 1 l 5,2 v -1 l 3,4 -1,1 v 3 c -1,2 -4,4 -8,5 l -4,1 -1,2 1,1 -2,3 1,5 h -1 l 2,13 1,5 -1,1 2,7 v 3 c -3,5 -5,8 -7,8 0,0 0,1 0,0 l -3,-2 -1,1 -4,-4 -1,-4 h 1 l -2,-6 h 1 v -1 l -1,-1 v -2 h 1 l -1,-6 v -1 l -1,-1 2,-2 -1,-5 h 1 l -1,-7 v -8 l -4,1 -2,-1 -1,-1 -1,1 h -1 l -1,-1 -1,1 v -1 l -4,1 v -1 l -4,2 h -3 l -2,-1 -3,2 h -1 l -4,2 -1,-1 -2,1 h -3 v 1 l 1,3 h 1 v 1 h -1 l 2,2 -1,1 -1,-1 v 1 h 1 v 1 l 1,1 2,-1 h -1 v 3 l -1,1 v -1 l 1,-1 -2,1 -1,1 2,1 v 1 l -1,-1 h -1 c 2,1 3,1 2,2 l -2,2 h -1 v 2 h -1 l 1,2 1,-1 v 1 l -2,1 v 1 h 1 v 1 l -3,2 1,1 -1,1 -1,-1 c -1,2 -2,3 -5,2 l -2,1 -2,-1 v -2 l -3,-3 1,-1 v -1 l -2,-1 c 1,-1 0,-2 -1,-3 1,0 2,-1 2,-3 l -1,-1 2,-1 c -1,0 -2,0 -1,-1 h 1 l -1,-2 h 2 v -6 l 1,-1 -2,-1 v -1 h 1 l -1,-3 h -1 l -1,-1 h -1 l -3,-4 h -1 v 1 h -1 l 1,-3 v -4 l 1,1 h 1 c 1,-2 3,-4 7,-6 h -1 v -1 l 2,-1 c -2,0 -3,-3 -2,-7 l -1,-3 1,-1 -2,-4 h 1 v -3 l -1,-5 h -2 v -1 h 1 v -1 h 1 v -2 h 1 v -1 h -1 v 1 h -1 v -4 h 1 l -3,-3 2,-2 -1,-2 1,-1 c -1,-1 -2,-2 -1,-3 l -1,-1 v 1 h -1 l 1,-3 1,-1 -1,-5 v -1 l -1,1 v -1 l 1,-1 h -1 l -1,-2 v -3 h -1 v -1 l -1,-1 -1,2 -1,-1 h 1 l 2,-1 1,-3 -1,-1 v -4 l -2,1 -1,-1 h 2 l -1,-3 v -2 l -1,-2 h 1 l 1,-1 v -1 h -2 v -1 l -1,-3 2,-1 v -4 l -1,1 h -1 v -1 l 1,-1 h 1 -2 v -2 l -1,-2 2,2 1,-2 -1,-3 h -1 l -1,-2 1,-1 -2,-6 h 1 v -2 h 1 l 1,4 -1,1 1,-1 v -2 l 2,-1 v -1 l -1,1 -1,-1 -1,-4 v -1 h 2 l 1,2 2,-1 -3,-1 h 1 l 2,1 v -1 h -1 l 1,-1 2,1 -2,1 h 3 l -2,-2 1,-1 h 2 v 1 -1 l -2,-1 v -1 l 1,1 h 1 l -1,-1 h 1 v -2 2 h 1 l 3,-2 3,3 h 1 l -1,-1 h 3 l -1,1 h 1 v -1 h 2 l 1,1 h -1 l 1,1 v 1 l 1,2 h -1 l 2,1 v 1 h -1 v 1 l 3,-1 v 1 l -1,1 2,1 h -1 v 1 l 4,3 h -1 v 1 h -1 l 3,2 -1,1 1,1 h -1 l -1,-1 v 1 l 1,1 -1,2 1,3 -1,1 3,1 -2,1 v 1 h -1 v 5 l 1,1 -1,1 v 1 h -1 v -1 l -1,1 2,3 -2,1 1,1 h 1 l 1,1 h -1 v 1 -1 h -1 l -1,2 c 2,0 2,1 2,3 h -1 v 1 h 1 v 2 l -1,1 1,1 -1,1 2,3 h -3 l 1,1 v 1 h -1 l 2,1 v 1 h -1 l -1,1 2,3 h -2 l 1,1 -1,1 2,1 -1,1 h -1 l 2,1 -1,1 h -1 l 1,1 h 1 v 1 l -2,1 v 1 l -1,1 1,3 h -1 l 1,1 v 1 h -1 l 1,2 -1,2 1,2 -1,1 1,1 h 1 v 2 h -1 v 1 l -1,1 1,1 -1,1 1,2 h -1 l 2,4 h -1 l 1,2 -2,1 1,1 v 1 l -2,1 1,1 1,-1 v 4 h -1 l 1,3 2,-1 1,1 h 2 l 1,1 7,-1 1,-1 1,1 8,-1 h 3 l 1,1 1,-2 2,1 h 7 l 1,-2 -2,-2 h 1 v 1 l 1,-2 h -1 l 1,-1 -1,-5 1,-1 -1,-1 1,-1 1,-1 h -1 v 1 h -1 v -1 l 2,-2 -1,1 v -3 l 1,-1 v -2 l -1,-1 1,-2 v -3 l 1,-1 v -2 l 1,-1 -1,-1 h -1 v -1 l 1,-1 h -1 1 v -1 l 1,-1 -1,-1 1,-1 -1,-2 h 2 l -1,-2 1,-3 -1,-3 v -6 h 1 v -1 l 1,-2 -1,-1 1,-2 -1,-3 1,-1 h -1 l 1,-3 1,-1 -2,-1 1,-1 v -1 l 1,-3 1,-8 -1,-1 2,-4 -1,-1 1,-1 -1,-1 1,-1 1,3 c 1,-1 0,-2 -1,-4 l 1,-2 1,2 2,-1 v -2 h -4 v -1 h 3 l 1,-1 1,-1 1,-1 h -2 v -1 l 3,-1 -1,-1 2,-1 1,1 2,-3 v 2 h 5 v 2 h 1 v -2 h 1 l -1,-1 z m -92,20 v 1 h -1 z m 1,9 -1,1 -1,1 1,-1 z m -1,-25 v 1 l 1,-2 z m 1,29 h 1 v 1 h -1 v -1 l -1,1 v -1 z m -1,-15 1,1 h -1 z m 0,9 h 1 l -1,1 z m 0,-31 h 1 l -1,1 z m 2,25 v 1 c 0,2 -1,2 -2,2 l 1,-1 v -1 z m 0,8 v 1 l -1,-1 z m -1,8 h 1 z m 0,-7 h 1 v 1 h -1 z m 0,-40 h 1 z m 1,20 v 1 z m 0,15 h 1 z m 1,-26 v 1 h 1 z m 0,14 v 1 l 1,-1 z m 2,-22 v 1 h 1 v 1 l -2,2 -1,-1 h 1 l -1,-1 v -1 h 2 z m -2,28 h 1 z m 0,14 h 1 v -1 z m 1,8 h -1 z m 1,2 -1,1 z m -1,-43 1,1 h 1 l -1,-1 z m 0,4 v 1 h 1 v -1 z m 2,49 v 1 h -1 v -1 z m 1,-68 -1,1 h -1 v -1 z m -2,72 h 1 v 1 z m 2,-12 -1,1 h 1 z m 1,-59 v 1 h -1 z m -1,3 1,1 v 1 h -1 z m 0,159 v 1 z m 1,-150 1,1 v -1 z m 0,64 1,1 v -1 z m 2,-79 h 1 l -3,1 v -1 z m 0,5 v 1 l -1,-1 z m 0,160 1,1 h -1 z m 0,-151 v 1 h 1 v -1 z m 0,144 h 1 l -1,1 z m 2,10 1,1 v 1 l -1,-1 h -1 z m -1,-167 1,1 h -1 z m 1,3 h 1 v 1 h -1 z m 0,2 h 1 v 1 h -1 z m 0,-6 h 1 v 1 h -1 z m 0,11 h 2 v -1 h -1 z m 1,160 h 1 -1 v 2 l -1,-1 v -1 z m 0,-174 1,1 h -1 z m 1,6 h 1 v 1 z m 3,2 v 1 h -2 l -1,-1 z m -3,7 1,1 v -1 z m 1,-5 h 1 l -1,1 z m 1,-5 h 1 z m 0,12 h 2 z m 0,-11 1,1 1,1 -1,-1 z m 1,4 1,1 h 1 -2 z m 0,-8 h 1 v 1 z m 0,175 h 1 z m 1,-164 v 1 h 1 z m 1,1 v 2 h 3 -1 v -1 h 1 v -1 h -1 v 1 h -1 z m 1,-10 v 1 z m 0,173 h 1 l -1,1 z m 0,-168 h 1 v 1 h -1 z m 0,8 v 1 h 1 v -1 z m 1,-3 1,-1 z m 0,-3 1,1 z m 3,-9 v 1 z m 0,12 1,1 h -1 z m 1,-1 1,1 h -1 z m 0,8 1,1 z m 1,-7 1,3 -1,1 v -1 h 1 v -1 h -2 z m 0,142 v 1 h 2 v -1 z m 2,-132 -1,1 h 2 v -1 z m -1,-4 h 4 v 1 h -1 v 2 z m 1,-11 1,1 h -1 z m 1,154 v 1 l -1,1 v -1 z m 0,-54 1,1 h -1 l -1,-1 z m 0,38 1,1 h -1 l -1,-1 z m 0,-62 v 2 z m 0,70 v 1 h 1 v -1 z m 1,-10 1,1 v 5 l -1,-1 v -1 h 1 z m 0,-105 h 1 z m 0,119 h 1 v 1 h -1 z m 1,-130 -1,1 h 1 z m 0,42 1,1 h -1 z m 1,-45 -1,1 z m -1,134 1,1 -1,1 z m 1,-136 3,3 h -1 l -2,-2 h -1 z m -1,91 h 1 l -1,1 z m 1,-71 v 1 h -1 v -1 z m -1,66 h 1 z m 1,-73 v 1 z m 2,-2 v 1 l -2,1 1,-1 z m 30,139 h 1 v 1 h -1 z m 11,-137 v 1 l 1,-1 z m 2,-14 h 1 v 1 h -1 z m 2,-3 h -1 z m 5,3 -1,1 h 1 z m 2,82 -1,1 h 1 z m 0,-83 v 2 l 2,1 v -1 1 h 2 l 1,1 v -2 h -1 z m 0,5 v 1 h 1 v -1 z m 1,75 v 1 h 1 z m 1,6 v 1 h -1 z m 0,-7 v 1 l 1,-1 z m 1,-5 v 1 z m 1,-79 2,3 -1,-1 h -1 z m 1,77 v 1 l 1,-1 z m 0,1 v 1 l 1,-1 z m 2,-5 v 1 z m 1,-3 v 1 h 1 v -1 z m 1,-61 v 1 h 1 v -1 z m 1,2 v 1 h 1 v -1 z m 1,47 h 1 z m 1,-9 -1,1 h 1 z m 0,-40 v 1 l 2,2 -1,-2 z m 1,44 -1,1 h 1 z m 0,2 v 1 h 1 z m 0,-5 v 1 l 1,-1 z m 0,-16 v 1 l 1,1 v -2 z m 1,20 1,1 v -1 z m 0,-2 v 1 l 1,-1 z m 3,-12 v 1 l -1,-1 v 2 h 1 v -1 l 1,1 v -1 z m 0,-9 v 1 h 1 z m 0,4 v 1 h 1 z m 0,8 v 1 z m 0,-5 h 1 z"
           id="path1178" />
        <path
           d="m 399,187 -1,2 -1,-1 v 2 h 1 l 1,-3 h 2 l -1,1 2,2 v -1 l 1,1 -2,1 1,1 3,2 v 1 l -2,-1 v 1 c 1,0 2,1 1,2 l 1,1 1,-1 -1,2 h 2 l -1,1 h 2 l -1,2 v 1 l 2,-1 c 0,4 2,5 3,6 h 1 l 3,2 -1,1 h 2 l 1,1 1,-1 3,3 1,-1 1,1 h -1 l 6,4 h 2 v -1 3 h 1 l 1,-1 5,4 4,2 v 1 l 2,-1 h 1 l -1,1 2,1 3,1 3,2 1,-1 v 1 h 3 v 1 h 1 v 2 h 1 c 0,-1 0,-2 1,-1 l 1,1 h 3 v 1 l 2,-1 1,1 1,1 h 2 l 3,2 3,-2 v 2 l 1,-1 h 1 l -1,1 3,2 v -2 l 1,3 2,-1 v 1 -1 l 1,1 h -1 v 2 h 1 v 1 l -1,1 h 3 l -1,1 v 2 c 1,0 2,1 1,2 v 1 l -1,1 h 1 l -1,1 v 2 l 1,-1 1,1 -2,1 v 2 h 1 v 1 c -1,0 -2,0 -3,2 v 1 h -1 l 1,1 -2,1 v 1 l -2,-2 c 0,1 -1,2 -2,1 l 1,1 -1,1 -1,-1 v -1 l -1,-1 -1,2 1,1 v 1 l -2,-3 h 1 l -2,-1 -2,1 v -1 l -1,-1 -1,1 h -1 1 v -1 l -2,-2 h -1 v -1 l -1,1 -1,-2 -1,1 -1,-1 v 1 h -1 v -1 l -3,-2 h -1 v -1 h -2 v -1 l -1,1 h 1 v 1 h -1 l -1,-2 h -1 l 1,-1 -2,-1 v 2 h -1 l -1,-2 h -1 l 1,-1 h -2 l -1,-1 1,1 v -1 h -4 v -1 l -1,1 -1,-1 h -1 v -1 h -1 l -4,-3 h -1 l -1,-1 v 1 l -3,-2 -1,1 h -1 l 1,-2 h -1 l -1,1 -2,-1 1,-1 v -1 h -3 l -2,-2 -2,-1 c 0,2 -1,3 -2,2 v -1 l 2,-1 -2,-1 -3,-1 v -1 l -1,2 v 1 l 1,3 -1,1 v 3 h 1 l 1,1 h -2 l 1,2 -1,1 h -1 2 v 1 l -1,2 1,2 -1,2 v 6 l -1,2 1,2 -1,1 1,3 h -1 l 1,4 -1,1 v 4 l 1,4 1,-1 2,1 4,-1 1,1 h 19 l 6,-1 v 1 l 1,-1 2,4 h 1 l 1,-1 v 1 h -1 l 1,7 -1,1 c 0,1 -1,2 -2,1 v 1 l -6,3 -1,-1 -5,-1 h -8 l -1,-1 -1,1 -2,-1 -4,1 -1,-1 -4,1 h -4 v 1 l -1,2 v 5 l -1,1 v 2 h 1 -1 l -1,1 1,3 h -1 l 1,3 -2,1 v 1 l -1,3 1,1 -1,1 v 5 l -1,1 h 2 l -1,1 h -1 v 2 h -1 l 1,1 -2,2 1,1 -1,2 v 2 l 4,-1 2,2 1,-2 1,1 6,-1 2,1 h 3 v -1 l 1,1 1,-1 1,1 v -1 l 1,1 7,-1 1,1 h 2 l 1,-1 1,1 h 2 -1 2 l 1,1 2,-1 v 1 l 1,-1 6,1 v 1 l 4,-1 1,1 h 2 l 4,2 h 1 l 3,3 1,-1 v 2 l 1,-1 1,2 -1,2 v 3 l -4,4 -2,-1 -5,3 h -1 v -1 h -7 l -1,-1 -2,1 -1,-1 -1,1 h -1 l -5,-1 -5,1 v -1 l -1,1 c -3,0 -5,-1 -5,-2 l -2,2 -2,-1 h -2 l -1,-1 -1,1 -1,-1 -5,2 -1,-1 v 1 h -2 l -1,-1 -1,1 h -1 l -5,2 -1,-1 -3,2 -2,-2 -4,3 -3,2 -3,-2 -1,1 -2,-2 h -1 v 1 h 1 v 1 l -2,-1 h -2 l -3,-1 h -4 l -3,-3 h -2 l -5,-5 -1,-3 h 1 l -1,-1 1,-1 h 1 l 3,-4 1,1 h 1 v -1 l 1,-1 v -2 h 1 l -1,2 h 2 l -1,-1 1,-1 1,-1 -1,2 3,-1 1,1 2,-2 h 2 l 1,-1 v 1 l 1,-1 -1,-1 h 1 l 1,1 v -2 l 1,-2 v -1 h 1 l -1,-2 1,-2 v -1 l 1,-1 -1,-1 1,-1 v -5 l 1,1 v -1 l 1,-2 -1,-3 2,-1 -1,-4 h -1 l 2,-2 -1,-1 1,-1 h -1 v -1 l 1,-1 v -1 l 1,-1 -1,-1 h 1 l -1,-2 -2,1 v -1 l -3,1 -5,-6 1,-3 -2,-1 h 1 v -1 l 1,-3 v -1 l 1,1 2,-1 v -1 l 1,-1 v 1 l 4,-2 2,1 2,-1 v 1 -3 h 1 -2 v -1 l 1,-1 -1,-1 h 1 v -3 h 1 l -2,-2 1,-2 h -1 v -1 h 1 v -6 h 1 l -2,-5 h 1 l -2,-5 h 1 v -2 l -1,-4 h -1 l 1,-1 1,-1 v -1 l -1,1 v -2 l 1,-2 -2,-4 1,-1 v -2 h -1 v -1 h 1 v -2 l -2,1 v -2 h 1 l -1,-3 h 1 l -2,-2 1,-2 h -2 l 1,-1 h 2 v -1 l -1,-1 v -2 l -1,1 1,-1 h -2 v -2 l -1,1 -1,-2 h -1 l 1,2 h -1 l -1,-2 -1,1 -1,-1 h -2 v -1 c 1,1 1,0 2,-1 h -2 v -3 l 1,-2 -1,1 -2,-2 v -1 h 1 v -1 h -1 v -1 h 1 v -1 h -1 v -1 l 4,-2 v 1 l 1,-2 h -1 v -1 l 3,-2 v 2 l 2,-2 v -1 h 1 v 2 h -1 l 2,-1 c 0,0 -1,0 0,0 v -3 h 1 l 1,2 3,-1 -1,-2 1,1 1,1 c 1,-3 2,-3 5,-3 l -2,-3 h 2 l 1,-1 v 2 -2 l 1,1 z m -39,160 1,1 v -1 z m 12,-145 h 1 v 1 h -1 l -1,-1 z m 1,5 1,1 h -1 v 3 l -1,-2 z m 1,-12 v 1 h -1 z m 0,9 2,1 1,-2 h -1 z m 1,-6 1,1 h -1 z m 0,4 1,1 v -1 z m 1,8 v 1 h 1 z m 2,-17 h 1 l 1,1 -1,1 h -1 z m 1,19 v 1 l 1,-1 z m 1,119 v 2 l -1,-1 z m 0,-137 1,1 h -1 z m 5,105 h 1 l -1,1 z m 4,-46 v 1 z m 9,106 v 1 h -1 z m 6,-169 h 1 v 1 h -1 z m 4,9 h 1 z m 0,4 v 1 h 1 v -1 z m 1,-7 h 1 v 1 h -1 z m 0,-3 h 1 v 1 h -1 z m 1,40 h 1 z m 3,-25 v 1 z m 0,28 h 1 z m 12,4 v 1 z m 4,-25 h 1 v 1 h -1 z m 6,30 v 1 z m 8,5 v 1 h -1 z m 2,-24 v 1 l -1,-1 z m 2,0 h 1 v 1 h -1 z m 3,63 -1,1 z m 9,-34 v 1 z m 5,5 h 1 l -1,1 z m 6,3 h 1 v 1 z m 12,0 h 1 v 2 l -1,-1 z m 1,-3 h -1 z m 2,-9 v 1 z"
           id="path1180" />
      </g>
      <g
         fill="#00004a"
         id="g1190">
        <path
           d="m 222,418 1,1 h -1 z m 50,-7 3,3 1,1 3,-2 h 1 v 5 h 1 v -4 h 1 v 1 h -1 l 2,2 1,-1 v 2 h -1 l -1,-1 v 1 l 1,1 1,-1 2,1 2,5 v -1 h 1 l 1,1 h 1 v 2 l -2,-1 v 2 c 2,0 2,1 2,2 l 6,1 h 2 l 1,1 h 1 v 1 l 2,-1 v 1 h 2 v 1 h 2 l 3,-1 2,2 4,-1 1,1 4,-1 1,1 -1,1 5,1 h 3 l -1,1 v 1 c 1,1 2,0 2,-1 2,2 3,4 2,6 l 1,4 -2,3 v 2 l -1,-1 h -1 l 1,1 -4,3 v -1 1 l -1,-1 h -1 v 1 l 1,-1 v 1 h -2 v 1 h 1 v 1 h -1 l -1,-1 h -10 v 1 l -1,-1 h -1 l -2,1 -1,-2 -3,1 -2,-1 -1,1 -1,-1 -1,-1 -4,1 v -1 1 l -1,-1 h -7 l 1,-1 h -1 l -1,1 1,1 -1,2 v 4 h -1 v 1 l -1,2 1,2 c 0,0 0,1 0,0 v 1 l -1,2 -1,1 2,-1 v 2 h -1 l -1,2 h 1 l -1,2 -1,3 v 7 h -1 v 3 h -1 v 3 l -1,9 -1,2 v 2 l -1,1 1,1 v 2 h -1 l -1,8 -1,5 v 1 l -1,1 v 2 h -1 v 7 h -1 l 1,1 h -2 l 1,1 h -1 l 1,5 c -2,0 -2,1 -3,3 l 1,-1 1,1 -1,1 1,1 -1,1 -1,1 v 2 l -1,-1 h -1 l 3,1 -1,1 c 0,0 -1,0 0,0 h -2 v 1 l -1,3 c -2,1 -3,2 -3,4 v 1 l -1,1 v 1 h -1 v -1 l -2,2 v 1 l -3,1 c 1,-1 0,-1 -1,-2 h -3 l -4,-5 v -2 l 2,-1 -2,-3 h 1 l -1,-3 2,-3 -1,-1 1,-1 -1,-1 2,-2 v -4 l 1,1 v -4 l 1,-3 -1,-1 2,-1 v -4 h 1 l -1,-2 h 1 v -1 l 1,-3 -1,-3 h 1 l 1,-4 1,-2 1,-5 v -1 h 1 l -1,-5 h 1 l 1,-2 -2,-1 2,-2 v -6 l 1,-2 c -1,0 -2,0 -1,-1 l 1,-1 -1,-7 h 1 l -2,-5 2,-1 v -1 h -1 v -6 l 1,-1 h -2 l 1,-1 v -2 l 1,1 v -1 l -1,-4 v -1 l -1,-4 v -1 l 2,1 -1,-1 1,-1 v -1 l -3,1 v -2 l 1,1 1,-1 h -1 l -1,-1 h -3 v -1 h 1 -3 l -2,-1 1,-1 h -1 l -3,1 v -1 h -2 v -1 h -2 l -1,-2 -1,1 -1,-1 -2,1 v -2 h -3 l -2,-3 v 1 h -1 l -6,-7 -2,-1 1,-1 v -3 h -1 l -1,1 h -1 l 1,-1 -1,-1 v -1 h 1 c -1,-1 -2,-1 -1,-2 l 1,-3 -1,1 -2,-1 3,-3 -2,-1 c 1,-2 3,-3 5,-2 l -1,-1 2,-1 h -1 l -1,-1 v -1 h 1 l 1,1 3,-1 1,1 h 7 v -2 h 1 c -1,1 0,2 1,3 l 1,-1 1,1 h 1 l 2,1 -1,-1 1,-1 1,1 -1,1 h 1 v -1 l 2,2 -1,1 h 2 l 1,1 5,3 h 1 l 3,3 5,-1 h 2 l 2,1 -2,-4 1,-1 h 1 l 1,1 -1,1 v 1 h 4 v -2 h -1 l -1,-1 c 0,0 0,1 0,0 l -1,-1 z m -22,127 v 1 z m 6,-126 v 1 h -1 z m 10,142 -1,2 h -1 v -1 z m 1,-136 v 1 h 1 v -1 z m 4,1 h 1 v -1 z m 4,-13 v 1 h -1 z m 1,10 1,1 1,-2 z m 0,-9 1,2 -1,-1 z m 1,3 1,2 h -2 v -1 z m 2,-1 1,1 h 2 v 1 l -2,1 h -1 l -1,-2 z m 0,10 v 1 h 2 z m 1,-11 1,1 h -1 z m 4,8 1,1 v 1 z m 1,39 v 1 h 1 v -1 z m 2,-38 h 2 l -1,1 z m 1,8 -1,1 h 1 l 1,-1 z m 1,-6 1,2 -1,1 -1,-1 z m 25,38 h 1 v 1 h -1 z m 71,-29 h 1 l -1,1 h 2 l 1,1 c 1,1 1,0 1,-1 l 2,1 v 2 h 2 v 1 l -1,1 2,3 v -1 h 1 l -1,3 2,3 1,-1 -2,2 2,2 v 1 l -1,-1 v 3 -1 l 1,2 h 1 l -1,1 1,2 -1,-1 v 1 l 1,2 -1,2 1,1 h -2 l 1,1 -1,3 v 3 l -1,1 c 1,0 2,2 1,4 -1,2 0,3 1,3 v 1 l -2,2 1,4 -1,1 v 2 l 1,2 -1,1 v 1 l -1,1 1,1 1,-1 v 1 l -1,1 v 2 h -1 l 1,3 -1,1 1,1 -2,2 v 2 l 2,-1 -1,2 1,1 -2,2 2,2 -2,2 1,3 -1,2 h 1 v 8 l -1,2 1,1 v 1 l -1,2 1,1 v 1 h -1 l 2,4 v 2 l 1,2 -1,2 v 1 l 1,-1 h 1 v 1 l -1,1 -1,3 h 1 l -1,3 2,5 v 2 h -1 l 1,1 -1,4 h 3 v 1 l 8,-1 v 1 l 1,-1 3,4 1,-1 3,8 v 2 c -1,2 -2,3 -3,2 v 2 l -1,-1 c -2,2 -4,3 -6,2 l -3,1 1,-1 -1,1 -1,-1 c -3,1 -4,2 -5,1 v 3 h -1 v 4 l -2,1 -1,1 1,1 h -1 v 3 h -1 v 1 h 1 l -1,1 -1,-1 v 2 l -2,2 v 2 l -1,-1 h -2 v 3 l -2,1 1,-1 h -1 v 1 l -3,-1 v -1 h 1 l -1,-1 v 1 l -3,-3 -1,1 2,-1 h 1 v -1 h -1 l -2,-2 h 1 l -2,-3 h -1 l -1,-5 -1,-1 v 1 l -1,-1 h 1 l -1,-5 -1,-3 1,-1 v -1 l -1,1 -2,-1 -7,-1 h -3 l -2,-1 h -1 l -1,1 -2,-1 h -2 l -1,-1 -1,1 v -1 h -4 l -1,3 v 2 l -1,-1 -1,3 v 6 l -1,1 v 1 l -1,-1 1,-1 h -1 l -1,1 1,2 -1,1 -2,-1 -6,6 -1,-1 -5,1 -1,-1 v 1 l -1,-1 h -1 l -1,-1 h -1 l -1,-3 1,-2 h -1 v -1 l 1,1 v -3 l -1,-4 1,1 -1,-1 v -1 l 2,-2 v -3 c 1,0 2,0 3,-2 v -1 h -1 v 1 h -1 l -1,-2 v 1 h -1 l -1,-1 -1,1 -2,-1 -1,1 v -1 c -2,-1 -3,-3 -2,-5 l -3,-4 2,-3 -1,-1 1,-2 v -1 h 1 l 1,1 1,-2 4,-3 h 1 v 2 l 4,-1 v 1 h 7 v 1 h 1 l 1,-1 v -1 l 2,-2 -1,-1 h 2 v -3 l 2,-1 v -1 h -1 v -1 l 3,-3 v -1 l 5,-9 v -3 l 2,-2 -1,-1 3,-4 h -1 l 1,-1 v -1 l 2,-3 v -2 l 1,-3 v 2 h 1 v -1 l -1,-1 h 1 l -1,-4 h 1 v 1 l 2,-3 v -1 l 1,-1 v -4 h 1 v -1 l 1,-1 -1,-1 1,-1 v -1 l 3,-5 v -1 l 1,-3 v -1 l 1,-1 v -2 l 1,-2 -1,-4 1,1 1,-1 v -1 l 1,-2 -1,-2 1,-1 v -2 h 1 -1 l -1,1 v -2 c 1,1 2,0 2,-1 v -1 c 1,0 2,-1 2,-3 h 1 l -1,-5 2,-2 h -2 l 2,-2 -1,-3 v -1 l 2,1 1,-2 h -1 v 1 l -1,-1 1,-1 v -2 l 2,-1 h -1 l 2,-5 -1,-1 h 3 l -2,-1 v -1 l 2,1 v -1 l 1,-1 -1,-1 h 3 v 1 z m -68,140 -1,1 h 1 z m 0,15 h 1 l -1,1 z m 2,5 v 1 h 1 v -1 z m 1,5 h 1 v 1 l -1,1 -1,-1 z m 6,0 v 1 l -1,1 v -1 z m 8,-50 v 1 l -1,1 v -1 z m 5,40 1,1 v -1 z m 3,-54 v 1 h -1 z m 8,-18 1,1 v -1 z m 21,-2 -1,2 v 1 l -1,2 1,1 h -1 l 1,1 -2,2 v -1 h -1 v 3 h -1 l -2,5 1,1 -2,2 v 1 l -1,3 v 1 h -1 v 2 h -1 v 3 h -1 v 4 l -2,1 v 1 l -1,3 -1,1 v 1 l -1,2 h -1 l 1,1 -1,1 1,2 h 2 v 1 h 6 v 1 h 1 v -1 l 1,1 h 2 l 1,1 h 2 v -2 l 1,1 1,-3 -1,1 v -1 h 1 l -1,-4 h 1 l 1,1 v -1 l -1,-2 1,-1 h -3 v -1 h 2 v -3 l -1,-1 1,-1 v -5 l 1,-2 -1,-4 v -1 l 1,1 v -1 h -2 l 1,-1 v -1 h 1 v -1 l -1,-3 h 1 l -1,-4 h 1 l -1,-8 1,1 v -3 z m -15,-19 h 1 v 1 h -1 l -1,-1 z m 3,-6 h 1 z m 9,-36 h 2 l -1,1 z m 2,144 v 1 h -1 z m 1,-5 1,1 h -1 z m 4,5 h 1 v 1 h -1 z m 0,4 v 1 z m 4,3 h 1 v 1 l -2,-1 z m 3,-2 h -1 l 1,2 h 1 z m 1,-174 1,1 h -1 z m 1,6 1,1 v -1 z m 5,-1 h 1 z m 1,-4 h 1 v 1 h -1 z m 3,81 v 1 h 1 z m 1,-4 v 1 z m 0,35 v 1 z m 0,-28 1,1 h -1 z m 1,14 v 1 h -1 v -1 z m -1,-18 h 1 l -1,1 z m 1,-13 1,1 v 1 l -1,-1 z m 0,-52 h 1 v 1 h -1 z m 1,117 h 1 z m 0,-106 v 1 l 1,-1 z m 1,94 v 1 h -1 z m 0,-84 h 1 v 1 z m 20,108 v 3 h -1 l -1,-2 z"
           id="path1184" />
        <path
           d="m 420,490 v 3 h 1 v -1 h 1 v 1 l 3,-1 v 2 l 2,-1 c -1,1 0,2 2,2 l 1,1 h 1 l 1,1 1,-1 c 2,1 3,1 2,2 l 1,-1 2,1 h 1 l -1,1 8,2 1,2 h 1 l 1,-1 -1,-1 h 3 l -1,-1 v -1 l 2,-1 v 1 l 1,-1 1,1 3,1 -1,1 1,2 h 1 l 2,3 1,-1 1,1 -1,1 1,2 3,-1 v 2 l 1,-1 h 1 l 2,2 h 1 v -2 l 1,2 1,-1 v -1 h 1 v 2 -1 h 2 l 1,2 1,-1 v -1 h 1 l 2,4 1,-1 3,6 -2,1 1,1 v 1 l -3,4 h -2 l 1,1 v 1 h -4 l -4,1 -4,-6 h -3 l -1,2 1,3 -1,2 1,3 h -1 v 6 l 1,2 h -2 v 1 h 1 l -1,2 1,9 h -1 v 1 l -1,2 1,2 h -1 1 l -1,2 v 4 l -1,3 1,1 -1,1 -1,1 h 1 l -2,5 v 3 l 12,-2 1,-1 1,1 1,-1 6,3 -1,2 1,2 c 0,2 -2,4 -6,6 v 1 l -1,-1 -3,1 h -1 l -14,4 c -1,0 -3,1 -4,4 h -1 v 1 l -2,1 -6,-3 -9,4 -7,3 -7,3 -1,-1 -1,1 -3,-1 h -2 l -1,-1 v 1 l -2,-3 h -1 l -2,-2 4,-7 2,-1 4,-3 c 1,0 7,-1 16,-5 5,0 8,-2 11,-4 l -1,-1 1,-1 v -1 l 1,-1 v -4 l 1,-2 v -5 l 1,-1 v -3 l 1,-2 v -1 l 1,-1 h -1 v -3 h 1 l -1,-7 1,-1 -1,-1 1,-2 v -2 l -1,-5 -1,-3 1,-2 -2,-4 c 1,1 1,0 1,-1 v -1 l 1,-1 h -2 v -2 h 1 l -2,-2 h 1 l -5,-2 v 1 h 1 l -1,1 -2,-1 -6,1 -1,-1 -2,1 h -1 l -2,2 -1,-2 h -1 v 1 h 2 l -3,2 c 1,-1 0,-2 -2,-3 l -1,1 h -1 v -1 l 1,-1 h -1 l -1,1 1,2 -1,-1 -1,-1 -2,1 -1,-1 v -1 h 2 v -1 h -3 v -2 h -1 l -1,-1 2,-1 v -2 h -1 l -1,1 h -2 l 1,-1 1,1 1,-2 v -3 h -2 l 2,-1 v -1 c -2,0 -2,-1 -2,-3 h 1 l 1,1 -1,1 2,-1 h -1 v -1 l 1,-1 v -2 l -1,1 h -1 v -1 c 2,0 3,-1 5,-3 h -2 v -1 l 2,-1 1,1 v -3 l 1,-1 1,2 1,-1 v -2 z m -13,20 h 1 v 1 h -1 z m 2,0 1,1 z m 2,-17 h 1 v 1 h -1 z m 4,29 1,1 h -1 z m 1,-4 v 1 z m 53,-79 4,1 h 2 l 1,1 3,-1 v 1 h 1 l 6,2 1,1 h 1 l 8,10 v 1 l 2,4 -1,2 h 1 v 4 l -1,1 h 1 l -1,1 h 1 l -2,2 1,1 -1,1 v 1 h 1 v 1 h -1 v 1 l -2,1 1,1 v 1 l -2,1 v 1 c -2,0 -3,1 -4,4 h -2 l -1,2 -1,-1 c 0,1 -1,2 -3,2 l 1,1 -8,3 -6,1 h -1 l -4,1 -1,1 v -1 l -3,1 -2,-1 -1,1 -2,-1 -3,1 h -5 l -2,-1 -3,2 -5,-4 h -2 l -3,-1 h -1 l -2,-2 h -1 l -1,-1 h -2 c 0,-1 -1,-4 -4,-7 l -1,-3 1,-1 v -1 l -1,-2 v -1 h -1 v -1 h 1 v -4 l 1,-2 -1,-1 3,-2 -1,-1 2,-2 v -2 l 4,-5 c 2,0 3,-1 5,-4 l 1,1 1,-1 v -2 h 3 v -1 h 1 v -1 h 2 l 1,1 c 0,-1 1,-2 3,-2 l 1,1 3,-2 h 1 v 1 l 4,-1 10,-2 h 3 l 1,1 z m -48,82 1,1 h -1 z m 4,-30 v 1 h -1 z m 3,2 h 1 v 1 h -1 z m 1,3 v 1 h 1 z m 1,24 h 2 l -1,1 -1,1 z m 3,-23 v 1 h 1 v -1 z m 1,22 v 1 h -1 z m 31,-64 -1,-1 -1,1 v -1 l -8,3 -8,4 c -2,0 -6,2 -11,7 l -1,1 v 3 l 4,3 h 6 v 1 l 5,-1 1,1 h 3 v 1 h 6 l 1,-1 2,1 c 4,-1 8,-3 12,-7 v -1 l 3,-3 2,-2 c 0,-2 0,-5 -2,-8 l -1,1 -2,-2 h -2 l -2,-1 z m -24,43 h -1 z m 5,3 h 1 v 1 h -1 z m 8,-2 -1,1 h 1 z m 16,13 v 1 h 1 v -1 z m 1,15 v 1 h 1 z m 1,-16 v 1 h 2 z m 6,-22 -1,1 z m -1,37 v 1 h 1 z m 0,-14 h 1 z m 3,2 v 1 z"
           id="path1186" />
        <path
           d="m 517,452 1,2 h -1 l 3,1 -1,2 v -1 l -1,-1 v 1 l 1,1 1,1 3,4 v -1 l 1,2 4,1 h -3 l -1,2 h 2 l 1,2 1,-1 3,2 v 1 h -1 v -1 c -1,1 -2,2 -3,1 v 2 l 1,-1 1,3 v 1 l -2,-1 -1,1 3,2 -1,1 -1,-1 v 1 l 1,2 -1,1 1,4 v 1 l -1,-1 -1,1 1,6 -1,2 h -1 v -1 l -1,1 2,1 v 5 l -2,1 1,3 -1,1 v 2 h 1 l 1,1 v 1 l -2,1 2,3 -2,2 h 2 v 1 l -3,2 1,1 -1,2 c 1,0 2,2 1,3 l -1,1 v 3 l 1,-1 v 2 l -2,2 h 1 l -3,5 v 6 l -1,5 1,1 h -1 l 1,4 -2,3 v 4 h -1 l 1,4 h -2 l 2,1 -2,4 -1,1 1,3 -1,1 v 5 h -2 v 1 h 1 l -1,2 -1,-1 v 2 h 1 l 1,4 v 1 c -1,-1 -2,-1 -1,-2 l -1,-1 v 4 l -1,1 v 1 l -2,1 c 0,3 1,5 2,5 h 5 l 1,1 2,-1 1,1 h 7 l 1,1 1,-1 v 1 h 5 l 1,1 7,1 -1,-6 -1,1 -1,-3 v -1 l 1,1 1,-3 h -2 v -1 l 1,-1 v -1 h -2 v -1 h 1 v -1 h -2 l 1,-1 h 1 l -2,-1 1,-1 -1,-1 3,-4 h -1 v -2 l 1,1 v -4 h 2 v 1 l 1,-1 -1,-1 v -1 l 2,1 v -1 l 1,-1 h 1 l 1,1 1,1 v -1 l -1,-1 4,-1 v 1 l -1,1 1,1 1,-2 1,2 2,-2 v 1 h 1 v 1 h -1 l 1,2 h 3 l 1,3 2,-1 v 2 h -1 c 2,1 3,2 2,3 h 2 l 1,2 h -1 v -1 h -1 v 1 l -1,1 1,1 h 1 v 1 l -4,1 2,1 -2,2 -1,7 h -1 l 1,5 -2,1 v 1 l 2,7 2,3 h 1 l 5,7 1,6 -2,2 v 1 l -6,4 h -3 l -2,-1 -3,-4 h -1 v -1 h -2 l -5,-3 h -1 l -3,-2 h -1 v -1 h -2 l -1,-1 h -4 l -2,-2 v 1 l -1,-1 h -2 l 1,-1 h -12 v -1 l -16,5 -4,3 v -1 h -3 v 2 h -1 c -5,3 -8,4 -10,3 -2,-1 -3,-2 -2,-3 h -2 v -3 c -1,0 -2,0 -2,2 l -1,-2 3,-1 v -1 l -1,-1 h -2 l -1,-3 1,-2 v -3 1 -2 h 1 v -1 l 4,-3 -1,-1 -1,1 1,-2 h 1 v 1 c 2,-2 4,-2 5,-2 v -2 l 3,-1 v 1 l 3,-2 3,-9 v -1 h 1 v -4 l 1,-1 1,1 v -5 l 1,-1 h -1 l 1,-2 v -2 h 1 l -1,-3 2,-2 v -7 h 1 l -2,-1 2,-1 c -1,-1 -2,-1 -1,-2 v -8 h -2 l 1,-1 3,-4 v -1 l -1,1 h -1 l 1,-3 1,-2 h -1 l -1,-2 -1,-2 h 2 v -4 h 1 v -3 h -1 l -1,1 -1,-1 1,-3 h 1 v -6 h -1 l 1,-2 -2,-2 v -5 h -1 l -1,1 h -1 l 1,-2 h 1 v -1 h 2 l -1,2 h 1 v -1 l -2,-4 -1,-4 1,-1 -3,-3 v -1 h -1 l 1,-1 1,1 v -1 l -1,-1 v -1 l 2,-1 1,1 v 1 l 1,-1 -1,-2 -1,1 -1,-1 v -4 l -1,1 -2,-2 1,-2 v -2 l 1,1 v 1 l 1,-1 v -2 h -1 v -1 h 1 l -1,-2 v -1 h 1 l -1,1 3,1 -3,-4 1,-1 1,1 v -1 h -3 v -2 h 2 l -1,-4 v -1 l 1,1 v -1 h -1 l -1,-2 1,1 1,-1 h -2 v -1 l 1,-1 v -1 h 1 v 4 c 1,-1 1,-2 2,-1 v -1 h -1 c 1,-3 0,-5 -3,-6 l 2,-1 v 1 l 1,-1 2,3 1,-1 v -1 l 1,-1 v -1 l -1,1 -2,-1 1,-2 h -2 1 l 1,-2 2,1 c -1,2 -1,3 1,4 h 2 v -1 l -2,-1 1,-1 2,2 v -4 l 2,1 2,-2 1,1 v -1 l 1,1 1,1 1,-1 1,1 -1,-2 h 1 l 1,1 h 1 z m -41,167 1,1 -1,1 z m 6,8 v 1 h -1 v -1 z m 6,-3 -1,1 h 1 z m 5,-147 v 1 l -1,-1 z m 0,-6 h 1 l -1,1 h -1 z m 0,-2 h 1 l -1,1 z m 1,14 v 1 l -1,-1 z m 0,7 2,1 v 1 l -1,-1 z m 2,3 -1,1 v -1 z m -1,-6 h 1 v -1 z m 1,13 1,1 h -2 z m 2,-16 -1,2 h 1 l 1,-1 z m 0,13 v 1 z m 1,20 1,2 -2,-1 z m 0,-20 h 1 v -1 z m 0,6 1,1 v -1 z m 0,19 1,1 h -1 z m 4,-74 h 1 v 1 h -1 z m 0,2 v 1 l 2,2 h -2 z m 0,9 1,1 1,-1 z m 3,-15 v 1 l -1,1 h -1 z m 0,5 1,1 -1,1 -1,-1 z m 1,-3 h 1 v 1 l -1,1 z m 0,150 1,1 v -1 z m 2,-147 v 3 h -1 v -2 z m 0,6 -1,1 h 2 z m 5,135 h -1 l -3,4 v -1 h 1 v -2 z m -4,-142 h 2 v 1 z m 1,1 2,1 1,1 h -2 z m 0,8 1,1 v -1 z m 3,-9 v 1 h -2 z m 0,139 v 1 h -1 z m 2,-131 -1,1 h 2 z m 0,-11 1,1 v 1 z m 1,5 h 1 l -1,1 z m 2,13 h 1 z m 4,-7 1,3 v 2 h -1 l -1,-1 1,-1 v -1 l -1,1 z m -1,8 1,1 v -2 z m 4,37 v 1 h -1 z m 0,16 1,1 -1,1 -1,-1 z m 1,-22 1,1 v 1 l -1,-1 z m 0,33 h 1 v 1 z m 2,-30 -1,1 -1,-1 z m 0,-9 v 1 h -1 v -1 z m 0,-5 h 1 l -2,1 z m 0,-5 1,1 -1,2 -1,-1 z m 8,94 h 1 v 1 z m 2,6 v 1 l 1,-1 z m 4,20 -1,1 1,1 z m 6,-31 v 2 l 1,-1 z m 1,-3 1,1 h -1 z m 75,-80 h 1 l 4,3 2,1 h 2 v 1 h 2 l 1,1 8,6 5,6 c 2,0 3,2 2,6 l 1,-1 2,3 v 1 l 1,1 h -1 l 1,1 v -1 5 l 1,2 -2,2 v 1 l -4,4 v 1 h -3 v -1 h -1 v 2 -1 l -2,-1 -1,2 c -2,-1 -2,-2 -2,-3 h -1 l -2,-3 h -1 v -1 h 1 -2 v -3 l 1,-1 v -1 l -1,-2 h 1 v -1 c -2,0 -2,-1 -3,-3 h 1 c -2,0 -3,-1 -3,-3 h -2 l 1,-1 h -1 v -1 l -1,1 c -1,-2 -4,-4 -8,-5 v -1 h -2 l -2,-1 h -9 v -1 h -1 v 1 h -1 l -3,-1 v 1 h -1 l -1,-1 -1,-1 -1,2 v 1 h -1 v -1 l -5,2 v -1 l -4,4 1,1 -2,3 1,-1 h 1 v 1 h -1 v 1 c 1,0 3,3 6,10 h 1 v -2 l 1,1 v 2 h -1 l 5,4 v 2 h 2 l -1,1 8,8 h 1 l 8,6 6,5 6,4 1,2 v -1 h 1 l 1,3 h 1 l 1,1 h -1 l 5,4 3,4 2,2 4,9 v 2 l 1,2 1,-1 v 3 l 1,6 -1,1 c 1,0 2,1 1,4 l -1,2 2,1 h -1 v 1 l 1,2 -2,1 v 5 h -1 v 3 -1 l -2,2 v 2 l -3,3 v 1 c -3,4 -7,7 -13,11 h -1 l -3,1 v 1 h -1 v -1 l -1,2 v -1 l -3,1 v -1 h -1 v -1 l -4,1 1,1 -2,-1 v 1 h -1 v -1 h 1 l -1,-1 v 1 h -1 l -2,-1 h -3 l -2,-1 -1,1 v -1 h -2 v -1 h -5 v -1 h -2 v 1 l -3,-4 -1,1 -1,-1 -9,-4 1,-1 h -1 c -2,-2 -3,-3 -5,-3 v -1 c -2,-4 -4,-5 -3,-6 l 1,1 v -1 l -2,-1 v 1 -2 l -2,-4 h -1 l -1,-1 1,-1 -1,-1 h 1 v -3 h -1 v 1 c 0,-2 -1,-2 -2,-3 l 2,-4 -2,1 1,-2 h -1 l 1,-1 v -3 h -1 l 3,-3 v -2 l -1,-1 3,-1 v -2 h 1 l 1,-3 7,-4 1,-1 1,1 2,1 -1,1 h 2 l 2,4 -1,1 h 2 l -1,1 c 1,1 2,1 1,2 l 1,2 h 1 l -1,1 v 1 l 1,1 v 4 h -1 v 1 h 1 v -1 c 1,1 2,2 1,3 v 1 c 0,2 0,2 2,3 h -1 v 1 l -1,1 h 1 l 1,-1 1,1 v 2 h -1 l 3,4 h 1 l 1,2 h 1 l 2,2 h 2 l 1,1 4,1 h 1 l 3,2 v -1 l 1,1 1,-1 v 1 c 8,-1 12,-3 12,-6 l 3,-3 v -2 h 2 l -1,-4 h 2 l -1,-3 v -1 l 1,-1 -3,-8 -3,-5 -4,-5 -5,-6 h -1 l -8,-6 v -1 h -1 c 0,-1 -1,-2 -4,-2 l -2,-2 h -2 l -1,-2 -1,1 h -1 v -2 h -1 l -2,-2 h -1 l -4,-4 h -1 l -7,-7 h -1 l -3,-3 1,-1 -3,-7 -2,-3 v -1 h 1 v -1 h -1 l 1,-1 h -1 v -1 l -1,-1 1,-1 -2,-2 h 1 v -9 l 1,-2 -1,-2 3,-3 v -1 l 2,-3 1,-1 h -1 v -1 l 3,-1 -1,-1 1,-1 v 1 l 3,-4 7,-2 h 2 l 5,-1 v 1 h 1 v -2 l 2,1 h 1 v -2 l 1,1 v 1 h 1 l 1,-1 h 2 v 1 h 7 l 3,1 h 1 l 1,1 h 2 c 1,1 2,0 2,-1 z m -51,87 h 1 l -1,1 z m 3,37 h 1 v 1 h -1 z m 1,2 v 1 h -1 z m 43,-47 1,1 h -1 z m 22,-38 1,1 v -1 z m 6,82 h 1 v 1 h -1 z m 5,-7 h 1 z"
           id="path1188" />
      </g>
    </g>
  </g>
</svg>
