<?xml version="1.0" encoding="UTF-8" standalone="no"?>
<!-- Created with Inkscape (http://www.inkscape.org/) -->

<svg
   version="1.1"
   id="svg7503"
   xml:space="preserve"
   width="975.02679"
   height="494.27332"
   viewBox="0 0 975.02679 494.27333"
   xmlns="http://www.w3.org/2000/svg"
   xmlns:svg="http://www.w3.org/2000/svg"><defs
     id="defs7507"><clipPath
       clipPathUnits="userSpaceOnUse"
       id="clipPath7517"><path
         d="M 0,1024 H 768 V 0 H 0 Z"
         id="path7515" /></clipPath></defs><g
     id="g7509"
     transform="matrix(1.3333333,0,0,-1.3333333,-30.297466,935.38664)"><g
       id="g7511"><g
         id="g7513"
         clip-path="url(#clipPath7517)"><g
           id="g7519"
           transform="translate(433.9043,496.8389)"><path
             d="m 0,0 c 0,4.517 -0.684,8.236 -2.059,11.168 -1.369,2.93 -4.136,5.418 -8.302,7.463 -2.69,1.339 -5.616,2.199 -8.784,2.576 -3.167,0.375 -7.662,0.568 -13.484,0.568 H -51.897 V -22.58 h 13.788 c 7.416,0 13.273,0.322 17.552,0.967 4.282,0.646 8.053,2.017 11.303,4.107 3.199,2.104 5.543,4.483 7.027,7.141 C -0.738,-7.699 0,-4.248 0,0 m -6.016,54.414 c 0,2.899 -0.513,5.406 -1.541,7.523 -1.029,2.121 -2.687,3.795 -4.968,5.031 -2.739,1.449 -5.79,2.334 -9.159,2.652 -3.365,0.326 -8.015,0.485 -13.953,0.485 h -16.26 V 35.029 h 19.262 c 5.307,0 9.213,0.255 11.723,0.764 2.514,0.512 5.109,1.57 7.789,3.179 2.57,1.555 4.396,3.594 5.48,6.114 1.086,2.519 1.627,5.629 1.627,9.328 M 17.644,0.658 c 0,-5.961 -1.204,-11.221 -3.602,-15.779 -2.398,-4.563 -5.621,-8.324 -9.67,-11.276 -4.796,-3.544 -9.931,-6.054 -15.415,-7.529 -5.475,-1.472 -12.551,-2.211 -21.223,-2.211 H -68.827 V 83.665 h 33.807 c 9.071,0 15.875,-0.278 20.413,-0.844 4.535,-0.563 8.888,-1.887 13.05,-3.979 C 3.009,76.538 6.347,73.523 8.458,69.8 10.567,66.074 11.626,61.693 11.626,56.655 11.626,51.025 10.04,45.99 6.872,41.542 3.704,37.094 -0.676,33.609 -6.266,31.091 V 30.445 C 1.329,28.517 7.214,24.986 11.386,19.86 15.556,14.73 17.644,8.338 17.644,0.658"
             style="fill:#ffffff;fill-opacity:1;fill-rule:nonzero;stroke:none"
             id="path7521" /></g><g
           id="g7523"
           transform="translate(468.4111,460.7021)"><path
             d="M 0,0 V 119.802 H 79.842 V 105.628 H 16.928 V 72.797 H 75.557 V 58.625 H 16.928 V 14.166 H 79.842 V 0 Z"
             style="fill:#ffffff;fill-opacity:1;fill-rule:nonzero;stroke:none"
             id="path7525" /></g><g
           id="g7527"
           transform="translate(602.2998,458.5537)"><path
             d="m 0,0 c -9.24,0 -17.096,0.9 -23.57,2.693 -6.473,1.797 -12.561,4.01 -18.268,6.633 v 19.942 h 1.195 c 5.59,-4.926 11.92,-8.739 18.995,-11.452 7.068,-2.697 13.886,-4.048 20.441,-4.048 9.35,0 16.424,1.836 21.213,5.507 4.787,3.668 7.185,8.506 7.185,14.51 0,4.772 -1.252,8.656 -3.761,11.66 -2.506,2.998 -6.498,5.223 -11.971,6.674 -3.94,1.065 -7.533,1.949 -10.787,2.649 -3.252,0.697 -7.33,1.636 -12.24,2.816 -4.387,1.076 -8.327,2.438 -11.809,4.102 -3.482,1.662 -6.557,3.83 -9.238,6.511 -2.627,2.629 -4.67,5.722 -6.119,9.291 -1.457,3.565 -2.184,7.68 -2.184,12.344 0,9.706 4.018,17.841 12.061,24.408 8.043,6.567 18.304,9.853 30.796,9.853 7.131,0 13.872,-0.672 20.229,-2.013 6.361,-1.342 12.258,-3.248 17.67,-5.717 V 97.275 h -1.281 c -4.049,3.493 -9.241,6.54 -15.571,9.146 -6.326,2.602 -12.965,3.906 -19.923,3.906 -7.87,0 -14.223,-1.728 -19.073,-5.185 -4.844,-3.456 -7.269,-7.999 -7.269,-13.627 0,-5.091 1.427,-9.136 4.277,-12.14 2.852,-3.002 6.984,-5.199 12.402,-6.588 3.592,-0.914 7.985,-1.945 13.178,-3.098 5.191,-1.154 9.5,-2.211 12.924,-3.177 8.783,-2.519 15.207,-6.328 19.256,-11.42 4.049,-5.096 6.076,-11.365 6.076,-18.817 C 44.834,31.607 43.82,27 41.791,22.443 39.769,17.887 36.934,14.027 33.281,10.863 29.172,7.375 24.543,4.695 19.377,2.82 14.219,0.941 7.758,0 0,0"
             style="fill:#ffffff;fill-opacity:1;fill-rule:nonzero;stroke:none"
             id="path7529" /></g><g
           id="g7531"
           transform="translate(694.2432,460.7021)"><path
             d="m 0,0 v 105.628 h -42.814 v 14.174 H 59.75 V 105.628 H 16.928 V 0 Z"
             style="fill:#ffffff;fill-opacity:1;fill-rule:nonzero;stroke:none"
             id="path7533" /></g><g
           id="g7535"
           transform="translate(642.6494,419.6045)"><path
             d="m 0,0 c 0,1.451 -0.207,2.647 -0.621,3.588 -0.414,0.941 -1.252,1.74 -2.514,2.394 -0.812,0.432 -1.697,0.709 -2.654,0.83 -0.959,0.122 -2.318,0.182 -4.08,0.182 h -5.828 V -7.254 h 4.17 c 2.244,0 4.015,0.104 5.31,0.313 1.295,0.205 2.436,0.646 3.42,1.32 0.967,0.674 1.674,1.437 2.123,2.293 C -0.225,-2.475 0,-1.365 0,0 m -1.812,17.512 c 0,0.931 -0.157,1.738 -0.467,2.422 -0.311,0.681 -0.813,1.22 -1.502,1.619 -0.83,0.465 -1.752,0.752 -2.772,0.853 -1.019,0.106 -2.428,0.156 -4.222,0.156 h -4.922 V 11.268 h 5.828 c 1.605,0 2.789,0.082 3.549,0.246 0.759,0.164 1.545,0.506 2.357,1.025 0.777,0.5 1.33,1.154 1.658,1.967 0.328,0.812 0.493,1.814 0.493,3.006 M 5.338,0.207 c 0,-1.916 -0.363,-3.609 -1.09,-5.076 C 3.523,-6.338 2.547,-7.547 1.322,-8.496 -0.129,-9.637 -1.684,-10.445 -3.342,-10.92 -5,-11.395 -7.141,-11.631 -9.766,-11.631 h -11.06 v 38.57 h 10.232 c 2.744,0 4.805,-0.089 6.178,-0.269 1.373,-0.184 2.689,-0.609 3.951,-1.283 1.381,-0.742 2.391,-1.715 3.029,-2.914 0.639,-1.201 0.959,-2.614 0.959,-4.237 0,-1.812 -0.478,-3.435 -1.437,-4.869 C 1.127,11.934 -0.199,10.811 -1.891,10 V 9.791 C 0.406,9.172 2.186,8.035 3.445,6.385 4.705,4.736 5.338,2.676 5.338,0.207"
             style="fill:#ffffff;fill-opacity:1;fill-rule:nonzero;stroke:none"
             id="path7537" /></g><g
           id="g7539"
           transform="translate(671.8701,435.6904)"><path
             d="m 0,0 c 0,1.123 -0.199,2.121 -0.596,2.992 -0.396,0.873 -1.009,1.586 -1.839,2.137 -0.725,0.484 -1.573,0.824 -2.54,1.023 -0.966,0.2 -2.166,0.299 -3.599,0.299 h -5.078 V -8.107 h 4.509 c 1.467,0 2.788,0.128 3.961,0.388 1.174,0.258 2.178,0.795 3.006,1.606 0.742,0.724 1.291,1.59 1.645,2.591 C -0.176,-2.522 0,-1.346 0,0 M 11.088,-27.717 H 4.43 l -12.227,15.336 h -5.855 v -15.336 h -5.129 v 38.57 h 9.949 c 2.209,0 4.061,-0.119 5.555,-0.361 C -1.783,10.25 -0.363,9.689 0.984,8.809 2.332,7.945 3.397,6.83 4.184,5.467 4.969,4.102 5.363,2.41 5.363,0.389 c 0,-2.832 -0.716,-5.198 -2.15,-7.098 -1.434,-1.9 -3.385,-3.307 -5.856,-4.221 z"
             style="fill:#ffffff;fill-opacity:1;fill-rule:nonzero;stroke:none"
             id="path7541" /></g><g
           id="g7543"
           transform="translate(713.6025,407.9736)"><path
             d="M 0,0 H -5.75 L -22.797,33.262 V 0 h -4.791 v 38.57 h 7.279 L -4.793,8.029 V 38.57 H 0 Z"
             style="fill:#ffffff;fill-opacity:1;fill-rule:nonzero;stroke:none"
             id="path7545" /></g><g
           id="g7547"
           transform="translate(748.0049,427.2451)"><path
             d="m 0,0 c 0,2.557 -0.277,4.82 -0.83,6.789 -0.553,1.967 -1.33,3.6 -2.332,4.895 -1.018,1.33 -2.25,2.328 -3.692,2.992 -1.441,0.664 -3.06,0.998 -4.857,0.998 -1.865,0 -3.492,-0.324 -4.883,-0.973 -1.388,-0.646 -2.619,-1.652 -3.689,-3.017 -1.02,-1.313 -1.801,-2.961 -2.346,-4.948 -0.545,-1.986 -0.814,-4.23 -0.814,-6.736 0,-5.059 1.06,-8.932 3.185,-11.617 2.123,-2.684 4.973,-4.028 8.547,-4.028 3.576,0 6.42,1.344 8.537,4.028 C -1.059,-8.932 0,-5.059 0,0 M 0.699,14.871 C 2.166,13.178 3.307,11.08 4.119,8.576 4.93,6.07 5.336,3.213 5.336,0 c 0,-3.125 -0.399,-5.949 -1.193,-8.471 -0.793,-2.521 -1.942,-4.636 -3.444,-6.345 -1.572,-1.795 -3.408,-3.121 -5.506,-3.977 -2.097,-0.855 -4.408,-1.281 -6.929,-1.281 -2.608,0 -4.957,0.439 -7.045,1.32 -2.09,0.881 -3.887,2.194 -5.389,3.938 -1.486,1.709 -2.625,3.816 -3.42,6.32 -0.795,2.504 -1.191,5.336 -1.191,8.496 0,3.248 0.402,6.098 1.203,8.549 0.805,2.453 1.949,4.56 3.433,6.322 1.487,1.709 3.278,3.008 5.375,3.899 2.1,0.888 4.444,1.334 7.034,1.334 2.625,0 4.992,-0.459 7.099,-1.374 2.106,-0.915 3.885,-2.201 5.336,-3.859"
             style="fill:#ffffff;fill-opacity:1;fill-rule:nonzero;stroke:none"
             id="path7549" /></g><g
           id="g7551"
           transform="translate(301.4751,460.54)"><path
             d="m 0,0 -28.079,16.18 h -73.317 L -129.467,0 C -102.606,-46.674 -22.29,-123.094 64.729,-129.705 34.407,-112.723 -13.853,-51.689 0,0"
             style="fill:#ffffff;fill-opacity:1;fill-rule:nonzero;stroke:none"
             id="path7553" /></g><g
           id="g7555"
           transform="translate(321.2944,701.54)"><path
             d="m 0,0 c 0.454,-34.762 -28.254,-107.049 -79.952,-120.908 l 0.019,-32.407 36.657,-63.497 28.054,-16.229 C 11.764,-186.434 37.798,-78.674 0,0 m -79.933,-153.315 v 0 l -0.547,0.952 z"
             style="fill:#ffffff;fill-opacity:1;fill-rule:nonzero;stroke:none"
             id="path7557" /></g><g
           id="g7559"
           transform="translate(232.1421,580.6323)"><path
             d="m 0,0 c -53.845,0.075 -160.195,-31.27 -209.419,-103.342 29.874,17.771 106.847,29.066 144.692,-8.793 l 28.045,16.23 36.661,63.492 z m -36.682,-95.905 v 0 l -0.547,-0.955 z"
             style="fill:#ffffff;fill-opacity:1;fill-rule:nonzero;stroke:none"
             id="path7561" /></g><g
           id="g7563"
           transform="translate(219.5552,503.2314)"><path
             d="m 0,0 c 0,9.484 7.692,17.177 17.187,17.177 9.489,0 17.179,-7.693 17.179,-17.177 0,-9.517 -7.69,-17.184 -17.179,-17.184 C 7.692,-17.184 0,-9.517 0,0"
             style="fill:#ffffff;fill-opacity:1;fill-rule:nonzero;stroke:none"
             id="path7565" /></g></g></g></g></svg>
