<?xml version="1.0" encoding="UTF-8" standalone="no"?>
<svg
   width="69.93"
   height="31.540001"
   viewBox="0 0 69.929998 31.540001"
   version="1.1"
   id="Vrstva_1"
   xmlns="http://www.w3.org/2000/svg"
   xmlns:svg="http://www.w3.org/2000/svg">
  <defs
     id="defs894" />
  <path
     fill="#0000dc"
     d="M 12.39,10.68 V 0 H 8.85 L 7.3,4.9 C 6.9,6.19 6.54,7.53 6.26,8.83 H 6.23 C 5.94,7.53 5.58,6.19 5.17,4.9 L 3.63,0 H 0.09 V 10.68 H 2.2 V 5.37 C 2.2,4.03 2.17,2.7 2.11,1.37 H 2.14 C 2.49,2.67 2.88,4 3.29,5.29 l 1.69,5.39 H 7.5 L 9.2,5.29 C 9.6,4 9.99,2.67 10.33,1.37 h 0.03 c -0.06,1.33 -0.09,2.66 -0.09,4 v 5.31 z m 5.23,-7.86 c -2.17,0 -3.22,1.17 -3.29,2.62 h 2.03 c 0.03,-0.72 0.48,-1.15 1.26,-1.15 0.74,0 1.25,0.39 1.25,1.35 v 0.27 c -0.48,0.03 -1.34,0.12 -1.91,0.21 -2.2,0.34 -2.95,1.18 -2.95,2.43 0,1.32 0.98,2.31 2.6,2.31 1.04,0 1.9,-0.39 2.47,-1.2 h 0.03 c 0,0.37 0.03,0.7 0.1,1.02 h 1.9 C 20.97,10.17 20.89,9.55 20.89,8.59 V 5.83 c 0,-1.99 -1.11,-3.01 -3.27,-3.01 z m 1.25,4.65 c 0,0.69 -0.07,1.09 -0.44,1.45 -0.3,0.3 -0.76,0.44 -1.19,0.44 -0.74,0 -1.13,-0.39 -1.13,-0.96 0,-0.62 0.36,-0.9 1.23,-1.05 0.45,-0.08 1.08,-0.14 1.53,-0.17 z m 6.81,-4.65 c -1.89,0 -3.15,0.97 -3.15,2.34 0,1.77 1.36,2.07 2.64,2.4 1.19,0.31 1.75,0.45 1.75,1.11 0,0.45 -0.37,0.73 -1.1,0.73 -0.87,0 -1.34,-0.43 -1.34,-1.2 h -2.13 c 0,1.85 1.31,2.72 3.42,2.72 2.07,0 3.36,-0.96 3.36,-2.39 0,-1.86 -1.5,-2.2 -2.86,-2.56 -1.16,-0.3 -1.64,-0.44 -1.64,-0.98 0,-0.43 0.36,-0.7 1.04,-0.7 0.75,0 1.19,0.33 1.19,1.11 h 2.02 c 0,-1.7 -1.21,-2.58 -3.2,-2.58 z m 8.23,0 c -2.17,0 -3.22,1.17 -3.3,2.62 h 2.04 c 0.03,-0.72 0.48,-1.15 1.26,-1.15 0.74,0 1.25,0.39 1.25,1.35 v 0.27 c -0.48,0.03 -1.34,0.12 -1.91,0.21 -2.2,0.34 -2.95,1.18 -2.95,2.43 0,1.32 0.97,2.31 2.59,2.31 1.05,0 1.91,-0.39 2.48,-1.2 h 0.03 c 0,0.37 0.03,0.7 0.1,1.02 h 1.89 C 37.26,10.17 37.18,9.55 37.18,8.59 V 5.83 c 0,-1.99 -1.11,-3.01 -3.27,-3.01 z m 1.25,4.65 c 0,0.69 -0.08,1.09 -0.44,1.45 -0.3,0.3 -0.76,0.44 -1.2,0.44 -0.73,0 -1.12,-0.39 -1.12,-0.96 0,-0.62 0.36,-0.9 1.23,-1.05 0.45,-0.08 1.08,-0.14 1.53,-0.17 z m 8.02,-4.53 c -0.9,0 -1.57,0.37 -2.08,1.2 H 41.07 V 3.06 h -1.93 v 7.62 h 2.1 v -3.6 c 0,-1.5 0.68,-2.31 1.97,-2.31 0.21,0 0.43,0.03 0.66,0.07 V 3.03 C 43.67,2.97 43.39,2.94 43.18,2.94 Z m 8.48,0.12 H 49.5 L 48.67,5.61 C 48.33,6.66 48.05,7.74 47.79,8.8 H 47.76 C 47.52,7.74 47.24,6.66 46.92,5.61 L 46.14,3.06 h -2.25 l 2.16,6.19 c 0.3,0.86 0.36,1.1 0.36,1.38 0,0.75 -0.55,1.24 -1.39,1.24 -0.32,0 -0.61,-0.05 -0.82,-0.13 v 1.68 c 0.32,0.08 0.72,0.12 1.1,0.12 1.9,0 2.86,-0.67 3.63,-2.82 z m 8.19,7.62 -3.21,-4.11 2.89,-3.51 H 57.17 L 54.7,6.13 H 54.67 V 0 h -2.09 v 10.68 h 2.09 V 7.11 h 0.03 l 2.55,3.57 z"
     id="path885" />
  <path
     fill="#0000dc"
     d="m 8.49,18 h -2.2 v 6.52 c 0,1.6 -0.72,2.45 -2.05,2.45 -1.32,0 -2.04,-0.85 -2.04,-2.45 V 18 H 0 v 6.6 c 0,2.82 1.53,4.32 4.24,4.32 2.72,0 4.25,-1.5 4.25,-4.32 z m 6.39,2.88 c -0.97,0 -1.74,0.46 -2.24,1.14 h -0.02 v -0.96 h -1.97 v 7.62 h 2.1 V 24.6 c 0,-1.38 0.63,-2.07 1.5,-2.07 0.83,0 1.34,0.52 1.34,1.68 v 4.47 h 2.1 V 24 c 0,-2.07 -1.1,-3.12 -2.81,-3.12 z M 21.75,19.8 V 18 h -2.1 v 1.8 z m 0,8.88 v -7.62 h -2.1 v 7.62 z m 6.21,0 2.56,-7.62 h -2.19 l -0.88,3 c -0.31,1.08 -0.6,2.19 -0.84,3.3 h -0.03 c -0.24,-1.11 -0.53,-2.22 -0.84,-3.3 l -0.88,-3 h -2.19 l 2.56,7.62 z m 6.69,-1.24 c -0.9,0 -1.66,-0.56 -1.73,-2.14 h 5.48 c 0,-0.84 -0.07,-1.42 -0.24,-1.95 -0.48,-1.54 -1.77,-2.53 -3.52,-2.53 -2.39,0 -3.78,1.74 -3.78,3.99 0,2.43 1.39,4.11 3.79,4.11 2.02,0 3.34,-1.16 3.65,-2.55 h -2.15 c -0.1,0.61 -0.66,1.07 -1.5,1.07 z M 34.64,22.3 c 0.84,0 1.53,0.53 1.66,1.68 h -3.33 c 0.17,-1.15 0.81,-1.68 1.67,-1.68 z m 9.35,-1.36 c -0.9,0 -1.57,0.37 -2.08,1.2 h -0.03 v -1.08 h -1.93 v 7.62 h 2.1 v -3.6 c 0,-1.5 0.69,-2.31 1.97,-2.31 0.22,0 0.43,0.03 0.66,0.07 v -1.81 c -0.2,-0.06 -0.48,-0.09 -0.69,-0.09 z m 4.55,-0.12 c -1.89,0 -3.15,0.97 -3.15,2.34 0,1.77 1.36,2.07 2.64,2.4 1.18,0.31 1.75,0.45 1.75,1.11 0,0.45 -0.37,0.73 -1.11,0.73 -0.87,0 -1.33,-0.43 -1.33,-1.2 h -2.13 c 0,1.85 1.31,2.72 3.42,2.72 2.07,0 3.36,-0.96 3.36,-2.39 0,-1.86 -1.5,-2.2 -2.87,-2.56 -1.15,-0.3 -1.63,-0.43 -1.63,-0.98 0,-0.43 0.36,-0.7 1.03,-0.7 0.75,0 1.2,0.33 1.2,1.11 h 2.02 c 0,-1.7 -1.21,-2.58 -3.2,-2.58 z M 55.67,19.8 V 18 h -2.1 v 1.8 z m 0,8.88 v -7.62 h -2.1 v 7.62 z m 5.45,-1.58 c -0.72,0 -0.99,-0.33 -0.99,-1.16 v -3.32 h 1.46 v -1.56 h -1.46 v -1.98 h -2.1 v 1.98 H 56.8 v 1.56 h 1.23 v 3.69 c 0,1.77 0.77,2.47 2.52,2.47 0.36,0 0.83,-0.06 1.11,-0.15 v -1.6 c -0.13,0.05 -0.34,0.07 -0.54,0.07 z m 8.81,-6.04 h -2.16 l -0.83,2.55 c -0.34,1.05 -0.63,2.13 -0.88,3.19 H 66.03 C 65.79,25.74 65.5,24.66 65.19,23.61 l -0.78,-2.55 h -2.25 l 2.16,6.2 c 0.3,0.85 0.36,1.09 0.36,1.37 0,0.75 -0.56,1.24 -1.4,1.24 -0.31,0 -0.6,-0.05 -0.81,-0.13 v 1.68 c 0.32,0.08 0.72,0.12 1.1,0.12 1.9,0 2.86,-0.67 3.63,-2.82 z"
     id="path887" />
  <desc
     id="desc889">Masaryk University
  </desc>
</svg>
